<?xml version="1.0" encoding="utf-8"?>
<!-- Created by sK1 2.0rc4 (https://sk1project.net/) -->
<svg xmlns="http://www.w3.org/2000/svg" height="832.677165354pt" viewBox="0 0 832.677165354 832.677165354" width="832.677165354pt" version="1.1" xmlns:xlink="http://www.w3.org/1999/xlink" id="444c6512-b367-11ea-be2e-a0f3c11e789f">

<g>
	<path style="fill:#2d2c2b;" d="M 198.2368,3.9798 C 176.831,3.9807 159.4798,21.3335 159.4789,42.7393 159.6527,97.2059 159.6516,248.3986 159.6516,308.7603 L 224.578,308.7603 224.578,232.9937 C 224.5814,215.6182 238.668,201.5348 256.0435,201.5346 L 578.9054,201.5346 C 596.2785,201.538 610.3609,215.6206 610.3645,232.9937 L 610.3645,308.7603 676.9873,308.7603 C 676.9873,308.7603 676.1974,113.8881 676.1974,42.3252 676.1966,20.9218 659.0413,3.9841 637.6378,3.9798 L 198.2368,3.9798 Z" />
	<path style="fill:#2d2c2b;" d="M 122.3327,348.3784 C 100.9895,348.7014 83.9428,366.2533 84.2431,387.5968 L 84.2431,789.4806 C 83.9395,811.053 101.3434,828.7035 122.9178,828.7035 144.4923,828.7035 161.8962,811.053 161.5926,789.4806 L 161.5926,726.2506 671.0779,726.2506 671.0779,789.4806 C 670.7744,811.053 688.1782,828.7035 709.7527,828.7035 731.3271,828.7035 748.731,811.053 748.4274,789.4806 L 748.4274,387.5968 C 748.7343,365.7949 730.969,348.0485 709.1675,348.3784 690.2185,348.6729 674.2737,362.6533 671.5048,381.4012 L 161.1353,381.4012 C 158.3028,362.2258 141.7142,348.1082 122.3327,348.3784 Z" />
</g>
</svg>