<?xml version="1.0" encoding="utf-8"?>
<!-- Created by sK1 2.0rc4 (https://sk1project.net/) -->
<svg xmlns="http://www.w3.org/2000/svg" height="832.677165354pt" viewBox="0 0 832.677165354 832.677165354" width="832.677165354pt" version="1.1" xmlns:xlink="http://www.w3.org/1999/xlink" id="648d8578-b366-11ea-be2e-a0f3c11e789f">

<g>
	<path style="fill:#2d2c2b;" d="M 117.0954,71.0448 C 77.2197,70.4019 52.8523,68.431 51.8624,93.6573 L 52.8018,332.7651 51.8649,496.73 C 51.6553,516.2399 67.4126,532.1693 86.9236,532.1693 106.4346,532.1693 122.1923,516.2399 121.9825,496.73 L 121.9825,427.0725 256.4603,662.6072 256.4603,788.2405 C 256.1707,807.8048 271.9527,823.8212 291.5191,823.8212 311.0855,823.8212 326.8637,807.8048 326.5744,788.2405 L 326.5744,685.4917 710.6994,685.4917 710.6994,785.5991 C 710.4099,805.1635 726.1918,821.1797 745.7581,821.1797 765.3246,821.1797 781.1027,805.1635 780.8133,785.5991 L 780.8133,650.4365 C 780.7993,641.5862 777.4345,633.0694 771.4001,626.5954 L 771.4352,626.5674 C 688.5787,538.7884 534.6573,386.4411 482.3377,331.4384 483.8272,225.224 481.3798,155.0159 480.8703,99.7225 480.606,71.0448 470.4367,72.3879 419.4877,71.7919 345.1879,-11.9975 200.0208,-11.9975 117.0954,71.0448 Z M 169.0851,183.4001 L 373.1443,183.4001 C 392.505,183.4034 408.1987,200.2958 408.1994,221.1328 L 408.1994,295.2976 C 408.1968,316.1333 392.5037,333.0235 373.1443,333.0268 L 169.0851,333.0268 C 149.7256,333.0235 134.0324,316.1333 134.0298,295.2976 L 134.0298,221.1328 C 134.0306,200.2958 149.7242,183.4033 169.0851,183.4001 Z" />
</g>
</svg>