<?xml version="1.0" encoding="utf-8"?>
<!-- Created by sK1 2.0rc4 (https://sk1project.net/) -->
<svg xmlns="http://www.w3.org/2000/svg" height="832.677165354pt" viewBox="0 0 832.677165354 832.677165354" width="832.677165354pt" version="1.1" xmlns:xlink="http://www.w3.org/1999/xlink" id="c840da4e-b365-11ea-be2e-a0f3c11e789f">

<g>
	<path style="fill:#2d2c2b;" d="M 98.9598,61.6478 C 80.5477,61.6485 65.6232,76.5744 65.6224,94.9865 65.7719,141.8356 65.7709,271.883 65.7709,323.8027 L 121.6169,323.8027 121.6169,258.6325 C 121.62,243.6871 133.7364,231.5734 148.6818,231.5732 L 363.018,231.5732 C 377.9613,231.5764 390.0743,243.6892 390.0773,258.6325 L 390.0773,323.8027 443.1137,323.8027 443.1137,258.6325 C 443.1164,243.6871 455.2331,231.5734 470.1785,231.5732 L 684.5147,231.5732 C 699.4581,231.5764 711.5714,243.6892 711.5741,258.6325 L 711.5741,323.8027 767.0556,323.8027 C 767.0556,323.8027 766.3762,156.1847 766.3762,94.6303 766.3755,76.2203 751.6195,61.6514 733.2094,61.6478 L 98.9598,61.6478 Z" />
	<path style="fill:#2d2c2b;" d="M 35.3037,357.8799 C 17.1506,358.1634 2.538,372.9512 2.538,391.1452 2.538,391.3098 2.5392,391.474 2.5416,391.638 L 2.5413,737.291 C 2.5392,737.4303 2.538,737.5946 2.538,737.7592 2.538,756.1301 17.4362,771.0283 35.8071,771.0283 54.178,771.0283 69.0762,756.1301 69.0762,737.7592 69.0762,737.5946 69.075,737.4303 69.0726,737.2662 L 69.0729,682.9041 763.6051,682.9041 763.6051,737.291 C 763.603,737.4304 763.6018,737.5948 763.6018,737.7596 763.6018,756.1305 778.5,771.0287 796.8709,771.0287 815.2419,771.0287 830.1401,756.1305 830.1401,737.7596 830.1401,737.5948 830.1389,737.4304 830.1365,737.2662 L 830.1368,391.6133 C 830.1389,391.474 830.14,391.3098 830.14,391.1452 830.14,372.7743 815.2418,357.8761 796.8709,357.8761 796.694,357.8761 796.5174,357.8775 796.3411,357.8802 779.9286,358.1435 766.4005,370.2968 763.9955,386.1004 L 68.6796,386.2842 C 66.2246,370.1228 52.4234,357.8767 35.7676,357.8767 35.6045,357.8767 35.4417,357.8778 35.2792,357.8802 Z" />
</g>
</svg>