<?xml version="1.0" encoding="utf-8"?>
<!-- Created by sK1 2.0rc4 (https://sk1project.net/) -->
<svg xmlns="http://www.w3.org/2000/svg" height="832.677165354pt" viewBox="0 0 832.677165354 832.677165354" width="832.677165354pt" version="1.1" xmlns:xlink="http://www.w3.org/1999/xlink" id="8a3d7892-b36a-11ea-be2e-a0f3c11e789f">

<g>
	<path style="fill:#2d2c2b;" d="M 37.8471,145.3188 C 17.3501,145.6262 0.9787,162.4833 1.2704,182.9805 L 1.2704,649.6964 C 0.9774,670.4102 17.6883,687.359 38.4041,687.359 59.12,687.359 75.8309,670.4102 75.5379,649.6964 L 75.5379,182.9805 C 75.8358,162.047 58.7805,145.0047 37.8471,145.3188 Z" />
	<path style="fill:#2d2c2b;" d="M 43.1039,488.6983 C 42.9476,488.6959 42.7633,488.6945 42.5787,488.6945 22.0717,488.6945 5.4412,505.325 5.4412,525.832 5.4412,546.339 22.0717,562.9695 42.5787,562.9695 42.7633,562.9695 42.9476,562.9682 43.1316,562.9655 L 787.8566,562.9658 C 788.0128,562.9682 788.1971,562.9695 788.3817,562.9695 808.8887,562.9695 825.5192,546.339 825.5192,525.832 825.5192,505.325 808.8887,488.6945 788.3817,488.6945 788.1971,488.6945 788.0128,488.6959 787.8288,488.6986 L 43.1039,488.6983 Z" />
	<path style="fill:#2d2c2b;" d="M 793.7109,488.1761 C 773.4474,488.4931 757.1363,505.0002 757.1363,525.3093 757.1363,525.4931 757.1376,525.6765 757.1403,525.8596 L 757.14,649.6964 C 757.1376,649.8526 757.1363,650.0369 757.1363,650.2216 757.1363,670.7286 773.7667,687.359 794.2737,687.359 814.7807,687.359 831.4112,670.7286 831.4112,650.2216 831.4112,650.0369 831.4099,649.8526 831.4072,649.6687 L 831.4075,525.832 C 831.4099,525.6765 831.4112,525.4931 831.4112,525.3093 831.4112,504.8023 814.7807,488.1718 794.2737,488.1718 794.0759,488.1718 793.8784,488.1733 793.6813,488.1764 Z" />
	<path style="fill:#2d2c2b;" d="M 151.116,365.481 C 150.9285,365.4781 150.7073,365.4765 150.4858,365.4765 125.8774,365.4765 105.9208,385.4331 105.9208,410.0415 105.9208,434.6499 125.8774,454.6065 150.4858,454.6065 150.7073,454.6065 150.9285,454.6049 151.1493,454.6016 L 756.1296,454.602 C 756.3171,454.6049 756.5383,454.6065 756.7598,454.6065 781.3682,454.6065 801.3248,434.6499 801.3248,410.0415 801.3248,385.4331 781.3682,365.4765 756.7598,365.4765 756.5383,365.4765 756.3171,365.4781 756.0963,365.4813 L 151.116,365.481 Z" />
	<path style="fill:#2d2c2b;" d="M 151.116,280.389 C 150.9896,280.3871 150.8405,280.386 150.6912,280.386 134.2856,280.386 120.9812,293.6903 120.9812,310.0959 120.9812,326.5015 134.2856,339.8059 150.6912,339.8059 150.8405,339.8059 150.9896,339.8048 151.1384,339.8026 L 282.9177,339.8029 C 283.0441,339.8048 283.1932,339.8059 283.3425,339.8059 299.7481,339.8059 313.0525,326.5015 313.0525,310.0959 313.0525,293.6903 299.7481,280.386 283.3425,280.386 283.1932,280.386 283.0441,280.3871 282.8952,280.3893 L 151.116,280.389 Z" />
</g>
</svg>