<?xml version="1.0" encoding="utf-8"?>
<!-- Created by sK1 2.0rc4 (https://sk1project.net/) -->
<svg xmlns="http://www.w3.org/2000/svg" height="832.677165354pt" viewBox="0 0 832.677165354 832.677165354" width="832.677165354pt" version="1.1" xmlns:xlink="http://www.w3.org/1999/xlink" id="12af3a62-b366-11ea-be2e-a0f3c11e789f">

<g>
	<path style="fill:#2d2c2b;" d="M 37.96,100.467 C 16.9347,100.3649 4.4978,102.6759 3.8817,121.322 L 5.3378,344.2138 4.6217,527.132 C 4.4612,544.8806 16.5309,559.372 31.4758,559.372 46.4206,559.372 58.4906,544.8806 58.3299,527.132 L 58.3299,430.0101 161.3361,644.2816 161.3361,758.5733 C 161.1143,776.3715 173.2028,790.9418 188.1902,790.9418 203.1775,790.9418 215.2631,776.3715 215.0415,758.5733 L 215.0415,665.1003 775.0801,665.1003 775.0801,756.1704 C 774.8583,773.9685 786.9469,788.5389 801.9342,788.5389 816.9216,788.5389 829.0072,773.9685 828.7855,756.1704 L 828.7855,633.2097 C 828.7741,625.1584 826.1973,617.4104 821.5752,611.5208 L 821.6002,611.4945 C 758.1344,531.6398 640.235,393.0447 600.1596,343.0074 601.3005,246.3816 598.6887,177.1415 598.2984,126.8398 598.0959,100.751 590.3071,101.9716 551.2816,101.4295 377.445,21.9479 244.3752,21.9479 53.8459,100.7505 48.119,100.6408 42.8119,100.4906 37.96,100.467 Z M 94.4091,208.3353 L 250.7127,208.3353 C 265.5426,208.3387 277.5634,223.7057 277.564,242.6618 L 277.564,310.1313 C 277.5626,329.086 265.5416,344.4513 250.7127,344.4544 L 94.4091,344.4544 C 79.5803,344.451 67.5598,329.086 67.5578,310.1313 L 67.5578,242.6618 C 67.5584,223.7057 79.5793,208.3383 94.4091,208.3353 Z M 359.9246,208.3353 L 516.2282,208.3353 C 531.0581,208.3387 543.0789,223.7057 543.0795,242.6618 L 543.0795,310.1313 C 543.0781,329.086 531.057,344.4513 516.2282,344.4544 L 359.9246,344.4544 C 345.0958,344.451 333.0753,329.086 333.0733,310.1313 L 333.0733,242.6618 C 333.0739,223.7057 345.0947,208.3383 359.9246,208.3353 Z" />
</g>
</svg>