<?xml version="1.0" encoding="utf-8"?>
<!-- Created by sK1 2.0rc4 (https://sk1project.net/) -->
<svg xmlns="http://www.w3.org/2000/svg" height="832.677165354pt" viewBox="0 0 832.677165354 832.677165354" width="832.677165354pt" version="1.1" xmlns:xlink="http://www.w3.org/1999/xlink" id="c826b906-b36b-11ea-be2e-a0f3c11e789f">

<g>
	<g>
		<path style="fill:#2d2c2b;" d="M 36.3238,25.843 C 16.8087,26.1357 1.2216,42.1852 1.4993,61.7005 L 1.4993,770.9716 C 1.2204,790.6931 17.1307,806.83 36.8541,806.83 56.5776,806.83 72.4879,790.6931 72.209,770.9716 L 72.209,61.7005 C 72.4926,41.7698 56.2543,25.544 36.3238,25.843 Z" />
		<path style="fill:#2d2c2b;" d="M 41.3292,617.6856 C 21.6077,617.4068 5.4701,633.3171 5.4701,653.0405 5.4701,672.764 21.6077,688.6743 41.3292,688.3954 L 488.6723,688.3954 488.6723,617.6856 41.3292,617.6856 Z M 694.5239,617.6856 L 694.5239,688.3954 768.363,688.3954 C 788.0845,688.6743 804.2221,672.764 804.2221,653.0405 804.2221,633.3171 788.0845,617.4067 768.363,617.6856 L 694.5239,617.6856 Z" />
		<path style="fill:#2d2c2b;" d="M 144.1664,509.4143 C 120.5006,509.1152 101.1364,526.1731 101.1364,547.3191 101.1364,568.4651 120.5006,585.523 144.1664,585.2239 L 256.2228,585.2239 C 279.8886,585.523 299.2529,568.4651 299.2529,547.3191 299.2529,526.1731 279.8886,509.1152 256.2228,509.4143 L 144.1664,509.4143 Z" />
		<path style="fill:#2d2c2b;" d="M 795.2893,174.0151 C 775.7742,174.3078 760.187,190.3574 760.4647,209.8727 L 760.4647,770.9717 C 760.1859,790.6932 776.0961,806.83 795.8196,806.83 815.543,806.83 831.4533,790.6932 831.1744,770.9717 L 831.1744,209.8727 C 831.458,189.9419 815.2197,173.7161 795.2893,174.0151 Z" />
		<path style="fill:#2d2c2b;" d="M 41.3292,328.9169 C 21.6077,328.638 5.4701,344.5483 5.4701,364.2718 5.4701,383.9952 21.6077,399.9056 41.3292,399.6267 L 488.6723,399.6267 488.6723,328.9169 41.3292,328.9169 Z M 694.5239,328.9169 L 694.5239,399.6267 766.8663,399.6267 C 786.5878,399.9056 802.7254,383.9952 802.7254,364.2718 802.7254,344.5483 786.5878,328.638 766.8663,328.9169 L 694.5239,328.9169 Z" />
		<path style="fill:#2d2c2b;" d="M 144.1664,216.1089 C 120.5006,215.8099 101.1364,232.8677 101.1364,254.0137 101.1364,275.1598 120.5006,292.2176 144.1664,291.9186 L 256.2228,291.9186 C 279.8886,292.2176 299.2529,275.1598 299.2529,254.0137 299.2529,232.8677 279.8886,215.8099 256.2228,216.1089 L 144.1664,216.1089 Z" />
		<g>
			<path style="fill:#2d2c2b;" d="M 494.7199,220.2224 C 486.0526,220.4928 479.1297,235.3153 479.2531,253.3386 L 479.2531,771.5405 C 479.1292,789.7542 486.1956,804.6574 494.9555,804.6574 503.7154,804.6574 510.7817,789.7542 510.6579,771.5405 L 510.6579,253.3386 C 510.7838,234.9316 503.5718,219.9463 494.7199,220.2224 Z" />
			<path style="fill:#2d2c2b;" d="M 689.7529,220.2224 C 681.0855,220.4928 674.1627,235.3153 674.286,253.3386 L 674.286,771.5405 C 674.1622,789.7542 681.2285,804.6574 689.9884,804.6574 698.7483,804.6574 705.8147,789.7542 705.6908,771.5405 L 705.6908,253.3386 C 705.8167,234.9316 698.6048,219.9463 689.7529,220.2224 Z" />
		</g>
		<g>
			<path style="fill:#2d2c2b;" d="M 699.4538,570.7789 C 699.3543,562.1115 693.8877,555.1886 687.2407,555.312 L 496.1295,555.312 C 489.4123,555.1881 483.9161,562.2545 483.9161,571.0144 483.9161,579.7743 489.4123,586.8406 496.1295,586.7168 L 687.2407,586.7168 C 694.0292,586.8426 699.5557,579.6307 699.4538,570.7789 Z" />
			<path style="fill:#2d2c2b;" d="M 699.4538,717.9175 C 699.3543,709.2501 693.8877,702.3273 687.2407,702.4506 L 496.1295,702.4506 C 489.4123,702.3267 483.9161,709.3931 483.9161,718.153 483.9161,726.9129 489.4123,733.9793 496.1295,733.8554 L 687.2407,733.8554 C 694.0292,733.9813 699.5557,726.7693 699.4538,717.9175 Z" />
		</g>
		<path style="fill:#2d2c2b;" d="M 699.4538,423.6402 C 699.3543,414.9728 693.8877,408.05 687.2407,408.1734 L 496.1295,408.1734 C 489.4123,408.0495 483.9161,415.1158 483.9161,423.8758 483.9161,432.6357 489.4123,439.702 496.1295,439.5782 L 687.2407,439.5782 C 694.0292,439.704 699.5557,432.4921 699.4538,423.6402 Z" />
		<path style="fill:#2d2c2b;" d="M 699.4538,276.5016 C 699.3543,267.8342 693.8877,260.9114 687.2407,261.0347 L 496.1295,261.0347 C 489.4123,260.9109 483.9161,267.9772 483.9161,276.7372 483.9161,285.4971 489.4123,292.5634 496.1295,292.4395 L 687.2407,292.4395 C 694.0292,292.5654 699.5557,285.3535 699.4538,276.5016 Z" />
	</g>
</g>
</svg>