<?xml version="1.0" encoding="utf-8"?>
<!-- Created by sK1 2.0rc4 (https://sk1project.net/) -->
<svg xmlns="http://www.w3.org/2000/svg" height="832.677165354pt" viewBox="0 0 832.677165354 832.677165354" width="832.677165354pt" version="1.1" xmlns:xlink="http://www.w3.org/1999/xlink" id="ec72a9b8-b515-11ea-be2e-a0f3c11e789f">

<g>
	<path style="fill-rule:evenodd;fill:#2d2c2b;" d="M 829.5747,312.1941 L 825.7479,308.5658 C 821.7794,304.824 814.9763,305.2209 810.4975,309.4445 L 596.992,511.2429 C 592.5133,515.4666 592.0881,521.9012 596.0566,525.6429 L 811.4046,729.1988 C 815.3731,732.9406 822.1763,732.5437 826.655,728.3201 L 829.5747,725.5705 829.5747,312.1941 Z" />
	<path style="fill-rule:evenodd;fill:#2d2c2b;" d="M 30.2046,292.0398 C 30.2046,292.0398 30.2046,292.0398 30.2046,292.0398 25.2156,292.0398 20.9637,293.1736 16.655,295.7248 12.318,298.2477 9.2282,301.3941 6.7337,305.7878 4.2392,310.1815 3.1054,314.4902 3.1054,319.5359 3.1054,319.5359 3.1054,319.5359 3.1054,319.5359 L 3.1054,744.3359 C 3.1054,749.4099 4.2392,753.6902 6.7337,758.0839 9.2282,762.4776 12.318,765.624 16.655,768.1469 20.9637,770.6981 25.2156,771.8319 30.2046,771.8319 30.2046,771.8319 30.2046,771.8319 30.2046,771.8319 L 618.6203,771.8319 C 618.6203,771.8319 618.6203,771.8319 618.6203,771.8319 623.6093,771.8319 627.8329,770.6981 632.17,768.1469 636.4786,765.624 639.5684,762.4776 642.0629,758.0839 644.5574,753.6902 645.6912,749.4099 645.7196,744.3359 L 645.7196,319.5359 C 645.7196,319.5359 645.7196,319.5359 645.7196,319.5359 645.7196,314.4902 644.5574,310.1815 642.0629,305.7878 639.5684,301.3941 636.4786,298.2477 632.17,295.7248 627.8329,293.1736 623.6093,292.0398 618.6203,292.0398 618.6203,292.0398 618.6203,292.0398 618.6203,292.0398 L 30.2046,292.0398 Z M 57.2755,347.0603 L 591.5211,347.0603 591.5211,716.8398 57.2755,716.8398 57.2755,347.0603 Z" />
	<g>
		<path style="fill-rule:evenodd;fill:#2d2c2b;" d="M 619.1167,148.8962 C 619.1167,175.8925 612.9522,198.8854 599.4541,222.2681 585.9559,245.6507 569.1629,262.4791 545.7449,275.9772 522.3623,289.4754 499.4048,295.6399 472.4085,295.6399 445.3768,295.6399 422.4193,289.4754 399.0366,275.9772 375.6186,262.4791 358.8256,245.6507 345.3275,222.2681 331.8293,198.8854 325.6648,175.8925 325.6648,148.8962 325.6648,121.8999 331.8293,98.9424 345.3275,75.5244 358.8256,52.1418 375.6186,35.3488 399.0366,21.8152 422.4193,8.3171 445.3768,2.188 472.4085,2.188 499.4048,2.188 522.3623,8.3171 545.7449,21.8152 569.1629,35.3488 585.9559,52.1418 599.4541,75.5244 612.9522,98.9424 619.1167,121.8999 619.1167,148.8962 L 619.1167,148.8962 Z" />
		<path style="fill-rule:evenodd;fill:#2d2c2b;" d="M 325.8266,148.8962 C 325.8266,175.8925 319.6621,198.8854 306.164,222.2681 292.6658,245.6507 275.8729,262.4791 252.4548,275.9772 229.0722,289.4754 206.1147,295.6399 179.1184,295.6399 152.0867,295.6399 129.1292,289.4754 105.7466,275.9772 82.3285,262.4791 65.5356,245.6507 52.0374,222.2681 38.5393,198.8854 32.3747,175.8925 32.3747,148.8962 32.3747,121.8999 38.5393,98.9424 52.0374,75.5244 65.5356,52.1418 82.3285,35.3488 105.7466,21.8152 129.1292,8.3171 152.0867,2.188 179.1184,2.188 206.1147,2.188 229.0722,8.3171 252.4548,21.8152 275.8729,35.3488 292.6658,52.1418 306.164,75.5244 319.6621,98.9424 325.8266,121.8999 325.8266,148.8962 L 325.8266,148.8962 Z" />
	</g>
</g>
</svg>