<?xml version="1.0" encoding="utf-8"?>
<!-- Created by sK1 2.0rc4 (https://sk1project.net/) -->
<svg xmlns="http://www.w3.org/2000/svg" height="832.677165354pt" viewBox="0 0 832.677165354 832.677165354" width="832.677165354pt" version="1.1" xmlns:xlink="http://www.w3.org/1999/xlink" id="80eb05c0-b36f-11ea-be2e-a0f3c11e789f">

<g>
	<path style="fill:#2d2c2b;" d="M 153.2276,416.3418 L 153.2276,233.3988 416.3292,233.3988 679.4308,233.3988 679.4308,416.3418 679.4308,599.2846 416.3292,599.2846 153.2276,599.2846 153.2276,416.3418 Z M 304.4948,546.5697 C 363.4055,534.7118 400.6241,455.1897 386.7289,385.959 380.2641,355.9957 367.4644,332.1331 347.1997,312.2647 331.8613,297.2261 316.22,288.3225 296.1427,283.2011 265.5334,280.1199 249.4548,281.2355 215.2859,281.2355 215.2859,371.383 215.2859,461.5304 215.2859,551.6779 251.9763,552.4038 275.5985,551.2713 304.4948,546.5697 L 304.4948,546.5697 Z M 617.3724,281.2355 C 582.191,281.4578 539.986,279.1448 514.2807,291.6258 474.3904,311.2288 447.5312,355.065 443.4101,407.2915 441.4869,464.0212 473.9572,525.3762 523.6385,544.9304 561.8803,553.9559 576.5495,551.3046 617.3724,551.4479 617.3724,461.3771 617.3724,371.3063 617.3724,281.2355 Z" />
	<path style="fill:#2d2c2b;" d="M 55.474,83.3699 C 26.1567,83.3701 2.3814,107.1454 2.3812,136.4627 L 2.3812,696.223 C 2.3814,725.5403 26.1567,749.3155 55.4739,749.3158 L 777.185,749.3158 C 806.5023,749.3156 830.2776,725.5403 830.2778,696.223 L 830.2778,136.4627 C 830.2776,107.1454 806.5023,83.3701 777.185,83.3699 L 55.474,83.3699 Z M 108.5572,189.546 L 724.1017,189.546 724.1017,643.1397 108.5572,643.1397 108.5572,189.546 Z" />
</g>
</svg>