<?xml version="1.0" encoding="utf-8"?>
<!-- Created by sK1 2.0rc4 (https://sk1project.net/) -->
<svg xmlns="http://www.w3.org/2000/svg" height="832.677165354pt" viewBox="0 0 832.677165354 832.677165354" width="832.677165354pt" version="1.1" xmlns:xlink="http://www.w3.org/1999/xlink" id="8a27a6c6-b373-11ea-be2e-a0f3c11e789f">

<g>
	<path style="fill:#2d2c2b;" d="M 55.4812,83.366 C 26.1639,83.3662 2.3886,107.1415 2.3884,136.4588 L 2.3884,696.2191 C 2.3886,725.5364 26.1639,749.3116 55.4811,749.3119 L 777.1922,749.3119 C 806.5095,749.3117 830.2848,725.5364 830.285,696.2191 L 830.285,136.4588 C 830.2848,107.1415 806.5095,83.3662 777.1922,83.366 L 55.4812,83.366 Z M 108.5644,189.5421 L 724.1089,189.5421 724.1089,643.1358 108.5644,643.1358 108.5644,189.5421 Z" />
	<g>
		<path style="fill-rule:evenodd;fill:#2d2c2b;" d="M 135.077,416.3385 L 258.2096,491.4202 381.3421,566.5019 381.3421,416.3385 381.3421,266.1751 258.2096,341.2568 135.077,416.3385 Z" />
		<path style="fill-rule:evenodd;fill:#2d2c2b;" d="M 697.6012,416.3387 L 574.4686,341.257 451.336,266.1753 451.336,416.3387 451.336,566.5021 574.4686,491.4204 697.6012,416.3387 Z" />
	</g>
</g>
</svg>