<?xml version="1.0" encoding="utf-8"?>
<!-- Created by sK1 2.0rc4 (https://sk1project.net/) -->
<svg xmlns="http://www.w3.org/2000/svg" height="832.677165354pt" viewBox="0 0 832.677165354 832.677165354" width="832.677165354pt" version="1.1" xmlns:xlink="http://www.w3.org/1999/xlink" id="8e0813d6-b371-11ea-be2e-a0f3c11e789f">

<g>
	<path style="fill:#2d2c2b;" d="M 55.474,83.3699 C 26.1567,83.3701 2.3814,107.1454 2.3812,136.4627 L 2.3812,696.223 C 2.3814,725.5403 26.1567,749.3155 55.4739,749.3158 L 777.185,749.3158 C 806.5023,749.3156 830.2776,725.5403 830.2778,696.223 L 830.2778,136.4627 C 830.2776,107.1454 806.5023,83.3701 777.185,83.3699 L 55.474,83.3699 Z M 108.5572,189.546 L 724.1017,189.546 724.1017,643.1397 108.5572,643.1397 108.5572,189.546 Z" />
	<g>
		<g>
			<path style="fill-rule:evenodd;fill:#2d2c2b;" d="M 186.0303,421.7575 C 186.0303,317.8365 221.0516,265.8679 291.1105,265.8679 296.2045,265.8679 301.1352,266.1291 305.9354,266.6516 310.7681,267.174 317.2499,268.8067 325.3971,271.5497 333.5769,274.2599 340.8097,277.9172 347.0793,282.5214 353.3815,287.0929 359.4224,294.1298 365.1695,303.6158 370.9166,313.0691 374.7208,324.253 376.5984,337.184 L 324.4175,337.184 C 320.6623,327.9103 316.1887,321.3142 310.9641,317.3957 305.7721,313.4446 298.6372,311.4527 289.5431,311.4527 280.1715,311.4527 272.3345,313.4446 266.0323,317.3957 259.7628,321.3142 255.0116,327.4858 251.7952,335.8778 248.5625,344.2862 246.2767,352.9721 244.9379,361.9356 243.6318,370.9154 242.7175,382.181 242.195,395.765 251.0279,386.6219 259.7138,380.1238 268.2528,376.238 276.8244,372.3195 286.9961,370.3603 298.7515,370.3603 323.0787,370.3603 342.9322,378.9156 358.3122,396.0262 373.7248,413.1042 381.4311,435.2762 381.4311,462.5748 381.4311,493.5797 372.6472,518.7069 355.1121,537.94 337.6096,557.1895 314.6866,566.806 286.343,566.806 272.1386,566.806 259.4362,564.6509 248.2033,560.3406 236.9704,556.0302 226.4558,548.7811 216.6597,538.5931 206.8962,528.4051 199.3531,513.4496 193.9979,493.7266 188.6753,473.971 186.0303,449.9705 186.0303,421.7575 Z M 316.3846,428.6801 C 308.6293,419.3738 298.1964,414.7043 285.1022,414.7043 271.9917,414.7043 261.4118,419.5697 253.3626,429.2679 245.3461,438.9824 241.346,451.6685 241.346,467.3423 241.346,482.2325 245.3461,494.4777 253.3626,504.0453 261.4118,513.6292 271.861,518.413 284.7103,518.413 297.2821,518.413 307.6497,513.4986 315.7968,503.6534 323.9766,493.7756 328.0747,481.2855 328.0747,466.1668 328.0747,450.4929 324.1726,438.0028 316.3846,428.6801 Z" />
			<path style="fill-rule:evenodd;fill:#2d2c2b;" d="M 474.9518,499.539 L 474.9518,558.4466 414.7381,558.4466 414.7381,499.539 Z" />
			<path style="fill-rule:evenodd;fill:#2d2c2b;" d="M 590.4813,362.0009 L 522.3,362.0009 522.3,324.4489 C 571.493,324.4489 600.506,307.0118 609.3552,272.1374 L 646.6459,272.1374 646.6459,558.4466 590.4813,558.4466 Z" />
		</g>
	</g>
</g>
</svg>