<?xml version="1.0" encoding="utf-8"?>
<!-- Created by sK1 2.0rc4 (https://sk1project.net/) -->
<svg xmlns="http://www.w3.org/2000/svg" height="832.677165354pt" viewBox="0 0 832.677165354 832.677165354" width="832.677165354pt" version="1.1" xmlns:xlink="http://www.w3.org/1999/xlink" id="a5fa1e9e-b371-11ea-be2e-a0f3c11e789f">

<g>
	<path style="fill:#2d2c2b;" d="M 55.474,83.3699 C 26.1567,83.3701 2.3814,107.1454 2.3812,136.4627 L 2.3812,696.223 C 2.3814,725.5403 26.1567,749.3155 55.4739,749.3158 L 777.185,749.3158 C 806.5023,749.3156 830.2776,725.5403 830.2778,696.223 L 830.2778,136.4627 C 830.2776,107.1454 806.5023,83.3701 777.185,83.3699 L 55.474,83.3699 Z M 108.5572,189.546 L 724.1017,189.546 724.1017,643.1397 108.5572,643.1397 108.5572,189.546 Z" />
	<g>
		<g>
			<path style="fill-rule:evenodd;fill:#2d2c2b;" d="M 385.6452,273.9007 L 385.6452,318.31 C 351.9464,359.2906 327.1947,398.5732 311.3902,436.1905 295.6184,473.8078 286.3937,515.2619 283.6997,560.5365 L 227.1432,560.5365 C 233.576,509.825 244.2212,467.2117 259.0787,432.7292 273.9199,398.2467 296.5817,362.1315 327.0641,324.3836 L 185.4116,324.3836 185.4116,273.9007 Z" />
			<path style="fill-rule:evenodd;fill:#2d2c2b;" d="M 475.5739,499.539 L 475.5739,558.4466 415.3602,558.4466 415.3602,499.539 Z" />
			<path style="fill-rule:evenodd;fill:#2d2c2b;" d="M 591.1033,362.0009 L 522.9221,362.0009 522.9221,324.4489 C 572.1151,324.4489 601.1281,307.0118 609.9773,272.1374 L 647.268,272.1374 647.268,558.4466 591.1033,558.4466 Z" />
		</g>
	</g>
</g>
</svg>