<?xml version="1.0" encoding="utf-8"?>
<!-- Created by sK1 2.0rc4 (https://sk1project.net/) -->
<svg xmlns="http://www.w3.org/2000/svg" height="832.677165354pt" viewBox="0 0 832.677165354 832.677165354" width="832.677165354pt" version="1.1" xmlns:xlink="http://www.w3.org/1999/xlink" id="7e3b4f36-b371-11ea-be2e-a0f3c11e789f">

<g>
	<path style="fill:#2d2c2b;" d="M 55.474,83.3699 C 26.1567,83.3701 2.3814,107.1454 2.3812,136.4627 L 2.3812,696.223 C 2.3814,725.5403 26.1567,749.3155 55.4739,749.3158 L 777.185,749.3158 C 806.5023,749.3156 830.2776,725.5403 830.2778,696.223 L 830.2778,136.4627 C 830.2776,107.1454 806.5023,83.3701 777.185,83.3699 L 55.474,83.3699 Z M 108.5572,189.546 L 724.1017,189.546 724.1017,643.1397 108.5572,643.1397 108.5572,189.546 Z" />
	<g>
		<g>
			<path style="fill-rule:evenodd;fill:#2d2c2b;" d="M 370.3609,267.9577 L 370.3609,318.4406 252.807,318.4406 243.5986,378.4585 C 258.8316,366.8827 275.2892,361.0866 292.9712,361.0866 319.176,361.0866 340.4826,370.295 356.9075,388.7118 373.3651,407.0959 381.5938,431.0149 381.5938,460.485 381.5938,491.5715 372.0916,516.715 353.1197,535.9155 334.1314,555.1159 309.3961,564.7162 278.9301,564.7162 251.3702,564.7162 228.937,556.9609 211.6631,541.4666 194.4218,525.9234 185.54,505.5963 185.0175,480.4692 L 240.3985,480.4692 C 241.7046,504.3718 254.7988,516.3231 279.7138,516.3231 293.9019,516.3231 305.0695,511.4577 313.2166,501.6942 321.3474,491.898 325.4292,478.5753 325.4292,461.7259 325.4292,444.3213 321.3474,430.672 313.2166,420.7779 305.0695,410.8511 293.9019,405.8877 279.7138,405.8877 261.7704,405.8877 249.7375,413.2348 243.5986,427.8964 L 193.0504,427.8964 218.3245,267.9577 Z" />
			<path style="fill-rule:evenodd;fill:#2d2c2b;" d="M 475.9636,497.4492 L 475.9636,556.3568 415.7498,556.3568 415.7498,497.4492 Z" />
			<path style="fill-rule:evenodd;fill:#2d2c2b;" d="M 591.493,359.9111 L 523.3117,359.9111 523.3117,322.3591 C 572.5047,322.3591 601.5177,304.9219 610.3669,270.0476 L 647.6576,270.0476 647.6576,556.3568 591.493,556.3568 Z" />
		</g>
	</g>
</g>
</svg>