<?xml version="1.0" encoding="utf-8"?>
<!-- Created by sK1 2.0rc4 (https://sk1project.net/) -->
<svg xmlns="http://www.w3.org/2000/svg" height="832.677165354pt" viewBox="0 0 832.677165354 832.677165354" width="832.677165354pt" version="1.1" xmlns:xlink="http://www.w3.org/1999/xlink" id="418916c2-b371-11ea-be2e-a0f3c11e789f">

<g>
	<path style="fill:#2d2c2b;" d="M 55.474,83.3699 C 26.1567,83.3701 2.3814,107.1454 2.3812,136.4627 L 2.3812,696.223 C 2.3814,725.5403 26.1567,749.3155 55.4739,749.3158 L 777.185,749.3158 C 806.5023,749.3156 830.2776,725.5403 830.2778,696.223 L 830.2778,136.4627 C 830.2776,107.1454 806.5023,83.3701 777.185,83.3699 L 55.474,83.3699 Z M 108.5572,189.546 L 724.1017,189.546 724.1017,643.1397 108.5572,643.1397 108.5572,189.546 Z" />
	<g>
		<g>
			<path style="fill-rule:evenodd;fill:#2d2c2b;" d="M 342.1497,366.4438 C 334.6556,331.047 313.8061,313.3486 279.5848,313.3486 255.7638,313.3486 237.1511,322.5406 223.7467,340.9084 210.3749,359.2926 203.6972,384.8279 203.6972,417.5144 203.6972,449.7438 210.179,474.9036 223.1589,493.0102 236.1225,511.1331 254.2617,520.1782 277.5603,520.1782 296.271,520.1782 311.2591,515.0516 322.492,504.7656 333.725,494.447 340.2721,479.8507 342.1497,460.9441 L 400.7307,460.9441 C 398.8531,494.6429 386.6895,521.4191 364.2237,541.2726 341.7578,561.0935 312.3203,570.9877 275.9276,570.9877 235.2572,570.9877 203.0115,557.1751 179.2068,529.5172 155.4348,501.8268 143.5488,464.2421 143.5488,416.7307 143.5488,368.9255 155.5817,331.1449 179.664,303.3565 203.7299,275.5844 236.3674,261.6901 277.5603,261.6901 312.0428,261.6901 340.321,270.9965 362.3951,289.5766 384.4691,308.1729 396.8449,333.7899 399.5552,366.4438 Z" />
			<path style="fill-rule:evenodd;fill:#2d2c2b;" d="M 630.5487,366.4438 C 623.0546,331.047 602.2051,313.3486 567.9839,313.3486 544.1629,313.3486 525.5502,322.5406 512.1457,340.9084 498.774,359.2926 492.0963,384.8279 492.0963,417.5144 492.0963,449.7438 498.578,474.9036 511.558,493.0102 524.5216,511.1331 542.6608,520.1782 565.9593,520.1782 584.67,520.1782 599.6581,515.0516 610.8911,504.7656 622.124,494.447 628.6711,479.8507 630.5487,460.9441 L 689.1297,460.9441 C 687.2521,494.6429 675.0886,521.4191 652.6227,541.2726 630.1568,561.0935 600.7194,570.9877 564.3266,570.9877 523.6562,570.9877 491.4105,557.1751 467.6058,529.5172 443.8338,501.8268 431.9478,464.2421 431.9478,416.7307 431.9478,368.9255 443.9808,331.1449 468.063,303.3565 492.1289,275.5844 524.7665,261.6901 565.9593,261.6901 600.4418,261.6901 628.7201,270.9965 650.7941,289.5766 672.8681,308.1729 685.2439,333.7899 687.9542,366.4438 Z" />
		</g>
	</g>
</g>
</svg>