<?xml version="1.0" encoding="utf-8"?>
<!-- Created by sK1 2.0rc4 (https://sk1project.net/) -->
<svg xmlns="http://www.w3.org/2000/svg" height="832.677165354pt" viewBox="0 0 832.677165354 832.677165354" width="832.677165354pt" version="1.1" xmlns:xlink="http://www.w3.org/1999/xlink" id="0d4f5614-b371-11ea-be2e-a0f3c11e789f">

<g>
	<path style="fill:#2d2c2b;" d="M 55.474,83.3699 C 26.1567,83.3701 2.3814,107.1454 2.3812,136.4627 L 2.3812,696.223 C 2.3814,725.5403 26.1567,749.3155 55.4739,749.3158 L 777.185,749.3158 C 806.5023,749.3156 830.2776,725.5403 830.2778,696.223 L 830.2778,136.4627 C 830.2776,107.1454 806.5023,83.3701 777.185,83.3699 L 55.474,83.3699 Z M 108.5572,189.546 L 724.1017,189.546 724.1017,643.1397 108.5572,643.1397 108.5572,189.546 Z" />
	<g>
		<g>
			<path style="fill-rule:evenodd;fill:#2d2c2b;" d="M 365.1711,452.322 L 365.1711,499.1477 335.5214,499.1477 335.5214,561.8431 279.2914,561.8431 279.2914,499.1477 165.3294,499.1477 165.3294,451.5383 269.2993,275.5339 335.5214,275.5339 335.5214,452.322 Z M 279.2914,452.322 L 279.2914,329.4781 205.1018,452.322 Z" />
			<path style="fill-rule:evenodd;fill:#2d2c2b;" d="M 469.5329,464.9264 L 469.5329,563.4105 409.3845,563.4105 409.3845,269.2644 469.5329,269.2644 469.5329,398.3778 583.8868,269.2644 654.9416,269.2644 538.1714,395.9614 667.3501,563.4105 595.5116,563.4105 499.6398,433.5134 Z" />
		</g>
	</g>
</g>
</svg>