<?xml version="1.0" encoding="utf-8"?>
<!-- Created by sK1 2.0rc4 (https://sk1project.net/) -->
<svg xmlns="http://www.w3.org/2000/svg" height="832.677165354pt" viewBox="0 0 832.677165354 832.677165354" width="832.677165354pt" version="1.1" xmlns:xlink="http://www.w3.org/1999/xlink" id="f1da3656-b370-11ea-be2e-a0f3c11e789f">

<g>
	<path style="fill:#2d2c2b;" d="M 55.474,83.3699 C 26.1567,83.3701 2.3814,107.1454 2.3812,136.4627 L 2.3812,696.223 C 2.3814,725.5403 26.1567,749.3155 55.4739,749.3158 L 777.185,749.3158 C 806.5023,749.3156 830.2776,725.5403 830.2778,696.223 L 830.2778,136.4627 C 830.2776,107.1454 806.5023,83.3701 777.185,83.3699 L 55.474,83.3699 Z M 108.5572,189.546 L 724.1017,189.546 724.1017,643.1397 108.5572,643.1397 108.5572,189.546 Z" />
	<g>
		<g>
			<path style="fill-rule:evenodd;fill:#2d2c2b;" d="M 320.8588,428.356 L 204.8722,428.356 204.8722,563.4125 144.7238,563.4125 144.7238,269.2663 204.8722,269.2663 204.8722,377.9384 320.467,377.9384 320.467,269.2663 381.0073,269.2663 381.0073,563.4125 320.8588,563.4125 Z" />
			<path style="fill-rule:evenodd;fill:#2d2c2b;" d="M 445.6619,562.1063 L 445.6619,269.2663 560.0158,269.2663 C 582.4817,269.2663 600.9801,271.9439 615.5274,277.2992 630.1074,282.6544 642.3689,291.2424 652.2957,303.0304 676.0677,331.423 687.9537,368.9096 687.9537,415.4904 687.9537,462.6099 676.0677,500.0966 652.2957,527.9503 633.2585,550.7264 602.4985,562.1063 560.0158,562.1063 Z M 505.8104,511.6887 L 560.0158,511.6887 C 605.2088,511.6887 627.8053,479.7532 627.8053,415.8822 627.8053,351.75 605.2088,319.6839 560.0158,319.6839 L 505.8104,319.6839 Z" />
		</g>
	</g>
</g>
</svg>