<?xml version="1.0" encoding="utf-8"?>
<!-- Created by sK1 2.0rc4 (https://sk1project.net/) -->
<svg xmlns="http://www.w3.org/2000/svg" height="832.677165354pt" viewBox="0 0 832.677165354 832.677165354" width="832.677165354pt" version="1.1" xmlns:xlink="http://www.w3.org/1999/xlink" id="1cd84596-b371-11ea-be2e-a0f3c11e789f">

<g>
	<path style="fill:#2d2c2b;" d="M 55.474,83.3699 C 26.1567,83.3701 2.3814,107.1454 2.3812,136.4627 L 2.3812,696.223 C 2.3814,725.5403 26.1567,749.3155 55.4739,749.3158 L 777.185,749.3158 C 806.5023,749.3156 830.2776,725.5403 830.2778,696.223 L 830.2778,136.4627 C 830.2776,107.1454 806.5023,83.3701 777.185,83.3699 L 55.474,83.3699 Z M 108.5572,189.546 L 724.1017,189.546 724.1017,643.1397 108.5572,643.1397 108.5572,189.546 Z" />
	<g>
		<g>
			<path style="fill-rule:evenodd;fill:#2d2c2b;" d="M 357.137,343.2576 C 357.137,358.3273 353.839,370.3603 347.2756,379.3728 340.7448,388.3526 331.7323,395.9283 320.2382,402.0999 336.5651,410.9817 348.4021,421.2024 355.7656,432.7292 363.1127,444.2723 366.8026,458.5094 366.8026,475.4405 366.8026,502.2656 357.4146,524.209 338.655,541.2707 319.928,558.2997 295.7151,566.806 266.0327,566.806 236.0728,566.806 211.7293,558.365 193.0187,541.4666 174.2917,524.5846 164.9363,502.5758 164.9363,475.4405 164.9363,458.5094 168.6099,444.2723 175.9733,432.7292 183.3205,421.2024 195.1738,410.9817 211.5008,402.0999 198.6515,395.0956 189.2961,387.0464 183.4184,377.936 177.5407,368.7929 174.6019,357.3641 174.6019,343.6494 174.6019,321.0529 183.2225,302.4402 200.4637,287.8113 217.705,273.1824 239.5504,265.8679 266.0327,265.8679 292.2864,265.8679 314.0339,273.1824 331.2752,287.8113 348.5164,302.4402 357.137,320.9223 357.137,343.2576 Z M 296.9233,321.9019 C 289.168,314.9467 278.9963,311.4527 266.4246,311.4527 253.8855,311.4527 243.6485,314.8814 235.7299,321.706 227.844,328.547 223.9092,337.4942 223.9092,348.5475 223.9092,359.5682 227.844,368.6296 235.7299,375.7155 243.6485,382.8178 253.9018,386.3607 266.4899,386.3607 278.7677,386.3607 288.8415,382.8831 296.7274,375.9115 304.6459,368.9562 308.6134,359.96 308.6134,348.9394 308.6134,337.886 304.7112,328.8735 296.9233,321.9019 Z M 265.6409,424.6963 C 252.2691,424.6963 241.4933,428.9903 233.3135,437.562 225.1664,446.1499 221.101,457.6604 221.101,472.1098 221.101,486.3469 225.1011,497.6288 233.1176,505.9392 241.1668,514.2659 252.0079,518.413 265.6409,518.413 279.3065,518.413 290.2129,514.2659 298.3601,505.9392 306.4909,497.6288 310.5726,486.6081 310.5726,472.8935 310.5726,458.2319 306.5562,446.5418 298.556,437.8232 290.5395,429.072 279.5678,424.6963 265.6409,424.6963 Z" />
			<path style="fill-rule:evenodd;fill:#2d2c2b;" d="M 469.9235,461.5299 L 469.9235,560.014 409.7751,560.014 409.7751,265.8679 469.9235,265.8679 469.9235,394.9813 584.2774,265.8679 655.3323,265.8679 538.562,392.5649 667.7407,560.014 595.9022,560.014 500.0304,430.1169 Z" />
		</g>
	</g>
</g>
</svg>