<?xml version="1.0" encoding="utf-8"?>
<!-- Created by sK1 2.0rc4 (https://sk1project.net/) -->
<svg xmlns="http://www.w3.org/2000/svg" height="832.677165354pt" viewBox="0 0 832.677165354 832.677165354" width="832.677165354pt" version="1.1" xmlns:xlink="http://www.w3.org/1999/xlink" id="b5360e78-b370-11ea-be2e-a0f3c11e789f">

<g>
	<path style="fill:#2d2c2b;" d="M 55.474,83.3699 C 26.1567,83.3701 2.3814,107.1454 2.3812,136.4627 L 2.3812,696.223 C 2.3814,725.5403 26.1567,749.3155 55.4739,749.3158 L 777.185,749.3158 C 806.5023,749.3156 830.2776,725.5403 830.2778,696.223 L 830.2778,136.4627 C 830.2776,107.1454 806.5023,83.3701 777.185,83.3699 L 55.474,83.3699 Z M 108.5572,189.546 L 724.1017,189.546 724.1017,643.1397 108.5572,643.1397 108.5572,189.546 Z" />
	<g>
		<g>
			<path style="fill-rule:evenodd;fill:#2d2c2b;" d="M 382.0525,356.8117 L 325.8225,356.8117 C 323.6837,326.2477 303.226,310.9656 264.4332,310.9656 248.9226,310.9656 236.6285,314.2637 227.5344,320.8271 218.4239,327.4069 213.885,336.1744 213.885,347.1461 213.885,357.9056 217.7545,365.8895 225.5098,371.1141 233.2978,376.3387 247.8777,381.1062 269.266,385.4165 L 315.0467,394.233 C 342.0352,399.6372 361.6765,408.715 373.9543,421.4664 386.2649,434.185 392.4364,452.0794 392.4364,475.1493 392.4364,504.9297 381.8729,528.2119 360.7622,544.9633 339.6351,561.7311 310.214,570.1068 272.4661,570.1068 235.0121,570.1068 205.9338,561.7801 185.2149,545.1592 164.4797,528.5384 153.1815,504.5052 151.3202,473.0595 L 209.9013,473.0595 C 210.9462,488.9129 217.0851,500.9949 228.318,509.3053 239.551,517.583 255.3228,521.7138 275.6662,521.7138 293.8544,521.7138 308.2547,518.2361 318.8346,511.2645 329.4145,504.2603 334.7044,494.5947 334.7044,482.2679 334.7044,470.4308 330.541,461.3041 322.2306,454.9039 313.9528,448.4711 299.7811,443.3445 279.7153,439.5566 L 238.7673,431.5891 C 209.0686,425.9399 187.9252,417.0744 175.3535,405.0088 162.8144,392.9595 156.5448,375.5224 156.5448,352.6973 156.5448,324.0109 166.2267,301.8226 185.6068,286.1487 205.0195,270.4422 232.2365,262.5726 267.2415,262.5726 277.4295,262.5726 287.2583,263.2583 296.7606,264.5971 306.2465,265.9033 316.3529,268.6462 327.0634,272.8259 337.7738,277.0056 346.9986,282.3935 354.7539,288.9569 362.4928,295.5367 368.991,304.6634 374.2156,316.3209 379.4402,327.9946 382.0525,341.497 382.0525,356.8117 Z" />
			<path style="fill-rule:evenodd;fill:#2d2c2b;" d="M 439.0662,562.0086 L 439.0662,269.1687 553.42,269.1687 C 575.8859,269.1687 594.3843,271.8463 608.9316,277.2015 623.5116,282.5568 635.7731,291.1447 645.6999,302.9328 669.4719,331.3253 681.3579,368.812 681.3579,415.3927 681.3579,462.5123 669.4719,499.9989 645.6999,527.8527 626.6627,550.6288 595.9027,562.0086 553.42,562.0086 Z M 499.2146,511.5911 L 553.42,511.5911 C 598.613,511.5911 621.2095,479.6556 621.2095,415.7846 621.2095,351.6524 598.613,319.5863 553.42,319.5863 L 499.2146,319.5863 Z" />
		</g>
	</g>
</g>
</svg>