<?xml version="1.0" encoding="utf-8"?>
<!-- Created by sK1 2.0rc4 (https://sk1project.net/) -->
<svg xmlns="http://www.w3.org/2000/svg" height="832.677165354pt" viewBox="0 0 832.677165354 832.677165354" width="832.677165354pt" version="1.1" xmlns:xlink="http://www.w3.org/1999/xlink" id="4e6adc3c-b1f4-11ea-bb2a-a0f3c11e789f">

<g>
	<path style="fill-rule:evenodd;fill:#2d2c2b;" d="M 128.8327,830.9064 L 129.6236,286.0665 0.4975,285.6545 197.6644,1.7713 392.4111,286.0666 263.4667,286.1671 262.6714,830.9064 128.8327,830.9064 Z" />
	<g>
		<path style="fill-rule:evenodd;fill:#2d2c2b;" d="M 731.5577,268.6446 L 605.2636,268.6446 585.5432,322.3511 504.1443,322.3511 620.3685,0.1122 716.4528,0.1122 832.677,322.3511 751.2781,322.3511 Z M 625.4035,210.3227 L 711.4178,210.3227 668.6204,78.1544 Z" />
		<path style="fill-rule:evenodd;fill:#2d2c2b;" d="M 526.3822,510.3238 L 789.46,510.3238 789.46,559.4149 621.6273,771.3038 794.495,771.3038 794.495,832.5627 521.3472,832.5627 521.3472,783.4717 689.5995,571.5828 526.3822,571.5828 Z" />
	</g>
</g>
</svg>