<?xml version="1.0" encoding="utf-8"?>
<!-- Created by sK1 2.0rc4 (https://sk1project.net/) -->
<svg xmlns="http://www.w3.org/2000/svg" height="832.677165354pt" viewBox="0 0 832.677165354 832.677165354" width="832.677165354pt" version="1.1" xmlns:xlink="http://www.w3.org/1999/xlink" id="c53d1f64-b1f4-11ea-bb2a-a0f3c11e789f">

<g>
	<path style="fill-rule:evenodd;fill:#2d2c2b;" d="M 264.0788,1.7708 L 263.2879,546.6107 392.4141,547.0227 195.2472,830.9059 0.5005,546.6106 129.4448,546.5101 130.2402,1.7708 264.0788,1.7708 Z" />
	<g>
		<path style="fill-rule:evenodd;fill:#2d2c2b;" d="M 604.4251,309.3441 L 604.4251,251.8613 C 617.2224,257.7355 629.6,262.1411 641.3483,264.8684 653.0966,267.7006 664.6351,269.0642 676.1736,269.0642 700.1947,269.0642 718.971,262.6656 732.3976,249.7634 745.8242,236.9662 753.5865,217.8752 755.8942,192.7003 746.3487,199.7283 736.1739,205.078 725.2647,208.6444 714.5654,212.0011 703.0269,213.6794 690.4394,213.6794 658.5512,213.6794 632.642,204.3437 612.8168,185.5674 593.2013,166.896 583.446,142.2456 583.446,111.721 583.446,78.1544 594.3552,51.1963 616.1734,30.7417 638.2015,10.3919 667.5722,0.1122 704.2856,0.1122 745.09,0.1122 776.6635,13.8535 799.1111,41.2312 821.4539,68.7138 832.6777,107.4203 832.6777,157.4554 832.6777,208.4346 819.4609,248.7145 793.237,278.295 767.2229,307.6657 731.3487,322.3511 685.824,322.3511 671.2436,322.3511 657.2925,321.3022 643.8658,318.9945 630.4392,316.7916 617.2224,313.5399 604.4251,309.3441 Z M 703.866,161.2316 C 718.1318,161.2316 728.7263,156.6162 735.7543,147.3854 742.9921,138.1546 746.6634,124.5182 746.6634,106.2664 746.6634,88.1195 742.9921,74.3782 735.7543,65.1474 728.7263,55.9166 718.1318,51.3012 703.866,51.3012 689.8101,51.3012 679.2156,55.9166 671.9778,65.1474 664.9498,74.3782 661.4883,88.1195 661.4883,106.2664 661.4883,124.5182 664.9498,138.1546 671.9778,147.3854 679.2156,156.6162 689.8101,161.2316 703.866,161.2316 Z" />
		<path style="fill-rule:evenodd;fill:#2d2c2b;" d="M 611.558,776.7583 L 682.887,776.7583 682.887,567.387 609.8797,582.9115 609.8797,525.8483 682.4674,510.3238 759.2509,510.3238 759.2509,776.7583 830.5798,776.7583 830.5798,832.5627 611.558,832.5627 Z" />
	</g>
</g>
</svg>