<?xml version="1.0" encoding="utf-8"?>
<!-- Created by sK1 2.0rc4 (https://sk1project.net/) -->
<svg xmlns="http://www.w3.org/2000/svg" height="832.677165354pt" viewBox="0 0 832.677165354 832.677165354" width="832.677165354pt" version="1.1" xmlns:xlink="http://www.w3.org/1999/xlink" id="934eb9cc-b1f4-11ea-bb2a-a0f3c11e789f">

<g>
	<path style="fill-rule:evenodd;fill:#2d2c2b;" d="M 264.0788,1.7708 L 263.2879,546.6107 392.4141,547.0227 195.2472,830.9059 0.5005,546.6106 129.4448,546.5101 130.2402,1.7708 264.0788,1.7708 Z" />
	<g>
		<path style="fill-rule:evenodd;fill:#2d2c2b;" d="M 526.3822,0.1122 L 789.46,0.1122 789.46,49.2033 621.6273,261.0921 794.495,261.0921 794.495,322.3511 521.3472,322.3511 521.3472,273.26 689.5995,61.3711 526.3822,61.3711 Z" />
		<path style="fill-rule:evenodd;fill:#2d2c2b;" d="M 731.5577,778.8563 L 605.2636,778.8563 585.5432,832.5627 504.1443,832.5627 620.3685,510.3238 716.4528,510.3238 832.677,832.5627 751.2781,832.5627 Z M 625.4035,720.5344 L 711.4178,720.5344 668.6204,588.3661 Z" />
	</g>
</g>
</svg>