<?xml version="1.0" encoding="utf-8"?>
<!-- Created by sK1 2.0rc4 (https://sk1project.net/) -->
<svg xmlns="http://www.w3.org/2000/svg" height="832.677165354pt" viewBox="0 0 832.677165354 832.677165354" width="832.677165354pt" version="1.1" xmlns:xlink="http://www.w3.org/1999/xlink" id="e44d78fe-b1f4-11ea-bb2a-a0f3c11e789f">

<g>
	<path style="fill-rule:evenodd;fill:#2d2c2b;" d="M 128.8327,830.9064 L 129.6236,286.0665 0.4975,285.6545 197.6644,1.7713 392.4111,286.0666 263.4667,286.1671 262.6714,830.9064 128.8327,830.9064 Z" />
	<g>
		<path style="fill-rule:evenodd;fill:#2d2c2b;" d="M 611.558,266.5467 L 682.887,266.5467 682.887,57.1753 609.8797,72.6999 609.8797,15.6367 682.4674,0.1122 759.2509,0.1122 759.2509,266.5467 830.5798,266.5467 830.5798,322.3511 611.558,322.3511 Z" />
		<path style="fill-rule:evenodd;fill:#2d2c2b;" d="M 604.4251,819.5557 L 604.4251,762.073 C 617.2224,767.9471 629.6,772.3527 641.3483,775.08 653.0966,777.9122 664.6351,779.2758 676.1736,779.2758 700.1947,779.2758 718.971,772.8772 732.3976,759.9751 745.8242,747.1778 753.5865,728.0868 755.8942,702.9119 746.3487,709.9399 736.1739,715.2896 725.2647,718.856 714.5654,722.2127 703.0269,723.891 690.4394,723.891 658.5512,723.891 632.642,714.5553 612.8168,695.779 593.2013,677.1076 583.446,652.4572 583.446,621.9326 583.446,588.3661 594.3552,561.4079 616.1734,540.9533 638.2015,520.6036 667.5722,510.3238 704.2856,510.3238 745.09,510.3238 776.6635,524.0651 799.1111,551.4428 821.4539,578.9255 832.6777,617.6319 832.6777,667.667 832.6777,718.6462 819.4609,758.9261 793.237,788.5066 767.2229,817.8774 731.3487,832.5627 685.824,832.5627 671.2436,832.5627 657.2925,831.5138 643.8658,829.2061 630.4392,827.0033 617.2224,823.7515 604.4251,819.5557 Z M 703.866,671.4433 C 718.1318,671.4433 728.7263,666.8279 735.7543,657.5971 742.9921,648.3663 746.6634,634.7299 746.6634,616.478 746.6634,598.3311 742.9921,584.5898 735.7543,575.359 728.7263,566.1282 718.1318,561.5128 703.866,561.5128 689.8101,561.5128 679.2156,566.1282 671.9778,575.359 664.9498,584.5898 661.4883,598.3311 661.4883,616.478 661.4883,634.7299 664.9498,648.3663 671.9778,657.5971 679.2156,666.8279 689.8101,671.4433 703.866,671.4433 Z" />
	</g>
</g>
</svg>