<?xml version="1.0" encoding="utf-8"?>
<!-- Created by sK1 2.0rc4 (https://sk1project.net/) -->
<svg xmlns="http://www.w3.org/2000/svg" height="832.677165354pt" viewBox="0 0 832.677165354 832.677165354" width="832.677165354pt" version="1.1" xmlns:xlink="http://www.w3.org/1999/xlink" id="c6346dd2-b4dd-11ea-be2e-a0f3c11e789f">

<g>
	<g>
		<path style="fill-rule:evenodd;fill:#2d2c2b;" d="M 411.2443,75.1255 L 64.7214,75.1255 C 49.0438,75.1255 36.3345,88.6989 36.3345,105.4426 36.3345,122.1863 49.0438,135.7598 64.7214,135.7598 L 411.2446,135.7598 C 407.7813,126.306 405.891,116.0944 405.891,105.4422 405.891,94.7903 407.7812,84.579 411.2443,75.1255 L 411.2443,75.1255 Z M 576.857,135.7598 L 767.9556,135.7598 C 783.6332,135.7598 796.3425,122.1863 796.3425,105.4426 796.3425,88.6989 783.6332,75.1255 767.9556,75.1255 L 576.8573,75.1255 C 580.3205,84.579 582.2106,94.7903 582.2106,105.4422 582.2106,116.0944 580.3203,126.306 576.857,135.7598 L 576.857,135.7598 Z" />
		<path style="fill-rule:evenodd;fill:#2d2c2b;" d="M 123.932,386.7847 L 64.7214,386.7847 C 49.0438,386.7847 36.3345,400.3582 36.3345,417.1018 36.3345,433.8455 49.0438,447.419 64.7214,447.419 L 123.9321,447.419 C 120.4688,437.9653 118.5786,427.7538 118.5786,417.1017 118.5786,406.4497 120.4688,396.2383 123.932,386.7847 L 123.932,386.7847 Z M 289.5447,447.419 L 767.9556,447.419 C 783.6332,447.419 796.3425,433.8455 796.3425,417.1018 796.3425,400.3582 783.6332,386.7847 767.9556,386.7847 L 289.5448,386.7847 C 293.008,396.2383 294.8982,406.4497 294.8982,417.1017 294.8982,427.7538 293.0079,437.9653 289.5447,447.419 L 289.5447,447.419 Z" />
		<path style="fill-rule:evenodd;fill:#2d2c2b;" d="M 528.2508,696.9195 L 64.7214,696.9195 C 49.0438,696.9195 36.3345,710.493 36.3345,727.2367 36.3345,743.9804 49.0438,757.5538 64.7214,757.5538 L 528.2513,757.5538 C 524.7879,748.1 522.8976,737.8883 522.8976,727.236 522.8976,716.5842 524.7877,706.373 528.2508,696.9195 L 528.2508,696.9195 Z M 693.8635,757.5538 L 767.9556,757.5538 C 783.6332,757.5538 796.3425,743.9804 796.3425,727.2367 796.3425,710.493 783.6332,696.9195 767.9556,696.9195 L 693.864,696.9195 C 697.3271,706.373 699.2172,716.5842 699.2172,727.236 699.2172,737.8883 697.3269,748.1 693.8636,757.5538 L 693.8635,757.5538 Z" />
		<g>
			<path style="fill-rule:evenodd;fill:#2d2c2b;" d="M 494.0508,208.7606 C 551.1037,208.7606 597.3692,162.4951 597.3692,105.4422 597.3692,48.3893 551.1037,2.1238 494.0508,2.1238 436.9979,2.1238 390.7325,48.3893 390.7325,105.4422 390.7325,162.4951 436.9979,208.7606 494.0508,208.7606 Z M 494.0508,178.4434 C 453.7416,178.4434 421.0496,145.7514 421.0496,105.4422 421.0496,65.133 453.7416,32.441 494.0508,32.441 534.36,32.441 567.052,65.133 567.052,105.4422 567.052,145.7514 534.36,178.4434 494.0508,178.4434 Z" />
			<path style="fill-rule:evenodd;fill:#2d2c2b;" d="M 206.7384,520.4201 C 263.7913,520.4201 310.0567,474.1547 310.0567,417.1017 310.0567,360.0488 263.7913,313.7834 206.7384,313.7834 149.6855,313.7834 103.42,360.0488 103.42,417.1017 103.42,474.1547 149.6855,520.4201 206.7384,520.4201 Z M 206.7384,490.103 C 166.4292,490.103 133.7372,457.411 133.7372,417.1017 133.7372,376.7925 166.4292,344.1005 206.7384,344.1005 247.0476,344.1005 279.7396,376.7925 279.7396,417.1017 279.7396,457.411 247.0476,490.103 206.7384,490.103 Z" />
			<path style="fill-rule:evenodd;fill:#2d2c2b;" d="M 611.0574,830.5544 C 668.1103,830.5544 714.3758,784.289 714.3758,727.236 714.3758,670.1831 668.1103,623.9177 611.0574,623.9177 554.0045,623.9177 507.7391,670.1831 507.7391,727.236 507.7391,784.289 554.0045,830.5544 611.0574,830.5544 Z M 611.0574,800.2373 C 570.7482,800.2373 538.0562,767.5453 538.0562,727.236 538.0562,686.9268 570.7482,654.2348 611.0574,654.2348 651.3666,654.2348 684.0586,686.9268 684.0586,727.236 684.0586,767.5453 651.3666,800.2373 611.0574,800.2373 Z" />
		</g>
	</g>
</g>
</svg>