<?xml version="1.0" encoding="utf-8"?>
<!-- Created by sK1 2.0rc4 (https://sk1project.net/) -->
<svg xmlns="http://www.w3.org/2000/svg" height="832.677165354pt" viewBox="0 0 832.677165354 832.677165354" width="832.677165354pt" version="1.1" xmlns:xlink="http://www.w3.org/1999/xlink" id="cdc28296-b4dd-11ea-be2e-a0f3c11e789f">

<g>
	<g>
		<path style="fill-rule:evenodd;fill:#2d2c2b;" d="M 75.1255,421.4329 L 75.1255,767.9558 C 75.1255,783.6334 88.6989,796.3426 105.4426,796.3426 122.1863,796.3426 135.7598,783.6334 135.7598,767.9558 L 135.7598,421.4325 C 126.306,424.8959 116.0944,426.7861 105.4422,426.7861 94.7903,426.7861 84.579,424.896 75.1255,421.4329 L 75.1255,421.4329 Z M 135.7598,255.8202 L 135.7598,64.7216 C 135.7598,49.0439 122.1863,36.3347 105.4426,36.3347 88.6989,36.3347 75.1255,49.0439 75.1255,64.7216 L 75.1255,255.8199 C 84.579,252.3567 94.7903,250.4666 105.4422,250.4666 116.0944,250.4666 126.306,252.3568 135.7598,255.8201 L 135.7598,255.8202 Z" />
		<path style="fill-rule:evenodd;fill:#2d2c2b;" d="M 386.7847,708.7452 L 386.7847,767.9558 C 386.7847,783.6334 400.3582,796.3426 417.1018,796.3426 433.8455,796.3426 447.419,783.6334 447.419,767.9558 L 447.419,708.7451 C 437.9653,712.2084 427.7538,714.0986 417.1017,714.0986 406.4497,714.0986 396.2383,712.2084 386.7847,708.7452 L 386.7847,708.7452 Z M 447.419,543.1325 L 447.419,64.7216 C 447.419,49.0439 433.8455,36.3347 417.1018,36.3347 400.3582,36.3347 386.7847,49.0439 386.7847,64.7216 L 386.7847,543.1324 C 396.2383,539.6692 406.4497,537.779 417.1017,537.779 427.7538,537.779 437.9653,539.6692 447.419,543.1325 L 447.419,543.1325 Z" />
		<path style="fill-rule:evenodd;fill:#2d2c2b;" d="M 696.9195,304.4263 L 696.9195,767.9558 C 696.9195,783.6334 710.493,796.3426 727.2367,796.3426 743.9804,796.3426 757.5538,783.6334 757.5538,767.9558 L 757.5538,304.4259 C 748.1,307.8893 737.8883,309.7795 727.236,309.7795 716.5842,309.7795 706.373,307.8894 696.9195,304.4263 L 696.9195,304.4263 Z M 757.5538,138.8136 L 757.5538,64.7216 C 757.5538,49.0439 743.9804,36.3347 727.2367,36.3347 710.493,36.3347 696.9195,49.0439 696.9195,64.7216 L 696.9195,138.8132 C 706.373,135.3501 716.5842,133.46 727.236,133.46 737.8883,133.46 748.1,135.3502 757.5538,138.8136 L 757.5538,138.8136 Z" />
		<g>
			<path style="fill-rule:evenodd;fill:#2d2c2b;" d="M 208.7606,338.6264 C 208.7606,281.5734 162.4951,235.308 105.4422,235.308 48.3893,235.308 2.1238,281.5734 2.1238,338.6264 2.1238,395.6793 48.3893,441.9447 105.4422,441.9447 162.4951,441.9447 208.7606,395.6793 208.7606,338.6264 Z M 178.4434,338.6264 C 178.4434,378.9356 145.7514,411.6276 105.4422,411.6276 65.133,411.6276 32.441,378.9356 32.441,338.6264 32.441,298.3171 65.133,265.6251 105.4422,265.6251 145.7514,265.6251 178.4434,298.3171 178.4434,338.6264 Z" />
			<path style="fill-rule:evenodd;fill:#2d2c2b;" d="M 520.4201,625.9388 C 520.4201,568.8859 474.1547,522.6204 417.1017,522.6204 360.0488,522.6204 313.7834,568.8859 313.7834,625.9388 313.7834,682.9917 360.0488,729.2571 417.1017,729.2571 474.1547,729.2571 520.4201,682.9917 520.4201,625.9388 Z M 490.103,625.9388 C 490.103,666.248 457.411,698.94 417.1017,698.94 376.7925,698.94 344.1005,666.248 344.1005,625.9388 344.1005,585.6296 376.7925,552.9376 417.1017,552.9376 457.411,552.9376 490.103,585.6296 490.103,625.9388 Z" />
			<path style="fill-rule:evenodd;fill:#2d2c2b;" d="M 830.5544,221.6197 C 830.5544,164.5668 784.289,118.3014 727.236,118.3014 670.1831,118.3014 623.9177,164.5668 623.9177,221.6197 623.9177,278.6727 670.1831,324.9381 727.236,324.9381 784.289,324.9381 830.5544,278.6727 830.5544,221.6197 Z M 800.2373,221.6197 C 800.2373,261.929 767.5453,294.621 727.236,294.621 686.9268,294.621 654.2348,261.929 654.2348,221.6197 654.2348,181.3105 686.9268,148.6185 727.236,148.6185 767.5453,148.6185 800.2373,181.3105 800.2373,221.6197 Z" />
		</g>
	</g>
</g>
</svg>