<?xml version="1.0" encoding="UTF-8"?>
<!DOCTYPE svg PUBLIC "-//W3C//DTD SVG 1.1//EN" "http://www.w3.org/Graphics/SVG/1.1/DTD/svg11.dtd">
<svg version="1.2" width="293.75mm" height="293.75mm" viewBox="0 0 29375 29375" preserveAspectRatio="xMidYMid" fill-rule="evenodd" stroke-width="28.222" stroke-linejoin="round" xmlns="http://www.w3.org/2000/svg" xmlns:ooo="http://xml.openoffice.org/svg/export" xmlns:xlink="http://www.w3.org/1999/xlink" xmlns:presentation="http://sun.com/xmlns/staroffice/presentation" xmlns:smil="http://www.w3.org/2001/SMIL20/" xmlns:anim="urn:oasis:names:tc:opendocument:xmlns:animation:1.0" xml:space="preserve">
 <defs class="ClipPathGroup">
  <clipPath id="presentation_clip_path" clipPathUnits="userSpaceOnUse">
   <rect x="0" y="0" width="29375" height="29375"/>
  </clipPath>
  <clipPath id="presentation_clip_path_shrink" clipPathUnits="userSpaceOnUse">
   <rect x="29" y="29" width="29317" height="29317"/>
  </clipPath>
 </defs>
 <defs class="TextShapeIndex">
  <g ooo:slide="id1" ooo:id-list="id3"/>
 </defs>
 <defs class="EmbeddedBulletChars">
  <g id="bullet-char-template-57356" transform="scale(0.00048828125,-0.00048828125)">
   <path d="M 580,1141 L 1163,571 580,0 -4,571 580,1141 Z"/>
  </g>
  <g id="bullet-char-template-57354" transform="scale(0.00048828125,-0.00048828125)">
   <path d="M 8,1128 L 1137,1128 1137,0 8,0 8,1128 Z"/>
  </g>
  <g id="bullet-char-template-10146" transform="scale(0.00048828125,-0.00048828125)">
   <path d="M 174,0 L 602,739 174,1481 1456,739 174,0 Z M 1358,739 L 309,1346 659,739 1358,739 Z"/>
  </g>
  <g id="bullet-char-template-10132" transform="scale(0.00048828125,-0.00048828125)">
   <path d="M 2015,739 L 1276,0 717,0 1260,543 174,543 174,936 1260,936 717,1481 1274,1481 2015,739 Z"/>
  </g>
  <g id="bullet-char-template-10007" transform="scale(0.00048828125,-0.00048828125)">
   <path d="M 0,-2 C -7,14 -16,27 -25,37 L 356,567 C 262,823 215,952 215,954 215,979 228,992 255,992 264,992 276,990 289,987 310,991 331,999 354,1012 L 381,999 492,748 772,1049 836,1024 860,1049 C 881,1039 901,1025 922,1006 886,937 835,863 770,784 769,783 710,716 594,584 L 774,223 C 774,196 753,168 711,139 L 727,119 C 717,90 699,76 672,76 641,76 570,178 457,381 L 164,-76 C 142,-110 111,-127 72,-127 30,-127 9,-110 8,-76 1,-67 -2,-52 -2,-32 -2,-23 -1,-13 0,-2 Z"/>
  </g>
  <g id="bullet-char-template-10004" transform="scale(0.00048828125,-0.00048828125)">
   <path d="M 285,-33 C 182,-33 111,30 74,156 52,228 41,333 41,471 41,549 55,616 82,672 116,743 169,778 240,778 293,778 328,747 346,684 L 369,508 C 377,444 397,411 428,410 L 1163,1116 C 1174,1127 1196,1133 1229,1133 1271,1133 1292,1118 1292,1087 L 1292,965 C 1292,929 1282,901 1262,881 L 442,47 C 390,-6 338,-33 285,-33 Z"/>
  </g>
  <g id="bullet-char-template-9679" transform="scale(0.00048828125,-0.00048828125)">
   <path d="M 813,0 C 632,0 489,54 383,161 276,268 223,411 223,592 223,773 276,916 383,1023 489,1130 632,1184 813,1184 992,1184 1136,1130 1245,1023 1353,916 1407,772 1407,592 1407,412 1353,268 1245,161 1136,54 992,0 813,0 Z"/>
  </g>
  <g id="bullet-char-template-8226" transform="scale(0.00048828125,-0.00048828125)">
   <path d="M 346,457 C 273,457 209,483 155,535 101,586 74,649 74,723 74,796 101,859 155,911 209,963 273,989 346,989 419,989 480,963 531,910 582,859 608,796 608,723 608,648 583,586 532,535 482,483 420,457 346,457 Z"/>
  </g>
  <g id="bullet-char-template-8211" transform="scale(0.00048828125,-0.00048828125)">
   <path d="M -4,459 L 1135,459 1135,606 -4,606 -4,459 Z"/>
  </g>
  <g id="bullet-char-template-61548" transform="scale(0.00048828125,-0.00048828125)">
   <path d="M 173,740 C 173,903 231,1043 346,1159 462,1274 601,1332 765,1332 928,1332 1067,1274 1183,1159 1299,1043 1357,903 1357,740 1357,577 1299,437 1183,322 1067,206 928,148 765,148 601,148 462,206 346,322 231,437 173,577 173,740 Z"/>
  </g>
 </defs>
 <defs class="TextEmbeddedBitmaps"/>
 <g>
  <g id="id2" class="Master_Slide">
   <g id="bg-id2" class="Background"/>
   <g id="bo-id2" class="BackgroundObjects"/>
  </g>
 </g>
 <g class="SlideGroup">
  <g>
   <g id="container-id1">
    <g id="id1" class="Slide" clip-path="url(#presentation_clip_path)">
     <g class="Page">
      <g class="Graphic">
       <g id="id3">
        <rect class="BoundingBox" stroke="none" fill="none" x="-13" y="-13" width="29401" height="29401"/>
        <path fill="rgb(0,0,0)" stroke="none" d="M 11316,15091 L 10111,16351 C 9448,16060 8842,15912 8120,15866 L 7631,14191 3785,15314 4274,16989 C 3980,17201 3748,17403 3496,17663 3246,17926 3054,18166 2853,18469 L 1162,18056 212,21948 1901,22361 C 1982,23081 2159,23679 2483,24327 L 1275,25590 4171,28359 5377,27098 C 6039,27390 6645,27537 7367,27584 L 7857,29259 11703,28136 11214,26461 C 11507,26249 11739,26047 11991,25787 12241,25524 12433,25284 12634,24981 L 14325,25394 15275,21502 13586,21089 C 13505,20369 13328,19771 13005,19122 L 14212,17860 11316,15091 Z M 10675,20032 C 10987,20572 11129,21102 11129,21725 11129,22348 10987,22878 10675,23417 10533,23664 10387,23858 10190,24064 9956,24309 9729,24487 9436,24656 8896,24968 8367,25110 7744,25110 7120,25110 6591,24968 6051,24656 5804,24514 5610,24368 5404,24171 5160,23938 4981,23710 4812,23417 4500,22878 4359,22348 4359,21725 4359,21102 4500,20572 4812,20032 4955,19785 5100,19591 5297,19385 5531,19141 5758,18962 6051,18793 6591,18482 7120,18340 7744,18340 8367,18340 8896,18482 9436,18793 9683,18936 9877,19081 10083,19278 10328,19512 10506,19740 10675,20032 Z"/>
        <path fill="rgb(0,0,0)" stroke="none" d="M 20288,64 L 19754,2055 C 18902,2129 18190,2320 17415,2683 L 15957,1224 12608,4572 14066,6030 C 13883,6417 13757,6758 13644,7171 13533,7585 13471,7944 13435,8371 L 11448,8903 12673,13477 14659,12945 C 15152,13646 15675,14165 16378,14654 L 15844,16648 20418,17873 20951,15882 C 21804,15808 22515,15617 23290,15254 L 24749,16713 28097,13365 26639,11907 C 26822,11520 26949,11179 27062,10766 27172,10352 27235,9993 27271,9566 L 29258,9034 28032,4460 26047,4992 C 25554,4291 25031,3772 24327,3283 L 24862,1289 20288,64 Z M 22353,5504 C 22991,5872 23449,6330 23817,6968 24186,7606 24353,8232 24353,8968 24353,9337 24312,9648 24217,10004 24122,10360 24002,10650 23817,10969 23449,11607 22991,12065 22353,12433 21715,12801 21089,12969 20353,12969 19985,12969 19673,12928 19317,12833 18962,12737 18671,12617 18352,12433 17715,12065 17256,11607 16888,10969 16520,10331 16352,9705 16352,8968 16352,8600 16393,8289 16488,7933 16584,7577 16704,7287 16888,6968 17256,6330 17715,5872 18352,5504 18990,5136 19616,4968 20353,4968 20721,4968 21033,5009 21388,5104 21744,5199 22034,5320 22353,5504 Z"/>
       </g>
      </g>
     </g>
    </g>
   </g>
  </g>
 </g>
</svg>