<?xml version="1.0" encoding="UTF-8"?>
<!DOCTYPE svg PUBLIC "-//W3C//DTD SVG 1.1//EN" "http://www.w3.org/Graphics/SVG/1.1/DTD/svg11.dtd">
<svg version="1.2" width="293.75mm" height="293.75mm" viewBox="0 0 29375 29375" preserveAspectRatio="xMidYMid" fill-rule="evenodd" stroke-width="28.222" stroke-linejoin="round" xmlns="http://www.w3.org/2000/svg" xmlns:ooo="http://xml.openoffice.org/svg/export" xmlns:xlink="http://www.w3.org/1999/xlink" xmlns:presentation="http://sun.com/xmlns/staroffice/presentation" xmlns:smil="http://www.w3.org/2001/SMIL20/" xmlns:anim="urn:oasis:names:tc:opendocument:xmlns:animation:1.0" xml:space="preserve">
 <defs class="ClipPathGroup">
  <clipPath id="presentation_clip_path" clipPathUnits="userSpaceOnUse">
   <rect x="0" y="0" width="29375" height="29375"/>
  </clipPath>
  <clipPath id="presentation_clip_path_shrink" clipPathUnits="userSpaceOnUse">
   <rect x="29" y="29" width="29317" height="29317"/>
  </clipPath>
 </defs>
 <defs class="TextShapeIndex">
  <g ooo:slide="id1" ooo:id-list="id3"/>
 </defs>
 <defs class="EmbeddedBulletChars">
  <g id="bullet-char-template-57356" transform="scale(0.00048828125,-0.00048828125)">
   <path d="M 580,1141 L 1163,571 580,0 -4,571 580,1141 Z"/>
  </g>
  <g id="bullet-char-template-57354" transform="scale(0.00048828125,-0.00048828125)">
   <path d="M 8,1128 L 1137,1128 1137,0 8,0 8,1128 Z"/>
  </g>
  <g id="bullet-char-template-10146" transform="scale(0.00048828125,-0.00048828125)">
   <path d="M 174,0 L 602,739 174,1481 1456,739 174,0 Z M 1358,739 L 309,1346 659,739 1358,739 Z"/>
  </g>
  <g id="bullet-char-template-10132" transform="scale(0.00048828125,-0.00048828125)">
   <path d="M 2015,739 L 1276,0 717,0 1260,543 174,543 174,936 1260,936 717,1481 1274,1481 2015,739 Z"/>
  </g>
  <g id="bullet-char-template-10007" transform="scale(0.00048828125,-0.00048828125)">
   <path d="M 0,-2 C -7,14 -16,27 -25,37 L 356,567 C 262,823 215,952 215,954 215,979 228,992 255,992 264,992 276,990 289,987 310,991 331,999 354,1012 L 381,999 492,748 772,1049 836,1024 860,1049 C 881,1039 901,1025 922,1006 886,937 835,863 770,784 769,783 710,716 594,584 L 774,223 C 774,196 753,168 711,139 L 727,119 C 717,90 699,76 672,76 641,76 570,178 457,381 L 164,-76 C 142,-110 111,-127 72,-127 30,-127 9,-110 8,-76 1,-67 -2,-52 -2,-32 -2,-23 -1,-13 0,-2 Z"/>
  </g>
  <g id="bullet-char-template-10004" transform="scale(0.00048828125,-0.00048828125)">
   <path d="M 285,-33 C 182,-33 111,30 74,156 52,228 41,333 41,471 41,549 55,616 82,672 116,743 169,778 240,778 293,778 328,747 346,684 L 369,508 C 377,444 397,411 428,410 L 1163,1116 C 1174,1127 1196,1133 1229,1133 1271,1133 1292,1118 1292,1087 L 1292,965 C 1292,929 1282,901 1262,881 L 442,47 C 390,-6 338,-33 285,-33 Z"/>
  </g>
  <g id="bullet-char-template-9679" transform="scale(0.00048828125,-0.00048828125)">
   <path d="M 813,0 C 632,0 489,54 383,161 276,268 223,411 223,592 223,773 276,916 383,1023 489,1130 632,1184 813,1184 992,1184 1136,1130 1245,1023 1353,916 1407,772 1407,592 1407,412 1353,268 1245,161 1136,54 992,0 813,0 Z"/>
  </g>
  <g id="bullet-char-template-8226" transform="scale(0.00048828125,-0.00048828125)">
   <path d="M 346,457 C 273,457 209,483 155,535 101,586 74,649 74,723 74,796 101,859 155,911 209,963 273,989 346,989 419,989 480,963 531,910 582,859 608,796 608,723 608,648 583,586 532,535 482,483 420,457 346,457 Z"/>
  </g>
  <g id="bullet-char-template-8211" transform="scale(0.00048828125,-0.00048828125)">
   <path d="M -4,459 L 1135,459 1135,606 -4,606 -4,459 Z"/>
  </g>
  <g id="bullet-char-template-61548" transform="scale(0.00048828125,-0.00048828125)">
   <path d="M 173,740 C 173,903 231,1043 346,1159 462,1274 601,1332 765,1332 928,1332 1067,1274 1183,1159 1299,1043 1357,903 1357,740 1357,577 1299,437 1183,322 1067,206 928,148 765,148 601,148 462,206 346,322 231,437 173,577 173,740 Z"/>
  </g>
 </defs>
 <defs class="TextEmbeddedBitmaps"/>
 <g>
  <g id="id2" class="Master_Slide">
   <g id="bg-id2" class="Background"/>
   <g id="bo-id2" class="BackgroundObjects"/>
  </g>
 </g>
 <g class="SlideGroup">
  <g>
   <g id="container-id1">
    <g id="id1" class="Slide" clip-path="url(#presentation_clip_path)">
     <g class="Page">
      <g class="Graphic">
       <g id="id3">
        <rect class="BoundingBox" stroke="none" fill="none" x="-13" y="-13" width="29401" height="29401"/>
        <defs>
         <clipPath id="clip_path_1" clipPathUnits="userSpaceOnUse">
          <path d="M -13,-13 L 29387,-13 29387,29387 -13,29387 -13,-13 Z"/>
         </clipPath>
        </defs>
        <g clip-path="url(#clip_path_1)">
         <path fill="rgb(0,0,0)" stroke="none" d="M 22988,-13 C 21812,-12 20812,256 19793,844 19713,890 19646,931 19568,980 19778,1047 19986,1117 20192,1192 20416,1275 20638,1363 20856,1456 21075,1549 21291,1647 21505,1750 21718,1854 21928,1962 22136,2075 22343,2188 22548,2306 22749,2429 22950,2552 23148,2680 23343,2812 23538,2944 23729,3081 23917,3222 24105,3363 24289,3508 24470,3658 24651,3808 24828,3962 25002,4120 25175,4278 25345,4441 25510,4607 25676,4773 25838,4943 25995,5117 26153,5291 26307,5469 26456,5651 26605,5832 26750,6017 26891,6206 27032,6394 27168,6586 27300,6782 27431,6977 27558,7176 27681,7377 27803,7579 27921,7784 28034,7993 28147,8201 28255,8412 28358,8626 28461,8840 28558,9056 28651,9276 28657,9290 28662,9305 28668,9319 29162,8368 29385,7458 29387,6386 L 29387,6386 C 29387,5208 29119,4206 28530,3186 27941,2166 27208,1433 26188,844 25168,255 24166,-13 22989,-13 L 22988,-13 22988,-13 Z"/>
         <path fill="rgb(0,0,0)" stroke="none" d="M 13562,12762 L 13561,7957 15813,7957 15813,17567 13561,17567 13562,12762 Z"/>
         <path fill="none" stroke="rgb(0,0,0)" stroke-width="1" stroke-linejoin="round" d="M 13562,12762 L 13561,7957 15813,7957 15813,17567 13561,17567 13562,12762 Z"/>
         <path fill="rgb(0,0,0)" stroke="none" d="M 14687,1827 C 7091,1827 907,8011 907,15607 907,23203 7091,29387 14687,29387 22283,29387 28467,23203 28467,15607 28467,8011 22283,1827 14687,1827 Z M 26065,15607 C 26065,21905 20985,26985 14687,26985 8389,26985 3309,21905 3309,15607 3309,9309 8389,4229 14687,4229 20985,4229 26065,9309 26065,15607 Z"/>
         <path fill="rgb(0,0,0)" stroke="none" d="M 18216,19038 L 20359,21179 18766,22772 13561,17567 15153,15974 18216,19038 Z"/>
         <path fill="none" stroke="rgb(0,0,0)" stroke-width="1" stroke-linejoin="round" d="M 18216,19038 L 20359,21179 18766,22772 13561,17567 15153,15974 18216,19038 Z"/>
         <path fill="rgb(0,0,0)" stroke="none" d="M 39,5569 L 39,5569 C 2,5853 -13,6095 -13,6382 -13,7364 172,8198 588,9088 680,8889 776,8691 878,8497 988,8285 1103,8077 1224,7871 1344,7666 1469,7464 1598,7266 1728,7068 1862,6873 2001,6681 2140,6490 2283,6303 2431,6119 2578,5935 2730,5755 2886,5578 3042,5402 3202,5229 3366,5061 3529,4893 3697,4728 3869,4568 4041,4408 4216,4252 4395,4100 4574,3948 4757,3800 4943,3657 5129,3514 5318,3376 5511,3241 5703,3107 5899,2978 6098,2853 6297,2728 6499,2607 6704,2492 6909,2376 7117,2266 7328,2160 7538,2054 7752,1954 7967,1858 8183,1762 8402,1672 8623,1586 8843,1501 9066,1421 9292,1346 9517,1271 9745,1202 9974,1138 9989,1134 10005,1131 10020,1126 9866,1020 9733,936 9572,843 8805,400 8080,154 7201,39 6916,3 6673,-13 6385,-13 5207,-13 4206,255 3186,844 2166,1433 1433,2166 844,3186 399,3957 152,4686 39,5569 L 39,5569 Z"/>
        </g>
       </g>
      </g>
     </g>
    </g>
   </g>
  </g>
 </g>
</svg>