<?xml version="1.0" encoding="UTF-8"?>
<!DOCTYPE svg PUBLIC "-//W3C//DTD SVG 1.1//EN" "http://www.w3.org/Graphics/SVG/1.1/DTD/svg11.dtd">
<svg version="1.2" width="293.75mm" height="293.75mm" viewBox="0 0 29375 29375" preserveAspectRatio="xMidYMid" fill-rule="evenodd" stroke-width="28.222" stroke-linejoin="round" xmlns="http://www.w3.org/2000/svg" xmlns:ooo="http://xml.openoffice.org/svg/export" xmlns:xlink="http://www.w3.org/1999/xlink" xmlns:presentation="http://sun.com/xmlns/staroffice/presentation" xmlns:smil="http://www.w3.org/2001/SMIL20/" xmlns:anim="urn:oasis:names:tc:opendocument:xmlns:animation:1.0" xml:space="preserve">
 <defs class="ClipPathGroup">
  <clipPath id="presentation_clip_path" clipPathUnits="userSpaceOnUse">
   <rect x="0" y="0" width="29375" height="29375"/>
  </clipPath>
  <clipPath id="presentation_clip_path_shrink" clipPathUnits="userSpaceOnUse">
   <rect x="29" y="29" width="29317" height="29317"/>
  </clipPath>
 </defs>
 <defs class="TextShapeIndex">
  <g ooo:slide="id1" ooo:id-list="id3"/>
 </defs>
 <defs class="EmbeddedBulletChars">
  <g id="bullet-char-template-57356" transform="scale(0.00048828125,-0.00048828125)">
   <path d="M 580,1141 L 1163,571 580,0 -4,571 580,1141 Z"/>
  </g>
  <g id="bullet-char-template-57354" transform="scale(0.00048828125,-0.00048828125)">
   <path d="M 8,1128 L 1137,1128 1137,0 8,0 8,1128 Z"/>
  </g>
  <g id="bullet-char-template-10146" transform="scale(0.00048828125,-0.00048828125)">
   <path d="M 174,0 L 602,739 174,1481 1456,739 174,0 Z M 1358,739 L 309,1346 659,739 1358,739 Z"/>
  </g>
  <g id="bullet-char-template-10132" transform="scale(0.00048828125,-0.00048828125)">
   <path d="M 2015,739 L 1276,0 717,0 1260,543 174,543 174,936 1260,936 717,1481 1274,1481 2015,739 Z"/>
  </g>
  <g id="bullet-char-template-10007" transform="scale(0.00048828125,-0.00048828125)">
   <path d="M 0,-2 C -7,14 -16,27 -25,37 L 356,567 C 262,823 215,952 215,954 215,979 228,992 255,992 264,992 276,990 289,987 310,991 331,999 354,1012 L 381,999 492,748 772,1049 836,1024 860,1049 C 881,1039 901,1025 922,1006 886,937 835,863 770,784 769,783 710,716 594,584 L 774,223 C 774,196 753,168 711,139 L 727,119 C 717,90 699,76 672,76 641,76 570,178 457,381 L 164,-76 C 142,-110 111,-127 72,-127 30,-127 9,-110 8,-76 1,-67 -2,-52 -2,-32 -2,-23 -1,-13 0,-2 Z"/>
  </g>
  <g id="bullet-char-template-10004" transform="scale(0.00048828125,-0.00048828125)">
   <path d="M 285,-33 C 182,-33 111,30 74,156 52,228 41,333 41,471 41,549 55,616 82,672 116,743 169,778 240,778 293,778 328,747 346,684 L 369,508 C 377,444 397,411 428,410 L 1163,1116 C 1174,1127 1196,1133 1229,1133 1271,1133 1292,1118 1292,1087 L 1292,965 C 1292,929 1282,901 1262,881 L 442,47 C 390,-6 338,-33 285,-33 Z"/>
  </g>
  <g id="bullet-char-template-9679" transform="scale(0.00048828125,-0.00048828125)">
   <path d="M 813,0 C 632,0 489,54 383,161 276,268 223,411 223,592 223,773 276,916 383,1023 489,1130 632,1184 813,1184 992,1184 1136,1130 1245,1023 1353,916 1407,772 1407,592 1407,412 1353,268 1245,161 1136,54 992,0 813,0 Z"/>
  </g>
  <g id="bullet-char-template-8226" transform="scale(0.00048828125,-0.00048828125)">
   <path d="M 346,457 C 273,457 209,483 155,535 101,586 74,649 74,723 74,796 101,859 155,911 209,963 273,989 346,989 419,989 480,963 531,910 582,859 608,796 608,723 608,648 583,586 532,535 482,483 420,457 346,457 Z"/>
  </g>
  <g id="bullet-char-template-8211" transform="scale(0.00048828125,-0.00048828125)">
   <path d="M -4,459 L 1135,459 1135,606 -4,606 -4,459 Z"/>
  </g>
  <g id="bullet-char-template-61548" transform="scale(0.00048828125,-0.00048828125)">
   <path d="M 173,740 C 173,903 231,1043 346,1159 462,1274 601,1332 765,1332 928,1332 1067,1274 1183,1159 1299,1043 1357,903 1357,740 1357,577 1299,437 1183,322 1067,206 928,148 765,148 601,148 462,206 346,322 231,437 173,577 173,740 Z"/>
  </g>
 </defs>
 <defs class="TextEmbeddedBitmaps"/>
 <g>
  <g id="id2" class="Master_Slide">
   <g id="bg-id2" class="Background"/>
   <g id="bo-id2" class="BackgroundObjects"/>
  </g>
 </g>
 <g class="SlideGroup">
  <g>
   <g id="container-id1">
    <g id="id1" class="Slide" clip-path="url(#presentation_clip_path)">
     <g class="Page">
      <g class="Graphic">
       <g id="id3">
        <rect class="BoundingBox" stroke="none" fill="none" x="-13" y="-13" width="29401" height="29401"/>
        <defs>
         <clipPath id="clip_path_1" clipPathUnits="userSpaceOnUse">
          <path d="M -13,-13 L 29387,-13 29387,29387 -13,29387 -13,-13 Z"/>
         </clipPath>
        </defs>
        <g clip-path="url(#clip_path_1)">
         <path fill="rgb(0,0,0)" stroke="none" d="M 14687,16016 C 15824,16016 16746,14865 16746,13446 L 16746,2522 C 16746,1102 15824,-48 14687,-48 13550,-48 12628,1102 12628,2522 L 12628,13446 C 12628,14865 13550,16016 14687,16016 Z"/>
         <path fill="rgb(0,0,0)" stroke="none" d="M 9546,3865 C 9000,4094 8550,4317 8037,4613 5917,5837 4394,7361 3169,9481 1947,11599 1389,13677 1388,16123 L 1388,16123 C 1388,18571 1945,20652 3169,22773 4394,24893 5917,26416 8037,27641 10158,28865 12239,29422 14687,29422 L 14687,29422 C 17135,29422 19216,28865 21337,27641 23457,26416 24980,24893 26205,22773 27429,20652 27986,18571 27986,16123 L 27986,16123 C 27981,13685 27424,11614 26205,9503 24980,7383 23457,5859 21337,4635 20824,4339 20374,4116 19828,3887 L 19828,8340 C 19873,8368 19912,8391 19957,8419 20228,8605 20449,8773 20700,8984 20951,9195 21154,9385 21383,9620 21611,9855 21794,10064 21998,10321 22202,10578 22364,10804 22541,11080 22625,11210 22693,11322 22770,11456 22857,11606 22927,11735 23005,11889 23154,12182 23267,12435 23386,12741 23505,13047 23593,13310 23681,13626 23768,13942 23829,14213 23885,14536 23941,14860 23974,15135 23997,15463 24014,15694 24021,15890 24021,16122 24021,16123 24021,16123 24021,16123 24021,16123 24021,16123 24021,16123 24021,16451 24007,16728 23974,17055 23941,17381 23900,17656 23835,17977 23769,18299 23701,18568 23604,18881 23507,19195 23412,19455 23284,19758 23156,20060 23035,20310 22878,20598 22841,20666 22809,20723 22770,20790 22645,21007 22532,21186 22390,21393 22205,21664 22037,21885 21826,22136 21614,22387 21425,22590 21190,22818 20954,23047 20746,23230 20489,23434 20232,23638 20006,23800 19730,23977 19600,24061 19488,24128 19354,24206 19204,24293 19075,24362 18921,24441 18628,24590 18375,24703 18069,24822 17763,24941 17500,25029 17184,25116 16868,25204 16597,25265 16273,25321 15950,25377 15675,25410 15347,25433 15116,25450 14920,25457 14688,25457 14687,25457 14687,25457 14687,25457 L 14687,25457 C 14359,25457 14082,25443 13755,25410 13429,25377 13154,25336 12833,25271 12511,25205 12242,25137 11929,25040 11615,24943 11355,24848 11052,24720 10750,24592 10500,24471 10212,24314 10144,24277 10087,24245 10020,24206 9803,24081 9624,23968 9417,23826 9146,23641 8925,23473 8674,23262 8423,23050 8220,22861 7991,22626 7763,22390 7580,22182 7376,21925 7172,21668 7010,21442 6833,21166 6749,21036 6681,20924 6604,20790 6517,20640 6447,20511 6369,20357 6220,20064 6107,19811 5988,19505 5869,19199 5781,18936 5693,18620 5606,18303 5545,18033 5489,17709 5433,17386 5400,17110 5377,16783 5360,16551 5353,16355 5353,16123 5353,15795 5367,15518 5400,15191 5433,14865 5474,14590 5539,14269 5605,13947 5673,13678 5770,13365 5867,13051 5962,12790 6090,12488 6218,12186 6339,11936 6496,11648 6533,11580 6565,11523 6604,11456 6729,11239 6842,11060 6984,10853 7169,10582 7337,10361 7548,10110 7760,9859 7949,9656 8184,9427 8420,9199 8628,9016 8885,8811 9110,8635 9307,8495 9546,8339 L 9546,3865 Z"/>
        </g>
       </g>
      </g>
     </g>
    </g>
   </g>
  </g>
 </g>
</svg>