<?xml version="1.0" encoding="utf-8"?>
<!-- Created by sK1 2.0rc4 (https://sk1project.net/) -->
<svg xmlns="http://www.w3.org/2000/svg" height="832.677165354pt" viewBox="0 0 832.677165354 832.677165354" width="832.677165354pt" version="1.1" xmlns:xlink="http://www.w3.org/1999/xlink" id="edfd9c42-b133-11ea-bb2a-a0f3c11e789f">

<g>
	<g>
		<path style="fill:#2d2c2b;" d="M 689.2572,428.5003 L 655.0235,424.1923 C 643.9373,416.3838 631.8961,402.987 607.584,365.1861 579.8675,322.0918 568.0367,308.0345 545.8893,291.8805 529.0918,279.6287 509.5699,255.954 495.6994,236.0354 481.7821,216.0498 477.0403,203.9631 471.2512,173.718 464.3617,143.4709 445.0134,133.9591 436.9385,133.4562 416.9272,132.2099 405.2614,155.1368 395.9389,186.3656 390.2375,205.4644 389.666,227.6567 394.4355,244.7482 402.0176,271.9191 414.3473,300.12 432.325,320.9363 443.5651,337.7026 443.4845,340.9018 442.9169,347.6333 442.2193,355.9072 440.9111,357.7276 433.5379,360.6844 431.6702,361.4334 417.1491,361.8182 377.3062,362.1747 287.4399,365.1861 10.5882,378.3694 5.0683,399.3151 -3.8068,405.2156 -3.8068,434.7183 14.8569,437.0132 79.4158,453.621 266.5025,454.1319 277.6698,465.1566 281.6092,469.0457 281.9054,469.5821 280.6653,470.5809 277.1956,473.3755 270.9789,483.3929 268.8878,489.5588 266.9286,495.336 266.6587,497.4289 266.674,506.7266 266.6994,522.2347 270.2447,533.4307 278.4585,543.9433 281.2774,547.5512 289.6866,554.5385 292.181,555.3454 292.75,555.5295 292.1166,557.236 290.5666,559.6952 285.4362,567.8346 284.1441,573.0919 284.1669,585.7337 284.1891,597.9944 284.9224,601.508 289.251,610.0871 292.1308,615.7949 299.1199,623.3858 304.6877,626.8533 307.0072,628.2977 308.905,629.5835 308.905,629.7105 308.905,629.8376 307.7824,632.2734 306.4104,635.1235 298.9754,650.5684 302.7267,672.6589 314.9068,685.1574 319.6396,690.014 327.8561,694.5325 335.3797,696.4161 346.6511,699.238 358.2985,699.4299 503.6176,699.1881 L 646.7146,698.9501 652.9092,696.7548 C 660.0304,694.2311 680.175,687.3107 687.8613,680.8051 L 689.2572,428.5003 Z" />
		<path style="fill-rule:evenodd;fill:#2d2c2b;" d="M 833.3773,697.5533 L 833.3773,411.0003 731.25,411.0003 731.25,697.5533 833.3773,697.5533 Z" />
	</g>
</g>
</svg>