<?xml version="1.0" encoding="utf-8"?>
<!-- Created by sK1 2.0rc4 (https://sk1project.net/) -->
<svg xmlns="http://www.w3.org/2000/svg" height="832.677165354pt" viewBox="0 0 832.677165354 832.677165354" width="832.677165354pt" version="1.1" xmlns:xlink="http://www.w3.org/1999/xlink" id="d67d3b2c-b133-11ea-bb2a-a0f3c11e789f">

<g>
	<g>
		<path style="fill:#2d2c2b;" d="M 428.5003,144.493 L 424.1923,178.5921 C 416.3838,189.6347 402.987,201.6286 365.1861,225.8451 322.0918,253.4527 308.0345,265.2369 291.8805,287.2973 279.6287,304.0286 255.954,323.4738 236.0354,337.2898 216.0498,351.1523 203.9631,355.8755 173.718,361.6418 143.4709,368.5043 133.9591,387.7765 133.4562,395.8197 132.2099,415.7523 155.1368,427.3722 186.3656,436.6581 205.4644,442.3371 227.6567,442.9063 244.7482,438.1556 271.9191,430.6033 300.12,418.322 320.9363,400.415 337.7026,389.2191 340.9018,389.2994 347.6333,389.8647 355.9072,390.5596 357.7276,391.8627 360.6844,399.2069 361.4334,401.0672 361.8182,415.5313 362.1747,455.2175 365.1861,544.7304 378.3694,820.4937 399.3151,825.9919 405.2156,834.8321 434.7183,834.8321 437.0132,816.2418 453.621,751.9367 454.1319,565.5856 465.1566,554.4621 469.0457,550.5382 469.5821,550.2432 470.5809,551.4785 473.3755,554.9345 483.3929,561.1267 489.5588,563.2096 495.336,565.1612 497.4289,565.43 506.7266,565.4147 522.2347,565.3894 533.4307,561.858 543.9433,553.6766 547.5512,550.8688 554.5385,542.4926 555.3454,540.008 555.5295,539.4412 557.236,540.0721 559.6952,541.6161 567.8346,546.7263 573.0919,548.0134 585.7337,547.9906 597.9944,547.9685 601.508,547.238 610.0871,542.9265 615.7949,540.058 623.3858,533.0964 626.8533,527.5504 628.2977,525.2401 629.5835,523.3497 629.7105,523.3497 629.8376,523.3497 632.2734,524.4679 635.1235,525.8345 650.5684,533.2403 672.6589,529.5038 685.1574,517.3715 690.014,512.6573 694.5325,504.4731 696.4161,496.9792 699.238,485.7521 699.4299,474.1505 699.1881,329.4027 L 698.9501,186.8683 696.7548,180.6981 C 694.2311,173.6049 687.3107,153.5395 680.8051,145.8834 L 428.5003,144.493 Z" />
		<path style="fill-rule:evenodd;fill:#2d2c2b;" d="M 697.5533,0.9396 L 411.0003,0.9396 411.0003,102.6654 697.5533,102.6654 697.5533,0.9396 Z" />
	</g>
</g>
</svg>