<?xml version="1.0" encoding="utf-8"?>
<!-- Created by sK1 2.0rc4 (https://sk1project.net/) -->
<svg xmlns="http://www.w3.org/2000/svg" height="832.677165354pt" viewBox="0 0 832.677165354 832.677165354" width="832.677165354pt" version="1.1" xmlns:xlink="http://www.w3.org/1999/xlink" id="e519feea-b133-11ea-bb2a-a0f3c11e789f">

<g>
	<g>
		<path style="fill:#2d2c2b;" d="M 144.1677,428.5003 L 178.3076,424.1923 C 189.3635,416.3838 201.3717,402.987 225.6171,365.1861 253.2577,322.0918 265.0561,308.0345 287.1428,291.8805 303.8942,279.6287 323.3627,255.954 337.1952,236.0354 351.0743,216.0498 355.8032,203.9631 361.5764,173.718 368.4471,143.4709 387.7424,133.9591 395.7951,133.4562 415.7516,132.2099 427.3854,155.1368 436.6824,186.3656 442.3682,205.4644 442.9381,227.6567 438.1817,244.7482 430.6203,271.9191 418.3244,300.12 400.3959,320.9363 389.1866,337.7026 389.2671,340.9018 389.8331,347.6333 390.5288,355.9072 391.8334,357.7276 399.1864,360.6844 401.0489,361.4334 415.5303,361.8182 455.264,362.1747 544.8841,365.1861 820.9773,378.3694 826.4821,399.3151 835.3329,405.2156 835.3329,434.7183 816.7203,437.0132 752.3383,453.621 565.7641,454.1319 554.6274,465.1566 550.6988,469.0457 550.4035,469.5821 551.6402,470.5809 555.1004,473.3755 561.3,483.3929 563.3854,489.5588 565.3393,495.336 565.6084,497.4289 565.5931,506.7266 565.5678,522.2347 562.0322,533.4307 553.8409,543.9433 551.0297,547.5512 542.6435,554.5385 540.156,555.3454 539.5885,555.5295 540.2202,557.236 541.766,559.6952 546.8823,567.8346 548.1709,573.0919 548.1482,585.7337 548.126,597.9944 547.3947,601.508 543.0779,610.0871 540.206,615.7949 533.2361,623.3858 527.6835,626.8533 525.3704,628.2977 523.4778,629.5835 523.4778,629.7105 523.4778,629.8376 524.5973,632.2734 525.9656,635.1235 533.3802,650.5684 529.6392,672.6589 517.4924,685.1574 512.7726,690.014 504.5786,694.5325 497.0757,696.4161 485.8352,699.238 474.2197,699.4299 329.2987,699.1881 L 186.5937,698.9501 180.4161,696.7548 C 173.3144,694.2311 153.225,687.3107 145.5598,680.8051 L 144.1677,428.5003 Z" />
		<path style="fill-rule:evenodd;fill:#2d2c2b;" d="M 0.4425,697.5533 L 0.4425,411.0003 102.29,411.0003 102.29,697.5533 0.4425,697.5533 Z" />
	</g>
</g>
</svg>