<?xml version="1.0" encoding="utf-8"?>
<!-- Created by sK1 2.0rc4 (https://sk1project.net/) -->
<svg xmlns="http://www.w3.org/2000/svg" height="832.677165354pt" viewBox="0 0 832.677165354 832.677165354" width="832.677165354pt" version="1.1" xmlns:xlink="http://www.w3.org/1999/xlink" id="be093c62-b133-11ea-bb2a-a0f3c11e789f">

<g>
	<g>
		<path style="fill:#2d2c2b;" d="M 428.5003,688.5095 L 424.1923,654.3696 C 416.3838,643.3137 402.987,631.3055 365.1861,607.06 322.0918,579.4194 308.0345,567.621 291.8805,545.5343 279.6287,528.7829 255.954,509.3145 236.0354,495.4819 216.0498,481.6028 203.9631,476.874 173.718,471.1008 143.4709,464.2301 133.9591,444.9348 133.4562,436.882 132.2099,416.9256 155.1368,405.2918 186.3656,395.9948 205.4644,390.309 227.6567,389.7391 244.7482,394.4955 271.9191,402.0568 300.12,414.3528 320.9363,432.2812 337.7026,443.4905 340.9018,443.4101 347.6333,442.8441 355.9072,442.1484 357.7276,440.8437 360.6844,433.4907 361.4334,431.6282 361.8182,417.1469 362.1747,377.4132 365.1861,287.7931 378.3694,11.6999 399.3151,6.1951 405.2156,-2.6557 434.7183,-2.6557 437.0132,15.9568 453.621,80.3389 454.1319,266.913 465.1566,278.0497 469.0457,281.9783 469.5821,282.2737 470.5809,281.037 473.3755,277.5768 483.3929,271.3772 489.5588,269.2918 495.336,267.3379 497.4289,267.0688 506.7266,267.084 522.2347,267.1094 533.4307,270.645 543.9433,278.8362 547.5512,281.6474 554.5385,290.0336 555.3454,292.5212 555.5295,293.0886 557.236,292.457 559.6952,290.9112 567.8346,285.7948 573.0919,284.5062 585.7337,284.529 597.9944,284.5511 601.508,285.2825 610.0871,289.5992 615.7949,292.4711 623.3858,299.4411 626.8533,304.9936 628.2977,307.3068 629.5835,309.1994 629.7105,309.1994 629.8376,309.1994 632.2734,308.0798 635.1235,306.7116 650.5684,299.297 672.6589,303.0379 685.1574,315.1847 690.014,319.9046 694.5325,328.0986 696.4161,335.6015 699.238,346.842 699.4299,358.4575 699.1881,503.3785 L 698.9501,646.0834 696.7548,652.261 C 694.2311,659.3627 687.3107,679.4522 680.8051,687.1174 L 428.5003,688.5095 Z" />
		<path style="fill-rule:evenodd;fill:#2d2c2b;" d="M 697.5533,832.2347 L 411.0003,832.2347 411.0003,730.3872 697.5533,730.3872 697.5533,832.2347 Z" />
	</g>
</g>
</svg>