<?xml version="1.0" encoding="utf-8"?>
<!-- Created by sK1 2.0rc4 (https://sk1project.net/) -->
<svg xmlns="http://www.w3.org/2000/svg" height="832.677165354pt" viewBox="0 0 832.677165354 832.677165354" width="832.677165354pt" version="1.1" xmlns:xlink="http://www.w3.org/1999/xlink" id="c56b58a8-b135-11ea-bb2a-a0f3c11e789f">

<g>
	<path style="fill:#2d2c2b;" d="M 426.9943,688.9654 L 422.6762,654.8618 C 414.8494,643.8177 401.4213,631.8223 363.5317,607.6026 320.3364,579.9914 306.2461,568.2056 290.0542,546.1423 277.7737,529.4088 254.0434,509.9611 234.0782,496.1433 214.0457,482.2789 201.9306,477.5552 171.6146,471.7881 141.2966,464.9247 131.7625,445.6499 131.2584,437.6057 130.0092,417.6705 152.9899,406.0491 184.2919,396.762 203.4355,391.0823 225.6798,390.5129 242.8114,395.2643 270.046,402.8176 298.313,415.1005 319.1782,433.0099 335.9837,444.2072 339.1904,444.1269 345.9377,443.5615 354.231,442.8665 364.0926,440.6758 367.0563,433.3307 367.807,431.4701 373.8435,416.8218 374.2009,377.1304 377.2193,287.6058 397.5152,277.3952 418.51,271.8962 441.1287,268.946 446.2032,272.9033 458.9782,278.8995 462.8764,282.8239 463.414,283.1189 464.4152,281.8835 467.2164,278.427 473.0436,23.6119 479.224,21.5287 480.0108,-3.6469 534.6893,-11.5962 544.1301,23.0203 554.3577,313.3268 558.5492,290.4605 559.358,292.9454 559.5425,293.5123 561.253,292.8812 563.718,291.3371 571.8765,286.2262 577.6795,283.6047 590.351,283.6274 607.974,282.6204 623.3969,298.1789 625.568,313.1112 627.0159,315.4218 628.3046,317.3124 628.432,317.3124 675.2586,291.6333 693.4059,336.1915 695.2939,343.6864 698.1225,354.915 698.5592,359.2647 698.3169,504.0314 L 698.0784,646.5844 695.8779,652.7555 C 693.3482,659.8496 686.4116,679.9177 679.8908,687.5748 L 426.9943,688.9654 Z" />
	<path style="fill-rule:evenodd;fill:#2d2c2b;" d="M 705.8978,832.6769 L 418.6729,832.6769 418.6729,730.9378 705.8978,730.9378 705.8978,832.6769 Z" />
</g>
</svg>