<?xml version="1.0" encoding="utf-8"?>
<!-- Created by sK1 2.0rc4 (https://sk1project.net/) -->
<svg xmlns="http://www.w3.org/2000/svg" height="832.677165354pt" viewBox="0 0 832.677165354 832.677165354" width="832.677165354pt" version="1.1" xmlns:xlink="http://www.w3.org/1999/xlink" id="cbc235bc-b132-11ea-bb2a-a0f3c11e789f">

<g>
	<g>
		<path style="fill:#2d2c2b;" d="M 209.7313,398.2415 L 259.55,404.5152 C 275.6833,415.8868 293.2062,435.3966 328.5864,490.4463 368.921,553.2047 386.1378,573.6765 418.3679,597.2016 442.8123,615.0439 471.2217,649.5216 491.4068,678.5291 511.6599,707.6343 518.5604,725.2362 526.985,769.2823 537.0111,813.3313 565.1677,827.1833 576.9187,827.9157 606.0402,829.7308 623.0168,796.3422 636.5834,750.8635 644.8804,723.0498 645.7121,690.7312 638.7713,665.8406 627.7374,626.2716 609.7945,585.2024 583.6324,554.8875 567.2753,530.4707 567.3926,525.8117 568.2185,516.0086 569.2338,503.9592 571.1376,501.3081 581.8674,497.0021 584.5853,495.9114 605.7173,495.3509 663.6987,494.8318 794.4767,490.4463 819.905,458.4786 827.9379,427.9753 836.2674,396.3457 828.989,364.9083 808.6947,344.8587 802.9619,339.195 802.5309,338.4139 804.3356,336.9593 809.3849,332.8894 818.4317,318.3011 821.4748,309.3216 824.326,300.9083 824.7187,297.8604 824.6964,284.3201 824.6595,261.7356 819.5001,245.4308 807.5471,230.1212 803.4448,224.867 791.2073,214.6914 787.5773,213.5163 786.7492,213.2482 787.671,210.763 789.9267,207.1817 797.3927,195.3282 799.2731,187.672 799.2399,169.2616 799.2076,151.4063 798.1403,146.2895 791.8412,133.7957 787.6503,125.4834 777.4795,114.4286 769.3768,109.379 766.0014,107.2754 763.2396,105.403 763.2396,105.218 763.2396,105.0329 764.8733,101.4857 766.8699,97.335 777.6897,74.8425 772.2307,42.6721 754.5055,24.4703 747.6181,17.3977 735.661,10.8174 724.7123,8.0743 708.3096,3.9648 691.3597,3.6853 479.8837,4.0374 L 271.6416,4.384 262.6269,7.5811 C 252.2637,11.2563 222.9482,21.3345 211.7627,30.8087 L 209.7313,398.2415 Z" />
		<path style="fill-rule:evenodd;fill:#2d2c2b;" d="M 0.0003,6.4181 L 0.0003,423.7269 148.6213,423.7269 148.6213,6.4181 0.0003,6.4181 Z" />
	</g>
</g>
</svg>