<?xml version="1.0" encoding="utf-8"?>
<!-- Created by sK1 2.0rc4 (https://sk1project.net/) -->
<svg xmlns="http://www.w3.org/2000/svg" height="832.677165354pt" viewBox="0 0 832.677165354 832.677165354" width="832.677165354pt" version="1.1" xmlns:xlink="http://www.w3.org/1999/xlink" id="b288eabe-b132-11ea-bb2a-a0f3c11e789f">

<g>
	<path style="fill:#2d2c2b;" d="M 209.7313,433.7586 L 259.55,427.4507 C 275.6833,416.0172 293.2062,396.4013 328.5864,341.052 368.921,277.9521 386.1378,257.3689 418.3679,233.7158 442.8123,215.7764 471.2217,181.111 491.4068,151.9457 511.6599,122.6821 518.5604,104.9844 526.985,60.6986 537.0111,16.4099 565.1677,2.4825 576.9187,1.7461 606.0402,-0.0788 623.0168,33.4915 636.5834,79.2177 644.8804,107.1827 645.7121,139.6773 638.7713,164.7032 627.7374,204.4876 609.7945,245.7802 583.6324,276.2602 567.2753,300.8098 567.3926,305.4942 568.2185,315.3507 569.2338,327.4656 571.1376,330.1311 581.8674,334.4605 584.5853,335.5572 605.7173,336.1207 663.6987,336.6427 794.4767,341.052 819.905,373.1937 827.9379,403.863 836.2674,435.6647 828.989,467.2732 808.6947,487.4319 802.9619,493.1265 802.5309,493.9118 804.3356,495.3743 809.3849,499.4663 818.4317,514.134 821.4748,523.1624 824.326,531.6215 824.7187,534.686 824.6964,548.3 824.6595,571.0073 819.5001,587.4009 807.5471,602.7938 803.4448,608.0766 791.2073,618.3076 787.5773,619.4891 786.7492,619.7586 787.671,622.2573 789.9267,625.8582 797.3927,637.7761 799.2731,645.474 799.2399,663.9846 799.2076,681.937 798.1403,687.0817 791.8412,699.6435 787.6503,708.001 777.4795,719.1159 769.3768,724.193 766.0014,726.3081 763.2396,728.1907 763.2396,728.3767 763.2396,728.5628 764.8733,732.1293 766.8699,736.3026 777.6897,758.9175 772.2307,791.263 754.5055,809.5638 747.6181,816.6749 735.661,823.291 724.7123,826.049 708.3096,830.1809 691.3597,830.4619 479.8837,830.1079 L 271.6416,829.7595 262.6269,826.545 C 252.2637,822.8497 222.9482,812.7167 211.7627,803.191 L 209.7313,433.7586 Z" />
	<path style="fill-rule:evenodd;fill:#2d2c2b;" d="M 0.0003,827.7142 L 0.0003,408.1345 148.6213,408.1345 148.6213,827.7142 0.0003,827.7142 Z" />
</g>
</svg>