<?xml version="1.0" encoding="utf-8"?>
<!-- Created by sK1 2.0rc4 (https://sk1project.net/) -->
<svg xmlns="http://www.w3.org/2000/svg" height="832.677165354pt" viewBox="0 0 832.677165354 832.677165354" width="832.677165354pt" version="1.1" xmlns:xlink="http://www.w3.org/1999/xlink" id="f0e41560-b45a-11ea-be2e-a0f3c11e789f">

<g>
	<path style="fill-rule:evenodd;fill:#2d2c2b;" d="M 509.024,760.0401 L 172.1194,481.0028 420.3958,188.9485 757.3005,467.9858 509.024,760.0401 Z M 494.1041,821.6901 C 499.7306,826.352 507.1647,828.8965 515.0667,828.2141 522.9688,827.5317 529.8423,823.7516 534.5632,818.1962 L 819.759,482.7126 C 824.4832,477.1554 827.0597,469.8192 826.3685,462.0213 825.6773,454.2235 821.8494,447.4403 816.2193,442.7772 L 435.3158,127.2984 C 429.6856,122.6353 422.2532,120.0923 414.3531,120.7745 406.453,121.4567 399.5809,125.2351 394.8566,130.7923 L 109.6608,466.2759 C 104.9366,471.8332 102.3602,479.1694 103.0513,486.9672 103.7425,494.7651 107.5704,501.5482 113.2005,506.2113 L 494.1041,821.6901 Z" />
	<path style="fill:#2d2c2b;" d="M 38.7021,441.1236 C 72.4904,367.3571 200.9191,352.4362 175.2552,475.5488 147.837,648.2568 45.1964,538.5375 35.2726,818.7976 34.3674,898.1194 -31.9036,619.4445 38.7021,441.1236 Z" />
	<path style="fill-rule:evenodd;fill:#2d2c2b;" d="M 686.5712,355.1604 C 699.4113,338.0926 711.6751,319.5671 723.0394,299.8797 723.0394,299.8836 723.0394,299.8816 723.0394,299.8797 723.0394,299.8778 723.0394,299.8759 723.0394,299.8797 756.6195,241.7062 777.354,182.0371 782.8416,131.8378 785.5802,106.7863 784.6749,82.6988 778.5726,61.8757 772.4185,40.8756 760.3465,21.421 739.7824,9.8559 624.0409,-37.317 514.7196,179.343 481.1395,237.5166 481.1404,237.5129 481.14,237.5147 481.1395,237.5166 481.139,237.5184 481.1386,237.5203 481.1395,237.5166 460.7038,272.919 445.0255,308.8753 434.6459,342.9141 L 483.3651,382.8069 C 491.3542,347.5554 507.2406,306.8188 531.0439,265.5824 531.0439,265.5786 531.0439,265.5805 531.0439,265.5824 531.0439,265.5844 531.0439,265.5863 531.0439,265.5824 677.483,19.0941 707.3974,56.8922 711.3485,59.1143 715.2996,61.3364 720.0759,66.2924 723.3981,77.6288 726.7721,89.1421 727.971,105.3169 725.7367,125.7558 721.2786,166.5375 703.7587,218.762 673.135,271.8139 663.3614,288.7455 652.9807,304.5009 642.2944,318.9051 L 686.5711,355.1603 686.5712,355.1604 Z" />
	<path style="fill-rule:evenodd;fill:#2d2c2b;" d="M 504.8795,358.0316 C 504.8795,332.6246 484.0051,312.0203 458.2648,312.0203 432.5246,312.0203 411.6502,332.6246 411.6502,358.0316 411.6502,383.4387 432.5246,404.0429 458.2648,404.0429 484.0051,404.0429 504.8795,383.4387 504.8795,358.0316 Z" />
</g>
</svg>