<?xml version="1.0" encoding="utf-8"?>
<!-- Created by sK1 2.0rc4 (https://sk1project.net/) -->
<svg xmlns="http://www.w3.org/2000/svg" height="832.677165354pt" viewBox="0 0 832.677165354 832.677165354" width="832.677165354pt" version="1.1" xmlns:xlink="http://www.w3.org/1999/xlink" id="374a444c-b510-11ea-be2e-a0f3c11e789f">

<g>
	<g>
		<path style="fill-rule:evenodd;fill:#2d2c2b;" d="M 168.0325,486.988 C 168.0888,486.8876 168.1451,486.7874 168.2012,486.687 L 168.0325,486.988 Z" />
		<path style="fill-rule:evenodd;fill:#2d2c2b;" d="M 168.0316,486.9875 C 169.0321,486.9166 170.0318,486.8651 171.0299,486.8326 L 184.3135,487.5218 168.2007,486.6867 168.2012,486.6869 171.0299,486.8333 168.2007,486.6867 168.0316,486.9875 Z" />
		<path style="fill-rule:evenodd;fill:#2d2c2b;" d="M 267.6018,594.6891 L 244.3562,568.3459 50.7591,739.1785 73.242,574.3752 165.498,492.9673 142.2525,466.6242 40.198,556.6784 3.1813,828.0171 267.6018,594.6891 Z" />
		<path style="fill-rule:evenodd;fill:#2d2c2b;" d="M 121.809,446.3605 L 600.4243,24.0243 C 637.8947,-9.0401 705.0702,-3.3107 747.707,45.0078 L 747.5699,44.8524 C 784.5325,86.7406 816.8599,123.3758 827.6932,135.6527 828.4474,136.5075 828.088,135.8572 827.9675,135.9635 821.3392,141.8124 793.1615,166.4631 759.7016,195.9886 L 276.9566,622.1826 121.809,446.3605 Z M 702.2738,144.9784 C 719.1347,130.1001 720.7425,104.3607 705.8643,87.4998 690.986,70.6389 665.2466,69.0311 648.3857,83.9094 631.5248,98.7876 629.917,124.527 644.7952,141.3879 659.6735,158.2488 685.4129,159.8566 702.2738,144.9784 Z" />
		<path style="fill-rule:evenodd;fill:#2d2c2b;" d="M 397.183,151.4442 L 397.183,151.4442 Z M 299.6693,190.6362 C 296.2995,193.6087 294.0623,197.87 293.7598,202.7126 293.4573,207.5552 296.0498,212.5136 299.0235,215.8823 L 324.1716,244.3798 C 425.1367,155.287 430.1395,150.8725 437.4162,144.4513 L 412.1331,115.7991 C 409.1565,112.4271 404.6672,109.42 399.827,109.1176 394.9868,108.8153 390.4821,110.503 387.109,113.4783 L 299.6693,190.6362 Z" />
	</g>
</g>
</svg>