<?xml version="1.0" encoding="utf-8"?>
<!-- Created by sK1 2.0rc4 (https://sk1project.net/) -->
<svg xmlns="http://www.w3.org/2000/svg" height="832.677165354pt" viewBox="0 0 832.677165354 832.677165354" width="832.677165354pt" version="1.1" xmlns:xlink="http://www.w3.org/1999/xlink" id="6b255d96-b386-11ea-be2e-a0f3c11e789f">

<g>
	<path style="fill-rule:evenodd;fill:#2d2c2b;" d="M 88.8093,505.2492 L 268.8433,326.3754 502.3829,563.5723 322.349,742.4461 88.8093,505.2492 Z M 13.0799,479.3506 C 6.5545,485.773 2.4769,494.6918 2.4001,504.5779 2.3233,514.4639 6.2618,523.445 12.6867,529.968 L 296.4504,818.1755 C 302.8815,824.7048 311.7964,828.7785 321.6776,828.8553 331.5589,828.9321 340.536,824.9974 347.0678,818.5687 L 819.594,353.3281 C 826.1194,346.9058 830.197,337.987 830.2738,328.1009 830.3506,318.2148 826.412,309.2338 819.9872,302.7108 L 536.2235,14.5033 C 529.7924,7.974 520.8775,3.9003 510.9962,3.8235 501.115,3.7467 492.1379,7.6814 485.6061,14.1101 L 13.0799,479.3506 Z" />
</g>
</svg>