<?xml version="1.0" encoding="utf-8"?>
<!-- Created by sK1 2.0rc4 (https://sk1project.net/) -->
<svg xmlns="http://www.w3.org/2000/svg" height="832.677165354pt" viewBox="0 0 832.677165354 832.677165354" width="832.677165354pt" version="1.1" xmlns:xlink="http://www.w3.org/1999/xlink" id="0c7e92a6-b4e6-11ea-be2e-a0f3c11e789f">

<g>
	<path style="fill-rule:evenodd;fill:#2d2c2b;" d="M 54.9167,254.6037 L 40.0346,289.6357 2.1184,292.9639 30.837,317.943 22.2856,355.032 54.9167,335.438 87.5478,355.032 78.9964,317.943 107.7149,292.9639 69.7987,289.6357 54.9167,254.6037 Z" />
	<path style="fill-rule:evenodd;fill:#2d2c2b;" d="M 618.9528,45.8656 L 594.2178,104.0912 531.1983,109.623 578.9306,151.1402 564.7176,212.7846 618.9528,180.218 673.1881,212.7846 658.9751,151.1402 706.7073,109.623 643.6879,104.0912 618.9528,45.8656 Z" />
	<path style="fill-rule:evenodd;fill:#2d2c2b;" d="M 114.8733,547.7245 L 90.1382,605.9501 27.1188,611.4819 74.8511,652.9991 60.6381,714.6435 114.8733,682.0769 169.1086,714.6435 154.8955,652.9991 202.6278,611.4819 139.6084,605.9501 114.8733,547.7245 Z" />
	<path style="fill-rule:evenodd;fill:#2d2c2b;" d="M 281.4194,3.6743 L 266.5373,38.7062 228.6211,42.0344 257.3397,67.0136 248.7882,104.1025 281.4194,84.5085 314.0505,104.1025 305.4991,67.0136 334.2176,42.0344 296.3014,38.7062 281.4194,3.6743 Z" />
	<path style="fill-rule:evenodd;fill:#2d2c2b;" d="M 37.3133,8.1526 L 50.5529,70.0134 2.172,110.773 65.0964,117.2974 88.9106,175.9057 114.5605,118.0773 177.6593,113.5396 130.5873,71.2752 145.7704,9.8624 91.0285,41.57 37.3133,8.1526 Z" />
	<path style="fill-rule:evenodd;fill:#2d2c2b;" d="M 728.1042,814.9164 C 752.2007,838.7673 791.0698,838.5682 814.9207,814.4717 814.9207,814.4717 814.9207,814.4717 814.9207,814.4717 814.9207,814.4717 814.9207,814.4717 814.9207,814.4717 838.7716,790.3752 838.5725,751.5061 814.476,727.6552 L 262.2392,181.0471 C 262.2392,181.0471 262.2392,181.0471 262.2392,181.0471 262.2392,181.0471 262.2392,181.0471 262.2392,181.0471 238.1427,157.1962 199.2736,157.3953 175.4227,181.4918 151.5718,205.5884 151.7709,244.4574 175.8674,268.3084 L 728.1042,814.9164 Z M 386.1432,339.2111 C 371.1041,333.5031 351.8346,335.7327 341.0229,346.6556 331.2223,356.5572 327.4536,372.3976 330.673,386.0132 L 193.6284,250.3645 C 179.442,236.3227 179.3248,213.4392 193.3666,199.2528 207.4084,185.0664 230.2918,184.9492 244.4782,198.991 244.4782,198.991 244.4782,198.991 244.4782,198.991 244.4782,198.991 244.4782,198.991 244.4782,198.991 L 386.1428,339.2117 386.1432,339.2111 Z" />
</g>
</svg>