<?xml version="1.0" encoding="utf-8"?>
<!-- Created by sK1 2.0rc4 (https://sk1project.net/) -->
<svg xmlns="http://www.w3.org/2000/svg" height="832.677165354pt" viewBox="0 0 832.677165354 832.677165354" width="832.677165354pt" version="1.1" xmlns:xlink="http://www.w3.org/1999/xlink" id="3eb8fe88-b4e5-11ea-be2e-a0f3c11e789f">

<g>
	<path style="fill-rule:evenodd;fill:#2d2c2b;" d="M 149.2356,162.4044 L 247.1608,342.6456 99.6254,485.1572 301.3055,447.7224 391.2511,632.0754 417.9712,428.6982 621.096,400.123 435.9297,311.8638 471.5222,109.8504 330.3631,258.6804 149.2356,162.4044 Z" />
	<path style="fill-rule:evenodd;fill:#2d2c2b;" d="M 765.8876,820.2005 C 780.9682,835.1274 805.2942,835.0028 820.2212,819.9221 835.1481,804.8415 835.0235,780.5155 819.9428,765.5886 L 384.8613,334.9417 C 369.7807,320.0147 345.4547,320.1393 330.5277,335.22 315.6008,350.3007 315.7254,374.6266 330.8061,389.5536 L 765.8876,820.2005 Z" />
	<path style="fill-rule:evenodd;fill:#2d2c2b;" d="M 54.9167,254.6037 L 40.0346,289.6357 2.1184,292.9639 30.837,317.943 22.2856,355.032 54.9167,335.438 87.5478,355.032 78.9964,317.943 107.7149,292.9639 69.7987,289.6357 54.9167,254.6037 Z" />
	<path style="fill-rule:evenodd;fill:#2d2c2b;" d="M 618.9528,45.8656 L 594.2178,104.0912 531.1983,109.623 578.9306,151.1402 564.7176,212.7846 618.9528,180.218 673.1881,212.7846 658.9751,151.1402 706.7073,109.623 643.6879,104.0912 618.9528,45.8656 Z" />
	<path style="fill-rule:evenodd;fill:#2d2c2b;" d="M 114.8733,547.7245 L 90.1382,605.9501 27.1188,611.4819 74.8511,652.9991 60.6381,714.6435 114.8733,682.0769 169.1086,714.6435 154.8955,652.9991 202.6278,611.4819 139.6084,605.9501 114.8733,547.7245 Z" />
	<path style="fill-rule:evenodd;fill:#2d2c2b;" d="M 281.4194,3.6743 L 266.5373,38.7062 228.6211,42.0344 257.3397,67.0136 248.7882,104.1025 281.4194,84.5085 314.0505,104.1025 305.4991,67.0136 334.2176,42.0344 296.3014,38.7062 281.4194,3.6743 Z" />
	<path style="fill-rule:evenodd;fill:#2d2c2b;" d="M 37.3133,8.1526 L 50.5529,70.0134 2.172,110.773 65.0964,117.2974 88.9106,175.9057 114.5605,118.0773 177.6593,113.5396 130.5873,71.2752 145.7704,9.8624 91.0285,41.57 37.3133,8.1526 Z" />
</g>
</svg>