<?xml version="1.0" encoding="utf-8"?>
<!-- Created by sK1 2.0rc4 (https://sk1project.net/) -->
<svg xmlns="http://www.w3.org/2000/svg" height="832.677165354pt" viewBox="0 0 832.677165354 832.677165354" width="832.677165354pt" version="1.1" xmlns:xlink="http://www.w3.org/1999/xlink" id="1536f350-b4e8-11ea-be2e-a0f3c11e789f">

<g>
	<path style="fill-rule:evenodd;fill:#2d2c2b;" d="M 360.4038,787.2385 L 360.4038,787.2385 Z M 65.3829,96.4538 L 51.4255,96.4538 C 27.7519,96.4538 8.5607,115.645 8.5607,139.3185 8.5607,162.9921 27.7519,182.1833 51.4255,182.1833 L 65.3829,182.1833 65.3829,96.4538 Z M 658.6215,182.1833 L 738.3848,182.1833 738.3848,316.2405 392.1738,416.1212 C 383.541,418.6025 375.616,423.808 369.8014,431.5373 363.9867,439.2667 361.1819,448.324 361.1908,457.3063 L 361.1915,524.3696 338.9721,524.3696 C 333.487,524.3696 328.002,526.462 323.8171,530.647 319.6322,534.8319 317.5397,540.3169 317.5397,545.802 L 317.539,808.6709 C 317.539,814.1559 319.6315,819.641 323.8164,823.8259 328.0013,828.0108 333.4864,830.1033 338.9714,830.1033 L 468.8125,830.1033 C 474.3002,830.1023 479.7836,828.0098 483.9675,823.8259 488.1514,819.642 490.2439,814.1586 490.2449,808.6709 L 490.2456,545.802 C 490.2446,540.3143 488.1521,534.8309 483.9682,530.647 479.7843,526.4631 474.3009,524.3706 468.8132,524.3696 L 446.921,524.3696 446.9203,668.3235 446.9203,489.5529 793.1313,389.6722 C 801.7642,387.1909 809.6891,381.9854 815.5037,374.256 821.3184,366.5267 824.1232,357.4694 824.1143,348.4871 L 824.1143,139.3185 C 824.1143,128.3485 819.9294,117.3784 811.5595,109.0086 803.1897,100.6387 792.2196,96.4538 781.2496,96.4538 L 658.6215,96.4538 658.6215,182.1833 Z" />
	<path style="fill-rule:evenodd;fill:#2d2c2b;" d="M 86.8152,255.5368 L 86.8152,45.4357 637.1892,45.4357 637.1892,255.5368 86.8152,255.5368 Z M 43.9505,276.9692 C 43.9505,282.4542 46.0429,287.9393 50.2279,292.1242 54.4128,296.3091 59.8978,298.4016 65.3829,298.4016 L 658.6215,298.4016 C 664.1092,298.4006 669.5926,296.3081 673.7765,292.1242 677.9604,287.9403 680.0529,282.4569 680.0539,276.9692 L 680.0539,24.0033 C 680.0529,18.5156 677.9604,13.0323 673.7765,8.8483 669.5926,4.6644 664.1092,2.572 658.6215,2.5709 L 65.3829,2.5709 C 59.8978,2.5709 54.4128,4.6634 50.2279,8.8483 46.0429,13.0333 43.9505,18.5183 43.9505,24.0033 L 43.9505,276.9692 Z" />
	<path style="fill-rule:evenodd;fill:#2d2c2b;" d="M 65.8579,270.3975 L 65.8579,142.7952 650.1419,142.7952 650.1419,270.3975 65.8579,270.3975 Z" />
</g>
</svg>