<?xml version="1.0" encoding="utf-8"?>
<!-- Created by sK1 2.0rc4 (https://sk1project.net/) -->
<svg xmlns="http://www.w3.org/2000/svg" height="832.677165354pt" viewBox="0 0 832.677165354 832.677165354" width="832.677165354pt" version="1.1" xmlns:xlink="http://www.w3.org/1999/xlink" id="dd757f4e-b50b-11ea-be2e-a0f3c11e789f">

<g>
	<path style="fill-rule:evenodd;fill:#2d2c2b;" d="M 382.2386,792.8151 C 353.7574,837.0653 310.2318,803.6267 334.4147,754.9293 L 528.092,390.7351 602.9617,450.0463 382.2386,792.8151 Z" />
	<path style="fill-rule:evenodd;fill:#2d2c2b;" d="M 671.0059,336.7224 C 697.6994,345.5361 725.3409,337.6951 751.8151,287.0434 789.1597,215.5941 705.1872,133.4722 811.7577,30.6097 845.9096,-2.354 613.7042,45.3763 581.197,176.8259 569.7082,223.2833 578.7432,255.1501 595.3869,278.6988 L 552.6057,352.2318 627.4752,411.543 671.0059,336.722 671.0059,336.7224 Z" />
	<path style="fill-rule:evenodd;fill:#2d2c2b;" d="M 553.9389,279.65 C 553.9825,279.7148 554.0259,279.7795 554.0696,279.8442 L 553.9389,279.65 Z" />
	<path style="fill-rule:evenodd;fill:#2d2c2b;" d="M 553.9395,279.6496 C 553.6765,280.2771 553.4021,280.898 553.1166,281.5122 L 548.6384,289.3438 554.0699,279.844 554.0696,279.8442 553.1162,281.512 554.0699,279.844 553.9395,279.6496 Z" />
	<path style="fill-rule:evenodd;fill:#2d2c2b;" d="M 765.7926,327.9429 C 743.4644,354.9597 719.0747,363.2678 694.2105,361.4836 L 668.4605,406.5217 C 690.5615,415.5951 704.6877,438.6914 701.4024,463.4869 697.4912,493.0055 670.3817,513.7723 640.8631,509.8611 631.254,508.5879 622.5714,504.8563 615.3666,499.3836 L 415.3814,809.0535 415.3814,809.0535 C 468.9618,831.3834 549.5836,824.3044 605.7357,802.0306 669.7317,776.6454 729.1388,729.2922 764.8295,674.1098 817.1598,593.2004 823.5712,492.7551 793.9044,397.0729 786.6606,373.7096 777.2523,350.5607 765.7926,327.9415 L 765.7926,327.9429 Z M 635.8742,593.2436 C 666.4746,593.2438 691.2904,618.0596 691.2906,648.66 691.2904,679.2604 666.4746,704.0762 635.8742,704.0764 635.8739,704.0764 635.8735,704.0764 635.8732,704.0764 605.2726,704.0764 580.4566,679.2605 580.4563,648.66 580.4566,618.0595 605.2726,593.2436 635.8732,593.2436 635.8735,593.2436 635.8739,593.2436 635.8743,593.2436 Z" />
	<path style="fill-rule:evenodd;fill:#2d2c2b;" d="M 334.0037,52.2727 C 324.7039,52.2774 315.4776,52.6129 306.3436,53.2766 210.0188,60.2758 123.0182,104.1256 70.6511,185.092 36.3769,238.0843 10.8071,311.2165 8.4799,381.5352 7.3112,416.8532 11.9853,452.198 25.0172,484.1329 38.1325,516.2727 59.5728,544.562 91.099,565.3664 106.5073,575.5345 121.0365,582.1342 135.0122,585.5097 149.1135,588.9155 162.1801,588.9207 174.3795,586.4597 198.0739,581.6797 217.1627,567.664 232.0238,556.9098 235.8744,554.1234 239.333,551.6056 243.202,548.9355 245.1366,547.6005 246.5481,546.6488 248.5041,545.3862 250.4604,544.1235 251.6469,543.3859 253.6358,542.2245 260.407,538.2704 266.5886,535.6112 272.7272,534.3245 278.7007,533.0724 285.2116,532.9951 292.8516,534.9685 300.6422,536.9807 310.1234,541.2642 321.6831,549.4192 333.0243,557.4203 340.7748,565.4852 346.1597,573.3392 351.5209,581.1586 354.8589,589.2365 356.8834,597.6759 358.6007,604.8351 369.8508,612.2212 370.0505,620.0004 L 548.6378,289.3435 C 537.4995,305.5004 517.9096,314.9814 497.1248,312.2275 467.6061,308.3163 446.8395,281.2067 450.7506,251.6882 454.6619,222.1695 481.7714,201.4028 511.29,205.314 519.8874,206.4531 527.742,209.5603 534.461,214.1217 534.3653,203.1154 535.5086,191.1932 538.1021,178.2527 542.4374,156.6221 552.1393,136.5129 565.5481,118.0179 490.3283,74.0623 409.731,52.2345 334.0037,52.2727 Z M 324.6875,124.3312 C 359.9956,124.3318 388.629,152.9656 388.629,188.2737 388.629,188.2739 388.629,188.274 388.629,188.2742 388.629,188.2743 388.629,188.2744 388.629,188.2746 388.629,223.5827 359.9956,252.2165 324.6876,252.2171 324.6874,252.2171 324.6873,252.2171 324.6871,252.2171 289.3786,252.2171 260.7446,223.5831 260.7446,188.2746 260.7446,188.2744 260.7446,188.2743 260.7446,188.2741 260.7446,188.274 260.7446,188.2739 260.7446,188.2737 260.7446,152.9652 289.3786,124.3312 324.6871,124.3312 324.6873,124.3312 324.6874,124.3312 324.6876,124.3312 Z M 166.9618,337.4733 C 206.978,337.4735 239.4297,369.9252 239.4298,409.9413 239.4297,449.9574 206.978,482.4092 166.9618,482.4093 126.9457,482.4092 94.494,449.9574 94.4939,409.9413 94.494,369.9252 126.9457,337.4735 166.9618,337.4733 Z" />
</g>
</svg>