<?xml version="1.0" encoding="utf-8"?>
<!-- Created by sK1 2.0rc4 (https://sk1project.net/) -->
<svg xmlns="http://www.w3.org/2000/svg" height="832.677165354pt" viewBox="0 0 832.677165354 832.677165354" width="832.677165354pt" version="1.1" xmlns:xlink="http://www.w3.org/1999/xlink" id="7424e656-b45c-11ea-be2e-a0f3c11e789f">

<g>
	<g>
		<path style="fill:#2d2c2b;" d="M 8.2087,808.7825 L 332.4178,484.5734 C 324.1818,469.0307 326.5677,449.6489 339.4275,436.7777 339.4282,436.7769 339.4283,436.7769 339.4284,436.7768 355.2348,420.9704 380.8717,420.9704 396.6781,436.7768 396.6782,436.7769 396.6783,436.7769 396.6784,436.777 412.4833,452.5836 412.4828,478.2194 396.6769,494.0253 396.6768,494.0254 396.6767,494.0255 396.6766,494.0255 383.8041,506.8757 364.4299,509.2573 349.1479,501.1718 L 24.9502,824.9659 C 28.9435,827.0244 32.914,828.3194 36.9677,828.9958 49.3816,831.0171 62.5604,827.2419 72.1334,817.6689 78.3666,811.4358 82.1418,803.6738 83.4589,795.5889 83.9368,792.5549 84.0696,789.4728 83.8558,786.4104 220.6164,703.8933 371.0355,655.5957 478.8018,662.0889 L 597.619,442.8566 394.3712,239.2717 173.7913,352.2254 C 179.0149,493.2298 117.1816,616.092 47.8156,748.8048 36.0048,747.5766 23.8583,751.4554 14.882,760.4316 8.6525,766.6611 4.8782,774.4175 3.5589,782.4972 2.1354,791.3147 3.6348,800.5144 8.0577,808.5312 Z" />
		<path style="fill:#2d2c2b;" d="M 508.2798,120.2947 L 586.7917,3.1712 829.6473,247.2978 708.6372,319.8255 508.2798,120.2947 Z" />
		<path style="fill:#2d2c2b;" d="M 642.4706,419.6191 C 642.669,419.8297 642.906,420.0736 643.1472,420.3148 656.785,433.9527 678.9047,433.9527 692.5425,420.3148 706.1804,406.677 706.1804,384.5573 692.5425,370.9195 692.437,370.8139 692.3309,370.7092 692.2243,370.6052 L 464.9997,139.8175 C 464.8586,139.6703 464.6905,139.4988 464.5203,139.3287 450.8825,125.6908 428.7629,125.6908 415.125,139.3287 401.4872,152.9665 401.4872,175.0861 415.125,188.724 415.1595,188.7585 415.1941,188.7929 415.2287,188.8273 L 642.4706,419.6191 Z" />
	</g>
</g>
</svg>