<?xml version="1.0" encoding="utf-8"?>
<!-- Created by sK1 2.0rc4 (https://sk1project.net/) -->
<svg xmlns="http://www.w3.org/2000/svg" height="832.677165354pt" viewBox="0 0 832.677165354 832.677165354" width="832.677165354pt" version="1.1" xmlns:xlink="http://www.w3.org/1999/xlink" id="6c0aa756-b512-11ea-be2e-a0f3c11e789f">

<g>
	<path style="fill-rule:evenodd;fill:#2d2c2b;" d="M 774.5556,416.3421 L 831.1212,416.3421 C 831.1212,395.8117 829.0405,375.6728 825.0438,356.0781 L 769.5675,366.8635 C 772.8465,382.9401 774.5556,399.4669 774.5556,416.3421 Z M 754.7848,319.1944 L 807.1027,298.1977 C 799.2783,279.6145 789.6773,261.7928 778.4965,244.8745 L 730.9657,274.8155 C 740.3325,288.9889 748.3132,303.824 754.7848,319.1944 Z M 699.303,234.9108 L 740.9696,197.5605 C 727.3302,183.0573 712.3892,169.5187 696.3143,157.063 L 661.1497,200.3206 C 674.9617,211.0228 687.7199,222.5941 699.303,234.9108 Z M 617.8311,171.5961 L 646.1341,123.7807 C 628.8751,114.043 610.7214,105.3814 591.8087,97.8991 L 570.5648,149.082 C 587.0737,155.6133 602.8668,163.1531 617.8311,171.5961 Z M 520.4501,132.979 L 534.543,79.4949 C 515.3689,74.6791 495.6264,71.0072 475.4282,68.5681 L 468.4847,123.376 C 486.2756,125.5244 503.63,128.7545 520.4501,132.979 Z M 415.5799,120.2571 L 415.4807,65.0316 C 395.1385,65.0664 375.1251,66.3419 355.5436,68.7767 L 362.69,123.5597 C 379.9353,121.4154 397.5951,120.2879 415.5799,120.2571 Z M 310.7643,133.3483 L 296.4671,79.9159 C 276.7559,84.9433 257.6489,91.1814 239.2697,98.5337 L 260.7166,149.6359 C 276.7567,143.2192 293.4746,137.7581 310.7643,133.3483 Z M 213.5471,172.3305 L 185.0451,124.6279 C 167.3725,134.6928 150.6413,145.8933 135.0024,158.1192 L 170.3584,201.2278 C 183.7914,190.7263 198.2272,181.0555 213.5471,172.3305 Z M 132.3714,235.9784 L 90.5271,198.818 C 76.6739,213.687 64.1793,229.5631 53.2292,246.3171 L 100.9138,276.0239 C 110.0848,261.9921 120.6113,248.6007 132.3714,235.9784 Z M 77.3373,320.5147 L 24.9042,299.7939 C 17.1782,318.429 11.2425,337.807 7.2888,357.7754 L 62.8262,368.257 C 66.0703,351.8727 70.9503,335.92 77.3373,320.5147 Z M 58.1222,417.7636 L 1.5574,418.0704 C 1.6742,438.596 3.8707,458.724 7.9808,478.3016 L 63.3944,467.2127 C 60.0219,451.1485 58.2182,434.6314 58.1222,417.7636 Z M 78.4479,514.8074 L 26.2467,536.0789 C 34.1708,554.6145 43.865,572.3844 55.1326,589.2474 L 102.5086,559.0735 C 93.0654,544.9409 85.0041,530.1434 78.4479,514.8074 Z M 134.3753,598.8367 L 92.887,636.3757 C 106.5922,650.8136 121.5926,664.2849 137.721,676.6715 L 172.6938,633.2661 C 158.8318,622.6201 146.0186,611.1024 134.3753,598.8367 Z M 216.1413,661.8175 L 188.0375,709.7447 C 205.3349,719.4127 223.5217,728.0034 242.4628,735.4138 L 263.5036,684.151 C 246.9672,677.6814 231.1422,670.2019 216.1413,661.8175 Z M 313.6844,700.0693 L 299.7959,753.6044 C 318.9866,758.3499 338.7415,761.9509 358.9483,764.3187 L 365.6889,709.4867 C 347.8885,707.4009 330.5212,704.2328 313.6844,700.0693 Z M 418.6077,712.422 L 418.9053,767.6468 C 439.2475,767.5423 459.2573,766.1972 478.8315,763.693 L 471.482,708.9355 C 454.2451,711.1407 436.5905,712.3296 418.6077,712.422 Z M 523.3672,698.9613 L 537.8688,752.3411 C 557.5613,747.2418 576.6454,740.9324 594.997,733.5097 L 573.3471,682.4893 C 557.3338,688.9662 540.6384,694.4889 523.3672,698.9613 Z M 620.4189,659.6144 L 649.1197,707.2031 C 666.7516,697.0672 683.4368,685.797 699.0238,673.503 L 663.4768,630.5445 C 650.0923,641.1013 635.7001,650.8297 620.4189,659.6144 Z M 701.2964,595.634 L 743.3179,632.6032 C 757.1009,617.6701 769.5188,601.7324 780.3854,584.9197 L 732.5477,555.4483 C 723.4503,569.5238 712.9925,582.9619 701.2964,595.634 Z M 755.8807,510.8467 L 808.4277,531.2905 C 816.0496,512.617 821.8762,493.2057 825.7164,473.2096 L 770.1196,463.0323 C 766.9689,479.4379 762.1796,495.4144 755.8807,510.8467 Z" />
</g>
</svg>