<?xml version="1.0" encoding="utf-8"?>
<!-- Created by sK1 2.0rc4 (https://sk1project.net/) -->
<svg xmlns="http://www.w3.org/2000/svg" height="832.677165354pt" viewBox="0 0 832.677165354 832.677165354" width="832.677165354pt" version="1.1" xmlns:xlink="http://www.w3.org/1999/xlink" id="0ad1ea30-b512-11ea-be2e-a0f3c11e789f">

<g>
	<path style="fill-rule:evenodd;fill:#2d2c2b;" d="M 393.4956,733.8705 L 393.4956,672.6807 332.3058,672.6807 332.3058,733.8705 393.4956,733.8705 Z" />
	<path style="fill-rule:evenodd;fill:#2d2c2b;" d="M 515.8752,733.8705 L 515.8752,672.6807 454.6854,672.6807 454.6854,733.8705 515.8752,733.8705 Z" />
	<path style="fill-rule:evenodd;fill:#2d2c2b;" d="M 638.2548,733.8705 L 638.2548,672.6807 577.065,672.6807 577.065,733.8705 638.2548,733.8705 Z" />
	<path style="fill-rule:evenodd;fill:#2d2c2b;" d="M 760.6345,733.8705 L 760.6345,672.6807 699.4446,672.6807 699.4446,733.8705 760.6345,733.8705 Z" />
	<path style="fill-rule:evenodd;fill:#2d2c2b;" d="M 684.332,98.8067 L 684.332,159.9965 745.5218,159.9965 745.5218,98.8067 684.332,98.8067 Z" />
	<path style="fill-rule:evenodd;fill:#2d2c2b;" d="M 561.9524,98.8067 L 561.9524,159.9965 623.1422,159.9965 623.1422,98.8067 561.9524,98.8067 Z" />
	<path style="fill-rule:evenodd;fill:#2d2c2b;" d="M 439.5728,98.8067 L 439.5728,159.9965 500.7626,159.9965 500.7626,98.8067 439.5728,98.8067 Z" />
	<path style="fill-rule:evenodd;fill:#2d2c2b;" d="M 317.1932,98.8067 L 317.1932,159.9965 378.383,159.9965 378.383,98.8067 317.1932,98.8067 Z" />
	<path style="fill-rule:evenodd;fill:#2d2c2b;" d="M 148.7364,733.8705 L 148.7364,672.6807 87.5466,672.6807 87.5466,733.8705 148.7364,733.8705 Z" />
	<path style="fill-rule:evenodd;fill:#2d2c2b;" d="M 271.116,733.8705 L 271.116,672.6807 209.9262,672.6807 209.9262,733.8705 271.116,733.8705 Z" />
	<path style="fill-rule:evenodd;fill:#2d2c2b;" d="M 194.8136,98.8067 L 194.8136,159.9965 256.0034,159.9965 256.0034,98.8067 194.8136,98.8067 Z" />
	<path style="fill-rule:evenodd;fill:#2d2c2b;" d="M 72.434,98.8067 L 72.434,159.9965 133.6238,159.9965 133.6238,98.8067 72.434,98.8067 Z" />
	<g>
		<path style="fill-rule:evenodd;fill:#2d2c2b;" d="M -0.0001,263.3644 L 61.1897,263.3644 61.1897,202.1746 -0.0001,202.1746 -0.0001,263.3644 Z" />
		<path style="fill-rule:evenodd;fill:#2d2c2b;" d="M -0.0001,385.7441 L 61.1897,385.7441 61.1897,324.5543 -0.0001,324.5543 -0.0001,385.7441 Z" />
		<path style="fill-rule:evenodd;fill:#2d2c2b;" d="M -0.0001,508.1237 L 61.1897,508.1237 61.1897,446.9339 -0.0001,446.9339 -0.0001,508.1237 Z" />
		<path style="fill-rule:evenodd;fill:#2d2c2b;" d="M -0.0001,630.5033 L 61.1897,630.5033 61.1897,569.3135 -0.0001,569.3135 -0.0001,630.5033 Z" />
	</g>
	<g>
		<path style="fill-rule:evenodd;fill:#2d2c2b;" d="M 771.4895,263.3644 L 832.6793,263.3644 832.6793,202.1746 771.4895,202.1746 771.4895,263.3644 Z" />
		<path style="fill-rule:evenodd;fill:#2d2c2b;" d="M 771.4895,385.7441 L 832.6793,385.7441 832.6793,324.5543 771.4895,324.5543 771.4895,385.7441 Z" />
		<path style="fill-rule:evenodd;fill:#2d2c2b;" d="M 771.4895,508.1237 L 832.6793,508.1237 832.6793,446.9339 771.4895,446.9339 771.4895,508.1237 Z" />
		<path style="fill-rule:evenodd;fill:#2d2c2b;" d="M 771.4895,630.5033 L 832.6793,630.5033 832.6793,569.3135 771.4895,569.3135 771.4895,630.5033 Z" />
	</g>
</g>
</svg>