<?xml version="1.0" encoding="utf-8"?>
<!-- Created by sK1 2.0rc4 (https://sk1project.net/) -->
<svg xmlns="http://www.w3.org/2000/svg" height="832.677165354pt" viewBox="0 0 832.677165354 832.677165354" width="832.677165354pt" version="1.1" xmlns:xlink="http://www.w3.org/1999/xlink" id="0329c508-b514-11ea-be2e-a0f3c11e789f">

<g>
	<path style="stroke-width:0.2835;stroke:#2d2c2b;fill-rule:evenodd;stroke-miterlimit:10.433;fill:#2d2c2b;" d="M 63.6401,832.678 C 30.5778,832.678 3.7654,805.9263 3.7654,772.9388 L 3.7654,683.33 C 3.7654,650.3426 30.5778,623.5908 63.6401,623.5908 L 769.0383,623.5908 C 802.1006,623.5908 828.913,650.3426 828.913,683.33 L 828.913,772.9388 C 828.913,805.9263 802.1006,832.678 769.0383,832.678 L 63.6401,832.678 Z" />
	<path style="fill-rule:evenodd;fill:#2d2c2b;" d="M 193.4485,632.4815 C 164.0686,632.4815 140.2424,608.6553 140.2424,579.2754 L 140.2424,579.2754 C 140.2424,549.8955 164.0686,526.0694 193.4485,526.0694 L 639.229,526.0694 C 668.6089,526.0694 692.435,549.8955 692.435,579.2754 L 692.435,579.2754 C 692.435,608.6553 668.6089,632.4815 639.229,632.4815 L 193.4485,632.4815 Z" />
	<path style="fill-rule:evenodd;fill:#2d2c2b;" d="M 593.6901,178.8357 C 593.6901,80.904 514.2708,1.4847 416.3391,1.4847 318.4074,1.4847 238.9881,80.904 238.9881,178.8357 238.9881,249.2241 316.1978,327.4858 339.4574,338.6952 343.2734,340.5342 343.0732,348.6725 340.8386,360.8947 329.4527,423.1697 287.1714,557.8067 300.2394,585.8094 313.3073,613.8122 529.4844,602.7692 539.1961,574.6083 548.9079,546.4475 495.1851,337.7477 497.0712,336.7815 501.2334,334.6493 593.6901,247.6939 593.6901,178.8357 Z" />
	<path style="fill-rule:evenodd;fill:#2d2c2b;" d="M 603.0236,186.6831 C 603.0236,83.5973 519.4245,-0.0018 416.3386,-0.0018 313.2528,-0.0018 229.6537,83.5973 229.6537,186.6831 229.6537,289.7689 313.2528,373.3681 416.3386,373.3681 519.4245,373.3681 603.0236,289.7689 603.0236,186.6831 Z" />
</g>
</svg>