<?xml version="1.0" encoding="utf-8"?>
<!-- Created by sK1 2.0rc4 (https://sk1project.net/) -->
<svg xmlns="http://www.w3.org/2000/svg" height="832.677165354pt" viewBox="0 0 832.677165354 832.677165354" width="832.677165354pt" version="1.1" xmlns:xlink="http://www.w3.org/1999/xlink" id="2ddce306-b12d-11ea-bb2a-a0f3c11e789f">

<g>
	<g>
		<path style="fill-rule:evenodd;fill:#2d2c2b;" d="M 307.2005,726.0339 C 307.1979,726.3137 307.1965,726.5937 307.1963,726.874 307.1458,784.5514 355.9789,831.3435 416.2453,831.3653 476.5117,831.3871 525.4267,784.6303 525.4772,726.9529 525.4775,726.6726 525.4766,726.3925 525.4745,726.1127 L 307.2006,726.0339 307.2005,726.0339 Z" />
		<path style="fill-rule:evenodd;fill:#2d2c2b;" d="M 621.49,234.5221 C 621.5099,234.405 621.5216,234.3288 621.5238,234.3001 628.4103,144.6889 544.1789,67.894 431.5255,61.7555 318.8722,55.617 221.9293,123.3105 215.0428,212.9217 215.0336,213.0415 215.0302,213.6538 215.0296,214.4874 L 214.2577,214.4712 213.2121,412.4411 C 206.4569,495.8238 206.3276,566.2431 -0.7013,653.0715 -0.4555,664.85 0.2796,666.7164 9.5011,671.6162 279.0183,671.967 548.5354,672.3177 818.0526,672.6685 833.1975,668.9879 833.2055,664.6352 833.377,654.157 626.6577,572.3496 626.7971,496.3709 622.5521,411.1301 L 621.4846,237.3527" />
		<path style="fill-rule:evenodd;fill:#2d2c2b;" d="M 479.8485,78.3975 C 479.85,78.1928 479.8508,77.9878 479.8509,77.7827 479.8803,35.5711 451.4612,1.326 416.3882,1.31 381.3153,1.2941 352.8485,35.5134 352.8191,77.725 352.8189,77.9301 352.8195,78.135 352.8207,78.3398 L 479.8484,78.3975 479.8485,78.3975 Z" />
	</g>
</g>
</svg>