<?xml version="1.0" encoding="utf-8"?>
<!-- Created by sK1 2.0rc4 (https://sk1project.net/) -->
<svg xmlns="http://www.w3.org/2000/svg" height="832.677165354pt" viewBox="0 0 832.677165354 832.677165354" width="832.677165354pt" version="1.1" xmlns:xlink="http://www.w3.org/1999/xlink" id="034d8384-b12d-11ea-bb2a-a0f3c11e789f">

<g>
	<g>
		<path style="fill-rule:evenodd;fill:#2d2c2b;" d="M 321.3408,688.4819 C 321.3386,688.7278 321.3374,688.9739 321.3372,689.2202 321.2928,739.9039 364.2046,781.0223 417.1635,781.0414 470.1223,781.0606 513.1062,739.9732 513.1506,689.2895 513.1508,689.0432 513.15,688.7971 513.1482,688.5512 L 321.341,688.482 321.3408,688.4819 Z" />
		<path style="fill-rule:evenodd;fill:#2d2c2b;" d="M 569.0475,256.5681 C 569.0622,256.4652 569.0708,256.3983 569.0725,256.373 574.1682,177.6276 511.8409,110.1444 428.4828,104.7502 345.1247,99.356 273.3916,158.8414 268.2959,237.5868 268.2891,237.6921 268.2866,238.2301 268.2861,238.9627 L 267.7149,238.9485 266.9413,412.9137 C 261.9427,486.1859 261.8471,548.0665 108.6556,624.3665 108.8375,634.7168 109.3814,636.3569 116.2049,640.6626 315.6347,640.9709 515.0646,641.2791 714.4944,641.5873 725.7009,638.353 725.7068,634.5281 725.8338,625.3204 572.8713,553.4326 572.9745,486.6666 569.8334,411.7616 L 569.0435,259.0555" />
		<path style="fill-rule:evenodd;fill:#2d2c2b;" d="M 683.786,517.0565 C 843.9087,471.0769 844.514,245.7473 686.6622,196.0672 769.3829,203.1474 833.7502,273.3811 832.4474,358.6349 831.1553,443.1908 765.7339,511.564 683.786,517.0565 Z" />
		<path style="fill-rule:evenodd;fill:#2d2c2b;" d="M 618.1327,467.7346 C 731.9704,435.0458 732.4008,274.8499 620.1775,239.5302 678.987,244.5639 724.7484,294.4958 723.8222,355.1062 722.9035,415.2205 676.3928,463.8297 618.1327,467.7346 Z" />
		<path style="fill-rule:evenodd;fill:#2d2c2b;" d="M 148.8893,196.0659 C -11.2334,242.0456 -11.8388,467.3751 146.0131,517.0553 63.2924,509.9751 -1.075,439.7414 0.2278,354.4876 1.5199,269.9317 66.9414,201.5585 148.8893,196.0659 Z" />
		<path style="fill-rule:evenodd;fill:#2d2c2b;" d="M 214.5425,245.3879 C 100.7048,278.0767 100.2745,438.2726 212.4977,473.5922 153.6882,468.5586 107.9269,418.6266 108.8531,358.0163 109.7717,297.902 156.2824,249.2927 214.5425,245.3879 Z" />
		<path style="fill-rule:evenodd;fill:#2d2c2b;" d="M 473.0545,119.3743 C 473.0558,119.1944 473.0565,119.0143 473.0566,118.834 473.0825,81.7408 448.1093,51.648 417.2891,51.634 386.4689,51.62 361.4538,81.6901 361.428,118.7833 361.4279,118.9636 361.4283,119.1437 361.4294,119.3236 L 473.0544,119.3743 473.0545,119.3743 Z" />
	</g>
</g>
</svg>