<?xml version="1.0" encoding="utf-8"?>
<!-- Created by sK1 2.0rc4 (https://sk1project.net/) -->
<svg xmlns="http://www.w3.org/2000/svg" height="832.677165354pt" viewBox="0 0 832.677165354 832.677165354" width="832.677165354pt" version="1.1" xmlns:xlink="http://www.w3.org/1999/xlink" id="c2cbbfa0-b123-11ea-bb2a-a0f3c11e789f">

<g>
	<path style="fill-rule:evenodd;fill:#2d2c2b;" d="M 446.5247,743.2397 L 446.5247,743.2397 Z M 388.2086,813.2157 C 391.5979,819.6338 397.4308,824.7555 404.9077,827.0662 412.3845,829.3768 420.09,828.4388 426.5094,825.0519 L 484.1134,794.646 C 490.529,791.2596 495.6527,785.4257 497.9638,777.947 500.275,770.4683 499.3361,762.7609 495.9496,756.3453 L 414.6123,602.2518 C 411.223,595.8337 405.3902,590.7119 397.9133,588.4013 390.4365,586.0907 382.7309,587.0287 376.3116,590.4155 L 318.7076,620.8215 C 312.292,624.2079 307.1683,630.0418 304.8571,637.5205 302.5459,644.9991 303.4849,652.7066 306.8713,659.1222 L 388.2086,813.2157 Z" />
	<path style="fill-rule:evenodd;fill:#2d2c2b;" d="M 77.9338,340.9461 C 77.5938,341.122 77.2543,341.2994 76.9151,341.4784 7.1301,378.314 -17.8409,468.0948 21.1524,541.9677 60.1458,615.8405 148.3613,645.8765 218.1463,609.0409 218.4855,608.8619 218.8235,608.6816 219.1606,608.5001 L 77.9339,340.9463 77.9338,340.9461 Z" />
	<path style="fill-rule:evenodd;fill:#2d2c2b;" d="M 265.6467,584.9257 L 124.2564,317.0618 266.8312,241.8046 C 331.5495,203.9606 390.5948,172.794 382.5051,3.9747 390.7008,-0.2239 394.0834,-2.0094 402.1879,6.3789 495.2827,182.747 588.3776,359.1151 681.4724,535.4832 680.8623,543.5286 679.6677,544.777 670.6069,549.7834 531.4655,450.139 476.7406,479.0252 409.6544,508.9121 L 265.6467,584.9257 Z" />
	<path style="fill-rule:evenodd;fill:#2d2c2b;" d="M 494.2617,400.685 C 494.6011,400.5081 494.9404,400.3301 495.2796,400.1511 565.0646,363.3155 601.6096,295.4617 576.8882,248.627 552.1668,201.7923 475.5252,193.6833 405.7402,230.5189 405.4011,230.6979 405.0627,230.8776 404.7252,231.0581 L 494.2617,400.6848 494.2617,400.685 Z" />
	<path style="fill-rule:evenodd;fill:#2d2c2b;" d="M 741.0486,364.0466 C 888.436,219.4462 756.8142,-23.4413 555.7422,16.8492 649.9848,-24.6655 761.3146,12.6952 809.9445,105.2298 858.1764,197.0071 827.0687,309.4586 741.0486,364.0466 Z" />
	<path style="fill-rule:evenodd;fill:#2d2c2b;" d="M 640.5948,349.9576 C 745.3785,247.1552 651.8032,74.4767 508.853,103.1208 575.8539,73.6063 655.0027,100.1676 689.5757,165.9542 723.8657,231.2024 701.75,311.1487 640.5948,349.9576 Z" />
</g>
</svg>