<?xml version="1.0" encoding="utf-8"?>
<!-- Created by sK1 2.0rc4 (https://sk1project.net/) -->
<svg xmlns="http://www.w3.org/2000/svg" height="832.677165354pt" viewBox="0 0 832.677165354 832.677165354" width="832.677165354pt" version="1.1" xmlns:xlink="http://www.w3.org/1999/xlink" id="4b1659dc-b3f5-11ea-be2e-a0f3c11e789f">

<g>
	<g>
		<path style="fill-rule:evenodd;fill:#2d2c2b;" d="M 317.7592,94.3284 L 317.7592,406.7092 458.8582,406.7092 C 511.0761,406.7092 551.4429,393.1919 579.9591,366.1571 608.4752,339.0297 622.7332,300.3294 622.7332,250.0559 622.7332,200.4305 608.4752,162.1004 579.9591,135.0657 551.4429,107.9384 511.0761,94.3284 458.8582,94.3284 L 317.7592,94.3284 Z M 205.5465,1.5585 L 458.8582,1.5585 C 551.8133,1.5585 622.0389,22.6679 669.581,64.8865 717.2159,107.0125 741.0565,168.7665 741.0565,250.2411 741.0565,332.3637 717.2159,394.3954 669.581,436.3363 622.0389,478.3235 551.8133,499.2939 458.8582,499.2939 L 317.7592,499.2939 317.7592,831.1174 205.5465,831.1174 205.5465,1.5585 Z" />
		<path style="fill-rule:evenodd;fill:#2d2c2b;" d="M 91.619,499.0611 L 91.619,406.7052 454.6269,406.7052 454.6269,499.0611 91.619,499.0611 Z" />
		<path style="fill-rule:evenodd;fill:#2d2c2b;" d="M 91.6239,683.5658 L 91.6239,591.2099 454.6318,591.2099 454.6318,683.5658 91.6239,683.5658 Z" />
	</g>
</g>
</svg>