<?xml version="1.0" encoding="UTF-8"?>
<!DOCTYPE svg PUBLIC "-//W3C//DTD SVG 1.1//EN" "http://www.w3.org/Graphics/SVG/1.1/DTD/svg11.dtd">
<svg version="1.2" width="293.75mm" height="293.75mm" viewBox="0 0 29375 29375" preserveAspectRatio="xMidYMid" fill-rule="evenodd" stroke-width="28.222" stroke-linejoin="round" xmlns="http://www.w3.org/2000/svg" xmlns:ooo="http://xml.openoffice.org/svg/export" xmlns:xlink="http://www.w3.org/1999/xlink" xmlns:presentation="http://sun.com/xmlns/staroffice/presentation" xmlns:smil="http://www.w3.org/2001/SMIL20/" xmlns:anim="urn:oasis:names:tc:opendocument:xmlns:animation:1.0" xml:space="preserve">
 <defs class="ClipPathGroup">
  <clipPath id="presentation_clip_path" clipPathUnits="userSpaceOnUse">
   <rect x="0" y="0" width="29375" height="29375"/>
  </clipPath>
  <clipPath id="presentation_clip_path_shrink" clipPathUnits="userSpaceOnUse">
   <rect x="29" y="29" width="29317" height="29317"/>
  </clipPath>
 </defs>
 <defs class="TextShapeIndex">
  <g ooo:slide="id1" ooo:id-list="id3"/>
 </defs>
 <defs class="EmbeddedBulletChars">
  <g id="bullet-char-template-57356" transform="scale(0.00048828125,-0.00048828125)">
   <path d="M 580,1141 L 1163,571 580,0 -4,571 580,1141 Z"/>
  </g>
  <g id="bullet-char-template-57354" transform="scale(0.00048828125,-0.00048828125)">
   <path d="M 8,1128 L 1137,1128 1137,0 8,0 8,1128 Z"/>
  </g>
  <g id="bullet-char-template-10146" transform="scale(0.00048828125,-0.00048828125)">
   <path d="M 174,0 L 602,739 174,1481 1456,739 174,0 Z M 1358,739 L 309,1346 659,739 1358,739 Z"/>
  </g>
  <g id="bullet-char-template-10132" transform="scale(0.00048828125,-0.00048828125)">
   <path d="M 2015,739 L 1276,0 717,0 1260,543 174,543 174,936 1260,936 717,1481 1274,1481 2015,739 Z"/>
  </g>
  <g id="bullet-char-template-10007" transform="scale(0.00048828125,-0.00048828125)">
   <path d="M 0,-2 C -7,14 -16,27 -25,37 L 356,567 C 262,823 215,952 215,954 215,979 228,992 255,992 264,992 276,990 289,987 310,991 331,999 354,1012 L 381,999 492,748 772,1049 836,1024 860,1049 C 881,1039 901,1025 922,1006 886,937 835,863 770,784 769,783 710,716 594,584 L 774,223 C 774,196 753,168 711,139 L 727,119 C 717,90 699,76 672,76 641,76 570,178 457,381 L 164,-76 C 142,-110 111,-127 72,-127 30,-127 9,-110 8,-76 1,-67 -2,-52 -2,-32 -2,-23 -1,-13 0,-2 Z"/>
  </g>
  <g id="bullet-char-template-10004" transform="scale(0.00048828125,-0.00048828125)">
   <path d="M 285,-33 C 182,-33 111,30 74,156 52,228 41,333 41,471 41,549 55,616 82,672 116,743 169,778 240,778 293,778 328,747 346,684 L 369,508 C 377,444 397,411 428,410 L 1163,1116 C 1174,1127 1196,1133 1229,1133 1271,1133 1292,1118 1292,1087 L 1292,965 C 1292,929 1282,901 1262,881 L 442,47 C 390,-6 338,-33 285,-33 Z"/>
  </g>
  <g id="bullet-char-template-9679" transform="scale(0.00048828125,-0.00048828125)">
   <path d="M 813,0 C 632,0 489,54 383,161 276,268 223,411 223,592 223,773 276,916 383,1023 489,1130 632,1184 813,1184 992,1184 1136,1130 1245,1023 1353,916 1407,772 1407,592 1407,412 1353,268 1245,161 1136,54 992,0 813,0 Z"/>
  </g>
  <g id="bullet-char-template-8226" transform="scale(0.00048828125,-0.00048828125)">
   <path d="M 346,457 C 273,457 209,483 155,535 101,586 74,649 74,723 74,796 101,859 155,911 209,963 273,989 346,989 419,989 480,963 531,910 582,859 608,796 608,723 608,648 583,586 532,535 482,483 420,457 346,457 Z"/>
  </g>
  <g id="bullet-char-template-8211" transform="scale(0.00048828125,-0.00048828125)">
   <path d="M -4,459 L 1135,459 1135,606 -4,606 -4,459 Z"/>
  </g>
  <g id="bullet-char-template-61548" transform="scale(0.00048828125,-0.00048828125)">
   <path d="M 173,740 C 173,903 231,1043 346,1159 462,1274 601,1332 765,1332 928,1332 1067,1274 1183,1159 1299,1043 1357,903 1357,740 1357,577 1299,437 1183,322 1067,206 928,148 765,148 601,148 462,206 346,322 231,437 173,577 173,740 Z"/>
  </g>
 </defs>
 <defs class="TextEmbeddedBitmaps"/>
 <g>
  <g id="id2" class="Master_Slide">
   <g id="bg-id2" class="Background"/>
   <g id="bo-id2" class="BackgroundObjects"/>
  </g>
 </g>
 <g class="SlideGroup">
  <g>
   <g id="container-id1">
    <g id="id1" class="Slide" clip-path="url(#presentation_clip_path)">
     <g class="Page">
      <g class="Graphic">
       <g id="id3">
        <rect class="BoundingBox" stroke="none" fill="none" x="-63" y="-63" width="29501" height="29501"/>
        <path fill="rgb(0,0,0)" stroke="none" d="M 14687,7311 C 10475,7311 7258,10528 7258,14740 7258,18952 10475,22169 14687,22169 18899,22169 22116,18952 22116,14740 22116,10528 18899,7311 14687,7311 L 14687,7311 Z M 14686,9051 C 14686,13453 14686,16488 14686,20428 11461,20428 8998,17964 8998,14739 8998,11514 11461,9051 14686,9051 L 14686,9051 Z"/>
        <path fill="rgb(0,0,0)" stroke="none" d="M 14095,231 C 13906,340 13770,477 13661,667 13552,857 13502,1044 13502,1264 13502,1269 13502,1274 13502,1280 L 13502,4015 C 13502,4022 13502,4027 13502,4034 13502,4253 13552,4440 13661,4630 13770,4820 13906,4957 14094,5067 14283,5176 14469,5226 14687,5226 14905,5226 15091,5176 15280,5067 15468,4957 15604,4820 15713,4630 15822,4440 15872,4253 15872,4034 15872,4027 15872,4022 15872,4015 L 15872,1280 C 15872,1274 15872,1269 15872,1264 15872,1044 15822,857 15713,667 15604,477 15468,340 15279,231 15091,121 14905,71 14687,71 14681,71 14675,71 14669,71 14457,74 14278,124 14095,231 Z"/>
        <path fill="rgb(0,0,0)" stroke="none" d="M 21398,1869 C 21180,1869 20994,1919 20805,2029 20617,2139 20481,2276 20372,2466 20369,2470 20367,2473 20365,2477 L 18998,4845 C 18995,4851 18992,4856 18988,4862 18879,5052 18830,5239 18830,5458 18830,5678 18879,5864 18988,6054 19097,6245 19233,6381 19422,6491 19611,6601 19796,6651 20015,6651 20233,6651 20418,6601 20607,6491 20796,6381 20932,6245 21041,6054 21043,6051 21045,6048 21047,6044 L 22414,3676 C 22418,3670 22421,3665 22424,3658 22533,3468 22583,3282 22583,3062 22583,2842 22533,2656 22424,2466 22315,2276 22179,2139 21990,2029 21806,1922 21625,1872 21412,1869 21407,1869 21403,1869 21398,1869 Z"/>
        <path fill="rgb(0,0,0)" stroke="none" d="M 26352,6783 C 26338,6782 26326,6782 26311,6782 26093,6782 25908,6832 25719,6942 25715,6944 25711,6946 25707,6949 L 23339,8316 C 23332,8320 23326,8323 23320,8327 23131,8437 22995,8573 22886,8764 22777,8954 22727,9140 22727,9360 22727,9579 22777,9766 22886,9956 22995,10146 23131,10283 23320,10393 23508,10503 23694,10553 23912,10553 24130,10553 24316,10503 24505,10393 24509,10390 24513,10388 24518,10385 L 26886,9018 C 26892,9014 26897,9011 26904,9008 27092,8898 27228,8761 27337,8571 27446,8381 27496,8194 27496,7975 27496,7755 27446,7569 27337,7378 27228,7188 27092,7052 26904,6942 26727,6839 26556,6790 26352,6783 Z"/>
        <path fill="rgb(0,0,0)" stroke="none" d="M 25358,13493 L 25358,13493 C 25352,13493 25346,13493 25339,13493 25121,13493 24936,13543 24747,13653 24558,13763 24422,13900 24313,14090 24204,14280 24154,14466 24154,14686 24154,14906 24204,15092 24313,15282 24422,15472 24558,15609 24747,15719 24936,15829 25121,15879 25339,15879 25346,15879 25352,15879 25358,15878 L 28093,15878 28093,15878 C 28099,15879 28105,15879 28111,15879 28329,15879 28515,15829 28704,15719 28893,15609 29028,15472 29138,15282 29247,15092 29296,14906 29296,14686 29296,14466 29247,14280 29138,14090 29028,13900 28893,13763 28704,13653 28515,13543 28329,13493 28111,13493 28105,13493 28099,13493 28093,13493 L 25358,13493 Z"/>
        <path fill="rgb(0,0,0)" stroke="none" d="M 23955,18821 C 23941,18821 23928,18820 23914,18820 23696,18820 23510,18870 23321,18980 23132,19090 22997,19227 22888,19417 22779,19607 22729,19794 22729,20013 22729,20233 22779,20419 22888,20609 22997,20800 23132,20936 23321,21046 23327,21050 23333,21052 23339,21056 L 25707,22423 C 25712,22426 25716,22428 25720,22431 25909,22541 26095,22591 26313,22591 26531,22591 26717,22541 26905,22431 27094,22321 27230,22185 27339,21995 27448,21804 27498,21618 27498,21398 27498,21179 27448,20992 27339,20802 27230,20612 27094,20475 26905,20365 26899,20361 26893,20358 26886,20354 L 24518,18987 C 24514,18985 24510,18983 24506,18980 24330,18878 24159,18828 23955,18821 Z"/>
        <path fill="rgb(0,0,0)" stroke="none" d="M 19965,22721 C 19764,22730 19596,22779 19422,22880 19233,22990 19097,23126 18988,23317 18879,23507 18829,23693 18829,23913 18829,24132 18879,24319 18988,24509 18991,24515 18994,24521 18998,24527 L 20365,26895 C 20367,26898 20369,26902 20371,26905 20480,27095 20616,27232 20805,27342 20994,27452 21179,27502 21397,27502 21616,27502 21801,27452 21990,27342 22179,27232 22315,27095 22424,26905 22533,26715 22582,26528 22582,26309 22582,26089 22533,25903 22424,25713 22420,25707 22417,25702 22414,25696 L 21047,23328 C 21045,23324 21043,23321 21040,23317 20931,23126 20795,22990 20607,22880 20418,22770 20232,22720 20014,22720 19997,22720 19982,22721 19965,22721 Z"/>
        <path fill="rgb(0,0,0)" stroke="none" d="M 14095,24307 C 13906,24417 13770,24554 13661,24744 13552,24934 13502,25121 13502,25340 13502,25346 13502,25351 13502,25357 L 13502,28092 C 13502,28098 13502,28104 13502,28110 13502,28330 13552,28517 13661,28707 13770,28897 13906,29034 14094,29143 14283,29253 14469,29303 14687,29303 14905,29303 15091,29253 15280,29143 15468,29034 15604,28897 15713,28707 15822,28517 15872,28330 15872,28110 15872,28104 15872,28098 15872,28092 L 15872,25357 C 15872,25351 15872,25346 15872,25340 15872,25121 15822,24934 15713,24744 15604,24554 15468,24417 15279,24307 15091,24198 14905,24148 14687,24148 14681,24148 14675,24148 14669,24148 14457,24151 14278,24201 14095,24307 Z"/>
        <path fill="rgb(0,0,0)" stroke="none" d="M 9360,22720 C 9142,22720 8956,22770 8767,22880 8579,22990 8443,23126 8334,23317 8331,23321 8329,23324 8327,23328 L 6960,25696 C 6959,25697 6959,25698 6958,25699 6849,25889 6799,26076 6799,26296 6799,26515 6849,26702 6958,26892 7067,27082 7203,27219 7392,27328 7581,27438 7766,27488 7984,27488 8202,27488 8388,27438 8577,27328 8765,27219 8900,27084 9009,26895 L 10376,24527 C 10380,24521 10383,24515 10386,24509 10495,24319 10545,24132 10545,23913 10545,23693 10495,23507 10386,23317 10277,23126 10141,22990 9952,22880 9768,22773 9587,22723 9373,22720 9369,22720 9365,22720 9360,22720 Z"/>
        <path fill="rgb(0,0,0)" stroke="none" d="M 5460,18820 C 5242,18820 5057,18870 4868,18980 4864,18983 4860,18985 4856,18987 L 2488,20354 C 2481,20358 2475,20361 2469,20365 2280,20475 2144,20612 2035,20802 1926,20992 1876,21179 1876,21398 1876,21618 1926,21804 2035,21995 2144,22185 2280,22321 2469,22431 2657,22541 2843,22591 3061,22591 3279,22591 3465,22541 3654,22431 3658,22428 3662,22426 3667,22423 L 6035,21056 C 6041,21052 6047,21050 6053,21046 6242,20936 6377,20800 6486,20609 6595,20419 6645,20233 6645,20013 6645,19794 6595,19607 6486,19417 6377,19227 6242,19090 6053,18980 5876,18878 5705,18828 5502,18821 5487,18821 5475,18820 5460,18820 Z"/>
        <path fill="rgb(0,0,0)" stroke="none" d="M 1281,13493 C 1275,13493 1269,13493 1263,13493 1045,13493 859,13543 670,13653 481,13763 346,13900 236,14090 127,14280 78,14466 78,14686 78,14906 127,15092 236,15282 346,15472 481,15609 670,15719 859,15829 1045,15879 1263,15879 1269,15879 1275,15879 1281,15878 L 4016,15878 C 4022,15879 4028,15879 4035,15879 4253,15879 4438,15829 4627,15719 4816,15609 4952,15472 5061,15282 5170,15092 5220,14906 5220,14686 5220,14466 5170,14280 5061,14090 4952,13900 4816,13763 4627,13653 4438,13543 4253,13493 4035,13493 4028,13493 4022,13493 4016,13493 L 1281,13493 Z"/>
        <path fill="rgb(0,0,0)" stroke="none" d="M 3063,6782 C 2845,6782 2659,6832 2470,6942 2282,7052 2146,7188 2037,7378 1928,7569 1878,7755 1878,7975 1878,8194 1928,8381 2037,8571 2146,8761 2282,8898 2470,9008 2477,9011 2482,9014 2488,9018 L 4856,10385 C 4861,10388 4865,10390 4869,10393 5058,10503 5244,10553 5462,10553 5680,10553 5866,10503 6054,10393 6243,10283 6379,10146 6488,9956 6597,9766 6647,9579 6647,9360 6647,9140 6597,8954 6488,8764 6379,8573 6243,8437 6054,8327 6048,8323 6042,8320 6035,8316 L 3667,6949 C 3663,6946 3659,6944 3655,6942 3479,6840 3308,6790 3105,6783 3090,6782 3078,6782 3063,6782 Z"/>
        <path fill="rgb(0,0,0)" stroke="none" d="M 7383,2029 C 7194,2139 7059,2276 6949,2466 6840,2656 6791,2842 6791,3062 6791,3282 6840,3468 6949,3658 6953,3665 6956,3670 6960,3676 L 8327,6044 C 8329,6048 8331,6051 8333,6054 8442,6245 8578,6381 8767,6491 8956,6601 9141,6651 9359,6651 9578,6651 9763,6601 9952,6491 10141,6381 10277,6245 10386,6054 10495,5864 10544,5678 10544,5458 10544,5239 10495,5052 10386,4862 10382,4856 10379,4851 10376,4845 L 9009,2477 C 9007,2473 9005,2470 9002,2466 8893,2276 8757,2139 8569,2029 8380,1919 8194,1869 7976,1869 7959,1869 7944,1870 7927,1870 7726,1879 7557,1928 7383,2029 Z"/>
       </g>
      </g>
     </g>
    </g>
   </g>
  </g>
 </g>
</svg>