<?xml version="1.0" encoding="utf-8"?>
<!-- Created by sK1 2.0rc4 (https://sk1project.net/) -->
<svg xmlns="http://www.w3.org/2000/svg" height="832.677165354pt" viewBox="0 0 832.677165354 832.677165354" width="832.677165354pt" version="1.1" xmlns:xlink="http://www.w3.org/1999/xlink" id="11fd2614-b0f6-11ea-bb2a-a0f3c11e789f">

<g>
	<path style="fill:none;" d="M -0.0005,0.0001 L -0.0005,832.6772 832.6767,832.6772 832.6767,0.0001 -0.0005,0.0001 Z" />
	<path style="fill:none;" d="M -0.369,-0.3684 L -0.369,833.0457 833.0452,833.0457 833.0452,-0.3684 -0.369,-0.3684 Z" />
	<path style="fill:none;" d="M -0.369,-0.3684 L 833.0169,-0.3684 833.0169,833.0174 -0.369,833.0174 -0.369,-0.3684 Z" />
	<path style="fill-rule:evenodd;fill:#2d2c2b;" d="M 165.6562,-0.5669 C 157.8043,-0.5669 151.4547,5.7827 151.4547,13.6347 L 1.02,474.3213 0.9917,474.3213 0.9917,474.4631 0.283,476.589 0.9917,476.589 0.9917,834.378 833.4137,834.378 833.4137,474.6898 834.4909,474.6898 680.2295,13.6347 C 680.2295,5.7827 673.8799,-0.5669 666.0562,-0.5669 L 165.6562,-0.5669 165.6562,-0.5669 Z M 179.8295,27.8079 L 651.8547,27.8079 801.6373,474.4631 634.4499,475.1717 515.3381,593.4331 316.3743,593.4331 198.5948,477.0426 33.6751,474.7749 179.8295,27.8079 179.8295,27.8079 Z" />
	<path style="fill-rule:evenodd;fill:#2d2c2b;" d="M 132.199,414.1445 L 132.199,388.5079 700.4772,388.5079 700.4772,414.1445 132.199,414.1445 Z" />
	<path style="fill-rule:evenodd;fill:#2d2c2b;" d="M 166.3819,313.0778 L 166.3819,287.4411 666.2962,287.4411 666.2962,313.0778 166.3819,313.0778 Z" />
	<path style="fill-rule:evenodd;fill:#2d2c2b;" d="M 200.564,212.011 L 200.564,186.3744 632.1143,186.3744 632.1143,212.011 200.564,212.011 Z" />
	<path style="fill-rule:evenodd;fill:#2d2c2b;" d="M 233.3222,112.3686 L 233.3222,86.7319 599.3571,86.7319 599.3571,112.3686 233.3222,112.3686 Z" />
</g>
</svg>