<?xml version="1.0" encoding="utf-8"?>
<!-- Created by sK1 2.0rc4 (https://sk1project.net/) -->
<svg xmlns="http://www.w3.org/2000/svg" height="832.677165354pt" viewBox="0 0 832.677165354 832.677165354" width="832.677165354pt" version="1.1" xmlns:xlink="http://www.w3.org/1999/xlink" id="77224f9c-b515-11ea-be2e-a0f3c11e789f">

<g>
	<path style="fill-rule:evenodd;fill:#2d2c2b;" d="M 164.9326,-1.1352 C 157.0807,-1.1352 150.7311,5.2144 150.7311,13.0664 L 0.2964,473.753 0.2681,473.753 0.2681,473.8948 -0.4406,476.0207 0.2681,476.0207 0.2681,833.8097 832.6901,833.8097 832.6901,474.1215 833.7673,474.1215 679.5059,13.0664 C 679.5059,5.2144 673.1563,-1.1352 665.3326,-1.1352 L 164.9326,-1.1352 164.9326,-1.1352 Z M 179.1059,27.2396 L 651.1311,27.2396 800.9137,473.8948 633.7263,474.6034 514.6145,592.8648 315.6507,592.8648 197.8712,476.4743 32.9515,474.2066 179.1059,27.2396 179.1059,27.2396 Z" />
	<path style="fill-rule:evenodd;fill:#2d2c2b;" d="M 131.4754,407.9067 L 131.4754,373.2348 699.7536,373.2348 699.7536,407.9067 131.4754,407.9067 Z" />
	<path style="fill-rule:evenodd;fill:#2d2c2b;" d="M 165.6583,271.2202 L 165.6583,236.5481 665.5726,236.5481 665.5726,271.2202 165.6583,271.2202 Z" />
	<path style="fill-rule:evenodd;fill:#2d2c2b;" d="M 199.8404,134.5335 L 199.8404,99.8616 631.3907,99.8616 631.3907,134.5335 199.8404,134.5335 Z" />
</g>
</svg>