<?xml version="1.0" encoding="UTF-8"?>
<!DOCTYPE svg PUBLIC "-//W3C//DTD SVG 1.1//EN" "http://www.w3.org/Graphics/SVG/1.1/DTD/svg11.dtd">
<svg version="1.2" width="367.19mm" height="367.19mm" viewBox="0 0 36719 36719" preserveAspectRatio="xMidYMid" fill-rule="evenodd" stroke-width="28.222" stroke-linejoin="round" xmlns="http://www.w3.org/2000/svg" xmlns:ooo="http://xml.openoffice.org/svg/export" xmlns:xlink="http://www.w3.org/1999/xlink" xmlns:presentation="http://sun.com/xmlns/staroffice/presentation" xmlns:smil="http://www.w3.org/2001/SMIL20/" xmlns:anim="urn:oasis:names:tc:opendocument:xmlns:animation:1.0" xml:space="preserve">
 <defs class="ClipPathGroup">
  <clipPath id="presentation_clip_path" clipPathUnits="userSpaceOnUse">
   <rect x="0" y="0" width="36719" height="36719"/>
  </clipPath>
  <clipPath id="presentation_clip_path_shrink" clipPathUnits="userSpaceOnUse">
   <rect x="36" y="36" width="36646" height="36646"/>
  </clipPath>
 </defs>
 <defs class="TextShapeIndex">
  <g ooo:slide="id1" ooo:id-list="id3"/>
 </defs>
 <defs class="EmbeddedBulletChars">
  <g id="bullet-char-template-57356" transform="scale(0.00048828125,-0.00048828125)">
   <path d="M 580,1141 L 1163,571 580,0 -4,571 580,1141 Z"/>
  </g>
  <g id="bullet-char-template-57354" transform="scale(0.00048828125,-0.00048828125)">
   <path d="M 8,1128 L 1137,1128 1137,0 8,0 8,1128 Z"/>
  </g>
  <g id="bullet-char-template-10146" transform="scale(0.00048828125,-0.00048828125)">
   <path d="M 174,0 L 602,739 174,1481 1456,739 174,0 Z M 1358,739 L 309,1346 659,739 1358,739 Z"/>
  </g>
  <g id="bullet-char-template-10132" transform="scale(0.00048828125,-0.00048828125)">
   <path d="M 2015,739 L 1276,0 717,0 1260,543 174,543 174,936 1260,936 717,1481 1274,1481 2015,739 Z"/>
  </g>
  <g id="bullet-char-template-10007" transform="scale(0.00048828125,-0.00048828125)">
   <path d="M 0,-2 C -7,14 -16,27 -25,37 L 356,567 C 262,823 215,952 215,954 215,979 228,992 255,992 264,992 276,990 289,987 310,991 331,999 354,1012 L 381,999 492,748 772,1049 836,1024 860,1049 C 881,1039 901,1025 922,1006 886,937 835,863 770,784 769,783 710,716 594,584 L 774,223 C 774,196 753,168 711,139 L 727,119 C 717,90 699,76 672,76 641,76 570,178 457,381 L 164,-76 C 142,-110 111,-127 72,-127 30,-127 9,-110 8,-76 1,-67 -2,-52 -2,-32 -2,-23 -1,-13 0,-2 Z"/>
  </g>
  <g id="bullet-char-template-10004" transform="scale(0.00048828125,-0.00048828125)">
   <path d="M 285,-33 C 182,-33 111,30 74,156 52,228 41,333 41,471 41,549 55,616 82,672 116,743 169,778 240,778 293,778 328,747 346,684 L 369,508 C 377,444 397,411 428,410 L 1163,1116 C 1174,1127 1196,1133 1229,1133 1271,1133 1292,1118 1292,1087 L 1292,965 C 1292,929 1282,901 1262,881 L 442,47 C 390,-6 338,-33 285,-33 Z"/>
  </g>
  <g id="bullet-char-template-9679" transform="scale(0.00048828125,-0.00048828125)">
   <path d="M 813,0 C 632,0 489,54 383,161 276,268 223,411 223,592 223,773 276,916 383,1023 489,1130 632,1184 813,1184 992,1184 1136,1130 1245,1023 1353,916 1407,772 1407,592 1407,412 1353,268 1245,161 1136,54 992,0 813,0 Z"/>
  </g>
  <g id="bullet-char-template-8226" transform="scale(0.00048828125,-0.00048828125)">
   <path d="M 346,457 C 273,457 209,483 155,535 101,586 74,649 74,723 74,796 101,859 155,911 209,963 273,989 346,989 419,989 480,963 531,910 582,859 608,796 608,723 608,648 583,586 532,535 482,483 420,457 346,457 Z"/>
  </g>
  <g id="bullet-char-template-8211" transform="scale(0.00048828125,-0.00048828125)">
   <path d="M -4,459 L 1135,459 1135,606 -4,606 -4,459 Z"/>
  </g>
  <g id="bullet-char-template-61548" transform="scale(0.00048828125,-0.00048828125)">
   <path d="M 173,740 C 173,903 231,1043 346,1159 462,1274 601,1332 765,1332 928,1332 1067,1274 1183,1159 1299,1043 1357,903 1357,740 1357,577 1299,437 1183,322 1067,206 928,148 765,148 601,148 462,206 346,322 231,437 173,577 173,740 Z"/>
  </g>
 </defs>
 <defs class="TextEmbeddedBitmaps"/>
 <g>
  <g id="id2" class="Master_Slide">
   <g id="bg-id2" class="Background"/>
   <g id="bo-id2" class="BackgroundObjects"/>
  </g>
 </g>
 <g class="SlideGroup">
  <g>
   <g id="container-id1">
    <g id="id1" class="Slide" clip-path="url(#presentation_clip_path)">
     <g class="Page">
      <g class="Graphic">
       <g id="id3">
        <rect class="BoundingBox" stroke="none" fill="none" x="69" y="69" width="36581" height="36581"/>
        <path fill="rgb(0,0,0)" stroke="none" d="M 27563,22194 C 19997,26786 11415,24656 6671,23872 4293,23479 3020,23658 2231,24092 1837,24309 1577,24609 1444,24884 1311,25159 1304,25480 1304,25480 1314,25867 1608,26180 1976,26194 2345,26208 2660,25919 2696,25534 2711,25510 2752,25461 2878,25392 3217,25206 4244,24844 6454,25322 14945,27071 23626,26677 30105,21847 32401,20109 34405,18743 36519,16733 31937,19893 29956,20976 27563,22194 Z"/>
        <path fill="rgb(0,0,0)" stroke="none" d="M 5471,17485 C 2376,21047 308,24594 308,24594 208,24760 175,24961 217,25152 259,25344 373,25509 532,25612 691,25715 883,25746 1064,25699 1246,25652 1402,25531 1497,25362 2620,21380 6495,17486 17202,13455 24442,13338 27846,14616 36519,16733 25162,10405 15492,6207 5471,17485 L 5471,17485 Z"/>
        <path fill="rgb(0,0,0)" stroke="none" d="M 17652,11548 L 17652,11548 C 16805,11549 16085,11760 15352,12223 14618,12687 14090,13264 13666,14067 13396,14579 13234,15055 13132,15636 L 13132,15636 C 13280,15447 13430,15311 13627,15186 13932,14994 14231,14906 14582,14906 L 14582,14906 C 14582,14906 14582,14906 14582,14906 14934,14906 15233,14994 15538,15186 15843,15379 16062,15618 16238,15952 16414,16285 16494,16613 16494,16998 16494,16998 16494,16998 16494,16998 L 16494,16998 C 16494,16998 16494,16998 16494,16998 16494,17383 16414,17710 16238,18043 16062,18377 15843,18616 15538,18809 15233,19002 14934,19089 14582,19089 14582,19089 14582,19089 14582,19089 L 14582,19089 C 14231,19089 13932,19001 13628,18809 13575,18775 13531,18745 13481,18706 L 13481,18706 C 13542,18849 13598,18967 13670,19104 14094,19907 14621,20484 15355,20948 16088,21410 16806,21621 17652,21623 L 17652,21623 C 17652,21623 17652,21623 17652,21623 18499,21623 19220,21411 19954,20948 20688,20484 21216,19907 21639,19104 22063,18301 22256,17513 22256,16585 22256,16585 22256,16585 22256,16585 L 22256,16585 C 22256,16585 22256,16585 22256,16585 22256,15658 22063,14870 21639,14067 21216,13264 20688,12687 19954,12223 19220,11759 18499,11548 17652,11548 17652,11548 17652,11548 17652,11548 L 17652,11548 Z M 19671,16850 L 19671,16850 C 19671,16850 19671,16850 19671,16850 19919,16850 20130,16912 20344,17048 20559,17183 20713,17352 20837,17587 20961,17822 21018,18052 21018,18323 21018,18323 21018,18323 21018,18323 L 21018,18323 C 21018,18594 20961,18825 20837,19060 20713,19295 20559,19463 20344,19599 20130,19734 19919,19796 19671,19796 19671,19796 19671,19796 19671,19796 L 19671,19796 C 19423,19796 19213,19734 18998,19599 18783,19463 18629,19295 18505,19060 18381,18825 18325,18594 18325,18323 L 18325,18323 C 18325,18323 18325,18323 18325,18323 18325,18052 18381,17822 18505,17587 18629,17352 18783,17183 18998,17048 19213,16912 19423,16850 19671,16850 L 19671,16850 Z"/>
        <path fill="rgb(0,0,0)" stroke="none" d="M 25426,13839 C 24988,13633 24551,13430 24109,13224 24244,13803 24635,15715 24635,16321 24635,18304 23886,20205 22552,21607 21218,23010 19410,23797 17524,23797 15638,23797 13830,23010 12496,21607 11163,20205 10492,17811 10492,15828 10492,15697 10504,15568 10510,15438 10449,15494 10387,15548 10327,15605 9989,15922 9660,16251 9339,16585 9508,18621 10271,21034 11656,22491 13212,24127 15323,25046 17524,25046 19725,25046 21836,24127 23392,22491 24949,20855 25823,18635 25823,16321 25823,15928 25476,14224 25426,13839 L 25426,13839 Z"/>
       </g>
      </g>
     </g>
    </g>
   </g>
  </g>
 </g>
</svg>