<?xml version="1.0" encoding="UTF-8"?>
<!DOCTYPE svg PUBLIC "-//W3C//DTD SVG 1.1//EN" "http://www.w3.org/Graphics/SVG/1.1/DTD/svg11.dtd">
<svg version="1.2" width="367.19mm" height="367.19mm" viewBox="0 0 36719 36719" preserveAspectRatio="xMidYMid" fill-rule="evenodd" stroke-width="28.222" stroke-linejoin="round" xmlns="http://www.w3.org/2000/svg" xmlns:ooo="http://xml.openoffice.org/svg/export" xmlns:xlink="http://www.w3.org/1999/xlink" xmlns:presentation="http://sun.com/xmlns/staroffice/presentation" xmlns:smil="http://www.w3.org/2001/SMIL20/" xmlns:anim="urn:oasis:names:tc:opendocument:xmlns:animation:1.0" xml:space="preserve">
 <defs class="ClipPathGroup">
  <clipPath id="presentation_clip_path" clipPathUnits="userSpaceOnUse">
   <rect x="0" y="0" width="36719" height="36719"/>
  </clipPath>
  <clipPath id="presentation_clip_path_shrink" clipPathUnits="userSpaceOnUse">
   <rect x="36" y="36" width="36646" height="36646"/>
  </clipPath>
 </defs>
 <defs class="TextShapeIndex">
  <g ooo:slide="id1" ooo:id-list="id3"/>
 </defs>
 <defs class="EmbeddedBulletChars">
  <g id="bullet-char-template-57356" transform="scale(0.00048828125,-0.00048828125)">
   <path d="M 580,1141 L 1163,571 580,0 -4,571 580,1141 Z"/>
  </g>
  <g id="bullet-char-template-57354" transform="scale(0.00048828125,-0.00048828125)">
   <path d="M 8,1128 L 1137,1128 1137,0 8,0 8,1128 Z"/>
  </g>
  <g id="bullet-char-template-10146" transform="scale(0.00048828125,-0.00048828125)">
   <path d="M 174,0 L 602,739 174,1481 1456,739 174,0 Z M 1358,739 L 309,1346 659,739 1358,739 Z"/>
  </g>
  <g id="bullet-char-template-10132" transform="scale(0.00048828125,-0.00048828125)">
   <path d="M 2015,739 L 1276,0 717,0 1260,543 174,543 174,936 1260,936 717,1481 1274,1481 2015,739 Z"/>
  </g>
  <g id="bullet-char-template-10007" transform="scale(0.00048828125,-0.00048828125)">
   <path d="M 0,-2 C -7,14 -16,27 -25,37 L 356,567 C 262,823 215,952 215,954 215,979 228,992 255,992 264,992 276,990 289,987 310,991 331,999 354,1012 L 381,999 492,748 772,1049 836,1024 860,1049 C 881,1039 901,1025 922,1006 886,937 835,863 770,784 769,783 710,716 594,584 L 774,223 C 774,196 753,168 711,139 L 727,119 C 717,90 699,76 672,76 641,76 570,178 457,381 L 164,-76 C 142,-110 111,-127 72,-127 30,-127 9,-110 8,-76 1,-67 -2,-52 -2,-32 -2,-23 -1,-13 0,-2 Z"/>
  </g>
  <g id="bullet-char-template-10004" transform="scale(0.00048828125,-0.00048828125)">
   <path d="M 285,-33 C 182,-33 111,30 74,156 52,228 41,333 41,471 41,549 55,616 82,672 116,743 169,778 240,778 293,778 328,747 346,684 L 369,508 C 377,444 397,411 428,410 L 1163,1116 C 1174,1127 1196,1133 1229,1133 1271,1133 1292,1118 1292,1087 L 1292,965 C 1292,929 1282,901 1262,881 L 442,47 C 390,-6 338,-33 285,-33 Z"/>
  </g>
  <g id="bullet-char-template-9679" transform="scale(0.00048828125,-0.00048828125)">
   <path d="M 813,0 C 632,0 489,54 383,161 276,268 223,411 223,592 223,773 276,916 383,1023 489,1130 632,1184 813,1184 992,1184 1136,1130 1245,1023 1353,916 1407,772 1407,592 1407,412 1353,268 1245,161 1136,54 992,0 813,0 Z"/>
  </g>
  <g id="bullet-char-template-8226" transform="scale(0.00048828125,-0.00048828125)">
   <path d="M 346,457 C 273,457 209,483 155,535 101,586 74,649 74,723 74,796 101,859 155,911 209,963 273,989 346,989 419,989 480,963 531,910 582,859 608,796 608,723 608,648 583,586 532,535 482,483 420,457 346,457 Z"/>
  </g>
  <g id="bullet-char-template-8211" transform="scale(0.00048828125,-0.00048828125)">
   <path d="M -4,459 L 1135,459 1135,606 -4,606 -4,459 Z"/>
  </g>
  <g id="bullet-char-template-61548" transform="scale(0.00048828125,-0.00048828125)">
   <path d="M 173,740 C 173,903 231,1043 346,1159 462,1274 601,1332 765,1332 928,1332 1067,1274 1183,1159 1299,1043 1357,903 1357,740 1357,577 1299,437 1183,322 1067,206 928,148 765,148 601,148 462,206 346,322 231,437 173,577 173,740 Z"/>
  </g>
 </defs>
 <defs class="TextEmbeddedBitmaps"/>
 <g>
  <g id="id2" class="Master_Slide">
   <g id="bg-id2" class="Background"/>
   <g id="bo-id2" class="BackgroundObjects"/>
  </g>
 </g>
 <g class="SlideGroup">
  <g>
   <g id="container-id1">
    <g id="id1" class="Slide" clip-path="url(#presentation_clip_path)">
     <g class="Page">
      <g class="Graphic">
       <g id="id3">
        <rect class="BoundingBox" stroke="none" fill="none" x="69" y="69" width="36581" height="36581"/>
        <path fill="rgb(0,0,0)" stroke="none" d="M 25883,26237 C 17798,30447 9980,25368 5585,23089 3382,21947 2132,21857 1297,22236 880,22425 576,22761 398,23096 221,23431 155,23860 155,23860 93,24382 317,24878 666,24993 1016,25107 1371,24800 1477,24292 1495,24265 1544,24209 1677,24149 2036,23986 3084,23766 5111,24980 12912,29524 21290,31239 28379,26428 30896,24689 33065,23373 35458,21221 30492,24278 28397,25220 25883,26237 Z"/>
        <path fill="rgb(0,0,0)" stroke="none" d="M 480,22868 C 354,23078 286,23356 291,23641 296,23926 374,24194 507,24384 641,24575 819,24672 1001,24655 1183,24638 1354,24507 1477,24292 15404,7186 25605,14068 36574,21600 25520,7347 10348,3339 480,22868 L 480,22868 Z"/>
        <path fill="rgb(0,0,0)" stroke="none" d="M 20507,13581 L 20507,13581 C 19273,13374 18173,13440 16956,13792 15609,14182 14547,14802 13563,15772 12840,16485 12348,17199 11951,18108 L 11951,18108 C 12293,17849 12626,17682 13042,17561 13547,17415 14003,17388 14516,17474 L 14516,17474 C 14570,17483 14616,17492 14670,17504 15231,17627 15674,17853 16085,18227 16497,18601 16754,19011 16906,19537 17043,20012 17056,20445 16948,20934 L 16948,20934 C 16937,20987 16926,21031 16912,21082 16764,21619 16510,22046 16102,22449 15693,22853 15252,23110 14693,23272 14187,23418 13730,23445 13217,23359 L 13217,23359 C 13163,23350 13118,23341 13066,23330 12505,23207 12062,22981 11651,22606 11618,22577 11592,22552 11561,22521 L 11561,22521 C 11584,22616 11605,22695 11632,22788 11999,24054 12617,25041 13608,25943 14599,26844 15666,27389 17016,27684 17143,27712 17251,27733 17379,27755 L 17379,27755 C 18614,27962 19716,27897 20933,27545 22281,27155 23343,26535 24327,25564 25310,24593 25921,23563 26278,22272 26312,22147 26338,22041 26366,21915 L 26366,21915 C 26626,20737 26594,19693 26263,18549 25897,17283 25278,16296 24287,15395 23296,14493 22230,13948 20880,13653 20749,13625 20639,13603 20507,13581 L 20507,13581 Z M 22116,21588 L 22116,21588 C 22155,21594 22187,21601 22225,21609 22620,21695 22932,21855 23222,22118 23512,22382 23693,22671 23800,23041 23896,23375 23906,23680 23830,24025 L 23830,24025 C 23822,24062 23814,24093 23804,24129 23700,24507 23521,24808 23233,25092 22946,25376 22635,25557 22241,25671 21885,25774 21563,25793 21202,25732 L 21202,25732 C 21163,25726 21131,25720 21093,25711 20698,25625 20386,25465 20097,25202 19807,24938 19626,24650 19519,24280 19422,23945 19413,23640 19489,23295 L 19489,23295 C 19497,23259 19505,23228 19515,23191 19619,22814 19797,22512 20085,22228 20373,21945 20683,21763 21077,21649 21433,21546 21755,21527 22116,21588 L 22116,21588 Z"/>
       </g>
      </g>
     </g>
    </g>
   </g>
  </g>
 </g>
</svg>