<?xml version="1.0" encoding="utf-8"?>
<!-- Created by sK1 2.0rc4 (https://sk1project.net/) -->
<svg xmlns="http://www.w3.org/2000/svg" height="832.677165354pt" viewBox="0 0 832.677165354 832.677165354" width="832.677165354pt" version="1.1" xmlns:xlink="http://www.w3.org/1999/xlink" id="15b02e0e-b2a0-11ea-be2e-a0f3c11e789f">

<g>
	<path style="fill-rule:evenodd;fill:#2d2c2b;" d="M 448.8248,221.573 L 448.8248,221.573 C 421.3111,217.1262 396.7851,218.544 369.6505,226.1057 339.6173,234.4836 315.9385,247.8024 293.9989,268.6399 277.8787,283.9565 266.9088,299.2946 258.0572,318.8216 L 258.0572,318.8216 C 265.6825,313.2578 273.1072,309.6703 282.3825,307.071 293.6422,303.9347 303.8093,303.3547 315.2473,305.2021 L 315.2473,305.2021 C 316.4513,305.3954 317.477,305.5888 318.681,305.8466 331.1892,308.4888 341.0665,313.3437 350.2303,321.378 359.4164,329.4122 365.1466,338.2198 368.5356,349.5193 371.5902,359.7232 371.8801,369.0249 369.4721,379.5295 L 369.4721,379.5295 C 369.2268,380.6681 368.9816,381.6133 368.6694,382.7089 365.3696,394.2447 359.7063,403.4174 350.6094,412.0746 341.4902,420.7533 331.6575,426.2742 319.1938,429.7543 307.9118,432.8906 297.7224,433.4706 286.2844,431.6232 L 286.2844,431.6232 C 285.0804,431.4299 284.077,431.2365 282.9176,431.0002 270.4094,428.3579 260.5321,423.503 251.3683,415.4473 250.6325,414.8243 250.0528,414.2873 249.3616,413.6213 L 249.3616,413.6213 C 249.8744,415.6621 250.3427,417.3592 250.9447,419.357 259.1274,446.5531 272.9066,467.7558 295.0023,487.1325 317.0979,506.4877 340.8882,518.1953 370.9882,524.5325 373.8199,525.134 376.2279,525.5851 379.0818,526.0577 L 379.0818,526.0577 C 406.6178,530.5045 431.1884,529.1081 458.3231,521.5465 488.3785,513.1685 512.0573,499.8498 533.9969,478.9908 555.9142,458.1319 569.5373,436.0055 577.4971,408.2723 578.2551,405.5871 578.8349,403.31 579.4591,400.6033 L 579.4591,400.6033 C 585.2562,375.2976 584.5427,352.8705 577.1626,328.2952 569.0022,301.0991 555.2007,279.8964 533.105,260.5412 511.0093,241.1645 487.2414,229.4569 457.1413,223.1197 454.2205,222.5182 451.7679,222.0456 448.8248,221.573 L 448.8248,221.573 Z M 484.6996,393.5787 L 484.6996,393.5787 C 485.5692,393.7076 486.2827,393.858 487.1299,394.0298 495.937,395.8773 502.8935,399.3144 509.3594,404.9641 515.8254,410.6354 519.861,416.8436 522.2467,424.7919 524.3872,431.9669 524.6101,438.5189 522.9156,445.9301 L 522.9156,445.9301 C 522.7372,446.725 522.5589,447.3909 522.3359,448.1643 520.0171,456.2844 516.026,462.7505 509.6047,468.8514 503.2056,474.9522 496.2714,478.8404 487.4867,481.2894 479.5492,483.502 472.3698,483.9102 464.3208,482.5998 L 464.3208,482.5998 C 463.4512,482.4709 462.7377,482.342 461.8905,482.1487 453.0834,480.3012 446.1269,476.8641 439.6833,471.2144 433.2174,465.5431 429.1817,459.3563 426.796,451.408 424.6333,444.2116 424.4326,437.6596 426.1271,430.2483 L 426.1271,430.2483 C 426.3055,429.475 426.4839,428.8091 426.7068,428.0142 429.0256,419.9155 432.9944,413.428 439.4157,407.3271 445.8371,401.2478 452.749,397.338 461.5337,394.8891 469.4712,392.6765 476.6507,392.2683 484.6996,393.5787 L 484.6996,393.5787 Z" />
	<path style="fill-rule:evenodd;fill:#2d2c2b;" d="M 50.4797,397.1568 C 39.8845,385.6317 21.9523,384.8778 10.4272,395.473 -1.098,406.0683 -1.8519,424.0004 8.7434,435.5256 123.9548,560.8491 269.7822,624.5874 416.6393,624.5874 563.5014,624.5874 709.147,560.8436 823.9704,435.4878 834.5447,423.9435 833.7584,406.0127 822.2141,395.4384 810.6698,384.864 792.739,385.6503 782.1646,397.1946 677.2753,511.7052 546.449,567.8945 416.6393,567.8945 286.8247,567.8945 155.7804,511.6997 50.4797,397.1568 Z" />
	<path style="fill-rule:evenodd;fill:#2d2c2b;" d="M 8.7081,397.1932 C -1.8659,408.7378 -1.0791,426.6686 10.4656,437.2426 22.0102,447.8166 39.9409,447.0298 50.515,435.4851 155.8272,320.506 286.8621,264.1205 416.6393,264.1205 546.4115,264.1205 677.2285,320.5005 782.1295,435.4473 792.6826,447.0111 810.6119,447.8303 822.1756,437.2772 833.7394,426.7241 834.5587,408.7948 824.0055,397.231 709.1938,271.4244 563.5389,207.4276 416.6393,207.4276 269.7448,207.4276 123.908,271.4188 8.7081,397.1932 Z" />
</g>
</svg>