<?xml version="1.0" encoding="UTF-8"?>
<!DOCTYPE svg PUBLIC "-//W3C//DTD SVG 1.1//EN" "http://www.w3.org/Graphics/SVG/1.1/DTD/svg11.dtd">
<svg version="1.2" width="367.19mm" height="367.19mm" viewBox="0 0 36719 36719" preserveAspectRatio="xMidYMid" fill-rule="evenodd" stroke-width="28.222" stroke-linejoin="round" xmlns="http://www.w3.org/2000/svg" xmlns:ooo="http://xml.openoffice.org/svg/export" xmlns:xlink="http://www.w3.org/1999/xlink" xmlns:presentation="http://sun.com/xmlns/staroffice/presentation" xmlns:smil="http://www.w3.org/2001/SMIL20/" xmlns:anim="urn:oasis:names:tc:opendocument:xmlns:animation:1.0" xml:space="preserve">
 <defs class="ClipPathGroup">
  <clipPath id="presentation_clip_path" clipPathUnits="userSpaceOnUse">
   <rect x="0" y="0" width="36719" height="36719"/>
  </clipPath>
  <clipPath id="presentation_clip_path_shrink" clipPathUnits="userSpaceOnUse">
   <rect x="36" y="36" width="36646" height="36646"/>
  </clipPath>
 </defs>
 <defs class="TextShapeIndex">
  <g ooo:slide="id1" ooo:id-list="id3"/>
 </defs>
 <defs class="EmbeddedBulletChars">
  <g id="bullet-char-template-57356" transform="scale(0.00048828125,-0.00048828125)">
   <path d="M 580,1141 L 1163,571 580,0 -4,571 580,1141 Z"/>
  </g>
  <g id="bullet-char-template-57354" transform="scale(0.00048828125,-0.00048828125)">
   <path d="M 8,1128 L 1137,1128 1137,0 8,0 8,1128 Z"/>
  </g>
  <g id="bullet-char-template-10146" transform="scale(0.00048828125,-0.00048828125)">
   <path d="M 174,0 L 602,739 174,1481 1456,739 174,0 Z M 1358,739 L 309,1346 659,739 1358,739 Z"/>
  </g>
  <g id="bullet-char-template-10132" transform="scale(0.00048828125,-0.00048828125)">
   <path d="M 2015,739 L 1276,0 717,0 1260,543 174,543 174,936 1260,936 717,1481 1274,1481 2015,739 Z"/>
  </g>
  <g id="bullet-char-template-10007" transform="scale(0.00048828125,-0.00048828125)">
   <path d="M 0,-2 C -7,14 -16,27 -25,37 L 356,567 C 262,823 215,952 215,954 215,979 228,992 255,992 264,992 276,990 289,987 310,991 331,999 354,1012 L 381,999 492,748 772,1049 836,1024 860,1049 C 881,1039 901,1025 922,1006 886,937 835,863 770,784 769,783 710,716 594,584 L 774,223 C 774,196 753,168 711,139 L 727,119 C 717,90 699,76 672,76 641,76 570,178 457,381 L 164,-76 C 142,-110 111,-127 72,-127 30,-127 9,-110 8,-76 1,-67 -2,-52 -2,-32 -2,-23 -1,-13 0,-2 Z"/>
  </g>
  <g id="bullet-char-template-10004" transform="scale(0.00048828125,-0.00048828125)">
   <path d="M 285,-33 C 182,-33 111,30 74,156 52,228 41,333 41,471 41,549 55,616 82,672 116,743 169,778 240,778 293,778 328,747 346,684 L 369,508 C 377,444 397,411 428,410 L 1163,1116 C 1174,1127 1196,1133 1229,1133 1271,1133 1292,1118 1292,1087 L 1292,965 C 1292,929 1282,901 1262,881 L 442,47 C 390,-6 338,-33 285,-33 Z"/>
  </g>
  <g id="bullet-char-template-9679" transform="scale(0.00048828125,-0.00048828125)">
   <path d="M 813,0 C 632,0 489,54 383,161 276,268 223,411 223,592 223,773 276,916 383,1023 489,1130 632,1184 813,1184 992,1184 1136,1130 1245,1023 1353,916 1407,772 1407,592 1407,412 1353,268 1245,161 1136,54 992,0 813,0 Z"/>
  </g>
  <g id="bullet-char-template-8226" transform="scale(0.00048828125,-0.00048828125)">
   <path d="M 346,457 C 273,457 209,483 155,535 101,586 74,649 74,723 74,796 101,859 155,911 209,963 273,989 346,989 419,989 480,963 531,910 582,859 608,796 608,723 608,648 583,586 532,535 482,483 420,457 346,457 Z"/>
  </g>
  <g id="bullet-char-template-8211" transform="scale(0.00048828125,-0.00048828125)">
   <path d="M -4,459 L 1135,459 1135,606 -4,606 -4,459 Z"/>
  </g>
  <g id="bullet-char-template-61548" transform="scale(0.00048828125,-0.00048828125)">
   <path d="M 173,740 C 173,903 231,1043 346,1159 462,1274 601,1332 765,1332 928,1332 1067,1274 1183,1159 1299,1043 1357,903 1357,740 1357,577 1299,437 1183,322 1067,206 928,148 765,148 601,148 462,206 346,322 231,437 173,577 173,740 Z"/>
  </g>
 </defs>
 <defs class="TextEmbeddedBitmaps"/>
 <g>
  <g id="id2" class="Master_Slide">
   <g id="bg-id2" class="Background"/>
   <g id="bo-id2" class="BackgroundObjects"/>
  </g>
 </g>
 <g class="SlideGroup">
  <g>
   <g id="container-id1">
    <g id="id1" class="Slide" clip-path="url(#presentation_clip_path)">
     <g class="Page">
      <g class="Graphic">
       <g id="id3">
        <rect class="BoundingBox" stroke="none" fill="none" x="69" y="69" width="36581" height="36581"/>
        <path fill="rgb(0,0,0)" stroke="none" d="M 96,16733 C 4704,19893 6697,20976 9103,22194 16712,26786 25342,24656 30113,23872 32505,23479 33785,23658 34578,24092 34975,24309 35236,24609 35370,24884 35503,25159 35510,25480 35510,25480 35501,25867 35205,26180 34834,26194 34464,26208 34147,25919 34110,25534 34096,25510 34054,25461 33928,25392 33586,25206 32554,24844 30331,25322 21792,27071 13063,26677 6547,21847 4237,20109 2222,18743 96,16733 L 96,16733 Z"/>
        <path fill="rgb(0,0,0)" stroke="none" d="M 31320,17485 C 34432,21047 36513,24594 36513,24594 36613,24760 36646,24961 36604,25152 36561,25344 36447,25509 36287,25612 36127,25715 35934,25746 35752,25699 35569,25652 35412,25531 35316,25362 34187,21380 30290,17486 19522,13455 12241,13338 8818,14616 96,16733 11518,10405 21242,6207 31320,17485 L 31320,17485 Z"/>
        <path fill="rgb(0,0,0)" stroke="none" d="M 18980,11548 L 18980,11548 C 18031,11549 17224,11760 16401,12223 15578,12687 14987,13264 14511,14067 14208,14579 14026,15055 13912,15636 L 13912,15636 C 14078,15447 14247,15311 14468,15186 14809,14994 15144,14906 15538,14906 L 15538,14906 C 15538,14906 15538,14906 15538,14906 15933,14906 16268,14994 16610,15186 16952,15379 17197,15618 17395,15952 17592,16285 17682,16613 17682,16998 17682,16998 17682,16998 17682,16998 L 17682,16998 C 17682,16998 17682,16998 17682,16998 17682,17383 17592,17710 17395,18043 17197,18377 16952,18616 16610,18809 16268,19002 15933,19089 15538,19089 15538,19089 15538,19089 15538,19089 L 15538,19089 C 15144,19089 14810,19001 14469,18809 14409,18775 14360,18745 14303,18706 L 14303,18706 C 14372,18849 14435,18967 14515,19104 14991,19907 15582,20484 16405,20948 17226,21410 18032,21621 18980,21623 L 18980,21623 C 18980,21623 18980,21623 18980,21623 19931,21623 20739,21411 21562,20948 22385,20484 22976,19907 23451,19104 23927,18301 24143,17513 24143,16585 24143,16585 24143,16585 24143,16585 L 24143,16585 C 24143,16585 24143,16585 24143,16585 24143,15658 23927,14870 23451,14067 22976,13264 22385,12687 21562,12223 20739,11759 19931,11548 18980,11548 18980,11548 18980,11548 18980,11548 L 18980,11548 Z M 21245,16850 L 21245,16850 C 21245,16850 21245,16850 21245,16850 21523,16850 21759,16912 22000,17048 22240,17183 22413,17352 22552,17587 22691,17822 22754,18052 22754,18323 22754,18323 22754,18323 22754,18323 L 22754,18323 C 22754,18594 22691,18825 22552,19060 22413,19295 22240,19463 22000,19599 21759,19734 21523,19796 21245,19796 21245,19796 21245,19796 21245,19796 L 21245,19796 C 20967,19796 20731,19734 20490,19599 20249,19463 20076,19295 19937,19060 19798,18825 19735,18594 19735,18323 L 19735,18323 C 19735,18323 19735,18323 19735,18323 19735,18052 19798,17822 19937,17587 20076,17352 20249,17183 20490,17048 20731,16912 20967,16850 21245,16850 L 21245,16850 Z"/>
        <path fill="rgb(0,0,0)" stroke="none" d="M 12577,13224 C 12441,13803 12048,15715 12048,16321 12048,18304 12801,20205 14142,21607 15483,23010 17302,23797 19199,23797 21095,23797 22914,23010 24255,21607 25596,20205 26271,17811 26271,15828 26271,15697 26259,15568 26252,15438 26313,15494 26376,15548 26437,15605 26777,15922 27107,16251 27430,16585 27260,18621 26493,21034 25100,22491 23535,24127 21412,25046 19199,25046 16985,25046 14862,24127 13297,22491 11732,20855 10853,18635 10853,16321 10853,15928 11202,14224 11252,13839 11693,13633 12132,13430 12577,13224 Z"/>
       </g>
      </g>
     </g>
    </g>
   </g>
  </g>
 </g>
</svg>