<?xml version="1.0" encoding="UTF-8"?>
<!DOCTYPE svg PUBLIC "-//W3C//DTD SVG 1.1//EN" "http://www.w3.org/Graphics/SVG/1.1/DTD/svg11.dtd">
<svg version="1.2" width="367.19mm" height="367.19mm" viewBox="0 0 36719 36719" preserveAspectRatio="xMidYMid" fill-rule="evenodd" stroke-width="28.222" stroke-linejoin="round" xmlns="http://www.w3.org/2000/svg" xmlns:ooo="http://xml.openoffice.org/svg/export" xmlns:xlink="http://www.w3.org/1999/xlink" xmlns:presentation="http://sun.com/xmlns/staroffice/presentation" xmlns:smil="http://www.w3.org/2001/SMIL20/" xmlns:anim="urn:oasis:names:tc:opendocument:xmlns:animation:1.0" xml:space="preserve">
 <defs class="ClipPathGroup">
  <clipPath id="presentation_clip_path" clipPathUnits="userSpaceOnUse">
   <rect x="0" y="0" width="36719" height="36719"/>
  </clipPath>
  <clipPath id="presentation_clip_path_shrink" clipPathUnits="userSpaceOnUse">
   <rect x="36" y="36" width="36646" height="36646"/>
  </clipPath>
 </defs>
 <defs class="TextShapeIndex">
  <g ooo:slide="id1" ooo:id-list="id3"/>
 </defs>
 <defs class="EmbeddedBulletChars">
  <g id="bullet-char-template-57356" transform="scale(0.00048828125,-0.00048828125)">
   <path d="M 580,1141 L 1163,571 580,0 -4,571 580,1141 Z"/>
  </g>
  <g id="bullet-char-template-57354" transform="scale(0.00048828125,-0.00048828125)">
   <path d="M 8,1128 L 1137,1128 1137,0 8,0 8,1128 Z"/>
  </g>
  <g id="bullet-char-template-10146" transform="scale(0.00048828125,-0.00048828125)">
   <path d="M 174,0 L 602,739 174,1481 1456,739 174,0 Z M 1358,739 L 309,1346 659,739 1358,739 Z"/>
  </g>
  <g id="bullet-char-template-10132" transform="scale(0.00048828125,-0.00048828125)">
   <path d="M 2015,739 L 1276,0 717,0 1260,543 174,543 174,936 1260,936 717,1481 1274,1481 2015,739 Z"/>
  </g>
  <g id="bullet-char-template-10007" transform="scale(0.00048828125,-0.00048828125)">
   <path d="M 0,-2 C -7,14 -16,27 -25,37 L 356,567 C 262,823 215,952 215,954 215,979 228,992 255,992 264,992 276,990 289,987 310,991 331,999 354,1012 L 381,999 492,748 772,1049 836,1024 860,1049 C 881,1039 901,1025 922,1006 886,937 835,863 770,784 769,783 710,716 594,584 L 774,223 C 774,196 753,168 711,139 L 727,119 C 717,90 699,76 672,76 641,76 570,178 457,381 L 164,-76 C 142,-110 111,-127 72,-127 30,-127 9,-110 8,-76 1,-67 -2,-52 -2,-32 -2,-23 -1,-13 0,-2 Z"/>
  </g>
  <g id="bullet-char-template-10004" transform="scale(0.00048828125,-0.00048828125)">
   <path d="M 285,-33 C 182,-33 111,30 74,156 52,228 41,333 41,471 41,549 55,616 82,672 116,743 169,778 240,778 293,778 328,747 346,684 L 369,508 C 377,444 397,411 428,410 L 1163,1116 C 1174,1127 1196,1133 1229,1133 1271,1133 1292,1118 1292,1087 L 1292,965 C 1292,929 1282,901 1262,881 L 442,47 C 390,-6 338,-33 285,-33 Z"/>
  </g>
  <g id="bullet-char-template-9679" transform="scale(0.00048828125,-0.00048828125)">
   <path d="M 813,0 C 632,0 489,54 383,161 276,268 223,411 223,592 223,773 276,916 383,1023 489,1130 632,1184 813,1184 992,1184 1136,1130 1245,1023 1353,916 1407,772 1407,592 1407,412 1353,268 1245,161 1136,54 992,0 813,0 Z"/>
  </g>
  <g id="bullet-char-template-8226" transform="scale(0.00048828125,-0.00048828125)">
   <path d="M 346,457 C 273,457 209,483 155,535 101,586 74,649 74,723 74,796 101,859 155,911 209,963 273,989 346,989 419,989 480,963 531,910 582,859 608,796 608,723 608,648 583,586 532,535 482,483 420,457 346,457 Z"/>
  </g>
  <g id="bullet-char-template-8211" transform="scale(0.00048828125,-0.00048828125)">
   <path d="M -4,459 L 1135,459 1135,606 -4,606 -4,459 Z"/>
  </g>
  <g id="bullet-char-template-61548" transform="scale(0.00048828125,-0.00048828125)">
   <path d="M 173,740 C 173,903 231,1043 346,1159 462,1274 601,1332 765,1332 928,1332 1067,1274 1183,1159 1299,1043 1357,903 1357,740 1357,577 1299,437 1183,322 1067,206 928,148 765,148 601,148 462,206 346,322 231,437 173,577 173,740 Z"/>
  </g>
 </defs>
 <defs class="TextEmbeddedBitmaps"/>
 <g>
  <g id="id2" class="Master_Slide">
   <g id="bg-id2" class="Background"/>
   <g id="bo-id2" class="BackgroundObjects"/>
  </g>
 </g>
 <g class="SlideGroup">
  <g>
   <g id="container-id1">
    <g id="id1" class="Slide" clip-path="url(#presentation_clip_path)">
     <g class="Page">
      <g class="Graphic">
       <g id="id3">
        <rect class="BoundingBox" stroke="none" fill="none" x="69" y="69" width="36581" height="36581"/>
        <path fill="rgb(0,0,0)" stroke="none" d="M 25613,25523 C 21909,27470 18261,27429 14980,26599 L 13604,27922 C 18630,29193 23616,28775 28085,25714 30578,23975 32727,22659 35097,20506 30178,23564 28102,24506 25613,25523 Z M 2279,21321 C 1876,21317 1543,21392 1259,21522 845,21711 544,22047 368,22382 192,22717 127,23146 127,23146 66,23668 287,24164 634,24278 980,24393 1332,24086 1437,23578 1455,23550 1503,23495 1634,23435 1990,23272 3029,23052 5037,24265 5752,24686 6472,25082 7195,25451 L 8620,24043 C 7456,23439 6408,22847 5507,22375 4074,21625 3049,21329 2279,21321 Z"/>
        <path fill="rgb(0,0,0)" stroke="none" d="M 16993,8831 C 10959,8886 5107,12847 450,22154 324,22364 257,22642 262,22927 267,23212 344,23479 476,23670 609,23860 785,23958 965,23941 1146,23923 1315,23793 1437,23578 8293,15076 14238,12500 19818,12984 L 22880,9959 C 20921,9206 18948,8814 16993,8831 L 16993,8831 Z M 28785,13335 L 26934,15115 C 30031,16618 33085,18725 36202,20886 33883,17867 31381,15309 28785,13335 L 28785,13335 Z"/>
        <path fill="rgb(0,0,0)" stroke="none" d="M 18795,12761 L 18795,12761 C 18075,12779 17465,12874 16770,13077 15435,13467 14383,14087 13409,15058 12693,15771 12205,16485 11812,17394 L 11812,17394 C 12151,17135 12481,16967 12892,16847 13393,16701 13845,16674 14352,16760 L 14352,16760 C 14403,16769 14446,16777 14497,16788 14838,16863 15114,16972 15409,17148 L 19801,12809 19801,12809 C 19450,12769 19150,12755 18795,12761 L 18795,12761 Z M 25384,16390 L 20526,21060 20526,21060 C 20638,21008 20737,20971 20856,20936 21208,20833 21525,20814 21881,20874 L 21881,20874 C 21920,20880 21952,20886 21989,20895 22380,20981 22689,21140 22976,21404 23263,21668 23443,21956 23549,22326 23645,22661 23654,22966 23578,23311 L 23578,23311 C 23570,23347 23563,23378 23553,23415 23450,23792 23273,24094 22988,24378 22703,24661 22395,24843 22005,24957 21652,25060 21333,25079 20976,25018 L 20976,25018 C 20937,25012 20905,25005 20868,24997 20477,24911 20168,24751 19881,24488 19593,24224 19414,23936 19308,23565 19212,23231 19203,22926 19279,22581 L 19279,22581 C 19286,22548 19293,22520 19302,22487 19341,22343 19387,22224 19456,22089 L 15049,26325 15049,26325 C 15646,26632 16189,26827 16854,26974 16971,27000 17070,27020 17189,27040 L 17189,27040 C 18412,27248 19503,27183 20709,26830 22044,26440 23096,25821 24071,24850 25045,23879 25650,22849 26003,21557 26037,21433 26063,21327 26091,21201 L 26091,21201 C 26348,20024 26316,18981 25988,17839 25836,17307 25655,16873 25384,16390 L 25384,16390 Z"/>
        <path fill="rgb(0,0,0)" stroke="none" d="M 34889,660 C 34796,714 34723,771 34648,848 L 1066,34228 C 984,34308 924,34385 867,34484 762,34668 714,34848 714,35060 714,35273 762,35453 867,35637 972,35820 1102,35952 1284,36058 1466,36164 1645,36213 1855,36213 2065,36213 2244,36164 2426,36058 2519,36004 2592,35947 2667,35870 L 36249,2490 C 36331,2410 36391,2333 36448,2234 36553,2050 36601,1870 36601,1658 36601,1445 36553,1265 36448,1081 36343,898 36212,766 36030,660 35848,554 35670,505 35460,505 35451,505 35444,505 35435,506 35233,510 35063,558 34889,660 Z"/>
       </g>
      </g>
     </g>
    </g>
   </g>
  </g>
 </g>
</svg>