<?xml version="1.0" encoding="utf-8"?>
<!-- Created by sK1 2.0rc4 (https://sk1project.net/) -->
<svg xmlns="http://www.w3.org/2000/svg" height="832.677165354pt" viewBox="0 0 832.677165354 832.677165354" width="832.677165354pt" version="1.1" xmlns:xlink="http://www.w3.org/1999/xlink" id="cbef9f2e-b2a0-11ea-be2e-a0f3c11e789f">

<g>
	<path style="fill:none;" d="M -655.2007,-315.5622 L -655.2007,520.2265 172.0426,520.2265 172.0426,-315.5622 -655.2007,-315.5622 Z" />
	<path style="fill:none;" d="M -653.6462,-313.9916 L -653.6462,518.6559 170.4881,518.6559 170.4881,-313.9916 -653.6462,-313.9916 Z" />
	<path style="fill-rule:evenodd;fill:#2d2c2b;" d="M 787.7849,7.1269 C 785.6567,8.3754 783.9861,9.6933 782.2698,11.4736 L 13.7698,783.2417 C 11.8932,785.0914 10.5202,786.8717 9.2158,789.1606 6.8129,793.4148 5.7145,797.5765 5.7145,802.4781 5.7145,807.4028 6.8129,811.5645 9.2158,815.8187 11.6186,820.0498 14.5936,823.1018 18.7585,825.5526 22.9235,828.0033 27.0198,829.1363 31.8255,829.1363 36.6312,829.1363 40.7274,828.0033 44.8924,825.5526 47.0206,824.304 48.6912,822.9862 50.4075,821.2059 L 818.9075,49.4377 C 820.7841,47.5881 822.1571,45.8078 823.4615,43.5188 825.8644,39.2646 826.9628,35.1029 826.9628,30.2013 826.9628,25.2766 825.8644,21.1149 823.4615,16.8607 821.0587,12.6296 818.0608,9.5777 813.8959,7.1269 809.7309,4.6761 805.6575,3.5432 800.8518,3.5432 800.6459,3.5432 800.4857,3.5432 800.2797,3.5663 795.6571,3.6588 791.7668,4.7686 787.7849,7.1269 Z" />
	<path style="fill-rule:evenodd;fill:#2d2c2b;" d="M 515.6451,411.6286 C 518.618,415.5321 520.7549,419.8218 522.2467,424.7919 524.3872,431.9669 524.6101,438.5189 522.9156,445.9301 L 522.9156,445.9301 C 522.7372,446.725 522.5589,447.3909 522.3359,448.1643 520.0171,456.2844 516.026,462.7505 509.6047,468.8514 503.2056,474.9522 496.2714,478.8404 487.4867,481.2894 479.5492,483.502 472.3698,483.9102 464.3208,482.5998 L 464.3208,482.5998 C 463.4512,482.4709 462.7377,482.342 461.8905,482.1487 457.2484,481.1749 453.1204,479.7595 449.3107,477.8112 L 398.7441,528.2616 C 418.7325,529.4593 437.7939,527.2674 458.3231,521.5465 488.3785,513.1685 512.0573,499.8498 533.9969,478.9908 555.9142,458.1319 569.5373,436.0055 577.4971,408.2723 578.2551,405.5871 578.8349,403.31 579.4591,400.6033 L 579.4591,400.6033 C 583.8366,381.4947 584.5017,364.0275 581.3874,346.0372 L 515.6451,411.6286 515.6451,411.6286 Z M 305.7229,432.3301 C 299.3574,432.9586 293.0386,432.7141 286.2844,431.6232 L 286.2844,431.6232 C 285.0804,431.4299 284.077,431.2365 282.9176,431.0002 270.4094,428.3579 260.5321,423.503 251.3683,415.4473 250.6325,414.8243 250.0528,414.2873 249.3616,413.6213 L 249.3616,413.6213 C 249.8744,415.6621 250.3427,417.3592 250.9447,419.357 256.068,436.3849 263.3852,451.0632 273.564,464.4149 L 305.7229,432.3298 305.7229,432.3301 Z M 616.9524,310.5534 C 675.9674,338.9728 732.0068,380.5246 782.1295,435.4473 792.6826,447.0111 810.6119,447.8303 822.1756,437.2772 833.7394,426.7241 834.5587,408.7948 824.0055,397.231 774.0952,342.541 718.3562,299.5317 659.2201,268.3826 L 616.9524,310.5535 616.9524,310.5534 Z M 520.3828,218.1619 C 486.1334,211.0154 451.4212,207.4276 416.6393,207.4276 269.7448,207.4276 123.908,271.4188 8.7081,397.1932 -1.8659,408.7378 -1.0791,426.6686 10.4656,437.2426 22.0102,447.8166 39.9409,447.0298 50.515,435.4851 118.1338,361.6594 196.3572,311.9899 278.0432,285.892 L 278.0426,285.8918 C 270.0379,295.9018 263.6281,306.5321 258.0572,318.8216 L 258.0572,318.8216 C 265.6825,313.2578 273.1072,309.6703 282.3825,307.071 293.6422,303.9347 303.8093,303.3547 315.2473,305.2021 L 315.2473,305.2021 C 316.4513,305.3954 317.477,305.5888 318.681,305.8466 331.1892,308.4888 341.0665,313.3437 350.2303,321.378 359.4164,329.4122 365.1466,338.2198 368.5356,349.5193 370.3445,355.562 371.1839,361.2882 371.0675,367.1353 L 520.3828,218.162 520.3828,218.1619 Z" />
	<path style="fill-rule:evenodd;fill:#2d2c2b;" d="M 312.9088,613.9002 C 347.1663,621.0155 381.874,624.5874 416.6393,624.5874 563.5014,624.5874 709.147,560.8436 823.9704,435.4878 834.5447,423.9435 833.7584,406.0127 822.2141,395.4384 810.6698,384.864 792.739,385.6503 782.1646,397.1946 677.2753,511.7052 546.449,567.8945 416.6393,567.8945 398.5305,567.8945 380.3977,566.801 362.3142,564.6081 L 312.9088,613.9 312.9088,613.9002 Z M 216.191,521.6565 C 157.0355,493.3329 100.8163,451.9114 50.4797,397.1568 39.8845,385.6317 21.9523,384.8778 10.4272,395.473 -1.098,406.0683 -1.8519,424.0004 8.7434,435.5256 58.819,489.9963 114.6784,532.8329 173.8922,563.8584 L 216.1911,521.6564 216.191,521.6565 Z" />
</g>
</svg>