<?xml version="1.0" encoding="UTF-8"?>
<!DOCTYPE svg PUBLIC "-//W3C//DTD SVG 1.1//EN" "http://www.w3.org/Graphics/SVG/1.1/DTD/svg11.dtd">
<svg version="1.2" width="367.19mm" height="367.19mm" viewBox="0 0 36719 36719" preserveAspectRatio="xMidYMid" fill-rule="evenodd" stroke-width="28.222" stroke-linejoin="round" xmlns="http://www.w3.org/2000/svg" xmlns:ooo="http://xml.openoffice.org/svg/export" xmlns:xlink="http://www.w3.org/1999/xlink" xmlns:presentation="http://sun.com/xmlns/staroffice/presentation" xmlns:smil="http://www.w3.org/2001/SMIL20/" xmlns:anim="urn:oasis:names:tc:opendocument:xmlns:animation:1.0" xml:space="preserve">
 <defs class="ClipPathGroup">
  <clipPath id="presentation_clip_path" clipPathUnits="userSpaceOnUse">
   <rect x="0" y="0" width="36719" height="36719"/>
  </clipPath>
  <clipPath id="presentation_clip_path_shrink" clipPathUnits="userSpaceOnUse">
   <rect x="36" y="36" width="36646" height="36646"/>
  </clipPath>
 </defs>
 <defs class="TextShapeIndex">
  <g ooo:slide="id1" ooo:id-list="id3"/>
 </defs>
 <defs class="EmbeddedBulletChars">
  <g id="bullet-char-template-57356" transform="scale(0.00048828125,-0.00048828125)">
   <path d="M 580,1141 L 1163,571 580,0 -4,571 580,1141 Z"/>
  </g>
  <g id="bullet-char-template-57354" transform="scale(0.00048828125,-0.00048828125)">
   <path d="M 8,1128 L 1137,1128 1137,0 8,0 8,1128 Z"/>
  </g>
  <g id="bullet-char-template-10146" transform="scale(0.00048828125,-0.00048828125)">
   <path d="M 174,0 L 602,739 174,1481 1456,739 174,0 Z M 1358,739 L 309,1346 659,739 1358,739 Z"/>
  </g>
  <g id="bullet-char-template-10132" transform="scale(0.00048828125,-0.00048828125)">
   <path d="M 2015,739 L 1276,0 717,0 1260,543 174,543 174,936 1260,936 717,1481 1274,1481 2015,739 Z"/>
  </g>
  <g id="bullet-char-template-10007" transform="scale(0.00048828125,-0.00048828125)">
   <path d="M 0,-2 C -7,14 -16,27 -25,37 L 356,567 C 262,823 215,952 215,954 215,979 228,992 255,992 264,992 276,990 289,987 310,991 331,999 354,1012 L 381,999 492,748 772,1049 836,1024 860,1049 C 881,1039 901,1025 922,1006 886,937 835,863 770,784 769,783 710,716 594,584 L 774,223 C 774,196 753,168 711,139 L 727,119 C 717,90 699,76 672,76 641,76 570,178 457,381 L 164,-76 C 142,-110 111,-127 72,-127 30,-127 9,-110 8,-76 1,-67 -2,-52 -2,-32 -2,-23 -1,-13 0,-2 Z"/>
  </g>
  <g id="bullet-char-template-10004" transform="scale(0.00048828125,-0.00048828125)">
   <path d="M 285,-33 C 182,-33 111,30 74,156 52,228 41,333 41,471 41,549 55,616 82,672 116,743 169,778 240,778 293,778 328,747 346,684 L 369,508 C 377,444 397,411 428,410 L 1163,1116 C 1174,1127 1196,1133 1229,1133 1271,1133 1292,1118 1292,1087 L 1292,965 C 1292,929 1282,901 1262,881 L 442,47 C 390,-6 338,-33 285,-33 Z"/>
  </g>
  <g id="bullet-char-template-9679" transform="scale(0.00048828125,-0.00048828125)">
   <path d="M 813,0 C 632,0 489,54 383,161 276,268 223,411 223,592 223,773 276,916 383,1023 489,1130 632,1184 813,1184 992,1184 1136,1130 1245,1023 1353,916 1407,772 1407,592 1407,412 1353,268 1245,161 1136,54 992,0 813,0 Z"/>
  </g>
  <g id="bullet-char-template-8226" transform="scale(0.00048828125,-0.00048828125)">
   <path d="M 346,457 C 273,457 209,483 155,535 101,586 74,649 74,723 74,796 101,859 155,911 209,963 273,989 346,989 419,989 480,963 531,910 582,859 608,796 608,723 608,648 583,586 532,535 482,483 420,457 346,457 Z"/>
  </g>
  <g id="bullet-char-template-8211" transform="scale(0.00048828125,-0.00048828125)">
   <path d="M -4,459 L 1135,459 1135,606 -4,606 -4,459 Z"/>
  </g>
  <g id="bullet-char-template-61548" transform="scale(0.00048828125,-0.00048828125)">
   <path d="M 173,740 C 173,903 231,1043 346,1159 462,1274 601,1332 765,1332 928,1332 1067,1274 1183,1159 1299,1043 1357,903 1357,740 1357,577 1299,437 1183,322 1067,206 928,148 765,148 601,148 462,206 346,322 231,437 173,577 173,740 Z"/>
  </g>
 </defs>
 <defs class="TextEmbeddedBitmaps"/>
 <g>
  <g id="id2" class="Master_Slide">
   <g id="bg-id2" class="Background"/>
   <g id="bo-id2" class="BackgroundObjects"/>
  </g>
 </g>
 <g class="SlideGroup">
  <g>
   <g id="container-id1">
    <g id="id1" class="Slide" clip-path="url(#presentation_clip_path)">
     <g class="Page">
      <g class="Graphic">
       <g id="id3">
        <rect class="BoundingBox" stroke="none" fill="none" x="69" y="69" width="36581" height="36581"/>
        <path fill="rgb(0,0,0)" stroke="none" d="M 5802,19844 C 7281,20227 7662,20353 8451,20856 9241,21358 10493,22238 14062,24281 21015,28262 26984,26166 31017,25539 33039,25224 34121,25367 34791,25714 35127,25888 35348,26129 35460,26349 35573,26569 35579,26826 35579,26826 35571,27136 35321,27386 35008,27397 34695,27409 34427,27177 34396,26869 34384,26850 34348,26811 34242,26756 33953,26606 33096,26405 31201,26699 28102,27182 23972,28267 18127,27150 17059,27705 16040,28292 15597,28020 16458,27985 17054,27086 16814,26789 16487,26593 16208,26578 16007,26612 14702,26833 15186,27009 10559,26928 8860,26664 15712,26653 14366,25510 10068,25036 5596,22936 7680,23478 10699,24058 11319,23914 10668,23342 9354,21953 6230,20213 5644,20362 2937,21051 3029,20894 5644,19823 5697,19823 5750,19830 5802,19844 Z"/>
        <path fill="rgb(0,0,0)" stroke="none" d="M 803,15474 C 3149,17704 4368,18314 8013,18932 9545,17886 5207,19696 334,11595 3143,13968 5614,16874 9232,17420 9532,17492 9812,17383 10041,17356 11392,17199 12023,17271 10237,16663 10008,16567 6236,15165 3115,9745 2770,8881 2863,8838 3232,9424 6492,14602 12242,15935 12717,15905 13002,15886 13296,15863 13593,15837 10562,14883 8386,12336 7573,9419 7479,9037 8084,9992 8400,10362 9894,12542 10695,14107 12819,14377 14253,14528 15519,14609 16346,14647 14816,13761 12024,11228 11288,8630 11298,8629 11497,8983 12017,9535 15478,13211 15691,13494 18800,13654 19965,13714 21116,14116 21072,14032 19500,12967 16906,11588 17659,9517 17941,11673 19811,12228 21178,13169 25064,15685 23415,13607 23203,10642 24283,13888 24571,14775 25610,15543 27372,16349 30373,15131 31917,14169 32297,13924 32476,13645 32472,13695 32452,13974 32428,14005 32218,14299 31065,15916 27565,16608 27716,16712 28330,17132 28920,17585 29472,18044 29856,17976 30039,17887 30343,17840 32258,17540 32790,17640 34891,16316 35110,16177 35394,16085 35712,15940 35889,15860 35680,15991 35403,16383 34499,17660 32443,18617 30164,18675 30885,19328 31407,19742 32037,20425 34668,23277 36427,26116 36427,26116 36512,26249 36539,26410 36503,26563 36468,26717 36371,26849 36236,26932 36100,27014 35937,27039 35783,27001 35629,26964 35497,26866 35415,26731 34461,23543 31166,20425 22065,17198 18376,16868 15785,17418 12713,18729 11176,19384 9659,19945 8134,20101 6609,20256 5065,19977 3632,18982 1298,17329 -898,13541 803,15474 Z M 17331,14666 C 17332,14668 17333,14671 17333,14673 17359,14672 17358,14669 17331,14666 Z"/>
        <path fill="rgb(0,0,0)" stroke="none" d="M 21606,15671 L 21606,15671 C 20804,15672 20121,15841 19426,16212 18730,16583 18231,17045 17829,17688 17573,18098 17419,18479 17322,18944 L 17322,18944 C 17463,18793 17605,18684 17792,18584 18080,18430 18364,18360 18697,18360 L 18697,18360 C 18697,18360 18697,18360 18697,18360 19030,18360 19314,18430 19603,18584 19892,18738 20099,18930 20266,19197 20433,19464 20509,19726 20509,20034 20509,20034 20509,20034 20509,20034 L 20509,20034 C 20509,20034 20509,20034 20509,20034 20509,20343 20433,20605 20266,20872 20099,21139 19892,21331 19603,21485 19314,21639 19030,21709 18697,21709 18697,21709 18697,21709 18697,21709 L 18697,21709 C 18364,21709 18081,21638 17793,21485 17742,21458 17701,21433 17653,21402 L 17653,21402 C 17711,21517 17764,21611 17832,21721 18234,22364 18734,22826 19430,23197 20124,23567 20805,23736 21606,23737 L 21606,23737 C 21606,23737 21606,23737 21606,23737 22410,23737 23093,23568 23789,23197 24484,22826 24984,22364 25386,21721 25788,21078 25971,20447 25971,19704 25971,19704 25971,19704 25971,19704 L 25971,19704 C 25971,19704 25971,19704 25971,19704 25971,18962 25788,18331 25386,17688 24984,17045 24484,16583 23789,16212 23093,15840 22410,15671 21606,15671 21606,15671 21606,15671 21606,15671 L 21606,15671 Z M 23521,19917 L 23521,19917 C 23521,19917 23521,19917 23521,19917 23755,19917 23955,19966 24159,20075 24362,20183 24508,20318 24626,20506 24743,20694 24797,20879 24797,21096 24797,21096 24797,21096 24797,21096 L 24797,21096 C 24797,21313 24743,21497 24626,21685 24508,21873 24362,22008 24159,22117 23955,22226 23755,22275 23521,22275 23521,22275 23521,22275 23521,22275 L 23521,22275 C 23286,22275 23086,22226 22882,22117 22679,22008 22533,21873 22415,21685 22298,21497 22244,21313 22244,21096 L 22244,21096 C 22244,21096 22244,21096 22244,21096 22244,20879 22298,20694 22415,20506 22533,20318 22679,20183 22882,20075 23086,19966 23286,19917 23521,19917 L 23521,19917 Z"/>
        <path fill="rgb(0,0,0)" stroke="none" d="M 16194,17013 C 16079,17477 15746,19007 15746,19493 15746,21080 16383,22603 17517,23725 18650,24848 20188,25478 21791,25478 23394,25478 24931,24848 26065,23725 27199,22603 27769,20685 27769,19098 27769,18993 27759,18889 27753,18785 27805,18830 27858,18874 27909,18919 28197,19173 28476,19436 28749,19704 28605,21334 27957,23266 26779,24433 25457,25743 23662,26479 21791,26479 19920,26479 18125,25743 16802,24433 15480,23123 14736,21345 14736,19493 14736,19178 15031,17814 15073,17505 15446,17341 15818,17178 16194,17013 Z"/>
       </g>
      </g>
     </g>
    </g>
   </g>
  </g>
 </g>
</svg>