<?xml version="1.0" encoding="UTF-8"?>
<!DOCTYPE svg PUBLIC "-//W3C//DTD SVG 1.1//EN" "http://www.w3.org/Graphics/SVG/1.1/DTD/svg11.dtd">
<svg version="1.2" width="367.19mm" height="367.19mm" viewBox="0 0 36719 36719" preserveAspectRatio="xMidYMid" fill-rule="evenodd" stroke-width="28.222" stroke-linejoin="round" xmlns="http://www.w3.org/2000/svg" xmlns:ooo="http://xml.openoffice.org/svg/export" xmlns:xlink="http://www.w3.org/1999/xlink" xmlns:presentation="http://sun.com/xmlns/staroffice/presentation" xmlns:smil="http://www.w3.org/2001/SMIL20/" xmlns:anim="urn:oasis:names:tc:opendocument:xmlns:animation:1.0" xml:space="preserve">
 <defs class="ClipPathGroup">
  <clipPath id="presentation_clip_path" clipPathUnits="userSpaceOnUse">
   <rect x="0" y="0" width="36719" height="36719"/>
  </clipPath>
  <clipPath id="presentation_clip_path_shrink" clipPathUnits="userSpaceOnUse">
   <rect x="36" y="36" width="36646" height="36646"/>
  </clipPath>
 </defs>
 <defs class="TextShapeIndex">
  <g ooo:slide="id1" ooo:id-list="id3"/>
 </defs>
 <defs class="EmbeddedBulletChars">
  <g id="bullet-char-template-57356" transform="scale(0.00048828125,-0.00048828125)">
   <path d="M 580,1141 L 1163,571 580,0 -4,571 580,1141 Z"/>
  </g>
  <g id="bullet-char-template-57354" transform="scale(0.00048828125,-0.00048828125)">
   <path d="M 8,1128 L 1137,1128 1137,0 8,0 8,1128 Z"/>
  </g>
  <g id="bullet-char-template-10146" transform="scale(0.00048828125,-0.00048828125)">
   <path d="M 174,0 L 602,739 174,1481 1456,739 174,0 Z M 1358,739 L 309,1346 659,739 1358,739 Z"/>
  </g>
  <g id="bullet-char-template-10132" transform="scale(0.00048828125,-0.00048828125)">
   <path d="M 2015,739 L 1276,0 717,0 1260,543 174,543 174,936 1260,936 717,1481 1274,1481 2015,739 Z"/>
  </g>
  <g id="bullet-char-template-10007" transform="scale(0.00048828125,-0.00048828125)">
   <path d="M 0,-2 C -7,14 -16,27 -25,37 L 356,567 C 262,823 215,952 215,954 215,979 228,992 255,992 264,992 276,990 289,987 310,991 331,999 354,1012 L 381,999 492,748 772,1049 836,1024 860,1049 C 881,1039 901,1025 922,1006 886,937 835,863 770,784 769,783 710,716 594,584 L 774,223 C 774,196 753,168 711,139 L 727,119 C 717,90 699,76 672,76 641,76 570,178 457,381 L 164,-76 C 142,-110 111,-127 72,-127 30,-127 9,-110 8,-76 1,-67 -2,-52 -2,-32 -2,-23 -1,-13 0,-2 Z"/>
  </g>
  <g id="bullet-char-template-10004" transform="scale(0.00048828125,-0.00048828125)">
   <path d="M 285,-33 C 182,-33 111,30 74,156 52,228 41,333 41,471 41,549 55,616 82,672 116,743 169,778 240,778 293,778 328,747 346,684 L 369,508 C 377,444 397,411 428,410 L 1163,1116 C 1174,1127 1196,1133 1229,1133 1271,1133 1292,1118 1292,1087 L 1292,965 C 1292,929 1282,901 1262,881 L 442,47 C 390,-6 338,-33 285,-33 Z"/>
  </g>
  <g id="bullet-char-template-9679" transform="scale(0.00048828125,-0.00048828125)">
   <path d="M 813,0 C 632,0 489,54 383,161 276,268 223,411 223,592 223,773 276,916 383,1023 489,1130 632,1184 813,1184 992,1184 1136,1130 1245,1023 1353,916 1407,772 1407,592 1407,412 1353,268 1245,161 1136,54 992,0 813,0 Z"/>
  </g>
  <g id="bullet-char-template-8226" transform="scale(0.00048828125,-0.00048828125)">
   <path d="M 346,457 C 273,457 209,483 155,535 101,586 74,649 74,723 74,796 101,859 155,911 209,963 273,989 346,989 419,989 480,963 531,910 582,859 608,796 608,723 608,648 583,586 532,535 482,483 420,457 346,457 Z"/>
  </g>
  <g id="bullet-char-template-8211" transform="scale(0.00048828125,-0.00048828125)">
   <path d="M -4,459 L 1135,459 1135,606 -4,606 -4,459 Z"/>
  </g>
  <g id="bullet-char-template-61548" transform="scale(0.00048828125,-0.00048828125)">
   <path d="M 173,740 C 173,903 231,1043 346,1159 462,1274 601,1332 765,1332 928,1332 1067,1274 1183,1159 1299,1043 1357,903 1357,740 1357,577 1299,437 1183,322 1067,206 928,148 765,148 601,148 462,206 346,322 231,437 173,577 173,740 Z"/>
  </g>
 </defs>
 <defs class="TextEmbeddedBitmaps"/>
 <g>
  <g id="id2" class="Master_Slide">
   <g id="bg-id2" class="Background"/>
   <g id="bo-id2" class="BackgroundObjects"/>
  </g>
 </g>
 <g class="SlideGroup">
  <g>
   <g id="container-id1">
    <g id="id1" class="Slide" clip-path="url(#presentation_clip_path)">
     <g class="Page">
      <g class="Graphic">
       <g id="id3">
        <rect class="BoundingBox" stroke="none" fill="none" x="69" y="69" width="36581" height="36581"/>
        <path fill="rgb(0,0,0)" stroke="none" d="M 30950,19823 C 30897,19823 30845,19830 30794,19844 29329,20227 28952,20353 28170,20856 27389,21358 26149,22238 22614,24281 15729,28262 9818,26166 5824,25539 3822,25224 2751,25367 2087,25714 1755,25888 1536,26129 1424,26349 1313,26569 1307,26826 1307,26826 1315,27136 1562,27386 1872,27397 2182,27409 2448,27177 2478,26869 2491,26850 2526,26811 2631,26756 2917,26606 3766,26405 5642,26699 8711,27182 12800,28267 18589,27150 19646,27705 20656,28292 21094,28020 20242,27985 19651,27086 19889,26789 20212,26593 20489,26578 20688,26612 21980,26833 21501,27009 26083,26928 27765,26664 20980,26653 22313,25510 26569,25036 30997,22936 28934,23478 25945,24058 25330,23914 25975,23342 27276,21953 30369,20213 30950,20362 33631,21051 33540,20894 30950,19823 L 30950,19823 Z"/>
        <path fill="rgb(0,0,0)" stroke="none" d="M 28604,18932 C 27088,17886 31383,19696 36208,11595 33427,13968 30980,16874 27397,17420 27099,17492 26823,17383 26596,17356 25258,17199 24633,17271 26402,16663 26628,16567 30364,15165 33455,9745 33796,8881 33704,8838 33339,9424 30110,14602 24417,15935 23946,15905 23664,15886 23372,15863 23079,15837 26080,14883 28235,12336 29040,9419 29133,9037 28534,9992 28221,10362 26742,12542 25949,14107 23845,14377 22425,14528 21171,14609 20353,14647 21867,13761 24632,11228 25361,8630 25351,8629 25154,8983 24639,9535 21212,13211 21001,13494 17923,13654 16769,13714 15629,14116 15672,14032 17229,12967 19798,11588 19052,9517 18773,11673 16922,12228 15567,13169 11719,15685 13352,13607 13562,10642 12493,13888 12207,14775 11178,15543 9433,16349 6462,15131 4933,14169 4557,13924 4380,13645 4383,13695 4404,13974 4428,14005 4635,14299 5777,15916 9243,16608 9093,16712 8485,17132 7901,17585 7354,18044 6974,17976 6792,17887 6492,17840 4595,17540 4068,17640 1988,16316 1771,16177 1490,16085 1175,15940 1000,15860 1207,15991 1481,16383 2376,17660 4412,18617 6669,18675 5955,19328 5438,19742 4814,20425 2209,23277 468,26116 468,26116 383,26249 356,26410 391,26563 427,26717 522,26849 656,26932 790,27014 952,27039 1105,27001 1257,26964 1388,26866 1469,26731 2414,23543 5677,20425 14690,17198 18342,16868 20908,17418 23950,18729 25472,19384 26974,19945 28484,20101 29994,20256 31524,19977 32942,18982 35254,17329 37428,13541 35744,15474 33421,17704 32214,18314 28604,18932 Z M 19377,14666 C 19376,14668 19375,14671 19375,14673 19350,14672 19350,14669 19377,14666 Z"/>
        <path fill="rgb(0,0,0)" stroke="none" d="M 15066,15671 L 15066,15671 C 14325,15672 13694,15841 13052,16212 12409,16583 11947,17045 11576,17688 11339,18098 11197,18479 11108,18944 L 11108,18944 C 11237,18793 11369,18684 11541,18584 11808,18430 12070,18360 12378,18360 L 12378,18360 C 12378,18360 12378,18360 12378,18360 12686,18360 12948,18430 13215,18584 13482,18738 13674,18930 13828,19197 13982,19464 14052,19726 14052,20034 14052,20034 14052,20034 14052,20034 L 14052,20034 C 14052,20034 14052,20034 14052,20034 14052,20343 13982,20605 13828,20872 13674,21139 13482,21331 13215,21485 12948,21639 12686,21709 12378,21709 12378,21709 12378,21709 12378,21709 L 12378,21709 C 12070,21709 11809,21638 11542,21485 11496,21458 11457,21433 11413,21402 L 11413,21402 C 11466,21517 11516,21611 11579,21721 11950,22364 12412,22826 13055,23197 13696,23567 14326,23736 15066,23737 L 15066,23737 C 15066,23737 15066,23737 15066,23737 15809,23737 16440,23568 17083,23197 17726,22826 18188,22364 18559,21721 18930,21078 19100,20447 19100,19704 19100,19704 19100,19704 19100,19704 L 19100,19704 C 19100,19704 19100,19704 19100,19704 19100,18962 18930,18331 18559,17688 18188,17045 17726,16583 17083,16212 16440,15840 15809,15671 15066,15671 15066,15671 15066,15671 15066,15671 L 15066,15671 Z M 16835,19917 L 16835,19917 C 16835,19917 16835,19917 16835,19917 17052,19917 17237,19966 17425,20075 17613,20183 17748,20318 17857,20506 17965,20694 18015,20879 18015,21096 18015,21096 18015,21096 18015,21096 L 18015,21096 C 18015,21313 17965,21497 17857,21685 17748,21873 17613,22008 17425,22117 17237,22226 17052,22275 16835,22275 16835,22275 16835,22275 16835,22275 L 16835,22275 C 16618,22275 16434,22226 16246,22117 16058,22008 15923,21873 15814,21685 15706,21497 15656,21313 15656,21096 L 15656,21096 C 15656,21096 15656,21096 15656,21096 15656,20879 15706,20694 15814,20506 15923,20318 16058,20183 16246,20075 16434,19966 16618,19917 16835,19917 L 16835,19917 Z"/>
        <path fill="rgb(0,0,0)" stroke="none" d="M 20503,17013 C 20617,17477 20946,19007 20946,19493 20946,21080 20316,22603 19193,23725 18070,24848 16548,25478 14960,25478 13373,25478 11851,24848 10728,23725 9605,22603 9041,20685 9041,19098 9041,18993 9051,18889 9056,18785 9005,18830 8953,18874 8902,18919 8617,19173 8341,19436 8070,19704 8212,21334 8854,23266 10021,24433 11331,25743 13108,26479 14960,26479 16813,26479 18590,25743 19900,24433 21210,23123 21947,21345 21947,19493 21947,19178 21654,17814 21613,17505 21243,17341 20875,17178 20503,17013 Z"/>
       </g>
      </g>
     </g>
    </g>
   </g>
  </g>
 </g>
</svg>