<?xml version="1.0" encoding="UTF-8"?>
<!DOCTYPE svg PUBLIC "-//W3C//DTD SVG 1.1//EN" "http://www.w3.org/Graphics/SVG/1.1/DTD/svg11.dtd">
<svg version="1.2" width="367.19mm" height="367.19mm" viewBox="0 0 36719 36719" preserveAspectRatio="xMidYMid" fill-rule="evenodd" stroke-width="28.222" stroke-linejoin="round" xmlns="http://www.w3.org/2000/svg" xmlns:ooo="http://xml.openoffice.org/svg/export" xmlns:xlink="http://www.w3.org/1999/xlink" xmlns:presentation="http://sun.com/xmlns/staroffice/presentation" xmlns:smil="http://www.w3.org/2001/SMIL20/" xmlns:anim="urn:oasis:names:tc:opendocument:xmlns:animation:1.0" xml:space="preserve">
 <defs class="ClipPathGroup">
  <clipPath id="presentation_clip_path" clipPathUnits="userSpaceOnUse">
   <rect x="0" y="0" width="36719" height="36719"/>
  </clipPath>
  <clipPath id="presentation_clip_path_shrink" clipPathUnits="userSpaceOnUse">
   <rect x="36" y="36" width="36646" height="36646"/>
  </clipPath>
 </defs>
 <defs class="TextShapeIndex">
  <g ooo:slide="id1" ooo:id-list="id3"/>
 </defs>
 <defs class="EmbeddedBulletChars">
  <g id="bullet-char-template-57356" transform="scale(0.00048828125,-0.00048828125)">
   <path d="M 580,1141 L 1163,571 580,0 -4,571 580,1141 Z"/>
  </g>
  <g id="bullet-char-template-57354" transform="scale(0.00048828125,-0.00048828125)">
   <path d="M 8,1128 L 1137,1128 1137,0 8,0 8,1128 Z"/>
  </g>
  <g id="bullet-char-template-10146" transform="scale(0.00048828125,-0.00048828125)">
   <path d="M 174,0 L 602,739 174,1481 1456,739 174,0 Z M 1358,739 L 309,1346 659,739 1358,739 Z"/>
  </g>
  <g id="bullet-char-template-10132" transform="scale(0.00048828125,-0.00048828125)">
   <path d="M 2015,739 L 1276,0 717,0 1260,543 174,543 174,936 1260,936 717,1481 1274,1481 2015,739 Z"/>
  </g>
  <g id="bullet-char-template-10007" transform="scale(0.00048828125,-0.00048828125)">
   <path d="M 0,-2 C -7,14 -16,27 -25,37 L 356,567 C 262,823 215,952 215,954 215,979 228,992 255,992 264,992 276,990 289,987 310,991 331,999 354,1012 L 381,999 492,748 772,1049 836,1024 860,1049 C 881,1039 901,1025 922,1006 886,937 835,863 770,784 769,783 710,716 594,584 L 774,223 C 774,196 753,168 711,139 L 727,119 C 717,90 699,76 672,76 641,76 570,178 457,381 L 164,-76 C 142,-110 111,-127 72,-127 30,-127 9,-110 8,-76 1,-67 -2,-52 -2,-32 -2,-23 -1,-13 0,-2 Z"/>
  </g>
  <g id="bullet-char-template-10004" transform="scale(0.00048828125,-0.00048828125)">
   <path d="M 285,-33 C 182,-33 111,30 74,156 52,228 41,333 41,471 41,549 55,616 82,672 116,743 169,778 240,778 293,778 328,747 346,684 L 369,508 C 377,444 397,411 428,410 L 1163,1116 C 1174,1127 1196,1133 1229,1133 1271,1133 1292,1118 1292,1087 L 1292,965 C 1292,929 1282,901 1262,881 L 442,47 C 390,-6 338,-33 285,-33 Z"/>
  </g>
  <g id="bullet-char-template-9679" transform="scale(0.00048828125,-0.00048828125)">
   <path d="M 813,0 C 632,0 489,54 383,161 276,268 223,411 223,592 223,773 276,916 383,1023 489,1130 632,1184 813,1184 992,1184 1136,1130 1245,1023 1353,916 1407,772 1407,592 1407,412 1353,268 1245,161 1136,54 992,0 813,0 Z"/>
  </g>
  <g id="bullet-char-template-8226" transform="scale(0.00048828125,-0.00048828125)">
   <path d="M 346,457 C 273,457 209,483 155,535 101,586 74,649 74,723 74,796 101,859 155,911 209,963 273,989 346,989 419,989 480,963 531,910 582,859 608,796 608,723 608,648 583,586 532,535 482,483 420,457 346,457 Z"/>
  </g>
  <g id="bullet-char-template-8211" transform="scale(0.00048828125,-0.00048828125)">
   <path d="M -4,459 L 1135,459 1135,606 -4,606 -4,459 Z"/>
  </g>
  <g id="bullet-char-template-61548" transform="scale(0.00048828125,-0.00048828125)">
   <path d="M 173,740 C 173,903 231,1043 346,1159 462,1274 601,1332 765,1332 928,1332 1067,1274 1183,1159 1299,1043 1357,903 1357,740 1357,577 1299,437 1183,322 1067,206 928,148 765,148 601,148 462,206 346,322 231,437 173,577 173,740 Z"/>
  </g>
 </defs>
 <defs class="TextEmbeddedBitmaps"/>
 <g>
  <g id="id2" class="Master_Slide">
   <g id="bg-id2" class="Background"/>
   <g id="bo-id2" class="BackgroundObjects"/>
  </g>
 </g>
 <g class="SlideGroup">
  <g>
   <g id="container-id1">
    <g id="id1" class="Slide" clip-path="url(#presentation_clip_path)">
     <g class="Page">
      <g class="Graphic">
       <g id="id3">
        <rect class="BoundingBox" stroke="none" fill="none" x="140" y="140" width="36580" height="36580"/>
        <defs>
         <clipPath id="clip_path_1" clipPathUnits="userSpaceOnUse">
          <path d="M 140,140 L 36719,140 36719,36719 140,36719 140,140 Z"/>
         </clipPath>
        </defs>
        <g clip-path="url(#clip_path_1)">
         <path fill="rgb(0,0,0)" stroke="none" d="M 34184,210 C 33063,201 31754,728 30429,1614 29411,2294 28463,3177 26140,5587 24373,7420 23384,8441 22820,8991 22538,9266 22359,9424 22265,9493 22259,9498 22258,9499 22253,9503 17418,8408 14705,7649 9786,6543 9767,6539 9752,6536 9733,6534 9526,6511 8922,6389 8194,6221 7466,6053 6588,5840 5731,5630 4874,5420 4036,5214 3382,5059 3056,4982 2775,4917 2558,4871 2340,4825 2252,4791 2052,4791 1524,4791 1017,4984 755,5412 L 755,5412 755,5412 C 622,5629 499,5929 589,6233 679,6536 872,6706 1111,6923 L 1111,6923 1111,6923 C 1542,7313 2402,7900 3661,8702 4920,9504 6558,10498 8458,11611 10171,12613 14585,15126 15840,15813 15905,15849 15967,15883 16026,15917 15809,16144 15512,16452 15154,16820 14395,17602 13379,18644 12355,19689 11332,20734 10302,21783 9513,22582 9118,22982 8784,23319 8542,23561 8421,23682 8323,23779 8254,23848 8208,23893 8159,23936 8145,23949 8033,24015 7471,24216 6994,24247 6762,24262 5908,24231 5102,24163 4141,24081 3415,24040 2868,24041 2322,24042 1972,24054 1645,24214 1386,24340 1169,24534 933,24759 696,24984 480,25213 332,25454 L 332,25454 C 217,25641 86,25827 147,26140 177,26296 279,26438 376,26519 473,26601 566,26644 659,26683 659,26683 659,26683 659,26683 659,26683 659,26683 659,26683 1433,27006 3873,27839 4964,28158 6485,28719 7213,29005 7619,29406 8026,29809 8255,30452 8680,31907 8680,31907 8680,31908 8681,31908 8879,32577 9236,33638 9561,34556 9723,35015 9877,35436 9999,35755 10060,35915 10113,36048 10158,36151 10180,36203 10200,36247 10221,36290 10242,36332 10219,36345 10342,36467 10469,36593 10658,36645 10796,36642 10934,36638 11040,36601 11141,36557 11342,36469 11528,36336 11745,36156 12221,35762 12571,35321 12732,34828 12828,34535 12821,34242 12804,33739 12788,33235 12739,32550 12657,31629 12503,29909 12636,29039 12849,28717 12855,28712 12906,28651 12954,28602 13022,28533 13119,28434 13241,28313 13484,28071 13823,27737 14225,27342 15029,26552 16086,25521 17139,24497 18192,23473 19242,22456 20032,21697 20407,21336 20722,21035 20951,20817 20986,20878 21022,20941 21058,21008 21749,22257 24273,26651 25280,28356 26397,30249 27396,31879 28201,33132 29007,34385 29597,35242 29989,35671 30207,35909 30378,36101 30681,36190 30984,36279 31283,36158 31501,36026 31932,35764 32125,35252 32125,34715 32125,34678 32121,34647 32113,34611 30932,29404 29837,25573 28470,20317 27650,16078 27923,17559 27388,14632 27394,14624 27400,14616 27407,14606 27481,14508 27640,14329 27911,14053 28453,13501 29442,12554 31180,10897 34121,8095 34999,7109 35853,5628 36353,4759 36723,3612 36724,2757 36725,2030 36490,1457 35980,950 35636,608 35357,427 35002,324 34743,249 34470,212 34184,210 Z M 34232,1165 C 34423,1165 34594,1186 34740,1228 35002,1304 35005,1308 35316,1617 35721,2021 35783,2171 35782,2756 35781,3294 35445,4450 35037,5157 34230,6556 33460,7424 30530,10216 28791,11873 27804,12818 27239,13393 26956,13681 26780,13874 26655,14039 26531,14204 26432,14381 26432,14593 26432,14623 26434,14648 26439,14677 27018,17844 26708,16169 27548,20510 27550,20521 27552,20529 27555,20539 28922,25796 30011,29606 31183,34765 31176,35071 31103,35165 31012,35221 30972,35245 30948,35259 30932,35269 30897,35241 30812,35175 30684,35036 30409,34735 29789,33862 28993,32623 28197,31385 27203,29762 26091,27878 25094,26189 22555,21769 21883,20552 21775,20358 21673,20181 21589,20047 21547,19980 21511,19924 21476,19874 21458,19850 21442,19827 21415,19796 21401,19780 21386,19763 21351,19734 21317,19705 21286,19627 21055,19622 21055,19622 21055,19622 21055,19622 21055,19622 21054,19622 21054,19622 20901,19619 20872,19654 20842,19667 20813,19681 20799,19690 20788,19698 20765,19712 20756,19719 20747,19726 20730,19740 20719,19749 20707,19760 20682,19781 20655,19805 20621,19836 20553,19899 20460,19986 20342,20098 20106,20321 19775,20637 19379,21018 18587,21780 17537,22797 16483,23822 15429,24846 14371,25878 13565,26670 13162,27066 12822,27401 12576,27647 12453,27769 12354,27869 12281,27944 12207,28019 12197,28014 12116,28123 11587,28827 11555,29880 11719,31713 11801,32626 11848,33299 11863,33769 11878,34239 11837,34534 11837,34535 11752,34793 11525,35116 11144,35431 11070,35493 11002,35544 10943,35585 10923,35533 10902,35479 10878,35418 10761,35112 10609,34695 10448,34242 10127,33335 9771,32274 9584,31641 9156,30178 8905,29354 8281,28737 7657,28120 6805,27833 5277,27270 5266,27266 5256,27263 5245,27259 4299,26983 2016,26203 1183,25879 1265,25771 1422,25593 1582,25441 1781,25252 2024,25077 2058,25060 2071,25054 2373,24983 2870,24982 3366,24982 4075,25021 5022,25101 5855,25172 6649,25213 7054,25187 7700,25145 8309,25022 8743,24678 8834,24607 8839,24593 8913,24520 8987,24448 9086,24349 9208,24227 9453,23982 9788,23644 10183,23244 10973,22443 12004,21394 13028,20348 14052,19302 15069,18260 15830,17476 16210,17083 16527,16756 16750,16523 16861,16407 16948,16315 17010,16249 17041,16215 17065,16189 17086,16166 17096,16155 17104,16145 17117,16130 17123,16122 17130,16114 17143,16095 17150,16085 17158,16073 17173,16045 17187,16018 17231,16004 17227,15815 17222,15587 17145,15554 17116,15519 17087,15484 17069,15469 17053,15455 17022,15427 16999,15411 16974,15393 16924,15357 16868,15321 16800,15280 16665,15196 16488,15094 16292,14987 15070,14318 10630,11790 8934,10798 7041,9690 5411,8701 4167,7908 2923,7116 2046,6498 1743,6225 1606,6100 1540,6016 1511,5980 1521,5965 1535,5941 1558,5904 1612,5815 1721,5736 2038,5733 1987,5735 2172,5752 2363,5793 2567,5836 2843,5899 3166,5975 3812,6128 4649,6334 5507,6545 6365,6755 7245,6969 7982,7139 8699,7304 9257,7426 9602,7467 14534,8576 17250,9338 22180,10452 22216,10460 22247,10463 22283,10463 22476,10463 22664,10370 22828,10248 22992,10126 23183,9951 23477,9665 24065,9093 25050,8074 26818,6241 29132,3840 30022,3018 30952,2396 32196,1565 33405,1164 34232,1165 L 34232,1165 Z M 11054,35849 C 11097,35897 11069,35881 11063,35869 11061,35865 11057,35856 11054,35849 Z"/>
        </g>
       </g>
      </g>
     </g>
    </g>
   </g>
  </g>
 </g>
</svg>