<?xml version="1.0" encoding="UTF-8"?>
<!DOCTYPE svg PUBLIC "-//W3C//DTD SVG 1.1//EN" "http://www.w3.org/Graphics/SVG/1.1/DTD/svg11.dtd">
<svg version="1.2" width="367.19mm" height="367.19mm" viewBox="0 0 36719 36719" preserveAspectRatio="xMidYMid" fill-rule="evenodd" stroke-width="28.222" stroke-linejoin="round" xmlns="http://www.w3.org/2000/svg" xmlns:ooo="http://xml.openoffice.org/svg/export" xmlns:xlink="http://www.w3.org/1999/xlink" xmlns:presentation="http://sun.com/xmlns/staroffice/presentation" xmlns:smil="http://www.w3.org/2001/SMIL20/" xmlns:anim="urn:oasis:names:tc:opendocument:xmlns:animation:1.0" xml:space="preserve">
 <defs class="ClipPathGroup">
  <clipPath id="presentation_clip_path" clipPathUnits="userSpaceOnUse">
   <rect x="0" y="0" width="36719" height="36719"/>
  </clipPath>
  <clipPath id="presentation_clip_path_shrink" clipPathUnits="userSpaceOnUse">
   <rect x="36" y="36" width="36646" height="36646"/>
  </clipPath>
 </defs>
 <defs class="TextShapeIndex">
  <g ooo:slide="id1" ooo:id-list="id3"/>
 </defs>
 <defs class="EmbeddedBulletChars">
  <g id="bullet-char-template-57356" transform="scale(0.00048828125,-0.00048828125)">
   <path d="M 580,1141 L 1163,571 580,0 -4,571 580,1141 Z"/>
  </g>
  <g id="bullet-char-template-57354" transform="scale(0.00048828125,-0.00048828125)">
   <path d="M 8,1128 L 1137,1128 1137,0 8,0 8,1128 Z"/>
  </g>
  <g id="bullet-char-template-10146" transform="scale(0.00048828125,-0.00048828125)">
   <path d="M 174,0 L 602,739 174,1481 1456,739 174,0 Z M 1358,739 L 309,1346 659,739 1358,739 Z"/>
  </g>
  <g id="bullet-char-template-10132" transform="scale(0.00048828125,-0.00048828125)">
   <path d="M 2015,739 L 1276,0 717,0 1260,543 174,543 174,936 1260,936 717,1481 1274,1481 2015,739 Z"/>
  </g>
  <g id="bullet-char-template-10007" transform="scale(0.00048828125,-0.00048828125)">
   <path d="M 0,-2 C -7,14 -16,27 -25,37 L 356,567 C 262,823 215,952 215,954 215,979 228,992 255,992 264,992 276,990 289,987 310,991 331,999 354,1012 L 381,999 492,748 772,1049 836,1024 860,1049 C 881,1039 901,1025 922,1006 886,937 835,863 770,784 769,783 710,716 594,584 L 774,223 C 774,196 753,168 711,139 L 727,119 C 717,90 699,76 672,76 641,76 570,178 457,381 L 164,-76 C 142,-110 111,-127 72,-127 30,-127 9,-110 8,-76 1,-67 -2,-52 -2,-32 -2,-23 -1,-13 0,-2 Z"/>
  </g>
  <g id="bullet-char-template-10004" transform="scale(0.00048828125,-0.00048828125)">
   <path d="M 285,-33 C 182,-33 111,30 74,156 52,228 41,333 41,471 41,549 55,616 82,672 116,743 169,778 240,778 293,778 328,747 346,684 L 369,508 C 377,444 397,411 428,410 L 1163,1116 C 1174,1127 1196,1133 1229,1133 1271,1133 1292,1118 1292,1087 L 1292,965 C 1292,929 1282,901 1262,881 L 442,47 C 390,-6 338,-33 285,-33 Z"/>
  </g>
  <g id="bullet-char-template-9679" transform="scale(0.00048828125,-0.00048828125)">
   <path d="M 813,0 C 632,0 489,54 383,161 276,268 223,411 223,592 223,773 276,916 383,1023 489,1130 632,1184 813,1184 992,1184 1136,1130 1245,1023 1353,916 1407,772 1407,592 1407,412 1353,268 1245,161 1136,54 992,0 813,0 Z"/>
  </g>
  <g id="bullet-char-template-8226" transform="scale(0.00048828125,-0.00048828125)">
   <path d="M 346,457 C 273,457 209,483 155,535 101,586 74,649 74,723 74,796 101,859 155,911 209,963 273,989 346,989 419,989 480,963 531,910 582,859 608,796 608,723 608,648 583,586 532,535 482,483 420,457 346,457 Z"/>
  </g>
  <g id="bullet-char-template-8211" transform="scale(0.00048828125,-0.00048828125)">
   <path d="M -4,459 L 1135,459 1135,606 -4,606 -4,459 Z"/>
  </g>
  <g id="bullet-char-template-61548" transform="scale(0.00048828125,-0.00048828125)">
   <path d="M 173,740 C 173,903 231,1043 346,1159 462,1274 601,1332 765,1332 928,1332 1067,1274 1183,1159 1299,1043 1357,903 1357,740 1357,577 1299,437 1183,322 1067,206 928,148 765,148 601,148 462,206 346,322 231,437 173,577 173,740 Z"/>
  </g>
 </defs>
 <defs class="TextEmbeddedBitmaps"/>
 <g>
  <g id="id2" class="Master_Slide">
   <g id="bg-id2" class="Background"/>
   <g id="bo-id2" class="BackgroundObjects"/>
  </g>
 </g>
 <g class="SlideGroup">
  <g>
   <g id="container-id1">
    <g id="id1" class="Slide" clip-path="url(#presentation_clip_path)">
     <g class="Page">
      <g class="Graphic">
       <g id="id3">
        <rect class="BoundingBox" stroke="none" fill="none" x="44" y="44" width="36631" height="36631"/>
        <path fill="rgb(0,0,0)" stroke="none" d="M 2649,107 C 2363,109 2090,147 1831,222 1477,325 1196,507 853,851 344,1359 110,1933 111,2662 112,3519 480,4668 980,5538 1831,7022 2707,8011 5640,10818 7373,12477 8359,13426 8899,13978 9169,14255 9328,14434 9401,14531 9409,14541 9414,14549 9419,14557 8886,17492 9160,15998 8338,20265 8338,20266 8338,20266 8338,20267 L 8296,20491 8125,20324 C 7961,20163 7842,20051 7682,19959 7522,19868 7321,19835 7181,19835 6949,19835 6835,19916 6715,19991 6594,20066 6480,20156 6358,20260 6114,20468 5846,20731 5574,21004 5297,21281 5141,21433 5017,21609 4893,21785 4838,22040 4838,22187 4838,22338 4912,22623 5065,22820 5217,23017 5436,23234 5848,23647 L 6964,24765 6375,27187 C 6374,27191 6373,27194 6373,27198 5866,29515 5451,31265 5161,32484 5017,33093 4903,33569 4825,33920 4747,34272 4696,34439 4696,34673 4696,35211 4889,35725 5320,35988 5538,36121 5839,36243 6144,36153 6449,36063 6619,35871 6837,35631 7228,35201 7816,34344 8620,33089 9423,31833 10419,30200 11533,28304 12537,26597 15054,22195 15742,20944 15777,20880 15812,20819 15845,20760 16074,20977 16385,21276 16756,21635 17543,22396 18590,23414 19640,24439 20691,25465 21744,26498 22546,27289 22947,27685 23285,28020 23527,28262 23648,28384 23746,28482 23814,28552 23861,28601 23912,28661 23918,28666 24129,28988 24262,29860 24109,31581 24026,32504 23978,33190 23962,33695 23946,34199 23938,34493 24034,34786 24195,35280 24544,35723 25019,36119 25236,36298 25422,36432 25623,36521 25724,36565 25831,36602 25970,36606 26109,36610 26300,36557 26428,36429 26551,36306 26528,36293 26549,36251 26570,36208 26590,36164 26612,36112 26656,36008 26709,35875 26770,35715 26892,35396 27046,34973 27207,34514 27531,33594 27887,32532 28085,31862 28288,31173 28407,30637 28494,30311 29094,30663 29566,30937 29920,31119 30130,31227 30297,31306 30468,31356 30554,31381 30641,31403 30764,31396 30888,31389 31083,31324 31196,31169 31310,31015 31314,30857 31303,30751 31293,30645 31267,30563 31236,30480 31175,30313 31085,30141 30965,29926 30770,29578 30490,29123 30139,28553 30523,28445 31117,28304 31770,28113 32851,27797 35305,26956 36081,26631 36081,26631 36081,26631 36081,26631 36081,26631 36081,26631 36081,26631 36174,26592 36267,26548 36365,26466 36463,26383 36564,26240 36594,26083 36655,25770 36524,25583 36409,25395 36262,25154 36046,24924 35810,24698 35574,24473 35358,24279 35098,24151 34770,23991 34421,23978 33875,23977 33330,23976 32605,24018 31647,24100 30843,24168 29992,24199 29762,24184 29288,24153 28729,23952 28617,23887 28604,23874 28555,23831 28510,23786 28440,23717 28343,23620 28222,23499 27981,23256 27648,22919 27255,22519 26468,21718 25440,20667 24420,19620 23399,18573 22386,17530 21629,16746 21274,16379 20978,16071 20762,15844 20820,15811 20880,15777 20944,15742 22195,15054 26597,12537 28305,11533 30200,10419 31833,9423 33089,8620 34344,7816 35201,7228 35632,6836 35871,6619 36063,6449 36153,6144 36243,5839 36121,5538 35988,5320 35726,4890 35217,4696 34689,4696 34528,4696 34424,4719 34203,4752 33983,4785 33696,4832 33362,4888 32693,5001 31833,5151 30954,5305 29195,5614 27315,5941 26837,5993 26836,5993 26836,5993 26836,5993 L 25661,6124 24960,5424 C 24567,4981 24228,4644 23937,4404 23644,4162 23463,3970 23056,3970 22834,3970 22711,4048 22588,4123 22465,4198 22349,4288 22227,4392 21982,4599 21715,4862 21438,5139 21165,5412 20902,5680 20695,5923 20591,6045 20501,6160 20426,6280 20351,6401 20269,6515 20269,6746 20269,6890 20306,7092 20397,7249 20488,7406 20597,7522 20754,7687 20756,7688 20757,7689 20758,7691 L 20967,7904 20728,7964 C 17583,8752 18052,8474 14542,9410 14540,9409 14540,9409 14537,9407 14445,9338 14266,9180 13985,8904 13422,8354 12437,7331 10675,5495 8358,3082 7413,2197 6397,1514 5075,627 3769,98 2649,107 Z M 5867,2303 C 6794,2926 7681,3749 9989,6153 11752,7990 12734,9010 13320,9583 13613,9870 13804,10045 13968,10168 14132,10291 14322,10384 14515,10384 14559,10384 14596,10380 14638,10368 18291,9390 17740,9692 20959,8886 L 22001,8625 C 22046,8613 22083,8598 22123,8575 22199,8532 22253,8477 22297,8401 22341,8326 22361,8251 22361,8164 22361,8076 22341,8002 22297,7926 22276,7890 22255,7861 22225,7831 L 21440,7029 C 21319,6903 21253,6821 21229,6788 21230,6786 21231,6784 21232,6783 21266,6729 21332,6641 21418,6540 21590,6338 21842,6079 22110,5811 22383,5538 22641,5287 22841,5116 22922,5048 22993,4994 23046,4958 23108,4988 23217,5042 23332,5137 23566,5330 23884,5642 24258,6065 24265,6073 24271,6079 24278,6087 L 25151,6958 C 25182,6988 25211,7011 25249,7033 25325,7076 25399,7096 25487,7096 25505,7096 25521,7096 25539,7093 L 26940,6937 C 27557,6870 29359,6550 31118,6241 31997,6087 32856,5937 33519,5825 33851,5769 34134,5723 34344,5692 34555,5660 34741,5646 34689,5646 35015,5646 35122,5726 35177,5815 35199,5851 35213,5875 35222,5891 35194,5927 35128,6010 34992,6134 34692,6407 33817,7026 32576,7819 31336,8613 29711,9604 27823,10714 26132,11708 21704,14240 20486,14910 20291,15017 20114,15119 19979,15203 19912,15245 19856,15281 19805,15317 19780,15334 19758,15351 19726,15379 19710,15393 19692,15408 19663,15444 19634,15479 19556,15513 19552,15742 19548,15931 19591,15945 19606,15973 19620,16001 19629,16013 19636,16023 19649,16043 19656,16051 19662,16058 19675,16074 19683,16084 19694,16095 19714,16118 19738,16144 19769,16178 19830,16244 19918,16336 20029,16453 20251,16686 20566,17014 20946,17407 21705,18192 22718,19236 23739,20283 24760,21331 25789,22383 26577,23185 26971,23585 27305,23924 27548,24169 27670,24291 27769,24390 27843,24463 27917,24536 27922,24550 28013,24622 28448,24967 29055,25090 29701,25132 30107,25158 30898,25117 31728,25046 32672,24966 33379,24927 33874,24927 34369,24928 34669,24999 34680,25005 34712,25020 34955,25196 35154,25386 35312,25537 35466,25712 35549,25820 34715,26146 32444,26926 31503,27201 30873,27386 30291,27522 29867,27642 29654,27703 29491,27749 29325,27837 29243,27881 29135,27917 29036,28117 28986,28218 28966,28379 29006,28505 29031,28583 29068,28642 29106,28687 29445,29239 29726,29694 29936,30047 29593,29854 29157,29599 28625,29287 28523,29228 28356,29173 28183,29212 28010,29250 27891,29362 27824,29451 27690,29630 27657,29779 27603,29968 27495,30347 27385,30877 27174,31593 26987,32227 26631,33289 26311,34198 26151,34652 26000,35070 25883,35376 25860,35434 25840,35487 25820,35537 25763,35497 25698,35447 25627,35388 25248,35073 25022,34750 24937,34492 24937,34491 24896,34196 24911,33725 24926,33255 24974,32580 25055,31666 25219,29830 25187,28775 24659,28069 24577,27959 24568,27964 24495,27889 24421,27814 24322,27714 24200,27591 23954,27345 23615,27009 23214,26613 22410,25820 21355,24786 20304,23760 19253,22733 18206,21714 17416,20952 17021,20570 16691,20253 16456,20030 16339,19918 16245,19830 16177,19768 16143,19736 16116,19712 16092,19691 16080,19680 16069,19671 16051,19657 16043,19650 16033,19643 16011,19628 15999,19621 15985,19612 15956,19598 15926,19583 15896,19548 15741,19552 15741,19552 15741,19552 15741,19552 15740,19552 15740,19552 15740,19552 15506,19557 15475,19636 15440,19665 15405,19694 15390,19712 15377,19728 15349,19759 15333,19781 15315,19806 15280,19856 15244,19912 15202,19979 15119,20114 15017,20291 14910,20486 14240,21704 11708,26132 10714,27823 9604,29711 8613,31336 7819,32576 7026,33817 6407,34691 6134,34992 6010,35128 5927,35193 5891,35222 5875,35213 5851,35199 5815,35177 5722,35120 5647,35019 5647,34673 5647,34729 5677,34466 5753,34127 5828,33787 5941,33313 6086,32703 6375,31485 6792,29729 7300,27407 L 7951,24730 C 7960,24691 7964,24658 7964,24618 7964,24530 7944,24456 7901,24380 7879,24342 7856,24313 7825,24282 L 6520,22976 C 6110,22565 5893,22338 5816,22239 5803,22222 5794,22212 5787,22206 5788,22202 5789,22196 5789,22187 5789,22177 5788,22170 5787,22164 5789,22162 5791,22160 5794,22156 5831,22104 5973,21949 6245,21676 6514,21408 6772,21156 6974,20983 7075,20897 7163,20831 7217,20798 7220,20796 7222,20795 7224,20794 7256,20816 7335,20880 7461,21003 L 8266,21791 C 8296,21820 8324,21842 8360,21863 8436,21907 8511,21927 8598,21927 8685,21927 8760,21907 8836,21863 8911,21819 8966,21765 9009,21689 9038,21640 9054,21595 9065,21540 L 9272,20444 C 10109,16097 9800,17774 10377,14602 10382,14573 10384,14547 10384,14517 10384,14305 10286,14127 10161,13962 10037,13796 9861,13602 9579,13314 9015,12738 8031,11791 6297,10131 3376,7335 2608,6466 1804,5065 1397,4357 1062,3200 1061,2661 1060,2075 1121,1926 1525,1522 1835,1212 1836,1210 2096,1134 2241,1092 2411,1071 2601,1071 3424,1071 4628,1470 5867,2303 Z M 23128,4915 C 23128,4915 23126,4916 23123,4917 23126,4916 23128,4915 23128,4915 Z M 21219,6746 C 21219,6747 21219,6747 21219,6747 21219,6747 21219,6747 21219,6747 21219,6757 21219,6764 21218,6772 21218,6772 21218,6772 21218,6771 21218,6767 21219,6760 21219,6747 21219,6747 21219,6747 21219,6747 21219,6747 21219,6747 21219,6746 Z M 21215,6820 C 21213,6834 21212,6832 21215,6820 Z M 7265,20779 C 7265,20779 7260,20780 7254,20781 7261,20779 7265,20778 7265,20779 Z M 7211,20784 C 7208,20784 7204,20784 7200,20784 7205,20784 7208,20784 7210,20784 7210,20784 7210,20784 7211,20784 Z M 29799,28040 C 29806,28046 29814,28054 29822,28063 29814,28054 29808,28048 29799,28040 Z M 29801,28663 C 29779,28682 29767,28678 29771,28676 29775,28674 29786,28669 29801,28663 Z M 30749,30447 C 30753,30448 30754,30448 30749,30447 Z M 25708,35807 C 25704,35815 25700,35824 25698,35828 25692,35839 25664,35856 25708,35807 Z"/>
       </g>
      </g>
     </g>
    </g>
   </g>
  </g>
 </g>
</svg>