<?xml version="1.0" encoding="UTF-8"?>
<!DOCTYPE svg PUBLIC "-//W3C//DTD SVG 1.1//EN" "http://www.w3.org/Graphics/SVG/1.1/DTD/svg11.dtd">
<svg version="1.2" width="367.19mm" height="367.19mm" viewBox="0 0 36719 36719" preserveAspectRatio="xMidYMid" fill-rule="evenodd" stroke-width="28.222" stroke-linejoin="round" xmlns="http://www.w3.org/2000/svg" xmlns:ooo="http://xml.openoffice.org/svg/export" xmlns:xlink="http://www.w3.org/1999/xlink" xmlns:presentation="http://sun.com/xmlns/staroffice/presentation" xmlns:smil="http://www.w3.org/2001/SMIL20/" xmlns:anim="urn:oasis:names:tc:opendocument:xmlns:animation:1.0" xml:space="preserve">
 <defs class="ClipPathGroup">
  <clipPath id="presentation_clip_path" clipPathUnits="userSpaceOnUse">
   <rect x="0" y="0" width="36719" height="36719"/>
  </clipPath>
  <clipPath id="presentation_clip_path_shrink" clipPathUnits="userSpaceOnUse">
   <rect x="36" y="36" width="36646" height="36646"/>
  </clipPath>
 </defs>
 <defs class="TextShapeIndex">
  <g ooo:slide="id1" ooo:id-list="id3"/>
 </defs>
 <defs class="EmbeddedBulletChars">
  <g id="bullet-char-template-57356" transform="scale(0.00048828125,-0.00048828125)">
   <path d="M 580,1141 L 1163,571 580,0 -4,571 580,1141 Z"/>
  </g>
  <g id="bullet-char-template-57354" transform="scale(0.00048828125,-0.00048828125)">
   <path d="M 8,1128 L 1137,1128 1137,0 8,0 8,1128 Z"/>
  </g>
  <g id="bullet-char-template-10146" transform="scale(0.00048828125,-0.00048828125)">
   <path d="M 174,0 L 602,739 174,1481 1456,739 174,0 Z M 1358,739 L 309,1346 659,739 1358,739 Z"/>
  </g>
  <g id="bullet-char-template-10132" transform="scale(0.00048828125,-0.00048828125)">
   <path d="M 2015,739 L 1276,0 717,0 1260,543 174,543 174,936 1260,936 717,1481 1274,1481 2015,739 Z"/>
  </g>
  <g id="bullet-char-template-10007" transform="scale(0.00048828125,-0.00048828125)">
   <path d="M 0,-2 C -7,14 -16,27 -25,37 L 356,567 C 262,823 215,952 215,954 215,979 228,992 255,992 264,992 276,990 289,987 310,991 331,999 354,1012 L 381,999 492,748 772,1049 836,1024 860,1049 C 881,1039 901,1025 922,1006 886,937 835,863 770,784 769,783 710,716 594,584 L 774,223 C 774,196 753,168 711,139 L 727,119 C 717,90 699,76 672,76 641,76 570,178 457,381 L 164,-76 C 142,-110 111,-127 72,-127 30,-127 9,-110 8,-76 1,-67 -2,-52 -2,-32 -2,-23 -1,-13 0,-2 Z"/>
  </g>
  <g id="bullet-char-template-10004" transform="scale(0.00048828125,-0.00048828125)">
   <path d="M 285,-33 C 182,-33 111,30 74,156 52,228 41,333 41,471 41,549 55,616 82,672 116,743 169,778 240,778 293,778 328,747 346,684 L 369,508 C 377,444 397,411 428,410 L 1163,1116 C 1174,1127 1196,1133 1229,1133 1271,1133 1292,1118 1292,1087 L 1292,965 C 1292,929 1282,901 1262,881 L 442,47 C 390,-6 338,-33 285,-33 Z"/>
  </g>
  <g id="bullet-char-template-9679" transform="scale(0.00048828125,-0.00048828125)">
   <path d="M 813,0 C 632,0 489,54 383,161 276,268 223,411 223,592 223,773 276,916 383,1023 489,1130 632,1184 813,1184 992,1184 1136,1130 1245,1023 1353,916 1407,772 1407,592 1407,412 1353,268 1245,161 1136,54 992,0 813,0 Z"/>
  </g>
  <g id="bullet-char-template-8226" transform="scale(0.00048828125,-0.00048828125)">
   <path d="M 346,457 C 273,457 209,483 155,535 101,586 74,649 74,723 74,796 101,859 155,911 209,963 273,989 346,989 419,989 480,963 531,910 582,859 608,796 608,723 608,648 583,586 532,535 482,483 420,457 346,457 Z"/>
  </g>
  <g id="bullet-char-template-8211" transform="scale(0.00048828125,-0.00048828125)">
   <path d="M -4,459 L 1135,459 1135,606 -4,606 -4,459 Z"/>
  </g>
  <g id="bullet-char-template-61548" transform="scale(0.00048828125,-0.00048828125)">
   <path d="M 173,740 C 173,903 231,1043 346,1159 462,1274 601,1332 765,1332 928,1332 1067,1274 1183,1159 1299,1043 1357,903 1357,740 1357,577 1299,437 1183,322 1067,206 928,148 765,148 601,148 462,206 346,322 231,437 173,577 173,740 Z"/>
  </g>
 </defs>
 <defs class="TextEmbeddedBitmaps"/>
 <g>
  <g id="id2" class="Master_Slide">
   <g id="bg-id2" class="Background"/>
   <g id="bo-id2" class="BackgroundObjects"/>
  </g>
 </g>
 <g class="SlideGroup">
  <g>
   <g id="container-id1">
    <g id="id1" class="Slide" clip-path="url(#presentation_clip_path)">
     <g class="Page">
      <g class="Graphic">
       <g id="id3">
        <rect class="BoundingBox" stroke="none" fill="none" x="69" y="69" width="36581" height="36581"/>
        <path fill="rgb(0,0,0)" stroke="none" d="M 18359,278 L 18359,278 C 15030,278 12201,1036 9319,2701 6436,4365 4365,6436 2701,9319 1036,12201 278,15030 278,18359 L 278,18359 C 278,18359 278,18359 278,18359 278,21688 1036,24517 2701,27399 4365,30282 6436,32353 9319,34017 12201,35682 15030,36440 18359,36440 L 18359,36440 C 18359,36440 18359,36440 18359,36440 21688,36440 24517,35682 27399,34017 30282,32353 32353,30282 34017,27399 35682,24517 36440,21688 36440,18359 36440,18359 36440,18359 36440,18359 L 36440,18359 C 36440,15030 35682,12201 34017,9319 32353,6436 30282,4365 27399,2701 24517,1036 21688,278 18359,278 18359,278 18359,278 18359,278 L 18359,278 Z M 9478,8200 C 10102,8190 10911,8487 11736,9041 12355,9457 12939,10002 14414,11538 16662,13880 16924,14143 17082,14143 19419,13517 19074,13709 21117,13197 L 21782,13030 21280,12517 C 21088,12315 21054,12257 21054,12126 21054,11987 21366,11661 21711,11316 22061,10965 22380,10659 22528,10659 22680,10659 23030,10935 23522,11491 L 24079,12046 24972,11947 C 25671,11870 29669,11122 29947,11122 30219,11122 30416,11209 30517,11375 30657,11605 30629,11700 30344,11959 29878,12383 28135,13499 25722,14917 24638,15554 21823,17164 21035,17597 20794,17730 20597,17852 20596,17869 20596,17904 25729,23171 25878,23288 26038,23415 26420,23525 26785,23549 26988,23562 27512,23539 28033,23495 29246,23391 29858,23392 30075,23498 30261,23589 30659,23969 30785,24177 30909,24380 30895,24453 30718,24527 30264,24717 28668,25266 28000,25462 26983,25731 26294,25896 25927,26763 25847,26963 25721,27122 25445,28057 25200,28888 24538,30768 24464,30841 24396,30909 24226,30834 23974,30625 23702,30398 23518,30154 23440,29914 23379,29726 23397,29163 23501,27991 23604,26839 23547,26225 23308,25905 23194,25752 17912,20594 17870,20595 17853,20596 17731,20793 17599,21034 17166,21822 15556,24637 14919,25721 13500,28133 12385,29877 11961,30343 11701,30628 11606,30656 11376,30515 11208,30413 11123,30218 11123,29936 11123,29709 11538,28193 12185,25233 L 12601,23523 11769,22690 C 11244,22165 11214,22125 11214,21973 11214,21825 11243,21783 11594,21433 11939,21088 12265,20776 12404,20776 12535,20776 12596,20807 12795,21001 L 13308,21504 13440,20805 C 13974,18031 13777,19105 14144,17082 14144,16922 13842,16620 11631,14504 9765,12717 9240,12125 8712,11205 8424,10702 8199,9966 8199,9521 8198,9102 8292,8871 8583,8581 8792,8372 8881,8313 9077,8256 9200,8221 9334,8202 9478,8200 L 9478,8200 Z"/>
       </g>
      </g>
     </g>
    </g>
   </g>
  </g>
 </g>
</svg>