<?xml version="1.0" encoding="utf-8"?>
<!-- Created by sK1 2.0rc4 (https://sk1project.net/) -->
<svg xmlns="http://www.w3.org/2000/svg" height="832.677165354pt" viewBox="0 0 832.677165354 832.677165354" width="832.677165354pt" version="1.1" xmlns:xlink="http://www.w3.org/1999/xlink" id="4ccce3b0-b452-11ea-be2e-a0f3c11e789f">

<g>
	<g>
		<path style="fill-rule:evenodd;fill:#2d2c2b;" d="M 831.7743,818.7658 C 831.7743,826.5935 820.5544,832.9391 806.7139,832.9391 792.8735,832.9391 781.6536,826.5935 781.6536,818.7658 L 781.6536,14.1746 C 781.6536,6.3469 792.8735,0.0014 806.7139,0.0014 820.5544,0.0014 831.7743,6.3469 831.7743,14.1746 L 831.7743,818.7658 Z" />
		<path style="fill-rule:evenodd;fill:#2d2c2b;" d="M 679.2886,248.03 L 679.2886,24.6402 357.9223,24.6402 357.9223,248.03 679.2886,248.03 Z M 706.2636,260.2861 C 706.2642,263.4212 704.9474,266.5587 702.3132,268.9525 699.6789,271.3462 696.2261,272.5428 692.7761,272.5422 L 344.4348,272.5422 C 340.9847,272.5428 337.5319,271.3462 334.8977,268.9525 332.2634,266.5587 330.9466,263.4212 330.9473,260.2861 L 330.9473,12.3841 C 330.9466,9.2491 332.2634,6.1115 334.8977,3.7178 337.5319,1.324 340.9847,0.1274 344.4348,0.128 L 692.7761,0.128 C 696.2261,0.1274 699.6789,1.324 702.3132,3.7178 704.9474,6.1115 706.2642,9.2491 706.2636,12.3841 L 706.2636,260.2861 Z" />
		<path style="fill-rule:evenodd;fill:#2d2c2b;" d="M 28.548,342.8153 L 28.548,342.8153 Z M 706.2624,578.4611 C 706.2631,581.5962 704.9463,584.7337 702.312,587.1275 699.6778,589.5212 696.225,590.7178 692.7749,590.7172 L 15.0605,590.7172 C 11.6105,590.7178 8.1577,589.5212 5.5234,587.1275 2.8892,584.7337 1.5724,581.5962 1.573,578.4611 L 1.573,330.5592 C 1.5724,327.4241 2.8892,324.2865 5.5234,321.8928 8.1577,319.4991 11.6105,318.3025 15.0605,318.3031 L 692.7749,318.3031 C 696.225,318.3025 699.6778,319.4991 702.312,321.8928 704.9463,324.2865 706.2631,327.4241 706.2624,330.5592 L 706.2624,578.4611 Z" />
		<g>
			<path style="fill-rule:evenodd;fill:#2d2c2b;" d="M 601.2582,737.0323 L 522.837,784.8553 444.4158,832.6784 444.4158,737.0323 444.4158,641.3862 522.837,689.2092 601.2582,737.0323 Z" />
			<path style="fill-rule:evenodd;fill:#2d2c2b;" d="M 511.6638,720.005 C 519.4961,720.005 525.8454,728.9838 525.8454,740.0597 525.8454,751.1357 519.4961,760.1145 511.6638,760.1145 L 243.309,760.1145 C 235.4767,760.1145 229.1274,751.1357 229.1274,740.0597 229.1274,728.9838 235.4767,720.005 243.309,720.005 L 511.6638,720.005 Z" />
		</g>
	</g>
</g>
</svg>