<?xml version="1.0" encoding="utf-8"?>
<!-- Created by sK1 2.0rc4 (https://sk1project.net/) -->
<svg xmlns="http://www.w3.org/2000/svg" height="832.677165354pt" viewBox="0 0 832.677165354 832.677165354" width="832.677165354pt" version="1.1" xmlns:xlink="http://www.w3.org/1999/xlink" id="1a652b44-b452-11ea-be2e-a0f3c11e789f">

<g>
	<path style="fill-rule:evenodd;fill:#2d2c2b;" d="M 0.0021,818.6357 C 0.0021,826.4633 11.2154,832.8089 25.0477,832.8089 38.88,832.8089 50.0933,826.4633 50.0933,818.6357 L 50.0933,14.0444 C 50.0933,6.2168 38.88,-0.1288 25.0477,-0.1288 11.2154,-0.1288 0.0021,6.2168 0.0021,14.0444 L 0.0021,818.6357 Z" />
	<path style="fill-rule:evenodd;fill:#2d2c2b;" d="M 152.3981,247.8998 L 152.3981,24.5101 473.5755,24.5101 473.5755,247.8998 152.3981,247.8998 Z M 125.439,260.1559 C 125.4384,263.291 126.7544,266.4286 129.3871,268.8223 132.0198,271.216 135.4705,272.4126 138.9186,272.412 L 487.055,272.412 C 490.5031,272.4126 493.9538,271.216 496.5865,268.8223 499.2192,266.4286 500.5352,263.291 500.5346,260.1559 L 500.5346,12.254 C 500.5352,9.1189 499.2192,5.9813 496.5865,3.5876 493.9538,1.1938 490.5031,-0.0027 487.055,-0.0021 L 138.9186,-0.0021 C 135.4705,-0.0027 132.0198,1.1938 129.3871,3.5876 126.7544,5.9813 125.4384,9.1189 125.439,12.254 L 125.439,260.1559 Z" />
	<path style="fill-rule:evenodd;fill:#2d2c2b;" d="M 802.756,342.6851 L 802.756,342.6851 Z M 125.4402,578.3309 C 125.4395,581.466 126.7555,584.6036 129.3882,586.9973 132.0209,589.391 135.4717,590.5876 138.9197,590.587 L 816.2356,590.587 C 819.6836,590.5876 823.1344,589.391 825.767,586.9973 828.3997,584.6036 829.7158,581.466 829.7151,578.3309 L 829.7151,330.429 C 829.7158,327.2939 828.3997,324.1564 825.767,321.7626 823.1344,319.3689 819.6836,318.1723 816.2356,318.1729 L 138.9197,318.1729 C 135.4717,318.1723 132.0209,319.3689 129.3882,321.7626 126.7555,324.1564 125.4395,327.2939 125.4402,330.429 L 125.4402,578.3309 Z" />
	<g>
		<path style="fill-rule:evenodd;fill:#2d2c2b;" d="M 230.3826,736.9021 L 308.7577,784.7252 387.1328,832.5482 387.1328,736.9021 387.1328,641.256 308.7577,689.079 230.3826,736.9021 Z" />
		<path style="fill-rule:evenodd;fill:#2d2c2b;" d="M 319.9244,719.8748 C 312.0967,719.8748 305.7511,728.8536 305.7511,739.9296 305.7511,751.0055 312.0967,759.9843 319.9244,759.9843 L 588.1213,759.9843 C 595.949,759.9843 602.2946,751.0055 602.2946,739.9296 602.2946,728.8536 595.949,719.8748 588.1213,719.8748 L 319.9244,719.8748 Z" />
	</g>
</g>
</svg>