<?xml version="1.0" encoding="utf-8"?>
<!-- Created by sK1 2.0rc4 (https://sk1project.net/) -->
<svg xmlns="http://www.w3.org/2000/svg" height="832.677165354pt" viewBox="0 0 832.677165354 832.677165354" width="832.677165354pt" version="1.1" xmlns:xlink="http://www.w3.org/1999/xlink" id="01afc91e-b453-11ea-be2e-a0f3c11e789f">

<g>
	<path style="fill-rule:evenodd;fill:#2d2c2b;" d="M 14.3762,391.2928 C 6.5485,391.2928 0.203,402.5061 0.203,416.3384 0.203,430.1707 6.5485,441.384 14.3762,441.384 L 818.9674,441.384 C 826.7951,441.384 833.1407,430.1707 833.1407,416.3384 833.1407,402.5061 826.7951,391.2928 818.9674,391.2928 L 14.3762,391.2928 Z" />
	<path style="fill-rule:evenodd;fill:#2d2c2b;" d="M 585.112,255.7513 L 808.5018,255.7513 808.5018,576.9286 585.112,576.9286 585.112,255.7513 Z M 572.8559,228.7922 C 569.7208,228.7916 566.5833,230.1076 564.1895,232.7403 561.7958,235.373 560.5992,238.8237 560.5998,242.2718 L 560.5998,590.4082 C 560.5992,593.8562 561.7958,597.307 564.1895,599.9396 566.5833,602.5723 569.7208,603.8884 572.8559,603.8877 L 820.7579,603.8877 C 823.893,603.8884 827.0305,602.5723 829.4243,599.9396 831.818,597.307 833.0146,593.8562 833.014,590.4082 L 833.014,242.2718 C 833.0146,238.8237 831.818,235.373 829.4243,232.7403 827.0305,230.1076 823.893,228.7916 820.7579,228.7922 L 572.8559,228.7922 Z" />
	<path style="fill-rule:evenodd;fill:#2d2c2b;" d="M 490.3267,741.5173 L 490.3267,741.5173 Z M 254.6809,64.2016 C 251.5458,64.2009 248.4083,65.5169 246.0145,68.1496 243.6208,70.7823 242.4242,74.2331 242.4248,77.6811 L 242.4248,754.9969 C 242.4242,758.4449 243.6208,761.8957 246.0145,764.5283 248.4083,767.161 251.5458,768.4771 254.6809,768.4764 L 502.5828,768.4764 C 505.7179,768.4771 508.8555,767.161 511.2492,764.5283 513.6429,761.8957 514.8395,758.4449 514.8389,754.9969 L 514.8389,77.6811 C 514.8395,74.2331 513.6429,70.7823 511.2492,68.1496 508.8555,65.5169 505.7179,64.2009 502.5828,64.2016 L 254.6809,64.2016 Z" />
	<path style="fill-rule:evenodd;fill:#2d2c2b;" d="M 95.7732,503.2866 L 47.9502,581.6617 0.1271,660.0368 95.7732,660.0368 191.4194,660.0368 143.5963,581.6617 95.7732,503.2866 Z" />
	<path style="fill-rule:evenodd;fill:#2d2c2b;" d="M 112.8005,607.2511 C 112.8005,601.0019 103.8217,595.936 92.7458,595.936 81.6699,595.936 72.6911,601.0019 72.6911,607.2511 L 72.6911,821.3637 C 72.6911,827.6129 81.6699,832.6788 92.7458,832.6788 103.8217,832.6788 112.8005,827.6129 112.8005,821.3637 L 112.8005,607.2511 Z" />
	<path style="fill-rule:evenodd;fill:#2d2c2b;" d="M 95.7738,328.5457 L 47.9507,250.3485 0.1277,172.1512 95.7738,172.1512 191.4199,172.1512 143.5968,250.3485 95.7738,328.5457 Z" />
	<path style="fill-rule:evenodd;fill:#2d2c2b;" d="M 112.801,235.1379 C 112.801,241.6563 103.8222,246.9405 92.7463,246.9405 81.6704,246.9405 72.6916,241.6563 72.6916,235.1379 L 72.6916,11.8002 C 72.6916,5.2818 81.6704,-0.0024 92.7463,-0.0024 103.8222,-0.0024 112.801,5.2818 112.801,11.8002 L 112.801,235.1379 Z" />
</g>
</svg>