<?xml version="1.0" encoding="utf-8"?>
<!-- Created by sK1 2.0rc4 (https://sk1project.net/) -->
<svg xmlns="http://www.w3.org/2000/svg" height="832.677165354pt" viewBox="0 0 832.677165354 832.677165354" width="832.677165354pt" version="1.1" xmlns:xlink="http://www.w3.org/1999/xlink" id="67cda94c-b452-11ea-be2e-a0f3c11e789f">

<g>
	<g>
		<path style="fill-rule:evenodd;fill:#2d2c2b;" d="M 14.3762,831.5672 C 6.5485,831.5672 0.203,820.3473 0.203,806.5069 0.203,792.6665 6.5485,781.4466 14.3762,781.4466 L 818.9674,781.4466 C 826.7951,781.4466 833.1407,792.6665 833.1407,806.5069 833.1407,820.3473 826.7951,831.5672 818.9674,831.5672 L 14.3762,831.5672 Z" />
		<path style="fill-rule:evenodd;fill:#2d2c2b;" d="M 585.112,679.0815 L 808.5018,679.0815 808.5018,357.7152 585.112,357.7152 585.112,679.0815 Z M 572.8559,706.0565 C 569.7208,706.0572 566.5833,704.7404 564.1895,702.1061 561.7958,699.4719 560.5992,696.0191 560.5998,692.569 L 560.5998,344.2277 C 560.5992,340.7777 561.7958,337.3249 564.1895,334.6906 566.5833,332.0564 569.7208,330.7396 572.8559,330.7403 L 820.7579,330.7403 C 823.893,330.7396 827.0305,332.0564 829.4243,334.6906 831.818,337.3249 833.0146,340.7777 833.014,344.2277 L 833.014,692.569 C 833.0146,696.0191 831.818,699.4719 829.4243,702.1061 827.0305,704.7404 823.893,706.0572 820.7579,706.0565 L 572.8559,706.0565 Z" />
		<path style="fill-rule:evenodd;fill:#2d2c2b;" d="M 490.3267,28.341 L 490.3267,28.341 Z M 254.6809,706.0554 C 251.5458,706.056 248.4083,704.7392 246.0145,702.105 243.6208,699.4708 242.4242,696.018 242.4248,692.5679 L 242.4248,14.8535 C 242.4242,11.4034 243.6208,7.9507 246.0145,5.3164 248.4083,2.6822 251.5458,1.3654 254.6809,1.366 L 502.5828,1.366 C 505.7179,1.3654 508.8555,2.6822 511.2492,5.3164 513.6429,7.9507 514.8395,11.4034 514.8389,14.8535 L 514.8389,692.5679 C 514.8395,696.018 513.6429,699.4708 511.2492,702.105 508.8555,704.7392 505.7179,706.056 502.5828,706.0554 L 254.6809,706.0554 Z" />
		<g>
			<path style="fill-rule:evenodd;fill:#2d2c2b;" d="M 96.1097,601.0512 L 48.2867,522.63 0.4636,444.2088 96.1097,444.2088 191.7559,444.2088 143.9328,522.63 96.1097,601.0512 Z" />
			<path style="fill-rule:evenodd;fill:#2d2c2b;" d="M 113.137,511.4568 C 113.137,519.289 104.1582,525.6383 93.0823,525.6383 82.0064,525.6383 73.0275,519.289 73.0275,511.4568 L 73.0275,243.102 C 73.0275,235.2697 82.0064,228.9204 93.0823,228.9204 104.1582,228.9204 113.137,235.2697 113.137,243.102 L 113.137,511.4568 Z" />
		</g>
	</g>
</g>
</svg>