<?xml version="1.0" encoding="utf-8"?>
<!-- Created by sK1 2.0rc4 (https://sk1project.net/) -->
<svg xmlns="http://www.w3.org/2000/svg" height="832.677165354pt" viewBox="0 0 832.677165354 832.677165354" width="832.677165354pt" version="1.1" xmlns:xlink="http://www.w3.org/1999/xlink" id="7cbb6d58-b452-11ea-be2e-a0f3c11e789f">

<g>
	<g>
		<path style="fill-rule:evenodd;fill:#2d2c2b;" d="M 14.3762,-0.0001 C 6.5485,-0.0001 0.203,11.2132 0.203,25.0455 0.203,38.8778 6.5485,50.0911 14.3762,50.0911 L 818.9674,50.0911 C 826.7951,50.0911 833.1407,38.8778 833.1407,25.0455 833.1407,11.2132 826.7951,-0.0001 818.9674,-0.0001 L 14.3762,-0.0001 Z" />
		<path style="fill-rule:evenodd;fill:#2d2c2b;" d="M 585.112,152.3959 L 808.5018,152.3959 808.5018,473.5731 585.112,473.5731 585.112,152.3959 Z M 572.8559,125.4367 C 569.7208,125.4361 566.5833,126.7521 564.1895,129.3848 561.7958,132.0175 560.5992,135.4683 560.5998,138.9163 L 560.5998,487.0527 C 560.5992,490.5007 561.7958,493.9515 564.1895,496.5842 566.5833,499.2169 569.7208,500.5329 572.8559,500.5323 L 820.7579,500.5323 C 823.893,500.5329 827.0305,499.2169 829.4243,496.5842 831.818,493.9515 833.0146,490.5007 833.014,487.0527 L 833.014,138.9163 C 833.0146,135.4683 831.818,132.0175 829.4243,129.3848 827.0305,126.7521 823.893,125.4361 820.7579,125.4367 L 572.8559,125.4367 Z" />
		<path style="fill-rule:evenodd;fill:#2d2c2b;" d="M 490.3267,802.7536 L 490.3267,802.7536 Z M 254.6809,125.4379 C 251.5458,125.4372 248.4083,126.7533 246.0145,129.386 243.6208,132.0186 242.4242,135.4694 242.4248,138.9174 L 242.4248,816.2332 C 242.4242,819.6812 243.6208,823.132 246.0145,825.7647 248.4083,828.3974 251.5458,829.7134 254.6809,829.7127 L 502.5828,829.7127 C 505.7179,829.7134 508.8555,828.3974 511.2492,825.7647 513.6429,823.132 514.8395,819.6812 514.8389,816.2332 L 514.8389,138.9174 C 514.8395,135.4694 513.6429,132.0186 511.2492,129.386 508.8555,126.7533 505.7179,125.4372 502.5828,125.4379 L 254.6809,125.4379 Z" />
		<g>
			<path style="fill-rule:evenodd;fill:#2d2c2b;" d="M 96.1097,230.3803 L 48.2867,308.7554 0.4636,387.1305 96.1097,387.1305 191.7559,387.1305 143.9328,308.7554 96.1097,230.3803 Z" />
			<path style="fill-rule:evenodd;fill:#2d2c2b;" d="M 113.137,319.922 C 113.137,312.0944 104.1582,305.7488 93.0823,305.7488 82.0064,305.7488 73.0275,312.0944 73.0275,319.922 L 73.0275,588.119 C 73.0275,595.9467 82.0064,602.2922 93.0823,602.2922 104.1582,602.2922 113.137,595.9467 113.137,588.119 L 113.137,319.922 Z" />
		</g>
	</g>
</g>
</svg>