<?xml version="1.0" encoding="utf-8"?>
<!-- Created by sK1 2.0rc4 (https://sk1project.net/) -->
<svg xmlns="http://www.w3.org/2000/svg" height="832.677165354pt" viewBox="0 0 832.677165354 832.677165354" width="832.677165354pt" version="1.1" xmlns:xlink="http://www.w3.org/1999/xlink" id="419ffbb6-b453-11ea-be2e-a0f3c11e789f">

<g>
	<g>
		<path style="fill-rule:evenodd;fill:#2d2c2b;" d="M 391.2928,818.5334 C 391.2928,826.3611 402.5061,832.7066 416.3384,832.7066 430.1707,832.7066 441.384,826.3611 441.384,818.5334 L 441.384,13.9422 C 441.384,6.1145 430.1707,-0.2311 416.3384,-0.2311 402.5061,-0.2311 391.2928,6.1145 391.2928,13.9422 L 391.2928,818.5334 Z" />
		<path style="fill-rule:evenodd;fill:#2d2c2b;" d="M 255.7513,247.7976 L 255.7513,24.4078 576.9286,24.4078 576.9286,247.7976 255.7513,247.7976 Z M 228.7922,260.0537 C 228.7916,263.1888 230.1076,266.3263 232.7403,268.72 235.373,271.1138 238.8237,272.3104 242.2718,272.3098 L 590.4082,272.3098 C 593.8562,272.3104 597.307,271.1138 599.9396,268.72 602.5723,266.3263 603.8884,263.1888 603.8877,260.0537 L 603.8877,12.1517 C 603.8884,9.0166 602.5723,5.8791 599.9396,3.4853 597.307,1.0916 593.8562,-0.105 590.4082,-0.1044 L 242.2718,-0.1044 C 238.8237,-0.105 235.373,1.0916 232.7403,3.4853 230.1076,5.8791 228.7916,9.0166 228.7922,12.1517 L 228.7922,260.0537 Z" />
		<path style="fill-rule:evenodd;fill:#2d2c2b;" d="M 741.5173,342.5829 L 741.5173,342.5829 Z M 64.2016,578.2287 C 64.2009,581.3637 65.5169,584.5013 68.1496,586.895 70.7823,589.2888 74.2331,590.4854 77.6811,590.4848 L 754.9969,590.4848 C 758.4449,590.4854 761.8957,589.2888 764.5283,586.895 767.161,584.5013 768.4771,581.3637 768.4764,578.2287 L 768.4764,330.3268 C 768.4771,327.1917 767.161,324.0541 764.5283,321.6604 761.8957,319.2666 758.4449,318.0701 754.9969,318.0707 L 77.6811,318.0707 C 74.2331,318.0701 70.7823,319.2666 68.1496,321.6604 65.5169,324.0541 64.2009,327.1917 64.2016,330.3268 L 64.2016,578.2287 Z" />
		<path style="fill-rule:evenodd;fill:#2d2c2b;" d="M 503.2866,737.1363 L 581.6617,784.9594 660.0368,832.7825 660.0368,737.1363 660.0368,641.4902 581.6617,689.3133 503.2866,737.1363 Z" />
		<path style="fill-rule:evenodd;fill:#2d2c2b;" d="M 607.2511,720.1091 C 601.0019,720.1091 595.936,729.0879 595.936,740.1638 595.936,751.2397 601.0019,760.2185 607.2511,760.2185 L 821.3637,760.2185 C 827.6129,760.2185 832.6788,751.2397 832.6788,740.1638 832.6788,729.0879 827.6129,720.1091 821.3637,720.1091 L 607.2511,720.1091 Z" />
		<path style="fill-rule:evenodd;fill:#2d2c2b;" d="M 328.5457,737.1358 L 250.3485,784.9589 172.1512,832.7819 172.1512,737.1358 172.1512,641.4897 250.3485,689.3127 328.5457,737.1358 Z" />
		<path style="fill-rule:evenodd;fill:#2d2c2b;" d="M 235.1379,720.1085 C 241.6563,720.1085 246.9405,729.0873 246.9405,740.1633 246.9405,751.2392 241.6563,760.218 235.1379,760.218 L 11.8002,760.218 C 5.2818,760.218 -0.0024,751.2392 -0.0024,740.1633 -0.0024,729.0873 5.2818,720.1085 11.8002,720.1085 L 235.1379,720.1085 Z" />
	</g>
</g>
</svg>