<?xml version="1.0" encoding="UTF-8"?>
<!DOCTYPE svg PUBLIC "-//W3C//DTD SVG 1.1//EN" "http://www.w3.org/Graphics/SVG/1.1/DTD/svg11.dtd">
<svg version="1.2" width="367.19mm" height="367.19mm" viewBox="0 0 36719 36719" preserveAspectRatio="xMidYMid" fill-rule="evenodd" stroke-width="28.222" stroke-linejoin="round" xmlns="http://www.w3.org/2000/svg" xmlns:ooo="http://xml.openoffice.org/svg/export" xmlns:xlink="http://www.w3.org/1999/xlink" xmlns:presentation="http://sun.com/xmlns/staroffice/presentation" xmlns:smil="http://www.w3.org/2001/SMIL20/" xmlns:anim="urn:oasis:names:tc:opendocument:xmlns:animation:1.0" xml:space="preserve">
 <defs class="ClipPathGroup">
  <clipPath id="presentation_clip_path" clipPathUnits="userSpaceOnUse">
   <rect x="0" y="0" width="36719" height="36719"/>
  </clipPath>
  <clipPath id="presentation_clip_path_shrink" clipPathUnits="userSpaceOnUse">
   <rect x="36" y="36" width="36646" height="36646"/>
  </clipPath>
 </defs>
 <defs class="TextShapeIndex">
  <g ooo:slide="id1" ooo:id-list="id3"/>
 </defs>
 <defs class="EmbeddedBulletChars">
  <g id="bullet-char-template-57356" transform="scale(0.00048828125,-0.00048828125)">
   <path d="M 580,1141 L 1163,571 580,0 -4,571 580,1141 Z"/>
  </g>
  <g id="bullet-char-template-57354" transform="scale(0.00048828125,-0.00048828125)">
   <path d="M 8,1128 L 1137,1128 1137,0 8,0 8,1128 Z"/>
  </g>
  <g id="bullet-char-template-10146" transform="scale(0.00048828125,-0.00048828125)">
   <path d="M 174,0 L 602,739 174,1481 1456,739 174,0 Z M 1358,739 L 309,1346 659,739 1358,739 Z"/>
  </g>
  <g id="bullet-char-template-10132" transform="scale(0.00048828125,-0.00048828125)">
   <path d="M 2015,739 L 1276,0 717,0 1260,543 174,543 174,936 1260,936 717,1481 1274,1481 2015,739 Z"/>
  </g>
  <g id="bullet-char-template-10007" transform="scale(0.00048828125,-0.00048828125)">
   <path d="M 0,-2 C -7,14 -16,27 -25,37 L 356,567 C 262,823 215,952 215,954 215,979 228,992 255,992 264,992 276,990 289,987 310,991 331,999 354,1012 L 381,999 492,748 772,1049 836,1024 860,1049 C 881,1039 901,1025 922,1006 886,937 835,863 770,784 769,783 710,716 594,584 L 774,223 C 774,196 753,168 711,139 L 727,119 C 717,90 699,76 672,76 641,76 570,178 457,381 L 164,-76 C 142,-110 111,-127 72,-127 30,-127 9,-110 8,-76 1,-67 -2,-52 -2,-32 -2,-23 -1,-13 0,-2 Z"/>
  </g>
  <g id="bullet-char-template-10004" transform="scale(0.00048828125,-0.00048828125)">
   <path d="M 285,-33 C 182,-33 111,30 74,156 52,228 41,333 41,471 41,549 55,616 82,672 116,743 169,778 240,778 293,778 328,747 346,684 L 369,508 C 377,444 397,411 428,410 L 1163,1116 C 1174,1127 1196,1133 1229,1133 1271,1133 1292,1118 1292,1087 L 1292,965 C 1292,929 1282,901 1262,881 L 442,47 C 390,-6 338,-33 285,-33 Z"/>
  </g>
  <g id="bullet-char-template-9679" transform="scale(0.00048828125,-0.00048828125)">
   <path d="M 813,0 C 632,0 489,54 383,161 276,268 223,411 223,592 223,773 276,916 383,1023 489,1130 632,1184 813,1184 992,1184 1136,1130 1245,1023 1353,916 1407,772 1407,592 1407,412 1353,268 1245,161 1136,54 992,0 813,0 Z"/>
  </g>
  <g id="bullet-char-template-8226" transform="scale(0.00048828125,-0.00048828125)">
   <path d="M 346,457 C 273,457 209,483 155,535 101,586 74,649 74,723 74,796 101,859 155,911 209,963 273,989 346,989 419,989 480,963 531,910 582,859 608,796 608,723 608,648 583,586 532,535 482,483 420,457 346,457 Z"/>
  </g>
  <g id="bullet-char-template-8211" transform="scale(0.00048828125,-0.00048828125)">
   <path d="M -4,459 L 1135,459 1135,606 -4,606 -4,459 Z"/>
  </g>
  <g id="bullet-char-template-61548" transform="scale(0.00048828125,-0.00048828125)">
   <path d="M 173,740 C 173,903 231,1043 346,1159 462,1274 601,1332 765,1332 928,1332 1067,1274 1183,1159 1299,1043 1357,903 1357,740 1357,577 1299,437 1183,322 1067,206 928,148 765,148 601,148 462,206 346,322 231,437 173,577 173,740 Z"/>
  </g>
 </defs>
 <defs class="TextEmbeddedBitmaps"/>
 <g>
  <g id="id2" class="Master_Slide">
   <g id="bg-id2" class="Background"/>
   <g id="bo-id2" class="BackgroundObjects"/>
  </g>
 </g>
 <g class="SlideGroup">
  <g>
   <g id="container-id1">
    <g id="id1" class="Slide" clip-path="url(#presentation_clip_path)">
     <g class="Page">
      <g class="Graphic">
       <g id="id3">
        <rect class="BoundingBox" stroke="none" fill="none" x="44" y="44" width="36631" height="36631"/>
        <defs>
         <clipPath id="clip_path_1" clipPathUnits="userSpaceOnUse">
          <path d="M 44,44 L 36674,44 36674,36674 44,36674 44,44 Z"/>
         </clipPath>
        </defs>
        <g clip-path="url(#clip_path_1)">
         <path fill="rgb(0,0,0)" stroke="none" d="M 2372,19094 L 2372,24688 2372,24688 C 2380,24683 2388,24678 2396,24673 2571,24573 2742,24527 2943,24526 L 2943,24526 C 3145,24526 3317,24572 3492,24673 3667,24774 3793,24900 3894,25075 3995,25250 4041,25422 4041,25624 4041,25624 4041,25624 4041,25624 L 4041,25624 C 4041,25624 4041,25624 4041,25624 4041,25826 3995,25998 3894,26173 3793,26347 3667,26473 3492,26574 3317,26675 3145,26721 2943,26721 L 2943,26721 C 2742,26721 2571,26675 2397,26574 2388,26569 2381,26565 2372,26559 L 2372,33225 2372,33225 C 2529,33148 2678,33113 2854,33113 L 2854,33113 C 2854,33113 2854,33113 2854,33113 3056,33113 3227,33159 3402,33260 3577,33361 3703,33487 3804,33662 3905,33837 3951,34008 3951,34210 L 3951,34210 C 3951,34210 3951,34210 3951,34210 3951,34412 3905,34584 3804,34759 3703,34934 3577,35060 3402,35161 3227,35262 3056,35308 2854,35308 2854,35308 2854,35308 2854,35308 L 2854,35308 C 2678,35307 2529,35273 2372,35195 L 2372,36674 16249,36674 16249,35495 16249,35495 C 16098,35564 15957,35595 15791,35596 L 15791,35596 C 15589,35596 15418,35550 15243,35449 15068,35348 14942,35222 14841,35047 14740,34872 14694,34700 14694,34498 L 14694,34498 C 14694,34498 14694,34498 14694,34498 14694,34296 14740,34125 14841,33950 14942,33775 15068,33649 15243,33548 15418,33447 15589,33401 15791,33401 L 15791,33401 C 15957,33401 16098,33432 16249,33502 L 16249,26945 16249,26945 C 16124,26989 16013,27009 15881,27009 L 15881,27009 C 15679,27009 15507,26963 15332,26862 15158,26761 15032,26635 14931,26460 14830,26286 14784,26114 14784,25912 14784,25912 14784,25912 14784,25912 L 14784,25912 C 14784,25710 14830,25538 14931,25363 15032,25188 15158,25062 15332,24961 15507,24860 15679,24814 15881,24814 L 15881,24814 C 16013,24815 16125,24834 16249,24879 L 16249,19094 2372,19094 2372,19094 Z M 5162,20248 L 5162,20248 C 5162,20248 5162,20248 5162,20248 5364,20248 5536,20294 5710,20395 5885,20496 6011,20622 6112,20797 6213,20971 6259,21143 6259,21345 L 6259,21345 C 6259,21345 6259,21345 6259,21345 6259,21547 6213,21719 6112,21894 6011,22069 5885,22195 5710,22296 5536,22397 5364,22443 5162,22443 5162,22443 5162,22443 5162,22443 L 5162,22443 C 4960,22443 4788,22397 4613,22296 4438,22195 4312,22069 4211,21894 4110,21719 4064,21547 4064,21345 4064,21345 4064,21345 4064,21345 L 4064,21345 C 4064,21143 4110,20971 4211,20797 4312,20622 4438,20496 4613,20395 4788,20294 4960,20248 5162,20248 L 5162,20248 Z M 9497,20357 L 9497,20357 C 9699,20358 9871,20404 10046,20505 10221,20606 10346,20731 10447,20906 10548,21081 10594,21253 10594,21455 10594,21455 10594,21455 10594,21455 L 10594,21455 C 10594,21657 10548,21829 10447,22004 10346,22179 10221,22304 10046,22405 9871,22506 9699,22552 9497,22552 L 9497,22552 C 9497,22552 9497,22552 9497,22552 9295,22552 9123,22506 8948,22405 8773,22304 8647,22179 8546,22004 8445,21829 8399,21657 8399,21455 L 8399,21455 C 8399,21455 8399,21455 8399,21455 8399,21253 8445,21081 8546,20906 8647,20731 8773,20606 8948,20505 9123,20404 9295,20357 9497,20357 9497,20357 9497,20357 9497,20357 L 9497,20357 Z M 13805,20412 L 13805,20412 C 13805,20412 13805,20412 13805,20412 14007,20412 14178,20458 14353,20559 14528,20660 14654,20786 14755,20961 14856,21136 14902,21308 14902,21510 L 14902,21510 C 14902,21510 14902,21510 14902,21510 14902,21712 14856,21884 14755,22059 14654,22234 14528,22359 14353,22460 14178,22561 14007,22607 13805,22607 13805,22607 13805,22607 13805,22607 L 13805,22607 C 13805,22607 13805,22607 13805,22607 13603,22607 13431,22561 13256,22460 13081,22359 12955,22234 12854,22059 12753,21884 12707,21712 12707,21510 12707,21510 12707,21510 12707,21510 L 12707,21510 C 12707,21308 12753,21136 12854,20961 12955,20786 13081,20660 13256,20559 13431,20458 13603,20412 13805,20412 13805,20412 13805,20412 13805,20412 L 13805,20412 Z M 7298,24652 L 7298,24652 C 7298,24652 7298,24652 7298,24652 7500,24652 7672,24698 7847,24799 8022,24900 8147,25025 8248,25200 8349,25375 8395,25547 8395,25749 L 8395,25749 C 8395,25749 8395,25749 8395,25749 8395,25951 8349,26123 8248,26298 8147,26473 8022,26598 7847,26700 7672,26801 7500,26847 7298,26847 7298,26847 7298,26847 7298,26847 L 7298,26847 C 7096,26847 6924,26801 6749,26700 6574,26598 6448,26473 6347,26298 6246,26123 6200,25951 6200,25749 6200,25749 6200,25749 6200,25749 L 6200,25749 C 6200,25547 6246,25375 6347,25200 6448,25025 6574,24900 6749,24799 6924,24698 7096,24652 7298,24652 L 7298,24652 Z M 11620,24741 L 11620,24741 C 11620,24741 11620,24741 11620,24741 11823,24741 11994,24787 12169,24888 12344,24989 12470,25115 12571,25290 12672,25465 12718,25636 12718,25838 12718,25839 12718,25839 12718,25839 L 12718,25839 C 12718,25839 12718,25839 12718,25839 12718,26041 12672,26212 12571,26387 12470,26562 12344,26688 12169,26789 11994,26890 11823,26936 11620,26936 11620,26936 11620,26936 11620,26936 L 11620,26936 C 11620,26936 11620,26936 11620,26936 11418,26936 11247,26890 11072,26789 10897,26688 10771,26562 10670,26387 10569,26212 10523,26041 10523,25839 10523,25839 10523,25839 10523,25839 L 10523,25839 C 10523,25839 10523,25839 10523,25838 10523,25636 10569,25465 10670,25290 10771,25115 10897,24989 11072,24888 11247,24787 11418,24741 11620,24741 11620,24741 11620,24741 11620,24741 L 11620,24741 Z M 4953,28816 L 4953,28816 C 4953,28816 4953,28816 4953,28816 5155,28816 5327,28862 5502,28963 5677,29064 5802,29190 5903,29365 6005,29540 6051,29711 6051,29914 6051,29914 6051,29914 6051,29914 L 6051,29914 C 6051,30116 6005,30287 5903,30462 5802,30637 5677,30763 5502,30864 5327,30965 5155,31011 4953,31011 4953,31011 4953,31011 4953,31011 L 4953,31011 C 4953,31011 4953,31011 4953,31011 4751,31011 4579,30965 4404,30864 4229,30763 4104,30637 4003,30462 3901,30287 3855,30116 3855,29914 L 3855,29914 C 3855,29914 3855,29914 3855,29914 3855,29711 3901,29540 4003,29365 4104,29190 4229,29064 4404,28963 4579,28862 4751,28816 4953,28816 4953,28816 4953,28816 4953,28816 L 4953,28816 Z M 9305,28959 L 9305,28959 C 9305,28959 9305,28959 9305,28959 9507,28959 9679,29005 9854,29106 10029,29207 10154,29333 10255,29508 10356,29683 10402,29855 10402,30057 10402,30057 10402,30057 10402,30057 L 10402,30057 C 10402,30057 10402,30057 10402,30057 10402,30259 10356,30431 10255,30606 10154,30781 10029,30906 9854,31007 9679,31108 9507,31154 9305,31154 9305,31154 9305,31154 9305,31154 L 9305,31154 C 9305,31154 9305,31154 9305,31154 9103,31154 8931,31108 8756,31007 8581,30906 8455,30781 8354,30606 8253,30431 8207,30259 8207,30057 8207,30057 8207,30057 8207,30057 L 8207,30057 C 8207,30057 8207,30057 8207,30057 8207,29855 8253,29683 8354,29508 8455,29333 8581,29207 8756,29106 8931,29005 9103,28959 9305,28959 9305,28959 9305,28959 9305,28959 L 9305,28959 Z M 13630,29031 L 13630,29031 C 13630,29031 13630,29031 13630,29031 13832,29031 14004,29077 14179,29178 14354,29279 14480,29405 14581,29580 14682,29755 14728,29926 14728,30128 14728,30128 14728,30128 14728,30128 L 14728,30128 C 14728,30330 14682,30502 14581,30677 14480,30852 14354,30978 14179,31079 14004,31180 13832,31226 13630,31226 13630,31226 13630,31226 13630,31226 L 13630,31226 C 13630,31226 13630,31226 13630,31226 13428,31226 13256,31180 13081,31079 12906,30978 12781,30852 12680,30677 12579,30502 12533,30330 12533,30128 L 12533,30128 C 12533,30128 12533,30128 12533,30128 12533,29926 12579,29755 12680,29580 12781,29405 12906,29279 13081,29178 13256,29077 13428,29031 13630,29031 13630,29031 13630,29031 13630,29031 L 13630,29031 Z M 7208,33238 L 7208,33238 C 7410,33238 7582,33284 7757,33385 7932,33486 8057,33612 8158,33787 8260,33962 8306,34134 8306,34336 8306,34336 8306,34336 8306,34336 L 8306,34336 C 8306,34538 8259,34709 8158,34884 8057,35059 7932,35185 7757,35286 7582,35387 7410,35433 7208,35433 L 7208,35433 C 7208,35433 7208,35433 7208,35433 7006,35433 6834,35387 6659,35286 6484,35185 6359,35059 6258,34884 6157,34709 6111,34538 6111,34336 L 6111,34336 C 6111,34336 6111,34336 6111,34336 6111,34134 6157,33962 6258,33787 6359,33612 6484,33486 6659,33385 6834,33284 7006,33238 7208,33238 7208,33238 7208,33238 7208,33238 L 7208,33238 Z M 11531,33328 L 11531,33328 C 11531,33328 11531,33328 11531,33328 11733,33328 11904,33374 12079,33475 12254,33576 12380,33701 12481,33876 12582,34051 12628,34223 12628,34425 L 12628,34425 C 12628,34425 12628,34425 12628,34425 12628,34627 12582,34799 12481,34974 12380,35149 12254,35275 12079,35376 11904,35477 11733,35523 11531,35523 11531,35523 11531,35523 11531,35523 L 11531,35523 C 11531,35523 11531,35523 11531,35523 11329,35523 11157,35477 10982,35376 10807,35275 10681,35149 10580,34974 10479,34799 10433,34627 10433,34425 10433,34425 10433,34425 10433,34425 L 10433,34425 C 10433,34223 10479,34051 10580,33876 10681,33701 10807,33576 10982,33475 11157,33374 11329,33328 11531,33328 11531,33328 11531,33328 11531,33328 L 11531,33328 Z"/>
         <path fill="rgb(0,0,0)" stroke="none" d="M 20469,19094 L 20469,24668 20469,24668 C 20473,24666 20476,24665 20480,24662 20654,24562 20825,24516 21026,24515 L 21026,24515 C 21026,24515 21026,24515 21026,24515 21228,24515 21400,24561 21575,24662 21750,24763 21875,24889 21976,25064 22077,25239 22123,25411 22123,25613 22123,25613 22123,25613 22123,25613 L 22123,25613 C 22123,25613 22123,25613 22123,25613 22123,25815 22077,25987 21976,26162 21875,26337 21750,26462 21575,26563 21400,26664 21228,26710 21026,26710 21026,26710 21026,26710 21026,26710 L 21026,26710 C 20825,26710 20654,26664 20479,26563 20476,26561 20473,26560 20469,26558 L 20469,33207 20469,33207 C 20623,33135 20767,33103 20936,33102 L 20936,33102 C 20936,33102 20936,33102 20936,33102 21138,33102 21310,33148 21485,33249 21660,33350 21786,33476 21887,33651 21988,33826 22034,33998 22034,34200 22034,34200 22034,34200 22034,34200 L 22034,34200 C 22034,34402 21988,34573 21887,34748 21786,34923 21660,35049 21485,35150 21310,35251 21138,35297 20936,35297 20936,35297 20936,35297 20936,35297 L 20936,35297 C 20766,35297 20623,35264 20469,35192 L 20469,36674 34346,36674 34346,35477 34346,35477 C 34191,35551 34046,35585 33874,35585 L 33874,35585 C 33874,35585 33874,35585 33874,35585 33672,35585 33500,35539 33325,35438 33150,35337 33024,35211 32923,35036 32822,34861 32776,34690 32776,34488 L 32776,34488 C 32776,34488 32776,34488 32776,34488 32776,34286 32822,34114 32923,33939 33024,33764 33150,33638 33325,33537 33500,33436 33672,33390 33874,33390 33874,33390 33874,33390 33874,33390 L 33874,33390 C 34046,33391 34191,33424 34346,33498 L 34346,26929 34346,26929 C 34217,26977 34101,26998 33964,26998 L 33964,26998 C 33964,26998 33964,26998 33964,26998 33762,26998 33590,26952 33415,26851 33240,26750 33114,26625 33013,26450 32912,26275 32866,26103 32866,25901 32866,25901 32866,25901 32866,25901 L 32866,25901 C 32866,25699 32912,25527 33013,25352 33114,25177 33240,25051 33415,24950 33590,24849 33762,24803 33964,24803 33964,24803 33964,24803 33964,24803 L 33964,24803 C 34101,24804 34217,24825 34346,24874 L 34346,19094 20469,19094 20469,19094 Z M 23259,20248 L 23259,20248 C 23259,20248 23259,20248 23259,20248 23461,20248 23633,20294 23808,20395 23983,20496 24109,20622 24210,20797 24311,20971 24357,21143 24357,21345 L 24357,21345 C 24357,21345 24357,21345 24357,21345 24357,21547 24311,21719 24210,21894 24109,22069 23983,22195 23808,22296 23633,22397 23461,22443 23259,22443 23259,22443 23259,22443 23259,22443 L 23259,22443 C 23259,22443 23259,22443 23259,22443 23057,22443 22885,22397 22710,22296 22536,22195 22410,22069 22309,21894 22208,21719 22162,21547 22162,21345 22162,21345 22162,21345 22162,21345 L 22162,21345 C 22162,21143 22208,20971 22309,20797 22410,20622 22536,20496 22710,20395 22885,20294 23057,20248 23259,20248 23259,20248 23259,20248 23259,20248 L 23259,20248 Z M 27579,20347 L 27579,20347 C 27579,20347 27579,20347 27579,20347 27781,20347 27953,20393 28128,20494 28303,20595 28429,20720 28530,20895 28631,21070 28677,21242 28677,21444 28677,21444 28677,21444 28677,21444 L 28677,21444 C 28677,21646 28631,21818 28530,21993 28429,22168 28303,22294 28128,22395 27953,22496 27781,22542 27579,22542 27579,22542 27579,22542 27579,22542 L 27579,22542 C 27579,22542 27579,22542 27579,22542 27377,22542 27206,22496 27031,22395 26856,22294 26730,22168 26629,21993 26528,21818 26482,21646 26482,21444 L 26482,21444 C 26482,21444 26482,21444 26482,21444 26482,21242 26528,21070 26629,20895 26730,20720 26856,20595 27031,20494 27206,20393 27377,20347 27579,20347 27579,20347 27579,20347 27579,20347 L 27579,20347 Z M 31887,20402 L 31887,20402 C 32089,20402 32261,20448 32436,20549 32611,20650 32737,20775 32838,20950 32939,21125 32985,21297 32985,21499 L 32985,21499 C 32985,21499 32985,21499 32985,21499 32985,21701 32939,21873 32838,22048 32737,22223 32611,22349 32436,22450 32261,22551 32089,22597 31887,22597 L 31887,22597 C 31887,22597 31887,22597 31887,22597 31685,22597 31513,22551 31338,22450 31163,22349 31038,22223 30937,22048 30836,21873 30790,21701 30790,21499 30790,21499 30790,21499 30790,21499 L 30790,21499 C 30790,21297 30836,21125 30937,20950 31038,20775 31163,20650 31338,20549 31513,20448 31685,20402 31887,20402 31887,20402 31887,20402 31887,20402 L 31887,20402 Z M 25380,24641 L 25380,24641 C 25380,24641 25380,24641 25380,24641 25582,24641 25754,24687 25929,24788 26104,24889 26230,25014 26331,25189 26432,25364 26478,25536 26478,25738 L 26478,25738 C 26478,25738 26478,25738 26478,25738 26478,25940 26432,26112 26331,26287 26230,26462 26104,26588 25929,26689 25754,26790 25582,26836 25380,26836 25380,26836 25380,26836 25380,26836 L 25380,26836 C 25380,26836 25380,26836 25380,26836 25178,26836 25007,26790 24832,26689 24657,26588 24531,26462 24430,26287 24329,26112 24283,25940 24283,25738 24283,25738 24283,25738 24283,25738 L 24283,25738 C 24283,25536 24329,25364 24430,25189 24531,25014 24657,24889 24832,24788 25007,24687 25178,24641 25380,24641 25380,24641 25380,24641 25380,24641 L 25380,24641 Z M 29703,24730 L 29703,24730 C 29703,24730 29703,24730 29703,24730 29905,24730 30077,24776 30252,24877 30427,24978 30552,25104 30653,25279 30754,25454 30800,25626 30800,25828 L 30800,25828 C 30800,25828 30800,25828 30800,25828 30800,26030 30754,26201 30653,26376 30552,26551 30427,26677 30252,26778 30077,26879 29905,26925 29703,26925 29703,26925 29703,26925 29703,26925 L 29703,26925 C 29703,26925 29703,26925 29703,26925 29501,26925 29329,26879 29154,26778 28979,26677 28853,26551 28752,26376 28651,26201 28605,26030 28605,25828 28605,25828 28605,25828 28605,25828 L 28605,25828 C 28605,25626 28651,25454 28752,25279 28853,25104 28979,24978 29154,24877 29329,24776 29501,24730 29703,24730 29703,24730 29703,24730 29703,24730 L 29703,24730 Z M 23035,28805 L 23035,28805 C 23035,28805 23035,28805 23035,28805 23238,28805 23409,28851 23584,28952 23759,29053 23885,29179 23986,29354 24087,29529 24133,29701 24133,29903 24133,29903 24133,29903 24133,29903 L 24133,29903 C 24133,30105 24087,30276 23986,30451 23885,30626 23759,30752 23584,30853 23409,30954 23238,31000 23035,31000 23035,31000 23035,31000 23035,31000 L 23035,31000 C 23035,31000 23035,31000 23035,31000 22833,31000 22662,30954 22487,30853 22312,30752 22186,30626 22085,30451 21984,30276 21938,30105 21938,29903 L 21938,29903 C 21938,29903 21938,29903 21938,29903 21938,29701 21984,29529 22085,29354 22186,29179 22312,29053 22487,28952 22662,28851 22833,28805 23035,28805 23035,28805 23035,28805 23035,28805 L 23035,28805 Z M 27387,28948 L 27387,28948 C 27387,28948 27387,28948 27387,28948 27589,28948 27761,28994 27936,29095 28111,29196 28237,29322 28338,29497 28439,29672 28485,29844 28485,30046 28485,30046 28485,30046 28485,30046 L 28485,30046 C 28485,30046 28485,30046 28485,30046 28485,30248 28439,30420 28338,30595 28237,30770 28111,30895 27936,30996 27761,31097 27589,31143 27387,31143 27387,31143 27387,31143 27387,31143 L 27387,31143 C 27185,31143 27014,31097 26839,30996 26664,30895 26538,30770 26437,30595 26336,30420 26290,30248 26290,30046 26290,30046 26290,30046 26290,30046 L 26290,30046 C 26290,30046 26290,30046 26290,30046 26290,29844 26336,29672 26437,29497 26538,29322 26664,29196 26839,29095 27014,28994 27185,28948 27387,28948 L 27387,28948 Z M 31713,29020 L 31713,29020 C 31713,29020 31713,29020 31713,29020 31915,29020 32086,29066 32261,29167 32436,29268 32562,29394 32663,29569 32764,29744 32810,29915 32810,30117 32810,30117 32810,30117 32810,30117 L 32810,30117 C 32810,30117 32810,30117 32810,30118 32810,30320 32764,30491 32663,30666 32562,30841 32436,30967 32261,31068 32086,31169 31915,31215 31713,31215 31713,31215 31713,31215 31713,31215 L 31713,31215 C 31511,31215 31339,31169 31164,31068 30989,30967 30863,30841 30762,30666 30661,30491 30615,30320 30615,30118 30615,30117 30615,30117 30615,30117 L 30615,30117 C 30615,30117 30615,30117 30615,30117 30615,29915 30661,29744 30762,29569 30863,29394 30989,29268 31164,29167 31339,29066 31511,29020 31713,29020 L 31713,29020 Z M 25291,33227 L 25291,33227 C 25291,33227 25291,33227 25291,33227 25493,33227 25664,33273 25839,33374 26014,33475 26140,33601 26241,33776 26342,33951 26388,34123 26388,34325 26388,34325 26388,34325 26388,34325 L 26388,34325 C 26388,34527 26342,34699 26241,34874 26140,35049 26014,35174 25839,35275 25664,35376 25493,35422 25291,35422 25291,35422 25291,35422 25291,35422 L 25291,35422 C 25291,35422 25291,35422 25291,35422 25088,35422 24917,35376 24742,35275 24567,35174 24441,35049 24340,34874 24239,34699 24193,34527 24193,34325 L 24193,34325 C 24193,34325 24193,34325 24193,34325 24193,34123 24239,33951 24340,33776 24441,33601 24567,33475 24742,33374 24917,33273 25088,33227 25291,33227 25291,33227 25291,33227 25291,33227 L 25291,33227 Z M 29613,33317 L 29613,33317 C 29613,33317 29613,33317 29613,33317 29815,33317 29987,33363 30162,33464 30337,33565 30463,33691 30564,33866 30665,34041 30711,34212 30711,34414 30711,34414 30711,34414 30711,34414 L 30711,34414 C 30711,34616 30665,34788 30564,34963 30463,35138 30337,35264 30162,35365 29987,35466 29815,35512 29613,35512 29613,35512 29613,35512 29613,35512 L 29613,35512 C 29411,35512 29239,35466 29064,35365 28889,35264 28764,35138 28663,34963 28562,34788 28516,34616 28516,34414 L 28516,34414 C 28516,34414 28516,34414 28516,34414 28516,34212 28562,34041 28663,33866 28764,33691 28889,33565 29064,33464 29239,33363 29411,33317 29613,33317 L 29613,33317 Z"/>
         <path fill="rgb(0,0,0)" stroke="none" d="M 90,9896 L 90,17096 16249,17096 16249,9896 90,9896 Z M 20469,9896 L 20469,17096 36628,17096 36628,9896 20469,9896 Z"/>
         <path fill="rgb(0,0,0)" stroke="none" d="M 27524,1382 C 26522,205 24133,-331 22437,333 L 22436,333 22435,333 C 22283,394 22138,463 22000,538 20489,1263 20018,2054 19152,3597 18595,4712 18118,5921 17740,7061 17733,7083 17729,7103 17729,7126 17729,7181 17748,7228 17789,7276 17829,7324 17880,7359 17951,7386 17980,7397 18006,7405 18039,7412 19745,8470 21784,8441 23602,8664 25419,8887 27392,8863 29064,8210 L 29070,8208 C 30731,7533 31111,5849 30120,4685 L 30120,4684 30120,4684 C 29593,4068 28718,3637 27724,3486 28029,2828 28049,2000 27524,1383 L 27524,1382 27524,1382 Z M 26290,1978 C 26771,2546 26603,3329 26183,3886 26149,3931 26134,3973 26134,4023 26134,4078 26152,4125 26193,4173 26233,4221 26284,4255 26356,4283 26419,4308 26481,4320 26554,4322 27475,4354 28328,4518 28754,5085 L 28754,5085 C 29324,5810 29252,6308 28024,6809 26590,7368 25468,7400 23765,7191 22184,6997 21054,6984 19418,6628 19626,5376 19645,5243 20128,4276 20651,3229 21270,2336 22596,1705 22606,1700 22614,1696 22623,1691 22726,1634 22834,1583 22947,1538 24204,1047 25516,1069 26290,1978 L 26290,1978 Z"/>
         <path fill="rgb(0,0,0)" stroke="none" d="M 9150,1382 C 10138,205 12493,-331 14164,333 L 14165,333 14167,333 C 14317,394 14460,463 14595,538 16085,1263 16550,2054 17403,3597 17952,4712 18423,5921 18795,7061 18803,7083 18806,7103 18806,7126 18806,7181 18788,7228 18747,7276 18707,7324 18657,7359 18587,7386 18558,7397 18533,7405 18501,7412 16819,8470 14808,8441 13016,8664 11225,8887 9279,8863 7632,8210 L 7625,8208 C 5988,7533 5613,5849 6590,4685 L 6590,4684 6590,4684 C 7110,4068 7973,3637 8952,3486 8652,2828 8632,2000 9149,1383 L 9150,1382 9150,1382 Z M 10366,1978 C 9892,2546 10058,3329 10472,3886 10505,3931 10520,3973 10520,4023 10520,4078 10502,4125 10462,4173 10422,4221 10372,4255 10302,4283 10239,4308 10178,4320 10106,4322 9198,4354 8357,4518 7937,5085 L 7937,5085 C 7375,5810 7446,6308 8657,6809 10070,7368 11176,7400 12855,7191 14414,6997 15528,6984 17141,6628 16936,5376 16918,5243 16441,4276 15925,3229 15316,2336 14008,1705 13998,1700 13990,1696 13981,1691 13880,1634 13773,1583 13662,1538 12422,1047 11130,1069 10367,1978 L 10366,1978 Z"/>
        </g>
       </g>
      </g>
     </g>
    </g>
   </g>
  </g>
 </g>
</svg>