<?xml version="1.0" encoding="UTF-8"?>
<!DOCTYPE svg PUBLIC "-//W3C//DTD SVG 1.1//EN" "http://www.w3.org/Graphics/SVG/1.1/DTD/svg11.dtd">
<svg version="1.2" width="367.19mm" height="367.19mm" viewBox="0 0 36719 36719" preserveAspectRatio="xMidYMid" fill-rule="evenodd" stroke-width="28.222" stroke-linejoin="round" xmlns="http://www.w3.org/2000/svg" xmlns:ooo="http://xml.openoffice.org/svg/export" xmlns:xlink="http://www.w3.org/1999/xlink" xmlns:presentation="http://sun.com/xmlns/staroffice/presentation" xmlns:smil="http://www.w3.org/2001/SMIL20/" xmlns:anim="urn:oasis:names:tc:opendocument:xmlns:animation:1.0" xml:space="preserve">
 <defs class="ClipPathGroup">
  <clipPath id="presentation_clip_path" clipPathUnits="userSpaceOnUse">
   <rect x="0" y="0" width="36719" height="36719"/>
  </clipPath>
  <clipPath id="presentation_clip_path_shrink" clipPathUnits="userSpaceOnUse">
   <rect x="36" y="36" width="36646" height="36646"/>
  </clipPath>
 </defs>
 <defs class="TextShapeIndex">
  <g ooo:slide="id1" ooo:id-list="id3"/>
 </defs>
 <defs class="EmbeddedBulletChars">
  <g id="bullet-char-template-57356" transform="scale(0.00048828125,-0.00048828125)">
   <path d="M 580,1141 L 1163,571 580,0 -4,571 580,1141 Z"/>
  </g>
  <g id="bullet-char-template-57354" transform="scale(0.00048828125,-0.00048828125)">
   <path d="M 8,1128 L 1137,1128 1137,0 8,0 8,1128 Z"/>
  </g>
  <g id="bullet-char-template-10146" transform="scale(0.00048828125,-0.00048828125)">
   <path d="M 174,0 L 602,739 174,1481 1456,739 174,0 Z M 1358,739 L 309,1346 659,739 1358,739 Z"/>
  </g>
  <g id="bullet-char-template-10132" transform="scale(0.00048828125,-0.00048828125)">
   <path d="M 2015,739 L 1276,0 717,0 1260,543 174,543 174,936 1260,936 717,1481 1274,1481 2015,739 Z"/>
  </g>
  <g id="bullet-char-template-10007" transform="scale(0.00048828125,-0.00048828125)">
   <path d="M 0,-2 C -7,14 -16,27 -25,37 L 356,567 C 262,823 215,952 215,954 215,979 228,992 255,992 264,992 276,990 289,987 310,991 331,999 354,1012 L 381,999 492,748 772,1049 836,1024 860,1049 C 881,1039 901,1025 922,1006 886,937 835,863 770,784 769,783 710,716 594,584 L 774,223 C 774,196 753,168 711,139 L 727,119 C 717,90 699,76 672,76 641,76 570,178 457,381 L 164,-76 C 142,-110 111,-127 72,-127 30,-127 9,-110 8,-76 1,-67 -2,-52 -2,-32 -2,-23 -1,-13 0,-2 Z"/>
  </g>
  <g id="bullet-char-template-10004" transform="scale(0.00048828125,-0.00048828125)">
   <path d="M 285,-33 C 182,-33 111,30 74,156 52,228 41,333 41,471 41,549 55,616 82,672 116,743 169,778 240,778 293,778 328,747 346,684 L 369,508 C 377,444 397,411 428,410 L 1163,1116 C 1174,1127 1196,1133 1229,1133 1271,1133 1292,1118 1292,1087 L 1292,965 C 1292,929 1282,901 1262,881 L 442,47 C 390,-6 338,-33 285,-33 Z"/>
  </g>
  <g id="bullet-char-template-9679" transform="scale(0.00048828125,-0.00048828125)">
   <path d="M 813,0 C 632,0 489,54 383,161 276,268 223,411 223,592 223,773 276,916 383,1023 489,1130 632,1184 813,1184 992,1184 1136,1130 1245,1023 1353,916 1407,772 1407,592 1407,412 1353,268 1245,161 1136,54 992,0 813,0 Z"/>
  </g>
  <g id="bullet-char-template-8226" transform="scale(0.00048828125,-0.00048828125)">
   <path d="M 346,457 C 273,457 209,483 155,535 101,586 74,649 74,723 74,796 101,859 155,911 209,963 273,989 346,989 419,989 480,963 531,910 582,859 608,796 608,723 608,648 583,586 532,535 482,483 420,457 346,457 Z"/>
  </g>
  <g id="bullet-char-template-8211" transform="scale(0.00048828125,-0.00048828125)">
   <path d="M -4,459 L 1135,459 1135,606 -4,606 -4,459 Z"/>
  </g>
  <g id="bullet-char-template-61548" transform="scale(0.00048828125,-0.00048828125)">
   <path d="M 173,740 C 173,903 231,1043 346,1159 462,1274 601,1332 765,1332 928,1332 1067,1274 1183,1159 1299,1043 1357,903 1357,740 1357,577 1299,437 1183,322 1067,206 928,148 765,148 601,148 462,206 346,322 231,437 173,577 173,740 Z"/>
  </g>
 </defs>
 <defs class="TextEmbeddedBitmaps"/>
 <g>
  <g id="id2" class="Master_Slide">
   <g id="bg-id2" class="Background"/>
   <g id="bo-id2" class="BackgroundObjects"/>
  </g>
 </g>
 <g class="SlideGroup">
  <g>
   <g id="container-id1">
    <g id="id1" class="Slide" clip-path="url(#presentation_clip_path)">
     <g class="Page">
      <g class="Graphic">
       <g id="id3">
        <rect class="BoundingBox" stroke="none" fill="none" x="69" y="69" width="36581" height="36581"/>
        <defs>
         <clipPath id="clip_path_1" clipPathUnits="userSpaceOnUse">
          <path d="M 69,69 L 36649,69 36649,36649 69,36649 69,69 Z"/>
         </clipPath>
        </defs>
        <g clip-path="url(#clip_path_1)">
         <path fill="rgb(0,0,0)" stroke="none" d="M 3053,15337 L 3053,36649 15065,36649 15065,15337 3053,15337 Z M 21653,15337 L 21653,36649 33665,36649 33665,15337 21653,15337 Z"/>
         <path fill="rgb(0,0,0)" stroke="none" d="M 379,6754 L 379,13341 15065,13341 15065,6754 379,6754 379,6754 Z M 21653,6754 L 21653,13341 36339,13341 36339,6754 21653,6754 21653,6754 Z"/>
         <path fill="rgb(0,0,0)" stroke="none" d="M 18359,36649 L 17277,36649 17277,6811 19441,6811 19441,36649 18359,36649 Z"/>
         <path fill="rgb(0,0,0)" stroke="none" d="M 27511,969 C 26510,177 24125,-183 22432,263 L 22431,263 22430,264 C 22277,304 22133,351 21995,402 20486,889 20015,1422 19151,2459 18595,3210 18118,4024 17741,4790 17733,4805 17730,4819 17730,4834 17730,4871 17749,4903 17789,4935 17830,4968 17881,4991 17951,5009 17981,5017 18007,5022 18039,5027 19743,5739 21780,5719 23595,5869 25409,6019 27380,6003 29049,5564 L 29056,5562 C 30714,5108 31094,3975 30104,3192 L 30104,3191 30104,3191 C 29578,2776 28704,2486 27712,2385 28016,1942 28035,1385 27512,970 L 27512,969 27511,969 Z M 26279,1370 C 26760,1752 26591,2280 26172,2654 26139,2684 26123,2713 26123,2746 26123,2783 26141,2815 26182,2847 26223,2880 26274,2903 26345,2921 26408,2938 26469,2946 26543,2948 27463,2969 28315,3080 28740,3461 L 28740,3461 C 29309,3949 29237,4284 28011,4621 26579,4997 25459,5018 23758,4878 22179,4747 21050,4739 19417,4499 19624,3657 19643,3567 20125,2917 20648,2212 21266,1611 22590,1187 22600,1184 22608,1181 22617,1177 22720,1139 22828,1105 22941,1074 24196,744 25506,759 26279,1370 L 26279,1370 Z"/>
         <path fill="rgb(0,0,0)" stroke="none" d="M 9162,969 C 10149,177 12501,-183 14170,263 L 14171,263 14172,264 C 14322,304 14465,351 14600,402 16088,889 16552,1422 17404,2459 17953,3210 18423,4024 18795,4790 18802,4805 18805,4819 18805,4834 18805,4871 18787,4903 18747,4935 18707,4968 18657,4991 18587,5009 18558,5017 18532,5022 18501,5027 16821,5739 14813,5719 13024,5869 11235,6019 9292,6003 7646,5564 L 7640,5562 C 6005,5108 5631,3975 6606,3192 L 6606,3191 6606,3191 C 7125,2776 7987,2486 8965,2385 8665,1942 8646,1385 9162,970 L 9162,969 9162,969 Z M 10377,1370 C 9903,1752 10069,2280 10483,2654 10516,2684 10531,2713 10531,2746 10531,2783 10513,2815 10473,2847 10433,2880 10383,2903 10313,2921 10250,2938 10189,2946 10117,2948 9210,2969 8371,3080 7951,3461 L 7951,3461 C 7390,3949 7461,4284 8670,4621 10082,4997 11186,5018 12863,4878 14419,4747 15532,4739 17142,4499 16938,3657 16920,3567 16444,2917 15929,2212 15320,1611 14014,1187 14004,1184 13996,1181 13987,1177 13886,1139 13780,1105 13668,1074 12431,744 11140,759 10377,1370 L 10377,1370 Z"/>
        </g>
       </g>
      </g>
     </g>
    </g>
   </g>
  </g>
 </g>
</svg>