<?xml version="1.0" encoding="UTF-8"?>
<!DOCTYPE svg PUBLIC "-//W3C//DTD SVG 1.1//EN" "http://www.w3.org/Graphics/SVG/1.1/DTD/svg11.dtd">
<svg version="1.2" width="293.75mm" height="293.75mm" viewBox="0 0 29375 29375" preserveAspectRatio="xMidYMid" fill-rule="evenodd" stroke-width="28.222" stroke-linejoin="round" xmlns="http://www.w3.org/2000/svg" xmlns:ooo="http://xml.openoffice.org/svg/export" xmlns:xlink="http://www.w3.org/1999/xlink" xmlns:presentation="http://sun.com/xmlns/staroffice/presentation" xmlns:smil="http://www.w3.org/2001/SMIL20/" xmlns:anim="urn:oasis:names:tc:opendocument:xmlns:animation:1.0" xml:space="preserve">
 <defs class="ClipPathGroup">
  <clipPath id="presentation_clip_path" clipPathUnits="userSpaceOnUse">
   <rect x="0" y="0" width="29375" height="29375"/>
  </clipPath>
  <clipPath id="presentation_clip_path_shrink" clipPathUnits="userSpaceOnUse">
   <rect x="29" y="29" width="29317" height="29317"/>
  </clipPath>
 </defs>
 <defs class="TextShapeIndex">
  <g ooo:slide="id1" ooo:id-list="id3"/>
 </defs>
 <defs class="EmbeddedBulletChars">
  <g id="bullet-char-template-57356" transform="scale(0.00048828125,-0.00048828125)">
   <path d="M 580,1141 L 1163,571 580,0 -4,571 580,1141 Z"/>
  </g>
  <g id="bullet-char-template-57354" transform="scale(0.00048828125,-0.00048828125)">
   <path d="M 8,1128 L 1137,1128 1137,0 8,0 8,1128 Z"/>
  </g>
  <g id="bullet-char-template-10146" transform="scale(0.00048828125,-0.00048828125)">
   <path d="M 174,0 L 602,739 174,1481 1456,739 174,0 Z M 1358,739 L 309,1346 659,739 1358,739 Z"/>
  </g>
  <g id="bullet-char-template-10132" transform="scale(0.00048828125,-0.00048828125)">
   <path d="M 2015,739 L 1276,0 717,0 1260,543 174,543 174,936 1260,936 717,1481 1274,1481 2015,739 Z"/>
  </g>
  <g id="bullet-char-template-10007" transform="scale(0.00048828125,-0.00048828125)">
   <path d="M 0,-2 C -7,14 -16,27 -25,37 L 356,567 C 262,823 215,952 215,954 215,979 228,992 255,992 264,992 276,990 289,987 310,991 331,999 354,1012 L 381,999 492,748 772,1049 836,1024 860,1049 C 881,1039 901,1025 922,1006 886,937 835,863 770,784 769,783 710,716 594,584 L 774,223 C 774,196 753,168 711,139 L 727,119 C 717,90 699,76 672,76 641,76 570,178 457,381 L 164,-76 C 142,-110 111,-127 72,-127 30,-127 9,-110 8,-76 1,-67 -2,-52 -2,-32 -2,-23 -1,-13 0,-2 Z"/>
  </g>
  <g id="bullet-char-template-10004" transform="scale(0.00048828125,-0.00048828125)">
   <path d="M 285,-33 C 182,-33 111,30 74,156 52,228 41,333 41,471 41,549 55,616 82,672 116,743 169,778 240,778 293,778 328,747 346,684 L 369,508 C 377,444 397,411 428,410 L 1163,1116 C 1174,1127 1196,1133 1229,1133 1271,1133 1292,1118 1292,1087 L 1292,965 C 1292,929 1282,901 1262,881 L 442,47 C 390,-6 338,-33 285,-33 Z"/>
  </g>
  <g id="bullet-char-template-9679" transform="scale(0.00048828125,-0.00048828125)">
   <path d="M 813,0 C 632,0 489,54 383,161 276,268 223,411 223,592 223,773 276,916 383,1023 489,1130 632,1184 813,1184 992,1184 1136,1130 1245,1023 1353,916 1407,772 1407,592 1407,412 1353,268 1245,161 1136,54 992,0 813,0 Z"/>
  </g>
  <g id="bullet-char-template-8226" transform="scale(0.00048828125,-0.00048828125)">
   <path d="M 346,457 C 273,457 209,483 155,535 101,586 74,649 74,723 74,796 101,859 155,911 209,963 273,989 346,989 419,989 480,963 531,910 582,859 608,796 608,723 608,648 583,586 532,535 482,483 420,457 346,457 Z"/>
  </g>
  <g id="bullet-char-template-8211" transform="scale(0.00048828125,-0.00048828125)">
   <path d="M -4,459 L 1135,459 1135,606 -4,606 -4,459 Z"/>
  </g>
  <g id="bullet-char-template-61548" transform="scale(0.00048828125,-0.00048828125)">
   <path d="M 173,740 C 173,903 231,1043 346,1159 462,1274 601,1332 765,1332 928,1332 1067,1274 1183,1159 1299,1043 1357,903 1357,740 1357,577 1299,437 1183,322 1067,206 928,148 765,148 601,148 462,206 346,322 231,437 173,577 173,740 Z"/>
  </g>
 </defs>
 <defs class="TextEmbeddedBitmaps"/>
 <g>
  <g id="id2" class="Master_Slide">
   <g id="bg-id2" class="Background"/>
   <g id="bo-id2" class="BackgroundObjects"/>
  </g>
 </g>
 <g class="SlideGroup">
  <g>
   <g id="container-id1">
    <g id="id1" class="Slide" clip-path="url(#presentation_clip_path)">
     <g class="Page">
      <g class="Graphic">
       <g id="id3">
        <rect class="BoundingBox" stroke="none" fill="none" x="-13" y="-13" width="29401" height="29401"/>
        <path fill="rgb(0,0,0)" stroke="none" d="M 17406,22096 C 17395,22096 17385,22100 17375,22106 17365,22112 17355,22121 17346,22132 17336,22144 17327,22158 17319,22174 17311,22190 17303,22209 17296,22229 17289,22250 17283,22273 17277,22297 17272,22321 17267,22347 17263,22374 17259,22401 17256,22430 17254,22460 17252,22489 17251,22520 17251,22552 L 17251,26919 C 17251,26950 17252,26981 17254,27011 17256,27040 17259,27069 17263,27096 17267,27123 17272,27149 17277,27173 17283,27198 17289,27220 17296,27241 17303,27261 17311,27280 17319,27296 17327,27313 17336,27327 17346,27338 17355,27350 17365,27359 17375,27365 17385,27371 17395,27374 17406,27374 L 20738,27374 C 20749,27374 20760,27371 20770,27365 20780,27358 20790,27350 20799,27338 20808,27327 20817,27313 20825,27296 20833,27280 20841,27261 20848,27241 20855,27220 20861,27198 20867,27173 20873,27149 20877,27123 20881,27096 20885,27069 20888,27040 20890,27011 20892,26981 20893,26950 20893,26919 L 20893,22552 C 20893,22520 20892,22489 20890,22460 20888,22430 20885,22401 20881,22374 20877,22347 20873,22321 20867,22297 20861,22273 20855,22250 20848,22229 20841,22209 20833,22190 20825,22174 20817,22158 20808,22144 20799,22132 20790,22121 20780,22112 20770,22106 20760,22100 20749,22096 20738,22096 L 17406,22096 Z"/>
        <path fill="rgb(0,0,0)" stroke="none" d="M 1207,50 C 667,50 232,440 232,925 L 232,28449 C 232,28934 667,29324 1207,29324 L 25780,29324 29142,25786 29142,925 C 29142,440 28707,50 28167,50 L 1207,50 Z M 24545,3596 C 24598,3596 24650,3601 24700,3611 24750,3620 24799,3634 24845,3652 24891,3670 24934,3692 24975,3718 25016,3743 25054,3772 25089,3805 25124,3837 25155,3872 25183,3910 25211,3948 25234,3988 25254,4031 25273,4074 25288,4119 25298,4165 25309,4211 25314,4260 25314,4309 L 25314,16817 C 25314,16866 25309,16915 25298,16961 25288,17007 25273,17052 25254,17095 25234,17138 25211,17178 25183,17216 25155,17254 25124,17289 25089,17321 25054,17353 25016,17383 24975,17408 24934,17434 24891,17456 24845,17474 24799,17492 24750,17506 24700,17515 24650,17524 24598,17529 24545,17529 L 4829,17529 C 4776,17529 4724,17524 4674,17515 4624,17506 4575,17492 4529,17474 4483,17456 4440,17434 4399,17408 4358,17383 4320,17353 4285,17321 4250,17289 4219,17254 4191,17216 4163,17178 4140,17138 4120,17095 4101,17052 4086,17007 4076,16961 4065,16915 4060,16866 4060,16817 L 4060,4309 C 4060,4260 4065,4211 4076,4165 4086,4119 4101,4074 4120,4031 4140,3988 4163,3948 4191,3910 4219,3872 4250,3837 4285,3805 4320,3772 4358,3743 4399,3718 4440,3692 4483,3670 4529,3652 4575,3634 4624,3620 4674,3611 4724,3601 4776,3596 4829,3596 L 24545,3596 Z M 21484,20900 C 21527,20900 21570,20905 21611,20913 21653,20922 21692,20935 21730,20952 21768,20968 21804,20989 21838,21013 21871,21036 21903,21063 21931,21093 21960,21123 21986,21156 22008,21191 22031,21226 22051,21264 22067,21303 22083,21343 22095,21385 22103,21428 22112,21471 22116,21516 22116,21561 L 22116,27909 C 22116,27954 22112,27999 22103,28042 22095,28086 22083,28127 22067,28167 22051,28206 22031,28244 22008,28279 21986,28314 21960,28347 21931,28377 21903,28407 21871,28434 21838,28458 21804,28481 21768,28502 21730,28518 21692,28535 21653,28548 21611,28557 21570,28566 21527,28570 21484,28570 L 7890,28570 C 7847,28570 7804,28566 7763,28557 7721,28548 7682,28535 7644,28518 7606,28502 7570,28481 7536,28458 7503,28434 7471,28407 7443,28377 7414,28347 7388,28314 7366,28279 7343,28244 7323,28206 7307,28167 7291,28127 7279,28086 7271,28042 7262,27999 7258,27954 7258,27909 L 7258,21561 C 7258,21516 7262,21471 7271,21428 7279,21385 7291,21343 7307,21303 7323,21264 7343,21226 7366,21191 7388,21156 7414,21123 7443,21093 7471,21063 7503,21036 7536,21013 7570,20989 7606,20968 7644,20952 7682,20935 7721,20922 7763,20913 7804,20904 7847,20900 7890,20900 L 21484,20900 Z"/>
        <path fill="rgb(0,0,0)" stroke="none" d="M 7413,13945 L 7413,13945 C 7409,13944 7405,13944 7401,13944 7239,13944 7103,13981 6963,14062 6824,14142 6723,14242 6643,14382 6562,14521 6526,14658 6526,14819 6526,14980 6562,15117 6643,15257 6723,15396 6824,15496 6963,15577 7103,15657 7239,15694 7401,15694 7405,15694 7409,15694 7413,15694 L 21961,15694 21961,15694 C 21965,15694 21969,15694 21973,15694 22135,15694 22271,15657 22411,15577 22550,15496 22651,15396 22731,15257 22812,15117 22848,14980 22848,14819 22848,14658 22812,14521 22731,14382 22651,14242 22550,14142 22411,14062 22271,13981 22135,13944 21973,13944 21969,13944 21965,13944 21961,13945 L 7413,13945 Z"/>
        <path fill="rgb(0,0,0)" stroke="none" d="M 7413,9649 L 7413,9649 C 7409,9649 7405,9649 7401,9649 7239,9649 7103,9686 6963,9766 6824,9847 6723,9947 6643,10087 6562,10226 6526,10363 6526,10524 6526,10685 6562,10822 6643,10962 6723,11101 6824,11201 6963,11282 7103,11362 7239,11399 7401,11399 7405,11399 7409,11399 7413,11399 L 21961,11399 21961,11399 C 21965,11399 21969,11399 21973,11399 22135,11399 22271,11362 22411,11282 22550,11201 22651,11101 22731,10962 22812,10822 22848,10685 22848,10524 22848,10363 22812,10226 22731,10087 22651,9947 22550,9847 22411,9766 22271,9686 22135,9649 21973,9649 21969,9649 21965,9649 21961,9649 L 7413,9649 Z"/>
        <path fill="rgb(0,0,0)" stroke="none" d="M 7413,5351 L 7413,5351 C 7409,5351 7405,5351 7401,5351 7239,5351 7103,5388 6963,5468 6824,5549 6723,5649 6643,5788 6562,5928 6526,6065 6526,6226 6526,6387 6562,6524 6643,6663 6723,6803 6824,6903 6963,6983 7103,7064 7239,7101 7401,7101 7405,7101 7409,7101 7413,7100 L 21961,7100 21961,7100 C 21965,7101 21969,7101 21973,7101 22135,7101 22271,7064 22411,6983 22550,6903 22651,6803 22731,6663 22812,6524 22848,6387 22848,6226 22848,6065 22812,5928 22731,5788 22651,5649 22550,5549 22411,5468 22271,5388 22135,5351 21973,5351 21969,5351 21965,5351 21961,5351 L 7413,5351 Z"/>
       </g>
      </g>
     </g>
    </g>
   </g>
  </g>
 </g>
</svg>