<?xml version="1.0" encoding="utf-8"?>
<!-- Created by sK1 2.0rc4 (https://sk1project.net/) -->
<svg xmlns="http://www.w3.org/2000/svg" height="832.677165354pt" viewBox="0 0 832.677165354 832.677165354" width="832.677165354pt" version="1.1" xmlns:xlink="http://www.w3.org/1999/xlink" id="fd3a4d24-b11d-11ea-bb2a-a0f3c11e789f">

<g>
	<path style="fill-rule:evenodd;fill:#2d2c2b;" d="M 185.1028,581.9462 C 83.3432,581.9462 0.8508,638.0744 0.8508,707.312 0.8508,776.5496 83.3432,832.6778 185.1028,832.6778 L 647.576,832.6778 C 749.3355,832.6778 831.8279,776.5496 831.8279,707.312 831.8279,638.0744 749.3355,581.9462 647.576,581.9462 L 185.1028,581.9462 Z M 571.2419,705.8748 C 571.2419,674.9444 545.0969,649.8609 512.8576,649.8609 480.6183,649.8609 454.4733,674.9444 454.4733,705.8748 454.4733,736.8052 480.6183,761.8888 512.8576,761.8888 545.0969,761.8888 571.2419,736.8052 571.2419,705.8748 Z M 743.1599,708.7486 C 743.1599,677.8182 717.0149,652.7347 684.7756,652.7347 652.5363,652.7347 626.3914,677.8182 626.3914,708.7486 626.3914,739.679 652.5363,764.7625 684.7756,764.7625 717.0149,764.7625 743.1599,739.679 743.1599,708.7486 Z" />
	<path style="fill-rule:evenodd;fill:#2d2c2b;" d="M 164.5416,525.8287 C 50.7728,525.1688 45.6809,544.8742 -0.7025,583.5472 L 108.5278,52.8294 C 108.5278,23.8945 133.6113,0.4292 164.5416,0.4292 L 677.2837,0.4292 C 708.214,0.4292 733.2975,23.8945 733.2975,52.8294 L 831.5624,583.5472 C 776.9848,541.627 779.2576,525.8287 677.2837,525.8287 L 164.5416,525.8287 Z" />
</g>
</svg>