<?xml version="1.0" encoding="UTF-8"?>
<!DOCTYPE svg PUBLIC "-//W3C//DTD SVG 1.1//EN" "http://www.w3.org/Graphics/SVG/1.1/DTD/svg11.dtd">
<svg version="1.2" width="293.75mm" height="293.75mm" viewBox="0 0 29375 29375" preserveAspectRatio="xMidYMid" fill-rule="evenodd" stroke-width="28.222" stroke-linejoin="round" xmlns="http://www.w3.org/2000/svg" xmlns:ooo="http://xml.openoffice.org/svg/export" xmlns:xlink="http://www.w3.org/1999/xlink" xmlns:presentation="http://sun.com/xmlns/staroffice/presentation" xmlns:smil="http://www.w3.org/2001/SMIL20/" xmlns:anim="urn:oasis:names:tc:opendocument:xmlns:animation:1.0" xml:space="preserve">
 <defs class="ClipPathGroup">
  <clipPath id="presentation_clip_path" clipPathUnits="userSpaceOnUse">
   <rect x="0" y="0" width="29375" height="29375"/>
  </clipPath>
  <clipPath id="presentation_clip_path_shrink" clipPathUnits="userSpaceOnUse">
   <rect x="29" y="29" width="29317" height="29317"/>
  </clipPath>
 </defs>
 <defs class="TextShapeIndex">
  <g ooo:slide="id1" ooo:id-list="id3"/>
 </defs>
 <defs class="EmbeddedBulletChars">
  <g id="bullet-char-template-57356" transform="scale(0.00048828125,-0.00048828125)">
   <path d="M 580,1141 L 1163,571 580,0 -4,571 580,1141 Z"/>
  </g>
  <g id="bullet-char-template-57354" transform="scale(0.00048828125,-0.00048828125)">
   <path d="M 8,1128 L 1137,1128 1137,0 8,0 8,1128 Z"/>
  </g>
  <g id="bullet-char-template-10146" transform="scale(0.00048828125,-0.00048828125)">
   <path d="M 174,0 L 602,739 174,1481 1456,739 174,0 Z M 1358,739 L 309,1346 659,739 1358,739 Z"/>
  </g>
  <g id="bullet-char-template-10132" transform="scale(0.00048828125,-0.00048828125)">
   <path d="M 2015,739 L 1276,0 717,0 1260,543 174,543 174,936 1260,936 717,1481 1274,1481 2015,739 Z"/>
  </g>
  <g id="bullet-char-template-10007" transform="scale(0.00048828125,-0.00048828125)">
   <path d="M 0,-2 C -7,14 -16,27 -25,37 L 356,567 C 262,823 215,952 215,954 215,979 228,992 255,992 264,992 276,990 289,987 310,991 331,999 354,1012 L 381,999 492,748 772,1049 836,1024 860,1049 C 881,1039 901,1025 922,1006 886,937 835,863 770,784 769,783 710,716 594,584 L 774,223 C 774,196 753,168 711,139 L 727,119 C 717,90 699,76 672,76 641,76 570,178 457,381 L 164,-76 C 142,-110 111,-127 72,-127 30,-127 9,-110 8,-76 1,-67 -2,-52 -2,-32 -2,-23 -1,-13 0,-2 Z"/>
  </g>
  <g id="bullet-char-template-10004" transform="scale(0.00048828125,-0.00048828125)">
   <path d="M 285,-33 C 182,-33 111,30 74,156 52,228 41,333 41,471 41,549 55,616 82,672 116,743 169,778 240,778 293,778 328,747 346,684 L 369,508 C 377,444 397,411 428,410 L 1163,1116 C 1174,1127 1196,1133 1229,1133 1271,1133 1292,1118 1292,1087 L 1292,965 C 1292,929 1282,901 1262,881 L 442,47 C 390,-6 338,-33 285,-33 Z"/>
  </g>
  <g id="bullet-char-template-9679" transform="scale(0.00048828125,-0.00048828125)">
   <path d="M 813,0 C 632,0 489,54 383,161 276,268 223,411 223,592 223,773 276,916 383,1023 489,1130 632,1184 813,1184 992,1184 1136,1130 1245,1023 1353,916 1407,772 1407,592 1407,412 1353,268 1245,161 1136,54 992,0 813,0 Z"/>
  </g>
  <g id="bullet-char-template-8226" transform="scale(0.00048828125,-0.00048828125)">
   <path d="M 346,457 C 273,457 209,483 155,535 101,586 74,649 74,723 74,796 101,859 155,911 209,963 273,989 346,989 419,989 480,963 531,910 582,859 608,796 608,723 608,648 583,586 532,535 482,483 420,457 346,457 Z"/>
  </g>
  <g id="bullet-char-template-8211" transform="scale(0.00048828125,-0.00048828125)">
   <path d="M -4,459 L 1135,459 1135,606 -4,606 -4,459 Z"/>
  </g>
  <g id="bullet-char-template-61548" transform="scale(0.00048828125,-0.00048828125)">
   <path d="M 173,740 C 173,903 231,1043 346,1159 462,1274 601,1332 765,1332 928,1332 1067,1274 1183,1159 1299,1043 1357,903 1357,740 1357,577 1299,437 1183,322 1067,206 928,148 765,148 601,148 462,206 346,322 231,437 173,577 173,740 Z"/>
  </g>
 </defs>
 <defs class="TextEmbeddedBitmaps"/>
 <g>
  <g id="id2" class="Master_Slide">
   <g id="bg-id2" class="Background"/>
   <g id="bo-id2" class="BackgroundObjects"/>
  </g>
 </g>
 <g class="SlideGroup">
  <g>
   <g id="container-id1">
    <g id="id1" class="Slide" clip-path="url(#presentation_clip_path)">
     <g class="Page">
      <g class="Graphic">
       <g id="id3">
        <rect class="BoundingBox" stroke="none" fill="none" x="-13" y="-13" width="29401" height="29401"/>
        <path fill="rgb(0,0,0)" stroke="none" d="M 14687,10062 C 14485,10062 14286,10072 14090,10092 13894,10111 13701,10141 13511,10179 13321,10218 13135,10266 12953,10322 12770,10379 12592,10444 12418,10517 12244,10590 12074,10672 11909,10761 11744,10850 11584,10947 11430,11052 11275,11156 11126,11267 10982,11386 10839,11504 10701,11629 10570,11760 10439,11892 10314,12029 10195,12173 10077,12316 9965,12465 9861,12620 9757,12775 9660,12935 9571,13100 9481,13264 9400,13434 9327,13608 9253,13782 9188,13961 9132,14143 9075,14326 9028,14512 8989,14702 8951,14891 8921,15084 8901,15281 8882,15477 8871,15676 8871,15877 8871,16079 8882,16278 8901,16474 8921,16670 8951,16863 8989,17053 9028,17243 9075,17429 9132,17612 9188,17794 9253,17972 9327,18147 9400,18321 9481,18490 9571,18655 9660,18820 9757,18980 9861,19135 9965,19289 10077,19439 10195,19582 10314,19725 10439,19863 10570,19994 10701,20126 10839,20251 10982,20369 11126,20487 11275,20599 11430,20703 11584,20807 11744,20904 11909,20994 12074,21083 12244,21164 12418,21238 12592,21311 12770,21376 12953,21433 13135,21489 13321,21537 13511,21575 13701,21614 13894,21643 14090,21663 14286,21683 14485,21693 14687,21693 14889,21693 15088,21683 15284,21663 15480,21643 15673,21614 15863,21575 16052,21537 16239,21489 16421,21433 16604,21376 16782,21311 16956,21238 17130,21164 17300,21083 17465,20994 17630,20904 17790,20807 17944,20703 18099,20599 18248,20487 18392,20369 18535,20251 18673,20126 18804,19994 18935,19863 19060,19725 19179,19582 19297,19439 19409,19289 19513,19135 19617,18980 19714,18820 19803,18655 19893,18490 19974,18321 20047,18147 20121,17972 20186,17794 20242,17612 20299,17429 20346,17243 20385,17053 20424,16863 20453,16670 20473,16474 20492,16278 20503,16079 20503,15877 20503,15676 20492,15477 20473,15281 20453,15084 20424,14891 20385,14702 20346,14512 20299,14326 20242,14143 20186,13961 20121,13782 20047,13608 19974,13434 19893,13264 19803,13100 19714,12935 19617,12775 19513,12620 19409,12465 19297,12316 19179,12173 19060,12029 18935,11892 18804,11760 18673,11629 18535,11504 18392,11386 18248,11267 18099,11156 17944,11052 17790,10947 17630,10850 17465,10761 17300,10672 17130,10590 16956,10517 16782,10444 16604,10379 16421,10322 16239,10266 16052,10218 15863,10179 15673,10141 15480,10111 15284,10092 15088,10072 14889,10062 14687,10062 L 14687,10062 Z"/>
        <path fill="rgb(0,0,0)" stroke="none" d="M 7608,3217 C 7320,3217 7086,3432 7086,3697 L 5472,7667 1098,7667 C 547,7667 100,8077 100,8584 L 100,25239 C 100,25746 547,26157 1098,26157 L 28276,26157 C 28827,26157 29274,25746 29274,25239 L 29274,8584 C 29274,8077 28827,7667 28276,7667 L 23604,7667 21759,3697 C 21759,3432 21525,3217 21237,3217 L 7608,3217 Z M 15098,7877 C 15234,7884 15370,7894 15504,7908 15638,7921 15772,7938 15904,7959 16036,7979 16168,8003 16298,8029 16428,8056 16557,8086 16685,8119 16813,8152 16939,8188 17064,8227 17190,8266 17314,8309 17436,8354 17559,8399 17680,8447 17800,8498 17920,8548 18038,8602 18155,8658 18271,8715 18386,8774 18500,8836 18613,8897 18725,8962 18835,9029 18945,9096 19054,9166 19160,9238 19267,9310 19372,9385 19475,9462 19577,9539 19678,9618 19777,9700 19876,9781 19973,9866 20068,9952 20163,10038 20256,10127 20347,10217 20437,10308 20526,10401 20612,10496 20699,10591 20783,10688 20865,10787 20946,10886 21026,10987 21103,11090 21180,11193 21254,11297 21326,11404 21399,11511 21468,11619 21535,11729 21602,11839 21667,11951 21729,12065 21790,12178 21849,12293 21906,12410 21962,12527 22016,12645 22067,12765 22117,12884 22165,13005 22210,13128 22255,13251 22298,13375 22337,13500 22376,13625 22412,13752 22445,13880 22478,14007 22508,14136 22535,14267 22562,14397 22585,14528 22605,14660 22626,14793 22643,14926 22656,15060 22670,15195 22681,15330 22688,15466 22694,15602 22698,15739 22698,15877 22698,16015 22694,16152 22688,16288 22681,16425 22670,16560 22656,16694 22643,16829 22626,16962 22605,17094 22585,17227 22562,17358 22535,17488 22508,17618 22478,17747 22445,17875 22412,18003 22376,18129 22337,18255 22298,18380 22255,18504 22210,18627 22165,18749 22117,18870 22067,18990 22016,19110 21962,19228 21906,19345 21849,19461 21790,19577 21729,19690 21667,19804 21602,19915 21535,20026 21468,20136 21399,20244 21326,20351 21254,20457 21180,20562 21103,20665 21026,20768 20946,20869 20865,20968 20783,21067 20699,21164 20612,21259 20526,21354 20437,21446 20347,21537 20256,21628 20163,21716 20068,21803 19973,21889 19876,21973 19777,22055 19678,22137 19577,22216 19475,22293 19372,22370 19267,22445 19160,22517 19054,22589 18945,22659 18835,22726 18725,22793 18613,22857 18500,22919 18386,22981 18271,23040 18155,23096 18038,23153 17920,23206 17800,23257 17680,23308 17559,23356 17436,23401 17314,23446 17190,23488 17064,23527 16939,23566 16813,23602 16685,23635 16557,23668 16428,23698 16298,23725 16168,23752 16036,23775 15904,23796 15772,23816 15638,23833 15504,23847 15370,23861 15234,23871 15098,23878 14962,23885 14825,23888 14687,23888 14549,23888 14412,23885 14276,23878 14140,23871 14004,23861 13870,23847 13736,23833 13602,23816 13470,23796 13338,23775 13206,23752 13076,23725 12946,23698 12817,23668 12689,23635 12561,23602 12435,23566 12310,23527 12184,23488 12060,23446 11938,23401 11815,23356 11694,23308 11574,23257 11454,23206 11336,23153 11220,23096 11103,23040 10988,22981 10874,22919 10761,22857 10649,22793 10539,22726 10429,22659 10320,22589 10214,22517 10107,22445 10002,22370 9899,22293 9797,22216 9696,22137 9597,22055 9498,21973 9401,21889 9306,21803 9211,21716 9118,21628 9027,21537 8937,21446 8848,21354 8762,21259 8675,21164 8591,21067 8510,20968 8428,20869 8348,20768 8271,20665 8194,20562 8120,20457 8048,20351 7976,20244 7906,20136 7839,20026 7772,19915 7707,19804 7646,19690 7584,19577 7525,19461 7468,19345 7412,19228 7358,19110 7307,18990 7257,18870 7209,18749 7164,18627 7119,18504 7076,18380 7037,18255 6998,18129 6962,18003 6929,17875 6896,17747 6866,17618 6839,17488 6813,17358 6789,17227 6769,17094 6748,16962 6731,16829 6718,16694 6704,16560 6693,16425 6687,16288 6680,16152 6676,16015 6676,15877 6676,15739 6680,15602 6687,15466 6693,15330 6704,15195 6718,15060 6731,14926 6748,14793 6769,14660 6789,14528 6813,14397 6839,14267 6866,14136 6896,14007 6929,13880 6962,13752 6998,13625 7037,13500 7076,13375 7119,13251 7164,13128 7209,13005 7257,12884 7307,12765 7358,12645 7412,12527 7468,12410 7525,12293 7584,12178 7646,12065 7707,11951 7772,11839 7839,11729 7906,11619 7976,11511 8048,11404 8120,11297 8194,11193 8271,11090 8348,10987 8428,10886 8510,10787 8591,10688 8675,10591 8762,10496 8848,10401 8937,10308 9027,10217 9118,10127 9211,10038 9306,9952 9401,9866 9498,9781 9597,9700 9696,9618 9797,9539 9899,9462 10002,9385 10107,9310 10214,9238 10320,9166 10429,9096 10539,9029 10649,8962 10761,8897 10874,8836 10988,8774 11103,8715 11220,8658 11336,8602 11454,8548 11574,8498 11694,8447 11815,8399 11938,8354 12060,8309 12184,8266 12310,8227 12435,8188 12561,8152 12689,8119 12817,8086 12946,8056 13076,8029 13206,8003 13338,7979 13470,7959 13602,7938 13736,7921 13870,7908 14004,7894 14140,7884 14276,7877 14412,7870 14549,7866 14687,7866 14825,7866 14962,7870 15098,7877 Z M 26761,9388 C 26786,9388 26807,9388 26832,9390 26867,9393 26896,9396 26931,9402 26966,9408 26995,9415 27028,9424 27062,9433 27091,9443 27123,9456 27156,9468 27183,9480 27215,9496 27231,9505 27245,9512 27261,9522 27275,9530 27287,9537 27301,9546 27331,9565 27355,9582 27383,9604 27410,9626 27432,9646 27458,9670 27483,9695 27503,9716 27526,9743 27548,9770 27566,9794 27586,9823 27601,9845 27614,9864 27627,9888 27631,9895 27635,9901 27638,9908 27655,9939 27668,9966 27682,9998 27696,10030 27706,10058 27716,10092 27727,10126 27734,10154 27741,10189 27748,10223 27752,10253 27756,10288 27759,10322 27761,10352 27761,10387 27761,10387 27761,10387 27761,10387 L 27761,11723 C 27761,11723 27761,11723 27761,11723 27761,11748 27760,11769 27758,11793 27756,11828 27752,11858 27746,11892 27740,11927 27734,11956 27725,11990 27715,12024 27706,12052 27693,12085 27680,12118 27668,12145 27652,12176 27644,12193 27636,12206 27627,12222 27619,12237 27611,12249 27603,12263 27584,12292 27566,12316 27544,12344 27523,12372 27503,12394 27478,12419 27454,12444 27432,12465 27405,12487 27378,12510 27355,12528 27326,12548 27304,12563 27284,12575 27261,12589 27254,12593 27248,12596 27241,12600 27210,12617 27183,12630 27151,12643 27118,12657 27090,12667 27057,12678 27023,12688 26994,12696 26960,12702 26925,12709 26896,12714 26861,12717 26826,12721 26796,12722 26761,12722 L 24710,12722 C 24685,12722 24664,12722 24640,12720 24605,12717 24575,12714 24541,12708 24506,12702 24477,12695 24443,12686 24409,12677 24381,12667 24348,12655 24315,12642 24288,12630 24257,12614 24240,12605 24227,12598 24211,12589 24196,12580 24184,12573 24170,12564 24141,12545 24116,12528 24089,12506 24061,12484 24039,12464 24014,12440 23989,12415 23968,12394 23946,12367 23923,12340 23905,12316 23885,12287 23870,12265 23858,12246 23845,12223 23840,12216 23837,12209 23833,12202 23816,12171 23803,12144 23790,12112 23776,12080 23766,12052 23755,12018 23745,11985 23737,11956 23730,11921 23724,11887 23719,11857 23716,11822 23712,11788 23711,11758 23711,11723 L 23711,10387 C 23711,10363 23711,10342 23713,10317 23716,10282 23719,10252 23725,10218 23731,10183 23738,10154 23747,10120 23756,10086 23766,10058 23778,10025 23791,9993 23803,9965 23819,9934 23828,9918 23835,9904 23844,9888 23853,9873 23860,9861 23869,9847 23888,9818 23905,9794 23927,9766 23949,9739 23969,9716 23993,9691 24018,9666 24039,9645 24066,9623 24093,9600 24117,9582 24146,9562 24168,9547 24187,9535 24210,9522 24217,9518 24224,9514 24231,9510 24262,9493 24289,9480 24321,9467 24353,9453 24381,9443 24415,9432 24448,9422 24477,9415 24512,9408 24546,9401 24575,9396 24610,9393 24645,9389 24675,9388 24710,9388 L 26761,9388 Z"/>
       </g>
      </g>
     </g>
    </g>
   </g>
  </g>
 </g>
</svg>