<?xml version="1.0" encoding="UTF-8"?>
<!DOCTYPE svg PUBLIC "-//W3C//DTD SVG 1.1//EN" "http://www.w3.org/Graphics/SVG/1.1/DTD/svg11.dtd">
<svg version="1.2" width="293.75mm" height="293.75mm" viewBox="0 0 29375 29375" preserveAspectRatio="xMidYMid" fill-rule="evenodd" stroke-width="28.222" stroke-linejoin="round" xmlns="http://www.w3.org/2000/svg" xmlns:ooo="http://xml.openoffice.org/svg/export" xmlns:xlink="http://www.w3.org/1999/xlink" xmlns:presentation="http://sun.com/xmlns/staroffice/presentation" xmlns:smil="http://www.w3.org/2001/SMIL20/" xmlns:anim="urn:oasis:names:tc:opendocument:xmlns:animation:1.0" xml:space="preserve">
 <defs class="ClipPathGroup">
  <clipPath id="presentation_clip_path" clipPathUnits="userSpaceOnUse">
   <rect x="0" y="0" width="29375" height="29375"/>
  </clipPath>
  <clipPath id="presentation_clip_path_shrink" clipPathUnits="userSpaceOnUse">
   <rect x="29" y="29" width="29317" height="29317"/>
  </clipPath>
 </defs>
 <defs class="TextShapeIndex">
  <g ooo:slide="id1" ooo:id-list="id3"/>
 </defs>
 <defs class="EmbeddedBulletChars">
  <g id="bullet-char-template-57356" transform="scale(0.00048828125,-0.00048828125)">
   <path d="M 580,1141 L 1163,571 580,0 -4,571 580,1141 Z"/>
  </g>
  <g id="bullet-char-template-57354" transform="scale(0.00048828125,-0.00048828125)">
   <path d="M 8,1128 L 1137,1128 1137,0 8,0 8,1128 Z"/>
  </g>
  <g id="bullet-char-template-10146" transform="scale(0.00048828125,-0.00048828125)">
   <path d="M 174,0 L 602,739 174,1481 1456,739 174,0 Z M 1358,739 L 309,1346 659,739 1358,739 Z"/>
  </g>
  <g id="bullet-char-template-10132" transform="scale(0.00048828125,-0.00048828125)">
   <path d="M 2015,739 L 1276,0 717,0 1260,543 174,543 174,936 1260,936 717,1481 1274,1481 2015,739 Z"/>
  </g>
  <g id="bullet-char-template-10007" transform="scale(0.00048828125,-0.00048828125)">
   <path d="M 0,-2 C -7,14 -16,27 -25,37 L 356,567 C 262,823 215,952 215,954 215,979 228,992 255,992 264,992 276,990 289,987 310,991 331,999 354,1012 L 381,999 492,748 772,1049 836,1024 860,1049 C 881,1039 901,1025 922,1006 886,937 835,863 770,784 769,783 710,716 594,584 L 774,223 C 774,196 753,168 711,139 L 727,119 C 717,90 699,76 672,76 641,76 570,178 457,381 L 164,-76 C 142,-110 111,-127 72,-127 30,-127 9,-110 8,-76 1,-67 -2,-52 -2,-32 -2,-23 -1,-13 0,-2 Z"/>
  </g>
  <g id="bullet-char-template-10004" transform="scale(0.00048828125,-0.00048828125)">
   <path d="M 285,-33 C 182,-33 111,30 74,156 52,228 41,333 41,471 41,549 55,616 82,672 116,743 169,778 240,778 293,778 328,747 346,684 L 369,508 C 377,444 397,411 428,410 L 1163,1116 C 1174,1127 1196,1133 1229,1133 1271,1133 1292,1118 1292,1087 L 1292,965 C 1292,929 1282,901 1262,881 L 442,47 C 390,-6 338,-33 285,-33 Z"/>
  </g>
  <g id="bullet-char-template-9679" transform="scale(0.00048828125,-0.00048828125)">
   <path d="M 813,0 C 632,0 489,54 383,161 276,268 223,411 223,592 223,773 276,916 383,1023 489,1130 632,1184 813,1184 992,1184 1136,1130 1245,1023 1353,916 1407,772 1407,592 1407,412 1353,268 1245,161 1136,54 992,0 813,0 Z"/>
  </g>
  <g id="bullet-char-template-8226" transform="scale(0.00048828125,-0.00048828125)">
   <path d="M 346,457 C 273,457 209,483 155,535 101,586 74,649 74,723 74,796 101,859 155,911 209,963 273,989 346,989 419,989 480,963 531,910 582,859 608,796 608,723 608,648 583,586 532,535 482,483 420,457 346,457 Z"/>
  </g>
  <g id="bullet-char-template-8211" transform="scale(0.00048828125,-0.00048828125)">
   <path d="M -4,459 L 1135,459 1135,606 -4,606 -4,459 Z"/>
  </g>
  <g id="bullet-char-template-61548" transform="scale(0.00048828125,-0.00048828125)">
   <path d="M 173,740 C 173,903 231,1043 346,1159 462,1274 601,1332 765,1332 928,1332 1067,1274 1183,1159 1299,1043 1357,903 1357,740 1357,577 1299,437 1183,322 1067,206 928,148 765,148 601,148 462,206 346,322 231,437 173,577 173,740 Z"/>
  </g>
 </defs>
 <defs class="TextEmbeddedBitmaps"/>
 <g>
  <g id="id2" class="Master_Slide">
   <g id="bg-id2" class="Background"/>
   <g id="bo-id2" class="BackgroundObjects"/>
  </g>
 </g>
 <g class="SlideGroup">
  <g>
   <g id="container-id1">
    <g id="id1" class="Slide" clip-path="url(#presentation_clip_path)">
     <g class="Page">
      <g class="Graphic">
       <g id="id3">
        <rect class="BoundingBox" stroke="none" fill="none" x="-13" y="-13" width="29401" height="29401"/>
        <path fill="rgb(0,0,0)" stroke="none" d="M 7855,1727 C 7271,1727 6704,2128 6704,2696 L 6704,26678 C 6704,27246 7271,27647 7855,27647 L 21519,27647 C 22103,27647 22670,27246 22670,26678 L 22670,5926 18576,1727 18259,1727 7855,1727 Z M 8085,2945 L 17942,2945 21289,6378 21289,26429 8085,26429 8085,2945 Z"/>
        <path fill="rgb(0,0,0)" stroke="none" d="M 22613,6359 L 18759,6359 C 18302,6359 17935,6101 17935,5782 L 17935,2212 16838,2212 16838,6487 C 16838,6952 17373,7317 18037,7327 L 22613,7327 22613,6359 Z"/>
        <path fill="rgb(0,0,0)" stroke="none" d="M 10303,19066 C 10070,19063 9845,19143 9679,19287 9514,19431 9420,19628 9420,19834 9420,20039 9514,20236 9679,20381 9845,20525 10070,20604 10303,20602 L 19057,20602 C 19290,20604 19514,20525 19680,20381 19846,20236 19940,20039 19940,19834 19940,19628 19846,19431 19680,19287 19514,19143 19290,19063 19057,19066 L 10303,19066 Z"/>
        <path fill="rgb(0,0,0)" stroke="none" d="M 10303,22220 C 10070,22217 9845,22297 9679,22441 9514,22585 9420,22782 9420,22988 9420,23193 9514,23390 9679,23535 9845,23679 10070,23759 10303,23756 L 19057,23756 C 19290,23759 19514,23679 19680,23535 19846,23390 19940,23193 19940,22988 19940,22782 19846,22585 19680,22441 19514,22297 19290,22217 19057,22220 L 10303,22220 Z"/>
        <path fill="rgb(0,0,0)" stroke="none" d="M 1201,8315 C 584,8315 83,8819 83,9440 L 83,21860 C 83,22482 584,22986 1201,22986 L 7685,22986 7685,16473 21914,16473 21914,22986 28173,22986 C 28790,22986 29291,22482 29291,21860 L 29291,9440 C 29291,8819 28790,8315 28173,8315 L 1201,8315 Z M 25855,10261 C 26187,10261 26469,10336 26757,10502 27044,10668 27251,10875 27417,11162 27583,11450 27658,11732 27658,12064 27658,12064 27658,12064 27658,12064 27658,12064 27658,12064 27658,12064 27658,12396 27583,12678 27417,12966 27251,13253 27044,13460 26757,13626 26469,13792 26187,13868 25855,13868 25855,13868 25855,13868 25855,13868 25523,13868 25241,13792 24953,13626 24665,13460 24459,13253 24293,12966 24127,12678 24051,12396 24051,12064 24051,12064 24051,12064 24051,12064 24051,12064 24051,12064 24051,12064 24051,11732 24127,11450 24293,11162 24459,10875 24665,10668 24953,10502 25241,10336 25523,10261 25855,10261 25855,10261 25855,10261 25855,10261 Z"/>
       </g>
      </g>
     </g>
    </g>
   </g>
  </g>
 </g>
</svg>