<?xml version="1.0" encoding="utf-8"?>
<!-- Created by sK1 2.0rc4 (https://sk1project.net/) -->
<svg xmlns="http://www.w3.org/2000/svg" height="832.677165354pt" viewBox="0 0 832.677165354 832.677165354" width="832.677165354pt" version="1.1" xmlns:xlink="http://www.w3.org/1999/xlink" id="d6f34d32-b2a3-11ea-be2e-a0f3c11e789f">

<g>
	<path style="fill-rule:evenodd;fill:#2d2c2b;" d="M 153.373,332.4247 C 134.0458,301.0391 124.5105,261.7621 124.5105,214.594 124.5105,147.7058 148.5147,95.6517 196.7929,58.162 245.6105,20.9419 313.8472,2.0622 401.7728,2.0622 438.9928,2.0622 479.9888,6.3776 524.7607,15.0083 569.2629,23.639 616.732,36.3154 667.1678,52.7677 L 667.1678,221.067 606.7527,221.067 C 600.2796,165.7764 581.1302,125.8593 549.5741,101.3156 517.7483,76.2325 469.2004,63.5562 403.9305,63.5562 347.0216,63.5562 303.8679,75.1537 274.4695,98.0791 244.8013,121.2742 230.237,154.1789 230.237,197.3325 230.237,235.6314 241.2951,265.2995 263.6811,286.8764 279.2434,302.0591 307.2253,317.2419 347.5328,332.4247 L 153.373,332.4247 153.373,332.4247 Z M 686.0417,499.0401 C 700.7612,526.7951 708.1638,560.0308 708.1638,598.6616 708.1638,674.9896 682.811,732.9774 632.6449,772.3551 583.0182,811.1934 508.5781,830.6125 409.3247,830.6125 365.3619,830.6125 320.3203,826.0274 274.4695,816.5876 228.349,807.4174 181.6891,792.8531 134.2201,773.4339 L 134.2201,593.2674 196.7929,593.2674 C 198.1414,653.6825 215.6726,698.4544 249.6561,727.0437 283.3699,755.9027 334.3452,770.1974 402.8516,770.1974 466.773,770.1974 515.5906,757.7907 549.5741,732.4379 583.2879,707.3549 600.2796,670.6743 600.2796,622.3961 600.2796,584.3669 589.7609,555.2382 568.9932,535.0099 557.1159,522.8159 537.4277,510.8078 509.9833,499.0402 L 686.0415,499.0402 686.0417,499.0401 Z" />
	<path style="fill-rule:evenodd;fill:#2d2c2b;" d="M 28.6358,387.9918 C 12.9805,387.9918 0.2894,400.6829 0.2894,416.3383 0.2894,431.9936 12.9805,444.6847 28.6358,444.6847 L 804.0391,444.6847 C 819.6944,444.6847 832.3856,431.9936 832.3856,416.3383 832.3856,400.6829 819.6944,387.9918 804.0391,387.9918 L 28.6358,387.9918 Z" />
</g>
</svg>