<?xml version="1.0" encoding="utf-8"?>
<!-- Created by sK1 2.0rc4 (https://sk1project.net/) -->
<svg xmlns="http://www.w3.org/2000/svg" height="832.677165354pt" viewBox="0 0 832.677165354 832.677165354" width="832.677165354pt" version="1.1" xmlns:xlink="http://www.w3.org/1999/xlink" id="24f792e2-b2a2-11ea-be2e-a0f3c11e789f">

<g>
	<path style="fill:none;" d="M -655.2007,-315.5622 L -655.2007,520.2265 172.0426,520.2265 172.0426,-315.5622 -655.2007,-315.5622 Z" />
	<g>
		<path style="fill-rule:evenodd;fill:#2d2c2b;" d="M 14.2626,803.9858 L 14.2626,749.0008 112.2046,749.0008 112.2046,84.198 14.2626,84.198 14.2626,28.6975 314.7899,28.6975 314.7899,84.198 216.8479,84.198 216.8479,353.1089 615.8327,353.1089 615.8327,84.198 517.8907,84.198 517.8907,28.6975 818.418,28.6975 818.418,84.198 720.476,84.198 720.476,749.0008 818.418,749.0008 818.418,803.9858 517.8907,803.9858 517.8907,749.0008 615.8327,749.0008 615.8327,416.4275 216.8479,416.4275 216.8479,749.0008 314.7899,749.0008 314.7899,803.9858 Z" />
	</g>
</g>
</svg>