<?xml version="1.0" encoding="utf-8"?>
<!-- Created by sK1 2.0rc4 (https://sk1project.net/) -->
<svg xmlns="http://www.w3.org/2000/svg" height="832.677165354pt" viewBox="0 0 832.677165354 832.677165354" width="832.677165354pt" version="1.1" xmlns:xlink="http://www.w3.org/1999/xlink" id="e333c974-b44b-11ea-be2e-a0f3c11e789f">

<g>
	<g>
		<path style="fill-rule:evenodd;fill:#2d2c2b;" d="M 392.5262,708.6691 L 392.5262,656.9952 480.1872,656.9952 480.1872,58.1318 278.1054,58.1318 278.1054,167.9388 220.8951,167.9388 220.8951,-0.0013 832.6769,-0.0013 832.6769,167.9388 776.3893,167.9388 776.3893,58.1318 573.3848,58.1318 573.3848,656.9952 661.9686,656.9952 661.9686,708.6691 Z" />
	</g>
	<g>
		<path style="fill-rule:evenodd;fill:#2d2c2b;" d="M 98.3382,832.6753 L 98.3382,803.0679 148.5651,803.0679 148.5651,459.939 32.7789,459.939 32.7789,522.8547 -0.0008,522.8547 -0.0008,426.6306 350.53,426.6306 350.53,522.8547 318.2791,522.8547 318.2791,459.939 201.9642,459.939 201.9642,803.0679 252.7198,803.0679 252.7198,832.6753 Z" />
	</g>
</g>
</svg>