<?xml version="1.0" encoding="utf-8"?>
<!-- Created by sK1 2.0rc4 (https://sk1project.net/) -->
<svg xmlns="http://www.w3.org/2000/svg" height="832.677165354pt" viewBox="0 0 832.677165354 832.677165354" width="832.677165354pt" version="1.1" xmlns:xlink="http://www.w3.org/1999/xlink" id="e8984782-b2a2-11ea-be2e-a0f3c11e789f">

<g>
	<path style="fill-rule:evenodd;fill:#2d2c2b;" d="M 0.2265,752.9437 L 0.2265,833.0171 832.4218,833.0171 832.4218,752.9437 0.2265,752.9437 Z" />
	<g>
		<path style="fill-rule:evenodd;fill:#2d2c2b;" d="M 183.2497,50.231 L 98.6503,50.231 98.6503,0.0001 355.9734,0.0001 355.9734,50.231 272.2553,50.231 272.2553,390.391 C 272.2553,474.5498 285.6943,533.1525 312.7925,566.6398 340.3314,599.6864 387.9185,615.9894 455.554,615.9894 522.5285,615.9894 569.675,599.6864 597.4342,566.6398 624.9731,533.1525 638.8527,474.5498 638.8527,390.391 L 638.8527,50.231 554.2533,50.231 554.2533,0.0001 776.3267,0.0001 776.3267,50.231 692.6085,50.231 692.6085,400.966 C 692.6085,502.0887 673.2212,573.4694 634.4465,615.1082 596.1124,656.3063 530.9003,676.7952 438.8104,676.7952 346.5001,676.7952 280.6271,656.086 241.4118,614.2269 202.637,571.9272 183.2497,500.9871 183.2497,400.966 Z" />
	</g>
</g>
</svg>