<?xml version="1.0" encoding="utf-8"?>
<!-- Created by sK1 2.0rc4 (https://sk1project.net/) -->
<svg xmlns="http://www.w3.org/2000/svg" height="832.677165354pt" viewBox="0 0 832.677165354 832.677165354" width="832.677165354pt" version="1.1" xmlns:xlink="http://www.w3.org/1999/xlink" id="7677a5a0-b44e-11ea-be2e-a0f3c11e789f">

<g>
	<path style="fill-rule:evenodd;fill:#2d2c2b;" d="M 45.8079,830.4126 C 21.7641,830.4126 2.2654,810.914 2.2654,786.8702 L 2.2654,45.8083 C 2.2654,21.7645 21.7641,2.2658 45.8079,2.2658 L 786.8698,2.2658 C 810.9136,2.2658 830.4122,21.7645 830.4122,45.8083 L 830.4122,786.8702 C 830.4122,810.914 810.9136,830.4126 786.8698,830.4126 L 45.8079,830.4126 Z M 273.1058,514.3726 L 508.4726,514.3726 390.7769,175.658 273.1058,514.3726 Z M 91.8492,772.4607 L 91.8492,721.9008 148.1139,721.9008 376.6006,60.2149 448.7556,60.2149 677.683,721.9008 740.8278,721.9008 740.8278,772.4607 507.6156,772.4607 507.6156,721.9008 578.9137,721.9008 525.2198,565.4222 255.5017,565.4222 201.8078,721.9008 272.2489,721.9008 272.2489,772.4607 91.8492,772.4607 Z" />
</g>
</svg>