<?xml version="1.0" encoding="utf-8"?>
<!-- Created by sK1 2.0rc4 (https://sk1project.net/) -->
<svg xmlns="http://www.w3.org/2000/svg" height="832.677165354pt" viewBox="0 0 832.677165354 832.677165354" width="832.677165354pt" version="1.1" xmlns:xlink="http://www.w3.org/1999/xlink" id="0fe38ba0-b12f-11ea-bb2a-a0f3c11e789f">

<g>
	<g>
		<path style="fill-rule:evenodd;fill:#2d2c2b;" d="M 18.8113,392.0825 C -2.9521,414.8199 -1.9592,450.7024 21.029,472.2284 44.0172,493.7543 80.2955,492.7723 102.0588,470.0349 L 416.8955,141.1076 730.5505,469.9621 C 752.2732,492.7375 788.5497,493.7829 811.5763,472.2972 834.6029,450.8114 835.6599,414.9307 813.9372,392.1553 L 458.6626,19.6644 C 448.2258,8.7242 433.4313,1.8892 417.0199,1.8749 400.6084,1.8605 385.8018,8.6697 375.3455,19.5916 L 18.8113,392.0825 Z" />
		<path style="fill-rule:evenodd;fill:#2d2c2b;" d="M 318.9706,774.1082 L 318.9706,470.1317 513.7046,470.1317 513.7046,774.1082 698.0307,774.1082 698.0307,431.0587 C 698.0307,415.4034 710.8618,402.7122 726.6898,402.7122 742.5178,402.7122 755.3489,415.4034 755.3489,431.0587 L 755.3489,802.4547 C 755.3476,809.7127 752.5495,816.965 746.9549,822.4987 741.3602,828.0323 734.0279,830.7998 726.6898,830.8011 L 110.5856,830.8011 C 103.2476,830.7998 95.9153,828.0323 90.3206,822.4987 84.7259,816.965 81.9279,809.7127 81.9265,802.4547 L 81.9265,431.0587 C 81.9265,415.4034 94.7577,402.7122 110.5856,402.7122 126.4136,402.7122 139.2447,415.4034 139.2447,431.0587 L 139.2447,774.1082 318.9706,774.1082 Z" />
	</g>
</g>
</svg>