<?xml version="1.0" encoding="UTF-8"?>
<!DOCTYPE svg PUBLIC "-//W3C//DTD SVG 1.1//EN" "http://www.w3.org/Graphics/SVG/1.1/DTD/svg11.dtd">
<svg version="1.2" width="293.75mm" height="293.75mm" viewBox="0 0 29375 29375" preserveAspectRatio="xMidYMid" fill-rule="evenodd" stroke-width="28.222" stroke-linejoin="round" xmlns="http://www.w3.org/2000/svg" xmlns:ooo="http://xml.openoffice.org/svg/export" xmlns:xlink="http://www.w3.org/1999/xlink" xmlns:presentation="http://sun.com/xmlns/staroffice/presentation" xmlns:smil="http://www.w3.org/2001/SMIL20/" xmlns:anim="urn:oasis:names:tc:opendocument:xmlns:animation:1.0" xml:space="preserve">
 <defs class="ClipPathGroup">
  <clipPath id="presentation_clip_path" clipPathUnits="userSpaceOnUse">
   <rect x="0" y="0" width="29375" height="29375"/>
  </clipPath>
  <clipPath id="presentation_clip_path_shrink" clipPathUnits="userSpaceOnUse">
   <rect x="29" y="29" width="29317" height="29317"/>
  </clipPath>
 </defs>
 <defs class="TextShapeIndex">
  <g ooo:slide="id1" ooo:id-list="id3"/>
 </defs>
 <defs class="EmbeddedBulletChars">
  <g id="bullet-char-template-57356" transform="scale(0.00048828125,-0.00048828125)">
   <path d="M 580,1141 L 1163,571 580,0 -4,571 580,1141 Z"/>
  </g>
  <g id="bullet-char-template-57354" transform="scale(0.00048828125,-0.00048828125)">
   <path d="M 8,1128 L 1137,1128 1137,0 8,0 8,1128 Z"/>
  </g>
  <g id="bullet-char-template-10146" transform="scale(0.00048828125,-0.00048828125)">
   <path d="M 174,0 L 602,739 174,1481 1456,739 174,0 Z M 1358,739 L 309,1346 659,739 1358,739 Z"/>
  </g>
  <g id="bullet-char-template-10132" transform="scale(0.00048828125,-0.00048828125)">
   <path d="M 2015,739 L 1276,0 717,0 1260,543 174,543 174,936 1260,936 717,1481 1274,1481 2015,739 Z"/>
  </g>
  <g id="bullet-char-template-10007" transform="scale(0.00048828125,-0.00048828125)">
   <path d="M 0,-2 C -7,14 -16,27 -25,37 L 356,567 C 262,823 215,952 215,954 215,979 228,992 255,992 264,992 276,990 289,987 310,991 331,999 354,1012 L 381,999 492,748 772,1049 836,1024 860,1049 C 881,1039 901,1025 922,1006 886,937 835,863 770,784 769,783 710,716 594,584 L 774,223 C 774,196 753,168 711,139 L 727,119 C 717,90 699,76 672,76 641,76 570,178 457,381 L 164,-76 C 142,-110 111,-127 72,-127 30,-127 9,-110 8,-76 1,-67 -2,-52 -2,-32 -2,-23 -1,-13 0,-2 Z"/>
  </g>
  <g id="bullet-char-template-10004" transform="scale(0.00048828125,-0.00048828125)">
   <path d="M 285,-33 C 182,-33 111,30 74,156 52,228 41,333 41,471 41,549 55,616 82,672 116,743 169,778 240,778 293,778 328,747 346,684 L 369,508 C 377,444 397,411 428,410 L 1163,1116 C 1174,1127 1196,1133 1229,1133 1271,1133 1292,1118 1292,1087 L 1292,965 C 1292,929 1282,901 1262,881 L 442,47 C 390,-6 338,-33 285,-33 Z"/>
  </g>
  <g id="bullet-char-template-9679" transform="scale(0.00048828125,-0.00048828125)">
   <path d="M 813,0 C 632,0 489,54 383,161 276,268 223,411 223,592 223,773 276,916 383,1023 489,1130 632,1184 813,1184 992,1184 1136,1130 1245,1023 1353,916 1407,772 1407,592 1407,412 1353,268 1245,161 1136,54 992,0 813,0 Z"/>
  </g>
  <g id="bullet-char-template-8226" transform="scale(0.00048828125,-0.00048828125)">
   <path d="M 346,457 C 273,457 209,483 155,535 101,586 74,649 74,723 74,796 101,859 155,911 209,963 273,989 346,989 419,989 480,963 531,910 582,859 608,796 608,723 608,648 583,586 532,535 482,483 420,457 346,457 Z"/>
  </g>
  <g id="bullet-char-template-8211" transform="scale(0.00048828125,-0.00048828125)">
   <path d="M -4,459 L 1135,459 1135,606 -4,606 -4,459 Z"/>
  </g>
  <g id="bullet-char-template-61548" transform="scale(0.00048828125,-0.00048828125)">
   <path d="M 173,740 C 173,903 231,1043 346,1159 462,1274 601,1332 765,1332 928,1332 1067,1274 1183,1159 1299,1043 1357,903 1357,740 1357,577 1299,437 1183,322 1067,206 928,148 765,148 601,148 462,206 346,322 231,437 173,577 173,740 Z"/>
  </g>
 </defs>
 <defs class="TextEmbeddedBitmaps"/>
 <g>
  <g id="id2" class="Master_Slide">
   <g id="bg-id2" class="Background"/>
   <g id="bo-id2" class="BackgroundObjects"/>
  </g>
 </g>
 <g class="SlideGroup">
  <g>
   <g id="container-id1">
    <g id="id1" class="Slide" clip-path="url(#presentation_clip_path)">
     <g class="Page">
      <g class="Graphic">
       <g id="id3">
        <rect class="BoundingBox" stroke="none" fill="none" x="-13" y="-13" width="29401" height="29401"/>
        <path fill="rgb(0,0,0)" stroke="none" d="M 1079,4969 L 1079,4969 C 987,4969 909,4990 829,5036 749,5083 692,5141 646,5221 601,5298 581,5373 579,5462 L 112,28833 C 112,28836 112,28839 112,28843 112,28936 133,29014 179,29095 225,29175 282,29233 362,29279 442,29326 520,29347 612,29347 L 612,29347 28762,29347 C 28854,29347 28933,29325 29012,29279 29092,29233 29149,29175 29196,29095 29242,29014 29263,28936 29263,28843 29263,28843 29263,28843 29263,28843 L 29263,11058 C 29263,10965 29242,10886 29196,10806 29149,10726 29092,10668 29012,10622 28933,10575 28854,10554 28762,10554 28676,10554 28603,10573 28526,10613 L 21648,14308 21648,10968 C 21648,10876 21627,10797 21581,10717 21535,10636 21478,10579 21398,10532 21318,10486 21240,10465 21148,10465 21065,10465 20994,10482 20920,10520 L 13531,14325 13531,11002 C 13531,10909 13510,10830 13464,10750 13418,10670 13360,10612 13280,10566 13201,10519 13122,10498 13030,10498 12938,10498 12860,10519 12780,10566 12777,10567 12775,10569 12772,10570 L 6483,14380 5251,5404 C 5242,5336 5223,5280 5189,5221 5143,5141 5086,5083 5006,5036 4926,4990 4848,4969 4756,4969 L 1079,4969 Z M 1570,5976 L 4319,5976 5595,15274 C 5604,15342 5623,15398 5657,15457 5703,15537 5761,15595 5840,15642 5920,15688 5998,15709 6091,15709 6183,15709 6261,15688 6341,15642 6344,15640 6346,15639 6349,15637 L 12530,11893 12530,15148 C 12530,15241 12551,15320 12597,15400 12643,15480 12700,15538 12780,15584 12860,15631 12938,15652 13030,15652 13113,15652 13184,15635 13258,15597 L 20647,11792 20647,15148 C 20647,15241 20668,15320 20714,15400 20760,15480 20818,15538 20898,15584 20977,15631 21056,15652 21148,15652 21234,15652 21307,15633 21383,15593 L 28262,11898 28262,28339 1123,28339 1570,5976 Z"/>
        <path fill="rgb(0,0,0)" stroke="none" d="M 9974,255 C 9562,482 9161,863 8728,1438 7978,2434 7507,2646 7262,2644 7016,2643 6747,2417 6396,2074 6045,1730 5602,1259 4927,1292 4251,1324 3624,1840 2844,2973 2836,2985 2830,2994 2823,3006 2783,3076 2764,3145 2764,3227 2764,3308 2783,3377 2823,3447 2863,3517 2914,3568 2983,3608 3053,3649 3122,3667 3202,3667 3283,3667 3352,3649 3422,3608 3481,3574 3525,3533 3564,3476 4285,2428 4751,2183 4969,2172 5186,2161 5436,2363 5785,2706 6135,3048 6575,3521 7256,3526 7936,3530 8608,3056 9427,1970 9812,1458 10142,1167 10394,1029 10646,890 10807,883 10983,929 11333,1019 11776,1476 12239,1996 12702,2516 13205,3131 13988,3178 14380,3202 14790,3047 15169,2733 15547,2419 15919,1949 16327,1271 16330,1265 16333,1260 16337,1254 16377,1184 16395,1115 16395,1034 16395,953 16377,884 16337,813 16296,743 16246,693 16176,652 16107,611 16038,593 15957,593 15877,593 15808,611 15738,652 15669,693 15618,743 15578,813 15578,814 15578,814 15577,815 15201,1442 14872,1836 14612,2052 14351,2268 14185,2307 14041,2298 13753,2281 13346,1919 12892,1408 12437,898 11955,269 11200,75 11011,26 10807,15 10600,43 10392,72 10180,142 9974,255 Z"/>
        <path fill="rgb(0,0,0)" stroke="none" d="M 6619,18219 C 6379,18219 6183,18415 6183,18658 L 6183,21104 C 6183,21347 6379,21543 6619,21543 L 10984,21543 C 11225,21543 11420,21347 11420,21104 L 11420,18658 C 11420,18415 11225,18219 10984,18219 L 6619,18219 Z"/>
        <path fill="rgb(0,0,0)" stroke="none" d="M 6619,22848 C 6379,22848 6183,23044 6183,23287 L 6183,25733 C 6183,25976 6379,26172 6619,26172 L 10984,26172 C 11225,26172 11420,25976 11420,25733 L 11420,23287 C 11420,23044 11225,22848 10984,22848 L 6619,22848 Z"/>
        <path fill="rgb(0,0,0)" stroke="none" d="M 13695,18219 C 13454,18219 13259,18415 13259,18658 L 13259,21104 C 13259,21347 13454,21543 13695,21543 L 18059,21543 C 18300,21543 18495,21347 18495,21104 L 18495,18658 C 18495,18415 18300,18219 18059,18219 L 13695,18219 Z"/>
        <path fill="rgb(0,0,0)" stroke="none" d="M 13695,22848 C 13454,22848 13259,23044 13259,23287 L 13259,25733 C 13259,25976 13454,26172 13695,26172 L 18059,26172 C 18300,26172 18495,25976 18495,25733 L 18495,23287 C 18495,23044 18300,22848 18059,22848 L 13695,22848 Z"/>
        <path fill="rgb(0,0,0)" stroke="none" d="M 20771,18219 C 20530,18219 20335,18415 20335,18658 L 20335,21104 C 20335,21347 20530,21543 20771,21543 L 25135,21543 C 25376,21543 25571,21347 25571,21104 L 25571,18658 C 25571,18415 25376,18219 25135,18219 L 20771,18219 Z"/>
        <path fill="rgb(0,0,0)" stroke="none" d="M 20771,22848 C 20530,22848 20335,23044 20335,23287 L 20335,25733 C 20335,25976 20530,26172 20771,26172 L 25135,26172 C 25376,26172 25571,25976 25571,25733 L 25571,23287 C 25571,23044 25376,22848 25135,22848 L 20771,22848 Z"/>
       </g>
      </g>
     </g>
    </g>
   </g>
  </g>
 </g>
</svg>