<?xml version="1.0" encoding="UTF-8"?>
<!DOCTYPE svg PUBLIC "-//W3C//DTD SVG 1.1//EN" "http://www.w3.org/Graphics/SVG/1.1/DTD/svg11.dtd">
<svg version="1.2" width="293.75mm" height="293.75mm" viewBox="0 0 29375 29375" preserveAspectRatio="xMidYMid" fill-rule="evenodd" stroke-width="28.222" stroke-linejoin="round" xmlns="http://www.w3.org/2000/svg" xmlns:ooo="http://xml.openoffice.org/svg/export" xmlns:xlink="http://www.w3.org/1999/xlink" xmlns:presentation="http://sun.com/xmlns/staroffice/presentation" xmlns:smil="http://www.w3.org/2001/SMIL20/" xmlns:anim="urn:oasis:names:tc:opendocument:xmlns:animation:1.0" xml:space="preserve">
 <defs class="ClipPathGroup">
  <clipPath id="presentation_clip_path" clipPathUnits="userSpaceOnUse">
   <rect x="0" y="0" width="29375" height="29375"/>
  </clipPath>
  <clipPath id="presentation_clip_path_shrink" clipPathUnits="userSpaceOnUse">
   <rect x="29" y="29" width="29317" height="29317"/>
  </clipPath>
 </defs>
 <defs class="TextShapeIndex">
  <g ooo:slide="id1" ooo:id-list="id3"/>
 </defs>
 <defs class="EmbeddedBulletChars">
  <g id="bullet-char-template-57356" transform="scale(0.00048828125,-0.00048828125)">
   <path d="M 580,1141 L 1163,571 580,0 -4,571 580,1141 Z"/>
  </g>
  <g id="bullet-char-template-57354" transform="scale(0.00048828125,-0.00048828125)">
   <path d="M 8,1128 L 1137,1128 1137,0 8,0 8,1128 Z"/>
  </g>
  <g id="bullet-char-template-10146" transform="scale(0.00048828125,-0.00048828125)">
   <path d="M 174,0 L 602,739 174,1481 1456,739 174,0 Z M 1358,739 L 309,1346 659,739 1358,739 Z"/>
  </g>
  <g id="bullet-char-template-10132" transform="scale(0.00048828125,-0.00048828125)">
   <path d="M 2015,739 L 1276,0 717,0 1260,543 174,543 174,936 1260,936 717,1481 1274,1481 2015,739 Z"/>
  </g>
  <g id="bullet-char-template-10007" transform="scale(0.00048828125,-0.00048828125)">
   <path d="M 0,-2 C -7,14 -16,27 -25,37 L 356,567 C 262,823 215,952 215,954 215,979 228,992 255,992 264,992 276,990 289,987 310,991 331,999 354,1012 L 381,999 492,748 772,1049 836,1024 860,1049 C 881,1039 901,1025 922,1006 886,937 835,863 770,784 769,783 710,716 594,584 L 774,223 C 774,196 753,168 711,139 L 727,119 C 717,90 699,76 672,76 641,76 570,178 457,381 L 164,-76 C 142,-110 111,-127 72,-127 30,-127 9,-110 8,-76 1,-67 -2,-52 -2,-32 -2,-23 -1,-13 0,-2 Z"/>
  </g>
  <g id="bullet-char-template-10004" transform="scale(0.00048828125,-0.00048828125)">
   <path d="M 285,-33 C 182,-33 111,30 74,156 52,228 41,333 41,471 41,549 55,616 82,672 116,743 169,778 240,778 293,778 328,747 346,684 L 369,508 C 377,444 397,411 428,410 L 1163,1116 C 1174,1127 1196,1133 1229,1133 1271,1133 1292,1118 1292,1087 L 1292,965 C 1292,929 1282,901 1262,881 L 442,47 C 390,-6 338,-33 285,-33 Z"/>
  </g>
  <g id="bullet-char-template-9679" transform="scale(0.00048828125,-0.00048828125)">
   <path d="M 813,0 C 632,0 489,54 383,161 276,268 223,411 223,592 223,773 276,916 383,1023 489,1130 632,1184 813,1184 992,1184 1136,1130 1245,1023 1353,916 1407,772 1407,592 1407,412 1353,268 1245,161 1136,54 992,0 813,0 Z"/>
  </g>
  <g id="bullet-char-template-8226" transform="scale(0.00048828125,-0.00048828125)">
   <path d="M 346,457 C 273,457 209,483 155,535 101,586 74,649 74,723 74,796 101,859 155,911 209,963 273,989 346,989 419,989 480,963 531,910 582,859 608,796 608,723 608,648 583,586 532,535 482,483 420,457 346,457 Z"/>
  </g>
  <g id="bullet-char-template-8211" transform="scale(0.00048828125,-0.00048828125)">
   <path d="M -4,459 L 1135,459 1135,606 -4,606 -4,459 Z"/>
  </g>
  <g id="bullet-char-template-61548" transform="scale(0.00048828125,-0.00048828125)">
   <path d="M 173,740 C 173,903 231,1043 346,1159 462,1274 601,1332 765,1332 928,1332 1067,1274 1183,1159 1299,1043 1357,903 1357,740 1357,577 1299,437 1183,322 1067,206 928,148 765,148 601,148 462,206 346,322 231,437 173,577 173,740 Z"/>
  </g>
 </defs>
 <defs class="TextEmbeddedBitmaps"/>
 <g>
  <g id="id2" class="Master_Slide">
   <g id="bg-id2" class="Background"/>
   <g id="bo-id2" class="BackgroundObjects"/>
  </g>
 </g>
 <g class="SlideGroup">
  <g>
   <g id="container-id1">
    <g id="id1" class="Slide" clip-path="url(#presentation_clip_path)">
     <g class="Page">
      <g class="Graphic">
       <g id="id3">
        <rect class="BoundingBox" stroke="none" fill="none" x="-13" y="-13" width="29401" height="29401"/>
        <path fill="rgb(0,0,0)" stroke="none" d="M 14530,63 L 7707,2522 C 7704,2522 7702,2523 7699,2524 L 1142,5015 C 658,5200 789,5922 1306,5924 L 14686,5957 C 14687,5957 14687,5957 14688,5957 L 28068,5924 C 28585,5922 28716,5200 28232,5015 L 21675,2524 C 21672,2523 21670,2522 21667,2522 L 14844,63 C 14800,47 14754,38 14707,36 14647,33 14587,43 14530,63 Z"/>
        <path fill="rgb(0,0,0)" stroke="none" d="M 1317,7810 C 1098,7810 921,7989 921,8209 L 921,10183 C 921,10403 1098,10582 1317,10582 L 28057,10582 C 28276,10582 28453,10403 28453,10183 L 28453,8209 C 28453,7989 28276,7810 28057,7810 L 1317,7810 Z"/>
        <path fill="rgb(0,0,0)" stroke="none" d="M 3114,12221 C 2894,12221 2716,12400 2716,12622 L 2716,24587 C 2716,24808 2894,24987 3114,24987 L 6182,24987 C 6402,24987 6580,24808 6580,24587 L 6580,12622 C 6580,12400 6402,12221 6182,12221 L 3114,12221 Z"/>
        <path fill="rgb(0,0,0)" stroke="none" d="M 9806,12221 C 9587,12221 9409,12400 9409,12622 L 9409,24587 C 9409,24808 9587,24987 9806,24987 L 12875,24987 C 13095,24987 13273,24808 13273,24587 L 13273,12622 C 13273,12400 13095,12221 12875,12221 L 9806,12221 Z"/>
        <path fill="rgb(0,0,0)" stroke="none" d="M 16499,12221 C 16279,12221 16101,12400 16101,12622 L 16101,24587 C 16101,24808 16279,24987 16499,24987 L 19568,24987 C 19787,24987 19965,24808 19965,24587 L 19965,12622 C 19965,12400 19787,12221 19568,12221 L 16499,12221 Z"/>
        <path fill="rgb(0,0,0)" stroke="none" d="M 23192,12221 C 22972,12221 22794,12400 22794,12622 L 22794,24587 C 22794,24808 22972,24987 23192,24987 L 26260,24987 C 26480,24987 26658,24808 26658,24587 L 26658,12622 C 26658,12400 26480,12221 26260,12221 L 23192,12221 Z"/>
        <path fill="rgb(0,0,0)" stroke="none" d="M 1317,26599 C 1098,26599 921,26777 921,26997 L 921,28972 C 921,29192 1098,29370 1317,29370 L 28057,29370 C 28276,29370 28453,29192 28453,28972 L 28453,26997 C 28453,26777 28276,26599 28057,26599 L 1317,26599 Z"/>
       </g>
      </g>
     </g>
    </g>
   </g>
  </g>
 </g>
</svg>