<?xml version="1.0" encoding="UTF-8"?>
<!DOCTYPE svg PUBLIC "-//W3C//DTD SVG 1.1//EN" "http://www.w3.org/Graphics/SVG/1.1/DTD/svg11.dtd">
<svg version="1.2" width="293.75mm" height="293.75mm" viewBox="0 0 29375 29375" preserveAspectRatio="xMidYMid" fill-rule="evenodd" stroke-width="28.222" stroke-linejoin="round" xmlns="http://www.w3.org/2000/svg" xmlns:ooo="http://xml.openoffice.org/svg/export" xmlns:xlink="http://www.w3.org/1999/xlink" xmlns:presentation="http://sun.com/xmlns/staroffice/presentation" xmlns:smil="http://www.w3.org/2001/SMIL20/" xmlns:anim="urn:oasis:names:tc:opendocument:xmlns:animation:1.0" xml:space="preserve">
 <defs class="ClipPathGroup">
  <clipPath id="presentation_clip_path" clipPathUnits="userSpaceOnUse">
   <rect x="0" y="0" width="29375" height="29375"/>
  </clipPath>
  <clipPath id="presentation_clip_path_shrink" clipPathUnits="userSpaceOnUse">
   <rect x="29" y="29" width="29317" height="29317"/>
  </clipPath>
 </defs>
 <defs class="TextShapeIndex">
  <g ooo:slide="id1" ooo:id-list="id3"/>
 </defs>
 <defs class="EmbeddedBulletChars">
  <g id="bullet-char-template-57356" transform="scale(0.00048828125,-0.00048828125)">
   <path d="M 580,1141 L 1163,571 580,0 -4,571 580,1141 Z"/>
  </g>
  <g id="bullet-char-template-57354" transform="scale(0.00048828125,-0.00048828125)">
   <path d="M 8,1128 L 1137,1128 1137,0 8,0 8,1128 Z"/>
  </g>
  <g id="bullet-char-template-10146" transform="scale(0.00048828125,-0.00048828125)">
   <path d="M 174,0 L 602,739 174,1481 1456,739 174,0 Z M 1358,739 L 309,1346 659,739 1358,739 Z"/>
  </g>
  <g id="bullet-char-template-10132" transform="scale(0.00048828125,-0.00048828125)">
   <path d="M 2015,739 L 1276,0 717,0 1260,543 174,543 174,936 1260,936 717,1481 1274,1481 2015,739 Z"/>
  </g>
  <g id="bullet-char-template-10007" transform="scale(0.00048828125,-0.00048828125)">
   <path d="M 0,-2 C -7,14 -16,27 -25,37 L 356,567 C 262,823 215,952 215,954 215,979 228,992 255,992 264,992 276,990 289,987 310,991 331,999 354,1012 L 381,999 492,748 772,1049 836,1024 860,1049 C 881,1039 901,1025 922,1006 886,937 835,863 770,784 769,783 710,716 594,584 L 774,223 C 774,196 753,168 711,139 L 727,119 C 717,90 699,76 672,76 641,76 570,178 457,381 L 164,-76 C 142,-110 111,-127 72,-127 30,-127 9,-110 8,-76 1,-67 -2,-52 -2,-32 -2,-23 -1,-13 0,-2 Z"/>
  </g>
  <g id="bullet-char-template-10004" transform="scale(0.00048828125,-0.00048828125)">
   <path d="M 285,-33 C 182,-33 111,30 74,156 52,228 41,333 41,471 41,549 55,616 82,672 116,743 169,778 240,778 293,778 328,747 346,684 L 369,508 C 377,444 397,411 428,410 L 1163,1116 C 1174,1127 1196,1133 1229,1133 1271,1133 1292,1118 1292,1087 L 1292,965 C 1292,929 1282,901 1262,881 L 442,47 C 390,-6 338,-33 285,-33 Z"/>
  </g>
  <g id="bullet-char-template-9679" transform="scale(0.00048828125,-0.00048828125)">
   <path d="M 813,0 C 632,0 489,54 383,161 276,268 223,411 223,592 223,773 276,916 383,1023 489,1130 632,1184 813,1184 992,1184 1136,1130 1245,1023 1353,916 1407,772 1407,592 1407,412 1353,268 1245,161 1136,54 992,0 813,0 Z"/>
  </g>
  <g id="bullet-char-template-8226" transform="scale(0.00048828125,-0.00048828125)">
   <path d="M 346,457 C 273,457 209,483 155,535 101,586 74,649 74,723 74,796 101,859 155,911 209,963 273,989 346,989 419,989 480,963 531,910 582,859 608,796 608,723 608,648 583,586 532,535 482,483 420,457 346,457 Z"/>
  </g>
  <g id="bullet-char-template-8211" transform="scale(0.00048828125,-0.00048828125)">
   <path d="M -4,459 L 1135,459 1135,606 -4,606 -4,459 Z"/>
  </g>
  <g id="bullet-char-template-61548" transform="scale(0.00048828125,-0.00048828125)">
   <path d="M 173,740 C 173,903 231,1043 346,1159 462,1274 601,1332 765,1332 928,1332 1067,1274 1183,1159 1299,1043 1357,903 1357,740 1357,577 1299,437 1183,322 1067,206 928,148 765,148 601,148 462,206 346,322 231,437 173,577 173,740 Z"/>
  </g>
 </defs>
 <defs class="TextEmbeddedBitmaps"/>
 <g>
  <g id="id2" class="Master_Slide">
   <g id="bg-id2" class="Background"/>
   <g id="bo-id2" class="BackgroundObjects"/>
  </g>
 </g>
 <g class="SlideGroup">
  <g>
   <g id="container-id1">
    <g id="id1" class="Slide" clip-path="url(#presentation_clip_path)">
     <g class="Page">
      <g class="Graphic">
       <g id="id3">
        <rect class="BoundingBox" stroke="none" fill="none" x="-13" y="-13" width="29401" height="29401"/>
        <path fill="rgb(0,0,0)" stroke="none" d="M 25451,10975 L 24864,11481 C 24118,12125 22812,12160 21829,11562 L 21133,11139 20405,11588 C 19506,12142 18004,12053 17357,11406 L 16938,10989 16202,11488 C 15244,12137 14135,12140 13186,11497 L 12462,11006 11891,11497 C 11102,12173 9702,12173 8914,11497 L 8343,11006 7596,11516 C 6986,11932 6664,12008 5839,11931 5200,11871 4673,11681 4404,11412 L 3980,10989 3220,11504 C 2453,12024 1346,12096 422,11687 77,11534 56,12026 56,20414 L 56,29303 8835,29303 16892,29303 17613,29303 27228,29303 29119,29303 29317,29303 29317,20414 C 29317,12021 29297,11535 28952,11700 28751,11796 28100,11877 27505,11879 26681,11882 26310,11775 25938,11428 L 25451,10975 Z M 1721,14490 L 8622,14490 15325,14490 15325,19045 C 15325,21550 15318,22408 15318,22408 15318,22408 12222,22471 8536,22440 L 1833,22385 1777,19132 1721,14490 Z M 18142,14490 L 22420,14490 26699,14490 26699,21896 26699,27115 18142,27115 18142,21896 18142,14490 Z"/>
        <path fill="rgb(0,0,0)" stroke="none" d="M 6949,16264 C 7697,16264 7235,17009 5627,18397 3872,19911 3421,20159 3421,19608 3421,19182 6500,16264 6949,16264 Z"/>
        <path fill="rgb(0,0,0)" stroke="none" d="M 4523,15534 C 5014,15534 4759,16172 3960,16942 3072,17798 2888,17871 2712,17438 2584,17121 4092,15534 4523,15534 Z"/>
        <path fill="rgb(0,0,0)" stroke="none" d="M 57,6583 L 57,8032 C 67,11159 2675,11171 3283,9466 3524,8706 4412,8955 4521,9466 5107,11149 7148,10802 7626,9466 7768,8760 8658,8775 8864,9466 9587,11012 10935,10919 11896,9466 12288,8713 12868,8955 13150,9466 13835,10994 15467,10962 16271,9466 16562,8755 17187,8752 17457,9466 18127,11196 20134,10722 20551,9466 20784,8752 21506,8727 21767,9466 22268,11059 24197,10915 24830,9466 25095,8763 25795,8818 26066,9466 26958,11335 29382,10670 29318,7997 L 29318,6583 28912,6583 25973,6583 1729,6583 57,6583 Z"/>
        <path fill="rgb(0,0,0)" stroke="none" d="M 3335,145 L 26039,145 29222,4843 75,4843 3335,145 Z"/>
       </g>
      </g>
     </g>
    </g>
   </g>
  </g>
 </g>
</svg>