<?xml version="1.0" encoding="UTF-8"?>
<!DOCTYPE svg PUBLIC "-//W3C//DTD SVG 1.1//EN" "http://www.w3.org/Graphics/SVG/1.1/DTD/svg11.dtd">
<svg version="1.2" width="293.75mm" height="293.75mm" viewBox="0 0 29375 29375" preserveAspectRatio="xMidYMid" fill-rule="evenodd" stroke-width="28.222" stroke-linejoin="round" xmlns="http://www.w3.org/2000/svg" xmlns:ooo="http://xml.openoffice.org/svg/export" xmlns:xlink="http://www.w3.org/1999/xlink" xmlns:presentation="http://sun.com/xmlns/staroffice/presentation" xmlns:smil="http://www.w3.org/2001/SMIL20/" xmlns:anim="urn:oasis:names:tc:opendocument:xmlns:animation:1.0" xml:space="preserve">
 <defs class="ClipPathGroup">
  <clipPath id="presentation_clip_path" clipPathUnits="userSpaceOnUse">
   <rect x="0" y="0" width="29375" height="29375"/>
  </clipPath>
  <clipPath id="presentation_clip_path_shrink" clipPathUnits="userSpaceOnUse">
   <rect x="29" y="29" width="29317" height="29317"/>
  </clipPath>
 </defs>
 <defs class="TextShapeIndex">
  <g ooo:slide="id1" ooo:id-list="id3"/>
 </defs>
 <defs class="EmbeddedBulletChars">
  <g id="bullet-char-template-57356" transform="scale(0.00048828125,-0.00048828125)">
   <path d="M 580,1141 L 1163,571 580,0 -4,571 580,1141 Z"/>
  </g>
  <g id="bullet-char-template-57354" transform="scale(0.00048828125,-0.00048828125)">
   <path d="M 8,1128 L 1137,1128 1137,0 8,0 8,1128 Z"/>
  </g>
  <g id="bullet-char-template-10146" transform="scale(0.00048828125,-0.00048828125)">
   <path d="M 174,0 L 602,739 174,1481 1456,739 174,0 Z M 1358,739 L 309,1346 659,739 1358,739 Z"/>
  </g>
  <g id="bullet-char-template-10132" transform="scale(0.00048828125,-0.00048828125)">
   <path d="M 2015,739 L 1276,0 717,0 1260,543 174,543 174,936 1260,936 717,1481 1274,1481 2015,739 Z"/>
  </g>
  <g id="bullet-char-template-10007" transform="scale(0.00048828125,-0.00048828125)">
   <path d="M 0,-2 C -7,14 -16,27 -25,37 L 356,567 C 262,823 215,952 215,954 215,979 228,992 255,992 264,992 276,990 289,987 310,991 331,999 354,1012 L 381,999 492,748 772,1049 836,1024 860,1049 C 881,1039 901,1025 922,1006 886,937 835,863 770,784 769,783 710,716 594,584 L 774,223 C 774,196 753,168 711,139 L 727,119 C 717,90 699,76 672,76 641,76 570,178 457,381 L 164,-76 C 142,-110 111,-127 72,-127 30,-127 9,-110 8,-76 1,-67 -2,-52 -2,-32 -2,-23 -1,-13 0,-2 Z"/>
  </g>
  <g id="bullet-char-template-10004" transform="scale(0.00048828125,-0.00048828125)">
   <path d="M 285,-33 C 182,-33 111,30 74,156 52,228 41,333 41,471 41,549 55,616 82,672 116,743 169,778 240,778 293,778 328,747 346,684 L 369,508 C 377,444 397,411 428,410 L 1163,1116 C 1174,1127 1196,1133 1229,1133 1271,1133 1292,1118 1292,1087 L 1292,965 C 1292,929 1282,901 1262,881 L 442,47 C 390,-6 338,-33 285,-33 Z"/>
  </g>
  <g id="bullet-char-template-9679" transform="scale(0.00048828125,-0.00048828125)">
   <path d="M 813,0 C 632,0 489,54 383,161 276,268 223,411 223,592 223,773 276,916 383,1023 489,1130 632,1184 813,1184 992,1184 1136,1130 1245,1023 1353,916 1407,772 1407,592 1407,412 1353,268 1245,161 1136,54 992,0 813,0 Z"/>
  </g>
  <g id="bullet-char-template-8226" transform="scale(0.00048828125,-0.00048828125)">
   <path d="M 346,457 C 273,457 209,483 155,535 101,586 74,649 74,723 74,796 101,859 155,911 209,963 273,989 346,989 419,989 480,963 531,910 582,859 608,796 608,723 608,648 583,586 532,535 482,483 420,457 346,457 Z"/>
  </g>
  <g id="bullet-char-template-8211" transform="scale(0.00048828125,-0.00048828125)">
   <path d="M -4,459 L 1135,459 1135,606 -4,606 -4,459 Z"/>
  </g>
  <g id="bullet-char-template-61548" transform="scale(0.00048828125,-0.00048828125)">
   <path d="M 173,740 C 173,903 231,1043 346,1159 462,1274 601,1332 765,1332 928,1332 1067,1274 1183,1159 1299,1043 1357,903 1357,740 1357,577 1299,437 1183,322 1067,206 928,148 765,148 601,148 462,206 346,322 231,437 173,577 173,740 Z"/>
  </g>
 </defs>
 <defs class="TextEmbeddedBitmaps"/>
 <g>
  <g id="id2" class="Master_Slide">
   <g id="bg-id2" class="Background"/>
   <g id="bo-id2" class="BackgroundObjects"/>
  </g>
 </g>
 <g class="SlideGroup">
  <g>
   <g id="container-id1">
    <g id="id1" class="Slide" clip-path="url(#presentation_clip_path)">
     <g class="Page">
      <g class="Graphic">
       <g id="id3">
        <rect class="BoundingBox" stroke="none" fill="none" x="-13" y="-13" width="29401" height="29401"/>
        <path fill="rgb(0,0,0)" stroke="none" d="M 14687,36 C 14631,36 14583,44 14530,63 L 7707,2522 C 7704,2522 7702,2523 7699,2524 L 1142,5015 C 1118,5025 1097,5035 1074,5048 1000,5091 947,5145 904,5220 861,5295 841,5368 841,5455 841,5541 861,5614 904,5689 947,5764 1000,5818 1074,5861 1148,5904 1221,5924 1306,5924 L 14686,5957 C 14686,5957 14687,5957 14687,5957 14687,5957 14688,5957 14688,5957 L 28068,5924 C 28153,5924 28226,5904 28300,5861 28374,5818 28427,5764 28470,5689 28513,5614 28533,5541 28533,5455 28533,5368 28513,5295 28470,5220 28427,5145 28374,5091 28300,5048 28277,5035 28256,5025 28232,5015 L 21675,2524 C 21672,2523 21670,2522 21667,2522 L 14844,63 C 14798,46 14757,38 14707,36 14700,36 14694,36 14687,36 Z M 14687,1003 L 21349,3404 25527,4991 14687,5018 3847,4991 8025,3404 14687,1003 Z"/>
        <path fill="rgb(0,0,0)" stroke="none" d="M 1106,5033 C 1032,5033 969,5051 905,5091 840,5132 794,5182 757,5251 720,5321 703,5390 703,5470 703,5470 703,5470 703,5471 L 703,7638 C 703,7719 720,7787 757,7857 794,7927 840,7977 905,8017 969,8058 1032,8076 1106,8076 L 28268,8076 C 28342,8076 28405,8058 28469,8017 28534,7977 28580,7927 28617,7857 28654,7787 28671,7719 28671,7638 L 28671,5471 C 28671,5470 28671,5470 28671,5470 28671,5390 28654,5321 28617,5251 28580,5182 28534,5132 28469,5091 28405,5051 28342,5033 28268,5033 L 1106,5033 Z M 1508,5908 L 27866,5908 27866,7200 1508,7200 1508,5908 Z"/>
        <path fill="rgb(0,0,0)" stroke="none" d="M 4060,8849 C 3992,8849 3935,8868 3877,8911 3819,8954 3777,9008 3743,9083 3710,9158 3694,9231 3694,9317 L 3694,23320 C 3694,23406 3710,23479 3743,23554 3777,23629 3819,23682 3877,23726 3935,23769 3992,23788 4060,23788 L 6877,23788 C 6945,23788 7002,23769 7060,23726 7118,23682 7160,23629 7194,23554 7227,23479 7243,23406 7243,23320 L 7243,9317 C 7243,9231 7227,9158 7194,9083 7160,9008 7118,8954 7060,8911 7002,8868 6945,8849 6877,8849 L 4060,8849 Z M 4425,9786 L 6512,9786 6512,22851 4425,22851 4425,9786 Z"/>
        <path fill="rgb(0,0,0)" stroke="none" d="M 10205,8849 L 10205,8849 C 10138,8849 10081,8868 10023,8911 9964,8954 9922,9008 9889,9083 9855,9158 9840,9231 9840,9317 L 9840,23320 9840,23320 C 9840,23406 9855,23479 9889,23554 9922,23629 9964,23682 10023,23726 10081,23769 10138,23788 10205,23788 L 13023,23788 13023,23788 C 13090,23788 13147,23769 13206,23726 13264,23682 13306,23629 13339,23554 13373,23479 13388,23406 13388,23320 L 13388,9317 13388,9317 C 13388,9231 13373,9158 13339,9083 13306,9008 13264,8954 13206,8911 13147,8868 13090,8849 13023,8849 L 10205,8849 Z M 10571,9786 L 12658,9786 12658,22851 10571,22851 10571,9786 Z"/>
        <path fill="rgb(0,0,0)" stroke="none" d="M 16351,8849 C 16284,8849 16227,8868 16168,8911 16110,8954 16068,9008 16035,9083 16001,9158 15986,9231 15986,9317 L 15986,23320 C 15986,23406 16001,23479 16035,23554 16068,23629 16110,23682 16168,23726 16227,23769 16284,23788 16351,23788 L 19169,23788 C 19236,23788 19293,23769 19351,23726 19410,23682 19452,23629 19485,23554 19519,23479 19534,23406 19534,23320 L 19534,9317 C 19534,9231 19519,9158 19485,9083 19452,9008 19410,8954 19351,8911 19293,8868 19236,8849 19169,8849 L 16351,8849 Z M 16716,9786 L 18803,9786 18803,22851 16716,22851 16716,9786 Z"/>
        <path fill="rgb(0,0,0)" stroke="none" d="M 22497,8849 C 22429,8849 22372,8868 22314,8911 22256,8954 22214,9008 22180,9083 22147,9158 22131,9231 22131,9317 L 22131,23320 C 22131,23406 22147,23479 22180,23554 22214,23629 22256,23682 22314,23726 22372,23769 22429,23788 22497,23788 L 25314,23788 C 25382,23788 25439,23769 25497,23726 25555,23682 25597,23629 25631,23554 25664,23479 25680,23406 25680,23320 L 25680,9317 C 25680,9231 25664,9158 25631,9083 25597,9008 25555,8954 25497,8911 25439,8868 25382,8849 25314,8849 L 22497,8849 Z M 22862,9786 L 24949,9786 24949,22851 22862,22851 22862,9786 Z"/>
        <path fill="rgb(0,0,0)" stroke="none" d="M 1317,26599 C 1244,26599 1182,26616 1119,26652 1056,26689 1010,26735 974,26798 937,26862 921,26924 921,26997 L 921,28972 C 921,29045 937,29107 974,29171 1010,29235 1056,29280 1119,29317 1182,29354 1244,29370 1317,29370 L 28057,29370 C 28130,29370 28192,29354 28255,29317 28318,29280 28364,29235 28400,29171 28437,29107 28453,29045 28453,28972 L 28453,26997 C 28453,26924 28437,26862 28400,26798 28364,26735 28318,26689 28255,26652 28192,26616 28130,26599 28057,26599 L 1317,26599 Z M 1713,27396 L 27661,27396 27661,28573 1713,28573 1713,27396 Z"/>
        <path fill="rgb(0,0,0)" stroke="none" d="M 3164,24615 C 3101,24615 3048,24632 2993,24669 2939,24705 2900,24751 2868,24814 2837,24878 2823,24940 2823,25014 L 2823,26988 C 2823,27061 2837,27124 2868,27187 2900,27251 2939,27296 2993,27333 3048,27370 3101,27386 3164,27387 L 26210,27387 C 26273,27386 26326,27370 26381,27333 26435,27296 26474,27251 26506,27187 26537,27124 26551,27061 26551,26988 L 26551,25014 C 26551,24940 26537,24878 26506,24814 26474,24751 26435,24705 26381,24669 26326,24632 26273,24615 26210,24615 L 3164,24615 Z M 3505,25413 L 25869,25413 25869,26589 3505,26589 3505,25413 Z"/>
       </g>
      </g>
     </g>
    </g>
   </g>
  </g>
 </g>
</svg>