<?xml version="1.0" encoding="utf-8"?>
<!-- Created by sK1 2.0rc4 (https://sk1project.net/) -->
<svg xmlns="http://www.w3.org/2000/svg" height="832.677165354pt" viewBox="0 0 832.677165354 832.677165354" width="832.677165354pt" version="1.1" xmlns:xlink="http://www.w3.org/1999/xlink" id="6e779350-b3f5-11ea-be2e-a0f3c11e789f">

<g>
	<g>
		<path style="fill-rule:evenodd;fill:#2d2c2b;" d="M 359.0405,229.1757 L 359.0405,410.7432 441.0526,410.7432 C 471.4036,410.7432 494.8664,402.8864 511.441,387.1728 528.0156,371.4054 536.3029,348.9113 536.3029,319.6904 536.3029,290.8462 528.0156,268.5674 511.441,252.8538 494.8664,237.0864 471.4036,229.1757 441.0526,229.1757 L 359.0405,229.1757 Z M 293.8183,175.2544 L 441.0526,175.2544 C 495.0817,175.2544 535.8994,187.5239 563.5327,212.0629 591.2199,236.5482 605.0769,272.442 605.0769,319.798 605.0769,367.5308 591.2199,403.586 563.5327,427.9636 535.8994,452.3681 495.0817,464.5569 441.0526,464.5569 L 359.0405,464.5569 359.0405,657.4253 293.8183,657.4253 293.8183,175.2544 Z" />
		<path style="fill-rule:evenodd;fill:#2d2c2b;" d="M 227.5993,464.4217 L 227.5993,410.7409 438.5932,410.7409 438.5932,464.4217 227.5993,464.4217 Z" />
		<path style="fill-rule:evenodd;fill:#2d2c2b;" d="M 227.6022,571.6627 L 227.6022,517.982 438.596,517.982 438.596,571.6627 227.6022,571.6627 Z" />
	</g>
	<path style="fill-rule:evenodd;fill:#2d2c2b;" d="M 416.3407,2.9332 C 181.9722,2.9332 2.936,181.9695 2.936,416.338 2.936,650.7065 181.9722,829.7427 416.3407,829.7427 650.7092,829.7427 829.7455,650.7065 829.7455,416.338 829.7455,181.9695 650.7092,2.9332 416.3407,2.9332 L 416.3407,2.9332 Z M 416.284,99.7647 C 595.7455,99.7647 732.8573,236.8482 732.8573,416.2813 732.8573,595.7427 595.7455,732.8545 416.284,732.8545 236.851,732.8545 99.7675,595.7427 99.7675,416.2813 99.7675,236.8482 236.851,99.7647 416.284,99.7647 L 416.284,99.7647 Z" />
</g>
</svg>