<?xml version="1.0" encoding="UTF-8"?>
<!DOCTYPE svg PUBLIC "-//W3C//DTD SVG 1.1//EN" "http://www.w3.org/Graphics/SVG/1.1/DTD/svg11.dtd">
<svg version="1.2" width="293.75mm" height="293.75mm" viewBox="0 0 29375 29375" preserveAspectRatio="xMidYMid" fill-rule="evenodd" stroke-width="28.222" stroke-linejoin="round" xmlns="http://www.w3.org/2000/svg" xmlns:ooo="http://xml.openoffice.org/svg/export" xmlns:xlink="http://www.w3.org/1999/xlink" xmlns:presentation="http://sun.com/xmlns/staroffice/presentation" xmlns:smil="http://www.w3.org/2001/SMIL20/" xmlns:anim="urn:oasis:names:tc:opendocument:xmlns:animation:1.0" xml:space="preserve">
 <defs class="ClipPathGroup">
  <clipPath id="presentation_clip_path" clipPathUnits="userSpaceOnUse">
   <rect x="0" y="0" width="29375" height="29375"/>
  </clipPath>
  <clipPath id="presentation_clip_path_shrink" clipPathUnits="userSpaceOnUse">
   <rect x="29" y="29" width="29317" height="29317"/>
  </clipPath>
 </defs>
 <defs class="TextShapeIndex">
  <g ooo:slide="id1" ooo:id-list="id3"/>
 </defs>
 <defs class="EmbeddedBulletChars">
  <g id="bullet-char-template-57356" transform="scale(0.00048828125,-0.00048828125)">
   <path d="M 580,1141 L 1163,571 580,0 -4,571 580,1141 Z"/>
  </g>
  <g id="bullet-char-template-57354" transform="scale(0.00048828125,-0.00048828125)">
   <path d="M 8,1128 L 1137,1128 1137,0 8,0 8,1128 Z"/>
  </g>
  <g id="bullet-char-template-10146" transform="scale(0.00048828125,-0.00048828125)">
   <path d="M 174,0 L 602,739 174,1481 1456,739 174,0 Z M 1358,739 L 309,1346 659,739 1358,739 Z"/>
  </g>
  <g id="bullet-char-template-10132" transform="scale(0.00048828125,-0.00048828125)">
   <path d="M 2015,739 L 1276,0 717,0 1260,543 174,543 174,936 1260,936 717,1481 1274,1481 2015,739 Z"/>
  </g>
  <g id="bullet-char-template-10007" transform="scale(0.00048828125,-0.00048828125)">
   <path d="M 0,-2 C -7,14 -16,27 -25,37 L 356,567 C 262,823 215,952 215,954 215,979 228,992 255,992 264,992 276,990 289,987 310,991 331,999 354,1012 L 381,999 492,748 772,1049 836,1024 860,1049 C 881,1039 901,1025 922,1006 886,937 835,863 770,784 769,783 710,716 594,584 L 774,223 C 774,196 753,168 711,139 L 727,119 C 717,90 699,76 672,76 641,76 570,178 457,381 L 164,-76 C 142,-110 111,-127 72,-127 30,-127 9,-110 8,-76 1,-67 -2,-52 -2,-32 -2,-23 -1,-13 0,-2 Z"/>
  </g>
  <g id="bullet-char-template-10004" transform="scale(0.00048828125,-0.00048828125)">
   <path d="M 285,-33 C 182,-33 111,30 74,156 52,228 41,333 41,471 41,549 55,616 82,672 116,743 169,778 240,778 293,778 328,747 346,684 L 369,508 C 377,444 397,411 428,410 L 1163,1116 C 1174,1127 1196,1133 1229,1133 1271,1133 1292,1118 1292,1087 L 1292,965 C 1292,929 1282,901 1262,881 L 442,47 C 390,-6 338,-33 285,-33 Z"/>
  </g>
  <g id="bullet-char-template-9679" transform="scale(0.00048828125,-0.00048828125)">
   <path d="M 813,0 C 632,0 489,54 383,161 276,268 223,411 223,592 223,773 276,916 383,1023 489,1130 632,1184 813,1184 992,1184 1136,1130 1245,1023 1353,916 1407,772 1407,592 1407,412 1353,268 1245,161 1136,54 992,0 813,0 Z"/>
  </g>
  <g id="bullet-char-template-8226" transform="scale(0.00048828125,-0.00048828125)">
   <path d="M 346,457 C 273,457 209,483 155,535 101,586 74,649 74,723 74,796 101,859 155,911 209,963 273,989 346,989 419,989 480,963 531,910 582,859 608,796 608,723 608,648 583,586 532,535 482,483 420,457 346,457 Z"/>
  </g>
  <g id="bullet-char-template-8211" transform="scale(0.00048828125,-0.00048828125)">
   <path d="M -4,459 L 1135,459 1135,606 -4,606 -4,459 Z"/>
  </g>
  <g id="bullet-char-template-61548" transform="scale(0.00048828125,-0.00048828125)">
   <path d="M 173,740 C 173,903 231,1043 346,1159 462,1274 601,1332 765,1332 928,1332 1067,1274 1183,1159 1299,1043 1357,903 1357,740 1357,577 1299,437 1183,322 1067,206 928,148 765,148 601,148 462,206 346,322 231,437 173,577 173,740 Z"/>
  </g>
 </defs>
 <defs class="TextEmbeddedBitmaps"/>
 <g>
  <g id="id2" class="Master_Slide">
   <g id="bg-id2" class="Background"/>
   <g id="bo-id2" class="BackgroundObjects"/>
  </g>
 </g>
 <g class="SlideGroup">
  <g>
   <g id="container-id1">
    <g id="id1" class="Slide" clip-path="url(#presentation_clip_path)">
     <g class="Page">
      <g class="Graphic">
       <g id="id3">
        <rect class="BoundingBox" stroke="none" fill="none" x="-13" y="-13" width="29401" height="29401"/>
        <path fill="rgb(0,0,0)" stroke="none" d="M 14687,103 C 6419,103 103,6419 103,14687 103,22955 6419,29271 14687,29271 22955,29271 29271,22955 29271,14687 29271,6419 22955,103 14687,103 L 14687,103 Z M 14685,3519 C 21016,3519 25853,8355 25853,14685 25853,21016 21016,25853 14685,25853 8355,25853 3519,21016 3519,14685 3519,8355 8355,3519 14685,3519 L 14685,3519 Z"/>
        <path fill="rgb(0,0,0)" stroke="none" d="M 12433,21794 L 12433,20798 10627,20791 8821,20784 8821,19943 8821,19101 9314,19088 C 9778,19076 9814,19072 9935,19009 10010,18971 10094,18900 10137,18838 10204,18744 10214,18701 10236,18422 10250,18239 10256,16607 10251,14451 10244,11535 10235,10768 10208,10681 10168,10553 10045,10417 9905,10349 9821,10308 9725,10298 9313,10286 L 8821,10273 8821,9431 8821,8590 10627,8583 12433,8576 12433,7580 12433,6583 13287,6583 14142,6583 14142,7580 14142,8577 14685,8577 15229,8577 15229,7580 15229,6583 16083,6583 16937,6583 16944,7625 16951,8667 17187,8699 C 17444,8733 17977,8860 18142,8927 18609,9116 19054,9398 19332,9679 19554,9904 19690,10100 19851,10428 20240,11224 20186,12179 19705,12972 19562,13207 19239,13560 18996,13745 18750,13933 18249,14193 17913,14308 17848,14330 17880,14369 17980,14389 18113,14416 18590,14574 18789,14657 19796,15075 20440,15952 20539,17039 20625,17981 20310,18829 19619,19516 19220,19912 18697,20230 18132,20421 17896,20500 17232,20652 17028,20673 L 16951,20681 16944,21736 16937,22791 16083,22791 15229,22791 15229,21794 15229,20797 14685,20797 14142,20797 14142,21794 14142,22791 13287,22791 12433,22791 12433,21794 Z M 15553,18803 C 15920,18768 16203,18697 16446,18579 16657,18477 16698,18447 16907,18236 17185,17955 17334,17639 17379,17238 17445,16644 17275,16132 16908,15821 16420,15407 15888,15311 14057,15309 L 13261,15308 13262,16816 C 13262,17646 13273,18399 13286,18490 13314,18682 13399,18795 13530,18811 13713,18834 15289,18827 15553,18803 L 15553,18803 Z M 15417,13496 C 16104,13420 16492,13268 16799,12954 17182,12563 17273,11865 17012,11330 16932,11167 16642,10884 16466,10798 16091,10614 15704,10571 14349,10564 L 13274,10557 13268,12032 C 13262,13193 13268,13510 13293,13528 13336,13557 15108,13530 15417,13496 L 15417,13496 Z"/>
       </g>
      </g>
     </g>
    </g>
   </g>
  </g>
 </g>
</svg>