<?xml version="1.0" encoding="utf-8"?>
<!-- Created by sK1 2.0rc4 (https://sk1project.net/) -->
<svg xmlns="http://www.w3.org/2000/svg" height="832.677165354pt" viewBox="0 0 832.677165354 832.677165354" width="832.677165354pt" version="1.1" xmlns:xlink="http://www.w3.org/1999/xlink" id="868952ac-b2bb-11ea-be2e-a0f3c11e789f">

<g>
	<path style="fill:#2d2c2b;" d="M 462.2164,155.7688 C 458.8726,147.4937 459.9143,134.4305 464.4519,127.7384 466.4609,124.7749 477.7352,113.2238 489.5053,102.0687 508.4914,84.0752 511.6705,81.6972 517.6842,80.9904 529.2505,79.6311 537.0382,82.0119 545.8577,89.6028 L 554.1792,96.7653 561.0271,88.6868 C 569.8072,78.3292 585.6714,68.0022 598.9769,63.9831 613.4978,59.5968 635.0207,60.6649 662.2188,67.1215 687.2051,73.053 697.9811,73.794 706.4625,70.1637 714.433,66.7521 730.1908,50.365 741.0745,34.1696 763.0725,1.4361 784.2231,-1.4023 810.2807,24.8826 836.7445,51.5772 833.4514,72.0659 799.0204,94.9401 781.6559,106.4762 767.9556,119.5152 764.1815,128.0972 760.363,136.7804 761.275,153.0707 766.7478,173.9398 778.3556,218.2023 770.868,251.4573 744.3147,273.5728 L 736.1771,280.3504 743.267,288.7337 C 750.7813,297.6189 753.0942,305.4273 751.6342,316.9812 750.8668,323.0542 748.4974,326.1076 728.6631,346.5839 703.3007,372.7672 698.3354,375.684 683.2691,373.2529 L 673.854,371.7337 569.2988,266.8789 C 484.577,181.9144 464.2681,160.8337 462.2162,155.7688 L 462.2164,155.7688 Z" />
	<path style="fill:#2d2c2b;" d="M 18.6102,603.1873 C 0.7096,572.6065 0.2747,534.6536 17.4832,504.8448 22.4504,496.2405 28.6876,489.4519 167.3455,351.9928 271.3837,248.854 323.2875,198.4412 329.0326,194.6357 351.8581,179.5147 385.2219,175.8357 411.6382,185.5268 419.9498,188.576 430.854,193.9661 435.8697,197.5048 441.3408,201.3647 482.1413,241.4149 537.8552,297.6146 638.6089,399.2469 638.7228,399.3837 646.8503,423.085 652.0318,438.2018 652.7281,462.9465 648.3946,477.9698 640.929,503.851 657.7692,486.343 480.1653,662.4114 376.1271,765.5502 332.916,807.3442 327.1715,811.1502 305.4972,825.5086 270.4501,829.7208 245.5847,820.9557 221.8079,812.5745 222.024,812.7662 119.1098,708.7567 41.094,629.9106 23.3301,611.2502 18.6102,603.1873 Z M 74.9616,508.1101 C 63.7904,519.0779 63.6255,537.0252 74.5933,548.1964 85.5611,559.3676 103.5083,559.5325 114.6795,548.5647 L 366.8393,300.9964 C 378.0105,290.0286 378.1754,272.0814 367.2076,260.9102 356.2398,249.739 338.2926,249.5741 327.1214,260.5419 L 74.9616,508.1101 Z" />
</g>
</svg>