<?xml version="1.0" encoding="utf-8"?>
<!-- Created by sK1 2.0rc4 (https://sk1project.net/) -->
<svg xmlns="http://www.w3.org/2000/svg" height="832.677165354pt" viewBox="0 0 832.677165354 832.677165354" width="832.677165354pt" version="1.1" xmlns:xlink="http://www.w3.org/1999/xlink" id="b55a1d0c-b2c8-11ea-be2e-a0f3c11e789f">

<g>
	<path style="fill:#2d2c2b;" d="M 3.7334,653.8918 L 3.7334,710.9818 828.9428,710.9818 828.9428,653.8918 3.7334,653.8918 Z" />
	<path style="fill:#2d2c2b;" d="M 216.6524,621.2446 L 771.3661,621.2446 771.3661,147.7041 61.3022,147.7041 61.3022,621.2446 125.9214,621.2446 125.9214,590.6636 C 125.9218,588.8491 126.6136,587.0361 127.997,585.6527 129.3804,584.2692 131.1935,583.5774 133.008,583.577 L 209.5658,583.577 C 211.3803,583.5774 213.1933,584.2692 214.5767,585.6527 215.9602,587.0361 216.652,588.8491 216.6524,590.6636 L 216.6524,621.2446 Z M 215.073,328.3371 C 209.9346,318.9916 203.0362,316.6991 194.536,321.3727 L 165.3506,337.4197 C 162.1432,339.1832 160.2192,341.7614 159.4881,344.9897 158.8258,347.9619 159.4914,351.0733 161.3265,354.4109 L 133.7461,369.5754 C 128.032,358.8078 126.2636,348.3696 128.2299,338.2714 130.2735,327.3668 136.0999,319.1655 145.722,313.8751 L 188.3783,290.4215 C 197.5199,285.3952 207.1549,284.8771 217.2043,288.9144 226.9227,292.9154 234.582,300.0055 240.1796,310.1861 L 313.7649,444.0197 287.1425,458.6574 283.4722,451.9821 C 280.1788,459.6599 275.6794,464.9601 270.145,468.0031 L 243.8475,482.4622 C 233.9838,487.8854 223.4442,489.2246 212.1812,486.4003 199.943,483.8938 191.0007,477.5092 185.357,467.2447 L 166.6402,433.2033 C 160.9059,422.7742 160.2594,411.7191 164.6534,399.9588 168.5858,388.885 175.3197,380.6175 184.9418,375.3271 L 216.0517,358.222 C 220.3003,355.886 224.9638,355.0606 230.1196,355.7031 Z M 263.5625,417.2906 L 251.0852,394.5973 C 248.516,389.9245 245.2035,386.748 241.1347,384.853 236.8947,382.8376 232.6901,382.978 228.4414,385.314 L 201.1803,400.3029 C 196.69,402.7717 194.2384,406.2912 193.988,410.7755 193.8082,415.0065 194.9574,419.3724 197.5266,424.0452 L 210.004,446.7385 C 212.5732,451.4112 215.7362,454.8882 219.4957,457.1678 223.3242,459.1912 227.5188,458.8418 232.0091,456.3729 L 259.2702,441.3841 C 263.5189,439.048 265.9805,435.7376 266.6424,431.2453 267.1315,426.6297 266.1317,421.9633 263.5625,417.2906 Z M 405.1189,255.3027 C 411.1579,251.3036 417.929,249.2087 425.249,249.2087 L 445.3791,249.2087 C 461.2087,249.2087 473.2868,254.8266 481.6133,265.9672 488.9334,276.4413 492.5934,290.6288 492.5934,308.6251 L 492.5934,385.1808 C 492.5934,402.225 488.0183,416.3173 479.0513,427.4579 469.7183,438.6937 457.2742,444.2164 441.7191,444.2164 L 428.909,444.2164 C 419.1185,444.2164 410.2429,441.0741 402.1909,434.6945 L 402.1909,444.2164 373.6428,444.2164 373.6428,200.4568 405.1189,200.4568 Z M 461.4832,384.4191 L 461.4832,311.2912 C 461.4832,300.4363 460.3852,293.1997 458.1892,289.5814 454.2547,282.5352 448.0326,278.9169 439.5231,278.9169 L 420.125,278.9169 C 413.72,278.9169 409.1449,281.5831 406.2169,286.9153 405.4849,288.7244 405.1189,290.6288 405.1189,292.6284 L 405.1189,400.4158 C 405.1189,406.5098 409.3279,410.9851 417.929,413.7464 420.125,414.5082 422.0465,414.889 423.785,414.889 L 439.5231,414.889 C 451.9672,414.889 459.0127,408.9855 460.7512,396.9879 461.2087,393.1792 461.4832,388.9896 461.4832,384.4191 Z M 637.6035,316.2099 C 628.2584,312.4717 621.5842,315.8526 617.4466,326.1963 L 579.3942,421.3229 C 575.504,431.0477 578.1819,437.6569 587.5271,441.3951 L 611.6544,451.0465 C 615.4774,452.5758 618.9956,452.6499 622.2442,451.1804 625.3725,449.7654 627.9058,446.8817 629.6033,442.6381 L 658.828,454.3285 C 650.8563,472.7787 639.1372,482.8586 623.5009,484.5005 618.3194,484.8891 613.0526,484.0129 607.6154,481.8379 L 568.8757,466.3413 C 558.851,462.3313 552.1167,455.0225 548.5385,444.2587 545.0241,433.8281 545.5444,423.1655 550.0004,412.0261 L 590.599,310.5342 C 594.9135,299.7484 601.6498,291.7774 610.808,286.6212 620.2068,281.3561 629.8336,280.6947 639.6035,284.6028 L 680.0423,300.7791 C 689.9821,304.7552 696.596,312.1184 700.0397,322.7258 703.3912,332.5784 702.9912,343.1866 698.7193,354.6047 L 669.4946,342.9143 C 670.6544,339.276 670.7666,336.0392 669.8313,333.2038 668.8817,330.1575 666.8282,327.9003 663.4299,326.5409 Z" />
</g>
</svg>