<?xml version="1.0" encoding="utf-8"?>
<!-- Created by sK1 2.0rc4 (https://sk1project.net/) -->
<svg xmlns="http://www.w3.org/2000/svg" height="832.677165354pt" viewBox="0 0 832.677165354 832.677165354" width="832.677165354pt" version="1.1" xmlns:xlink="http://www.w3.org/1999/xlink" id="8a4bca1a-b1c0-11ea-bb2a-a0f3c11e789f">

<g>
	<g>
		<path style="fill-rule:evenodd;fill:#2d2c2b;" d="M 481.4765,519.8775 L 813.4661,430.9212 C 817.8317,429.7568 821.8644,427.1929 824.8302,423.3279 827.7959,419.4629 829.2286,414.904 829.2234,410.3858 L 829.2234,244.0775 C 829.2229,238.6412 827.1519,233.2068 823.0092,229.0572 818.8665,224.9075 813.4356,222.8273 807.9993,222.8177 L 24.7502,221.5028 C 19.3048,221.4932 13.854,223.5642 9.6942,227.7171 5.5344,231.8699 3.4542,237.3172 3.4547,242.7627 L 3.4547,410.8768 C 3.4493,415.3994 4.8852,419.9635 7.8571,423.8309 10.8291,427.6984 14.8696,430.2609 19.2411,431.42 L 351.2046,519.867 351.2046,475.864 45.9744,394.5397 45.9744,264.0582 786.7038,265.3017 786.7038,394.0725 481.4765,475.8579 481.4765,519.8775 Z" />
		<path style="fill-rule:evenodd;fill:#2d2c2b;" d="M 268.1095,122.0885 L 564.5628,122.0885 564.5628,256.3574 607.0825,256.3574 607.0825,100.8287 C 607.0825,95.3878 605.0068,89.9469 600.8556,85.7957 596.7044,81.6444 591.2635,79.5688 585.8226,79.5688 L 246.8496,79.5688 C 241.4088,79.5688 235.9679,81.6444 231.8167,85.7957 227.6654,89.9469 225.5898,95.3878 225.5898,100.8287 L 225.5898,256.3574 268.1095,256.3574 268.1095,122.0885 Z" />
		<path style="fill-rule:evenodd;fill:#2d2c2b;" d="M 372.4622,551.4523 L 372.4622,463.7 460.2145,463.7 460.2145,551.4523 372.4622,551.4523 Z M 329.9426,572.7121 C 329.9426,578.153 332.0182,583.5939 336.1694,587.7451 340.3207,591.8964 345.7615,593.972 351.2024,593.972 L 481.4744,593.972 C 486.9152,593.972 492.3561,591.8964 496.5073,587.7451 500.6586,583.5939 502.7342,578.153 502.7342,572.7121 L 502.7342,442.4402 C 502.7342,436.9993 500.6586,431.5584 496.5073,427.4072 492.3561,423.256 486.9152,421.1803 481.4744,421.1803 L 351.2024,421.1803 C 345.7615,421.1803 340.3207,423.256 336.1694,427.4072 332.0182,431.5584 329.9426,436.9993 329.9426,442.4402 L 329.9426,572.7121 Z" />
		<path style="fill-rule:evenodd;fill:#2d2c2b;" d="M 806.4873,413.3279 L 763.9676,413.3279 763.9676,776.3202 68.7115,776.3202 68.7115,402.6844 26.1918,402.6844 26.1918,818.8399 806.4873,818.8399 806.4873,413.3279 Z" />
	</g>
</g>
</svg>