<?xml version="1.0" encoding="utf-8"?>
<!-- Created by sK1 2.0rc4 (https://sk1project.net/) -->
<svg xmlns="http://www.w3.org/2000/svg" height="832.677165354pt" viewBox="0 0 832.677165354 832.677165354" width="832.677165354pt" version="1.1" xmlns:xlink="http://www.w3.org/1999/xlink" id="aca9c9e4-b1c1-11ea-bb2a-a0f3c11e789f">

<g>
	<g>
		<path style="fill-rule:evenodd;fill:#2d2c2b;" d="M 267.7755,76.6327 L 564.2288,76.6327 564.2288,210.9017 606.7485,210.9017 606.7485,55.3729 C 606.7485,49.932 604.6729,44.4912 600.5216,40.3399 596.3704,36.1887 590.9295,34.1131 585.4886,34.1131 L 246.5157,34.1131 C 241.0748,34.1131 235.6339,36.1887 231.4827,40.3399 227.3314,44.4912 225.2558,49.932 225.2558,55.3729 L 225.2558,210.9017 267.7755,210.9017 267.7755,76.6327 Z" />
		<path style="fill-rule:evenodd;fill:#2d2c2b;" d="M 462.8042,471.3996 L 416.7045,481.2152 369.2065,471.1361 M 335.1908,463.9179 L 3.2566,393.481 3.2566,159.5232 828.7555,159.5232 828.7555,393.481 496.8199,464.157 496.8199,426.8897 C 496.8199,422.537 495.1594,418.1843 491.8384,414.8633 488.5174,411.5423 484.1647,409.8818 479.812,409.8818 L 352.1987,409.8818 C 347.846,409.8818 343.4933,411.5423 340.1723,414.8633 336.8513,418.1843 335.1908,422.537 335.1908,426.8897 L 335.1908,463.9179 Z" />
		<path style="fill-rule:evenodd;fill:#2d2c2b;" d="M 462.8042,505.5209 L 416.0046,515.1517 369.2065,505.4901 M 335.1908,498.4675 L 3.9199,430.076 3.2566,798.5596 828.7555,798.5596 829.4187,430.076 496.8199,498.5209 496.8199,547.8565 C 496.8199,552.2092 495.1594,556.5619 491.8384,559.8829 488.5174,563.2039 484.1647,564.8644 479.812,564.8644 L 352.1987,564.8644 C 347.846,564.8644 343.4933,563.2039 340.1723,559.8829 336.8513,556.5619 335.1908,552.2092 335.1908,547.8565 L 335.1908,498.4675 Z" />
		<path style="fill-rule:evenodd;fill:#2d2c2b;" d="M 369.2065,530.8486 L 369.2065,443.8976 462.8042,443.8976 462.8042,530.8486 369.2065,530.8486 Z" />
	</g>
</g>
</svg>