<?xml version="1.0" encoding="utf-8"?>
<!-- Created by sK1 2.0rc4 (https://sk1project.net/) -->
<svg xmlns="http://www.w3.org/2000/svg" height="832.677165354pt" viewBox="0 0 832.677165354 832.677165354" width="832.677165354pt" version="1.1" xmlns:xlink="http://www.w3.org/1999/xlink" id="9587e334-b4e3-11ea-be2e-a0f3c11e789f">

<g>
	<g>
		<g>
			<g>
				<path style="fill-rule:evenodd;fill:#2d2c2b;" d="M 2.6052,795.0488 C -1.3812,810.1881 7.6599,825.6925 22.7991,829.679 37.9384,833.6655 53.4428,824.6244 57.4293,809.4852 69.9282,762.0187 84.2899,729.1154 104.832,707.6282 114.8389,697.1608 126.667,689.0425 141.384,683.3155 156.265,677.5246 174.7919,673.9155 198.3439,673.4144 213.9957,673.0814 226.414,660.1232 226.081,644.4714 225.748,628.8196 212.7897,616.4013 197.1379,616.7343 168.5055,617.3435 143.1752,621.7842 120.8242,630.482 98.3091,639.2436 79.5302,652.0529 63.8528,668.4517 33.0263,700.6966 15.7106,745.2792 2.6052,795.0488 Z" />
				<path style="fill-rule:evenodd;fill:#2d2c2b;" d="M 57.4874,193.3012 C 53.6248,178.1299 38.1948,168.9623 23.0234,172.8249 7.8521,176.6875 -1.3154,192.1176 2.5472,207.2889 15.6198,258.6351 32.8529,304.4926 63.5264,337.6768 79.1478,354.5768 97.9223,367.8452 120.5203,376.9404 142.9577,385.971 168.3898,390.5808 197.1173,391.213 212.7688,391.5574 225.7361,379.1486 226.0805,363.497 226.4249,347.8455 214.0161,334.8782 198.3646,334.5338 174.9076,334.0176 156.4825,330.3019 141.6878,324.3474 127.0537,318.4575 115.2212,310.0813 105.1583,299.1947 84.4633,276.8058 70.0191,242.5225 57.4874,193.3012 Z" />
				<path style="fill-rule:evenodd;fill:#2d2c2b;" d="M 45.7971,443.7165 C 33.0191,434.6714 15.3281,437.6976 6.2831,450.4755 -2.762,463.2535 0.2642,480.9445 13.0421,489.9896 23.6299,497.4843 32.0076,503.8257 40.3573,510.2662 48.707,516.7067 56.2385,522.6661 62.9728,527.7916 76.2741,537.9154 90.6478,548.1916 106.5992,553.2792 115.0881,555.9866 124.0063,557.2596 133.4819,556.6124 142.8402,555.9733 151.8297,553.5246 160.5993,549.8244 177.5087,542.6899 195.4712,530.0503 216.0876,513.2585 228.2261,503.3719 230.0517,485.517 220.165,473.3785 210.2784,461.24 192.4235,459.4144 180.285,469.301 160.4299,485.4727 147.6485,493.7561 138.5605,497.5906 134.3314,499.3749 131.5088,499.9222 129.6188,500.0513 127.8463,500.1724 126.0802,499.9859 123.8261,499.2669 118.2915,497.5017 110.9443,493.0573 97.3084,482.6789 90.574,477.5534 83.3328,471.8164 74.9831,465.3759 66.6334,458.9354 56.3849,451.2112 45.7971,443.7165 Z" />
				<path style="fill-rule:evenodd;fill:#2d2c2b;" d="M 295.1003,133.2926 C 305.2341,145.2255 323.1228,146.684 335.0557,136.5502 346.9886,126.4163 348.4471,108.5277 338.3133,96.5948 329.9164,86.7072 323.3744,78.4853 316.884,70.1743 310.3936,61.8632 304.5765,54.2213 299.3247,47.585 288.9516,34.4773 277.5774,20.9557 263.3874,12.0689 255.8359,7.3397 247.5125,3.8935 238.1726,2.1691 228.9485,0.4661 219.6325,0.6075 210.219,2.0157 192.0681,4.7311 171.531,12.5181 147.3926,23.6688 133.1804,30.2341 126.9813,47.0775 133.5466,61.2897 140.1119,75.5019 156.9553,81.7009 171.1675,75.1357 194.4146,64.3968 208.8517,59.5441 218.6069,58.0847 223.1466,57.4056 226.0167,57.5758 227.8796,57.9198 229.6267,58.2424 231.2912,58.8612 233.2964,60.117 238.2199,63.2005 244.2345,69.329 254.8685,82.7665 260.1203,89.4028 265.7115,96.7572 272.2018,105.0682 278.6922,113.3792 286.7035,123.405 295.1003,133.2926 Z" />
				<path style="fill-rule:evenodd;fill:#2d2c2b;" d="M 466.26,96.1817 C 455.6379,107.6821 456.3499,125.6159 467.8504,136.2381 479.3508,146.8602 497.2846,146.1482 507.9067,134.6477 517.0392,124.7601 525.7352,114.7537 532.7941,106.4427 539.8531,98.1317 545.9361,90.7747 551.648,84.1384 563.1378,70.7891 569.8305,64.4411 575.5824,61.129 578.0536,59.7061 580.3209,58.8896 582.839,58.4621 585.4711,58.0153 589.1343,57.8686 594.4759,58.6033 605.753,60.1545 621.9095,65.2136 647.2198,75.9638 661.6293,82.0841 678.2718,75.3643 684.3921,60.9549 690.5123,46.5455 683.7926,29.9029 669.3831,23.7827 643.1568,12.6434 621.2752,5.0628 602.2013,2.4392 592.3675,1.0866 582.777,0.9687 573.3508,2.5688 563.8106,4.1883 555.2151,7.4369 547.2923,11.999 532.2563,20.6571 520.0369,33.9592 508.6792,47.1551 502.9673,53.7914 496.6427,61.4309 489.5837,69.7419 482.5248,78.0529 475.3925,86.2941 466.26,96.1817 Z" />
			</g>
			<g>
				<path style="fill-rule:evenodd;fill:#2d2c2b;" d="M 775.3125,810.9711 C 779.4941,826.0576 795.114,834.8979 810.2005,830.7163 825.287,826.5348 834.1273,810.9149 829.9457,795.8284 816.1112,745.9152 797.8304,701.266 765.4277,669.0659 748.999,652.74 729.4185,640.0813 706.0549,631.4438 682.8567,622.8675 656.524,618.4702 626.6566,617.8665 611.0044,617.5501 598.0594,629.9821 597.743,645.6343 597.4266,661.2864 609.8587,674.2314 625.5108,674.5478 650.5726,675.0544 670.4038,678.7068 686.396,684.6191 702.2227,690.4703 714.8592,698.7392 725.4657,709.2794 747.1333,730.8115 762.196,763.6482 775.3125,810.9711 Z" />
				<path style="fill-rule:evenodd;fill:#2d2c2b;" d="M 830.0094,208.7654 C 834.0619,193.6437 825.0885,178.1 809.9668,174.0475 794.845,169.995 779.3013,178.9685 775.2488,194.0902 762.0948,243.1742 746.9445,277.3803 725.1299,299.8011 714.4748,310.7523 701.842,319.2811 686.1016,325.2997 670.1962,331.3814 650.4636,335.1438 625.4912,335.6659 609.8393,335.9931 597.4162,348.9467 597.7434,364.5986 598.0707,380.2505 611.0243,392.6736 626.6762,392.3464 656.633,391.7201 683.0643,387.157 706.3493,378.2536 729.7993,369.2871 749.3834,356.1713 765.7635,339.3359 798.0192,306.1837 816.2124,260.2489 830.0094,208.7654 Z" />
				<path style="fill-rule:evenodd;fill:#2d2c2b;" d="M 819.0768,491.508 C 832.0677,482.7717 835.5168,465.1583 826.7805,452.1673 818.0442,439.1763 800.4307,435.7272 787.4398,444.4635 776.2951,451.9582 765.5555,459.6487 756.7666,466.0893 747.9777,472.5298 740.3486,478.2719 733.26,483.3974 718.9618,493.7361 710.9843,498.3831 704.7326,500.2774 702.0759,501.0824 699.8579,501.3247 697.5912,501.1777 695.2198,501.0238 691.957,500.3857 687.3246,498.5289 677.4669,494.5775 663.8515,486.1577 642.9621,469.9939 630.5806,460.4133 612.7768,462.6839 603.1962,475.0653 593.6156,487.4468 595.8862,505.2506 608.2677,514.8312 629.9786,531.6307 648.724,544.134 666.2312,551.1516 675.2812,554.7793 684.4517,557.1372 693.9202,557.7516 703.4933,558.3728 712.5216,557.1556 721.1728,554.5342 737.5373,549.5757 752.4231,539.502 766.4789,529.3386 773.5675,524.2131 781.488,518.2588 790.2769,511.8183 799.0658,505.3778 807.9321,499.0027 819.0768,491.508 Z" />
			</g>
		</g>
		<path style="fill-rule:evenodd;fill:#2d2c2b;" d="M 366.1739,212.1912 C 245.9139,237.1395 161.0942,364.6107 161.0942,520.7971 161.0942,676.9835 252.7757,806.6721 373.0356,831.6205 383.4589,833.0897 395.3624,821.753 395.8077,812.7022 395.8077,746.9596 395.8077,681.217 395.8077,615.4744 395.8077,556.0861 395.8077,496.6978 395.8077,437.3095 395.8077,367.1142 395.9327,310.1615 395.9327,239.9661 395.2075,224.3002 380.8519,209.8739 366.1739,212.1912 Z M 463.2067,826.3763 C 583.4677,801.429 669.445,676.9844 669.445,520.7971 669.445,364.2858 577.3817,234.3826 456.7526,209.8194 446.6773,207.0244 433.3567,217.5109 434.7292,226.7309 L 434.7292,434.3058 434.7292,611.6146 C 434.7292,679.3668 434.6643,730.0816 434.6643,797.8339 435.798,813.7053 448.115,828.4119 463.2067,826.3763 Z" />
		<path style="fill-rule:evenodd;fill:#2d2c2b;" d="M 581.3971,208.6571 C 582.4035,201.2298 582.9232,193.6481 582.9232,185.9453 582.9232,93.3669 507.8452,18.2889 415.2668,18.2889 322.6884,18.2889 247.6104,93.3669 247.6104,185.9453 247.6104,193.6479 248.1301,201.2293 249.1364,208.6564 289.6358,173.6367 349.0549,151.5258 415.2663,151.5258 481.4782,151.5258 540.8977,173.637 581.397,208.657 L 581.3971,208.6571 Z" />
	</g>
</g>
</svg>