<?xml version="1.0" encoding="utf-8"?>
<!-- Created by sK1 2.0rc4 (https://sk1project.net/) -->
<svg xmlns="http://www.w3.org/2000/svg" height="832.677165354pt" viewBox="0 0 832.677165354 832.677165354" width="832.677165354pt" version="1.1" xmlns:xlink="http://www.w3.org/1999/xlink" id="5a495602-b1fc-11ea-bb2a-a0f3c11e789f">

<g>
	<path style="fill-rule:evenodd;fill:#2d2c2b;" d="M 58.5201,632.5821 L 58.5201,632.5821 Z M 830.8467,270.1109 L 830.8467,171.7441 C 830.8453,164.486 828.0778,157.2337 822.5442,151.7001 817.0106,146.1664 809.7583,143.3989 802.5002,143.3976 L 30.1736,143.3976 C 22.9156,143.3989 15.6633,146.1664 10.1296,151.7001 4.596,157.2337 1.8285,164.486 1.8271,171.7441 L 1.8271,270.1109 830.8467,270.1109 Z M 1.8271,371.1384 L 1.8271,660.9286 C 1.8285,668.1866 4.596,675.4389 10.1296,680.9726 15.6633,686.5062 22.9156,689.2737 30.1736,689.2751 L 802.5002,689.2751 C 809.7583,689.2737 817.0106,686.5062 822.5442,680.9726 828.0778,675.4389 830.8453,668.1866 830.8467,660.9286 L 830.8467,371.1384 1.8271,371.1384 Z M 62.744,631.6861 L 62.744,517.3658 224.9194,517.3658 224.9194,631.6861 62.744,631.6861 Z" />
</g>
</svg>