<?xml version="1.0" encoding="utf-8"?>
<!-- Created by sK1 2.0rc4 (https://sk1project.net/) -->
<svg xmlns="http://www.w3.org/2000/svg" height="832.677165354pt" viewBox="0 0 832.677165354 832.677165354" width="832.677165354pt" version="1.1" xmlns:xlink="http://www.w3.org/1999/xlink" id="db5161b2-b43c-11ea-be2e-a0f3c11e789f">

<g>
	<path style="fill-rule:evenodd;fill:#2d2c2b;" d="M 48.3342,673.6165 L 48.3342,45.7973 403.8036,45.7973 524.5209,179.0557 524.5209,296.3964 C 537.4169,294.1422 550.7075,292.9649 564.2976,292.9649 567.6517,292.9649 570.9875,293.0367 574.3036,293.1786 L 574.3036,293.1788 574.3036,161.5346 426.6775,-1.4484 415.2405,-1.4484 40.0328,-1.4484 C 18.9837,-1.4484 -1.4485,14.0878 -1.4485,36.1423 L -1.4485,683.2715 C -1.4485,705.326 18.9837,720.8622 40.0328,720.8622 L 48.3342,673.6165 Z" />
	<path style="fill-rule:evenodd;fill:#2d2c2b;" d="M 555.6918,178.1586 L 429.9395,178.1586 C 415.0575,178.1586 403.0589,167.3652 403.0589,153.9792 L 403.0589,4.3787 367.2725,4.3787 367.2725,183.5289 C 367.2725,203.0259 384.7356,218.7134 406.4074,218.7134 L 555.6918,218.7134 555.6918,178.1586 Z" />
	<path style="fill-rule:evenodd;fill:#2d2c2b;" d="M 483.5152,309.6407 C 481.3369,309.2246 479.0791,309.0242 476.6811,309.0242 476.5157,309.0242 476.3779,309.0242 476.2126,309.0242 L 137.7188,309.0242 137.7188,309.0242 C 137.5534,309.0242 137.3881,309.0242 137.2228,309.0242 131.0222,309.0242 125.7587,310.3643 120.3849,313.3071 115.0386,316.25 111.1805,319.9023 108.0665,324.9998 104.98,330.0973 103.5745,335.0896 103.5745,340.9754 103.5745,346.8611 104.98,351.8535 108.0665,356.9509 111.1805,362.0484 115.0386,365.7007 120.3849,368.6436 125.7587,371.5865 131.0222,372.9265 137.2228,372.9265 137.3881,372.9265 137.5534,372.9265 137.7188,372.9265 L 393.8657,372.9265 C 417.7105,345.1575 448.4129,323.1951 483.5148,309.6416 L 483.5152,309.6407 Z" />
	<path style="fill-rule:evenodd;fill:#2d2c2b;" d="M 483.4268,309.6757 C 483.4561,309.6643 483.4855,309.653 483.5148,309.6416 L 483.5152,309.6407 C 481.3369,309.2246 479.0791,309.0242 476.6811,309.0242 476.5157,309.0242 476.3779,309.0242 476.2126,309.0242 L 137.7188,309.0242 137.7188,309.0242 C 137.5534,309.0242 137.3881,309.0242 137.2228,309.0242 131.0222,309.0242 125.7587,310.3643 120.3849,313.3071 115.0386,316.25 111.1805,319.9023 108.0665,324.9998 104.98,330.0973 103.5745,335.0896 103.5745,340.9754 103.5745,346.8611 104.98,351.8535 108.0665,356.9509 111.1805,362.0484 115.0386,365.7007 120.3849,368.6436 125.7587,371.5865 131.0222,372.9265 137.2228,372.9265 137.3881,372.9265 137.5534,372.9265 137.7188,372.9265 L 393.8657,372.9265 C 393.8657,372.9265 393.8657,372.9265 393.8657,372.9265 393.8655,372.9264 393.8655,372.9264 393.8655,372.9264 394.4205,372.2801 394.9792,371.6369 395.5416,370.9969 395.5496,370.9878 395.5576,370.9786 395.5657,370.9695 396.1257,370.3324 396.6894,369.6984 397.2567,369.0676 397.2629,369.0608 397.2691,369.0539 397.2753,369.047 397.457,368.845 397.6391,368.6433 397.8216,368.442 397.8312,368.4314 397.8408,368.4208 397.8503,368.4102 398.4151,367.7873 398.9834,367.1674 399.5552,366.5508 399.5715,366.5333 399.5877,366.5158 399.604,366.4982 399.7887,366.2991 399.9739,366.1003 400.1594,365.9018 400.1613,365.8998 400.1632,365.8977 400.1651,365.8957 400.5504,365.4835 400.9372,365.0728 401.3256,364.6636 401.3392,364.6492 401.3528,364.6349 401.3664,364.6206 401.5439,364.4336 401.7218,364.2469 401.9,364.0605 401.9186,364.0411 401.9371,364.0217 401.9557,364.0023 402.5303,363.4017 403.1083,362.8043 403.6897,362.21 403.7137,362.1855 403.7376,362.161 403.7616,362.1365 403.9405,361.9538 404.1196,361.7715 404.2991,361.5894 404.3117,361.5767 404.3243,361.5639 404.3368,361.5512 404.7277,361.1549 405.1201,360.76 405.514,360.3666 405.5346,360.3461 405.5551,360.3256 405.5757,360.305 405.7496,360.1314 405.9239,359.9581 406.0984,359.785 406.1253,359.7584 406.1521,359.7318 406.179,359.7051 406.5736,359.3143 406.9697,358.9249 407.3672,358.5369 407.3703,358.5338 407.3735,358.5308 407.3766,358.5277 407.565,358.3439 407.7537,358.1604 407.9427,357.9773 407.9738,357.9471 408.005,357.9169 408.0361,357.8868 408.2099,357.7186 408.384,357.5506 408.5584,357.3829 408.5806,357.3615 408.6029,357.3401 408.6252,357.3188 409.0219,356.9376 409.42,356.5578 409.8196,356.1795 409.8466,356.1539 409.8736,356.1284 409.9006,356.1029 410.0715,355.9412 410.2428,355.7797 410.4143,355.6185 410.4488,355.586 410.4833,355.5536 410.5179,355.5212 410.7083,355.3425 410.899,355.164 411.0901,354.9859 411.0943,354.982 411.0986,354.978 411.1028,354.974 411.3096,354.7813 411.5167,354.589 411.7242,354.397 411.7327,354.3892 411.7411,354.3814 411.7496,354.3736 411.9366,354.2006 412.124,354.0279 412.3117,353.8556 412.3494,353.8209 412.3872,353.7862 412.4249,353.7516 412.5946,353.596 412.7645,353.4407 412.9346,353.2856 412.9656,353.2573 412.9966,353.2291 413.0276,353.2008 413.4304,352.8341 413.8345,352.4688 414.24,352.105 414.2728,352.0755 414.3056,352.0461 414.3385,352.0166 414.5072,351.8655 414.6761,351.7145 414.8452,351.5639 414.8867,351.5269 414.9282,351.4899 414.9697,351.453 415.153,351.29 415.3365,351.1273 415.5204,350.9648 415.5363,350.9507 415.5523,350.9366 415.5683,350.9225 415.7768,350.7384 415.9856,350.5546 416.1948,350.3712 416.2078,350.3598 416.2208,350.3484 416.2338,350.337 416.4204,350.1736 416.6072,350.0105 416.7942,349.8477 416.838,349.8096 416.8818,349.7715 416.9256,349.7334 417.0919,349.5889 417.2584,349.4447 417.4251,349.3006 417.464,349.267 417.5029,349.2335 417.5418,349.1999 417.9508,348.8471 418.3611,348.4958 418.7726,348.1459 418.8107,348.1135 418.8488,348.0811 418.8869,348.0488 419.054,347.907 419.2212,347.7654 419.3887,347.624 419.4365,347.5837 419.4843,347.5434 419.5321,347.503 419.7097,347.3535 419.8875,347.2041 420.0655,347.0551 420.0917,347.0331 420.1179,347.0112 420.1441,346.9893 420.3546,346.8132 420.5654,346.6375 420.7766,346.4622 420.7933,346.4483 420.81,346.4344 420.8267,346.4206 421.0135,346.2655 421.2006,346.1108 421.3879,345.9564 421.4371,345.9158 421.4863,345.8753 421.5356,345.8348 421.6994,345.7 421.8633,345.5654 422.0275,345.4311 422.0734,345.3935 422.1193,345.356 422.1653,345.3185 422.5806,344.9792 422.9973,344.6413 423.4152,344.3048 423.4579,344.2705 423.5006,344.2361 423.5433,344.2018 423.7094,344.0683 423.8757,343.935 424.0422,343.8019 424.0957,343.7592 424.1491,343.7165 424.2026,343.6738 424.3757,343.5357 424.5491,343.3979 424.7226,343.2603 424.7577,343.2325 424.7928,343.2047 424.8279,343.1769 425.0406,343.0084 425.2536,342.8403 425.467,342.6726 425.4865,342.6573 425.5059,342.642 425.5254,342.6267 425.7134,342.479 425.9018,342.3316 426.0903,342.1844 426.1443,342.1423 426.1983,342.1002 426.2524,342.0581 426.4144,341.9319 426.5767,341.8058 426.7391,341.68 426.7912,341.6397 426.8434,341.5993 426.8955,341.559 427.1037,341.3981 427.3121,341.2375 427.5209,341.0773 427.521,341.0772 427.5211,341.0771 427.5212,341.077 427.7355,340.9125 427.9502,340.7484 428.1651,340.5846 428.2118,340.5491 428.2584,340.5136 428.305,340.4782 428.4709,340.352 428.637,340.226 428.8033,340.1003 428.8618,340.0561 428.9202,340.0119 428.9787,339.9678 429.1485,339.8396 429.3185,339.7117 429.4887,339.584 429.5315,339.5519 429.5743,339.5198 429.6171,339.4878 429.8323,339.3265 430.0479,339.1657 430.2637,339.0052 430.2848,338.9895 430.3059,338.9738 430.3271,338.9581 430.5175,338.8166 430.7081,338.6755 430.8989,338.5346 430.9571,338.4917 431.0153,338.4488 431.0735,338.4059 431.2346,338.2872 431.3959,338.1687 431.5573,338.0505 431.6149,338.0083 431.6725,337.9662 431.7301,337.9241 431.9295,337.7783 432.1292,337.6328 432.3292,337.4876 432.3424,337.478 432.3556,337.4684 432.3688,337.4588 432.5856,337.3015 432.8027,337.1446 433.0201,336.988 433.0699,336.9521 433.1198,336.9162 433.1696,336.8804 433.3361,336.7607 433.5027,336.6412 433.6694,336.522 433.7323,336.4771 433.7951,336.4322 433.858,336.3874 434.0255,336.2679 434.1932,336.1486 434.3611,336.0295 434.4106,335.9945 434.46,335.9594 434.5095,335.9244 434.7274,335.7701 434.9456,335.6162 435.1641,335.4627 435.1857,335.4475 435.2074,335.4323 435.229,335.4171 435.4228,335.281 435.6169,335.1452 435.8112,335.0097 435.873,334.9666 435.9348,334.9236 435.9966,334.8805 436.1574,334.7686 436.3184,334.6569 436.4796,334.5453 436.5419,334.5022 436.6042,334.4591 436.6666,334.4161 436.8595,334.2828 437.0527,334.1498 437.2462,334.0171 437.2702,334.0007 437.2941,333.9842 437.3181,333.9678 437.5376,333.8173 437.7574,333.6673 437.9775,333.5176 438.0299,333.4819 438.0822,333.4464 438.1346,333.4108 438.3023,333.2969 438.4701,333.1833 438.6381,333.0699 438.7047,333.025 438.7713,332.98 438.838,332.9351 439.0042,332.8232 439.1705,332.7115 439.337,332.6001 439.3921,332.5631 439.4473,332.5262 439.5024,332.4894 439.7233,332.3418 439.9445,332.1945 440.1659,332.0476 440.1866,332.0339 440.2074,332.0201 440.2281,332.0064 440.4268,331.8747 440.6256,331.7434 440.8247,331.6123 440.8895,331.5697 440.9543,331.5271 441.0191,331.4846 441.1803,331.3787 441.3417,331.273 441.5033,331.1675 441.5697,331.1241 441.6361,331.0808 441.7026,331.0375 441.8909,330.9148 442.0793,330.7924 442.268,330.6703 442.3009,330.649 442.3339,330.6277 442.3668,330.6064 442.5893,330.4625 442.812,330.3191 443.035,330.1761 443.0891,330.1413 443.1433,330.1066 443.1974,330.0719 443.3671,329.9633 443.5368,329.8549 443.7068,329.7467 443.7766,329.7023 443.8464,329.6579 443.9163,329.6135 444.0819,329.5083 444.2477,329.4034 444.4135,329.2987 444.4736,329.2608 444.5336,329.2229 444.5936,329.1851 444.8177,329.0439 445.042,328.9032 445.2666,328.7628 445.2848,328.7514 445.3031,328.7399 445.3214,328.7285 445.5264,328.6004 445.7316,328.4727 445.937,328.3453 446.0042,328.3036 446.0714,328.262 446.1386,328.2204 446.3009,328.12 446.4633,328.0198 446.6259,327.9197 446.6958,327.8767 446.7657,327.8337 446.8357,327.7908 447.0207,327.6772 447.2059,327.5639 447.3913,327.4509 447.4317,327.4263 447.4721,327.4016 447.5125,327.377 447.738,327.2397 447.9639,327.1027 448.1899,326.9661 448.2452,326.9328 448.3004,326.8995 448.3556,326.8662 448.5279,326.7623 448.7003,326.6586 448.8729,326.5552 448.9454,326.5117 449.018,326.4683 449.0906,326.4249 449.2563,326.3259 449.4221,326.227 449.5881,326.1284 449.6523,326.0902 449.7165,326.0521 449.7807,326.014 450.0081,325.8792 450.2357,325.7448 450.4636,325.6108 450.4776,325.6025 450.4917,325.5942 450.5057,325.586 450.7187,325.4607 450.932,325.3358 451.1455,325.2113 451.2146,325.171 451.2837,325.1307 451.3528,325.0905 451.5166,324.9951 451.6806,324.8999 451.8447,324.805 451.9177,324.7628 451.9906,324.7206 452.0636,324.6785 452.2465,324.5729 452.4296,324.4676 452.6128,324.3625 452.6595,324.3358 452.7061,324.309 452.7527,324.2823 452.9815,324.1513 453.2106,324.0207 453.44,323.8905 453.4955,323.859 453.5511,323.8275 453.6066,323.796 453.7822,323.6964 453.958,323.5971 454.134,323.4981 454.2087,323.4559 454.2835,323.4139 454.3584,323.3719 454.5248,323.2784 454.6913,323.1851 454.858,323.0921 454.9257,323.0543 454.9935,323.0165 455.0612,322.9787 455.2921,322.8502 455.5232,322.722 455.7545,322.5942 455.7622,322.59 455.7698,322.5858 455.7775,322.5815 456.0006,322.4583 456.2241,322.3354 456.4477,322.2129 456.5182,322.1743 456.5886,322.1358 456.6591,322.0972 456.8251,322.0066 456.9911,321.9161 457.1573,321.8259 457.2328,321.7849 457.3082,321.744 457.3837,321.7031 457.5655,321.6046 457.7474,321.5064 457.9295,321.4084 457.9813,321.3805 458.0332,321.3526 458.0851,321.3248 458.3174,321.2 458.5499,321.0757 458.7826,320.9518 458.8377,320.9224 458.8928,320.8931 458.948,320.8638 459.1277,320.7683 459.3075,320.673 459.4875,320.578 459.5641,320.5375 459.6407,320.4971 459.7173,320.4568 459.8849,320.3685 460.0526,320.2805 460.2205,320.1927 460.2912,320.1556 460.362,320.1186 460.4329,320.0817 460.9013,319.8372 461.3707,319.5942 461.8412,319.3529 461.9125,319.3163 461.9839,319.2797 462.0553,319.2432 462.2238,319.157 462.3923,319.071 462.561,318.9852 462.6386,318.9457 462.7162,318.9063 462.7939,318.867 462.9752,318.775 463.1567,318.6833 463.3383,318.5919 463.3946,318.5635 463.451,318.5351 463.5073,318.5068 463.7431,318.3883 463.9791,318.2702 464.2153,318.1526 464.2692,318.1257 464.3232,318.0988 464.3772,318.072 464.5616,317.9803 464.7462,317.8889 464.9309,317.7977 465.0089,317.7591 465.087,317.7206 465.165,317.6822 465.3342,317.5989 465.5035,317.5158 465.6729,317.4329 465.7463,317.397 465.8198,317.3612 465.8932,317.3253 466.1214,317.214 466.3497,317.1031 466.5783,316.9925 466.5881,316.9878 466.598,316.983 466.6078,316.9783 466.8461,316.8631 467.0846,316.7483 467.3233,316.6339 467.3952,316.5994 467.467,316.565 467.5389,316.5307 467.7103,316.4488 467.8818,316.3671 468.0534,316.2857 468.1328,316.248 468.2122,316.2103 468.2916,316.1727 468.4731,316.0868 468.6546,316.0012 468.8363,315.9158 468.8965,315.8875 468.9567,315.8592 469.017,315.831 469.2563,315.7188 469.4958,315.6069 469.7356,315.4955 469.7876,315.4713 469.8397,315.4472 469.8918,315.423 470.0816,315.335 470.2715,315.2472 470.4616,315.1597 470.5408,315.1233 470.62,315.0869 470.6992,315.0505 470.8703,314.972 471.0415,314.8937 471.2128,314.8156 471.2885,314.7811 471.3642,314.7466 471.4399,314.7122 471.6621,314.6112 471.8846,314.5105 472.1073,314.4102 472.1268,314.4013 472.1464,314.3925 472.1659,314.3837 472.4076,314.2749 472.6495,314.1665 472.8917,314.0584 472.9637,314.0263 473.0357,313.9943 473.1076,313.9622 473.2822,313.8846 473.4569,313.8072 473.6317,313.7299 473.7127,313.6942 473.7936,313.6585 473.8746,313.6228 474.0566,313.5427 474.2386,313.4628 474.4208,313.3831 474.4844,313.3553 474.5481,313.3275 474.6117,313.2998 474.8546,313.1939 475.0977,313.0884 475.341,312.9833 475.3904,312.962 475.4398,312.9406 475.4892,312.9193 475.6851,312.8349 475.8811,312.7507 476.0773,312.6668 476.1573,312.6326 476.2374,312.5984 476.3175,312.5643 476.4907,312.4904 476.664,312.4168 476.8374,312.3434 476.9151,312.3105 476.9928,312.2776 477.0706,312.2448 477.2884,312.1529 477.5064,312.0613 477.7246,311.97 477.7524,311.9584 477.7801,311.9468 477.8078,311.9352 478.0529,311.8328 478.2983,311.7308 478.5438,311.6292 478.6156,311.5996 478.6873,311.5699 478.7591,311.5403 478.9371,311.4669 479.1153,311.3936 479.2936,311.3206 479.3759,311.287 479.4582,311.2533 479.5405,311.2197 479.7233,311.1451 479.9061,311.0708 480.0891,310.9967 480.1558,310.9697 480.2224,310.9427 480.2891,310.9158 480.5355,310.8162 480.7821,310.7171 481.029,310.6184 481.075,310.6 481.121,310.5817 481.167,310.5633 481.3696,310.4825 481.5723,310.4019 481.7752,310.3216 481.856,310.2897 481.9367,310.2578 482.0175,310.2259 482.1929,310.1568 482.3685,310.0878 482.5442,310.019 482.6237,309.9879 482.7033,309.9568 482.7829,309.9257 482.9974,309.842 483.212,309.7587 483.4268,309.6757 L 483.4268,309.6757 Z" />
	<path style="fill-rule:evenodd;fill:#2d2c2b;" d="M 354.1881,440.2972 L 137.7188,440.2972 137.7188,440.2972 C 137.5259,440.2972 137.3881,440.2972 137.2228,440.2972 131.0222,440.2972 125.7587,441.6373 120.3849,444.5801 115.0386,447.523 111.1805,451.1753 108.0665,456.2728 104.98,461.3703 103.5745,466.3626 103.5745,472.2484 103.5745,478.1341 104.98,483.1265 108.0665,488.2239 111.1805,493.3214 115.0386,496.9737 120.3849,499.9166 125.7587,502.8595 131.0222,504.1995 137.2228,504.1995 137.3881,504.1995 137.5259,504.1995 137.7188,504.1995 L 341.0749,504.1995 C 342.2299,481.9089 346.7607,460.4388 354.1879,440.2971 L 354.1881,440.2972 Z" />
	<path style="fill-rule:evenodd;fill:#2d2c2b;" d="M 482.9549,309.8587 C 483.1121,309.7975 483.2694,309.7365 483.4268,309.6757 L 483.4268,309.6757 C 483.4561,309.6643 483.4855,309.653 483.5148,309.6416 L 483.5152,309.6407 C 481.3369,309.2246 479.0791,309.0242 476.6811,309.0242 476.5157,309.0242 476.3779,309.0242 476.2126,309.0242 L 137.7188,309.0242 137.7188,309.0242 C 137.5534,309.0242 137.3881,309.0242 137.2228,309.0242 131.0222,309.0242 125.7587,310.3643 120.3849,313.3071 115.0386,316.25 111.1805,319.9023 108.0665,324.9998 104.98,330.0973 103.5745,335.0896 103.5745,340.9754 103.5745,346.8611 104.98,351.8535 108.0665,356.9509 111.1805,362.0484 115.0386,365.7007 120.3849,368.6436 125.7587,371.5865 131.0222,372.9265 137.2228,372.9265 137.3881,372.9265 137.5534,372.9265 137.7188,372.9265 L 393.8657,372.9265 C 393.8926,372.8948 393.9197,372.8632 393.9469,372.8317 394.0129,372.7549 394.0789,372.6782 394.145,372.6015 394.2214,372.5129 394.2978,372.4244 394.3743,372.336 394.4407,372.2591 394.5072,372.1823 394.5738,372.1056 394.6502,372.0175 394.7267,371.9294 394.8032,371.8414 394.87,371.7646 394.9369,371.6879 395.0038,371.6112 395.0804,371.5234 395.157,371.4356 395.2338,371.348 395.3008,371.2713 395.3679,371.1948 395.435,371.1183 395.5157,371.0263 395.5964,370.9345 395.6773,370.8427 395.7439,370.7669 395.8107,370.6912 395.8775,370.6155 395.955,370.5278 396.0325,370.44 396.1101,370.3524 396.177,370.2769 396.2439,370.2015 396.3108,370.1261 396.3887,370.0384 396.4667,369.9507 396.5447,369.8631 396.6116,369.7881 396.6785,369.7131 396.7454,369.6381 396.8239,369.5502 396.9025,369.4624 396.9812,369.3746 397.0478,369.3002 397.1145,369.2258 397.1813,369.1515 397.3056,369.0132 397.43,368.875 397.5547,368.737 397.5606,368.7304 397.5666,368.7238 397.5726,368.7172 397.6924,368.5846 397.8123,368.4521 397.9324,368.3198 397.9985,368.2469 398.0647,368.1741 398.1309,368.1014 398.2107,368.0136 398.2906,367.9259 398.3706,367.8383 398.4373,367.7652 398.5041,367.6922 398.5709,367.6192 398.6507,367.532 398.7306,367.4449 398.8105,367.3578 398.8776,367.2848 398.9447,367.2118 399.0119,367.1389 399.0919,367.0519 399.172,366.9651 399.2521,366.8783 399.3193,366.8055 399.3866,366.7328 399.4539,366.6601 399.56,366.5456 399.6662,366.4311 399.7726,366.3167 399.795,366.2926 399.8175,366.2685 399.8399,366.2443 399.9635,366.1115 400.0873,365.9789 400.2113,365.8463 400.3867,365.6588 400.5624,365.4716 400.7384,365.2846 400.7535,365.2687 400.7685,365.2528 400.7835,365.2368 400.9449,365.0655 401.1066,364.8944 401.2686,364.7236 401.3937,364.5917 401.519,364.4599 401.6444,364.3283 401.6531,364.3192 401.6617,364.3102 401.6703,364.3012 401.7929,364.1725 401.9156,364.0441 402.0386,363.9157 402.1049,363.8465 402.1712,363.7773 402.2376,363.7081 402.3209,363.6214 402.4042,363.5348 402.4876,363.4482 402.5547,363.3786 402.6218,363.3091 402.6889,363.2395 402.772,363.1535 402.8552,363.0675 402.9384,362.9816 403.0058,362.912 403.0733,362.8425 403.1408,362.773 403.2242,362.6872 403.3077,362.6014 403.3913,362.5156 403.4586,362.4465 403.526,362.3774 403.5935,362.3084 403.7082,362.1909 403.8231,362.0736 403.9382,361.9564 403.9569,361.9373 403.9756,361.9182 403.9944,361.8991 404.1239,361.7672 404.2536,361.6355 404.3835,361.5039 404.5622,361.3228 404.7413,361.142 404.9206,360.9615 404.9314,360.9507 404.9422,360.9398 404.9529,360.929 405.1218,360.7592 405.2909,360.5896 405.4602,360.4203 405.5911,360.2895 405.7221,360.1589 405.8533,360.0284 405.8637,360.0181 405.8741,360.0077 405.8846,359.9973 406.0048,359.8778 406.1252,359.7583 406.2458,359.639 406.3908,359.4955 406.536,359.3522 406.6814,359.2091 406.7177,359.1733 406.754,359.1376 406.7904,359.1019 406.9713,358.924 407.1526,358.7464 407.3342,358.5691 407.4678,358.4386 407.6016,358.3083 407.7356,358.1782 407.7626,358.152 407.7896,358.1257 407.8167,358.0995 407.9511,357.969 408.0858,357.8386 408.2206,357.7085 408.236,357.6936 408.2514,357.6787 408.2668,357.6638 408.4019,357.5334 408.5371,357.4033 408.6725,357.2733 408.8546,357.0984 409.037,356.9238 409.2198,356.7495 409.2249,356.7446 409.2301,356.7397 409.2352,356.7348 409.4129,356.5654 409.5908,356.3962 409.769,356.2274 409.9054,356.0982 410.042,355.9691 410.1788,355.8402 410.1905,355.8291 410.2023,355.818 410.214,355.807 410.3535,355.6755 410.4932,355.5442 410.6331,355.4131 410.6607,355.3872 410.6883,355.3613 410.716,355.3355 410.8582,355.2022 411.0006,355.0692 411.1433,354.9364 411.1681,354.9132 411.193,354.8901 411.2178,354.8669 411.3468,354.7468 411.476,354.6269 411.6053,354.5071 411.6308,354.4835 411.6563,354.4599 411.6818,354.4363 411.8255,354.3033 411.9694,354.1705 412.1134,354.0379 412.1397,354.0136 412.1661,353.9894 412.1924,353.9652 412.3339,353.8351 412.4756,353.7051 412.6174,353.5753 412.6299,353.5639 412.6423,353.5525 412.6548,353.5411 412.795,353.4129 412.9354,353.2848 413.0759,353.1569 413.2593,352.99 413.4429,352.8234 413.6269,352.6572 413.629,352.6552 413.6312,352.6532 413.6334,352.6513 413.8195,352.4831 414.0058,352.3152 414.1925,352.1476 414.3343,352.0203 414.4763,351.8932 414.6184,351.7662 414.6311,351.7548 414.6439,351.7434 414.6566,351.732 414.8012,351.603 414.9459,351.4741 415.0907,351.3455 415.1154,351.3236 415.14,351.3017 415.1646,351.2798 415.3128,351.1484 415.4611,351.0171 415.6096,350.886 415.6342,350.8643 415.6588,350.8426 415.6834,350.8209 415.8179,350.7023 415.9526,350.5837 416.0875,350.4654 416.1108,350.4449 416.1342,350.4244 416.1575,350.4039 416.3062,350.2736 416.455,350.1434 416.6041,350.0134 416.6298,349.9909 416.6556,349.9684 416.6814,349.946 416.8296,349.8168 416.9779,349.6879 417.1264,349.5591 417.1362,349.5507 417.1459,349.5423 417.1556,349.5338 417.3007,349.4081 417.4459,349.2826 417.5912,349.1573 417.7706,349.0027 417.9502,348.8483 418.13,348.6943 418.1397,348.686 418.1494,348.6777 418.159,348.6694 418.3485,348.5072 418.5382,348.3452 418.7283,348.1836 418.8752,348.0586 419.0223,347.9338 419.1696,347.8092 419.1832,347.7976 419.1968,347.7861 419.2104,347.7746 419.3598,347.6483 419.5094,347.5221 419.6591,347.3961 419.6813,347.3775 419.7034,347.3589 419.7256,347.3403 419.8791,347.2112 420.0328,347.0824 420.1867,346.9537 420.2112,346.9332 420.2357,346.9127 420.2603,346.8922 420.4003,346.7752 420.5404,346.6584 420.6808,346.5418 420.7019,346.5242 420.723,346.5066 420.7442,346.4891 420.8976,346.3616 421.0512,346.2344 421.205,346.1073 421.2304,346.0863 421.2558,346.0654 421.2812,346.0444 421.4357,345.9169 421.5904,345.7895 421.7453,345.6624 421.7525,345.6565 421.7597,345.6506 421.7669,345.6447 421.9164,345.5219 422.0661,345.3994 422.216,345.277 422.3919,345.1335 422.568,344.9901 422.7443,344.8471 422.761,344.8335 422.7776,344.82 422.7943,344.8065 422.9872,344.6501 423.1803,344.494 423.3738,344.3382 423.5257,344.2158 423.6778,344.0937 423.83,343.9717 423.8444,343.9602 423.8587,343.9487 423.8731,343.9372 424.0272,343.8138 424.1815,343.6906 424.3359,343.5676 424.3559,343.5516 424.376,343.5357 424.396,343.5197 424.5545,343.3936 424.7132,343.2676 424.872,343.1419 424.8967,343.1224 424.9214,343.1029 424.9461,343.0833 425.0915,342.9684 425.237,342.8536 425.3827,342.7389 425.4016,342.7241 425.4204,342.7092 425.4393,342.6944 425.5973,342.5702 425.7555,342.4461 425.9139,342.3223 425.939,342.3026 425.9642,342.283 425.9893,342.2633 426.15,342.1378 426.3109,342.0124 426.4719,341.8873 426.4766,341.8837 426.4814,341.88 426.4861,341.8763 426.649,341.7497 426.8121,341.6234 426.9754,341.4973 427.0048,341.4746 427.0341,341.452 427.0635,341.4293 427.221,341.3078 427.3787,341.1864 427.5365,341.0653 427.5488,341.0559 427.561,341.0465 427.5733,341.0371 427.7241,340.9214 427.8752,340.8058 428.0264,340.6905 428.0539,340.6695 428.0814,340.6485 428.1089,340.6275 428.2715,340.5036 428.4342,340.3799 428.5972,340.2564 428.6122,340.245 428.6272,340.2336 428.6423,340.2222 428.8009,340.102 428.9598,339.982 429.1188,339.8622 429.137,339.8484 429.1552,339.8347 429.1734,339.821 429.3365,339.6982 429.4998,339.5756 429.6633,339.4532 429.6883,339.4344 429.7133,339.4157 429.7383,339.397 429.889,339.2843 430.0398,339.1718 430.1908,339.0594 430.2073,339.0471 430.2239,339.0348 430.2404,339.0225 430.4028,338.9018 430.5653,338.7812 430.728,338.6609 430.7531,338.6423 430.7782,338.6237 430.8034,338.6052 430.97,338.4821 431.1368,338.3591 431.3038,338.2365 431.3061,338.2348 431.3084,338.2331 431.3107,338.2314 431.4788,338.1079 431.647,337.9847 431.8154,337.8617 431.8422,337.8421 431.869,337.8226 431.8958,337.803 432.0589,337.684 432.2222,337.5652 432.3857,337.4466 432.3987,337.4372 432.4116,337.4278 432.4246,337.4184 432.5792,337.3062 432.734,337.1943 432.889,337.0825 432.9153,337.0635 432.9417,337.0444 432.9681,337.0254 433.1347,336.9053 433.3015,336.7855 433.4685,336.6658 433.4842,336.6546 433.5,336.6433 433.5157,336.632 433.6788,336.5153 433.842,336.3987 434.0054,336.2824 434.022,336.2705 434.0386,336.2587 434.0552,336.2469 434.2226,336.1277 434.3903,336.0087 434.5581,335.89 434.5836,335.872 434.6091,335.8539 434.6346,335.8359 434.7905,335.7257 434.9465,335.6157 435.1027,335.5058 435.1168,335.4959 435.131,335.486 435.1451,335.4761 435.3116,335.359 435.4782,335.2423 435.645,335.1257 435.6703,335.108 435.6956,335.0904 435.7208,335.0727 435.8931,334.9524 436.0656,334.8324 436.2383,334.7125 436.2385,334.7124 436.2387,334.7123 436.2389,334.7122 436.4116,334.5923 436.5845,334.4726 436.7577,334.3532 436.7826,334.336 436.8074,334.3189 436.8323,334.3017 437.0004,334.1859 437.1686,334.0703 437.337,333.9549 437.3509,333.9453 437.3648,333.9358 437.3787,333.9263 437.5369,333.8179 437.6953,333.7098 437.8538,333.6018 437.879,333.5846 437.9043,333.5674 437.9296,333.5502 438.1001,333.4341 438.2708,333.3183 438.4416,333.2027 438.4581,333.1916 438.4745,333.1805 438.491,333.1693 438.6582,333.0562 438.8257,332.9433 438.9933,332.8306 439.0085,332.8204 439.0236,332.8103 439.0388,332.8001 439.2103,332.6848 439.382,332.5698 439.5539,332.455 439.58,332.4375 439.6062,332.4201 439.6323,332.4026 439.7934,332.2951 439.9546,332.1878 440.116,332.0808 440.1276,332.073 440.1393,332.0653 440.1509,332.0576 440.3212,331.9446 440.4917,331.8318 440.6624,331.7193 440.688,331.7024 440.7137,331.6855 440.7393,331.6686 440.9148,331.553 441.0905,331.4375 441.2664,331.3224 441.2689,331.3207 441.2714,331.3191 441.2739,331.3175 441.449,331.2028 441.6243,331.0884 441.7998,330.9742 441.8232,330.9589 441.8466,330.9437 441.8701,330.9285 442.0425,330.8163 442.2152,330.7044 442.388,330.5927 442.403,330.583 442.4181,330.5732 442.4331,330.5635 442.5947,330.4591 442.7565,330.3549 442.9184,330.2509 442.9425,330.2354 442.9667,330.2199 442.9908,330.2044 443.1651,330.0925 443.3395,329.9809 443.5141,329.8695 443.5313,329.8586 443.5485,329.8476 443.5656,329.8366 443.737,329.7274 443.9086,329.6183 444.0803,329.5095 444.0941,329.5007 444.1079,329.492 444.1217,329.4832 444.2971,329.3721 444.4727,329.2612 444.6484,329.1506 444.6753,329.1337 444.7022,329.1167 444.7291,329.0998 444.8953,328.9952 445.0617,328.8909 445.2282,328.7867 445.2373,328.7811 445.2463,328.7754 445.2554,328.7698 445.4293,328.661 445.6033,328.5526 445.7776,328.4443 445.8038,328.428 445.8301,328.4117 445.8563,328.3954 446.0349,328.2845 446.2137,328.1739 446.3926,328.0635 446.3972,328.0606 446.4017,328.0578 446.4063,328.055 446.5838,327.9455 446.7615,327.8362 446.9394,327.7272 446.9617,327.7135 446.984,327.6998 447.0063,327.6862 447.1828,327.5781 447.3595,327.4702 447.5363,327.3625 447.5526,327.3526 447.5689,327.3427 447.5853,327.3328 447.7501,327.2324 447.9152,327.1323 448.0804,327.0324 448.1034,327.0185 448.1264,327.0046 448.1494,326.9906 448.3272,326.8832 448.5052,326.7759 448.6834,326.6689 448.7014,326.6581 448.7194,326.6473 448.7373,326.6365 448.9127,326.5312 449.0883,326.4262 449.264,326.3214 449.2765,326.3139 449.289,326.3065 449.3015,326.299 449.4805,326.1922 449.6597,326.0857 449.8391,325.9794 449.8669,325.963 449.8947,325.9465 449.9225,325.9301 450.0938,325.8286 450.2654,325.7274 450.4371,325.6264 450.4434,325.6226 450.4498,325.6189 450.4561,325.6152 450.6332,325.511 450.8105,325.407 450.988,325.3033 451.0151,325.2874 451.0423,325.2715 451.0694,325.2557 451.2509,325.1497 451.4326,325.0439 451.6145,324.9384 451.6209,324.9347 451.6273,324.931 451.6337,324.9273 451.8137,324.8228 451.9939,324.7186 452.1743,324.6146 452.1956,324.6023 452.217,324.59 452.2384,324.5777 452.4186,324.4739 452.599,324.3703 452.7795,324.267 452.7973,324.2569 452.815,324.2467 452.8327,324.2366 453.0007,324.1405 453.169,324.0446 453.3373,323.9488 453.3592,323.9364 453.381,323.924 453.4029,323.9116 453.5841,323.8086 453.7655,323.7059 453.9471,323.6034 453.9659,323.5928 453.9848,323.5821 454.0036,323.5715 454.183,323.4704 454.3624,323.3695 454.5421,323.2688 454.5532,323.2625 454.5644,323.2563 454.5755,323.25 454.7581,323.1478 454.9408,323.0458 455.1237,322.944 455.1524,322.928 455.1812,322.912 455.2099,322.896 455.3865,322.7978 455.5633,322.6999 455.7402,322.6021 455.7436,322.6002 455.7471,322.5983 455.7506,322.5964 455.9306,322.497 456.1107,322.3978 456.291,322.2989 456.3194,322.2833 456.3478,322.2677 456.3761,322.2521 456.5604,322.1511 456.7449,322.0503 456.9295,321.9498 456.9376,321.9453 456.9458,321.9409 456.9539,321.9365 457.1364,321.8371 457.3191,321.738 457.5019,321.6391 457.5225,321.628 457.5431,321.6168 457.5637,321.6057 457.7474,321.5064 457.9313,321.4074 458.1153,321.3086 458.1345,321.2983 458.1537,321.288 458.1729,321.2777 458.344,321.1858 458.5153,321.0942 458.6868,321.0028 458.7075,320.9918 458.7281,320.9808 458.7488,320.9698 458.9333,320.8715 459.118,320.7734 459.3028,320.6756 459.3226,320.6651 459.3423,320.6547 459.3621,320.6442 459.5453,320.5473 459.7287,320.4507 459.9122,320.3543 459.9219,320.3492 459.9317,320.344 459.9415,320.3389 460.1203,320.245 460.2993,320.1513 460.4784,320.0579 460.6975,319.9436 460.9167,319.8297 461.1362,319.7161 461.1364,319.716 461.1365,319.716 461.1367,319.7159 461.356,319.6024 461.5756,319.4892 461.7953,319.3764 461.9752,319.2841 462.1552,319.192 462.3353,319.1001 462.3451,319.0952 462.3548,319.0902 462.3646,319.0852 462.5495,318.9909 462.7347,318.8969 462.92,318.8031 462.9399,318.793 462.9598,318.7829 462.9797,318.7729 463.1667,318.6783 463.3538,318.5839 463.5411,318.4898 463.5619,318.4794 463.5826,318.469 463.6033,318.4586 463.7776,318.3711 463.9519,318.2839 464.1265,318.1968 464.1459,318.1872 464.1653,318.1775 464.1847,318.1678 464.3723,318.0743 464.5601,317.981 464.748,317.888 464.7688,317.8778 464.7895,317.8675 464.8103,317.8572 464.9974,317.7647 465.1846,317.6724 465.372,317.5804 465.3803,317.5764 465.3886,317.5723 465.3968,317.5682 465.5864,317.4752 465.7762,317.3823 465.9661,317.2898 465.9948,317.2758 466.0235,317.2618 466.0521,317.2479 466.2383,317.1572 466.4246,317.0668 466.6111,316.9767 466.614,316.9753 466.6169,316.9739 466.6198,316.9725 466.8033,316.8838 466.9869,316.7953 467.1707,316.7071 467.2002,316.6929 467.2297,316.6787 467.2592,316.6646 467.4491,316.5735 467.6392,316.4827 467.8294,316.3921 467.8407,316.3867 467.852,316.3814 467.8633,316.376 468.0508,316.2868 468.2384,316.1978 468.4262,316.1091 468.4454,316.1 468.4647,316.0909 468.4839,316.0818 468.674,315.9921 468.8643,315.9026 469.0547,315.8133 469.077,315.8029 469.0993,315.7924 469.1215,315.782 469.2989,315.6989 469.4763,315.6161 469.6539,315.5335 469.672,315.5251 469.6901,315.5167 469.7082,315.5083 469.8987,315.4197 470.0894,315.3314 470.2803,315.2433 470.3021,315.2332 470.3239,315.2232 470.3457,315.2131 470.5368,315.1251 470.7279,315.0372 470.9193,314.9497 470.9259,314.9466 470.9325,314.9436 470.9391,314.9406 471.1324,314.8522 471.3258,314.764 471.5194,314.6761 471.547,314.6635 471.5747,314.651 471.6023,314.6385 471.7922,314.5523 471.9822,314.4664 472.1724,314.3808 472.178,314.3783 472.1835,314.3758 472.189,314.3733 472.3737,314.2902 472.5585,314.2073 472.7434,314.1247 472.7725,314.1117 472.8016,314.0987 472.8306,314.0857 473.0234,313.9996 473.2163,313.9138 473.4094,313.8283 473.4222,313.8226 473.4351,313.8169 473.4479,313.8112 473.6378,313.7271 473.8279,313.6433 474.0181,313.5597 474.0367,313.5515 474.0552,313.5434 474.0738,313.5352 474.2669,313.4504 474.4601,313.3658 474.6535,313.2816 474.6774,313.2712 474.7012,313.2608 474.7251,313.2504 474.9055,313.1718 475.0861,313.0934 475.2669,313.0153 475.2835,313.0081 475.3001,313.0009 475.3167,312.9938 475.5101,312.9102 475.7036,312.8269 475.8972,312.7439 475.9202,312.7341 475.9431,312.7243 475.966,312.7145 476.1611,312.6309 476.3563,312.5476 476.5516,312.4646 476.5564,312.4626 476.5611,312.4606 476.5659,312.4586 476.7628,312.3749 476.9598,312.2915 477.157,312.2084 477.1838,312.1971 477.2106,312.1858 477.2375,312.1745 477.4307,312.0931 477.6242,312.012 477.8177,311.9311 477.8258,311.9277 477.8339,311.9243 477.842,311.921 478.0279,311.8433 478.2139,311.7659 478.4,311.6888 478.4286,311.6769 478.4572,311.6651 478.4858,311.6532 478.6813,311.5723 478.877,311.4916 479.0729,311.4112 479.0871,311.4053 479.1014,311.3994 479.1157,311.3936 479.3081,311.3146 479.5007,311.2359 479.6934,311.1574 479.7112,311.1501 479.7291,311.1428 479.7469,311.1356 479.9429,311.0558 480.139,310.9764 480.3352,310.8971 480.3606,310.8869 480.386,310.8766 480.4114,310.8664 480.5951,310.7923 480.779,310.7185 480.9629,310.6449 480.9779,310.6389 480.9929,310.6329 481.0079,310.6269 481.204,310.5485 481.4001,310.4703 481.5964,310.3925 481.6205,310.3829 481.6446,310.3734 481.6687,310.3638 481.8679,310.2849 482.0673,310.2062 482.2668,310.1278 482.2694,310.1268 482.2721,310.1257 482.2747,310.1247 482.4752,310.0459 482.6757,309.9674 482.8765,309.8892 482.9026,309.879 482.9288,309.8689 482.9549,309.8587 L 482.9549,309.8587 Z" />
	<path style="fill-rule:evenodd;fill:#2d2c2b;" d="M 482.912,309.8754 C 482.9263,309.8698 482.9406,309.8643 482.9549,309.8587 L 482.9549,309.8587 C 483.1121,309.7975 483.2694,309.7365 483.4268,309.6757 L 483.4268,309.6757 C 483.4561,309.6643 483.4855,309.653 483.5148,309.6416 L 483.5152,309.6407 C 481.3369,309.2246 479.0791,309.0242 476.6811,309.0242 476.5157,309.0242 476.3779,309.0242 476.2126,309.0242 L 137.7188,309.0242 137.7188,309.0242 C 137.5534,309.0242 137.3881,309.0242 137.2228,309.0242 131.0222,309.0242 125.7587,310.3643 120.3849,313.3071 115.0386,316.25 111.1805,319.9023 108.0665,324.9998 104.98,330.0973 103.5745,335.0896 103.5745,340.9754 103.5745,346.8611 104.98,351.8535 108.0665,356.9509 111.1805,362.0484 115.0386,365.7007 120.3849,368.6436 125.7587,371.5865 131.0222,372.9265 137.2228,372.9265 137.3881,372.9265 137.5534,372.9265 137.7188,372.9265 L 393.8657,372.9265 C 393.8655,372.9264 393.8655,372.9264 393.8655,372.9264 393.9163,372.8672 393.9672,372.808 394.0181,372.7489 394.0208,372.7457 394.0235,372.7426 394.0263,372.7394 394.1693,372.5732 394.3125,372.4073 394.456,372.2416 394.4579,372.2393 394.4599,372.2371 394.4618,372.2348 394.6063,372.068 394.751,371.9013 394.896,371.7349 394.8969,371.7338 394.8977,371.7328 394.8986,371.7318 395.0444,371.5644 395.1905,371.3973 395.3368,371.2303 395.3372,371.2298 395.3377,371.2293 395.3381,371.2288 395.4846,371.0616 395.6313,370.8947 395.7783,370.7279 395.7785,370.7277 395.7787,370.7275 395.7789,370.7273 395.9255,370.561 396.0723,370.3949 396.2194,370.2291 396.2209,370.2274 396.2225,370.2257 396.224,370.224 396.3698,370.0595 396.516,369.8952 396.6623,369.7312 396.6648,369.7284 396.6673,369.7256 396.6698,369.7228 396.8153,369.5597 396.961,369.3969 397.107,369.2343 397.1102,369.2308 397.1133,369.2272 397.1165,369.2237 397.2636,369.0598 397.411,368.8962 397.5585,368.7327 397.5586,368.7327 397.5586,368.7327 397.5586,368.7326 397.7064,368.569 397.8545,368.4055 398.0028,368.2422 398.0055,368.2392 398.0083,368.2362 398.011,368.2332 398.1586,368.0707 398.3065,367.9085 398.4546,367.7464 398.4563,367.7445 398.458,367.7426 398.4598,367.7407 398.6092,367.5772 398.7589,367.4139 398.9088,367.2508 398.9091,367.2505 398.9094,367.2502 398.9097,367.2499 399.0598,367.0866 399.2103,366.9235 399.3609,366.7606 399.3623,366.7591 399.3636,366.7577 399.3649,366.7563 399.5153,366.5937 399.6659,366.4314 399.8167,366.2692 399.8171,366.2688 399.8175,366.2684 399.8178,366.2681 399.9625,366.1126 400.1074,365.9573 400.2525,365.8023 400.2726,365.7808 400.2927,365.7593 400.3128,365.7379 400.4491,365.5924 400.5855,365.4471 400.7222,365.3019 400.726,365.2978 400.7299,365.2937 400.7338,365.2896 400.8743,365.1404 401.0149,364.9915 401.1558,364.8427 401.1752,364.8222 401.1945,364.8018 401.2139,364.7814 401.3593,364.6279 401.5049,364.4746 401.6508,364.3216 401.6509,364.3215 401.6509,364.3215 401.651,364.3214 401.8032,364.1616 401.9557,364.0021 402.1085,363.8428 402.1112,363.8399 402.1139,363.8371 402.1166,363.8343 402.2688,363.6756 402.4212,363.5171 402.5738,363.3588 402.5754,363.3572 402.5769,363.3556 402.5784,363.354 402.7324,363.1943 402.8867,363.0349 403.0412,362.8756 403.0415,362.8754 403.0417,362.8751 403.042,362.8748 403.1963,362.7158 403.3508,362.557 403.5055,362.3985 403.5074,362.3965 403.5094,362.3945 403.5113,362.3925 403.6658,362.2342 403.8205,362.0762 403.9755,361.9184 403.9758,361.9181 403.976,361.9178 403.9763,361.9176 404.1255,361.7656 404.2749,361.6139 404.4245,361.4624 404.4445,361.4421 404.4644,361.4219 404.4844,361.4017 404.6262,361.2582 404.7682,361.115 404.9103,360.9719 404.9128,360.9694 404.9152,360.9669 404.9177,360.9645 405.0623,360.8189 405.2072,360.6735 405.3522,360.5284 405.3717,360.5088 405.3912,360.4893 405.4108,360.4698 405.5609,360.3196 405.7113,360.1697 405.8619,360.0199 405.8619,360.0198 405.862,360.0197 405.8621,360.0197 406.0127,359.8699 406.1635,359.7204 406.3145,359.571 406.3308,359.555 406.347,359.5389 406.3633,359.5228 406.5105,359.3774 406.6578,359.2321 406.8054,359.0871 406.8158,359.0769 406.8262,359.0667 406.8366,359.0565 406.9769,358.9186 407.1174,358.7809 407.2581,358.6434 407.2742,358.6277 407.2903,358.612 407.3063,358.5963 407.4609,358.4454 407.6157,358.2946 407.7707,358.1441 407.7709,358.1439 407.7712,358.1436 407.7714,358.1434 407.9313,357.9882 408.0913,357.8332 408.2517,357.6784 408.2518,357.6783 408.252,357.6781 408.2522,357.678 408.4057,357.5297 408.5595,357.3817 408.7136,357.2339 408.7335,357.2147 408.7534,357.1956 408.7734,357.1765 408.9205,357.0354 409.0679,356.8944 409.2154,356.7537 409.2164,356.7527 409.2175,356.7517 409.2185,356.7507 409.3672,356.6089 409.516,356.4673 409.665,356.326 409.6848,356.3072 409.7046,356.2885 409.7243,356.2697 409.8791,356.123 410.0341,355.9766 410.1893,355.8303 410.1894,355.8302 410.1895,355.8301 410.1896,355.83 410.3519,355.677 410.5144,355.5243 410.6771,355.3718 410.6773,355.3717 410.6774,355.3716 410.6776,355.3714 410.8401,355.2191 411.0029,355.067 411.166,354.9152 411.1664,354.9148 411.1668,354.9144 411.1673,354.914 411.3302,354.7623 411.4933,354.6108 411.6567,354.4595 411.6571,354.4591 411.6576,354.4587 411.6581,354.4583 411.8215,354.3069 411.9852,354.1558 412.1492,354.005 412.1494,354.0048 412.1495,354.0046 412.1497,354.0045 412.3138,353.8534 412.4782,353.7026 412.6428,353.5521 412.6429,353.552 412.643,353.5519 412.6431,353.5518 412.801,353.4073 412.9591,353.2631 413.1174,353.1191 413.137,353.1013 413.1566,353.0835 413.1762,353.0657 413.3286,352.9272 413.4811,352.7889 413.6338,352.6509 413.6342,352.6505 413.6346,352.6501 413.635,352.6498 413.7874,352.5121 413.9399,352.3746 414.0926,352.2373 414.1124,352.2195 414.1322,352.2017 414.152,352.1839 414.3114,352.0408 414.4709,351.8979 414.6306,351.7552 414.6307,351.7552 414.6309,351.7551 414.631,351.755 414.7974,351.6063 414.9641,351.4579 415.131,351.3097 415.1312,351.3096 415.1313,351.3094 415.1315,351.3093 415.2982,351.1613 415.4652,351.0135 415.6324,350.8659 415.6328,350.8656 415.6332,350.8652 415.6336,350.8648 415.8007,350.7174 415.968,350.5701 416.1356,350.4232 416.136,350.4228 416.1364,350.4225 416.1368,350.4222 416.3045,350.275 416.4724,350.1282 416.6405,349.9816 416.6406,349.9815 416.6407,349.9814 416.6408,349.9813 416.8092,349.8345 416.9777,349.688 417.1465,349.5417 417.1465,349.5417 417.1466,349.5416 417.1467,349.5416 417.3089,349.401 417.4713,349.2606 417.634,349.1204 417.6524,349.1045 417.6709,349.0887 417.6893,349.0728 417.8464,348.9375 418.0037,348.8024 418.1612,348.6675 418.163,348.666 418.1648,348.6645 418.1665,348.663 418.3223,348.5296 418.4783,348.3964 418.6345,348.2634 418.6533,348.2474 418.6722,348.2313 418.6911,348.2152 418.855,348.0757 419.0192,347.9364 419.1835,347.7974 419.1836,347.7973 419.1837,347.7972 419.1839,347.7971 419.3544,347.6528 419.5252,347.5088 419.6961,347.365 419.6963,347.3649 419.6964,347.3648 419.6966,347.3646 419.8674,347.221 420.0385,347.0776 420.2097,346.9344 420.2101,346.9341 420.2105,346.9337 420.2109,346.9334 420.3821,346.7903 420.5536,346.6474 420.7252,346.5048 420.7255,346.5046 420.7258,346.5043 420.7262,346.5041 420.898,346.3613 421.07,346.2188 421.2423,346.0765 421.2423,346.0765 421.2424,346.0765 421.2424,346.0764 421.4148,345.9341 421.5875,345.7919 421.7603,345.6501 421.7603,345.65 421.7604,345.65 421.7604,345.65 421.9268,345.5134 422.0935,345.377 422.2603,345.2409 422.2778,345.2266 422.2954,345.2123 422.313,345.1979 422.4745,345.0662 422.6363,344.9346 422.7982,344.8033 422.8013,344.8008 422.8043,344.7984 422.8074,344.7959 422.9667,344.6667 423.1261,344.5378 423.2858,344.4091 423.3037,344.3946 423.3217,344.3802 423.3396,344.3657 423.508,344.23 423.6767,344.0945 423.8455,343.9593 423.8456,343.9592 423.8457,343.9591 423.8458,343.959 424.0204,343.8192 424.1951,343.6797 424.3701,343.5404 424.3702,343.5402 424.3704,343.5401 424.3705,343.54 424.5453,343.4008 424.7204,343.2619 424.8956,343.1232 424.896,343.1229 424.8964,343.1226 424.8968,343.1223 425.072,342.9837 425.2475,342.8453 425.4231,342.7071 425.4234,342.7069 425.4236,342.7067 425.4239,342.7065 425.5997,342.5683 425.7757,342.4302 425.952,342.2925 425.952,342.2924 425.952,342.2924 425.9521,342.2924 426.1285,342.1545 426.3051,342.0169 426.4819,341.8796 426.4819,341.8796 426.4819,341.8796 426.4819,341.8795 426.6586,341.7423 426.8355,341.6053 427.0126,341.4686 427.0129,341.4683 427.0132,341.4681 427.0135,341.4679 427.1906,341.3312 427.3678,341.1947 427.5454,341.0585 427.5455,341.0584 427.5456,341.0584 427.5457,341.0583 427.7231,340.9221 427.9008,340.7862 428.0786,340.6506 428.0791,340.6503 428.0795,340.6499 428.0799,340.6496 428.2578,340.514 428.4358,340.3786 428.6141,340.2435 428.6142,340.2434 428.6144,340.2433 428.6145,340.2432 428.7929,340.108 428.9716,339.973 429.1504,339.8383 429.1506,339.8382 429.1507,339.8381 429.1508,339.838 429.3295,339.7034 429.5085,339.569 429.6876,339.435 429.688,339.4347 429.6884,339.4344 429.6888,339.4341 429.8679,339.3 430.0473,339.1662 430.2268,339.0326 430.227,339.0325 430.2272,339.0323 430.2274,339.0322 430.4071,338.8985 430.5871,338.7651 430.7672,338.6319 430.7673,338.6319 430.7673,338.6318 430.7674,338.6318 430.9476,338.4985 431.1281,338.3656 431.3087,338.2328 431.3087,338.2328 431.3087,338.2328 431.3087,338.2328 431.4893,338.1002 431.6701,337.9678 431.8512,337.8356 431.8513,337.8355 431.8515,337.8353 431.8517,337.8352 432.0327,337.7031 432.2139,337.5712 432.3953,337.4396 432.3954,337.4396 432.3955,337.4395 432.3956,337.4394 432.5769,337.3079 432.7584,337.1766 432.9401,337.0456 432.9405,337.0453 432.9409,337.0451 432.9413,337.0448 433.123,336.9138 433.3049,336.7831 433.487,336.6526 433.4871,336.6525 433.4872,336.6524 433.4873,336.6524 433.6696,336.5218 433.8521,336.3915 434.0348,336.2614 434.0349,336.2613 434.035,336.2613 434.0351,336.2612 434.2176,336.1312 434.4004,336.0016 434.5833,335.8721 434.5837,335.8719 434.5841,335.8716 434.5845,335.8713 434.7675,335.7419 434.9506,335.6127 435.134,335.4838 435.1341,335.4837 435.1343,335.4837 435.1344,335.4836 435.3179,335.3546 435.5016,335.2258 435.6855,335.0974 435.6857,335.0973 435.6858,335.0972 435.6859,335.0971 435.8699,334.9686 436.0541,334.8404 436.2385,334.7124 436.2385,334.7124 436.2385,334.7124 436.2385,334.7124 436.4229,334.5845 436.6075,334.4567 436.7923,334.3293 436.7924,334.3292 436.7925,334.3292 436.7926,334.3291 436.9774,334.2017 437.1623,334.0745 437.3475,333.9477 437.3476,333.9476 437.3478,333.9475 437.3479,333.9474 437.5329,333.8206 437.7182,333.6941 437.9036,333.5679 437.904,333.5676 437.9044,333.5673 437.9047,333.5671 438.0902,333.4408 438.2758,333.3148 438.4617,333.1891 438.4618,333.1891 438.4619,333.189 438.462,333.1889 438.648,333.0631 438.8342,332.9376 439.0206,332.8123 439.0207,332.8122 439.0208,332.8121 439.0209,332.8121 439.2072,332.6869 439.3937,332.562 439.5803,332.4373 439.5807,332.4371 439.5811,332.4368 439.5815,332.4366 439.7682,332.3119 439.9551,332.1875 440.1422,332.0634 440.1422,332.0633 440.1423,332.0633 440.1424,332.0632 440.3296,331.939 440.517,331.8151 440.7046,331.6914 440.7048,331.6913 440.705,331.6912 440.7051,331.6911 440.8928,331.5674 441.0806,331.444 441.2687,331.3209 441.2687,331.3209 441.2687,331.3209 441.2687,331.3209 441.4568,331.1977 441.6451,331.0748 441.8336,330.9522 441.8336,330.9522 441.8337,330.9521 441.8337,330.9521 442.0222,330.8295 442.2108,330.7072 442.3997,330.5851 442.3998,330.585 442.4,330.5849 442.4001,330.5848 442.5888,330.4629 442.7777,330.3412 442.9668,330.2198 442.9671,330.2196 442.9675,330.2194 442.9678,330.2191 443.157,330.0977 443.3463,329.9766 443.5358,329.8557 443.5359,329.8556 443.536,329.8556 443.5361,329.8555 443.7257,329.7345 443.9156,329.6138 444.1056,329.4934 444.1057,329.4934 444.1058,329.4933 444.1059,329.4933 444.2958,329.3729 444.4859,329.2529 444.6761,329.1331 444.6765,329.1329 444.6769,329.1326 444.6773,329.1324 444.8676,329.0126 445.0582,328.8931 445.2489,328.7738 445.2489,328.7738 445.249,328.7738 445.249,328.7737 445.4398,328.6544 445.6308,328.5354 445.822,328.4167 445.8222,328.4165 445.8225,328.4164 445.8227,328.4163 446.0139,328.2975 446.2053,328.179 446.3969,328.0608 446.3969,328.0608 446.3969,328.0608 446.3969,328.0608 446.5886,327.9425 446.7805,327.8245 446.9726,327.7068 446.9727,327.7068 446.9727,327.7068 446.9727,327.7068 447.1647,327.5891 447.3569,327.4717 447.5493,327.3546 447.5495,327.3545 447.5497,327.3544 447.5498,327.3543 447.7421,327.2373 447.9346,327.1205 448.1272,327.0041 448.1275,327.0039 448.1279,327.0037 448.1282,327.0035 448.3209,326.887 448.5137,326.7708 448.7068,326.6548 448.7069,326.6548 448.707,326.6547 448.7071,326.6547 448.9003,326.5387 449.0937,326.4229 449.2873,326.3075 449.2874,326.3074 449.2874,326.3074 449.2875,326.3073 449.4809,326.192 449.6746,326.0769 449.8684,325.9621 449.8688,325.9618 449.8692,325.9616 449.8696,325.9614 450.0634,325.8465 450.2575,325.732 450.4517,325.6177 450.4518,325.6177 450.4518,325.6177 450.4518,325.6177 450.6461,325.5034 450.8406,325.3894 451.0353,325.2756 451.0356,325.2754 451.0358,325.2753 451.0361,325.2751 451.2308,325.1614 451.4257,325.0479 451.6207,324.9348 451.6208,324.9347 451.6208,324.9347 451.6208,324.9347 451.816,324.8215 452.0114,324.7085 452.207,324.5958 452.207,324.5958 452.207,324.5958 452.207,324.5958 452.4025,324.4831 452.5982,324.3708 452.7941,324.2587 452.7943,324.2586 452.7945,324.2585 452.7947,324.2583 452.9904,324.1463 453.1863,324.0346 453.3825,323.9232 453.3827,323.923 453.383,323.9228 453.3833,323.9227 453.5795,323.8112 453.7759,323.7 453.9724,323.5891 453.9725,323.5891 453.9726,323.589 453.9727,323.589 454.1693,323.478 454.3662,323.3673 454.5632,323.2569 454.5633,323.2569 454.5634,323.2569 454.5634,323.2568 454.7603,323.1465 454.9574,323.0365 455.1546,322.9268 455.155,322.9265 455.1555,322.9263 455.1559,322.9261 455.3532,322.8163 455.5506,322.7068 455.7483,322.5976 455.7483,322.5976 455.7483,322.5976 455.7483,322.5976 455.9461,322.4884 456.1439,322.3795 456.342,322.2708 456.3424,322.2707 456.3427,322.2705 456.343,322.2703 456.5411,322.1617 456.7393,322.0533 456.9378,321.9453 456.9378,321.9452 456.9378,321.9452 456.9379,321.9452 457.1365,321.8371 457.3352,321.7292 457.5342,321.6216 457.5342,321.6216 457.5343,321.6216 457.5343,321.6216 457.7332,321.5141 457.9322,321.4068 458.1315,321.2999 458.1317,321.2998 458.1319,321.2996 458.1321,321.2995 458.3313,321.1926 458.5306,321.086 458.7301,320.9797 458.7303,320.9796 458.7306,320.9795 458.7309,320.9793 458.9304,320.873 459.1302,320.7669 459.3301,320.6611 459.3302,320.6611 459.3303,320.6611 459.3303,320.661 459.5304,320.5552 459.7306,320.4496 459.9311,320.3444 459.9311,320.3444 459.9312,320.3443 459.9312,320.3443 460.1256,320.2422 460.3201,320.1404 460.5149,320.0389 460.534,320.0289 460.5531,320.019 460.5722,320.009 460.76,319.9111 460.948,319.8135 461.1362,319.7162 461.1362,319.7161 461.1362,319.7161 461.1362,319.7161 461.3244,319.6188 461.5127,319.5216 461.7012,319.4248 461.7203,319.4149 461.7395,319.4051 461.7587,319.3952 461.9541,319.2948 462.1498,319.1947 462.3456,319.0949 462.3456,319.0949 462.3457,319.0949 462.3457,319.0948 462.5476,318.9919 462.7497,318.8893 462.9519,318.7869 462.952,318.7869 462.9521,318.7868 462.9521,318.7868 463.1543,318.6845 463.3566,318.5825 463.5591,318.4808 463.5593,318.4807 463.5596,318.4806 463.5599,318.4804 463.7623,318.3788 463.9649,318.2774 464.1677,318.1763 464.1679,318.1762 464.1681,318.1761 464.1684,318.1759 464.3712,318.0748 464.5743,317.974 464.7776,317.8734 464.7776,317.8734 464.7777,317.8734 464.7777,317.8733 464.9811,317.7727 465.1846,317.6724 465.3883,317.5724 465.3883,317.5724 465.3884,317.5724 465.3884,317.5724 465.5919,317.4724 465.7957,317.3728 465.9996,317.2735 465.9999,317.2733 466.0003,317.2731 466.0006,317.273 466.2045,317.1736 466.4086,317.0745 466.6129,316.9758 466.6129,316.9758 466.613,316.9758 466.613,316.9758 466.8172,316.877 467.0216,316.7786 467.2263,316.6804 467.2267,316.6802 467.2271,316.68 467.2275,316.6798 467.4321,316.5817 467.6368,316.4838 467.8417,316.3863 467.8418,316.3862 467.8419,316.3862 467.8419,316.3862 468.047,316.2885 468.2523,316.1912 468.4578,316.0942 468.4578,316.0941 468.4579,316.0941 468.458,316.0941 468.6633,315.9971 468.8688,315.9004 469.0745,315.804 469.0748,315.8039 469.0751,315.8037 469.0754,315.8036 469.281,315.7072 469.4868,315.6112 469.6928,315.5154 469.693,315.5153 469.6932,315.5152 469.6934,315.5151 469.8995,315.4193 470.1058,315.3238 470.3123,315.2286 470.3123,315.2285 470.3123,315.2285 470.3123,315.2285 470.5189,315.1333 470.7256,315.0383 470.9325,314.9436 470.9325,314.9436 470.9326,314.9436 470.9326,314.9436 471.1394,314.849 471.3463,314.7547 471.5534,314.6606 471.5537,314.6605 471.5539,314.6604 471.5542,314.6603 471.7613,314.5663 471.9687,314.4725 472.1761,314.3791 472.1762,314.3791 472.1762,314.3791 472.1762,314.3791 472.3836,314.2857 472.5912,314.1926 472.7989,314.0998 472.7993,314.0997 472.7998,314.0995 472.8002,314.0993 473.0079,314.0065 473.2158,313.9141 473.4238,313.8219 473.4239,313.8219 473.424,313.8218 473.424,313.8218 473.6323,313.7296 473.8407,313.6376 474.0492,313.546 474.0493,313.546 474.0494,313.5459 474.0495,313.5459 474.2579,313.4543 474.4666,313.363 474.6753,313.2721 474.6757,313.2719 474.676,313.2718 474.6763,313.2716 474.885,313.1807 475.094,313.09 475.3031,312.9997 475.3032,312.9996 475.3034,312.9995 475.3036,312.9995 475.5128,312.909 475.7222,312.8189 475.9318,312.7291 475.9318,312.7291 475.9318,312.7291 475.9318,312.7291 476.1415,312.6393 476.3513,312.5497 476.5613,312.4605 476.5613,312.4605 476.5613,312.4605 476.5614,312.4605 476.7713,312.3713 476.9813,312.2824 477.1916,312.1938 477.1918,312.1937 477.192,312.1937 477.1922,312.1936 477.4024,312.105 477.6128,312.0167 477.8234,311.9288 477.8234,311.9287 477.8234,311.9287 477.8235,311.9287 478.0339,311.8408 478.2446,311.7532 478.4554,311.6659 478.4558,311.6657 478.4562,311.6655 478.4566,311.6653 478.6674,311.578 478.8783,311.4911 479.0894,311.4044 479.0895,311.4043 479.0896,311.4043 479.0897,311.4043 479.3009,311.3175 479.5124,311.2311 479.724,311.1449 479.724,311.1449 479.7241,311.1449 479.7242,311.1448 479.9357,311.0587 480.1473,310.973 480.3591,310.8875 480.3595,310.8874 480.3598,310.8872 480.3602,310.8871 480.5719,310.8016 480.7839,310.7165 480.996,310.6316 480.9961,310.6316 480.9963,310.6315 480.9964,310.6315 481.2087,310.5466 481.4211,310.462 481.6337,310.3777 481.6337,310.3777 481.6338,310.3777 481.6338,310.3776 481.8465,310.2933 482.0593,310.2093 482.2723,310.1256 482.2723,310.1256 482.2723,310.1256 482.2723,310.1256 482.4852,310.042 482.6983,309.9586 482.9116,309.8756 482.9117,309.8755 482.9119,309.8755 482.912,309.8754 Z" />
	<path style="fill-rule:evenodd;fill:#2d2c2b;" d="M 482.9118,309.8755 C 482.9119,309.8755 482.9119,309.8754 482.912,309.8754 482.9263,309.8698 482.9406,309.8643 482.9549,309.8587 L 482.9549,309.8587 C 483.1121,309.7975 483.2694,309.7365 483.4268,309.6757 L 483.4268,309.6757 C 483.4561,309.6643 483.4855,309.653 483.5148,309.6416 L 483.5152,309.6407 C 481.3369,309.2246 479.0791,309.0242 476.6811,309.0242 476.5157,309.0242 476.3779,309.0242 476.2126,309.0242 L 137.7188,309.0242 137.7188,309.0242 C 137.5534,309.0242 137.3881,309.0242 137.2228,309.0242 131.0222,309.0242 125.7587,310.3643 120.3849,313.3071 115.0386,316.25 111.1805,319.9023 108.0665,324.9998 104.98,330.0973 103.5745,335.0896 103.5745,340.9754 103.5745,346.8611 104.98,351.8535 108.0665,356.9509 111.1805,362.0484 115.0386,365.7007 120.3849,368.6436 125.7587,371.5865 131.0222,372.9265 137.2228,372.9265 137.3881,372.9265 137.5534,372.9265 137.7188,372.9265 L 393.8657,372.9265 C 393.8655,372.9264 393.8655,372.9264 393.8655,372.9264 393.9163,372.8672 393.9672,372.808 394.0181,372.7489 394.0196,372.7471 394.0211,372.7454 394.0227,372.7436 394.0227,372.7436 394.0227,372.7436 394.0227,372.7436 394.168,372.5747 394.3135,372.4061 394.4593,372.2377 394.4594,372.2377 394.4594,372.2377 394.4594,372.2377 394.6052,372.0692 394.7512,371.901 394.8976,371.733 394.8976,371.733 394.8976,371.733 394.8976,371.733 395.0439,371.565 395.1905,371.3973 395.3373,371.2297 395.3373,371.2297 395.3373,371.2297 395.3373,371.2297 395.4841,371.0621 395.6312,370.8948 395.7785,370.7277 395.7785,370.7277 395.7785,370.7277 395.7785,370.7277 395.9259,370.5606 396.0735,370.3937 396.2213,370.227 396.2213,370.227 396.2213,370.227 396.2213,370.227 396.3691,370.0603 396.5172,369.8938 396.6656,369.7276 396.6656,369.7276 396.6656,369.7276 396.6656,369.7276 396.8139,369.5613 396.9625,369.3953 397.1113,369.2295 397.1113,369.2295 397.1113,369.2295 397.1113,369.2295 397.2602,369.0636 397.4093,368.8981 397.5586,368.7327 397.5586,368.7327 397.5586,368.7327 397.5586,368.7327 397.7079,368.5673 397.8575,368.4022 398.0073,368.2372 398.0073,368.2372 398.0073,368.2372 398.0074,368.2372 398.1572,368.0723 398.3073,367.9076 398.4576,367.7431 398.4576,367.7431 398.4576,367.7431 398.4576,367.7431 398.6079,367.5786 398.7585,367.4143 398.9093,367.2503 398.9093,367.2503 398.9093,367.2503 398.9093,367.2503 399.0602,367.0862 399.2112,366.9224 399.3626,366.7588 399.3626,366.7588 399.3626,366.7588 399.3626,366.7588 399.5139,366.5952 399.6655,366.4318 399.8173,366.2687 399.8173,366.2687 399.8173,366.2687 399.8173,366.2687 399.969,366.1057 400.1209,365.9429 400.273,365.7803 400.2733,365.78 400.2736,365.7797 400.2739,365.7794 400.4261,365.6169 400.5785,365.4545 400.7311,365.2924 400.7311,365.2924 400.7311,365.2924 400.7312,365.2924 400.8839,365.1302 401.0368,364.9683 401.19,364.8065 401.1902,364.8064 401.1904,364.8062 401.1906,364.806 401.3438,364.6442 401.4972,364.4828 401.6509,364.3215 401.8047,364.1601 401.9587,363.999 402.113,363.8381 402.113,363.8381 402.113,363.8381 402.113,363.8381 402.2672,363.6772 402.4218,363.5165 402.5765,363.356 402.5765,363.356 402.5765,363.356 402.5765,363.356 402.886,363.0351 403.1965,362.7151 403.508,362.396 403.508,362.396 403.508,362.396 403.508,362.396 403.8193,362.077 404.1316,361.7589 404.4448,361.4418 404.4451,361.4415 404.4454,361.4412 404.4456,361.441 404.6022,361.2825 404.759,361.1242 404.916,360.9661 404.916,360.9661 404.916,360.9661 404.9161,360.9661 405.0731,360.808 405.2304,360.6502 405.388,360.4926 405.3882,360.4924 405.3884,360.4921 405.3886,360.4919 405.7038,360.1766 406.0199,359.8622 406.337,359.5488 406.3371,359.5487 406.3371,359.5487 406.3372,359.5486 406.4957,359.3919 406.6545,359.2354 406.8135,359.0791 406.8136,359.079 406.8137,359.0789 406.8138,359.0789 406.9727,358.9227 407.1319,358.7667 407.2914,358.6109 407.2916,358.6108 407.2918,358.6106 407.2919,358.6104 407.611,358.2987 407.931,357.988 408.2519,357.6782 408.2519,357.6782 408.2519,357.6782 408.2519,357.6782 408.4123,357.5234 408.5729,357.3688 408.7338,357.2145 408.734,357.2142 408.7343,357.214 408.7346,357.2137 408.8954,357.0594 409.0565,356.9052 409.2178,356.7514 409.2178,356.7514 409.2178,356.7514 409.2178,356.7514 409.3792,356.5975 409.5408,356.4438 409.7026,356.2904 409.7028,356.2901 409.7031,356.2899 409.7033,356.2897 409.8651,356.1363 410.0272,355.9831 410.1894,355.8301 410.1894,355.8301 410.1894,355.8301 410.1894,355.8301 410.3518,355.6771 410.5145,355.5242 410.6773,355.3716 410.6773,355.3716 410.6773,355.3716 410.6773,355.3716 410.8402,355.2191 411.0033,355.0667 411.1666,354.9146 411.33,354.7625 411.4935,354.6106 411.6573,354.4589 411.8212,354.3073 411.9852,354.1559 412.1495,354.0047 412.1495,354.0047 412.1495,354.0047 412.1495,354.0047 412.3137,353.8535 412.4782,353.7026 412.643,353.5519 412.643,353.5519 412.643,353.5519 412.643,353.5519 412.8076,353.4013 412.9724,353.251 413.1375,353.1009 413.1377,353.1007 413.138,353.1004 413.1382,353.1002 413.3033,352.9501 413.4686,352.8003 413.6341,352.6506 413.6341,352.6506 413.6341,352.6506 413.6341,352.6506 413.7996,352.501 413.9654,352.3516 414.1314,352.2025 414.1317,352.2022 414.1319,352.202 414.1322,352.2018 414.2981,352.0527 414.4644,351.9038 414.6308,351.7551 414.6308,351.7551 414.6308,351.7551 414.6308,351.7551 414.7974,351.6063 414.9642,351.4578 415.1312,351.3095 415.1312,351.3095 415.1312,351.3095 415.1312,351.3095 415.2983,351.1612 415.4655,351.0132 415.633,350.8654 415.633,350.8654 415.633,350.8654 415.633,350.8654 415.8005,350.7176 415.9682,350.57 416.1362,350.4227 416.1362,350.4227 416.1362,350.4227 416.1362,350.4227 416.4721,350.128 416.8089,349.8344 417.1466,349.5417 417.1466,349.5417 417.1466,349.5417 417.1466,349.5417 417.3153,349.3954 417.4843,349.2494 417.6535,349.1036 417.6537,349.1034 417.6539,349.1033 417.6541,349.1031 417.8233,348.9573 417.9928,348.8118 418.1624,348.6665 418.1624,348.6665 418.1624,348.6665 418.1624,348.6665 418.3321,348.5212 418.5019,348.3762 418.672,348.2314 418.6723,348.2312 418.6725,348.231 418.6727,348.2308 419.1833,347.7963 419.6958,347.364 420.2103,346.9339 420.2103,346.9339 420.2103,346.9339 420.2103,346.9339 420.3819,346.7905 420.5537,346.6474 420.7257,346.5044 420.7257,346.5044 420.7257,346.5044 420.7257,346.5044 420.8977,346.3615 421.0699,346.2189 421.2424,346.0765 421.2424,346.0765 421.2424,346.0765 421.2424,346.0765 421.4148,345.9341 421.5875,345.7919 421.7604,345.65 421.9332,345.5082 422.1062,345.3666 422.2794,345.2253 422.2796,345.2251 422.2798,345.225 422.28,345.2248 422.4532,345.0835 422.6267,344.9424 422.8004,344.8016 422.8004,344.8016 422.8004,344.8016 422.8004,344.8016 422.974,344.6608 423.1479,344.5202 423.322,344.3799 423.3223,344.3797 423.3225,344.3795 423.3227,344.3793 423.4968,344.239 423.6711,344.099 423.8457,343.9591 423.8457,343.9591 423.8457,343.9591 423.8457,343.9591 424.0203,343.8192 424.1952,343.6796 424.3703,343.5402 424.3703,343.5402 424.3703,343.5402 424.3703,343.5402 424.5454,343.4008 424.7207,343.2617 424.8962,343.1228 424.8962,343.1228 424.8962,343.1228 424.8962,343.1228 425.0718,342.9839 425.2475,342.8452 425.4235,342.7068 425.4235,342.7068 425.4235,342.7068 425.4235,342.7068 425.5994,342.5684 425.7756,342.4303 425.952,342.2924 425.952,342.2924 425.952,342.2924 425.952,342.2924 426.1284,342.1546 426.3051,342.0169 426.4819,341.8796 426.4819,341.8796 426.4819,341.8796 426.4819,341.8796 426.6587,341.7422 426.8358,341.6051 427.0131,341.4682 427.0131,341.4682 427.0131,341.4682 427.0131,341.4682 427.1903,341.3313 427.3678,341.1947 427.5455,341.0584 427.5455,341.0584 427.5455,341.0584 427.5455,341.0584 427.9009,340.7857 428.2572,340.514 428.6143,340.2434 428.6143,340.2434 428.6143,340.2434 428.6143,340.2434 428.7929,340.108 428.9716,339.973 429.1506,339.8382 429.1506,339.8382 429.1506,339.8382 429.1506,339.8382 429.5086,339.5685 429.8674,339.3 430.2271,339.0324 430.2271,339.0324 430.2271,339.0324 430.2271,339.0324 430.407,338.8986 430.587,338.7651 430.7673,338.6318 430.7673,338.6318 430.7673,338.6318 430.7673,338.6318 431.1278,338.3653 431.4892,338.0998 431.8514,337.8354 432.2137,337.571 432.5768,337.3076 432.9407,337.0452 432.9407,337.0452 432.9407,337.0452 432.9407,337.0452 433.4865,336.6517 434.0343,336.2605 434.5839,335.8717 434.5839,335.8717 434.5839,335.8717 434.5839,335.8717 434.9504,335.6125 435.3176,335.3544 435.6857,335.0973 435.6857,335.0973 435.6857,335.0973 435.6857,335.0973 435.8698,334.9687 436.054,334.8404 436.2385,334.7124 436.4229,334.5844 436.6076,334.4567 436.7925,334.3292 436.7925,334.3292 436.7925,334.3292 436.7925,334.3292 436.9773,334.2017 437.1624,334.0745 437.3477,333.9475 437.3477,333.9475 437.3477,333.9475 437.3477,333.9475 437.533,333.8206 437.7185,333.6939 437.9042,333.5675 437.9042,333.5675 437.9042,333.5675 437.9042,333.5675 438.0899,333.4411 438.2757,333.3149 438.4619,333.189 438.4619,333.189 438.4619,333.189 438.4619,333.189 438.8341,332.9373 439.2071,332.6866 439.5809,332.4369 439.5809,332.4369 439.5809,332.4369 439.5809,332.4369 440.5155,331.8129 441.4552,331.1955 442.3999,330.585 442.3999,330.585 442.3999,330.585 442.3999,330.585 442.9667,330.2187 443.5353,329.8548 444.1057,329.4933 444.1057,329.4933 444.1057,329.4933 444.1057,329.4933 444.486,329.2524 444.8671,329.0125 445.249,328.7738 445.4399,328.6544 445.631,328.5353 445.8223,328.4165 445.8223,328.4165 445.8223,328.4165 445.8223,328.4165 446.0137,328.2976 446.2052,328.1791 446.3969,328.0608 447.1638,327.5877 447.9338,327.119 448.707,326.6547 448.707,326.6547 448.707,326.6547 448.707,326.6547 448.9003,326.5387 449.0937,326.4229 449.2874,326.3074 449.2874,326.3074 449.2874,326.3074 449.2874,326.3074 449.6748,326.0764 450.0629,325.8465 450.4518,325.6177 450.4518,325.6177 450.4518,325.6177 450.4518,325.6177 450.6462,325.5033 450.8409,325.3892 451.0357,325.2754 451.2305,325.1615 451.4256,325.048 451.6208,324.9347 452.2064,324.5949 452.7938,324.2577 453.3829,323.9229 453.3829,323.9229 453.3829,323.9229 453.3829,323.9229 453.972,323.5882 454.5628,323.256 455.1553,322.9264 455.1553,322.9264 455.1553,322.9264 455.1553,322.9264 455.5503,322.7067 455.946,322.488 456.3425,322.2706 456.3425,322.2706 456.3425,322.2706 456.3425,322.2706 456.5408,322.1618 456.7392,322.0534 456.9378,321.9452 456.9378,321.9452 456.9378,321.9452 456.9378,321.9452 457.1365,321.8371 457.3353,321.7292 457.5343,321.6216 457.5343,321.6216 457.5343,321.6216 457.5343,321.6216 458.3302,321.1913 459.1292,320.7655 459.9311,320.3444 459.9311,320.3444 459.9311,320.3444 459.9311,320.3444 460.1315,320.2391 460.3321,320.1342 460.5328,320.0295 460.533,320.0294 460.5332,320.0293 460.5334,320.0292 460.7342,319.9246 460.9351,319.8202 461.1362,319.7161 461.1362,319.7161 461.1362,319.7161 461.1362,319.7161 461.3373,319.6121 461.5386,319.5083 461.7401,319.4048 461.7403,319.4047 461.7405,319.4046 461.7407,319.4045 461.9422,319.301 462.1438,319.1978 462.3457,319.0949 462.3457,319.0949 462.3457,319.0949 462.3457,319.0949 462.5476,318.9919 462.7497,318.8892 462.952,318.7869 462.952,318.7869 462.952,318.7869 462.952,318.7869 463.3566,318.5821 463.762,318.3785 464.168,318.1761 464.168,318.1761 464.168,318.1761 464.168,318.1761 464.7771,317.8725 465.3878,317.5715 466.0001,317.2732 466.0001,317.2732 466.0001,317.2732 466.0001,317.2732 466.2042,317.1738 466.4085,317.0746 466.6129,316.9758 467.0219,316.7781 467.4315,316.5816 467.8418,316.3862 467.8418,316.3862 467.8418,316.3862 467.8418,316.3862 468.047,316.2886 468.2523,316.1912 468.4579,316.0941 468.4579,316.0941 468.4579,316.0941 468.4579,316.0941 468.6634,315.9971 468.8691,315.9003 469.075,315.8038 469.075,315.8038 469.075,315.8038 469.075,315.8038 469.2808,315.7073 469.4869,315.6112 469.6931,315.5153 469.6931,315.5153 469.6931,315.5153 469.6931,315.5153 469.8993,315.4194 470.1057,315.3238 470.3123,315.2285 470.7255,315.038 471.1393,314.8486 471.5538,314.6605 471.5538,314.6605 471.5538,314.6605 471.5538,314.6605 472.1756,314.3782 472.799,314.0987 473.4239,313.8219 473.4239,313.8218 473.4239,313.8218 473.4239,313.8218 474.0489,313.545 474.6753,313.2709 475.3033,312.9996 475.3033,312.9996 475.3033,312.9996 475.3033,312.9996 475.3033,312.9996 475.3033,312.9996 475.3033,312.9996 475.722,312.8187 476.1413,312.639 476.5613,312.4605 476.9814,312.282 477.4021,312.1048 477.8234,311.9287 477.8234,311.9287 477.8234,311.9287 477.8234,311.9287 478.2448,311.7527 478.6668,311.5779 479.0895,311.4043 479.0895,311.4043 479.0895,311.4043 479.0895,311.4043 479.3009,311.3175 479.5124,311.2311 479.7241,311.1449 479.7241,311.1449 479.7241,311.1449 479.7241,311.1449 480.7825,310.714 481.8451,310.2909 482.9118,309.8755 482.9118,309.8755 482.9118,309.8755 482.9118,309.8755 Z" />
	<path style="fill-rule:evenodd;fill:#2d2c2b;" d="M 574.3036,294.5684 L 574.3036,161.5346 426.6775,-1.4484 415.2405,-1.4484 40.0328,-1.4484 C 18.9837,-1.4484 -1.4485,14.0878 -1.4485,36.1423 L -1.4485,683.2715 C -1.4485,705.326 18.9837,720.8622 40.0328,720.8622 L 426.326,721.993 C 398.4915,721.993 429.3021,693.7479 408.4068,673.6166 L 48.3342,673.6165 48.3342,45.7973 403.8036,45.7973 524.5209,179.0557 524.5209,298.1171 C 537.8919,295.6864 551.6933,294.4147 565.8181,294.4147 568.66,294.4147 571.4888,294.4661 574.3036,294.5682 L 574.3036,294.5684 Z" />
	<path style="fill-rule:evenodd;fill:#2d2c2b;" d="M 681.9871,720.5822 L 749.8322,832.6772 748.8705,737.7754 832.6783,782.9313 754.8812,654.3934 C 746.2289,662.8355 734.7949,669.0063 721.2678,672.9206 715.6371,692.8009 705.1228,708.2029 689.669,716.9544 687.1875,718.3597 684.6244,719.5676 681.9873,720.5829 L 681.9871,720.5822 Z" />
	<path style="fill-rule:evenodd;fill:#2d2c2b;" d="M 481.0885,707.5415 L 402.0983,832.6784 403.1075,737.1835 315.1556,782.6216 401.1044,646.4609 C 403.2532,665.2965 410.6316,681.0716 423.6665,692.0771 438.2665,704.404 458.2145,709.2711 481.0883,707.5419 L 481.0885,707.5415 Z" />
	<path style="stroke-width:0.2835;stroke:#2d2c2b;fill-rule:evenodd;stroke-miterlimit:10.433;fill:#2d2c2b;" d="M 441.5436,390.4268 C 421.7711,396.1486 406.4875,406.7099 397.8568,422.1543 386.8353,441.8772 388.2816,466.6671 399.7572,492.7332 381.0724,514.2292 372.3448,537.4781 377.0276,559.5817 381.2495,579.5104 395.8135,595.8696 417.545,607.7439 L 417.5453,607.7437 C 417.171,632.5063 424.2314,653.241 439.494,666.7341 456.534,681.7985 481.279,685.6095 509.4209,679.7753 526.6408,702.7856 547.7039,716.3198 570.4479,716.3198 587.2207,716.3198 603.0793,708.9593 617.1565,695.8658 635.8581,700.3222 653.285,698.9124 667.8802,690.6471 683.2753,681.9288 693.7497,666.5853 699.359,646.7805 719.1317,641.059 734.4152,630.4976 743.0459,615.0532 754.0675,595.3302 752.621,570.5399 741.1451,544.4735 L 741.1448,544.4735 C 759.8283,522.9783 768.555,499.7304 763.8725,477.6277 759.6504,457.6983 745.0855,441.3386 723.3527,429.4642 723.7263,404.7028 716.6658,383.9688 701.4036,370.4761 684.3635,355.4116 659.6182,351.6006 631.4759,357.435 L 631.4759,357.435 C 614.2558,334.4239 593.1924,320.8891 570.4479,320.8891 553.6763,320.8891 537.8188,328.2485 523.7424,341.3402 505.0423,336.885 487.6169,338.2952 473.0227,346.5599 457.6274,355.2783 447.153,370.6219 441.5438,390.427 L 441.5436,390.4268 Z M 667.8512,518.6043 C 667.8512,464.8196 624.2335,421.202 570.4488,421.202 516.6641,421.202 473.0465,464.8196 473.0465,518.6043 473.0465,572.389 516.6641,616.0066 570.4488,616.0066 624.2335,616.0066 667.8512,572.389 667.8512,518.6043 Z" />
</g>
</svg>