<?xml version="1.0" encoding="utf-8"?>
<!-- Created by sK1 2.0rc4 (https://sk1project.net/) -->
<svg xmlns="http://www.w3.org/2000/svg" height="832.677165354pt" viewBox="0 0 832.677165354 832.677165354" width="832.677165354pt" version="1.1" xmlns:xlink="http://www.w3.org/1999/xlink" id="4ad81330-b435-11ea-be2e-a0f3c11e789f">

<g>
	<path style="fill-rule:evenodd;fill:#2d2c2b;" d="M -93.767,964.077 C -92.8599,963.8502 -91.5843,963.8502 -90.9607,964.1053 -90.3088,964.3605 -91.0458,964.5589 -92.6048,964.5589 -94.1639,964.5305 -94.6741,964.3038 -93.767,964.077 L -93.767,964.077 Z" />
	<path style="fill-rule:evenodd;fill:#2d2c2b;" d="M -83.4489,964.077 C -82.5135,963.8502 -81.2662,963.8502 -80.6143,964.1053 -79.9906,964.3605 -80.7277,964.5589 -82.2867,964.5589 -83.8458,964.5305 -84.356,964.3038 -83.4489,964.077 L -83.4489,964.077 Z" />
	<path style="fill-rule:evenodd;fill:#2d2c2b;" d="M 80.7328,306.967 L 48.5331,306.967 48.5331,589.9112 80.7328,589.9112 80.7328,306.967 Z" />
	<path style="fill-rule:evenodd;fill:#2d2c2b;" d="M 791.3593,311.4396 L 791.3593,311.4396 Z M 8.7171,300.8215 C 5.1009,302.2199 2.4735,306.4451 2.4735,311.4396 2.4735,316.4341 5.1009,320.6593 8.7171,322.0577 L 413.7155,479.2634 C 414.5374,479.5863 415.4212,479.7606 416.3375,479.7606 417.2537,479.7606 418.1375,479.5863 418.9594,479.2634 L 823.9579,322.0577 C 827.574,320.6593 830.2014,316.4341 830.2014,311.4396 830.2014,306.4451 827.574,302.2199 823.9579,300.8215 L 418.9594,143.6158 C 418.1375,143.2929 417.2537,143.1186 416.3375,143.1186 415.4212,143.1186 414.5374,143.2929 413.7155,143.6158 L 8.7171,300.8215 Z" />
	<path style="fill-rule:evenodd;fill:#2d2c2b;" d="M 162.0798,327.2945 L 162.0798,327.2945 Z M 159.1663,323.7895 C 159.3018,334.2776 159.4499,345.6165 159.6052,357.546 L 422.5114,465.929 C 422.5282,465.9359 422.5475,465.9439 422.5668,465.952 422.5862,465.96 422.6055,465.968 422.6222,465.975 420.1533,464.9447 417.6178,464.4374 415.1052,464.4374 412.5925,464.4374 410.057,464.9447 407.5881,465.975 407.6048,465.968 407.6241,465.96 407.6435,465.952 407.6628,465.9439 407.6822,465.9359 407.6989,465.929 L 667.5173,358.819 C 667.5173,345.1617 667.5173,332.8143 667.5173,322.3351 L 500.201,253.3601 324.4308,255.6599 159.1663,323.7901 159.1663,323.7895 Z M 160.7864,451.1197 C 161.491,510.0448 162.0798,568.1604 162.0798,602.646 162.0798,602.646 162.0798,602.646 162.0798,602.646 162.0798,602.646 162.0798,602.646 162.0798,602.646 162.0798,619.7325 167.7084,633.5579 174.481,643.4945 180.9635,653.0053 189.1115,659.9991 196.9731,665.2955 212.6869,675.8819 233.1892,683.5782 255.171,689.3373 299.6565,700.9922 357.6924,706.5715 414.7985,706.5715 471.9047,706.5715 529.9406,700.9922 574.4261,689.3373 596.4079,683.5782 616.9101,675.8819 632.6239,665.2955 640.4856,659.9991 648.6336,653.0053 655.116,643.4945 661.8887,633.5579 667.5173,619.7325 667.5173,602.646 667.5173,563.4972 667.5173,506.651 667.5173,451.9056 L 427.4489,550.8737 C 427.4656,550.8668 427.485,550.8587 427.5043,550.8507 427.5237,550.8427 427.543,550.8347 427.5597,550.8278 423.5431,552.504 419.3432,553.3599 415.1052,553.3599 410.8671,553.3599 406.6673,552.504 402.6506,550.8278 402.6673,550.8347 402.6867,550.8427 402.706,550.8507 402.7254,550.8587 402.7447,550.8668 402.7614,550.8737 L 160.7864,451.1197 160.7864,451.1197 Z" />
	<path style="fill-rule:evenodd;fill:#2d2c2b;" d="M 99.2239,610.0878 C 99.5713,538.9768 83.2442,524.1204 63.5397,524.1204 43.8352,524.1204 27.8962,542.9075 27.8556,610.0878 27.8149,677.268 -31.3634,692.5685 63.5397,696.0551 158.4429,699.5418 98.8765,681.1987 99.2239,610.0878 Z" />
</g>
</svg>