<?xml version="1.0" encoding="utf-8"?>
<!-- Created by sK1 2.0rc4 (https://sk1project.net/) -->
<svg xmlns="http://www.w3.org/2000/svg" height="832.677165354pt" viewBox="0 0 832.677165354 832.677165354" width="832.677165354pt" version="1.1" xmlns:xlink="http://www.w3.org/1999/xlink" id="2530bd7a-b436-11ea-be2e-a0f3c11e789f">

<g>
	<g>
		<path style="fill-rule:evenodd;fill:#2d2c2b;" d="M 417.8281,470.824 C 395.8309,471.1417 374.7136,484.0957 370.7785,508.1459 L 370.7541,508.2437 400.0104,571.3024 351.8365,668.2612 301.0962,494.7032 300.7052,494.8498 C 300.7052,494.8498 272.1088,505.824 239.1618,519.3645 206.1904,532.8806 168.8685,548.9386 151.3441,559.1062 146.798,561.7458 143.7184,568.0028 141.6653,576.875 139.6122,585.7472 138.5857,597.2591 138.3657,610.5063 137.9013,637.0008 140.5899,670.4121 144.3294,703.1635 151.8573,768.6908 163.7358,831.6517 163.7358,831.6517 L 163.8091,831.9694 164.1269,831.9694 669.0608,832.6782 669.1097,832.3605 C 688.345,708.9317 693.7466,641.1313 694.3087,604.176 694.602,585.6739 693.6977,574.8953 692.72,568.7361 692.2312,565.632 691.7179,563.7011 691.3269,562.528 690.9114,561.3548 690.6181,560.9148 690.6181,560.9148 L 690.5447,560.8171 527.0565,498.0761 477.2206,669.5078 431.5153,571.3513 C 431.6619,571.1802 440.2653,560.4993 449.5041,547.3988 458.7918,534.176 468.5928,518.7535 470.5481,509.4902 L 470.5726,509.3925 470.5481,509.3191 C 462.8002,482.8491 439.8253,470.5063 417.8281,470.824 L 417.8281,470.824 Z" />
		<path style="fill-rule:evenodd;fill:#2d2c2b;" d="M 553.0328,259.5529 C 526.589,364.8463 492.8009,432.4755 418.5006,432.4755 344.2242,432.4755 307.1456,358.3205 283.9923,259.5529 262.1982,166.5047 352.2817,269.9062 426.582,269.9062 500.8585,269.9062 576.3053,166.8469 553.0328,259.5529 L 553.0328,259.5529 Z" />
		<g>
			<path style="fill-rule:evenodd;fill:#2d2c2b;" d="M 233.0182,99.6255 L 215.1052,99.6255 215.1052,271.6632 233.0182,271.6632 233.0182,99.6255 Z" />
			<path style="fill-rule:evenodd;fill:#2d2c2b;" d="M 628.3456,102.3449 L 628.3456,102.3449 Z M 192.9553,95.8889 C 190.9436,96.7391 189.4819,99.3081 189.4819,102.3449 189.4819,105.3817 190.9436,107.9507 192.9553,108.801 L 418.2592,204.3863 C 418.7165,204.5827 419.2081,204.6886 419.7178,204.6886 420.2276,204.6886 420.7192,204.5827 421.1765,204.3863 L 646.4804,108.801 C 648.4921,107.9507 649.9538,105.3817 649.9538,102.3449 649.9538,99.3081 648.4921,96.7391 646.4804,95.8889 L 421.1765,0.3036 C 420.7192,0.1072 420.2276,0.0012 419.7178,0.0012 419.2081,0.0012 418.7165,0.1072 418.2592,0.3036 L 192.9553,95.8889 Z" />
			<path style="fill-rule:evenodd;fill:#2d2c2b;" d="M 278.2722,111.9852 L 278.2722,111.9852 Z M 276.6514,109.854 C 276.7268,116.2311 276.8092,123.1254 276.8956,130.3789 L 423.1525,196.2787 C 423.1618,196.2829 423.1725,196.2877 423.1833,196.2926 423.1941,196.2975 423.2048,196.3024 423.2141,196.3066 421.8406,195.6801 420.4301,195.3717 419.0323,195.3717 417.6345,195.3717 416.224,195.6801 414.8505,196.3066 414.8598,196.3024 414.8706,196.2975 414.8813,196.2926 414.8921,196.2877 414.9028,196.2829 414.9121,196.2787 L 559.4512,131.1529 C 559.4512,122.8489 559.4512,115.3413 559.4512,108.9697 L 466.3718,67.0311 368.5894,68.4294 276.6514,109.8544 276.6514,109.854 Z M 277.5527,187.2742 C 277.9447,223.1023 278.2722,258.4381 278.2722,279.4063 278.2722,279.4063 278.2722,279.4063 278.2722,279.4063 278.2722,279.4063 278.2722,279.4063 278.2722,279.4063 278.2722,289.7953 281.4035,298.2015 285.1711,304.2432 288.7774,310.026 293.3102,314.2785 297.6837,317.4988 306.4254,323.9356 317.831,328.6152 330.0596,332.1169 354.8073,339.2034 387.0931,342.5957 418.8617,342.5957 450.6304,342.5957 482.9162,339.2034 507.6638,332.1169 519.8925,328.6152 531.2981,323.9356 540.0398,317.4988 544.4133,314.2785 548.9461,310.026 552.5523,304.2432 556.32,298.2015 559.4512,289.7953 559.4512,279.4063 559.4512,255.6027 559.4512,221.0387 559.4512,187.752 L 425.8992,247.9273 C 425.9085,247.9231 425.9193,247.9182 425.9301,247.9133 425.9408,247.9084 425.9516,247.9036 425.9609,247.8994 423.7264,248.9186 421.39,249.439 419.0323,249.439 416.6746,249.439 414.3382,248.9186 412.1037,247.8994 412.113,247.9036 412.1238,247.9084 412.1346,247.9133 412.1453,247.9182 412.1561,247.9231 412.1654,247.9273 L 277.5527,187.2742 277.5527,187.2742 Z" />
			<path style="fill-rule:evenodd;fill:#2d2c2b;" d="M 243.305,283.931 C 243.4982,240.6937 234.4153,231.6606 223.4536,231.6606 212.4918,231.6606 203.6248,243.0836 203.6022,283.931 203.5796,324.7784 170.6582,334.0815 223.4536,336.2015 276.249,338.3215 243.1117,327.1684 243.305,283.931 Z" />
		</g>
	</g>
</g>
</svg>