<?xml version="1.0" encoding="utf-8"?>
<!-- Created by sK1 2.0rc4 (https://sk1project.net/) -->
<svg xmlns="http://www.w3.org/2000/svg" height="832.677165354pt" viewBox="0 0 832.677165354 832.677165354" width="832.677165354pt" version="1.1" xmlns:xlink="http://www.w3.org/1999/xlink" id="42588c6c-b1d8-11ea-bb2a-a0f3c11e789f">

<g>
	<path style="fill:#000000;" d="M 416.338,1.8747 C 306.4212,1.8747 200.993,45.5459 123.2701,123.2688 45.5472,200.9917 1.876,306.4199 1.876,416.3367 1.876,526.2535 45.5472,631.6831 123.2701,709.406 200.993,787.1289 306.4212,830.8 416.338,830.8 526.2548,830.8 631.6844,787.1289 709.4073,709.406 787.1302,631.6831 830.8013,526.2535 830.8013,416.3367 830.8013,306.4199 787.1302,200.9917 709.4073,123.2688 631.6844,45.5459 526.2548,1.8747 416.338,1.8747 Z M 537.745,49.9917 C 545.4854,52.557 553.1382,55.3706 560.696,58.4189 560.6653,58.5875 560.6466,58.7126 560.6136,58.8905 559.7403,63.5993 559.1796,64.7218 556.6741,66.8129 555.2793,67.9769 555.2631,68.1063 556.2661,69.6788 556.8758,70.6347 557.0634,71.4963 556.7146,71.7332 556.384,71.9577 557.3272,73.1724 558.8109,74.4314 562.0492,77.1791 563.9825,80.4274 564.5501,84.0738 564.8422,85.9501 565.886,87.8796 567.9847,90.4293 570.6769,93.7003 572.4609,97.507 572.4609,99.9778 572.4609,100.4559 573.224,101.6674 574.1564,102.6673 575.3967,103.9972 575.8302,105.1061 575.7681,106.802 575.6917,108.8891 575.8034,109.0529 576.8951,108.4528 578.7998,107.4056 581.7292,107.6703 583.3722,109.0372 584.5873,110.0482 584.8569,110.8497 584.7697,113.2198 584.6363,116.8425 583.3775,119.4203 580.2689,122.447 L 577.8717,124.7792 580.4194,124.7965 C 584.5657,124.822 584.932,125.6017 581.8617,127.8665 576.9879,131.4619 574.7853,132.0617 564.4763,132.6017 559.2085,132.8776 554.2887,133.4397 553.5448,133.8487 552.8009,134.2577 552.0132,135.4244 551.7957,136.4413 551.4035,138.2758 551.3775,138.282 548.3366,137.6421 545.5623,137.0583 544.9848,137.1638 542.2342,138.743 540.5631,139.7026 539.1599,140.478 539.1165,140.4661 539.0732,140.4546 538.553,140.0675 537.9591,139.6038 536.9893,138.8466 537.4483,138.1418 542.4874,132.661 548.0842,126.5735 548.1026,126.5578 550.6268,126.9724 552.8064,127.3305 553.3695,127.1557 554.6921,125.7051 L 556.2256,124.0225 553.9398,124.4594 C 552.206,124.7917 551.1306,124.5697 549.4853,123.5393 548.0298,122.6277 546.2303,122.1794 544.0239,122.1779 540.3442,122.1754 539.7107,121.469 541.0074,118.8273 541.5383,117.7458 542.5717,116.9689 543.8141,116.7136 545.286,116.4112 546.0093,115.7389 546.7032,114.0328 547.9419,110.9874 547.8841,110.5313 546.2012,110.2858 545.2629,110.1489 544.6941,109.5518 544.5562,108.5526 544.2332,106.2097 546.0112,104.7177 549.5475,104.3686 555.119,103.8187 555.8677,101.8243 552.7694,95.7736 550.9402,92.2014 550.924,92.0762 551.9144,89.4861 552.47,88.0328 552.7803,86.6951 552.6045,86.5145 552.4287,86.3339 550.4487,86.6678 548.2064,87.2552 544.9877,88.0984 543.7471,88.1685 542.308,87.5807 540.3119,86.7653 540.2982,86.2259 542.1417,81.299 542.6801,79.8602 543.1347,77.4451 543.15,75.9331 L 543.1746,73.1857 541.2924,74.2954 C 539.7975,75.1768 539.2499,75.2357 538.6246,74.5934 537.9993,73.951 538.0373,72.9242 538.8142,69.5891 L 539.7936,65.3893 538.0286,66.7289 C 536.1862,68.1283 534.2642,67.938 534.2642,66.3571 534.2642,65.8502 534.7446,64.2952 535.3319,62.9023 535.9192,61.5095 536.5621,58.0168 536.7627,55.1392 537.0138,51.5373 537.1078,50.4141 537.745,49.9917 Z M 275.3031,57.0995 C 277.4362,66.0414 281.9836,74.624 288.9241,82.1613 293.1188,86.7167 301.0319,92.8357 306.4715,95.7345 310.0274,97.6295 311.7235,99.2049 310.9101,99.8577 310.2017,100.4263 304.0616,97.1323 296.3704,92.0584 293.8373,90.3873 291.3695,89.0202 290.8873,89.0202 290.4052,89.0202 289.2674,88.4618 288.3598,87.7775 286.8641,86.6497 286.667,86.6235 286.2404,87.5156 285.8907,88.2469 287.5429,89.8342 292.6639,93.6917 299.5126,98.8507 302.5364,101.9138 302.5364,103.6829 302.5364,105.28 300.2997,105.7244 296.3849,104.9097 289.2007,103.4147 275.1586,97.8725 268.4123,93.8682 266.4736,92.7176 265.0414,90.7312 265.0414,89.1938 265.0414,88.6834 263.174,86.8111 260.8936,85.0287 258.6132,83.2463 255.8409,80.8101 254.7334,79.6165 253.3198,78.093 252.1687,77.4464 250.8706,77.4464 249.5654,77.4464 249.1379,77.6895 249.4166,78.2724 249.6338,78.7266 249.4273,79.3484 248.9551,79.6555 248.0138,80.2678 238.7723,81.0212 232.7401,80.9764 230.446,80.9593 228.4727,80.6292 226.8924,80.0982 234.6424,75.7318 242.5351,71.6397 250.5567,67.8241 251.8121,67.9318 252.7817,67.9218 252.7817,67.7778 252.7817,67.7141 252.5377,67.4239 252.1973,67.0487 259.7894,63.481 267.4964,60.1644 275.3031,57.0995 Z M 552.088,72.5549 C 551.7994,72.5549 551.5111,72.6002 551.2922,72.6909 550.8547,72.8724 551.214,73.0193 552.0894,73.0193 552.9648,73.0193 553.3214,72.8724 552.8837,72.6909 552.6648,72.6002 552.3765,72.5549 552.088,72.5549 Z M 538.7577,75.8332 C 538.8609,75.818 538.9484,75.8341 539.0196,75.8853 539.3045,76.0902 539.3445,76.8365 539.2352,78.1885 539.0468,80.5226 537.7368,81.7075 536.618,80.5583 535.8069,79.725 536.1546,77.9236 537.3371,76.8243 537.9878,76.2192 538.4482,75.8789 538.7577,75.8332 Z M 524.9429,80.4469 C 525.4603,80.467 525.9842,80.623 526.5111,80.9127 527.2463,81.3169 529.0313,81.4407 530.6951,81.2064 534.7318,80.638 536.3465,81.8538 537.3197,86.1846 538.5363,91.5997 538.3074,94.3315 536.4401,96.6112 534.9228,98.4636 534.8556,98.8001 535.5677,101.0165 536.4074,103.6306 535.9856,112.375 534.8747,115.3768 534.317,116.8839 533.9913,117.0378 532.1216,116.6774 530.2988,116.3262 529.2937,116.7447 524.9675,119.6693 521.0409,122.3238 514.492,125.4447 512.8482,125.4447 512.7341,125.4447 512.4594,124.7031 512.2377,123.7954 512.0158,122.8877 511.3285,121.7773 510.707,121.3301 509.4494,120.4252 507.4242,115.9555 508.0031,115.3609 508.2068,115.1517 508.8723,114.9804 509.4845,114.9804 511.2187,114.9804 514.1692,111.3463 514.2804,109.0749 514.3345,107.9738 514.8517,106.5388 515.4292,105.8834 516.4289,104.7486 516.325,104.6698 513.2446,104.25 509.6645,103.7621 508.6674,102.5464 510.3121,100.6795 511.6118,99.204 511.6283,97.7241 510.3569,96.6402 509.8075,96.1719 509.4548,95.0494 509.5612,94.1084 509.7456,92.4788 509.9221,92.4096 514.496,92.2219 517.1065,92.1147 519.6169,91.7114 520.0703,91.3249 521.1926,90.3681 521.1108,88.8206 519.9386,88.8206 518.5339,88.8206 518.7728,87.0188 520.5998,83.8163 521.9039,81.5304 523.3906,80.3864 524.9429,80.4469 Z M 626.5427,92.6645 C 648.9887,107.2416 670.0221,124.2214 689.2384,143.4377 712.2577,166.4571 732.0618,192.0877 748.3766,219.6271 748.1819,219.6315 747.9568,219.6303 747.698,219.6314 746.7351,219.6353 744.8748,219.8198 743.5647,220.0423 741.2069,220.4427 741.1864,220.4708 741.5726,222.9517 741.8894,224.987 741.6791,225.8154 740.4528,227.3584 739.6224,228.4033 738.6574,229.7355 738.3073,230.3199 737.7217,231.2971 737.3981,231.3003 734.268,230.3416 731.9347,229.6269 729.8124,229.4342 727.5219,229.7282 L 724.1843,230.155 724.2421,234.2102 C 724.2996,238.1388 724.247,238.27 722.5914,238.4664 721.1521,238.6373 720.5347,238.131 718.6519,235.259 716.458,231.9122 716.4075,231.8823 715.9914,233.5852 715.4163,235.9392 716.0329,238.1096 717.9344,240.4311 719.7684,242.6702 720.0796,244.6509 718.4986,244.0277 717.6601,243.6972 717.5572,243.9149 717.9402,245.1952 718.5495,247.2326 719.4796,248.3983 720.4936,248.3983 721.7715,248.3983 725.0895,252.6704 725.5746,254.939 726.1089,257.4386 725.604,258.0934 723.9615,257.0396 723.2818,256.6036 721.966,256.2497 721.0347,256.2497 L 719.3406,256.2497 721.026,257.8512 C 723.2488,259.9674 723.1504,260.3675 720.4936,260.0488 L 718.2801,259.7841 718.6519,262.1799 C 719.3492,266.659 716.1644,269.1063 713.5305,266.1164 712.9256,265.4299 711.6159,264.5228 710.6182,264.0982 708.7424,263.3001 707.7222,260.4957 707.2893,254.939 707.1131,252.6774 707.1439,252.6475 709.8399,252.4477 711.7772,252.3041 713.2075,252.6516 714.7733,253.6456 715.9862,254.4157 716.9781,254.7352 716.9781,254.3545 716.9781,253.07 714.1389,251.8067 710.3448,251.4075 706.0107,250.9515 703.9458,249.5482 704.9051,247.7067 705.9465,245.7077 705.6058,245.1316 703.3903,245.1316 700.8451,245.1316 699.1529,243.4589 699.1529,240.9462 699.1529,239.9613 698.4006,238.1433 697.4804,236.904 695.8629,234.7255 695.8212,234.4512 696.2565,228.7343 696.7955,221.6562 696.6043,221.2487 690.4045,216.1535 688.0374,214.2081 684.9138,211.4269 683.4616,209.973 681.6371,208.1464 679.7061,206.9953 677.2073,206.2491 672.5305,204.8524 667.7101,200.5401 668.1551,198.1488 668.4628,196.4955 666.4467,190.5495 665.0374,188.9563 664.366,188.1973 664.0687,188.44 663.2608,190.4262 662.2015,193.0307 661.5441,193.3195 660.0867,191.8223 658.5007,190.1931 658.2256,188.2897 659.3257,186.5648 660.5759,184.6048 659.8842,184.4846 655.813,185.9601 654.2964,186.5099 652.6813,186.813 652.228,186.6343 651.2032,186.2303 651.1074,188.6171 652.1224,189.2616 652.5841,189.5547 652.7143,190.9607 652.4884,193.2097 652.1481,196.5966 652.2178,196.7933 654.8481,199.8227 656.3393,201.5403 659.0683,205.4936 660.9113,208.6073 665.0702,215.6333 666.8095,217.3682 671.1368,218.8111 673.6665,219.6547 674.8241,220.4596 675.6015,221.9129 676.1786,222.992 677.9168,224.8409 679.4657,226.0216 687.5629,232.1943 689.0584,233.5172 689.6073,235.0001 689.9363,235.8891 690.0423,237.0524 689.8431,237.5854 689.5252,238.4361 689.2115,238.439 687.2766,237.6085 686.0644,237.0882 684.3424,236.0741 683.45,235.3531 681.5705,233.8343 679.6978,234.4342 678.8291,236.8345 678.1502,238.7106 678.5203,239.566 680.3902,240.4412 681.2366,240.8374 682.1166,241.9297 682.3461,242.8689 682.6826,244.2455 682.3322,245.0425 680.5363,246.979 679.311,248.3002 677.5194,250.7952 676.5549,252.5229 675.2101,254.9316 674.4842,255.619 673.4473,255.467 672.2438,255.2906 672.1069,254.8758 672.193,251.7084 672.2613,249.1973 672.6094,247.9089 673.3735,247.3349 674.3866,246.5739 674.367,246.2473 673.0813,242.2786 671.2559,236.6437 668.0883,233.0744 660.1011,227.6463 651.7248,221.9537 646.3475,217.6272 644.5806,215.161 643.8028,214.0754 641.6994,210.6351 639.9062,207.5165 636.0994,200.8955 632.2437,196.7325 629.9179,196.7325 627.9573,196.7325 624.0312,199.1323 624.0312,200.3305 624.0312,201.8549 616.9482,207.7733 613.8896,208.8055 611.2074,209.7106 610.6011,209.6841 606.2045,208.5017 599.7511,206.7661 598.9183,206.8439 596.1671,209.4363 593.8151,211.6525 593.7901,211.7322 593.7901,216.7177 593.7901,221.7239 593.7717,221.7719 591.4753,223.6852 590.1015,224.8297 588.096,225.7615 586.5333,225.9768 584.5924,226.2442 583.4065,226.9207 582.0035,228.5621 580.9579,229.7856 580.0996,231.1592 580.0996,231.6133 580.0996,232.0673 578.9224,233.6028 577.4811,235.0247 574.9712,237.5005 573.1003,240.7918 573.1003,242.7285 573.1003,243.2295 573.7837,244.6766 574.6223,245.9461 L 576.1486,248.2565 574.3083,249.6497 C 572.4102,251.0914 570.4096,254.5787 569.6745,257.721 569.3875,258.9471 568.8443,259.5193 567.9673,259.5193 565.8174,259.5193 561.8324,261.9789 560.3083,264.2458 559.5168,265.423 558.786,266.4972 558.6865,266.6329 558.5868,266.7686 555.6902,267.0793 552.2485,267.3245 547.7395,267.6457 545.1638,268.1802 543.0328,269.2399 538.8576,271.3163 536.0329,270.6975 532.5947,266.9526 L 529.9717,264.0982 524.5595,264.0982 519.1487,264.0982 518.7537,261.6446 C 518.5368,260.2957 518.3589,258.4778 518.3545,257.6067 518.3506,256.7357 517.5972,254.1018 516.682,251.7518 514.7711,246.8449 514.8179,245.6017 517.4083,232.2281 519.635,220.732 519.5251,218.7577 516.2104,210.9959 515.2767,208.8094 515.2731,208.4855 516.1728,207.5613 516.7189,207.0002 518.0101,206.5428 519.0431,206.5428 520.4248,206.5428 521.112,206.1146 521.6414,204.921 522.6181,202.7189 523.9146,202.43 527.6193,203.5958 529.3479,204.1397 534.9145,204.8791 539.9918,205.235 545.069,205.5908 551.2771,206.0676 553.7879,206.2969 557.7983,206.6631 558.6281,206.539 560.6136,205.2784 563.4858,203.4548 564.1782,201.0082 564.1827,192.6325 564.186,186.5517 564.2566,186.2074 565.6873,185.5377 567.1735,184.842 567.1832,184.7929 566.2558,181.4622 565.7398,179.6088 564.5297,177.2101 563.5692,176.131 562.6086,175.0519 560.9057,172.7697 559.786,171.0588 557.4815,167.5371 555.2117,166.1698 548.1094,164.0247 543.1874,162.5381 542.1223,161.4549 543.8387,159.6918 544.2881,159.23 544.2919,158.4588 543.8546,157.2772 543.0014,154.9719 543.5849,153.6328 545.6326,153.2046 546.5569,153.0113 548.9048,152.3951 550.851,151.836 554.3626,150.8272 554.4109,150.8312 556.8318,152.5188 559.7323,154.5408 561.0626,154.6511 562.5319,152.9832 563.5506,151.827 563.554,151.5014 562.5927,148.1049 561.1109,142.8685 562.5892,140.5234 566.1372,142.4742 566.8145,142.8465 567.3684,143.5701 567.3684,144.0844 567.3684,145.4265 569.6401,146.4831 572.0138,146.2473 573.7141,146.0783 574.0877,145.7423 574.2577,144.2218 574.4088,142.8693 575.2678,141.8572 577.5823,140.2997 580.5816,138.2815 582.0108,135.9921 582.0108,133.2078 582.0108,132.5478 582.8152,131.0808 583.7989,129.9498 585.2541,128.2768 586.6362,127.6301 591.2048,126.4878 596.7964,125.0896 596.8189,125.0755 596.9845,122.9129 597.0945,121.4773 597.9047,119.9292 599.373,118.3499 600.6134,117.0159 602.0737,114.4414 602.6788,112.521 603.2751,110.6291 604.3123,108.7812 604.9835,108.4123 606.124,107.7852 606.2045,108.0004 606.2045,111.7412 606.2045,114.5224 606.4324,115.6654 606.9539,115.4868 608.5418,114.943 609.0476,113.1407 608.3558,110.4782 607.241,106.1874 608.4787,104.1584 613.0041,102.8669 615.0415,102.2855 617.1374,101.6454 617.6626,101.4419 620.3461,100.402 624.0706,100.1811 624.7502,101.0223 625.8299,102.3587 626.4773,102.0972 627.8563,99.7738 629.8239,96.4586 629.5366,95.0481 626.7366,94.2936 L 624.348,93.6512 626.5427,92.6645 Z M 229.3982,97.8193 C 231.4915,97.8486 234.1922,98.4151 237.6504,99.5119 242.8714,101.1679 243.6344,101.2678 246.5883,100.6708 248.3642,100.3119 251.3702,100.0183 253.2693,100.0183 256.6307,100.0183 256.8563,100.1297 261.7833,104.3281 266.7302,108.5435 270.6245,110.575 276.8062,112.1593 280.8828,113.204 281.5809,114.9092 279.432,118.5915 L 277.7177,121.5284 279.3105,125.0974 C 281.2339,129.4021 281.3178,131.1832 279.6433,132.1951 278.5608,132.8493 278.8942,132.9127 281.987,132.6494 285.228,132.3735 285.9882,132.5514 289.5143,134.4014 293.101,136.2831 293.5445,136.3818 294.6777,135.5588 295.3593,135.0637 296.3017,133.9134 296.7726,133.001 297.4963,131.5986 297.8777,131.4181 299.2436,131.8349 300.7319,132.289 301.11,131.9156 304.041,127.1127 305.7912,124.2447 307.7725,121.6624 308.4405,121.375 312.1791,119.7662 314.1197,121.3018 321.9472,132.0635 332.246,146.2227 334.1321,150.9448 329.4876,150.9448 326.9818,150.9448 327.8328,151.751 333.2549,154.4994 338.5112,157.1638 339.4805,158.2273 338.8726,160.6669 L 338.4487,162.3798 344.1069,163.352 C 353.2053,164.9144 357.3401,166.4738 357.3401,168.3461 357.3401,168.9303 356.7726,169.6753 356.0786,169.9997 355.0526,170.4794 355.3046,170.5939 357.4313,170.6088 360.3925,170.6287 362.0178,171.7987 361.459,173.5139 361.1307,174.5213 361.4336,174.677 363.7535,174.677 367.459,174.677 368.1574,175.4801 368.1574,179.7493 368.1574,181.7756 368.5097,183.9621 368.9401,184.6074 369.3703,185.2528 369.5209,186.4256 369.2743,187.2144 368.7311,188.9514 363.1244,191.1114 356.0873,192.2954 352.1657,192.9551 350.8594,193.5047 348.0622,195.6764 342.6087,199.9103 343.2417,199.8044 321.2875,200.1743 298.9824,200.5501 297.6439,200.7565 295.2159,204.2237 293.8745,206.1394 293.1967,206.5165 290.514,206.8394 288.7893,207.047 287.2068,207.4408 286.997,207.7132 286.7873,207.9856 283.8773,209.2398 280.5316,210.4982 258.3507,218.8407 243.4492,233.881 237.8659,253.5602 236.1663,259.5506 236.2203,273.4403 237.9701,280.2959 238.7013,283.1607 239.4391,286.6895 239.6107,288.1372 239.9063,290.6302 239.7401,290.9239 236.4394,293.6926 234.5227,295.3004 232.4263,296.7646 231.7824,296.9463 231.1385,297.1281 228.3812,298.4643 225.654,299.915 208.3457,309.1224 205.0536,311.428 203.7794,315.2258 202.7055,318.4269 203.1466,319.9077 207.5858,328.0222 212.0863,336.2488 212.6986,340.1136 210.2333,344.7132 L 208.6332,347.6993 205.5444,345.5393 C 203.8469,344.352 200.4822,341.5248 198.0677,339.2561 194.511,335.9142 193.49,334.4824 192.6858,331.7157 191.4064,327.3139 189.8851,324.9979 187.4241,323.7037 185.7265,322.811 185.1366,322.7647 183.2416,323.3854 178.5723,324.9149 177.8039,324.8484 175.597,322.6997 173.6247,320.7792 173.2135,320.6508 167.6805,320.2634 164.4711,320.0384 159.7532,320.035 157.1974,320.2547 152.7606,320.636 152.552,320.7234 152.552,322.2063 152.552,323.0605 152.9201,324.0564 153.3694,324.4169 153.8187,324.7776 153.9898,325.4791 153.7513,325.978 153.1104,327.3185 148.696,327.1237 141.444,325.4369 136.3731,324.2575 133.6517,323.9916 126.7177,323.9916 L 118.2108,323.9916 116.5616,325.7812 C 114.8099,327.6827 111.1636,329.1998 108.347,329.1998 107.374,329.1998 105.3697,330.1435 103.6813,331.3945 L 100.7227,333.5863 101.1452,338.0741 C 101.4155,340.943 101.2727,343.0185 100.7488,343.8365 99.6319,345.58 97.7495,354.7235 97.7584,358.3588 97.7667,361.8616 100.0718,366.2245 103.6524,369.5059 104.9932,370.7347 106.9877,372.7146 108.0852,373.9083 109.7946,375.7675 110.4835,376.0784 112.8782,376.0784 115.0447,376.0784 116.0118,376.425 117.1793,377.6163 118.6398,379.1064 118.7982,379.1335 122.457,378.506 124.5326,378.15 128.327,377.7153 130.8857,377.5425 136.675,377.1512 138.6671,375.7892 140.5383,370.9396 142.3185,366.3256 144.0548,365.1459 150.5135,364.1573 158.0018,363.0111 164.2621,363.0936 166.2193,364.3656 L 167.7875,365.3841 165.4641,367.9608 C 163.4048,370.2423 163.1303,370.9988 163.0495,374.61 162.9717,378.088 162.5202,379.4409 159.9564,383.8662 155.9378,390.8022 155.9217,390.7918 167.925,390.4011 178.3008,390.0633 182.6249,390.6746 187.2389,393.1252 189.6894,394.4268 190.0499,394.8989 190.0499,396.8332 190.0499,398.0521 189.4382,400.4706 188.6929,402.2093 186.6973,406.8647 186.2114,409.9344 187.1188,412.1411 187.9415,414.1418 195.1029,419.4116 199.6273,421.3481 201.9128,422.3263 202.0246,422.314 206.1969,420.6248 209.7337,419.193 211.3107,418.9075 215.6412,418.9075 220.2468,418.9075 221.1728,419.1001 223.7603,420.6045 225.3665,421.5385 226.8929,422.5802 227.1528,422.9179 227.5335,423.4122 224.8765,430.4828 224.31,430.4828 224.2231,430.4828 222.6183,428.632 220.7453,426.3712 217.0124,421.8656 217.0308,421.8686 210.7715,423.6354 208.8101,424.189 208.1879,424.6434 208.5218,425.2717 208.7757,425.7497 209.1485,426.7638 209.3522,427.5228 209.6898,428.7804 209.5385,428.8725 207.6378,428.5616 206.4908,428.3739 204.0899,427.9865 202.3052,427.7022 198.3594,427.0737 192.162,424.6733 182.116,419.8826 174.8709,416.4276 174.4415,416.1092 172.1277,412.5245 168.6408,407.122 163.8483,404.4892 152.7401,401.8737 144.6446,399.9675 135.8565,398.0718 134.0352,397.8373 133.5669,397.777 131.5854,396.5236 129.6314,395.0567 127.6772,393.5897 124.6696,391.8159 122.9489,391.1114 119.8866,389.8575 119.6118,389.8429 110.0455,390.5544 100.3997,391.2718 100.1833,391.2639 93.2966,389.7833 85.7458,388.1599 78.7691,385.8127 72.9498,382.9388 70.9241,381.9385 67.0829,380.525 64.414,379.7965 61.7452,379.0679 58.4991,377.8334 57.2021,377.052 55.9049,376.2707 53.1267,374.9392 51.026,374.0949 46.6976,372.3552 45.967,371.4503 47.4858,369.7099 49.471,367.4351 46.4202,360.1444 41.9188,356.4028 40.1955,354.9704 38.3851,352.7558 37.8939,351.4825 37.5805,350.6698 37.0519,349.6272 36.4168,348.4892 49.9295,272.8197 85.8387,202.3841 140.2171,146.7001 L 140.8682,146.6929 C 149.8338,146.5906 151.2038,147.0157 160.7058,152.8198 169.6805,158.3018 177.7137,160.7471 189.7446,161.6564 192.5514,161.8686 195.1793,162.2156 195.5851,162.4275 197.4875,163.4212 198.2712,166.1368 198.7028,173.2289 199.2658,182.4804 200.322,184.7001 204.9136,186.2798 207.1156,187.0374 208.4092,187.9757 209.4072,189.5451 210.1777,190.7568 211.4898,192.246 212.3253,192.8524 213.8233,193.9396 213.8458,193.9375 213.8458,192.7482 213.8458,191.1081 215.8511,189.6061 217.4858,190.0225 218.5426,190.2918 218.9829,189.9004 219.6544,188.1013 220.3377,186.271 220.2779,185.0642 219.3347,181.7357 218.6946,179.477 218.1715,176.6184 218.1715,175.383 218.1715,173.8429 217.4755,172.2922 215.9537,170.4482 214.7329,168.969 213.8398,167.2964 213.9702,166.7316 214.1051,166.1477 216.3083,164.8191 219.0757,163.6515 224.2043,161.4876 228.5068,158.5201 231.9589,154.7671 235.3082,151.1258 234.9181,148.3856 230.4297,144.0569 222.0456,135.9711 221.4887,133.9878 225.6989,127.1287 227.0637,124.9051 228.0548,122.7775 227.8994,122.4022 227.7439,122.0269 227.2726,120.6456 226.8534,119.3293 226.3464,117.7374 225.6085,116.8332 224.6529,116.6326 222.7945,116.2426 222.8336,114.8063 224.799,111.0106 L 226.3788,107.958 224.799,105.7546 C 223.0082,103.2572 222.8819,102.3969 224.0178,100.3959 225.0192,98.6319 226.7068,97.7815 229.3982,97.8193 Z M 633.4494,206.6195 L 633.8241,208.0517 C 634.03,208.8402 634.205,212.1363 634.2075,215.3737 634.2125,220.0983 633.9615,221.6767 632.9488,223.3828 631.4645,225.8837 630.8872,225.9957 629.1671,224.0989 627.463,222.22 625.721,216.6874 626.2071,214.698 626.4209,213.8226 627.4505,212.6507 628.4958,212.0954 629.5412,211.54 630.3954,210.8438 630.3954,210.5459 630.3954,210.2479 631.0833,209.2417 631.9231,208.3107 L 633.4494,206.6195 Z M 632.3788,226.2618 C 632.4382,226.268 632.4945,226.2819 632.551,226.3023 633.0027,226.4655 633.3777,227.0906 633.9818,228.2887 634.8346,229.9798 635.0242,231.9486 634.9092,237.9254 634.8296,242.0569 634.6427,245.5647 634.4939,245.7175 634.3452,245.8702 633.7213,245.5278 633.1065,244.9594 632.0834,244.0137 631.8589,244.0348 630.4836,245.1836 628.6774,246.6924 627.633,246.7673 626.5803,245.4643 626.1205,244.8952 625.727,242.106 625.6312,238.7601 625.5411,235.6091 625.2608,232.1124 625.0077,230.9897 624.5658,229.0286 624.6404,228.9282 626.9608,228.4811 628.289,228.2251 629.9573,227.5992 630.6659,227.0893 631.4591,226.5187 631.9629,226.2188 632.3788,226.2618 Z M 752.7747,227.2427 C 760.3805,240.7756 767.1586,254.7428 773.0723,269.0678 771.7679,268.6457 770.4412,268.1797 769.2023,267.6644 L 763.2909,265.2064 759.2242,267.2666 C 754.375,269.7231 753.9292,269.7549 750.7043,267.8569 748.8618,266.7724 747.8467,265.5272 746.8517,263.1174 746.1091,261.3188 744.5734,258.8136 743.4359,257.5547 738.8215,252.4471 737.9112,250.6933 738.0671,247.183 738.1597,245.0985 737.7807,242.9126 737.0356,241.2152 735.512,237.7441 736.244,236.9313 741.7042,236.0359 747.3116,235.1164 749.3414,233.7078 751.7026,229.0902 752.0308,228.4483 752.3981,227.8243 752.7747,227.2427 Z M 657.5332,251.8719 C 658.0893,251.8119 658.4315,252.0809 659.019,252.6271 660.1223,253.6528 660.7866,253.6974 665.483,253.0481 668.3614,252.6501 670.8325,252.4405 670.9748,252.5866 671.117,252.7326 670.783,254.2154 670.2326,255.8808 669.6822,257.5462 669.2315,260.1654 669.2315,261.6996 669.2315,264.4161 668.4017,266.0586 667.0267,266.0586 666.6537,266.0586 665.0611,265.3217 663.4909,264.4209 661.9206,263.52 658.9181,261.9511 656.8171,260.9342 650.3593,257.8085 649.8072,255.7061 654.7584,253.0886 656.2069,252.3229 656.9769,251.9319 657.5332,251.8719 Z M 612.3169,258.7974 C 612.9123,258.7945 613.4715,258.9408 613.716,259.2387 613.9225,259.4903 614.2613,260.396 614.4697,261.2496 614.9286,263.1294 615.7144,263.401 617.1548,262.1755 618.3608,261.1497 619.3187,261.1083 619.5752,262.0757 620.016,263.7389 619.7804,264.3906 618.3354,265.4654 616.2727,266.9998 615.7838,267.8616 616.2868,269.0895 616.5273,269.6765 617.1726,270.3181 617.8956,270.691 618.9592,271.2396 619.1296,271.4926 619.3264,272.8192 619.5889,274.5893 619.3849,274.9974 617.5816,276.3029 616.0012,277.447 614.6896,279.6376 614.6896,281.1379 614.6896,282.7116 616.2916,284.2906 618.4511,284.8459 620.2725,285.3143 620.8888,285.996 620.6473,287.2735 620.5188,287.9534 620.6179,288.0431 621.5182,288.0431 622.203,288.0431 623.018,288.4208 624.0152,289.2063 625.3708,290.2741 625.6318,290.3609 627.0925,290.219 627.9701,290.1338 628.9564,289.8188 629.2828,289.5202 630.6309,288.2867 631.8397,288.4763 636.2025,290.6024 638.4506,291.6979 640.6413,292.7659 641.0708,292.9751 641.558,293.2124 642.0946,293.9736 642.5002,295.0005 643.8951,298.5314 645.6465,299.617 649.9494,299.617 652.4243,299.617 652.9136,299.7236 654.932,300.7136 656.1632,301.3175 658.3691,302.5473 659.8335,303.4465 663.5201,305.7104 664.5133,305.7038 666.7547,303.3944 668.9219,301.1615 669.0343,300.559 667.8282,297.6567 666.4525,294.3464 666.7222,293.4195 669.6322,291.4705 672.6146,289.4729 673.8892,289.0079 676.3422,289.0096 680.2223,289.013 681.9232,289.469 683.9621,291.0552 685.0562,291.9063 686.3187,292.5861 687.0582,292.7219 687.7453,292.8481 688.8802,293.275 689.5798,293.6724 690.2794,294.0697 691.2802,294.4954 691.8049,294.6186 692.928,294.882 693.8422,295.6396 694.2123,296.6179 694.5705,297.5647 696.957,297.9698 698.0504,297.2675 698.4636,297.0021 699.4197,296.6827 700.1728,296.5601 701.3413,296.3698 701.718,296.4596 702.7451,297.1793 703.6572,297.8184 704.5835,298.0976 706.5688,298.3265 709.0342,298.6109 710.59,299.1605 713.9529,300.935 714.5889,301.2706 715.7021,301.5455 716.4298,301.5455 717.5689,301.5455 717.8296,301.4096 718.296,300.5762 718.7811,299.7095 720.1961,298.9792 721.4051,298.9732 721.5929,298.9721 722.4509,298.4666 723.3119,297.8477 724.6951,296.8534 725.1063,296.7236 726.8448,296.7236 729.2374,296.7236 732.367,297.9597 733.0007,299.157 733.4005,299.9124 733.5377,299.9389 737.4132,300.0091 739.6136,300.0486 742.0243,300.0638 742.7676,300.0395 743.511,300.0152 744.1146,300.0903 744.1116,300.2073 744.1083,300.3244 744.5604,304.6969 745.1142,309.925 745.7203,315.6477 746.0312,319.9093 745.8968,320.6337 745.6834,321.7841 745.6244,321.8348 744.534,321.7405 743.5206,321.6528 743.2377,321.4081 742.0254,319.5516 741.2747,318.4021 740.1993,316.8124 739.6339,316.0187 739.0687,315.2249 738.466,314.0104 738.2928,313.3205 738.1195,312.6306 737.5056,311.2714 736.9285,310.3026 736.3515,309.3338 735.8273,308.3882 735.7654,308.2005 735.7035,308.0129 735.4129,307.9527 735.1172,308.0674 733.6004,308.6559 735.2499,314.9527 737.3452,316.5684 737.9497,317.0346 738.6616,317.955 738.9236,318.617 739.1855,319.2789 739.5915,319.8973 739.8263,319.9885 740.0612,320.0797 740.8373,321.0211 741.5509,322.0834 742.6675,323.7458 742.8471,324.2547 742.8471,325.7306 742.8471,326.7938 743.0495,327.7447 743.3766,328.2378 743.6668,328.675 744.8826,330.4271 746.0791,332.128 747.2756,333.8289 748.2544,335.4224 748.255,335.6667 748.255,335.911 748.6838,336.7589 749.2069,337.5547 749.7302,338.3505 750.1598,339.1614 750.1604,339.3559 750.1604,339.5504 750.5905,340.309 751.1152,341.0414 752.1984,342.5533 752.3731,344.2895 751.5941,345.7997 750.7525,347.4312 751.0421,349.4527 752.1178,349.4527 752.846,349.4527 754.1883,350.8542 754.6597,352.106 754.9157,352.7856 755.2047,352.9885 755.9025,352.9885 757.7648,352.9885 758.3454,353.5406 758.5703,355.5174 758.8852,358.2872 759.2382,358.9481 760.5913,359.2919 761.7069,359.5752 761.7646,359.6519 761.6967,360.8052 761.6572,361.4738 761.4077,362.3357 761.1411,362.7207 760.3707,363.8326 760.5213,366.2041 761.4507,367.5889 761.9781,368.3747 762.2464,369.2136 762.2464,370.086 762.2464,372.092 762.9,373.907 763.8349,374.4942 765.5721,375.5855 767.6528,377.5848 767.6528,378.1646 767.6528,378.4981 767.935,378.8463 768.2837,378.9386 769.4139,379.2375 770.1543,380.9712 770.5116,384.1598 771.1131,389.529 771.7194,390.9188 773.9346,392.0156 774.5406,392.3158 775.4384,393.2738 776.1061,394.3289 777.2755,396.1773 778.1734,396.7729 780.416,397.1978 781.0791,397.3236 781.9968,397.8486 782.573,398.4319 784.0609,399.9382 785.9534,402.2425 786.3793,403.0658 786.6687,403.6248 787.0338,403.7906 787.978,403.7906 789.3134,403.7906 789.712,404.1218 790.0382,405.5006 790.1564,406.0001 791.0817,407.2371 792.094,408.248 794.2682,410.419 794.9973,412.3321 794.1469,413.6443 793.5677,414.5381 793.8135,414.9687 795.5213,416.0358 796.1301,416.4161 796.8186,417.2291 797.0895,417.8847 798.0465,420.2004 800.1201,421.5314 802.2429,421.2874 802.0183,438.8164 800.6036,456.2117 798.0415,473.364 793.8961,477.1587 788.3152,483.0518 787.6612,484.6471 787.2238,485.7143 786.6176,486.5247 785.9077,486.9952 785.3113,487.3904 784.8256,487.9106 784.8256,488.1468 784.8256,488.7443 783.878,489.5097 782.8363,489.7599 782.1925,489.9146 781.9611,490.1714 781.9611,490.722 781.9611,491.6077 781.0516,492.5318 780.1801,492.5318 779.1543,492.5318 778.1871,493.4455 777.7887,494.7902 777.5818,495.4883 777.1495,496.3016 776.8266,496.5972 776.5036,496.8927 776.2377,497.3262 776.2377,497.5636 776.2377,497.8009 775.7599,498.5376 775.1787,499.2013 773.4912,501.1282 771.7862,504.5126 771.7862,505.93 771.7862,506.8124 771.4653,507.6499 770.6722,508.8409 770.06,509.7599 769.5596,510.7924 769.5596,511.1325 769.5596,511.7366 771.2541,513.4957 772.8539,514.5555 774.1091,515.3871 774.3207,517.9889 773.3168,520.2397 772.5918,521.8652 772.5717,522.0617 772.9537,524.1401 773.1749,525.3435 773.6376,526.6869 773.9794,527.1261 774.3696,527.6277 774.6832,528.7063 774.8229,530.0254 775.0398,532.0737 775.0824,532.1569 776.5923,533.2965 778.3618,534.6323 778.3602,534.6265 778.5757,540.1236 778.6782,542.7392 778.8856,544.1769 779.2788,545.0107 779.5469,545.5791 779.6645,545.9641 779.6694,546.4892 776.3182,555.8443 772.6018,565.0636 768.5397,574.1306 768.1971,574.1593 767.8385,574.1789 767.4358,574.1826 765.527,574.2003 765.4427,574.2382 764.2588,575.5975 763.5893,576.3662 759.9625,579.7585 756.2019,583.135 752.4416,586.5115 748.9489,589.8116 748.4387,590.4685 747.1939,592.0715 747.2177,593.2733 748.5241,594.5078 749.0826,595.0355 749.7677,595.8195 750.0446,596.2468 750.3215,596.674 750.6743,596.943 750.8302,596.8457 750.9878,596.7472 751.1152,597.9561 751.1152,599.5743 751.1152,600.9609 751.2996,604.3783 751.5261,607.634 749.2053,611.7006 746.8092,615.7269 744.3387,619.7113 742.3477,620.3412 739.6084,621.437 738.3261,622.1968 737.5757,622.6414 736.6983,623.3005 736.3744,623.6624 735.7324,624.3795 735.6716,624.2838 738.1496,626.4473 738.6524,626.8864 738.7421,627.2468 738.5908,628.1719 738.5623,628.3461 738.5428,628.5912 738.5185,628.8113 727.7119,645.1977 715.6207,660.8199 702.3024,675.5134 701.9537,675.5987 701.6142,675.6916 701.3157,675.7926 700.2828,676.1419 699.0393,676.4305 698.5525,676.4349 698.0657,676.4394 696.9632,676.8044 696.1002,677.2465 694.196,678.2222 691.5855,678.3194 689.3238,677.4997 687.8807,676.977 687.7146,676.9785 686.2639,677.4983 684.8904,677.9915 684.5905,678.0011 683.4283,677.5866 681.728,676.98 679.9868,677.2664 679.3442,678.2578 678.9855,678.8114 678.5566,679.0159 677.7571,679.0159 675.5904,679.0159 672.061,679.7462 670.59,680.4988 669.4586,681.0777 668.5722,681.267 666.9847,681.267 664.9579,681.267 664.8419,681.2224 663.8728,680.0909 663.3186,679.4438 661.721,677.6015 660.321,675.9937 656.8819,672.0441 656.3745,671.2701 656.1501,669.6151 655.9494,668.1341 656.4448,666.685 657.4392,665.8506 657.7687,665.5741 657.9383,664.8935 657.9383,663.8368 657.9383,662.4584 657.7181,661.9045 656.331,659.7772 655.4474,658.4223 653.4497,654.7586 651.888,651.6365 649.7233,647.3085 648.9978,645.5328 648.8383,644.1612 648.7233,643.1718 648.505,642.3629 648.3566,642.3629 648.2081,642.3629 647.1799,641.4537 646.0693,640.3418 644.6906,638.9615 643.8639,637.813 643.4637,636.7235 643.1414,635.846 642.5832,634.6973 642.221,634.17 640.8185,632.129 640.0443,628.6909 639.8367,623.5539 639.6603,619.1894 639.5661,618.578 638.8139,617.1232 638.3567,616.239 637.8815,614.9088 637.7592,614.1675 637.637,613.4261 637.3308,612.6502 637.0822,612.4416 636.5144,611.9652 636.5229,610.1131 637.0995,608.4775 637.6306,606.9709 637.4168,603.0168 636.7451,601.9296 636.4989,601.531 635.7505,600.8569 635.0828,600.4308 634.4151,600.0046 633.7254,599.2441 633.5492,598.7424 633.373,598.2408 633.0508,597.3244 632.8331,596.7054 632.6153,596.0865 632.2424,594.7138 632.0027,593.6528 630.7952,588.307 627.4163,583.0036 623.425,580.1866 L 622.57,579.5819 622.7002,574.077 C 622.8057,569.6185 622.9365,568.3715 623.3903,567.5074 623.6985,566.9207 623.892,566.2698 623.8199,566.0607 623.7478,565.8516 624.1135,565.0479 624.6359,564.274 625.1583,563.5 625.9382,561.9066 626.3662,560.7353 627.0904,558.7534 627.1293,558.3345 626.9362,554.7009 626.744,551.0849 626.7751,550.7645 627.3399,550.3607 627.6753,550.1209 628.5576,549.2006 629.3002,548.3165 630.0428,547.4323 631.4932,545.8037 632.5264,544.6982 L 634.4057,542.6901 634.4057,540.2929 C 634.4057,538.1934 634.3087,537.7862 633.6143,536.9987 633.1784,536.5044 632.5318,535.7695 632.1806,535.3653 631.8294,534.9611 631.5455,534.3645 631.5455,534.0387 631.5455,532.8699 630.5777,531.1227 629.6633,530.6446 628.7157,530.1492 627.9981,528.3462 628.5884,527.9407 632.0949,525.5312 632.4348,524.8937 631.2518,522.9523 630.9158,522.401 630.336,521.1694 629.9642,520.2137 629.5925,519.2579 628.6375,517.746 627.8433,516.8529 627.0492,515.9599 626.0528,514.5345 625.6269,513.6846 624.9271,512.2885 624.8726,511.8909 625.0627,509.586 625.3258,506.3968 624.8847,505.3308 622.3226,502.9324 620.9566,501.6538 620.3985,500.8598 620.0975,499.7727 619.6707,498.2315 618.7742,497.4578 616.5964,496.7491 615.2392,496.3075 609.6557,491.3417 608.8853,489.8916 607.8884,488.015 608.4966,479.7958 609.7779,477.8345 610.2673,477.0853 610.3862,476.1164 610.4926,471.9564 610.6158,467.1431 610.648,466.9415 611.4301,466.1 612.181,465.2921 612.226,465.0684 612.058,463.0416 611.8221,460.1968 611.1033,458.1269 610.0745,457.3256 609.6204,456.9719 608.632,456.1383 607.8784,455.4752 L 606.5083,454.2715 598.2532,454.2715 589.9996,454.2715 588.7048,453.1532 C 587.5996,452.1967 587.3308,451.6981 586.8588,449.7505 585.943,445.9724 584.3142,444.6366 580.593,444.6102 579.4942,444.6025 578.023,444.3637 577.3234,444.0778 575.3584,443.275 573.9746,443.3776 572.9658,444.399 572.2296,445.1442 571.8406,445.2683 570.2633,445.2714 567.4256,445.277 566.0797,445.5831 565.8623,446.2754 565.5789,447.1781 564.2298,447.7464 561.7391,448.0086 559.0883,448.2876 558.5443,448.5288 557.2904,449.9805 556.4441,450.9603 556.0656,451.1248 553.9499,451.4388 550.7159,451.9186 546.3275,451.9135 545.4475,451.4287 545.0557,451.2128 544.5139,450.6085 544.2452,450.0832 L 543.7577,449.1284 539.999,449.1284 C 536.672,449.1284 535.9197,449.2368 533.4106,450.0876 531.8523,450.616 530.3602,451.0494 530.0947,451.0511 529.8292,451.0534 529.0846,451.4191 528.4411,451.8613 527.7976,452.3033 526.884,452.6642 526.4113,452.6642 525.9385,452.6642 524.5605,453.2429 523.3471,453.9503 520.4711,455.6269 519.043,455.6751 516.8585,454.1717 516.0081,453.5864 513.9244,452.3554 512.2275,451.4359 510.5308,450.5165 507.5256,448.6527 505.5494,447.2939 503.5732,445.9353 500.8818,444.0996 499.57,443.2156 493.5283,439.144 489.6654,435.1831 487.5101,430.8489 486.7796,429.38 485.6343,427.5724 484.9653,426.8342 484.2962,426.0961 483.3162,424.6242 482.7865,423.5631 482.1765,422.3414 481.0155,420.8539 479.6181,419.5021 478.4045,418.3284 476.963,416.5904 476.4165,415.6423 474.946,413.091 474.6802,412.8391 473.2178,412.6027 471.5974,412.3407 470.3144,411.3874 470.3055,410.4384 470.3016,410.0533 470.0148,409.1069 469.6689,408.3363 469.0782,407.02 469.0705,406.8259 469.5185,405.0782 469.7807,404.0549 469.9945,403.0663 469.9945,402.885 469.9945,402.7037 469.2995,401.7849 468.4494,400.8422 467.5993,399.8995 466.8074,398.8061 466.6858,398.4146 466.5201,397.8816 465.9875,397.5719 464.5721,397.1704 463.5324,396.8754 462.6812,396.4673 462.6812,396.2647 462.6812,395.3977 463.7166,394.509 465.1421,394.1539 465.9757,393.9463 467.5143,393.3014 468.5636,392.7202 L 470.4719,391.6626 470.4748,390.0929 C 470.4765,389.2277 470.6304,388.2288 470.8176,387.8751 471.0048,387.5214 471.179,386.5441 471.2054,385.6992 471.2319,384.8544 471.3959,383.8971 471.5671,383.5739 471.7381,383.2508 472.0253,381.988 472.2065,380.7687 472.3877,379.5495 472.7719,377.8205 473.0601,376.9262 L 473.5838,375.3001 472.7071,373.9604 C 471.9036,372.7327 471.8325,372.3818 471.8738,369.7721 471.9524,364.7933 471.1304,362.6368 469.1467,362.6368 468.2328,362.6368 468.0699,361.8883 467.9791,357.1725 467.9208,354.1388 468.1646,353.5891 469.9293,352.7599 471.2787,352.126 471.5818,351.7765 472.6666,349.6162 473.4224,348.111 474.0425,346.2732 474.2971,344.7913 474.7606,342.0923 475.418,340.9724 477.312,339.6453 478.8209,338.5881 480.0152,336.6759 480.3256,334.8233 480.6095,333.1288 482.6273,330.1155 483.8397,329.5731 484.5861,329.2392 485.2712,328.2653 486.9487,325.1606 488.1325,322.9699 489.5613,320.6843 490.1229,320.0825 491.0136,319.1281 491.407,318.9634 493.2102,318.7733 495.9131,318.4883 497.3428,317.8397 498.1971,316.5178 498.5796,315.9259 499.4672,315.03 500.169,314.5242 500.8708,314.0184 501.6032,313.3138 501.7937,312.9588 501.9842,312.6038 502.6612,311.9514 503.2983,311.5107 504.9181,310.39 507.8367,306.7266 507.8367,305.8163 507.8367,305.4048 507.4567,304.4859 506.9904,303.7735 505.3897,301.328 505.4925,298.8378 507.2985,296.2679 507.6608,295.7524 508.2511,294.5182 508.6121,293.5263 509.3015,291.6322 511.5251,288.3161 513.7972,285.7877 515.1154,284.3207 516.6887,283.5409 518.3371,283.5409 519.4369,283.5409 522.9431,281.4322 524.004,280.131 524.6213,279.3737 525.069,278.3125 525.319,277.0277 525.5279,275.9546 525.8931,274.7744 526.1307,274.4048 526.3683,274.0352 526.6637,272.9642 526.786,272.022 526.9693,270.6099 527.144,270.2555 527.7799,270.0111 529.2601,269.4421 530.3096,269.6759 531.7367,270.8907 533.7458,272.6008 535.8525,273.8959 536.6021,273.884 536.9614,273.8783 537.5328,273.6618 537.8723,273.4022 538.6471,272.8098 543.7873,272.7577 547.3456,273.3053 550.2395,273.7506 551.2617,273.4457 551.7625,271.9931 552.351,270.2863 555.3885,268.7825 558.2887,268.7597 558.9723,268.754 559.7574,268.3589 560.7756,267.5082 562.4227,266.1321 565.9734,264.8925 568.2711,264.8925 569.0071,264.8925 571.1209,264.6646 572.9658,264.3876 576.0539,263.924 577.1651,263.5292 579.5137,262.0598 579.9948,261.7588 581.0332,261.6836 583.1624,261.7951 585.6046,261.923 586.2609,262.0696 586.8385,262.6183 587.4324,263.1825 587.7914,263.2579 589.1142,263.0827 590.8331,262.8549 592.0912,262.3125 592.7296,261.5347 593.2252,260.9308 594.0783,260.8978 595.5117,261.4218 596.3967,261.7453 596.8181,261.7199 598.0304,261.2656 599.3276,260.7795 599.5623,260.7711 600.1644,261.1976 600.5361,261.4607 601.2447,261.675 601.7413,261.675 602.7097,261.675 605.2866,260.9548 606.9886,260.2066 607.563,259.9541 608.4935,259.7438 609.056,259.7378 609.6184,259.7322 610.3571,259.5143 610.6966,259.2546 611.0901,258.9535 611.7216,258.8004 612.3169,258.7974 L 612.3169,258.7974 Z M 722.7477,274.046 C 722.8625,274.0338 722.9845,274.0356 723.1166,274.0532 723.6448,274.1239 724.3417,274.4394 725.4733,275.0312 729.6193,277.1996 736.5028,277.397 741.9241,275.5028 744.3123,274.6684 746.2643,274.0819 746.2643,274.1993 746.2643,275.0188 737.1185,279.6983 734.8062,280.0615 733.2305,280.309 731.3688,280.6212 730.6685,280.7588 729.9681,280.8966 728.6779,280.6124 727.8025,280.1266 726.9271,279.6408 725.0669,279.0002 723.6663,278.7016 720.823,278.0953 719.9279,276.1178 721.7827,274.5364 722.1176,274.2509 722.4032,274.0827 722.7477,274.046 Z M 776.8931,278.6958 C 777.4656,280.1953 778.0277,281.6986 778.5815,283.2053 778.1479,283.0341 777.7126,282.8286 777.2808,282.5542 775.2825,281.2841 775.1618,279.2331 776.8931,278.6958 Z M 318.8671,402.0314 C 321.3789,402.1312 322.3314,405.1258 319.4907,407.934 316.633,410.759 315.3541,410.6381 316.0272,407.6085 316.4537,405.689 316.2524,405.1305 315.0463,404.8872 313.7682,404.6294 313.9065,404.3328 315.9187,403.0093 317.0195,402.2853 318.0298,401.9981 318.8671,402.0314 Z M 261.8788,403.5157 C 262.3406,403.5518 262.8887,404.0036 263.4977,404.9104 264.4881,406.3849 265.5196,406.7101 269.2152,406.7101 273.479,406.7101 273.7218,406.8238 273.7218,408.8079 273.7218,411.7464 275.8857,412.2458 278.9387,410.0144 281.3675,408.2393 281.8345,408.1841 286.7279,409.0755 294.9171,410.5672 296.1844,410.3671 299.0888,407.1239 301.1585,404.8127 302.2929,404.2302 304.6747,404.2535 306.3183,404.2696 308.6062,404.8161 309.7585,405.4673 L 311.8534,406.6522 309.0684,406.6797 C 306.9027,406.7025 306.3442,407.0244 306.5583,408.1236 306.8552,409.6471 309.483,410.6377 313.5779,410.7696 314.9879,410.815 316.8393,411.3567 317.6924,411.9733 319.15,413.027 319.1601,413.2115 317.853,415.0563 315.9184,417.7869 316.1121,418.4006 318.6125,417.4608 319.7948,417.0164 322.3395,416.652 324.2678,416.652 327.5301,416.652 328.1619,417.0601 333.3576,422.533 L 338.9406,428.414 345.9297,429.6423 C 350.2351,430.3979 354.9401,430.6747 358.185,430.3627 364.1116,429.7931 367.7438,430.9939 374.1136,435.6332 376.8061,437.5942 378.4088,439.7562 380.485,444.2297 382.3434,448.2338 383.9211,450.4786 385.2679,451.0337 389.0172,452.5791 388.2037,454.8684 381.0608,462.8694 L 374.3407,470.3982 382.143,470.2434 C 387.7657,470.1324 390.3387,470.4117 391.3557,471.2431 392.9756,472.5675 392.9047,472.6124 394.7223,469.0788 396.5139,465.5955 398.8853,464.4226 403.1134,464.9281 408.0296,465.5158 415.6158,468.5434 418.2766,470.9813 420.1879,472.7324 420.4681,473.5173 420.0228,475.864 419.3155,479.5913 420.5129,480.0992 423.7207,477.4308 426.6105,475.0269 426.6184,475.0254 439.7736,476.1331 449.6556,476.9652 451.7301,477.8517 459.2423,484.4475 463.3762,488.0769 469.0113,491.1627 471.5671,491.1979 475.4742,491.2518 478.6604,499.3699 478.0499,507.7124 477.622,513.5601 475.7113,516.6242 469.3405,521.6676 466.3725,524.0172 463.9636,526.9154 462.1184,530.3625 460.3662,533.636 458.7366,535.6413 457.6755,535.8254 456.7536,535.9853 455.622,536.472 455.1611,536.909 454.6765,537.3684 454.322,542.8649 454.322,549.9397 454.322,561.9357 454.2784,562.2394 452.0188,565.4718 450.7512,567.2852 449.7141,569.8346 449.7141,571.1372 449.7141,573.6447 441.057,589.6654 437.8813,593.035 436.1694,594.8516 435.6334,594.9468 429.9575,594.4383 425.9951,594.0834 423.677,594.1985 423.3199,594.7697 423.0181,595.2524 420.2363,596.9091 417.138,598.4516 410.0554,601.9776 403.2224,607.2764 401.493,610.5825 400.4502,612.576 400.2816,614.4917 400.7133,619.4842 L 401.263,625.8455 398.5952,628.331 C 397.1279,629.698 394.8963,633.0535 393.6358,635.7875 392.3753,638.5215 389.7818,642.2218 387.8735,644.0093 385.9651,645.7966 383.4769,649.1946 382.344,651.5598 380.9784,654.4113 378.2887,657.6415 374.361,661.1502 371.103,664.0606 368.4353,666.9382 368.4308,667.5447 368.4194,669.0962 358.4295,682.5191 356.2218,683.9493 355.2183,684.5992 350.67,685.9634 346.1149,686.9816 335.4151,689.3732 335.2455,689.4875 337.3853,692.9103 339.3624,696.0729 339.5648,699.0372 337.951,701.2189 337.0769,702.4008 335.6653,702.7734 331.8747,702.8262 327.5988,702.8859 326.9057,703.1185 326.6969,704.558 326.5643,705.4722 327.398,708.0619 328.5501,710.3117 329.884,712.9163 330.3666,714.7338 329.8768,715.3174 329.4536,715.8214 328.8479,717.8352 328.5313,719.7921 328.0939,722.4967 327.0659,724.2183 324.2446,726.9679 320.0004,731.1044 320.0863,731.7113 325.4715,735.5673 330.0202,738.8243 330.0307,740.3387 325.5684,749.3243 321.2618,757.9962 321.3973,761.0645 326.273,765.3252 L 329.4529,768.1043 322.9715,767.7962 C 316.975,767.5108 316.663,767.5738 318.7818,768.6527 320.0411,769.2938 322.6306,771.2272 324.5369,772.948 328.754,776.7552 332.41,778.7031 335.3382,778.7031 338.9881,778.7031 337.4965,781.2937 332.3796,783.8405 327.1186,786.4592 324.9133,786.7016 323.0598,784.8691 322.3426,784.1602 319.6332,783.3631 317.037,783.0983 311.3753,782.5206 311.5017,781.6129 317.3524,780.8458 320.9716,780.371 321.4759,780.0982 320.6206,779.0793 320.0539,778.4045 318.1801,777.8742 316.3614,777.8742 312.4003,777.8742 307.9498,774.2323 302.8648,766.8298 298.8623,761.0032 296.4101,751.6342 297.9907,748.2045 298.8899,746.2535 298.8285,746.1903 296.4341,746.6638 294.1969,747.1061 293.9132,746.926 293.678,744.9103 293.4757,743.1754 292.7556,742.452 290.5198,741.7376 288.927,741.2287 287.4891,740.4114 287.324,739.922 286.8677,738.5686 291.6001,736.4223 293.0458,737.3265 295.5935,738.9201 296.3874,738.2314 295.8481,734.8975 295.5263,732.9078 295.6836,731.4702 296.259,731.1186 297.5976,730.3007 297.4016,727.5943 295.9639,727.0489 295.0465,726.7008 294.6773,724.7586 294.4955,719.2959 294.2958,713.2998 294.0309,712.0678 292.9966,712.3356 288.5315,713.4924 288.4186,713.3272 287.9012,704.9674 287.5677,699.579 286.8716,695.9641 285.6978,693.5064 284.1025,690.1656 284.0697,689.6477 285.2074,686.0499 286.0758,683.3035 286.3106,679.8537 286.0219,674.1404 285.7052,667.8727 285.8766,665.885 286.793,665.133 288.4302,663.7899 288.2599,659.6429 286.2577,652.0068 284.7871,646.398 284.5547,643.0129 284.5925,627.7957 284.6167,618.0657 284.6382,607.5844 284.6389,604.5033 284.6394,601.4222 283.7147,594.8973 282.5845,590.0041 281.4542,585.111 280.4121,579.8127 280.2683,578.2291 279.9281,574.4831 277.023,572.839 261.8962,567.8358 249.8712,563.8586 249.1762,563.4007 244.3646,556.2532 242.8309,553.9749 239.6104,549.9898 237.2077,547.3978 234.8049,544.8057 231.4174,540.3318 229.6774,537.4558 223.8094,527.7563 221.2098,524.8022 215.7425,521.6199 212.8299,519.9245 209.9358,518.2166 209.3117,517.8236 207.8877,516.9267 207.1862,507.0865 208.3337,504.1028 208.7877,502.9225 210.0585,501.6191 211.1563,501.2065 213.4243,500.354 214.219,498.8024 214.219,495.2227 214.219,493.6015 213.8546,492.8552 213.1716,493.0802 212.5954,493.27 212.1242,493.8416 212.1242,494.3504 212.1242,494.8593 211.6248,495.7602 211.016,496.3526 210.1053,497.2387 209.6105,497.0678 208.2223,495.3877 206.8966,493.7832 206.643,492.6277 207.0432,490.0015 207.3234,488.1629 207.534,485.1446 207.5105,483.293 207.4633,479.5565 207.896,478.8971 218.6851,466.2678 224.149,459.872 225.1661,458.2323 224.7614,456.4676 224.494,455.3022 223.7302,451.4785 223.0644,447.9695 222.3986,444.4606 221.2392,440.6601 220.4877,439.5264 219.1563,437.5175 219.225,437.3324 223.1656,432.2131 225.3896,429.3241 228.7149,424.2175 230.5556,420.8649 232.3962,417.5124 234.8472,414.1934 236.0025,413.4909 237.1579,412.7885 241.2092,410.1891 245.0055,407.7127 249.044,405.0785 252.4344,403.4092 253.1767,403.6908 254.1303,404.0525 254.4455,405.5157 254.4455,409.5833 254.4455,414.6464 254.5663,414.9944 256.3306,414.9825 259.831,414.959 260.617,413.7939 260.4176,408.9236 260.2723,405.3732 260.8629,403.4363 261.8788,403.5157 Z" />
</g>
</svg>