<?xml version="1.0" encoding="utf-8"?>
<!-- Created by sK1 2.0rc4 (https://sk1project.net/) -->
<svg xmlns="http://www.w3.org/2000/svg" height="832.677165354pt" viewBox="0 0 832.677165354 832.677165354" width="832.677165354pt" version="1.1" xmlns:xlink="http://www.w3.org/1999/xlink" id="0d5f6e88-b280-11ea-ae0d-a0f3c11e789f">

<g>
	<g>
		<g>
			<path style="fill-rule:evenodd;fill:#2d2c2b;" d="M 643.2892,639.3976 C 696.1755,631.1612 743.0508,619.569 777.5125,604.1957 L 760.1681,566.4547 C 732.9061,578.6162 694.6114,588.7526 648.9485,596.4891 654.6295,546.1218 657.6052,491.6413 657.9435,436.6915 L 657.9435,436.6915 803.6106,436.6915 803.6106,395.262 657.7004,395.262 C 656.7166,340.2142 653.1004,285.4093 646.8644,234.4897 L 646.8645,234.4897 C 665.2416,237.4779 682.3472,240.8682 697.8833,244.6464 721.5089,250.3918 740.9234,256.8958 755.496,263.9292 L 774.3824,226.8075 C 756.09,217.9788 733.4851,210.603 708.1875,204.4509 687.6783,199.4634 665.0135,195.1884 640.8335,191.6003 632.8623,141.7808 622.0275,96.6231 608.1496,60.444 L 569.5634,75.8149 C 580.9767,105.5687 590.488,143.2404 597.8989,186.1041 542.6026,180.0608 481.3658,177.0606 420.0664,177.0587 349.2231,177.0565 277.8847,181.0587 215.1101,189.1272 152.7877,197.1376 97.2471,209.3539 59.007,226.5422 L 76.8304,264.1592 C 109.1693,249.6234 159.6132,238.0489 220.6751,230.2005 281.2847,222.4103 350.7304,218.4859 420.065,218.4881 484.3048,218.4901 548.096,221.8629 604.3341,228.5501 611.2078,280.6678 615.2093,337.7177 616.264,395.262 L 32.9545,395.262 32.9545,436.6915 616.5132,436.6915 C 616.1493,494.3299 612.8102,551.1632 606.4889,602.7274 548.8653,610.0091 484.0667,613.7692 418.9642,613.921 350.3038,614.0811 281.6699,610.227 221.1257,602.3775 160.2433,594.4842 108.8625,582.7128 73.9515,567.6462 L 57.0797,605.5946 C 97.3403,622.9699 153.28,635.368 215.6396,643.4528 278.3373,651.5815 348.8667,655.514 419.0637,655.3503 481.3866,655.205 543.735,651.8301 600.3929,645.2114 593.1594,688.7335 583.5948,726.3206 571.9082,755.0488 L 610.1794,771.2166 C 624.6485,735.6483 635.5651,690.0811 643.2892,639.3976 L 643.2892,639.3976 Z" />
			<path style="fill-rule:evenodd;fill:#2d2c2b;" d="M 438.9452,30.5947 L 397.5158,30.5947 397.5158,801.2508 438.9452,801.2508 438.9452,30.5947 Z M 266.704,77.1521 L 227.6985,63.189 C 193.9445,157.4794 177.8553,289.2545 178.1823,418.8983 178.5092,548.5099 195.2514,678.879 229.0683,770.3 L 267.9246,755.9269 C 236.4723,670.8986 219.9323,545.9595 219.6116,418.7938 219.2909,291.6602 235.1888,165.1885 266.704,77.1521 Z" />
		</g>
		<path style="fill-rule:evenodd;fill:#2d2c2b;" d="M 829.7455,416.3387 C 829.7455,188.0578 644.6209,2.9333 416.3401,2.9333 188.0592,2.9333 2.9347,188.0578 2.9347,416.3387 2.9347,644.6195 188.0592,829.744 416.3401,829.744 644.6209,829.744 829.7455,644.6195 829.7455,416.3387 Z M 787.3621,416.3387 C 787.3621,621.2118 621.2132,787.3606 416.3401,787.3606 211.4669,787.3606 45.3181,621.2118 45.3181,416.3387 45.3181,211.4655 211.4669,45.3167 416.3401,45.3167 621.2132,45.3167 787.3621,211.4655 787.3621,416.3387 Z" />
	</g>
</g>
</svg>