<?xml version="1.0" encoding="utf-8"?>
<!-- Created by sK1 2.0rc4 (https://sk1project.net/) -->
<svg xmlns="http://www.w3.org/2000/svg" height="832.677165354pt" viewBox="0 0 832.677165354 832.677165354" width="832.677165354pt" version="1.1" xmlns:xlink="http://www.w3.org/1999/xlink" id="30a435f8-b1d7-11ea-bb2a-a0f3c11e789f">

<g>
	<g>
		<path style="fill-rule:evenodd;fill:#000000;" d="M 295.6645,78.6199 C 290.5452,80.4913 285.4592,82.4561 280.4312,84.5618 279.0267,85.15 277.6585,85.8232 276.2616,86.4295 276.4383,86.6585 276.9111,87.0791 277.029,87.2636 279.6242,91.3243 280.1892,98.751 277.9789,99.7438 277.4162,99.9965 276.9565,100.5239 276.9565,100.9139 276.9565,101.304 275.5349,102.3678 273.7993,103.277 269.5112,105.5236 269.3003,106.567 272.507,109.641 273.9208,110.9963 275.0767,112.2228 275.0767,112.3655 275.0767,112.5083 273.9976,112.5074 272.6795,112.3655 270.1183,112.0898 265.0577,113.7174 265.0577,114.8171 265.0577,115.1307 264.4966,114.9819 263.8104,114.4834 262.4712,113.5108 256.6847,112.5569 254.8814,113.0125 254.2709,113.1667 253.7864,113.7844 253.7864,114.4051 253.7864,115.1154 253.09,115.8495 251.8667,116.4295 245.9729,119.2238 249.5377,123.7667 257.6711,123.8272 262.9096,123.8661 270.9346,123.2115 271.7521,122.6798 272.1621,122.413 272.3431,121.8737 272.1545,121.4792 271.9125,120.973 272.2833,120.7615 273.4169,120.7615 274.5441,120.7615 275.5439,121.3238 276.7715,122.6469 277.7333,123.6835 280.1406,125.7974 282.121,127.3453 284.1014,128.8932 285.7231,130.5212 285.7231,130.9645 285.7231,132.2996 286.9667,134.0242 288.6503,135.0235 294.5091,138.5009 306.7038,143.314 312.9427,144.6124 316.3424,145.3198 318.2846,144.9328 318.2846,143.5458 318.2846,142.0094 315.6581,139.3495 309.7105,134.8693 305.2633,131.5193 303.83,130.1413 304.1336,129.5062 304.5041,128.7314 304.6745,128.7543 305.9734,129.7337 306.7616,130.3279 307.7495,130.8129 308.1682,130.8129 308.5869,130.8129 310.7304,132.0002 312.9302,133.4514 319.6094,137.8578 324.9411,140.7186 325.5563,140.2248 326.2627,139.6579 324.7898,138.2891 321.7018,136.6435 316.9778,134.1261 310.1063,128.8119 306.4634,124.8558 294.1935,111.5309 290.5058,94.4454 295.6645,78.6199 Z" />
		<path style="fill-rule:evenodd;fill:#000000;" d="M 773.7399,434.8461 C 774.0054,429.1734 774.1599,423.4836 774.1599,417.7787 774.1599,416.7833 774.0955,415.7958 774.0875,414.8014 773.0718,415.3412 771.5384,415.614 768.1356,415.6152 764.0656,415.6165 763.0911,415.8065 762.0362,416.8056 761.4962,417.3172 760.9322,417.4271 757.9716,417.6017 754.3755,417.8139 753.9646,417.913 753.9646,418.5546 753.9646,418.7775 753.4696,419.0796 752.8172,419.2572 750.7839,419.8108 748.6874,418.6282 747.7702,416.4088 747.5349,415.8395 746.9365,415.1343 746.4079,414.8039 744.9248,413.8772 744.71,413.5026 745.213,412.7264 745.9516,411.5869 745.3188,409.9261 743.4307,408.0407 742.5516,407.1628 741.7485,406.0885 741.6459,405.6548 741.3626,404.4574 741.0158,404.1687 739.8561,404.1687 739.0361,404.1687 738.72,404.0249 738.4687,403.5394 738.0988,402.8245 736.4562,400.8239 735.1641,399.5158 734.6637,399.0093 733.8652,398.5534 733.2893,398.4442 731.3418,398.0751 730.5627,397.5573 729.5472,395.9522 728.9673,395.0358 728.1862,394.2036 727.6599,393.9429 725.7361,392.9904 725.2101,391.7842 724.6877,387.1215 724.3774,384.3524 723.7345,382.847 722.7529,382.5874 722.4501,382.5073 722.2054,382.2048 722.2054,381.9151 722.2054,381.4116 720.3995,379.6758 718.8908,378.7281 718.0789,378.2181 717.5109,376.6412 717.5109,374.8991 717.5109,374.1415 717.2766,373.413 716.8185,372.7306 716.0114,371.528 715.882,369.4679 716.551,368.5023 716.7826,368.168 716.9992,367.4199 717.0335,366.8393 717.0925,365.8378 717.0424,365.7711 716.0736,365.5251 714.8986,365.2266 714.5923,364.6525 714.3188,362.247 714.1235,360.5304 713.6188,360.0507 712.0015,360.0507 711.3955,360.0507 711.1439,359.8751 710.9216,359.2849 710.5122,358.1978 709.3468,356.98 708.7144,356.98 707.7801,356.98 707.5285,355.225 708.2594,353.8081 708.9359,352.4966 708.7852,350.9889 707.8445,349.6758 707.3888,349.0398 707.0145,348.3814 707.0145,348.2125 707.0139,348.0436 706.6415,347.3391 706.1871,346.648 705.7328,345.957 705.3597,345.2199 705.3597,345.0078 705.359,344.7956 704.509,343.4116 703.4699,341.9345 702.4308,340.4574 701.3746,338.9376 701.1227,338.5579 700.8385,338.1298 700.6627,337.3027 700.6627,336.3793 700.6627,335.0977 700.5076,334.6562 699.5378,333.2125 698.9182,332.29 698.2445,331.472 698.0405,331.3928 697.8365,331.3136 697.483,330.7772 697.2556,330.2024 697.0281,329.6275 696.4107,328.8279 695.8857,328.4231 694.0661,327.0199 692.6337,321.5517 693.9509,321.0406 694.2076,320.941 694.4596,320.9939 694.5134,321.1568 694.5671,321.3199 695.0222,322.1402 695.5233,322.9816 696.0244,323.823 696.5577,325.0034 696.7081,325.6025 696.8585,326.2016 697.3821,327.256 697.873,327.9454 698.3639,328.6347 699.2984,330.0154 699.9503,331.0136 701.0031,332.6259 701.2475,332.838 702.1276,332.9142 703.0745,332.9961 703.1271,332.9528 703.3124,331.9538 703.4292,331.3246 703.1589,327.6228 702.6325,322.653 702.1516,318.1128 701.7597,314.3158 701.7626,314.2141 701.7652,314.1125 701.2408,314.0464 700.5952,314.0675 699.9497,314.0886 697.8566,314.0766 695.9457,314.0423 692.5801,313.9813 692.4608,313.9578 692.1136,313.3018 691.5633,312.2621 688.8445,311.1889 686.7667,311.1889 685.2569,311.1889 684.9007,311.3009 683.6995,312.1644 682.9518,312.7019 682.2053,313.1415 682.0422,313.1425 680.9923,313.1477 679.7636,313.7825 679.3425,314.5351 678.9374,315.2589 678.7119,315.3767 677.7226,315.3767 677.0907,315.3767 676.1226,315.1374 675.5704,314.846 672.6499,313.3049 671.2996,312.8284 669.1586,312.5815 667.4345,312.3826 666.631,312.1407 665.8389,311.5857 664.9469,310.9607 664.6189,310.8821 663.6041,311.0473 662.9501,311.1538 662.1207,311.431 661.7618,311.6615 660.8123,312.2714 658.7383,311.9201 658.4272,311.0979 658.1058,310.2483 657.3127,309.5904 656.3374,309.3616 655.8817,309.2547 655.0127,308.8852 654.4051,308.5402 653.7975,308.1951 652.812,307.8233 652.2153,307.7137 651.5732,307.5958 650.4757,307.0046 649.5256,306.2655 647.7549,304.8879 646.2784,304.4917 642.9088,304.4888 640.7786,304.4875 639.672,304.8921 637.0819,306.6269 634.5548,308.3195 634.32,309.1254 635.5146,312.0002 636.562,314.5206 636.4643,315.0424 634.5822,316.9816 632.6357,318.9871 631.7744,318.9932 628.5728,317.0272 627.3012,316.2463 625.385,315.1784 624.3158,314.654 622.563,313.7942 622.138,313.7011 619.9887,313.7011 616.2519,313.7011 614.7308,312.7591 613.5194,309.6927 613.1672,308.801 612.7002,308.1398 612.2771,307.9337 611.9041,307.752 610.0023,306.8252 608.05,305.8738 604.2612,304.0275 603.2114,303.8624 602.0406,304.9337 601.7572,305.193 600.9005,305.4662 600.1383,305.5402 598.8699,305.6634 598.6433,305.588 597.4661,304.6607 596.6001,303.9785 595.8935,303.6497 595.2989,303.6497 594.517,303.6497 594.4298,303.573 594.5414,302.9825 594.7512,301.8732 594.2159,301.2814 592.6341,300.8747 590.7588,300.3925 589.367,299.0214 589.367,297.6548 589.367,296.3519 590.5068,294.4479 591.8792,293.4543 593.4452,292.3206 593.622,291.9663 593.3941,290.429 593.2232,289.277 593.0754,289.058 592.1517,288.5815 591.5239,288.2577 590.9632,287.7013 590.7543,287.1914 590.3175,286.1251 590.7428,285.3749 592.5341,284.0423 593.7891,283.109 593.9944,282.5449 593.6115,281.1005 593.3888,280.2604 592.5565,280.2955 591.5092,281.1864 590.2583,282.2506 589.5755,282.0151 589.177,280.3827 588.996,279.6414 588.7015,278.8548 588.5221,278.6362 588.0975,278.1189 586.5833,278.1263 585.8998,278.6492 585.605,278.8747 584.9635,279.0638 584.475,279.0687 583.9865,279.0739 583.179,279.2564 582.6802,279.4756 581.2021,280.1254 578.9641,280.752 578.1232,280.752 577.6919,280.752 577.0761,280.566 576.7533,280.3375 576.2304,279.9671 576.0275,279.9735 574.901,280.3956 573.8481,280.7901 573.4823,280.813 572.7137,280.5321 571.469,280.077 570.7269,280.1063 570.2965,280.6307 569.7421,281.3061 568.6496,281.7749 567.1568,281.9727 566.008,282.1249 565.6978,282.0608 565.182,281.5708 564.6804,281.0943 564.1083,280.9667 561.9874,280.8556 560.1384,280.7588 559.238,280.8242 558.8202,281.0856 556.7806,282.3616 555.8151,282.7049 553.1333,283.1075 551.5312,283.348 549.6954,283.5447 549.0562,283.5447 547.0608,283.5447 543.9773,284.6218 542.5469,285.8168 541.6627,286.5556 540.9808,286.8987 540.3872,286.9036 537.8686,286.9234 535.2313,288.2293 534.7203,289.7115 534.2853,290.973 533.3963,291.2381 530.8832,290.8514 527.7931,290.3759 523.3293,290.4203 522.6565,290.9349 522.3617,291.1603 521.8662,291.3495 521.5541,291.3544 520.9032,291.3648 519.0744,290.2389 517.3296,288.7537 516.0902,287.6988 515.1779,287.4963 513.8925,287.9905 513.3401,288.2028 513.1891,288.5105 513.03,289.7369 512.9238,290.5551 512.6665,291.4858 512.4601,291.8068 512.2538,292.1278 511.9365,293.1521 511.7552,294.084 511.5381,295.1997 511.1489,296.1205 510.6128,296.7782 509.6915,297.9082 506.6484,299.7403 505.6933,299.7403 504.2618,299.7403 502.8935,300.4174 501.7487,301.6914 499.7756,303.8872 497.8454,306.7668 497.2467,308.4117 496.9332,309.2731 496.4215,310.3448 496.1068,310.7925 494.5385,313.0243 494.4493,315.1868 495.8394,317.3106 496.2444,317.9293 496.5743,318.7275 496.5743,319.0848 496.5743,319.8754 494.0389,323.0577 492.6322,324.0309 492.079,324.4137 491.4903,324.9787 491.3248,325.287 491.1594,325.5953 490.5245,326.2075 489.915,326.6468 489.3055,327.086 488.5349,327.864 488.2027,328.378 487.4608,329.526 486.2179,330.0893 483.8706,330.3367 482.3047,330.5019 481.9645,330.6452 481.1909,331.4741 480.7032,331.9967 479.4617,333.9819 478.4337,335.8843 476.9769,338.5805 476.3822,339.4259 475.734,339.7159 474.6811,340.1869 472.9284,342.8037 472.6818,344.2752 472.4122,345.8841 471.3749,347.545 470.0646,348.4631 468.4197,349.6156 467.8499,350.5876 467.4474,352.9315 467.2263,354.2184 466.6864,355.8148 466.03,357.1219 465.088,358.998 464.8246,359.3009 463.6528,359.8515 462.1202,360.5715 461.9097,361.0485 461.9605,363.683 462.0393,367.7784 462.1793,368.4294 462.9728,368.4294 464.6956,368.4294 465.4109,370.3029 465.3426,374.6266 465.3068,376.893 465.3672,377.1973 466.065,378.2635 L 466.8274,379.4261 466.3725,380.8389 C 466.1222,381.6155 465.7874,383.1162 465.6301,384.175 465.4727,385.2339 465.2237,386.3307 465.0751,386.6114 464.9266,386.892 464.7856,387.7227 464.7627,388.4564 464.7397,389.1901 464.5877,390.0397 464.4252,390.3469 464.2626,390.654 464.1292,391.5214 464.1277,392.2727 L 464.1252,393.6375 462.4678,394.555 C 461.5565,395.0597 460.2196,395.6206 459.4956,395.801 458.2577,396.1093 457.3584,396.8804 457.3584,397.6333 457.3584,397.8092 458.0979,398.1632 459.0007,398.4193 460.2299,398.768 460.6916,399.0382 460.8355,399.5011 460.9411,399.8411 461.6296,400.7903 462.3678,401.6089 463.1061,402.4276 463.7102,403.2257 463.7102,403.3831 463.7102,403.5405 463.5255,404.3976 463.2977,405.2862 462.9087,406.804 462.9147,406.9738 463.4277,408.1169 463.7281,408.7861 463.9768,409.6072 463.9802,409.9417 463.9879,410.7658 465.1027,411.5945 466.5099,411.822 467.78,412.0274 468.0101,412.2451 469.2871,414.4606 469.7617,415.2841 471.0129,416.7925 472.0668,417.8119 473.2804,418.9858 474.2893,420.2792 474.819,421.3402 475.279,422.2616 476.1303,423.5399 476.7113,424.1809 477.2923,424.822 478.2867,426.3906 478.9211,427.6662 480.7929,431.4302 484.1482,434.8717 489.395,438.4076 490.5342,439.1752 492.8708,440.7685 494.5869,441.9484 496.3031,443.1284 498.9128,444.7464 500.3863,445.5449 501.8599,446.3434 503.6699,447.4124 504.4084,447.9206 506.3055,449.2262 507.5451,449.1845 510.0428,447.7285 511.0966,447.1142 512.2944,446.6114 512.705,446.6114 513.1156,446.6114 513.9085,446.2978 514.4673,445.9139 515.0261,445.53 515.6716,445.2132 515.9022,445.2113 516.1327,445.21 517.4286,444.8336 518.7819,444.3747 520.9608,443.6359 521.6145,443.5407 524.5038,443.5407 L 527.7684,443.5407 528.1909,444.3697 C 528.4242,444.8258 528.8956,445.3524 529.2358,445.5398 530.0,445.9609 533.8115,445.9643 536.62,445.5476 538.4573,445.2749 538.7848,445.1323 539.5197,444.2814 540.6086,443.0207 541.0822,442.8101 543.3843,442.5678 545.5472,442.3401 546.7178,441.848 546.9639,441.064 547.1526,440.4628 548.3217,440.197 550.786,440.1921 552.1558,440.1895 552.494,440.081 553.1332,439.4339 554.0093,438.5469 555.2114,438.4586 556.9178,439.1559 557.5254,439.4041 558.8033,439.6117 559.7575,439.6184 562.9892,439.6413 564.4042,440.8007 565.1995,444.0817 565.6094,445.7731 565.8421,446.2056 566.8018,447.0362 L 567.9267,448.0067 575.0934,448.0067 582.2627,448.0067 583.4525,449.0531 C 584.107,449.629 584.9655,450.3533 585.3598,450.6605 586.2533,451.3564 586.8773,453.1537 587.0822,455.6243 587.2281,457.3844 587.1893,457.579 586.5372,458.2805 585.8581,459.0113 585.8292,459.1856 585.7223,463.3656 585.6299,466.9783 585.5273,467.8204 585.1024,468.471 583.9896,470.1743 583.4617,477.3123 584.3275,478.9419 584.9965,480.2012 589.8456,484.5129 591.0242,484.8964 592.9156,485.5119 593.6933,486.1839 594.0639,487.5223 594.3253,488.4664 594.81,489.1567 595.9962,490.2671 598.2213,492.3499 598.6044,493.2751 598.376,496.0447 598.2109,498.0463 598.2582,498.3909 598.8659,499.6032 599.2358,500.3414 600.1011,501.58 600.7907,502.3555 601.4804,503.1311 602.3102,504.4447 602.633,505.2747 602.9559,506.1047 603.4586,507.1741 603.7504,507.6529 604.7777,509.3389 604.4833,509.8924 601.4381,511.9849 600.9255,512.3371 601.5476,513.9026 602.3705,514.3328 603.1646,514.748 604.0054,516.2648 604.0054,517.2797 604.0054,517.5627 604.2528,518.0813 604.5578,518.4322 604.8628,518.7832 605.4241,519.4208 605.8027,519.8501 606.4056,520.5339 606.4901,520.8878 606.4901,522.7111 L 606.4901,524.7936 604.8578,526.5375 C 603.9605,527.4976 602.7005,528.9112 602.0556,529.6791 601.4107,530.4469 600.6445,531.2475 600.3533,531.4558 599.8628,531.8065 599.8364,532.0839 600.0033,535.2241 600.171,538.3796 600.1372,538.7423 599.5083,540.4634 599.1367,541.4806 598.4596,542.8646 598.006,543.5367 597.5524,544.2088 597.2334,544.907 597.2961,545.0885 597.3587,545.2701 597.1913,545.8351 596.9236,546.3446 596.5296,547.095 596.4153,548.1795 596.3237,552.0515 L 596.2112,556.8307 596.9536,557.3564 C 600.4198,559.8028 603.3542,564.4082 604.4028,569.0506 604.611,569.972 604.9361,571.1643 605.1252,571.7018 605.3143,572.2393 605.5922,573.0354 605.7452,573.471 605.8982,573.9067 606.4977,574.5668 607.0775,574.9369 607.6574,575.307 608.3085,575.8924 608.5224,576.2385 609.1058,577.1827 609.2911,580.6167 608.8299,581.9251 608.3291,583.3455 608.3218,584.9537 608.8149,585.3674 609.0308,585.5486 609.2961,586.2223 609.4023,586.8661 609.5085,587.5099 609.9202,588.666 610.3172,589.4339 610.9705,590.6973 611.0539,591.2266 611.2071,595.0169 611.3874,599.478 612.059,602.4643 613.2769,604.2368 613.5915,604.6947 614.0768,605.6938 614.3568,606.4559 614.7043,607.402 615.4217,608.3987 616.619,609.5974 617.5835,610.563 618.4774,611.3514 618.6063,611.3514 618.7352,611.3514 618.9239,612.0541 619.0238,612.9133 619.1622,614.1045 619.7911,615.6476 621.671,619.4062 623.0271,622.1175 624.7633,625.2985 625.5306,626.4752 626.7352,628.3226 626.9255,628.8039 626.9255,630.0009 626.9255,630.9186 626.7792,631.5097 626.493,631.7499 625.6295,632.4745 625.1988,633.7317 625.3731,635.0178 625.568,636.4552 626.0086,637.1278 628.9952,640.5578 630.211,641.9541 631.5987,643.5545 632.0799,644.1164 632.9215,645.099 633.022,645.1374 634.7821,645.1374 636.1608,645.1374 636.9318,644.9729 637.9143,644.4702 639.1918,643.8166 642.2571,643.1838 644.1386,643.1838 644.833,643.1838 645.2045,643.0048 645.516,642.5241 646.074,641.6631 647.5865,641.4136 649.0631,641.9403 650.0724,642.3003 650.3326,642.2928 651.5254,641.8645 652.7851,641.4131 652.9293,641.4128 654.1826,641.8671 656.1468,642.5789 658.4133,642.4944 660.067,641.6472 660.8163,641.2632 661.774,640.9459 662.1967,640.942 662.6195,640.9382 663.6995,640.6869 664.5965,640.3835 665.4935,640.0801 666.7982,639.83 667.4962,639.83 668.7524,639.8274 668.8126,639.784 673.4605,635.3995 678.3559,630.7817 683.4915,625.2308 685.0918,622.8283 685.743,621.8506 686.0282,621.107 686.0292,620.3691 686.0318,618.6176 686.5701,617.1869 687.779,615.7314 688.8805,614.4054 692.258,611.9644 692.7585,612.1324 693.2257,612.2893 694.0162,611.2743 694.4458,609.9664 694.7621,609.0036 695.9459,602.9595 695.9657,602.2074 695.9666,602.169 696.1553,602.1392 696.3831,602.1392 696.6772,602.1392 696.7981,601.8336 696.8006,601.0903 696.8018,600.5145 696.8767,599.5866 696.9681,599.028 697.0994,598.2247 697.0198,597.913 696.5831,597.5318 694.4311,595.6528 694.4858,595.7359 695.0433,595.1131 695.3245,594.7988 696.0864,594.2254 696.7381,593.8393 698.3736,592.8702 702.7741,591.2487 703.7673,591.2487 704.599,591.2487 707.4297,589.6617 708.2669,588.7264 708.6886,588.2554 708.6882,587.7954 708.2818,582.4686 708.0406,579.3064 707.8444,575.5825 707.8444,574.1939 707.8444,572.7886 707.7338,571.7377 707.5969,571.8233 707.4616,571.9078 707.155,571.6737 706.9145,571.3026 706.674,570.9316 706.0796,570.252 705.5946,569.7938 704.4601,568.7217 704.4386,567.6778 705.5196,566.2858 705.9626,565.7153 708.9958,562.849 712.2614,559.9168 715.5271,556.9845 718.6767,554.0384 719.2582,553.3708 720.2863,552.1904 720.3602,552.1579 722.0179,552.1425 724.1229,552.1231 725.1125,551.7694 727.0199,550.3557 728.0235,549.6118 728.561,548.9971 728.6647,548.4728 728.7493,548.0448 729.3795,547.1499 730.067,546.4837 731.183,545.4027 731.3169,545.1385 731.3169,544.0296 731.3169,543.3464 731.4906,542.5376 731.7019,542.2327 732.2074,541.5028 732.9742,538.8646 732.9742,537.8553 732.9742,537.4162 732.711,536.6979 732.3893,536.2579 731.8855,535.5689 731.8243,535.1921 731.9468,533.5461 732.0252,532.4949 732.2454,530.7778 732.4368,529.7322 732.747,528.0378 732.7329,527.722 732.3018,526.8081 731.9603,526.084 731.7809,524.8361 731.6919,522.5646 731.5048,517.7907 731.5064,517.7954 729.9696,516.6354 728.6585,515.6458 728.6207,515.5734 728.4322,513.7946 728.3109,512.649 728.0386,511.7128 727.6998,511.2773 727.403,510.8958 727.002,509.7293 726.8099,508.6842 726.4782,506.8793 726.4952,506.7092 727.1249,505.2975 727.9967,503.3429 727.8125,501.0837 726.7224,500.3616 725.3331,499.4412 723.8627,497.9115 723.8627,497.3868 723.8627,497.0915 724.296,496.1959 724.8276,495.3978 725.5164,494.3636 725.795,493.6367 725.795,492.8704 725.795,491.6394 727.2767,488.7005 728.7422,487.0271 729.2469,486.4508 729.6621,485.8103 729.6621,485.6042 729.6621,485.398 729.8916,485.0217 730.172,484.7651 730.4525,484.5084 730.8273,483.8018 731.0069,483.1956 731.3529,482.0278 732.1934,481.2343 733.0842,481.2343 733.8411,481.2343 734.6316,480.4315 734.6316,479.6623 734.6316,479.1842 734.8324,478.9626 735.3915,478.8283 736.2961,478.611 737.1188,477.9444 737.1188,477.4256 737.1188,477.2204 737.5408,476.7705 738.0587,476.4272 738.6752,476.0187 739.2012,475.3144 739.581,474.3876 740.3827,472.4323 749.7553,462.971 752.0297,461.8215 754.4572,460.5946 756.6121,458.9986 757.1992,457.9925 757.4981,457.4802 758.4763,456.4454 759.3739,455.6926 761.5033,453.9067 765.8383,449.6258 765.8383,449.3084 765.8383,448.8832 768.3671,445.1631 769.9953,443.1922 771.6954,441.1342 772.1901,439.8971 772.1901,437.7229 772.1901,436.4162 772.2871,436.2078 773.3525,435.1728 773.5366,434.9939 773.5724,434.9974 773.7399,434.8468 L 773.7399,434.8461 Z" />
		<path style="fill-rule:evenodd;fill:#000000;" d="M 683.5285,291.5012 C 683.0697,291.4399 682.759,291.5902 682.3711,291.9208 680.7604,293.2941 681.5368,295.011 684.006,295.5375 685.2223,295.7968 686.8379,296.354 687.5981,296.7759 688.3583,297.1977 689.4796,297.4439 690.0879,297.3243 690.696,297.2048 692.3116,296.9327 693.68,296.7178 695.688,296.4023 703.6314,292.3393 703.6314,291.6276 703.6314,291.5257 701.9358,292.0352 699.8618,292.7599 695.1538,294.4049 689.1763,294.2335 685.5758,292.3504 684.5931,291.8365 683.9873,291.5626 683.5285,291.5012 Z" />
		<path style="fill-rule:evenodd;fill:#000000;" d="M 742.9523,290.556 C 742.6283,290.5752 741.9063,290.8416 740.56,291.3673 738.951,291.9956 736.7308,292.5097 735.6255,292.5097 734.1082,292.5097 733.3996,292.8463 732.7358,293.8871 732.2522,294.6453 731.2902,295.3482 730.5986,295.449 728.717,295.7233 728.6986,297.6968 730.5661,298.8837 732.5944,300.173 734.7498,300.1492 735.918,298.823 736.4367,298.2341 737.6254,297.5942 738.5577,297.4026 739.8922,297.1284 740.1925,296.821 739.9725,295.957 739.7945,295.2575 740.191,294.3829 741.0649,293.5433 741.8191,292.8188 742.671,291.776 742.9597,291.2257 743.2013,290.7653 743.2762,290.5368 742.9521,290.556 L 742.9523,290.556 Z" />
		<path style="fill-rule:evenodd;fill:#000000;" d="M 626.5746,272.2375 C 626.0915,272.2897 625.4227,272.629 624.1648,273.294 619.8651,275.5671 620.344,277.3933 625.9521,280.1078 627.7767,280.9909 630.3853,282.3533 631.749,283.1356 633.1127,283.9179 634.4947,284.5585 634.8186,284.5585 636.0128,284.5585 636.7335,283.1317 636.7335,280.7725 636.7335,279.4402 637.1254,277.1665 637.6034,275.7203 638.0813,274.274 638.3718,272.9861 638.2483,272.8593 638.1248,272.7325 635.9785,272.913 633.4788,273.2586 629.4004,273.8224 628.8225,273.7854 627.8644,272.8947 627.3542,272.4204 627.0576,272.1854 626.5746,272.2375 Z" />
		<path style="fill-rule:evenodd;fill:#000000;" d="M 604.8793,250.032 C 604.4871,249.8902 604.0292,250.1505 603.242,250.7169 602.6266,251.1596 601.1783,251.7027 600.0248,251.925 598.0097,252.3133 597.9437,252.4005 598.3275,254.1036 598.5473,255.0785 598.7916,258.1153 598.87,260.8517 598.9531,263.7573 599.2956,266.178 599.6949,266.6723 600.609,267.8038 601.516,267.7399 603.0845,266.4296 604.2788,265.4319 604.4733,265.4137 605.3618,266.235 605.8957,266.7287 606.4375,267.0248 606.5666,266.8922 606.6958,266.7595 606.8576,263.7143 606.9266,260.1263 607.0266,254.9359 606.8624,253.2268 606.1217,251.7582 605.5971,250.7178 605.2716,250.1737 604.8793,250.032 Z" />
		<path style="fill-rule:evenodd;fill:#000000;" d="M 605.6593,232.9393 L 604.3344,234.4077 C 603.6051,235.2162 603.007,236.09 603.007,236.3487 603.007,236.6075 602.2651,237.2135 601.3572,237.6958 600.4494,238.1781 599.5556,239.195 599.3699,239.9553 598.9478,241.6829 600.4597,246.487 601.9396,248.1187 603.4334,249.766 603.9352,249.6689 605.2243,247.497 606.1037,246.0154 606.321,244.6446 606.3167,240.5417 606.3143,237.7302 606.163,234.8675 605.9842,234.1828 L 605.6593,232.9393 Z" />
		<path style="fill-rule:evenodd;fill:#000000;" d="M 511.4292,123.3672 C 510.0812,123.3147 508.7896,124.3087 507.6571,126.2939 506.0705,129.075 505.8623,130.6385 507.0822,130.6385 508.1001,130.6385 508.1717,131.9836 507.1971,132.8145 506.8034,133.1502 504.6247,133.4999 502.3576,133.593 498.3855,133.7561 498.2307,133.8156 498.0706,135.2307 497.9782,136.0479 498.2859,137.0228 498.763,137.4295 499.867,138.3708 499.8518,139.6562 498.7231,140.9375 497.2948,142.5589 498.1613,143.615 501.2703,144.0386 503.9454,144.4032 504.0358,144.471 503.1676,145.4565 502.6661,146.0257 502.2171,147.2729 502.1702,148.229 502.0736,150.2016 499.5116,153.3571 498.0057,153.3571 497.474,153.3571 496.8952,153.5065 496.7183,153.6882 496.2156,154.2046 497.9734,158.086 499.0655,158.8719 499.6052,159.2602 500.2027,160.2243 500.3954,161.0125 500.5879,161.8008 500.8263,162.4456 500.9253,162.4456 502.3529,162.4456 508.0417,159.734 511.4517,157.4287 515.2087,154.8889 516.0806,154.5255 517.6636,154.8306 519.2872,155.1435 519.569,155.0096 520.0533,153.7008 521.0181,151.0939 521.3851,143.5008 520.6558,141.2307 520.0374,139.3059 520.0955,139.0129 521.4132,137.4043 523.0348,135.4245 523.2347,133.0538 522.1781,128.3512 521.333,124.5901 519.9293,123.5332 516.4237,124.0268 514.9789,124.2303 513.43,124.1226 512.7916,123.7716 512.3339,123.52 511.8785,123.3847 511.4292,123.3672 Z" />
		<path style="fill-rule:evenodd;fill:#000000;" d="M 523.6529,119.4068 C 523.4055,119.2289 522.9466,119.52 522.1931,120.2206 521.1662,121.1753 520.8638,122.7396 521.5682,123.4632 522.5397,124.4612 523.6767,123.4329 523.8404,121.4059 523.9352,120.2318 523.9003,119.5847 523.6529,119.4068 Z" />
		<path style="fill-rule:evenodd;fill:#000000;" d="M 535.2492,87.8373 C 534.6183,87.8858 533.8239,88.0631 532.7995,88.3756 530.5981,89.0472 529.5297,89.1097 528.235,88.646 527.3052,88.3131 526.4568,88.042 526.3502,88.042 526.2434,88.042 526.1577,88.9352 526.1577,90.0285 526.1577,91.6003 525.9378,92.0175 525.1103,92.0175 523.651,92.0175 523.2419,93.5241 524.2654,95.1288 525.0967,96.4322 525.0732,96.4831 523.5679,96.6603 522.0352,96.8408 522.0048,96.9181 521.6932,101.3891 521.519,103.8881 520.9607,106.9226 520.4507,108.1321 519.9408,109.3417 519.5233,110.6919 519.5233,111.1321 519.5233,112.505 521.193,112.6683 522.793,111.4531 L 524.3254,110.2905 523.4755,113.9375 C 522.8008,116.8338 522.7674,117.7268 523.3105,118.2846 523.8535,118.8425 524.3294,118.7898 525.6277,118.0243 L 527.2626,117.0614 527.24,119.4472 C 527.2267,120.7603 526.8327,122.8582 526.3651,124.1077 524.7642,128.3864 524.7765,128.8537 526.5101,129.5618 527.7598,130.0723 528.8369,130.011 531.6321,129.2787 533.5794,128.7686 535.299,128.4799 535.4516,128.6368 535.6044,128.7936 535.3343,129.9552 534.8517,131.2172 533.9917,133.4665 534.0056,133.5742 535.5942,136.6764 538.2848,141.931 537.6354,143.6647 532.7969,144.1423 529.7259,144.4454 528.1819,145.7394 528.4624,147.7741 528.5821,148.6419 529.0749,149.1615 529.8897,149.2804 531.3512,149.4937 531.4029,149.8884 530.3272,152.5332 529.7245,154.0148 529.0957,154.6008 527.8174,154.8634 526.7384,155.0851 525.8413,155.7591 525.3802,156.6983 524.2541,158.9924 524.8044,159.6051 528.0,159.6073 529.9161,159.6086 531.4779,159.9985 532.7419,160.7901 534.1707,161.6849 535.1059,161.8773 536.6115,161.5888 L 538.5963,161.2097 537.264,162.6705 C 536.1155,163.9303 535.6271,164.0834 533.7343,163.7724 531.5422,163.4123 531.5255,163.4244 526.6651,168.7109 522.289,173.4707 521.8907,174.0837 522.733,174.7413 523.2486,175.1439 523.7002,175.4794 523.7379,175.4894 523.7755,175.4997 524.9938,174.8264 526.4451,173.9932 528.8337,172.6217 529.3353,172.5308 531.7445,173.0378 534.3854,173.5935 534.4086,173.5872 534.7492,171.994 534.9381,171.1109 535.623,170.0973 536.2691,169.7421 536.9151,169.3869 541.1859,168.9 545.7606,168.6604 554.7132,168.1914 556.6263,167.6707 560.8589,164.5483 563.5252,162.5815 563.2074,161.9041 559.6066,161.882 L 557.3943,161.8668 559.4766,159.8424 C 562.1762,157.2139 563.2679,154.9741 563.3837,151.8281 563.4595,149.7698 563.2266,149.0742 562.1713,148.1962 560.7445,147.0092 558.201,146.7788 556.5469,147.6882 555.5988,148.2094 555.5006,148.0676 555.567,146.2552 555.6209,144.7824 555.2443,143.8187 554.1672,142.6638 553.3574,141.7955 552.6948,140.7437 552.6948,140.3285 552.6948,138.1828 551.1457,134.8767 548.8077,132.0361 546.9852,129.8219 546.0792,128.1458 545.8255,126.5163 545.3326,123.3496 543.6533,120.5293 540.8411,118.1431 539.5526,117.0498 538.7342,115.9952 539.0213,115.8002 539.3241,115.5945 539.1607,114.846 538.6313,114.0159 537.7602,112.6503 537.775,112.5374 538.9863,111.5264 541.1621,109.7105 541.6475,108.7362 542.4059,104.6469 543.4516,99.0091 543.2835,98.8339 536.894,98.8339 532.8723,98.8339 531.581,98.6447 531.3496,98.0252 530.8838,96.7781 532.0862,94.9632 534.0518,93.9485 537.4249,92.2072 538.7877,89.2108 536.7215,88.0749 536.3485,87.8698 535.88,87.7888 535.2492,87.8373 L 535.2492,87.8373 Z M 534.3118,116.6317 C 534.6919,116.4742 535.3141,116.4742 535.6941,116.6317 536.0743,116.7893 535.7644,116.9173 535.0042,116.9173 534.244,116.9173 533.9317,116.7893 534.3118,116.6317 Z" />
		<path style="fill-rule:evenodd;fill:#000000;" d="M 615.4682,118.1027 C 615.2368,118.5003 615.2092,118.7932 614.9033,119.1667 L 613.5284,120.8423 614.7658,123.1802 C 615.4453,124.4658 616.3534,125.5202 616.7856,125.523 617.2178,125.5256 618.0268,125.9513 618.5829,126.4683 619.5247,127.3438 619.6674,127.3384 620.6577,126.4177 621.2853,125.8342 621.7175,124.6937 621.7126,123.6325 621.7116,123.3887 621.813,122.954 621.8375,122.6291 619.7131,121.122 617.6222,119.5609 615.4682,118.1026 L 615.4682,118.1027 Z" />
		<path style="fill-rule:evenodd;fill:#000000;" d="M 598.85,107.5281 C 599.2811,107.7864 599.7273,108.0161 600.1573,108.2762 604.0014,110.6015 607.7658,113.0685 611.5261,115.5424 612.0513,115.328 612.6996,114.9874 613.3085,114.3091 614.0795,113.45 615.4953,112.4715 616.4531,112.133 618.1057,111.549 617.9973,111.4977 614.3708,111.1498 612.2688,110.9482 610.3765,110.5869 610.1638,110.3461 609.951,110.1053 609.6116,108.9497 609.4089,107.7783 609.1208,106.1136 609.2153,105.6477 609.8488,105.6477 610.638,105.6477 610.8667,104.9597 611.6336,100.2518 611.8371,99.0022 612.5012,96.9596 613.1085,95.7101 L 614.2109,93.4379 612.8935,94.5626 C 612.1691,95.1823 609.9605,97.2533 607.984,99.1625 605.4186,101.6405 603.7961,102.7458 602.3171,103.0294 600.7735,103.3252 600.0262,103.8657 599.3824,105.1448 598.8837,106.1355 598.8486,106.8519 598.85,107.5281 Z M 605.5743,105.6477 C 606.8054,105.6477 606.8657,105.7427 606.1242,106.5045 605.6663,106.9749 605.1343,107.8681 604.9418,108.491 604.7494,109.1139 604.4097,109.6233 604.1869,109.6233 603.6635,109.6233 602.4546,108.3835 602.4546,107.8465 602.4546,106.9306 604.2747,105.6477 605.5743,105.6477 Z" />
		<path style="fill-rule:evenodd;fill:#000000;" d="M 750.3365,289.5577 C 749.1091,286.2974 747.9296,283.017 746.6093,279.7944 744.3893,274.3754 742.037,269.0123 739.5576,263.7076 737.0781,258.403 734.4708,253.1576 731.7359,247.9772 731.0013,246.5856 730.1841,245.2372 729.4312,243.8551 729.3287,243.8434 729.0201,243.6655 728.9337,243.6655 728.069,243.6655 726.688,244.1565 725.8641,244.7573 724.9255,245.4417 722.2173,246.1867 718.6148,246.754 715.4522,247.2519 712.2416,247.9738 711.4781,248.3588 710.6959,248.7533 709.3306,250.5421 708.3534,252.4532 706.3029,256.4633 704.5415,257.6875 699.6718,258.4861 694.93,259.2637 694.2941,259.9678 695.6173,262.9823 696.2643,264.4563 696.5925,266.3556 696.5122,268.1659 696.3768,271.2144 697.1668,272.7379 701.1741,277.1735 702.1619,278.2668 703.4965,280.4414 704.1413,282.0033 705.0054,284.0961 705.8859,285.1787 707.486,286.1205 710.2866,287.7687 710.6741,287.7407 714.8852,285.6074 L 718.4173,283.818 723.5518,285.9536 C 726.4832,287.1729 730.0655,288.2193 731.8984,288.39 734.7945,288.6598 735.5149,288.4815 739.2601,286.5804 744.0665,284.1408 744.8958,284.2274 747.4068,287.4372 748.5404,288.8864 749.3801,289.4345 750.3365,289.5577 Z" />
		<g>
			<path style="fill-rule:evenodd;fill:#000000;" d="M 336.1078,735.1096 C 335.485,734.494 333.1307,733.802 330.8761,733.5719 325.9593,733.0702 326.0702,732.2807 331.1511,731.6145 334.2941,731.2022 334.7323,730.9655 333.9895,730.0806 333.4975,729.4945 331.8705,729.0342 330.2911,729.0342 326.8511,729.0342 322.9855,725.8711 318.5696,719.4425 315.0937,714.3825 312.965,706.2461 314.3377,703.2676 315.1186,701.5733 315.0645,701.5197 312.9851,701.9309 311.0422,702.315 310.7955,702.1581 310.5913,700.4076 310.4155,698.901 309.7903,698.2728 307.8487,697.6524 306.4654,697.2105 305.2163,696.5009 305.073,696.0758 304.6767,694.9006 308.7873,693.0356 310.0427,693.8209 312.2553,695.2048 312.9456,694.6066 312.4773,691.7113 312.1978,689.9834 312.3328,688.7364 312.8326,688.4311 313.9951,687.7208 313.8244,685.3699 312.5758,684.8963 311.7791,684.594 311.4602,682.908 311.3022,678.164 311.1288,672.9569 310.8979,671.8852 309.9997,672.1178 306.1221,673.1223 306.0231,672.9793 305.5738,665.7194 305.2841,661.04 304.6812,657.9009 303.6618,655.7665 302.2763,652.8652 302.2466,652.4155 303.2346,649.2911 303.9888,646.906 304.194,643.9104 303.9433,638.9488 303.6682,633.5057 303.8158,631.7793 304.6116,631.1263 306.0334,629.9598 305.8869,626.3587 304.1482,619.7273 302.871,614.8564 302.6687,611.9164 302.7015,598.7014 302.7225,590.2516 302.7402,581.1489 302.7408,578.4732 302.7413,575.7975 301.939,570.1315 300.9575,565.8822 299.9759,561.6328 299.0707,557.0309 298.9458,555.6556 298.6505,552.4025 296.1279,550.9756 282.9914,546.6307 272.5485,543.1767 271.9459,542.7786 267.7675,536.5715 266.4355,534.5929 263.6385,531.1324 261.5519,528.8814 259.4654,526.6304 256.5218,522.7451 255.0108,520.2476 249.9148,511.8243 247.6584,509.26 242.9104,506.4963 240.3811,505.0241 237.8682,503.5402 237.3263,503.1989 236.0896,502.42 235.4805,493.8741 236.477,491.283 236.8712,490.258 237.9738,489.1261 238.9271,488.7678 240.8967,488.0275 241.5867,486.6791 241.5867,483.5704 241.5867,482.1625 241.2701,481.5152 240.677,481.7106 240.1766,481.8755 239.7672,482.372 239.7672,482.8138 239.7672,483.2557 239.3346,484.0381 238.8058,484.5526 238.0149,485.322 237.5844,485.1734 236.3789,483.7142 235.2277,482.3209 235.0084,481.3183 235.3559,479.0376 235.5992,477.4409 235.7816,474.819 235.7612,473.211 235.7202,469.9662 236.0962,469.3934 245.4658,458.4257 250.2108,452.8715 251.0937,451.4473 250.7422,449.9149 250.51,448.9027 249.847,445.5814 249.2688,442.5341 248.6907,439.4869 247.6837,436.1881 247.0311,435.2035 245.8748,433.459 245.9339,433.2973 249.3561,428.8516 251.2874,426.3427 254.1755,421.9077 255.7739,418.9962 257.3724,416.0848 259.5013,413.2036 260.5046,412.5935 261.508,411.9835 265.0264,409.725 268.3232,407.5744 271.8303,405.2868 274.7747,403.8379 275.4193,404.0824 276.2475,404.3966 276.521,405.6672 276.521,409.1996 276.521,413.5965 276.6264,413.8981 278.1586,413.8878 281.1985,413.8674 281.8809,412.8558 281.7078,408.6262 281.5243,404.1415 282.6908,402.6224 284.3832,405.1422 285.2433,406.4227 286.1369,406.704 289.3463,406.704 293.0491,406.704 293.2604,406.8023 293.2604,408.5252 293.2604,411.0772 295.141,411.5128 297.7923,409.575 299.9015,408.0334 300.3062,407.9845 304.5558,408.7586 311.6675,410.054 312.768,409.8802 315.2903,407.0637 317.0877,405.0567 318.0724,404.5507 320.1409,404.571 321.5683,404.585 323.555,405.0592 324.5557,405.6247 L 326.3752,406.653 323.9565,406.6785 C 322.0757,406.6983 321.591,406.977 321.7769,407.9315 322.0347,409.2546 324.3175,410.1151 327.8736,410.2297 329.0981,410.2691 330.706,410.7395 331.4468,411.275 332.7126,412.19 332.721,412.3513 331.5859,413.9534 329.9058,416.3247 330.0736,416.8557 332.245,416.0395 333.2717,415.6536 335.482,415.3378 337.1565,415.3378 339.9897,415.3378 340.5383,415.6928 345.0504,420.4456 L 349.8995,425.5534 355.9685,426.6186 C 359.7074,427.2748 363.7933,427.515 366.6113,427.2442 371.7582,426.7494 374.9131,427.7935 380.4448,431.8224 382.783,433.5253 384.1741,435.4023 385.9771,439.2872 387.591,442.7645 388.9619,444.7146 390.1315,445.1967 393.3875,446.5387 392.6807,448.527 386.4776,455.4753 L 380.6417,462.0124 387.4167,461.8786 C 392.2997,461.7822 394.5341,462.0247 395.4174,462.7467 396.8241,463.8968 396.7637,463.9355 398.3422,460.8669 399.8981,457.8419 401.9581,456.8229 405.6298,457.2618 409.8993,457.7721 416.4858,460.402 418.7965,462.5191 420.4564,464.0398 420.7001,464.7212 420.3134,466.7591 419.6991,469.9961 420.7391,470.4366 423.5249,468.1193 426.0345,466.0316 426.0416,466.031 437.466,466.993 446.0479,467.7156 447.8496,468.485 454.3734,474.2129 457.9634,477.3648 462.8564,480.0454 465.0759,480.0759 468.4689,480.1228 471.237,487.1726 470.7068,494.4175 470.3353,499.4958 468.6746,502.1563 463.142,506.5361 460.5644,508.5766 458.4738,511.0945 456.8714,514.0881 455.3497,516.9309 453.9335,518.6714 453.0121,518.8312 452.2115,518.9701 451.2289,519.3943 450.8287,519.7737 450.4079,520.1728 450.1009,524.9452 450.1009,531.0892 450.1009,541.5069 450.0617,541.7707 448.0994,544.5779 446.9986,546.1527 446.098,548.3667 446.098,549.498 446.098,551.6756 438.5811,565.5873 435.8233,568.5136 434.3366,570.0912 433.8699,570.1738 428.9408,569.7323 425.4997,569.424 423.4867,569.5247 423.1767,570.0207 422.9146,570.4399 420.4986,571.8789 417.8079,573.2185 411.6571,576.2806 405.7228,580.8816 404.2209,583.7527 403.3153,585.484 403.1697,587.1479 403.5445,591.4836 L 404.0222,597.0084 401.7053,599.1668 C 400.4311,600.354 398.4928,603.2679 397.3981,605.6422 396.3035,608.0165 394.0518,611.2291 392.3945,612.7814 390.7372,614.3336 388.5763,617.2841 387.5926,619.338 386.4066,621.8144 384.0708,624.6208 380.6598,627.6679 377.8305,630.1954 375.5125,632.6943 375.5086,633.2211 375.4987,634.5684 366.8233,646.2242 364.906,647.4662 364.0345,648.0306 360.0849,649.2159 356.1292,650.1001 346.8372,652.177 346.691,652.2763 348.5493,655.2488 350.2663,657.9953 350.4413,660.5695 349.0398,662.4642 348.2807,663.4906 347.0551,663.815 343.7633,663.8608 340.05,663.9127 339.4475,664.1141 339.2662,665.3641 339.1512,666.158 339.8755,668.4061 340.8761,670.3598 342.0345,672.6218 342.4525,674.2011 342.0271,674.7079 341.6596,675.1457 341.134,676.8943 340.8591,678.5938 340.4792,680.9425 339.586,682.4374 337.1359,684.8252 333.4501,688.4175 333.5253,688.9444 338.2019,692.2931 342.1522,695.1216 342.1614,696.437 338.2863,704.2404 334.5463,711.7713 334.6637,714.4366 338.8978,718.1367 L 341.659,720.5497 336.0316,720.2818 C 330.8241,720.034 330.5526,720.0895 332.3926,721.0263 333.4862,721.5831 335.7354,723.2614 337.3909,724.7559 341.0532,728.0622 344.2279,729.7538 346.7708,729.7538 349.9404,729.7538 348.6445,732.0036 344.2008,734.2153 339.6319,736.4894 337.7175,736.701 336.1078,735.1096 Z M 330.0006,407.4846 C 330.3709,405.8177 330.1961,405.3328 329.1487,405.1215 328.0388,404.8976 328.1583,404.6403 329.9057,403.491 333.7297,400.9761 336.2978,404.5148 333.0085,407.7664 330.5268,410.2197 329.416,410.1157 330.0006,407.4846 Z" />
			<path style="fill-rule:evenodd;fill:#000000;" d="M 159.6864,168.069 C 157.2714,170.6119 154.8137,173.1208 152.4797,175.727 148.5284,180.1389 144.6944,184.6404 140.9784,189.2257 137.2623,193.811 133.6638,198.4811 130.187,203.2299 126.7102,207.9787 123.3541,212.8068 120.1206,217.7093 116.8871,222.6118 113.7777,227.5871 110.7916,232.6335 107.8054,237.6798 104.9423,242.7968 102.2075,247.9772 99.4727,253.1576 96.8653,258.403 94.3858,263.7076 91.9063,269.0122 89.5541,274.3754 87.3341,279.7944 85.114,285.2134 83.0264,290.6887 81.0697,296.2123 79.1131,301.7358 77.2895,307.3076 75.6003,312.9259 73.9111,318.5442 72.356,324.2092 70.9383,329.9124 70.3724,332.1887 69.9256,334.4981 69.4035,336.7869 73.0878,339.3364 76.5141,342.1193 79.0999,344.8745 82.4514,348.4454 87.2067,355.4891 88.4614,358.7422 88.8879,359.8479 90.4595,361.7721 91.9561,363.016 95.8652,366.2653 98.5146,372.5957 96.7906,374.5712 95.4716,376.0826 96.1063,376.8692 99.8652,378.38 101.6896,379.1132 104.1032,380.2692 105.2297,380.9478 106.3561,381.6263 109.1738,382.6984 111.4915,383.3311 113.8092,383.9638 117.1466,385.192 118.9057,386.0607 123.9594,388.5565 130.0165,390.5953 136.5738,392.0051 142.5545,393.2909 142.7431,393.2979 151.1198,392.6748 159.4275,392.057 159.6667,392.0686 162.3261,393.1576 163.8204,393.7694 166.431,395.3107 168.128,396.5847 169.825,397.8587 171.5459,398.946 171.9526,398.9984 173.5342,399.202 181.1655,400.8484 188.1959,402.5038 197.8426,404.7753 202.0059,407.0623 205.0341,411.754 207.0434,414.8671 207.4163,415.1428 213.7082,418.1433 222.4324,422.3037 227.8147,424.3885 231.2413,424.9343 232.7912,425.1812 234.8747,425.5169 235.8708,425.6799 237.5215,425.95 237.6538,425.8698 237.3607,424.7776 237.1838,424.1185 236.8587,423.2391 236.6383,422.824 236.3483,422.2783 236.8897,421.8844 238.5931,421.4036 244.0289,419.8693 244.0129,419.8666 247.2547,423.7793 248.8812,425.7427 250.2738,427.348 250.3493,427.348 250.8413,427.348 253.1496,421.2086 252.8191,420.7793 252.5933,420.4861 251.2668,419.5812 249.8719,418.7701 247.6248,417.4636 246.8222,417.2966 242.8226,417.2966 239.0619,417.2966 237.6925,417.5443 234.621,418.7877 230.9977,420.2547 230.8989,420.2665 228.9141,419.4171 224.985,417.7353 218.7672,413.1578 218.0527,411.4204 217.2647,409.504 217.687,406.8373 219.4201,402.7945 220.0674,401.2846 220.5975,399.1849 220.5975,398.1264 220.5975,396.4466 220.2858,396.0368 218.1577,394.9065 214.1508,392.7783 210.3952,392.2476 201.3845,392.5409 190.9605,392.8802 190.9728,392.8904 194.4627,386.8669 196.6893,383.0239 197.0824,381.8478 197.1499,378.8273 197.2201,375.6913 197.4589,375.0336 199.2472,373.0523 L 201.2645,370.8155 199.9022,369.9309 C 198.2025,368.8263 192.7666,368.7536 186.2636,369.749 180.6547,370.6075 179.1455,371.6334 177.5995,375.6403 175.9745,379.8519 174.2455,381.0352 169.2179,381.3749 166.9959,381.5251 163.7012,381.9024 161.8987,382.2115 158.7213,382.7564 158.5825,382.7322 157.3142,381.4381 156.3002,380.4036 155.461,380.1037 153.5796,380.1037 151.5,380.1037 150.902,379.8328 149.4175,378.2182 148.4644,377.1816 146.7323,375.4614 145.5679,374.3943 142.4585,371.5446 140.4557,367.7564 140.4484,364.7144 140.4408,361.5574 142.0757,353.617 143.0457,352.1028 143.5007,351.3925 143.6254,349.59 143.3906,347.0986 L 143.0232,343.2014 145.5929,341.2982 C 147.0592,340.2118 148.8,339.3926 149.645,339.3926 152.0909,339.3926 155.258,338.0743 156.7792,336.4229 L 158.2116,334.8686 165.5983,334.8686 C 171.62,334.8686 173.9833,335.1005 178.3869,336.1247 184.6848,337.5895 188.5192,337.7589 189.0758,336.5948 189.2829,336.1616 189.1335,335.5507 188.7433,335.2376 188.3532,334.9244 188.0334,334.0611 188.0334,333.3193 188.0334,332.0315 188.2149,331.9546 192.068,331.6234 194.2875,331.4327 198.3849,331.4359 201.172,331.6312 205.9771,331.9676 206.3335,332.0789 208.0463,333.7466 209.9628,335.6127 210.6306,335.6713 214.6856,334.3431 216.3313,333.804 216.8435,333.8433 218.3177,334.6186 220.455,335.7425 221.7761,337.7537 222.8872,341.5764 223.5856,343.9791 224.473,345.2227 227.5617,348.1249 229.6586,350.0951 232.5793,352.5504 234.0535,353.5815 L 236.7358,355.4568 238.1256,352.8637 C 240.2665,348.8693 239.7342,345.5134 235.8259,338.3692 231.9708,331.3223 231.5886,330.0362 232.5212,327.2563 233.6277,323.9581 236.4857,321.9557 251.5167,313.9598 253.8851,312.6999 256.2794,311.5397 256.8386,311.3818 257.3978,311.224 259.2186,309.9525 260.8832,308.5562 263.7496,306.1518 263.8946,305.8965 263.6379,303.7314 263.4889,302.4742 262.8481,299.4105 262.2131,296.9227 260.6935,290.969 260.6471,278.9059 262.1231,273.7036 266.9718,256.6136 279.9116,243.5534 299.1742,236.3085 302.0797,235.2156 304.6064,234.1263 304.7886,233.8898 304.9708,233.6532 306.3455,233.3118 307.8433,233.1316 310.173,232.8512 310.7629,232.5231 311.9278,230.8594 314.0364,227.8484 315.1975,227.6677 334.5679,227.3413 353.6336,227.0201 353.0845,227.1134 357.8205,223.4365 360.2496,221.5506 361.3842,221.0727 364.7897,220.4997 370.901,219.4716 375.7693,217.5953 376.241,216.0869 376.4553,215.4018 376.3247,214.3828 375.9511,213.8224 375.5773,213.2619 375.2711,211.3638 375.2711,209.6042 375.2711,205.8967 374.6645,205.1989 371.4465,205.1989 369.4319,205.1989 369.1692,205.0654 369.4543,204.1905 369.9396,202.701 368.5287,201.683 365.9571,201.6657 364.1103,201.6527 363.8913,201.554 364.7822,201.1374 365.385,200.8557 365.8771,200.2092 365.8771,199.7019 365.8771,198.0759 362.2872,196.7217 354.3858,195.3649 L 349.4714,194.5207 349.8413,193.0321 C 350.3693,190.9135 349.5265,189.9904 344.9618,187.6766 340.2531,185.2898 339.5135,184.5907 341.6897,184.5907 345.7232,184.5907 344.0842,180.4893 335.1404,168.193 328.3427,158.8472 326.6583,157.5128 323.4116,158.9099 322.8315,159.1596 321.112,161.4033 319.592,163.8939 317.0466,168.0649 316.7174,168.3877 315.425,167.9934 314.2388,167.6314 313.9087,167.789 313.2802,169.0068 312.8712,169.7992 312.0523,170.7985 311.4604,171.2284 310.4763,171.9431 310.0906,171.8566 306.9759,170.2225 303.9136,168.6159 303.2536,168.4614 300.439,168.701 297.7532,168.9297 297.4642,168.8748 298.4043,168.3068 299.8585,167.4279 299.7846,165.8808 298.1143,162.1425 L 296.7319,159.0439 298.2193,156.4938 C 300.0854,153.296 299.4797,151.8155 295.9395,150.9083 290.5711,149.5324 287.1894,147.7678 282.8934,144.1071 278.6146,140.4611 278.4183,140.364 275.4992,140.364 273.85,140.364 271.2395,140.6185 269.6973,140.9302 267.132,141.4486 266.4697,141.3623 261.9356,139.9243 255.0712,137.7471 251.6429,137.9692 250.0969,140.6926 249.1104,142.4303 249.2191,143.1767 250.7743,145.3455 L 252.1467,147.2587 250.7743,149.9099 C 249.0675,153.2063 249.0354,154.4541 250.6493,154.7928 251.4791,154.967 252.1188,155.7507 252.5591,157.1332 252.9232,158.2763 253.3315,159.4762 253.4665,159.8021 253.6015,160.128 252.7419,161.9756 251.5567,163.9066 247.9004,169.8633 248.3828,171.5864 255.6637,178.6084 259.5616,182.3676 259.9022,184.747 256.9936,187.9091 253.9957,191.1684 250.2586,193.746 245.8048,195.6252 243.4015,196.6392 241.4874,197.7922 241.3702,198.2992 241.257,198.7897 242.0324,200.2421 243.0926,201.5267 244.4142,203.128 245.0199,204.4756 245.0199,205.8131 245.0199,206.886 245.4739,209.3689 246.0297,211.3304 246.8489,214.221 246.9006,215.2683 246.3072,216.8577 245.724,218.4201 245.3427,218.7596 244.4249,218.5258 243.0053,218.1642 241.2628,219.4696 241.2628,220.894 241.2628,221.9268 241.2438,221.9267 239.9429,220.9825 239.2174,220.4559 238.0773,219.1637 237.4082,218.1114 236.5415,216.7484 235.4183,215.9335 233.5061,215.2757 229.5185,213.9038 228.6005,211.9772 228.1116,203.9429 227.7368,197.7839 227.0566,195.4242 225.4044,194.5612 225.052,194.3772 222.7699,194.0757 220.3325,193.8915 209.8844,193.1018 202.9091,190.9791 195.1151,186.2184 186.8633,181.1779 185.673,180.8094 177.887,180.8982 L 171.1827,180.9766 170.5702,179.392 C 170.2328,178.5206 169.6423,176.5367 169.2604,174.9842 168.4556,171.7126 166.8504,170.2526 163.5085,169.7576 162.2461,169.5706 160.5555,168.8537 159.7514,168.1653 159.7163,168.1353 159.7198,168.0986 159.6864,168.0693 L 159.6864,168.069 Z" />
			<path style="fill-rule:evenodd;fill:#000000;" d="M 715.3327,220.1255 C 714.8157,219.328 714.3462,218.5028 713.8228,217.7093 710.5893,212.8068 707.2332,207.9787 703.7564,203.2299 700.2796,198.4811 696.6836,193.811 692.9675,189.2257 689.2515,184.6404 685.415,180.1389 681.4637,175.727 677.5124,171.315 673.445,166.9928 669.2625,162.764 665.08,158.5353 660.8051,154.4229 656.4414,150.4279 652.0777,146.4329 647.6254,142.5565 643.0903,138.7994 641.7152,137.6602 640.281,136.6081 638.8907,135.491 638.5835,135.5743 638.3988,135.6907 638.0433,135.7665 632.9276,136.8575 632.0015,137.4702 632.2689,139.5854 632.4269,140.8352 631.4173,140.3454 630.6066,138.7792 629.5456,136.729 625.8396,134.047 624.0723,134.0504 623.2816,134.0517 621.1424,134.6836 619.3178,135.4557 617.4933,136.2277 615.5354,136.8661 614.9683,136.8735 614.0066,136.8865 613.9973,136.7954 614.8083,135.5239 L 615.6782,134.1591 612.3061,133.55 C 610.4513,133.2144 608.8846,132.8701 608.8239,132.7842 608.7263,132.6459 607.2746,128.3823 606.5467,126.0942 606.3976,125.6257 607.1587,123.7429 608.2365,121.9089 609.3143,120.0749 610.1963,117.9662 610.1963,117.2231 610.1963,116.3823 610.5186,115.871 611.0512,115.871 611.1502,115.871 611.3862,115.5995 611.5261,115.5424 607.7658,113.0685 604.0014,110.6015 600.1573,108.2762 599.7273,108.0161 599.2811,107.7864 598.85,107.5281 598.8525,108.5816 599.2396,109.3343 600.3823,109.3175 602.0334,109.2931 602.155,109.4713 601.3647,110.7556 600.9495,111.4303 600.7016,111.4587 600.1548,110.8971 599.7773,110.5092 599.2632,110.1919 599.0125,110.1919 598.0954,110.192 597.5179,113.0612 597.9526,115.4514 598.201,116.8169 598.168,118.5774 597.8776,119.4725 597.4568,120.7691 597.5758,121.2988 598.5175,122.3284 599.1536,123.024 599.829,124.4751 600.0198,125.5534 600.2108,126.6317 600.7127,128.61 601.1347,129.9485 602.1274,133.0976 602.2182,132.8272 599.8299,133.9013 L 597.7551,134.8339 599.8299,135.3925 C 602.2615,136.0477 602.511,137.2725 600.8023,140.1515 599.6046,142.1692 599.0426,142.3963 598.105,141.2358 597.5148,140.5052 594.2811,140.6967 591.9507,141.5997 591.4946,141.7765 589.6729,142.3332 587.9036,142.8381 583.9735,143.9597 582.8984,145.721 583.8666,149.4472 584.4673,151.7594 584.0281,153.3247 582.6492,153.7969 582.1963,153.952 581.9992,152.9594 581.9992,150.5441 581.9992,147.2955 581.9299,147.1082 580.9394,147.6528 580.3566,147.9732 579.4548,149.5785 578.9371,151.2215 578.4115,152.8892 577.1445,155.1253 576.0674,156.2838 574.7922,157.6553 574.0881,159.0 573.9926,160.2467 573.8488,162.1249 573.8291,162.1361 568.9731,163.3504 565.0057,164.3424 563.805,164.905 562.5413,166.3579 561.687,167.3402 560.989,168.6129 560.989,169.1861 560.989,171.6041 559.7466,173.5926 557.1419,175.3453 555.1319,176.6979 554.3859,177.5776 554.2547,178.7522 554.107,180.0726 553.784,180.3646 552.3074,180.5113 550.246,180.7161 548.2728,179.7964 548.2728,178.6309 548.2728,178.1843 547.7911,177.5566 547.2029,177.2333 544.1217,175.5392 542.8389,177.5763 544.1257,182.1238 544.9605,185.0734 544.9578,185.3555 544.0733,186.3596 542.7973,187.8081 541.6401,187.7137 539.1213,185.9578 537.0189,184.4922 536.979,184.4878 533.9293,185.3639 532.2392,185.8494 530.2,186.3839 529.3973,186.5517 527.619,186.9236 527.1115,188.0881 527.8525,190.0901 528.2322,191.1162 528.2278,191.7843 527.8375,192.1853 526.347,193.7164 527.2727,194.6575 531.5471,195.9485 537.7149,197.8114 539.6873,198.9989 541.6885,202.0572 542.6609,203.543 544.139,205.5253 544.9732,206.4624 545.8073,207.3996 546.8573,209.4831 547.3055,211.0926 548.1108,213.9851 548.1037,214.0268 546.813,214.6309 545.5705,215.2125 545.5085,215.512 545.5056,220.7927 545.5018,228.0665 544.9003,230.1906 542.406,231.7742 540.6817,232.8689 539.9619,232.9768 536.4791,232.6587 534.2987,232.4596 528.9071,232.0453 524.4979,231.7363 520.0886,231.4272 515.2551,230.7857 513.754,230.3133 510.5367,229.3009 509.4102,229.5509 508.562,231.4633 508.1023,232.4998 507.5047,232.8736 506.3048,232.8736 505.4077,232.8736 504.2868,233.2709 503.8126,233.7582 503.0312,234.5608 503.0342,234.8417 503.8451,236.7405 506.7236,243.4811 506.8186,245.1942 504.885,255.1777 502.6354,266.7917 502.5955,267.8726 504.255,272.1339 505.0498,274.1747 505.704,276.4626 505.7074,277.219 505.7112,277.9755 505.8664,279.553 506.0548,280.7245 L 506.3973,282.8551 511.0968,282.8551 515.7963,282.8551 518.0735,285.3344 C 521.0595,288.5865 523.5142,289.1241 527.1401,287.321 528.9907,286.4006 531.226,285.9369 535.1417,285.6579 538.1306,285.445 540.6471,285.1743 540.7337,285.0564 540.82,284.9385 541.4536,284.0063 542.141,282.984 543.4645,281.0153 546.9258,278.8795 548.7928,278.8795 549.5544,278.8795 550.026,278.3823 550.2751,277.3176 550.9136,274.5886 552.6513,271.5611 554.2997,270.3091 L 555.8971,269.0985 554.5722,267.0918 C 553.8439,265.9893 553.2498,264.7315 553.2498,264.2965 553.2498,262.6146 554.8749,259.7566 557.0544,257.6065 558.3061,256.3717 559.3292,255.0387 559.3292,254.6444 559.3292,254.2501 560.0735,253.0582 560.9815,251.9957 562.1999,250.5703 563.2306,249.9812 564.9161,249.7489 566.2732,249.5619 568.0151,248.7538 569.2081,247.7598 571.2024,246.0983 571.2179,246.0569 571.2179,241.7093 571.2179,237.3797 571.2402,237.3104 573.2827,235.3858 575.672,233.1345 576.395,233.0673 581.9993,234.5745 585.8174,235.6013 586.3443,235.6234 588.6736,234.8373 591.3298,233.941 597.4802,228.8014 597.4802,227.4776 597.4802,226.437 600.8894,224.3538 602.5921,224.3538 604.6118,224.3538 607.9603,227.9679 611.2662,233.7177 612.8235,236.4261 614.6503,239.4144 615.3258,240.3572 616.8602,242.4988 621.5301,246.256 628.8043,251.1996 635.7406,255.9135 638.493,259.0138 640.0782,263.9073 641.1947,267.3539 641.2104,267.6365 640.3306,268.2974 639.6671,268.7958 639.365,269.9153 639.3057,272.096 639.231,274.8467 639.3505,275.2057 640.3956,275.3589 641.2961,275.4908 641.925,274.8954 643.0928,272.8037 643.9305,271.3033 645.486,269.1364 646.55,267.989 648.1096,266.3072 648.4144,265.6159 648.1223,264.4203 647.923,263.6047 647.1601,262.654 646.425,262.31 644.8012,261.5499 644.478,260.8078 645.0676,259.1786 645.822,257.0941 647.45,256.5732 649.0822,257.8921 649.8572,258.5183 651.3517,259.399 652.4044,259.8508 654.0847,260.5721 654.3581,260.5695 654.6341,259.8307 654.807,259.3678 654.7149,258.3584 654.4291,257.5863 653.9525,256.2986 652.6544,255.1499 645.6226,249.7894 644.2775,248.764 642.7667,247.1578 642.2654,246.2207 641.5904,244.9586 640.5852,244.2591 638.3883,243.5265 634.6303,242.2734 633.1209,240.7671 629.5093,234.6655 627.9087,231.9615 625.5374,228.5295 624.2423,227.0379 621.9582,224.407 621.897,224.2344 622.1925,221.2931 622.3888,219.34 622.276,218.1206 621.8751,217.866 620.9936,217.3064 621.0776,215.2329 621.9676,215.5838 622.3612,215.739 623.7627,215.4748 625.0798,214.9974 628.6153,213.716 629.2177,213.8209 628.132,215.5231 627.1766,217.021 627.4146,218.6752 628.7919,220.0901 630.0576,221.3903 630.6291,221.1388 631.5491,218.877 632.2507,217.1521 632.5083,216.9415 633.0914,217.6006 634.3153,218.9842 636.0659,224.1462 635.7986,225.5821 635.4122,227.6587 639.5988,231.4054 643.6603,232.6183 645.8302,233.2664 647.5078,234.2646 649.0922,235.8509 650.3534,237.1134 653.066,239.5296 655.1216,241.219 660.5057,245.6438 660.6716,245.9981 660.2036,252.1449 659.8255,257.1096 659.8613,257.3474 661.2659,259.2392 662.0651,260.3156 662.7183,261.8945 662.7183,262.7498 662.7183,264.9319 664.1876,266.3841 666.3979,266.3841 668.3219,266.3841 668.6172,266.8849 667.7128,268.6209 666.8797,270.22 668.6734,271.4397 672.4373,271.8357 675.7321,272.1824 678.1992,273.278 678.1992,274.3934 678.1992,274.7241 677.3377,274.448 676.2844,273.7793 674.9246,272.916 673.6822,272.6133 671.9998,272.738 669.6585,272.9115 669.632,272.9374 669.785,274.9014 670.161,279.727 671.0457,282.1619 672.6747,282.8551 673.5412,283.2238 674.6792,284.0129 675.2045,284.6091 677.4918,287.2056 680.257,285.0793 679.6515,281.1896 L 679.329,279.1095 681.2513,279.3395 C 683.5585,279.6162 683.6442,279.2691 681.7138,277.4313 L 680.249,276.0387 681.7213,276.0387 C 682.53,276.0387 683.6733,276.3475 684.2635,276.7262 685.69,277.6413 686.1275,277.0721 685.6634,274.9014 685.2421,272.9313 682.3611,269.2224 681.2513,269.2224 680.3708,269.2224 679.5632,268.2091 679.0341,266.4398 678.7016,265.3279 678.7909,265.1392 679.519,265.4263 680.892,265.9675 680.6218,264.2469 679.0291,262.3024 677.3778,260.2864 676.8423,258.4024 677.3418,256.358 677.703,254.8792 677.7462,254.9048 679.6515,257.8113 681.2866,260.3054 681.8237,260.7448 683.0737,260.5964 684.5114,260.4258 684.5559,260.3106 684.506,256.8989 L 684.456,253.3782 687.3557,253.0067 C 689.3448,252.7514 691.1862,252.9194 693.2125,253.54 695.9308,254.3726 696.2136,254.3709 696.7222,253.5223 697.0262,253.0148 697.8633,251.8568 698.5845,250.9494 699.6494,249.6094 699.832,248.8904 699.5569,247.1229 699.2215,244.9685 699.2391,244.9433 701.2867,244.5956 702.4244,244.4024 704.04,244.2426 704.8763,244.2392 706.6687,244.2314 706.6482,244.3331 705.4737,241.3175 704.5775,239.0167 704.583,238.9183 705.7062,237.9839 706.3427,237.4545 707.2445,236.0868 707.7085,234.946 708.1725,233.8052 708.7936,232.8736 709.0884,232.8736 709.5852,232.8736 710.9131,229.1001 712.423,223.4009 712.9468,221.4237 713.3731,220.918 714.9802,220.3731 715.1618,220.3115 715.1691,220.1934 715.3327,220.1254 L 715.3327,220.1255 Z" />
		</g>
		<path style="fill:#000000;" d="M 416.3393,1.3395 C 306.3413,1.3395 200.8169,45.071 123.0366,122.8902 45.2563,200.7094 1.5466,306.2866 1.5466,416.3396 1.5466,526.3926 45.2563,631.9699 123.0366,709.7891 200.8169,787.6083 306.3414,831.3398 416.3394,831.3398 526.3375,831.3398 631.8618,787.6083 709.6421,709.7891 787.4224,631.9699 831.1321,526.3926 831.1321,416.3396 831.1321,306.2866 787.4224,200.7094 709.6421,122.8902 631.8618,45.071 526.3374,1.3395 416.3393,1.3395 Z M 416.3393,63.0578 C 510.0005,63.0578 599.794,100.2701 666.0224,166.5317 732.2508,232.7932 769.4445,322.6316 769.4445,416.3396 769.4445,510.0476 732.2508,599.886 666.0224,666.1476 599.794,732.4092 510.0006,769.6214 416.3394,769.6214 322.6782,769.6214 232.8848,732.4092 166.6562,666.1476 100.4278,599.886 63.2341,510.0476 63.2341,416.3396 63.2341,322.6316 100.4278,232.7932 166.6562,166.5317 232.8848,100.2701 322.6781,63.0578 416.3393,63.0578 Z" />
	</g>
</g>
</svg>