<?xml version="1.0" encoding="utf-8"?>
<!-- Created by sK1 2.0rc4 (https://sk1project.net/) -->
<svg xmlns="http://www.w3.org/2000/svg" height="832.677165354pt" viewBox="0 0 832.677165354 832.677165354" width="832.677165354pt" version="1.1" xmlns:xlink="http://www.w3.org/1999/xlink" id="65e53cbc-b38a-11ea-be2e-a0f3c11e789f">

<g>
	<path style="fill-rule:evenodd;fill:#2d2c2b;" d="M 524.7784,415.9921 C 580.5225,370.8659 630.2792,311.2435 630.2792,221.4016 630.2792,193.0333 630.2792,108.5226 630.2792,70.8677 L 630.2792,70.8677 662.4556,70.8677 C 684.5023,70.8677 702.3747,55.0038 702.3747,35.4346 702.3747,15.8655 684.5023,0.0016 662.4556,0.0016 L 170.2209,0.0016 C 148.1742,0.0016 130.3019,15.8655 130.3019,35.4346 130.3019,55.0038 148.1742,70.8677 170.2209,70.8677 L 194.0187,70.8677 C 194.0187,118.5727 194.0187,188.6261 194.0187,220.6937 194.0187,313.926 229.2459,362.0176 301.8018,417.7618 236.3245,481.4694 202.398,521.435 202.398,611.2769 202.398,639.6451 202.398,724.1559 202.398,761.8107 L 202.398,761.8107 170.2216,761.8107 C 148.1749,761.8107 130.3025,777.6746 130.3025,797.2438 130.3025,816.8129 148.1749,832.6769 170.2216,832.6769 L 662.4562,832.6769 C 684.5029,832.6769 702.3753,816.8129 702.3753,797.2438 702.3753,777.6746 684.5029,761.8107 662.4562,761.8107 L 638.6585,761.8107 C 638.6585,714.1057 638.6585,644.0523 638.6585,611.9847 638.6585,518.7524 593.795,460.2335 524.7784,416.8767 L 524.7784,415.9921 Z M 340.7435,383.7184 C 275.945,359.8257 238.2601,290.1973 238.2601,222.1094 238.2601,192.0184 238.2601,113.5213 238.2601,70.8671 L 238.2601,70.8677 587.0996,70.8677 C 587.0996,103.8591 587.0996,193.4258 587.0996,221.4016 587.0996,286.1978 542.8502,358.1907 482.4468,384.318 458.6425,400.0196 466.1177,443.9407 485.3916,451.3024 L 484.8453,450.8771 C 549.6461,474.7687 594.4171,542.4797 594.4171,610.569 594.4171,640.66 594.4171,719.1571 594.4171,761.8113 L 594.4171,761.8107 245.5776,761.8107 C 245.5776,728.8193 245.5776,639.2527 245.5776,611.2769 245.5776,546.4821 282.1412,477.0052 342.5424,450.8771 363.8992,437.8357 363.6053,397.294 340.5497,383.7301 L 340.7435,383.7184 Z" />
	<path style="fill-rule:evenodd;fill:#2d2c2b;" d="M 464.4814,284.3104 L 464.4814,284.3104 Z M 545.9883,262.317 C 546.3655,255.0504 530.3935,254.5335 519.8511,254.6077 L 312.3319,256.1021 C 302.0102,256.1777 289.0072,255.7897 286.9266,263.9115 280.627,326.1854 400.9494,362.3081 411.0468,362.3416 447.7742,362.8581 545.2142,324.1193 545.9883,262.317 Z" />
	<path style="fill-rule:evenodd;fill:#2d2c2b;" d="M 364.7977,664.3618 L 364.7977,664.3618 Z M 277.5386,712.3396 C 276.8919,726.5444 294.1613,728.8469 305.5204,729.1573 L 527.6848,725.8972 C 538.735,725.7323 555.1921,722.323 554.8831,708.8612 557.4165,549.8227 504.3485,500.4146 422.0034,494.1389 292.504,512.3683 278.3674,577.5198 277.5386,712.3396 Z" />
	<path style="fill-rule:evenodd;fill:#2d2c2b;" d="M 437.6,351.1082 C 437.6,339.3667 428.0817,329.8484 416.3402,329.8484 404.5987,329.8484 395.0804,339.3667 395.0804,351.1082 L 395.0804,550.646 C 395.0804,562.3875 404.5987,571.9058 416.3402,571.9058 428.0817,571.9058 437.6,562.3875 437.6,550.646 L 437.6,351.1082 Z" />
</g>
</svg>