<?xml version="1.0" encoding="utf-8"?>
<!-- Created by sK1 2.0rc4 (https://sk1project.net/) -->
<svg xmlns="http://www.w3.org/2000/svg" height="832.677165354pt" viewBox="0 0 832.677165354 832.677165354" width="832.677165354pt" version="1.1" xmlns:xlink="http://www.w3.org/1999/xlink" id="67559840-b38e-11ea-be2e-a0f3c11e789f">

<g>
	<path style="fill:#2d2c2b;" d="M 416.3317,194.6926 C 311.2986,194.828 225.4084,277.2132 220.1599,380.9628 219.6498,384.4326 219.8029,387.5938 219.8379,390.5559 219.847,390.2902 219.8349,390.521 219.8232,390.7519 219.8379,392.3746 219.8698,393.2288 219.9071,394.0816 219.9636,397.0093 220.0728,400.2985 220.2407,403.5187 220.3097,404.8282 220.3595,405.6163 220.414,406.4032 228.4894,541.8385 321.6661,572.6455 324.0211,640.0311 L 505.5529,640.0311 C 520.5474,550.031 588.9909,549.2541 609.3396,428.5079 L 609.2131,428.4911 C 611.505,417.2946 612.832,404.421 612.8613,391.2431 612.8612,282.6993 524.8544,194.6926 416.3336,194.6926 416.3329,194.6926 416.3323,194.6926 416.3316,194.6926 L 416.3317,194.6926 Z M 359.5818,243.7834 C 368.3455,244.1019 375.3317,251.2857 375.3317,260.098 375.3317,266.2107 371.9702,271.5398 366.9954,274.3373 331.5431,294.642 311.4188,322.0506 301.575,353.4621 291.7312,384.8736 292.6485,420.6413 302.0769,455.7199 307.2671,473.558 278.715,490.1366 270.4257,464.0407 270.4503,464.0575 270.3007,463.5161 270.4503,464.0575 259.6969,424.0361 258.3169,382.3383 270.4259,343.6983 282.535,305.0584 308.7255,270.0919 350.6868,246.0546 353.0671,244.6214 355.9398,243.7734 359.0101,243.7734 359.2111,243.7734 359.4112,243.777 359.6105,243.7842 L 359.5818,243.7834 Z" />
	<path style="fill:#2d2c2b;" d="M 334.4973,674.7585 L 334.4973,771.0504 C 378.0374,777.3985 356.1118,818.1519 416.3324,816.8425 475.0728,817.5037 455.7111,774.6021 498.1689,771.0504 L 498.1689,674.7585 334.4973,674.7585 Z" />
	<path style="fill:#2d2c2b;" d="M 415.9985,15.8042 C 403.912,15.9926 394.1827,25.8384 394.1827,37.952 394.1827,38.0616 394.1835,38.171 394.1851,38.2802 L 394.1849,116.3934 C 394.1835,116.4868 394.1827,116.5969 394.1827,116.7071 394.1827,128.9383 404.1018,138.8574 416.333,138.8574 428.5642,138.8574 438.4833,128.9383 438.4833,116.7071 438.4833,116.5969 438.4825,116.4868 438.4809,116.3769 L 438.481,38.2637 C 438.4824,38.171 438.4832,38.0616 438.4832,37.952 438.4832,25.7208 428.5641,15.8017 416.3329,15.8017 416.2154,15.8017 416.098,15.8026 415.9808,15.8044 Z" />
	<path style="fill:#2d2c2b;" d="M 689.3045,119.2062 C 685.451,115.8812 680.3955,113.8552 674.8677,113.8552 668.1723,113.8552 662.1697,116.8275 658.1077,121.5242 L 606.272,180.0309 C 602.6882,183.9536 600.4919,189.1971 600.4919,194.9525 600.4919,207.1837 610.411,217.1028 622.6422,217.1028 629.338,217.1028 635.3409,214.1302 639.4029,209.4329 L 691.2386,150.9262 C 694.822,147.0036 697.018,141.7605 697.018,136.0055 697.018,129.3021 694.0386,123.2932 689.3321,119.231 Z" />
	<path style="fill:#2d2c2b;" d="M 828.3262,424.0989 C 828.0373,412.0918 818.2316,402.4649 806.1819,402.4649 806.0084,402.4649 805.8354,402.4669 805.6629,402.4708 L 727.5613,403.1114 C 727.5222,403.1112 727.4759,403.111 727.4295,403.111 715.1983,403.111 705.2792,413.0301 705.2792,425.2613 705.2792,437.4925 715.1983,447.4116 727.4295,447.4116 727.6037,447.4116 727.7774,447.4096 727.9506,447.4056 L 806.052,446.7651 C 806.0907,446.7653 806.1363,446.7655 806.1821,446.7655 818.4133,446.7655 828.3324,436.8464 828.3324,424.6152 828.3324,424.4337 828.3302,424.2527 828.3258,424.0722 L 828.3262,424.0989 Z" />
	<path style="fill:#2d2c2b;" d="M 723.4141,702.5018 C 726.7879,698.6343 728.8458,693.5428 728.8458,687.9717 728.8458,681.3197 725.912,675.3515 721.268,671.291 L 663.0533,619.1316 C 659.1185,615.4971 653.8391,613.2674 648.04,613.2674 635.8088,613.2674 625.8897,623.1865 625.8897,635.4177 625.8897,642.0704 628.8242,648.0391 633.4691,652.0997 L 691.6838,704.2591 C 695.6184,707.8927 700.8972,710.1219 706.6956,710.1219 713.3556,710.1219 719.3301,707.181 723.3909,702.5273 Z" />
	<path style="fill:#2d2c2b;" d="M 105.8305,698.6284 C 109.9037,703.1506 115.7787,705.9822 122.3139,705.9822 128.0019,705.9822 133.19,703.8371 137.1129,700.3118 L 196.0158,649.0236 C 200.8255,644.9335 203.8579,638.8775 203.8579,632.1147 203.8579,619.8835 193.9388,609.9644 181.7076,609.9644 176.019,609.9644 170.8306,612.11 166.9075,615.6358 L 108.0045,666.9239 C 103.1955,671.0141 100.1635,677.0696 100.1635,683.8319 100.1635,689.528 102.3148,694.7227 105.8489,698.6476 Z" />
	<path style="fill:#2d2c2b;" d="M 4.3472,423.3473 C 4.3907,435.5456 14.2931,445.4212 26.4974,445.4212 26.5162,445.4212 26.5351,445.4212 26.5539,445.4211 L 104.6754,446.3316 C 104.8457,446.3363 105.046,446.339 105.2469,446.339 117.4782,446.339 127.3972,436.4199 127.3972,424.1887 127.3972,411.9574 117.4782,402.0383 105.2469,402.0383 105.2275,402.0383 105.2081,402.0384 105.1886,402.0384 L 27.0672,401.1279 C 26.8974,401.1232 26.6977,401.1206 26.4974,401.1206 14.2662,401.1206 4.3471,411.0397 4.3471,423.2709 4.3471,423.2978 4.3471,423.3246 4.3472,423.3515 Z" />
	<path style="fill:#2d2c2b;" d="M 142.0282,120.3907 C 137.6155,124.4539 134.8596,130.2587 134.8596,136.7058 134.8596,142.4819 137.0717,147.7423 140.6946,151.686 L 192.6486,210.0099 C 196.7337,214.7079 202.72,217.662 209.395,217.662 221.6262,217.662 231.5453,207.7429 231.5453,195.5117 231.5453,189.7351 229.3328,184.4742 225.7091,180.5304 L 173.7552,122.2064 C 169.6701,117.5091 163.6843,114.5555 157.0099,114.5555 151.2259,114.5555 145.9588,116.7737 142.0133,120.4056 Z" />
</g>
</svg>