<?xml version="1.0" encoding="utf-8"?>
<!-- Created by sK1 2.0rc4 (https://sk1project.net/) -->
<svg xmlns="http://www.w3.org/2000/svg" height="832.677165354pt" viewBox="0 0 832.677165354 832.677165354" width="832.677165354pt" version="1.1" xmlns:xlink="http://www.w3.org/1999/xlink" id="b6956a8e-b38e-11ea-be2e-a0f3c11e789f">

<g>
	<g>
		<path style="fill:#2d2c2b;" d="M 416.3493,3.9528 C 276.7879,4.1327 162.6624,113.601 155.6885,251.4571 155.0107,256.0675 155.2141,260.2679 155.2606,264.2037 155.2727,263.8507 155.2566,264.1574 155.2411,264.4642 155.2606,266.6204 155.303,267.7554 155.3526,268.8886 155.4276,272.7787 155.5727,277.1491 155.7958,281.4279 155.8875,283.168 155.9537,284.2152 156.0261,285.2607 166.7561,465.2188 290.5635,506.1532 293.6927,595.691 L 534.901,595.691 C 554.8248,476.1044 645.7682,475.072 672.8063,314.6321 L 672.6382,314.6097 C 675.6836,299.7326 677.4468,282.6268 677.4857,265.1169 677.4856,120.8907 560.5477,3.9528 416.3519,3.9528 416.351,3.9528 416.3501,3.9528 416.3492,3.9528 L 416.3493,3.9528 Z M 340.9436,69.1816 C 352.5882,69.6048 361.8711,79.1502 361.8711,90.8594 361.8711,98.9816 357.4046,106.0626 350.7943,109.7797 303.6876,136.7594 276.9476,173.1782 263.8678,214.9158 250.788,256.6535 252.0068,304.1793 264.5347,350.7897 271.4311,374.4918 233.4929,396.5205 222.4786,361.8458 222.5112,361.8682 222.3125,361.1487 222.5112,361.8682 208.2228,308.6902 206.3891,253.2847 222.4788,201.9424 238.5686,150.6001 273.3689,104.1387 329.1246,72.1994 332.2873,70.2951 336.1043,69.1683 340.1839,69.1683 340.451,69.1683 340.717,69.1731 340.9818,69.1827 L 340.9436,69.1816 Z" />
		<path style="fill:#2d2c2b;" d="M 305.6677,639.8893 L 305.6677,767.8361 C 363.521,776.2711 334.3877,830.4216 414.4051,828.6818 492.4558,829.5603 466.7291,772.5554 523.1444,767.8361 L 523.1444,639.8893 305.6677,639.8893 Z" />
	</g>
</g>
</svg>