<?xml version="1.0" encoding="utf-8"?>
<!-- Created by sK1 2.0rc4 (https://sk1project.net/) -->
<svg xmlns="http://www.w3.org/2000/svg" height="832.677165354pt" viewBox="0 0 832.677165354 832.677165354" width="832.677165354pt" version="1.1" xmlns:xlink="http://www.w3.org/1999/xlink" id="b7ee2536-b390-11ea-be2e-a0f3c11e789f">

<g>
	<path style="fill-rule:evenodd;fill:#2d2c2b;" d="M 104.5175,396.7304 C 90.3716,396.7304 78.8998,386.9507 78.8998,374.8914 L 188.0414,22.8326 C 188.0414,10.7733 199.5132,0.9936 213.6591,0.9936 L 620.0497,0.9936 C 634.1956,0.9936 645.6674,10.7733 645.6674,22.8326 L 753.7771,374.8914 C 753.7771,386.9507 742.3052,396.7304 728.1593,396.7304 L 104.5175,396.7304 Z" />
	<path style="fill-rule:evenodd;fill:#2d2c2b;" d="M 619.0934,789.7808 L 619.0936,789.7808 C 618.6849,715.4863 528.0462,655.3205 416.3386,655.3205 304.631,655.3205 213.9922,715.4863 213.5836,789.7808 228.974,821.4957 265.2429,832.6783 309.9658,832.6783 L 522.7146,832.6783 C 557.1431,831.8219 607.5121,818.1841 619.0934,789.7808 Z" />
	<path style="fill-rule:evenodd;fill:#2d2c2b;" d="M 351.3397,702.1 L 351.3397,303.9075 481.3378,303.9075 481.3378,702.1 351.3397,702.1 Z" />
	<path style="fill-rule:evenodd;fill:#2d2c2b;" d="M 521.4085,530.3553 C 521.4085,457.9248 474.3575,399.1862 416.3392,399.1862 358.3208,399.1862 311.2698,457.9248 311.2698,530.3553 311.2698,602.7857 358.3208,661.5244 416.3392,661.5244 474.3575,661.5244 521.4085,602.7857 521.4085,530.3553 Z" />
	<path style="fill-rule:evenodd;fill:#2d2c2b;" d="M 664.1229,567.7154 L 664.1229,383.2586 677.2984,383.2586 677.2984,567.7154 664.1229,567.7154 Z" />
	<path style="fill-rule:evenodd;fill:#2d2c2b;" d="M 702.1853,579.4269 C 702.1853,562.451 688.4184,548.6841 671.4426,548.6841 654.4667,548.6841 640.6998,562.451 640.6998,579.4269 640.6998,596.4027 654.4667,610.1696 671.4426,610.1696 688.4184,610.1696 702.1853,596.4027 702.1853,579.4269 Z" />
</g>
</svg>