<?xml version="1.0" encoding="utf-8"?>
<!-- Created by sK1 2.0rc4 (https://sk1project.net/) -->
<svg xmlns="http://www.w3.org/2000/svg" height="832.677165354pt" viewBox="0 0 832.677165354 832.677165354" width="832.677165354pt" version="1.1" xmlns:xlink="http://www.w3.org/1999/xlink" id="c9f86198-b1e6-11ea-bb2a-a0f3c11e789f">

<g>
	<g>
		<path style="fill:#000000;" d="M 524.5313,367.4784 C 516.9867,348.9247 506.1968,332.0971 492.7567,318.1334 465.2182,289.5222 426.2651,272.4284 385.0497,272.5065 345.1025,272.5821 303.031,288.7897 267.1665,326.2799 267.1542,326.2952 267.1411,326.3088 267.128,326.3225 L 54.5695,549.2805 C 18.4271,586.8567 1.7437,631.8975 2.7659,674.1357 3.7881,716.3738 21.5107,754.8135 48.5415,782.8974 75.5724,810.9812 112.4883,829.3191 152.9922,830.3097 193.4961,831.3004 236.6793,813.9068 272.725,776.2299 272.7374,776.2146 272.7505,776.2009 272.7636,776.1872 L 398.5913,644.2032 352.7033,596.299 226.7984,728.366 C 201.4724,754.8336 177.0498,763.133 154.5113,762.5818 131.9701,762.0305 110.4041,751.5912 94.3189,734.8794 78.2336,718.1676 68.2055,695.7943 67.6399,672.4238 67.0743,649.0532 74.9662,623.6877 100.3636,597.2828 100.397,597.2457 100.4303,597.2109 100.4635,597.176 L 313.083,374.151 C 313.0846,374.1493 313.0864,374.1474 313.088,374.1458 338.1571,347.9422 362.8452,337.4474 385.2761,337.3689 409.1557,337.2854 430.4779,349.0072 446.9793,366.1515 461.2173,380.9442 471.5334,399.4349 474.0842,420.142 L 524.5313,367.4784 Z" />
		<path style="fill:#000000;" d="M 308.1475,465.1961 C 315.692,483.7496 326.482,500.5772 339.9221,514.5409 367.4605,543.1521 406.4137,560.2459 447.6291,560.1678 487.5763,560.0922 529.6477,543.8846 565.5123,506.3944 565.5247,506.379 565.5378,506.3653 565.5509,506.3516 L 778.1091,283.3939 C 814.2516,245.8178 830.935,200.7769 829.9127,158.5388 828.8906,116.3006 811.168,77.8609 784.1371,49.7771 757.1062,21.6933 720.1904,3.3554 679.6865,2.3648 639.1826,1.3741 595.9995,18.7676 559.9538,56.4445 559.9414,56.4599 559.9282,56.4736 559.9151,56.4873 L 434.0875,188.4712 479.9755,236.3755 605.8803,104.3084 C 631.2062,77.8408 655.6289,69.5414 678.1673,70.0927 700.7086,70.644 722.2745,81.0832 738.3598,97.7951 754.445,114.5069 764.4732,136.8801 765.0388,160.2507 765.6043,183.6212 757.7125,208.9868 732.315,235.3917 732.2816,235.4288 732.2483,235.4636 732.2151,235.4985 L 519.5958,458.5234 C 519.5942,458.5251 519.5923,458.527 519.5906,458.5288 494.5216,484.7322 469.8335,495.227 447.4026,495.3055 423.5229,495.3891 402.2007,483.6672 385.6994,466.5231 371.4613,451.7304 361.1453,433.2397 358.5945,412.5326 L 308.1475,465.1961 Z" />
	</g>
</g>
</svg>