<?xml version="1.0" encoding="utf-8"?>
<!-- Created by sK1 2.0rc4 (https://sk1project.net/) -->
<svg xmlns="http://www.w3.org/2000/svg" height="832.677165354pt" viewBox="0 0 832.677165354 832.677165354" width="832.677165354pt" version="1.1" xmlns:xlink="http://www.w3.org/1999/xlink" id="c0a473f4-b0f9-11ea-bb2a-a0f3c11e789f">

<g>
	<path style="fill-rule:evenodd;fill:#2d2c2b;" d="M 9.9781,413.481 C 12.3698,645.3629 195.6591,832.6483 421.3277,832.6483 647.1069,832.6483 830.4651,645.1795 832.6808,413.1404 832.6851,412.6864 832.5877,158.9332 832.5907,158.4788 L 650.8753,158.4787 C 650.4636,161.6647 650.5646,414.9636 651.0353,414.9636 622.9748,562.4496 528.3109,644.0073 420.1843,644.0073 312.1635,644.0073 224.3025,560.3413 196.146,413.0768 196.0632,412.6441 196.1291,158.6525 196.0475,158.2191 L 10.1121,158.219 9.9781,413.481 Z" />
	<path style="fill-rule:evenodd;fill:#2d2c2b;" d="M 10.2627,89.126 L 10.2627,-0.0018 196.2556,-0.0018 196.2556,89.126 10.2627,89.126 Z" />
	<path style="fill-rule:evenodd;fill:#2d2c2b;" d="M 650.851,89.1287 L 650.851,0.0009 832.6764,0.0009 832.6764,89.1287 650.851,89.1287 Z" />
</g>
</svg>