<?xml version="1.0" encoding="utf-8"?>
<!-- Created by sK1 2.0rc4 (https://sk1project.net/) -->
<svg xmlns="http://www.w3.org/2000/svg" height="832.677165354pt" viewBox="0 0 832.677165354 832.677165354" width="832.677165354pt" version="1.1" xmlns:xlink="http://www.w3.org/1999/xlink" id="90246422-b375-11ea-be2e-a0f3c11e789f">

<g>
	<g>
		<path style="fill-rule:evenodd;fill:#2d2c2b;" d="M 436.4596,192.6123 C 481.5773,192.6123 516.9398,202.3712 542.5471,221.7432 568.1545,241.261 580.9581,276.8007 580.9581,328.3625 580.9581,349.7738 577.2999,365.9414 569.9836,376.7199 562.6672,387.644 548.0344,401.7725 526.0853,419.2511 557.7896,441.8276 573.6417,473.8716 573.6417,515.3832 L 573.6417,556.7491 C 573.6417,583.9866 581.1105,603.7956 596.2006,616.1763 L 596.2006,640.0636 517.5495,640.0636 C 510.2331,621.1285 505.3555,606.2718 502.9167,595.7846 500.7828,585.0062 499.8682,571.0233 499.8682,553.836 L 499.8682,526.453 C 499.8682,502.8569 495.9052,484.7957 488.284,472.2694 480.5103,459.8887 464.0484,453.6256 438.8984,453.6256 L 310.252,453.6256 310.252,640.0636 236.4785,640.0636 236.4785,192.6123 Z M 451.7021,389.5375 C 469.5357,389.5375 483.1015,384.8766 492.5518,375.5546 502.307,366.2327 507.1846,348.1716 507.1846,321.3711 507.1846,277.966 484.0161,256.1178 437.679,256.1178 L 310.252,256.1178 310.252,389.5375 Z" />
	</g>
	<path style="fill-rule:evenodd;fill:#2d2c2b;" d="M 830.5928,416.3363 C 830.5928,187.5853 645.0917,2.0843 416.3407,2.0843 187.5897,2.0843 2.0886,187.5853 2.0886,416.3363 2.0886,645.0874 187.5897,830.5884 416.3407,830.5884 645.0917,830.5884 830.5928,645.0874 830.5928,416.3363 Z M 731.3802,416.3363 C 731.3802,590.2938 590.2981,731.3758 416.3407,731.3758 242.3833,731.3758 101.3012,590.2938 101.3012,416.3363 101.3012,242.3789 242.3833,101.2969 416.3407,101.2969 590.2981,101.2969 731.3802,242.3789 731.3802,416.3363 Z" />
</g>
</svg>