<?xml version="1.0" encoding="utf-8"?>
<!-- Created by sK1 2.0rc4 (https://sk1project.net/) -->
<svg xmlns="http://www.w3.org/2000/svg" height="832.677165354pt" viewBox="0 0 832.677165354 832.677165354" width="832.677165354pt" version="1.1" xmlns:xlink="http://www.w3.org/1999/xlink" id="ae4eafe8-b375-11ea-be2e-a0f3c11e789f">

<g>
	<path style="fill-rule:evenodd;fill:#2d2c2b;" d="M 539.1167,338.2088 C 525.7417,283.1637 489.2175,255.5604 429.3727,255.5604 387.7042,255.5604 355.2955,270.0884 331.9749,298.8217 308.6542,327.232 296.9939,367.1034 296.9939,418.2744 296.9939,468.6382 308.1398,508.0253 330.6031,536.4357 353.4092,564.8461 385.1321,579.0513 425.9432,579.0513 458.8664,579.0513 485.1021,571.1416 504.8217,555.1607 524.3699,538.8571 535.8587,516.0965 539.1167,486.7176 L 641.3158,486.7176 C 638.0578,540.9556 616.7949,584.2168 577.5271,616.5013 538.0879,648.463 486.6453,664.2824 423.1996,664.2824 351.866,664.2824 295.2792,642.1675 253.7822,597.7763 212.1138,553.5465 191.3653,493.1745 191.3653,416.983 191.3653,340.7915 212.2853,280.4195 254.4681,235.544 296.4795,190.8299 353.5807,168.3922 425.9432,168.3922 486.3024,168.3922 535.6872,183.5659 574.0976,213.5905 612.851,243.7766 634.6283,285.2622 639.2581,338.2088 L 539.1167,338.2088 Z" />
	<path style="fill-rule:evenodd;fill:#2d2c2b;" d="M 820.6704,416.3369 C 820.6704,193.0652 639.6113,12.006 416.3396,12.006 193.0679,12.006 12.0088,193.0652 12.0088,416.3369 12.0088,639.6086 193.0679,820.6677 416.3396,820.6677 639.6113,820.6677 820.6704,639.6086 820.6704,416.3369 Z M 741.3003,416.3369 C 741.3003,595.7737 595.7764,741.2976 416.3396,741.2976 236.9028,741.2976 91.3789,595.7737 91.3789,416.3369 91.3789,236.9001 236.9028,91.3761 416.3396,91.3761 595.7764,91.3761 741.3003,236.9001 741.3003,416.3369 Z" />
</g>
</svg>