<?xml version="1.0" encoding="utf-8"?>
<!-- Created by sK1 2.0rc4 (https://sk1project.net/) -->
<svg xmlns="http://www.w3.org/2000/svg" height="832.677165354pt" viewBox="0 0 832.677165354 832.677165354" width="832.677165354pt" version="1.1" xmlns:xlink="http://www.w3.org/1999/xlink" id="01c50c9c-b440-11ea-be2e-a0f3c11e789f">

<g>
	<path style="fill-rule:evenodd;fill:#2d2c2b;" d="M 651.0846,336.1135 C 643.4047,336.1135 635.345,350.8787 613.1476,380.3926 552.4352,461.0892 457.3863,562.5298 472.3166,661.4765 487.247,760.4232 579.5378,828.5347 678.4845,813.6209 777.4312,798.6905 845.5427,706.3832 830.6288,607.4365 823.1637,557.9714 728.1808,439.6021 686.7754,380.4587 666.081,350.8952 658.7645,336.1135 651.0846,336.1135 L 651.0846,336.1135 Z M 792.5432,581.4075 C 835.1377,709.1909 725.9346,807.4769 623.2719,782.3563 699.7074,738.6718 769.6191,698.2574 792.5432,581.4075 L 792.5432,581.4075 Z" />
	<path style="fill-rule:evenodd;fill:#2d2c2b;" d="M 72.7602,-0.0463 C 61.0196,-0.2232 51.3883,11.6458 51.2482,26.4638 51.1081,41.2818 60.5121,53.4376 72.2528,53.6144 L 163.4164,54.9877 C 175.1571,55.1645 184.7883,43.2955 184.9285,28.4775 185.0686,13.6595 175.6645,1.5038 163.9239,1.3269 L 72.7602,-0.0463 Z M 27.1522,85.7187 C 15.4107,85.7187 5.8923,97.732 5.8923,112.551 5.8923,127.3701 15.4107,139.3833 27.1522,139.3833 L 582.1609,139.3833 C 593.9024,139.3833 603.4207,127.3701 603.4207,112.551 603.4207,97.732 593.9024,85.7187 582.1609,85.7187 L 27.1522,85.7187 Z M 446.4565,741.6528 L 27.7089,741.6528 27.7089,510.6049 468.5323,510.6049 C 438.4023,564.4926 418.7201,620.64 426.6307,676.1252 429.9774,699.5989 436.7979,721.6071 446.4563,741.6529 L 446.4565,741.6528 Z M 563.4984,371.7443 L 27.7089,371.7443 27.7089,176.9392 575.8805,176.9392 575.8805,354.8473 C 571.8471,360.405 567.7097,366.0391 563.4984,371.7443 L 563.4984,371.7443 Z M 600.0415,820.3642 L 600.0415,820.3642 Z M 469.3913,779.0109 L 27.1522,779.0109 C 15.4107,779.0109 5.8923,791.0241 5.8923,805.8432 5.8923,820.6622 15.4107,832.6755 27.1522,832.6755 L 530.3085,832.6755 C 506.9494,819.2193 486.2019,800.986 469.3913,779.0109 L 469.3913,779.0109 Z M 531.5564,415.0173 L 27.1522,415.0173 C 15.4107,415.0173 5.8923,427.0305 5.8923,441.8496 5.8923,456.6687 15.4107,468.6819 27.1522,468.6819 L 494.1131,468.6819 C 506.1139,450.3848 518.8369,432.4553 531.5564,415.0172 L 531.5564,415.0173 Z" />
</g>
</svg>