<?xml version="1.0" encoding="utf-8"?>
<!-- Created by sK1 2.0rc4 (https://sk1project.net/) -->
<svg xmlns="http://www.w3.org/2000/svg" height="832.677165354pt" viewBox="0 0 832.677165354 832.677165354" width="832.677165354pt" version="1.1" xmlns:xlink="http://www.w3.org/1999/xlink" id="de2a942a-b43d-11ea-be2e-a0f3c11e789f">

<g>
	<g>
		<path style="fill-rule:evenodd;fill:#2d2c2b;" d="M 416.3381,162.0427 C 460.1163,162.0427 495.6189,126.5401 495.6189,82.7619 495.6189,38.9837 460.1163,3.481 416.3381,3.481 372.5598,3.481 337.0572,38.9837 337.0572,82.7619 337.0572,126.5401 372.5598,162.0427 416.3381,162.0427 Z" />
		<path style="fill-rule:evenodd;fill:#2d2c2b;" d="M 416.3381,494.1248 C 460.1163,494.1248 495.6189,458.6222 495.6189,414.844 495.6189,371.0658 460.1163,335.5631 416.3381,335.5631 372.5598,335.5631 337.0572,371.0658 337.0572,414.844 337.0572,458.6222 372.5598,494.1248 416.3381,494.1248 Z" />
		<path style="fill-rule:evenodd;fill:#2d2c2b;" d="M 416.3381,829.1987 C 460.1163,829.1987 495.6189,793.696 495.6189,749.9178 495.6189,706.1396 460.1163,670.6369 416.3381,670.6369 372.5598,670.6369 337.0572,706.1396 337.0572,749.9178 337.0572,793.696 372.5598,829.1987 416.3381,829.1987 Z" />
	</g>
</g>
</svg>