<?xml version="1.0" encoding="utf-8"?>
<!-- Created by sK1 2.0rc4 (https://sk1project.net/) -->
<svg xmlns="http://www.w3.org/2000/svg" height="832.677165354pt" viewBox="0 0 832.677165354 832.677165354" width="832.677165354pt" version="1.1" xmlns:xlink="http://www.w3.org/1999/xlink" id="d21609ee-b43d-11ea-be2e-a0f3c11e789f">

<g>
	<g>
		<path style="fill-rule:evenodd;fill:#2d2c2b;" d="M 162.0427,416.3391 C 162.0427,372.5609 126.5401,337.0583 82.7619,337.0583 38.9837,337.0583 3.481,372.5609 3.481,416.3391 3.481,460.1173 38.9837,495.62 82.7619,495.62 126.5401,495.62 162.0427,460.1173 162.0427,416.3391 Z" />
		<path style="fill-rule:evenodd;fill:#2d2c2b;" d="M 494.1248,416.3391 C 494.1248,372.5609 458.6222,337.0583 414.844,337.0583 371.0658,337.0583 335.5631,372.5609 335.5631,416.3391 335.5631,460.1173 371.0658,495.62 414.844,495.62 458.6222,495.62 494.1248,460.1173 494.1248,416.3391 Z" />
		<path style="fill-rule:evenodd;fill:#2d2c2b;" d="M 829.1987,416.3391 C 829.1987,372.5609 793.696,337.0583 749.9178,337.0583 706.1396,337.0583 670.6369,372.5609 670.6369,416.3391 670.6369,460.1173 706.1396,495.62 749.9178,495.62 793.696,495.62 829.1987,460.1173 829.1987,416.3391 Z" />
	</g>
</g>
</svg>