<?xml version="1.0" encoding="UTF-8"?>
<!DOCTYPE svg PUBLIC "-//W3C//DTD SVG 1.1//EN" "http://www.w3.org/Graphics/SVG/1.1/DTD/svg11.dtd">
<svg version="1.2" width="293.75mm" height="293.75mm" viewBox="0 0 29375 29375" preserveAspectRatio="xMidYMid" fill-rule="evenodd" stroke-width="28.222" stroke-linejoin="round" xmlns="http://www.w3.org/2000/svg" xmlns:ooo="http://xml.openoffice.org/svg/export" xmlns:xlink="http://www.w3.org/1999/xlink" xmlns:presentation="http://sun.com/xmlns/staroffice/presentation" xmlns:smil="http://www.w3.org/2001/SMIL20/" xmlns:anim="urn:oasis:names:tc:opendocument:xmlns:animation:1.0" xml:space="preserve">
 <defs class="ClipPathGroup">
  <clipPath id="presentation_clip_path" clipPathUnits="userSpaceOnUse">
   <rect x="0" y="0" width="29375" height="29375"/>
  </clipPath>
  <clipPath id="presentation_clip_path_shrink" clipPathUnits="userSpaceOnUse">
   <rect x="29" y="29" width="29317" height="29317"/>
  </clipPath>
 </defs>
 <defs class="TextShapeIndex">
  <g ooo:slide="id1" ooo:id-list="id3"/>
 </defs>
 <defs class="EmbeddedBulletChars">
  <g id="bullet-char-template-57356" transform="scale(0.00048828125,-0.00048828125)">
   <path d="M 580,1141 L 1163,571 580,0 -4,571 580,1141 Z"/>
  </g>
  <g id="bullet-char-template-57354" transform="scale(0.00048828125,-0.00048828125)">
   <path d="M 8,1128 L 1137,1128 1137,0 8,0 8,1128 Z"/>
  </g>
  <g id="bullet-char-template-10146" transform="scale(0.00048828125,-0.00048828125)">
   <path d="M 174,0 L 602,739 174,1481 1456,739 174,0 Z M 1358,739 L 309,1346 659,739 1358,739 Z"/>
  </g>
  <g id="bullet-char-template-10132" transform="scale(0.00048828125,-0.00048828125)">
   <path d="M 2015,739 L 1276,0 717,0 1260,543 174,543 174,936 1260,936 717,1481 1274,1481 2015,739 Z"/>
  </g>
  <g id="bullet-char-template-10007" transform="scale(0.00048828125,-0.00048828125)">
   <path d="M 0,-2 C -7,14 -16,27 -25,37 L 356,567 C 262,823 215,952 215,954 215,979 228,992 255,992 264,992 276,990 289,987 310,991 331,999 354,1012 L 381,999 492,748 772,1049 836,1024 860,1049 C 881,1039 901,1025 922,1006 886,937 835,863 770,784 769,783 710,716 594,584 L 774,223 C 774,196 753,168 711,139 L 727,119 C 717,90 699,76 672,76 641,76 570,178 457,381 L 164,-76 C 142,-110 111,-127 72,-127 30,-127 9,-110 8,-76 1,-67 -2,-52 -2,-32 -2,-23 -1,-13 0,-2 Z"/>
  </g>
  <g id="bullet-char-template-10004" transform="scale(0.00048828125,-0.00048828125)">
   <path d="M 285,-33 C 182,-33 111,30 74,156 52,228 41,333 41,471 41,549 55,616 82,672 116,743 169,778 240,778 293,778 328,747 346,684 L 369,508 C 377,444 397,411 428,410 L 1163,1116 C 1174,1127 1196,1133 1229,1133 1271,1133 1292,1118 1292,1087 L 1292,965 C 1292,929 1282,901 1262,881 L 442,47 C 390,-6 338,-33 285,-33 Z"/>
  </g>
  <g id="bullet-char-template-9679" transform="scale(0.00048828125,-0.00048828125)">
   <path d="M 813,0 C 632,0 489,54 383,161 276,268 223,411 223,592 223,773 276,916 383,1023 489,1130 632,1184 813,1184 992,1184 1136,1130 1245,1023 1353,916 1407,772 1407,592 1407,412 1353,268 1245,161 1136,54 992,0 813,0 Z"/>
  </g>
  <g id="bullet-char-template-8226" transform="scale(0.00048828125,-0.00048828125)">
   <path d="M 346,457 C 273,457 209,483 155,535 101,586 74,649 74,723 74,796 101,859 155,911 209,963 273,989 346,989 419,989 480,963 531,910 582,859 608,796 608,723 608,648 583,586 532,535 482,483 420,457 346,457 Z"/>
  </g>
  <g id="bullet-char-template-8211" transform="scale(0.00048828125,-0.00048828125)">
   <path d="M -4,459 L 1135,459 1135,606 -4,606 -4,459 Z"/>
  </g>
  <g id="bullet-char-template-61548" transform="scale(0.00048828125,-0.00048828125)">
   <path d="M 173,740 C 173,903 231,1043 346,1159 462,1274 601,1332 765,1332 928,1332 1067,1274 1183,1159 1299,1043 1357,903 1357,740 1357,577 1299,437 1183,322 1067,206 928,148 765,148 601,148 462,206 346,322 231,437 173,577 173,740 Z"/>
  </g>
 </defs>
 <defs class="TextEmbeddedBitmaps"/>
 <g>
  <g id="id2" class="Master_Slide">
   <g id="bg-id2" class="Background"/>
   <g id="bo-id2" class="BackgroundObjects"/>
  </g>
 </g>
 <g class="SlideGroup">
  <g>
   <g id="container-id1">
    <g id="id1" class="Slide" clip-path="url(#presentation_clip_path)">
     <g class="Page">
      <g class="Graphic">
       <g id="id3">
        <rect class="BoundingBox" stroke="none" fill="none" x="-13" y="-13" width="29401" height="29401"/>
        <path fill="rgb(0,0,0)" stroke="none" d="M 15399,441 C 15334,393 15271,359 15191,325 15030,259 14873,228 14687,228 14502,228 14344,259 14183,325 14103,359 14040,393 13975,441 L 445,10171 C 380,10218 332,10263 285,10320 192,10436 150,10549 150,10683 150,10816 192,10930 285,11045 332,11103 380,11148 445,11195 L 13975,20925 C 14040,20972 14103,21007 14183,21040 14344,21107 14502,21137 14687,21137 14873,21137 15030,21107 15191,21040 15271,21007 15334,20972 15399,20925 L 28929,11195 C 28994,11148 29043,11103 29089,11045 29182,10930 29224,10816 29224,10683 29224,10549 29182,10436 29089,10320 29043,10263 28994,10218 28929,10171 L 15399,441 Z M 14687,1977 L 26792,10683 14687,19388 2582,10683 14687,1977 Z"/>
        <path fill="rgb(0,0,0)" stroke="none" d="M 1146,13711 C 966,13711 814,13753 658,13843 502,13934 390,14046 300,14203 211,14360 170,14513 170,14694 170,14875 211,15029 300,15186 376,15318 465,15415 590,15502 L 14119,25232 C 14146,25251 14170,25266 14199,25283 14354,25374 14507,25415 14687,25415 14867,25415 15020,25374 15175,25283 15204,25266 15228,25251 15255,25232 L 28784,15502 C 28908,15415 28997,15318 29072,15187 29162,15030 29203,14876 29203,14695 29203,14514 29162,14361 29072,14204 28982,14047 28870,13935 28715,13844 28559,13754 28406,13712 28226,13712 28047,13712 27894,13754 27738,13844 27706,13863 27679,13880 27649,13903 L 14687,23224 1725,13903 C 1694,13880 1667,13862 1635,13843 1489,13759 1348,13718 1180,13712 1168,13712 1158,13711 1146,13711 Z"/>
        <path fill="rgb(0,0,0)" stroke="none" d="M 1146,17517 C 966,17517 813,17558 657,17648 502,17739 390,17851 300,18008 210,18165 169,18319 169,18500 169,18681 210,18834 300,18991 376,19123 465,19221 590,19307 L 14119,29037 C 14146,29057 14170,29072 14199,29089 14354,29179 14507,29221 14687,29221 14867,29221 15020,29179 15175,29089 15204,29072 15228,29057 15255,29037 L 28784,19307 C 28904,19222 28989,19127 29063,18999 29152,18842 29193,18689 29193,18508 29193,18327 29152,18173 29063,18016 28973,17860 28861,17747 28705,17656 28549,17566 28397,17525 28217,17525 28037,17525 27884,17566 27728,17656 27700,17673 27676,17689 27649,17708 L 14687,27030 1725,17708 C 1694,17685 1667,17668 1635,17648 1489,17564 1348,17523 1180,17517 1168,17517 1158,17517 1146,17517 Z"/>
       </g>
      </g>
     </g>
    </g>
   </g>
  </g>
 </g>
</svg>