<?xml version="1.0" encoding="utf-8"?>
<!-- Created by sK1 2.0rc4 (https://sk1project.net/) -->
<svg xmlns="http://www.w3.org/2000/svg" height="832.677165354pt" viewBox="0 0 832.677165354 832.677165354" width="832.677165354pt" version="1.1" xmlns:xlink="http://www.w3.org/1999/xlink" id="99f24948-b1e4-11ea-bb2a-a0f3c11e789f">

<g>
	<path style="fill:#000000;" d="M 603.3089,0.7652 C 554.0056,0.9682 501.9274,18.338 454.107,58.452 L 453.1373,59.2654 23.3916,489.0112 C 17.9806,494.2774 14.6223,501.63 14.6223,509.7654 14.6223,525.748 27.5837,538.7094 43.5663,538.7094 51.7017,538.7094 59.0543,535.3512 64.3131,529.9457 L 492.228,102.0327 C 577.3795,31.2674 663.235,51.7773 715.9374,105.6994 768.7302,159.7141 786.2163,245.1109 714.8375,323.797 L 282.9719,755.6626 C 234.8259,786.7416 187.9089,776.8855 158.5279,749.2073 129.1751,721.5556 116.0363,676.7992 149.1851,621.1103 L 568.2264,202.0691 568.371,201.9203 C 598.7611,170.6461 617.7745,179.0494 629.074,191.1285 640.3734,203.2077 646.7382,222.0816 616.592,246.2531 L 615.3539,247.2458 218.1535,644.4461 C 212.7424,649.7124 209.3842,657.065 209.3842,665.2004 209.3842,681.183 222.3455,694.1444 238.3282,694.1444 246.4636,694.1444 253.8161,690.7861 259.075,685.3806 L 654.1202,290.3373 C 702.8953,250.122 704.0334,186.5313 671.3444,151.5866 638.4192,116.3895 573.9475,113.3641 527.1004,161.3372 L 103.4144,585.0232 101.6457,587.8811 C 54.5508,663.9796 70.0303,745.3596 118.838,791.3388 167.6458,837.318 248.449,848.6021 317.4893,802.2353 L 319.827,800.6653 756.7595,363.7328 757.2096,363.2391 C 847.3588,264.3578 828.75,138.3125 757.3318,65.2413 718.275,25.2805 662.8129,0.5203 603.3089,0.7652 Z" />
</g>
</svg>