<?xml version="1.0" encoding="utf-8"?>
<!-- Created by sK1 2.0rc4 (https://sk1project.net/) -->
<svg xmlns="http://www.w3.org/2000/svg" height="832.677165354pt" viewBox="0 0 832.677165354 832.677165354" width="832.677165354pt" version="1.1" xmlns:xlink="http://www.w3.org/1999/xlink" id="46637816-b2a6-11ea-be2e-a0f3c11e789f">

<g>
	<path style="fill:#2d2c2b;" d="M 621.9188,827.5085 C 573.617,821.9151 523.675,805.2819 461.8811,774.2081 351.4701,718.6864 255.4976,642.1497 173.2353,544.0173 95.9659,451.8411 39.0434,348.1751 15.0432,255.9221 1.3219,203.1794 2.2876,158.2258 17.8317,126.11 116.8828,26.0536 120.5809,22.9719 130.3778,13.237 145.8515,0.7831 167.424,2.0158 182.1265,13.2249 333.1525,158.2867 333.0988,158.2135 333.0988,184.9918 333.0988,211.0333 330.8664,214.4817 282.4898,263.1656 256.3025,289.5191 241.3995,305.8372 240.604,309.0289 238.2431,318.4998 262.0285,362.2166 289.5515,398.9929 334.4441,458.9787 398.66,520.7939 455.7192,558.9487 475.4027,572.1107 518.2007,594.672 523.4853,594.672 600.2475,521.9754 612.7569,510.8219 620.2846,507.0718 638.9186,497.7887 657.7788,497.7268 676.8789,506.8864 819.9932,644.6683 822.8801,648.2411 826.5891,669.2977 828.8534,682.152 825.2957,697.7887 816.9756,711.5505 726.437,805.1634 721.1117,809.8245 709.0092,815.6755 672.0623,828.2953 640.089,829.6129 621.9188,827.5088 L 621.9188,827.5085 Z" />
</g>
</svg>