<?xml version="1.0" encoding="utf-8"?>
<!-- Created by sK1 2.0rc4 (https://sk1project.net/) -->
<svg xmlns="http://www.w3.org/2000/svg" height="832.677165354pt" viewBox="0 0 832.677165354 832.677165354" width="832.677165354pt" version="1.1" xmlns:xlink="http://www.w3.org/1999/xlink" id="7c1e24e2-b2a6-11ea-be2e-a0f3c11e789f">

<g>
	<path style="fill:#2d2c2b;" d="M 526.4178,636.5011 C 500.5544,633.5061 473.8127,624.5998 440.7249,607.9612 381.6048,578.2318 330.2158,537.2499 286.1681,484.7045 244.7938,435.3483 214.3144,379.8398 201.4634,330.4425 194.1162,302.2012 194.6333,278.1305 202.9565,260.934 255.9939,207.3584 257.9741,205.7082 263.2198,200.4956 271.5053,193.8271 283.0564,194.4872 290.9289,200.4891 371.7965,278.1632 371.7678,278.124 371.7678,292.4625 371.7678,306.4066 370.5724,308.253 344.6689,334.3211 330.6468,348.4322 322.6669,357.1698 322.241,358.8788 320.9768,363.95 333.7128,387.3584 348.4501,407.0504 372.4881,439.1701 406.8728,472.2694 437.4254,492.6995 447.9651,499.7472 470.8814,511.8277 473.7111,511.8277 514.8138,472.902 521.512,466.9298 525.5428,464.9218 535.5204,459.9511 545.6192,459.918 555.8464,464.8225 632.4777,538.5985 634.0235,540.5116 636.0095,551.7864 637.2219,558.6694 635.3169,567.0421 630.8619,574.4109 582.3826,624.5364 579.5311,627.0322 573.0508,630.1651 553.2673,636.9224 536.1471,637.628 526.4178,636.5013 L 526.4178,636.5011 Z" />
	<path style="fill-rule:evenodd;fill:#2d2c2b;" d="M 831.3948,416.3385 C 831.3948,187.1447 645.5335,1.2834 416.3397,1.2834 187.1459,1.2834 1.2846,187.1447 1.2846,416.3385 1.2846,645.5322 187.1459,831.3935 416.3397,831.3935 645.5335,831.3935 831.3948,645.5322 831.3948,416.3385 Z M 746.3554,416.3385 C 746.3554,598.5663 598.5675,746.3542 416.3397,746.3542 234.1119,746.3542 86.324,598.5663 86.324,416.3385 86.324,234.1106 234.1119,86.3228 416.3397,86.3228 598.5675,86.3228 746.3554,234.1106 746.3554,416.3385 Z" />
</g>
</svg>