<?xml version="1.0" encoding="utf-8"?>
<!-- Created by sK1 2.0rc4 (https://sk1project.net/) -->
<svg xmlns="http://www.w3.org/2000/svg" height="832.677165354pt" viewBox="0 0 832.677165354 832.677165354" width="832.677165354pt" version="1.1" xmlns:xlink="http://www.w3.org/1999/xlink" id="24e3e8f6-b2a6-11ea-be2e-a0f3c11e789f">

<g>
	<g>
		<path style="fill:#2d2c2b;" d="M 566.4369,825.9619 C 522.5542,820.8803 477.1814,805.7689 421.0411,777.538 320.7317,727.096 233.5398,657.5618 158.8037,568.4076 88.6038,484.6646 36.8891,390.4831 15.0847,306.6703 2.6188,258.7531 3.4961,217.9123 17.6181,188.7349 107.6069,97.8327 110.9667,95.0329 119.8673,86.1887 133.9253,74.8742 153.5241,75.9941 166.8814,86.1777 304.09,217.9677 304.0412,217.9011 304.0412,242.2295 304.0412,265.8884 302.013,269.0213 258.0624,313.2511 234.271,337.1935 220.7315,352.0187 220.0088,354.9184 217.8639,363.5228 239.4732,403.2399 264.478,436.6515 305.2634,491.1492 363.6041,547.3089 415.4429,581.9728 433.3256,593.9307 472.208,614.4278 477.0091,614.4278 546.7483,548.3823 558.1132,538.2492 564.9521,534.8422 581.8813,526.4084 599.016,526.3522 616.3686,534.6737 746.3892,659.8499 749.0121,663.0958 752.3818,682.2259 754.4389,693.9042 751.2066,708.1103 743.6477,720.613 661.3926,805.6612 656.5545,809.8958 645.5593,815.2116 611.9926,826.6767 582.9446,827.8738 566.4369,825.9622 L 566.4369,825.9619 Z" />
		<path style="fill-rule:evenodd;fill:#2d2c2b;" d="M 451.5206,5.9961 C 435.8669,6.2263 423.3638,19.1027 423.594,34.7564 423.8242,50.41 436.7006,62.9131 452.3542,62.6829 483.0491,62.2315 518.2974,71.3229 554.6858,88.849 590.91,106.296 627.0605,131.5345 659.203,161.7863 691.3482,192.0406 718.9476,226.8028 738.5171,262.9215 758.1256,299.1124 769.1832,335.7333 769.6412,370.0847 769.8499,385.7386 782.7091,398.2594 798.363,398.0507 814.017,397.842 826.5378,384.9828 826.329,369.3289 825.719,323.5766 811.1434,277.9578 788.3637,235.9141 765.545,193.7983 734.0013,154.3311 698.0583,120.5025 662.1128,86.6714 621.2303,57.9734 579.2866,37.7717 537.5072,17.6491 493.4529,5.3795 451.5206,5.9961 Z" />
		<path style="fill-rule:evenodd;fill:#2d2c2b;" d="M 417.6087,167.9151 C 401.9566,168.2346 389.5271,181.182 389.8465,196.8341 390.1659,212.4861 403.1134,224.9157 418.7654,224.5963 439.5732,224.1716 461.86,229.6998 484.0101,240.3798 506.1268,251.0437 527.3929,266.514 545.8008,284.9218 564.2166,303.3376 579.2779,324.1995 589.4004,345.2276 599.5703,366.3542 604.283,386.6299 603.4795,404.3061 602.7687,419.9452 614.8704,433.1996 630.5096,433.9104 646.1488,434.6213 659.4031,422.5195 660.114,406.8804 661.4466,377.5624 653.6097,347.9069 640.4828,320.6375 627.3085,293.2696 608.3258,267.2709 585.8887,244.8339 563.4437,222.3888 537.0482,203.014 508.6328,189.3131 480.2509,175.6282 449.1353,167.2717 417.6087,167.9151 Z" />
	</g>
</g>
</svg>