<?xml version="1.0" encoding="utf-8"?>
<!-- Created by sK1 2.0rc4 (https://sk1project.net/) -->
<svg xmlns="http://www.w3.org/2000/svg" height="832.677165354pt" viewBox="0 0 832.677165354 832.677165354" width="832.677165354pt" version="1.1" xmlns:xlink="http://www.w3.org/1999/xlink" id="317a0700-b2a9-11ea-be2e-a0f3c11e789f">

<g>
	<path style="fill:#2d2c2b;" d="M 49.9023,143.4316 C 80.1018,119.5226 117.4014,100.8818 169.4278,83.6977 262.3867,52.9939 405.7405,40.2807 506.7822,49.2155 601.6913,57.608 691.6312,83.831 756.7318,122.0912 793.9509,143.9653 818.5787,169.6975 827.8491,196.3977 828.3621,307.9255 828.0152,311.723 827.9755,322.6634 826.277,338.306 813.4979,349.6933 798.983,351.6435 633.1317,354.9099 633.2027,354.9209 618.2099,339.9146 603.6297,325.3213 602.95,322.1389 602.8023,267.7716 602.7223,238.3416 601.9375,220.8531 600.5964,218.6191 596.6168,211.9899 558.8112,200.8086 522.7972,195.6093 464.0546,187.1287 346.7392,190.3114 293.4016,200.8766 275.0019,204.5213 238.3867,215.8402 235.4252,218.799 233.1103,302.5154 232.3449,315.7695 230.2261,322.0857 224.9813,337.7207 214.4469,348.315 198.6151,353.8759 41.2733,356.7922 37.6552,356.4064 23.7874,346.6832 15.3216,340.7475 8.5605,329.9929 5.518,317.6227 3.8423,214.4718 4.2168,208.8782 7.723,198.8233 21.362,171.0653 38.5417,152.4255 49.9021,143.4314 L 49.9023,143.4316 Z" />
	<path style="fill:#2d2c2b;" d="M 529.9735,296.2213 C 527.6387,296.2037 525.3894,296.203 523.2924,296.2228 517.7003,296.2739 513.1858,296.4626 510.9833,296.8263 499.1686,298.7746 498.1,301.1621 498.1,325.6324 L 498.1,346.7731 413.5155,346.7731 328.931,346.7731 328.931,324.8268 328.931,302.882 324.7709,299.882 C 321.1541,297.2761 316.7653,296.8834 291.2523,296.8834 265.7394,296.8834 261.3536,297.2759 257.7367,299.882 L 253.5736,302.882 253.5736,328.6984 253.5736,354.5148 244.058,366.2877 C 202.8679,417.2447 40.2678,580.5055 30.5423,606.1017 27.3837,614.4152 27.3163,763.2734 30.4676,771.4064 33.0967,778.1912 38.8932,784.1795 44.6898,786.0988 47.1412,786.9106 243.9205,784.3862 415.8226,784.2281 L 788.3925,786.0988 793.9984,782.2682 C 804.6923,774.9554 804.5409,776.3084 804.5409,686.7194 L 804.5409,606.4518 792.6068,585.503 C 764.2837,535.7951 619.3316,411.2034 583.9076,366.922 L 574.9955,355.7833 574.9955,331.9415 C 574.9955,306.8846 573.9595,300.7572 569.3456,298.5182 566.8887,297.326 546.3168,296.3448 529.9735,296.2213 Z M 416.3426,461.7325 C 476.7347,461.7325 525.7108,510.7087 525.7108,571.1007 525.7108,631.4928 476.7347,680.4689 416.3426,680.4689 355.9506,680.4689 306.9759,631.4928 306.9759,571.1007 306.9759,510.7087 355.9506,461.7325 416.3426,461.7325 Z" />
</g>
</svg>