<?xml version="1.0" encoding="utf-8"?>
<!-- Created by sK1 2.0rc4 (https://sk1project.net/) -->
<svg xmlns="http://www.w3.org/2000/svg" height="832.677165354pt" viewBox="0 0 832.677165354 832.677165354" width="832.677165354pt" version="1.1" xmlns:xlink="http://www.w3.org/1999/xlink" id="584270c6-b393-11ea-be2e-a0f3c11e789f">

<g>
	<path style="fill:#2d2c2b;" d="M 189.6827,418.0026 C 189.6831,418.0026 189.6835,418.0026 189.684,418.0026 207.6006,418.0026 222.1304,432.5322 222.1308,450.4488 222.1304,468.3654 207.6006,482.895 189.684,482.895 189.6835,482.895 189.6831,482.895 189.6826,482.895 171.7663,482.8946 157.2369,468.3651 157.2365,450.4488 157.2369,432.5325 171.7663,418.003 189.6826,418.0026 L 189.6827,418.0026 Z M 760.5978,484.0732 C 763.461,484.0118 765.6519,485.2582 768.0732,486.8434 772.9157,490.0139 776.6041,498.1224 776.6974,499.6925 776.9383,503.7434 776.1182,506.1277 773.4822,509.391 770.8461,512.6544 765.8795,516.4335 758.5138,519.7797 757.8383,520.0866 756.6482,520.252 755.9358,520.5501 753.8873,516.995 751.2306,513.3727 749.9269,510.0223 747.3855,503.491 746.508,497.7168 746.7999,494.2835 747.0916,490.8501 747.5879,490.2281 749.0897,489.1548 754.1972,485.5049 757.7347,484.1349 760.5978,484.0732 Z M 265.8157,308.906 C 255.9371,312.2917 246.3194,316.074 236.9936,320.2279 L 139.7685,260.8691 C 133.1938,260.87 127.8631,267.6646 127.8624,276.0453 L 144.2718,383.1333 C 120.8994,406.5495 102.3642,434.0266 90.5985,463.9183 L 20.349,465.6897 C 11.9684,465.6905 5.1756,472.4832 5.1748,480.8639 L 5.1748,600.5167 C 5.1756,608.8974 11.9684,615.6901 20.349,615.6909 L 90.119,615.6909 C 107.3361,658.558 136.7544,695.0188 175.2024,723.794 L 189.714,817.506 C 189.7147,825.8867 195.0454,832.6794 201.6201,832.6802 L 281.171,832.6802 C 287.7458,832.6794 293.0765,825.8867 293.0771,817.506 L 304.8852,782.3799 C 329.9338,788.1748 358.6925,791.5096 388.4183,791.5118 419.7824,791.4407 450.0179,787.6709 478.5313,780.7177 L 481.7354,816.4924 C 481.736,824.8731 487.0667,831.6658 493.6414,831.6667 L 573.1924,831.6667 C 579.7671,831.6658 585.0977,824.8731 585.0984,816.4924 L 621.9792,706.7872 C 664.9137,668.1594 693.3124,618.44 699.7639,563.5955 715.5532,561.4816 730.1332,559.3896 743.4945,556.2664 748.5262,562.083 753.8931,567.6368 759.8489,572.4346 773.8478,583.7117 789.8522,585.2576 800.9428,583.5192 806.4881,582.65 810.9935,581.1105 814.1997,579.7982 815.1198,579.4215 815.6595,579.1537 816.3484,578.8356 822.8269,577.0093 827.4978,571.1506 827.4978,564.203 827.4978,562.4163 827.1889,560.7017 826.6216,559.1095 826.6544,559.2142 817.9785,549.952 817.9775,549.9517 817.9766,549.9513 811.9487,548.842 811.9471,548.842 811.9455,548.8421 809.9396,549.0007 809.3533,549.1145 808.7671,549.2283 808.3668,549.3329 808.0418,549.4262 806.7416,549.8007 806.4584,549.9792 806.1597,550.1085 805.5623,550.3672 805.4227,550.4457 805.2637,550.5241 804.9458,550.6812 804.7861,550.7592 804.558,550.8711 804.1019,551.0953 803.5025,551.3827 802.7073,551.7083 801.1168,552.3592 798.8052,553.1291 796.2376,553.5315 791.1026,554.3364 785.6957,554.2847 778.8834,548.7969 777.5924,547.757 776.5761,546.1632 775.3133,545.0112 783.7452,540.6816 791.3766,535.5382 797.0905,528.4647 803.7958,520.1638 807.6665,509.1619 806.9968,497.8927 806.1365,483.4153 798.2841,470.3565 784.6943,461.4589 777.8994,457.0101 769.1559,454.4979 759.8254,454.7305 750.4949,454.9632 740.5747,457.9381 731.4394,464.4663 722.2873,471.0066 717.4115,481.7104 716.5612,491.7113 715.711,501.7122 717.9283,511.4814 721.6448,521.0324 722.6576,523.6352 724.0645,526.1795 725.305,528.7529 717.6286,530.0853 709.5662,531.2641 700.8969,532.0406 697.1063,440.9994 633.387,362.3234 540.5273,320.6254 527.5193,327.9532 518.5796,333.8236 504.1885,339.8199 512.6876,343.477 515.7547,347.0043 524.2859,351.6831 530.2374,354.9634 534.2039,361.1969 534.2039,368.355 534.2039,378.8309 525.7083,387.3265 515.2324,387.3265 511.8603,387.3265 508.6934,386.4462 505.949,384.903 430.0578,343.279 362.2765,348.1018 276.2071,379.0692 274.2459,379.8189 271.9785,380.2532 269.6099,380.2532 259.1344,380.2532 250.6391,371.7579 250.6391,361.2824 250.6391,353.0436 255.8939,346.0297 263.234,343.4101 276.9994,338.4592 278.4807,336.2632 291.9191,332.6244 280.5261,325.4288 276.3287,318.8328 265.8155,308.9063 L 265.8157,308.906 Z" />
	<g>
		<path style="fill-rule:evenodd;fill:#2d2c2b;" d="M 411.4236,-0.0018 C 312.9014,-0.0018 237.6395,75.2602 237.6395,173.7824 237.6395,272.3045 312.9014,347.5665 411.4236,347.5665 509.9458,347.5665 585.2077,272.3045 585.2077,173.7824 585.2077,75.2602 509.9458,-0.0018 411.4236,-0.0018 L 411.4236,-0.0018 Z M 411.3998,40.7036 C 486.8405,40.7036 544.4786,98.3297 544.4786,173.7585 544.4786,249.1992 486.8405,306.8373 411.3998,306.8373 335.971,306.8373 278.3448,249.1992 278.3448,173.7585 278.3448,98.3297 335.971,40.7036 411.3998,40.7036 L 411.3998,40.7036 Z" />
		<path style="fill-rule:evenodd;fill:#2d2c2b;" d="M 384.5648,258.4699 L 384.5648,246.6015 363.0443,246.5181 341.5239,246.4347 341.5239,236.4133 341.5239,226.3799 347.3985,226.225 C 352.9276,226.082 353.3565,226.0344 354.7984,225.2837 355.6921,224.8308 356.693,223.9848 357.2054,223.246 358.0038,222.1259 358.123,221.6135 358.3851,218.2889 358.552,216.1083 358.6234,196.6612 358.5639,170.9702 358.4805,136.2229 358.3732,127.0832 358.0515,126.0465 357.5748,124.5213 356.1092,122.9007 354.4409,122.0904 353.44,121.6018 352.296,121.4827 347.3866,121.3397 L 341.5239,121.1848 341.5239,111.1514 341.5239,101.13 363.0443,101.0466 384.5648,100.9632 384.5648,89.0948 384.5648,77.2144 394.7411,77.2144 404.9293,77.2144 404.9293,89.0948 404.9293,100.9751 411.3998,100.9751 417.8821,100.9751 417.8821,89.0948 417.8821,77.2144 428.0585,77.2144 438.2348,77.2144 438.3182,89.631 438.4016,102.0475 441.2138,102.4289 C 444.2762,102.834 450.6275,104.3473 452.5937,105.1457 458.1585,107.3979 463.4611,110.7582 466.7738,114.1066 469.4192,116.7877 471.0398,119.1233 472.9583,123.0318 477.5936,132.517 476.9501,143.8968 471.2185,153.3463 469.5145,156.1466 465.6656,160.3529 462.77,162.5574 459.8386,164.7976 453.8687,167.8958 449.8649,169.2662 449.0903,169.5283 449.4717,169.993 450.6633,170.2314 452.2481,170.5531 457.9321,172.4358 460.3034,173.4249 472.3029,178.4058 479.9768,188.8562 481.1565,201.809 482.1813,213.0339 478.4277,223.1388 470.1937,231.3251 465.4392,236.0439 459.2071,239.8332 452.4745,242.1092 449.6623,243.0505 441.75,244.8618 439.3192,245.112 L 438.4016,245.2073 438.3182,257.7788 438.2348,270.3503 428.0585,270.3503 417.8821,270.3503 417.8821,258.4699 417.8821,246.5896 411.3998,246.5896 404.9293,246.5896 404.9293,258.4699 404.9293,270.3503 394.7411,270.3503 384.5648,270.3503 384.5648,258.4699 Z M 421.7429,222.8289 C 426.1161,222.4119 429.4884,221.5658 432.384,220.1597 434.8983,218.9443 435.3868,218.5868 437.8773,216.0725 441.19,212.7241 442.9655,208.9586 443.5017,204.1803 444.2882,197.1021 442.2624,191.0011 437.8892,187.2952 432.0742,182.3619 425.7348,181.218 403.9165,181.1942 L 394.4313,181.1822 394.4432,199.1517 C 394.4432,209.042 394.5743,218.0149 394.7292,219.0992 395.0628,221.3871 396.0757,222.7336 397.6367,222.9243 399.8173,223.1983 418.5971,223.1149 421.7429,222.8289 L 421.7429,222.8289 Z M 420.1223,159.5903 C 428.3087,158.6847 432.9321,156.8734 436.5904,153.1318 441.1542,148.4726 442.2386,140.1552 439.1285,133.7801 438.1752,131.8377 434.7195,128.4655 432.6223,127.4407 428.1538,125.2482 423.5423,124.7358 407.396,124.6524 L 394.5862,124.5689 394.5147,142.1452 C 394.4432,155.9797 394.5147,159.7571 394.8126,159.9716 395.325,160.3172 416.4403,159.9955 420.1223,159.5903 L 420.1223,159.5903 Z" />
	</g>
</g>
</svg>