<?xml version="1.0" encoding="utf-8"?>
<!-- Created by sK1 2.0rc4 (https://sk1project.net/) -->
<svg xmlns="http://www.w3.org/2000/svg" height="832.677165354pt" viewBox="0 0 832.677165354 832.677165354" width="832.677165354pt" version="1.1" xmlns:xlink="http://www.w3.org/1999/xlink" id="fa1934d0-b392-11ea-be2e-a0f3c11e789f">

<g>
	<g>
		<path style="fill-rule:evenodd;fill:#2d2c2b;" d="M 416.7092,268.9501 L 387.7445,268.9501 387.7445,256.8904 C 356.1025,252.6019 338.7237,235.0099 338.1906,204.1261 L 369.7497,204.1261 C 369.7497,217.2283 376.6088,225.7696 387.7445,229.75 L 387.7445,179.7934 C 374.4172,176.6659 362.3812,171.252 354.2308,163.5281 346.1752,155.8042 342.1355,145.3911 342.1355,132.2889 342.1355,119.5658 345.9027,109.2356 353.4489,101.2748 361.0662,93.3258 373.3747,88.291 387.7445,86.1823 L 387.7445,76.5867 416.7092,76.5867 416.7092,86.0639 C 430.2024,87.8646 441.7527,92.3425 448.7658,99.5215 455.8737,106.7005 459.8541,116.8766 460.7308,130.0618 L 429.1836,130.0618 C 428.5675,122.6459 423.5446,117.2676 416.7092,113.915 L 416.7092,158.0313 C 448.1735,163.8006 465.2088,179.9474 465.2088,206.4717 465.2088,220.2728 461.0862,231.5389 452.8529,240.2816 444.6906,248.9414 431.7779,254.4026 416.7092,256.6653 L 416.7092,268.9501 Z M 416.7092,229.8685 C 427.1341,226.3619 433.6497,218.9816 433.6497,207.7511 433.6497,200.892 432.3821,195.7387 429.8351,192.3033 427.3,188.7967 422.052,186.2971 416.7092,184.8163 L 416.7092,229.8685 Z M 387.7445,152.4043 L 387.7445,112.8607 C 375.8269,117.5874 373.4221,120.1699 373.6946,136.0324 373.6946,143.5194 379.2387,148.9806 387.7445,152.4043 Z" />
		<path style="fill-rule:evenodd;fill:#2d2c2b;" d="M 401.6997,-0.0009 C 303.7529,-0.0009 228.9304,74.8216 228.9304,172.7684 228.9304,270.7152 303.7529,345.5377 401.6997,345.5377 499.6465,345.5377 574.469,270.7152 574.469,172.7684 574.469,74.8216 499.6465,-0.0009 401.6997,-0.0009 L 401.6997,-0.0009 Z M 401.676,40.4667 C 476.6762,40.4667 533.9777,97.7564 533.9777,172.7447 533.9777,247.7449 476.6762,305.0464 401.676,305.0464 326.6877,305.0464 269.398,247.7449 269.398,172.7447 269.398,97.7564 326.6877,40.4667 401.676,40.4667 L 401.676,40.4667 Z" />
	</g>
	<path style="fill:#2d2c2b;" d="M 189.6827,418.0026 C 189.6831,418.0026 189.6835,418.0026 189.684,418.0026 207.6006,418.0026 222.1304,432.5322 222.1308,450.4488 222.1304,468.3654 207.6006,482.895 189.684,482.895 189.6835,482.895 189.6831,482.895 189.6826,482.895 171.7663,482.8946 157.2369,468.3651 157.2365,450.4488 157.2369,432.5325 171.7663,418.003 189.6826,418.0026 L 189.6827,418.0026 Z M 760.5978,484.0732 C 763.461,484.0118 765.6519,485.2582 768.0732,486.8434 772.9157,490.0139 776.6041,498.1224 776.6974,499.6925 776.9383,503.7434 776.1182,506.1277 773.4822,509.391 770.8461,512.6544 765.8795,516.4335 758.5138,519.7797 757.8383,520.0866 756.6482,520.252 755.9358,520.5501 753.8873,516.995 751.2306,513.3727 749.9269,510.0223 747.3855,503.491 746.508,497.7168 746.7999,494.2835 747.0916,490.8501 747.5879,490.2281 749.0897,489.1548 754.1972,485.5049 757.7347,484.1349 760.5978,484.0732 Z M 265.8157,308.906 C 255.9371,312.2917 246.3194,316.074 236.9936,320.2279 L 139.7685,260.8691 C 133.1938,260.87 127.8631,267.6646 127.8624,276.0453 L 144.2718,383.1333 C 120.8994,406.5495 102.3642,434.0266 90.5985,463.9183 L 20.349,465.6897 C 11.9684,465.6905 5.1756,472.4832 5.1748,480.8639 L 5.1748,600.5167 C 5.1756,608.8974 11.9684,615.6901 20.349,615.6909 L 90.119,615.6909 C 107.3361,658.558 136.7544,695.0188 175.2024,723.794 L 189.714,817.506 C 189.7147,825.8867 195.0454,832.6794 201.6201,832.6802 L 281.171,832.6802 C 287.7458,832.6794 293.0765,825.8867 293.0771,817.506 L 304.8852,782.3799 C 329.9338,788.1748 358.6925,791.5096 388.4183,791.5118 419.7824,791.4407 450.0179,787.6709 478.5313,780.7177 L 481.7354,816.4924 C 481.736,824.8731 487.0667,831.6658 493.6414,831.6667 L 573.1924,831.6667 C 579.7671,831.6658 585.0977,824.8731 585.0984,816.4924 L 621.9792,706.7872 C 664.9137,668.1594 693.3124,618.44 699.7639,563.5955 715.5532,561.4816 730.1332,559.3896 743.4945,556.2664 748.5262,562.083 753.8931,567.6368 759.8489,572.4346 773.8478,583.7117 789.8522,585.2576 800.9428,583.5192 806.4881,582.65 810.9935,581.1105 814.1997,579.7982 815.1198,579.4215 815.6595,579.1537 816.3484,578.8356 822.8269,577.0093 827.4978,571.1506 827.4978,564.203 827.4978,562.4163 827.1889,560.7017 826.6216,559.1095 826.6544,559.2142 817.9785,549.952 817.9775,549.9517 817.9766,549.9513 811.9487,548.842 811.9471,548.842 811.9455,548.8421 809.9396,549.0007 809.3533,549.1145 808.7671,549.2283 808.3668,549.3329 808.0418,549.4262 806.7416,549.8007 806.4584,549.9792 806.1597,550.1085 805.5623,550.3672 805.4227,550.4457 805.2637,550.5241 804.9458,550.6812 804.7861,550.7592 804.558,550.8711 804.1019,551.0953 803.5025,551.3827 802.7073,551.7083 801.1168,552.3592 798.8052,553.1291 796.2376,553.5315 791.1026,554.3364 785.6957,554.2847 778.8834,548.7969 777.5924,547.757 776.5761,546.1632 775.3133,545.0112 783.7452,540.6816 791.3766,535.5382 797.0905,528.4647 803.7958,520.1638 807.6665,509.1619 806.9968,497.8927 806.1365,483.4153 798.2841,470.3565 784.6943,461.4589 777.8994,457.0101 769.1559,454.4979 759.8254,454.7305 750.4949,454.9632 740.5747,457.9381 731.4394,464.4663 722.2873,471.0066 717.4115,481.7104 716.5612,491.7113 715.711,501.7122 717.9283,511.4814 721.6448,521.0324 722.6576,523.6352 724.0645,526.1795 725.305,528.7529 717.6286,530.0853 709.5662,531.2641 700.8969,532.0406 697.1063,440.9994 633.387,362.3234 540.5273,320.6254 527.5193,327.9532 518.5796,333.8236 504.1885,339.8199 512.6876,343.477 515.7547,347.0043 524.2859,351.6831 530.2374,354.9634 534.2039,361.1969 534.2039,368.355 534.2039,378.8309 525.7083,387.3265 515.2324,387.3265 511.8603,387.3265 508.6934,386.4462 505.949,384.903 430.0578,343.279 362.2765,348.1018 276.2071,379.0692 274.2459,379.8189 271.9785,380.2532 269.6099,380.2532 259.1344,380.2532 250.6391,371.7579 250.6391,361.2824 250.6391,353.0436 255.8939,346.0297 263.234,343.4101 276.9994,338.4592 278.4807,336.2632 291.9191,332.6244 280.5261,325.4288 276.3287,318.8328 265.8155,308.9063 L 265.8157,308.906 Z" />
</g>
</svg>