<?xml version="1.0" encoding="utf-8"?>
<!-- Created by sK1 2.0rc4 (https://sk1project.net/) -->
<svg xmlns="http://www.w3.org/2000/svg" height="832.677165354pt" viewBox="0 0 832.677165354 832.677165354" width="832.677165354pt" version="1.1" xmlns:xlink="http://www.w3.org/1999/xlink" id="6003f40c-b1e9-11ea-bb2a-a0f3c11e789f">

<g>
	<g>
		<path style="fill-rule:evenodd;fill:#000000;" d="M 762.499,70.2629 C 668.8236,-23.4125 516.8884,-23.4125 423.213,70.2628 329.5377,163.9383 329.5377,315.8734 423.213,409.5488 423.2134,409.5492 423.2138,409.5496 423.2142,409.5501 516.8896,503.2255 668.8249,503.2255 762.5003,409.5502 856.1757,315.8747 856.1756,163.9395 762.5002,70.2641 762.4998,70.2637 762.4994,70.2632 762.4989,70.2628 Z M 721.7237,80.6773 C 728.6603,88.3353 728.4361,100.1239 721.0818,107.4782 713.9508,114.6093 702.6503,115.0365 695.0196,108.7598 609.3112,39.8266 485.8582,74.442 443.5953,168.1527 442.7081,170.2438 441.3312,172.3196 439.5234,174.1273 431.9379,181.7128 419.6347,181.7128 412.0492,174.1273 406.1496,168.2278 404.8384,159.4746 408.1155,152.3065 460.6662,35.7991 614.4093,-5.9281 719.3065,78.4345 719.8756,78.8728 720.4952,79.4177 721.0861,80.0086 721.3158,80.2383 721.5385,80.4723 721.7543,80.7104 Z" />
		<path style="fill-rule:evenodd;fill:#000000;" d="M 404.7962,364.1408 L 468.6223,427.9669 141.0936,755.4956 -0.0828,832.6716 77.2675,691.6695 404.7962,364.1408 Z" />
	</g>
</g>
</svg>