<?xml version="1.0" encoding="utf-8"?>
<!-- Created by sK1 2.0rc4 (https://sk1project.net/) -->
<svg xmlns="http://www.w3.org/2000/svg" height="832.677165354pt" viewBox="0 0 832.677165354 832.677165354" width="832.677165354pt" version="1.1" xmlns:xlink="http://www.w3.org/1999/xlink" id="abdb27d2-b1ea-11ea-bb2a-a0f3c11e789f">

<g>
	<g>
		<path style="fill-rule:evenodd;fill:#000000;" d="M 351.6699,423.1488 L 406.9848,478.4637 123.132,762.3165 0.7814,829.2011 67.8171,707.0016 351.6699,423.1488 Z" />
		<path style="fill-rule:evenodd;fill:#000000;" d="M 610.0728,17.9559 C 561.6732,-28.1552 487.042,46.476 534.2164,93.8123 L 536.4534,96.0493 376.6552,255.8475 374.4182,253.6104 C 325.3996,208.1183 151.946,264.6799 199.0767,312.06 L 524.8895,637.8728 C 559.3951,670.5196 619.7077,503.2613 588.3122,467.5045 L 574.3829,453.5752 734.1811,293.777 748.1104,307.7063 C 782.2896,340.6793 856.1278,266.8411 823.9668,231.8499 L 610.0728,17.9559 Z M 564.8308,128.6978 C 564.8728,128.7385 564.922,128.787 564.9709,128.8359 570.0473,133.9123 570.0473,142.1458 564.9709,147.2221 564.9255,147.2676 564.8797,147.3127 564.8337,147.3574 L 427.9341,284.2572 C 427.896,284.2965 427.8506,284.3425 427.8048,284.3883 422.7284,289.4647 414.4949,289.4647 409.4186,284.3883 404.3422,279.3119 404.3422,271.0784 409.4186,266.002 409.4643,265.9563 409.5104,265.9109 409.5567,265.8659 L 546.4562,128.9662 C 546.4941,128.9271 546.5392,128.8814 546.5847,128.8359 551.6122,123.8085 559.7362,123.76 564.8233,128.6906 Z" />
	</g>
</g>
</svg>