<?xml version="1.0" encoding="UTF-8"?>
<!DOCTYPE svg PUBLIC "-//W3C//DTD SVG 1.1//EN" "http://www.w3.org/Graphics/SVG/1.1/DTD/svg11.dtd">
<svg version="1.2" width="293.75mm" height="293.75mm" viewBox="0 0 29375 29375" preserveAspectRatio="xMidYMid" fill-rule="evenodd" stroke-width="28.222" stroke-linejoin="round" xmlns="http://www.w3.org/2000/svg" xmlns:ooo="http://xml.openoffice.org/svg/export" xmlns:xlink="http://www.w3.org/1999/xlink" xmlns:presentation="http://sun.com/xmlns/staroffice/presentation" xmlns:smil="http://www.w3.org/2001/SMIL20/" xmlns:anim="urn:oasis:names:tc:opendocument:xmlns:animation:1.0" xml:space="preserve">
 <defs class="ClipPathGroup">
  <clipPath id="presentation_clip_path" clipPathUnits="userSpaceOnUse">
   <rect x="0" y="0" width="29375" height="29375"/>
  </clipPath>
  <clipPath id="presentation_clip_path_shrink" clipPathUnits="userSpaceOnUse">
   <rect x="29" y="29" width="29317" height="29317"/>
  </clipPath>
 </defs>
 <defs class="TextShapeIndex">
  <g ooo:slide="id1" ooo:id-list="id3"/>
 </defs>
 <defs class="EmbeddedBulletChars">
  <g id="bullet-char-template-57356" transform="scale(0.00048828125,-0.00048828125)">
   <path d="M 580,1141 L 1163,571 580,0 -4,571 580,1141 Z"/>
  </g>
  <g id="bullet-char-template-57354" transform="scale(0.00048828125,-0.00048828125)">
   <path d="M 8,1128 L 1137,1128 1137,0 8,0 8,1128 Z"/>
  </g>
  <g id="bullet-char-template-10146" transform="scale(0.00048828125,-0.00048828125)">
   <path d="M 174,0 L 602,739 174,1481 1456,739 174,0 Z M 1358,739 L 309,1346 659,739 1358,739 Z"/>
  </g>
  <g id="bullet-char-template-10132" transform="scale(0.00048828125,-0.00048828125)">
   <path d="M 2015,739 L 1276,0 717,0 1260,543 174,543 174,936 1260,936 717,1481 1274,1481 2015,739 Z"/>
  </g>
  <g id="bullet-char-template-10007" transform="scale(0.00048828125,-0.00048828125)">
   <path d="M 0,-2 C -7,14 -16,27 -25,37 L 356,567 C 262,823 215,952 215,954 215,979 228,992 255,992 264,992 276,990 289,987 310,991 331,999 354,1012 L 381,999 492,748 772,1049 836,1024 860,1049 C 881,1039 901,1025 922,1006 886,937 835,863 770,784 769,783 710,716 594,584 L 774,223 C 774,196 753,168 711,139 L 727,119 C 717,90 699,76 672,76 641,76 570,178 457,381 L 164,-76 C 142,-110 111,-127 72,-127 30,-127 9,-110 8,-76 1,-67 -2,-52 -2,-32 -2,-23 -1,-13 0,-2 Z"/>
  </g>
  <g id="bullet-char-template-10004" transform="scale(0.00048828125,-0.00048828125)">
   <path d="M 285,-33 C 182,-33 111,30 74,156 52,228 41,333 41,471 41,549 55,616 82,672 116,743 169,778 240,778 293,778 328,747 346,684 L 369,508 C 377,444 397,411 428,410 L 1163,1116 C 1174,1127 1196,1133 1229,1133 1271,1133 1292,1118 1292,1087 L 1292,965 C 1292,929 1282,901 1262,881 L 442,47 C 390,-6 338,-33 285,-33 Z"/>
  </g>
  <g id="bullet-char-template-9679" transform="scale(0.00048828125,-0.00048828125)">
   <path d="M 813,0 C 632,0 489,54 383,161 276,268 223,411 223,592 223,773 276,916 383,1023 489,1130 632,1184 813,1184 992,1184 1136,1130 1245,1023 1353,916 1407,772 1407,592 1407,412 1353,268 1245,161 1136,54 992,0 813,0 Z"/>
  </g>
  <g id="bullet-char-template-8226" transform="scale(0.00048828125,-0.00048828125)">
   <path d="M 346,457 C 273,457 209,483 155,535 101,586 74,649 74,723 74,796 101,859 155,911 209,963 273,989 346,989 419,989 480,963 531,910 582,859 608,796 608,723 608,648 583,586 532,535 482,483 420,457 346,457 Z"/>
  </g>
  <g id="bullet-char-template-8211" transform="scale(0.00048828125,-0.00048828125)">
   <path d="M -4,459 L 1135,459 1135,606 -4,606 -4,459 Z"/>
  </g>
  <g id="bullet-char-template-61548" transform="scale(0.00048828125,-0.00048828125)">
   <path d="M 173,740 C 173,903 231,1043 346,1159 462,1274 601,1332 765,1332 928,1332 1067,1274 1183,1159 1299,1043 1357,903 1357,740 1357,577 1299,437 1183,322 1067,206 928,148 765,148 601,148 462,206 346,322 231,437 173,577 173,740 Z"/>
  </g>
 </defs>
 <defs class="TextEmbeddedBitmaps"/>
 <g>
  <g id="id2" class="Master_Slide">
   <g id="bg-id2" class="Background"/>
   <g id="bo-id2" class="BackgroundObjects"/>
  </g>
 </g>
 <g class="SlideGroup">
  <g>
   <g id="container-id1">
    <g id="id1" class="Slide" clip-path="url(#presentation_clip_path)">
     <g class="Page">
      <g class="Graphic">
       <g id="id3">
        <rect class="BoundingBox" stroke="none" fill="none" x="-13" y="-13" width="29401" height="29401"/>
        <path fill="rgb(0,0,0)" stroke="none" d="M 8031,33 C 7591,35 7083,63 7064,106 7036,171 5973,4553 5718,5658 5657,5920 5322,7315 4972,8759 4623,10202 4277,11643 4203,11962 4129,12281 3794,13676 3458,15063 3122,16450 2787,17845 2713,18164 2639,18483 2437,19326 2265,20038 1940,21384 600,26956 237,28472 L 30,29341 1803,29341 3311,29341 3359,29086 C 3405,28844 4439,24435 5400,18914 5639,17546 6063,15107 6344,13495 6625,11884 7060,9384 7311,7941 7563,6498 7972,4147 8222,2718 8472,1288 8676,99 8676,77 8676,44 8374,31 8031,33 L 8031,33 Z M 21343,33 C 21000,31 20698,44 20698,77 20698,99 20902,1288 21152,2718 21402,4147 21811,6498 22063,7941 22314,9384 22749,11884 23030,13495 23311,15107 23735,17546 23974,18914 24935,24435 25969,28844 26015,29086 L 26063,29341 27571,29341 29344,29341 29137,28472 C 28774,26956 27434,21384 27109,20038 26937,19326 26735,18483 26661,18164 26587,17845 26252,16450 25916,15063 25580,13676 25245,12281 25171,11962 25097,11643 24751,10202 24402,8759 24052,7315 23717,5920 23656,5658 23401,4553 22338,171 22310,106 22291,63 21783,35 21343,33 L 21343,33 Z M 10083,35 L 9856,1347 C 9731,2068 9373,4131 9060,5930 8747,7730 8339,10076 8153,11144 7967,12212 7597,14344 7329,15881 7062,17418 6670,19672 6459,20890 6247,22109 5850,24393 5576,25968 5302,27542 5063,28945 5045,29086 L 5011,29341 8764,29341 12517,29341 16857,29341 20610,29341 24363,29341 24329,29086 C 24311,28945 24072,27542 23798,25968 23524,24393 23127,22109 22915,20890 22704,19672 22312,17418 22045,15881 21777,14344 21407,12212 21221,11144 21035,10076 20627,7730 20314,5930 20001,4131 19643,2068 19518,1347 L 19291,35 14687,35 10083,35 10083,35 Z M 14687,376 C 15057,376 15361,399 15361,427 15361,455 15404,1229 15456,2148 15508,3066 15551,2971 15552,3149 L 15553,3473 14687,3473 13821,3473 13822,3149 C 13823,2971 13866,3066 13918,2148 13970,1229 14013,455 14013,427 14013,399 14317,376 14687,376 L 14687,376 Z M 14687,6175 C 15218,6175 15749,6196 15767,6236 15790,6289 15985,9844 15985,10210 15985,10323 15899,10331 14687,10331 13483,10331 13389,10322 13389,10212 13389,9857 13586,6286 13608,6234 13626,6194 14157,6174 14687,6175 L 14687,6175 Z M 13161,14420 L 14687,14420 16213,14420 16246,15153 C 16265,15556 16311,16392 16349,17010 16387,17629 16418,18234 16418,18356 L 16418,18356 16418,18578 14687,18578 12956,18578 12956,18356 C 12956,18234 12987,17629 13025,17010 13063,16392 13109,15556 13128,15153 L 13161,14420 13161,14420 Z M 12931,22856 L 16617,22856 17013,28397 12534,28397 12931,22856 12931,22856 Z"/>
       </g>
      </g>
     </g>
    </g>
   </g>
  </g>
 </g>
</svg>