<?xml version="1.0" encoding="utf-8"?>
<!-- Created by sK1 2.0rc4 (https://sk1project.net/) -->
<svg xmlns="http://www.w3.org/2000/svg" height="832.677165354pt" viewBox="0 0 832.677165354 832.677165354" width="832.677165354pt" version="1.1" xmlns:xlink="http://www.w3.org/1999/xlink" id="9ed22e22-b1e1-11ea-bb2a-a0f3c11e789f">

<g>
	<g>
		<path style="fill-rule:evenodd;fill:#000000;" d="M 413.4374,673.4911 C 363.157,673.4912 322.3813,714.2669 322.3812,764.5473 322.4146,770.9123 323.0962,777.0993 324.3631,783.0702 L 502.702,782.4774 C 503.8381,777.0864 504.4904,770.8938 504.4935,764.5497 504.4935,714.2669 463.7178,673.4912 413.4374,673.4911 Z" />
		<path style="fill-rule:evenodd;fill:#000000;" d="M 223.9804,767.0076 L 223.9804,829.3607 602.8945,829.3607 602.8945,767.0076 223.9804,767.0076 Z" />
		<path style="fill-rule:evenodd;fill:#000000;" d="M 157.6894,623.938 C 236.1886,622.8483 307.5229,577.4057 310.6224,532.8818 310.5824,526.8578 309.7599,520.8517 308.1673,514.9518 L 8.5077,514.9518 C 6.952,520.8545 6.1665,526.8606 6.1627,532.8818 26.7913,585.7227 76.3824,622.687 157.6894,623.938 Z" />
		<path style="fill-rule:evenodd;fill:#000000;" d="M 673.5829,620.9044 C 752.0821,619.8146 823.4164,574.3721 826.5159,529.8482 826.4759,523.8242 825.6534,517.818 824.0608,511.9181 L 524.4011,511.9181 C 522.8455,517.8209 522.06,523.827 522.0562,529.8482 542.6848,582.689 592.2759,619.6533 673.5829,620.9044 Z" />
		<path style="fill-rule:evenodd;fill:#000000;" d="M 377.6391,189.8812 L 377.6391,702.9906 449.2357,702.9906 449.2357,189.8812 377.6391,189.8812 Z" />
		<path style="fill-rule:evenodd;fill:#000000;" d="M 475.0901,158.0604 C 475.0901,192.1045 447.4815,219.7131 413.4374,219.7131 379.3933,219.7131 351.7847,192.1045 351.7847,158.0604 351.7847,124.0164 379.3933,96.4078 413.4374,96.4078 447.4815,96.4078 475.0901,124.0164 475.0901,158.0604 Z" />
		<path style="fill-rule:evenodd;fill:#000000;" d="M 706.8196,162.038 C 706.8196,181.8056 690.7888,197.8364 671.0212,197.8364 651.2537,197.8364 635.2229,181.8056 635.2229,162.038 635.2229,142.2705 651.2537,126.2397 671.0212,126.2397 690.7888,126.2397 706.8196,142.2705 706.8196,162.038 Z" />
		<path style="fill-rule:evenodd;fill:#000000;" d="M 194.7046,162.0381 C 194.7046,181.8056 178.6738,197.8364 158.9063,197.8364 139.1387,197.8364 123.1079,181.8056 123.1079,162.0381 123.1079,142.2705 139.1387,126.2397 158.9063,126.2397 178.6738,126.2397 194.7046,142.2705 194.7046,162.0381 Z" />
		<path style="fill:#000000;" d="M 302.9918,97.6292 C 268.855,97.722 224.7613,108.4554 170.717,140.6636 L 186.4516,167.0656 C 253.6153,127.0388 299.0929,124.7739 327.4695,130.756 355.8462,136.7381 366.727,149.938 366.727,149.938 L 389.8283,129.6654 C 389.8283,129.6654 370.4738,108.4111 333.8095,100.6819 324.6434,98.7496 314.3708,97.5982 302.9918,97.6292 Z" />
		<path style="fill:#000000;" d="M 531.6765,96.6826 C 520.8708,96.6491 511.106,97.8063 502.3883,99.7571 467.5177,107.5605 449.2728,128.8918 449.2728,128.8918 L 472.2646,147.8989 C 472.2646,147.8989 482.5024,134.7761 508.9029,128.8682 535.3033,122.9603 577.7378,125.0967 640.9133,165.0633 L 656.8617,139.8534 C 605.8784,107.5999 564.0935,96.7831 531.6765,96.6826 Z" />
		<path style="fill-rule:evenodd;fill:#000000;" d="M 451.1831,73.706 C 451.1831,84.4627 447.2063,94.7789 440.1276,102.3851 433.0489,109.9912 423.4482,114.2643 413.4374,114.2643 403.4266,114.2643 393.8258,109.9912 386.7471,102.3851 379.6684,94.7789 375.6917,84.4627 375.6917,73.706 375.6917,62.9493 379.6684,52.6331 386.7471,45.0269 393.8258,37.4208 402.9294,3.3157 412.9402,3.3157 422.951,3.3157 433.0489,37.4208 440.1276,45.0269 447.2064,52.6331 451.1831,62.9493 451.1831,73.706 Z" />
		<path style="fill:#000000;" d="M 156.9296,190.8468 C 156.926,190.8468 156.9217,190.8468 156.9175,190.8468 153.7217,190.8468 150.9902,192.8384 149.8968,195.6479 L 29.5705,512.056 C 29.2351,512.8784 29.0404,513.8322 29.0404,514.8315 29.0404,518.99 32.4128,522.3624 36.5713,522.3624 39.8049,522.3624 42.5632,520.3232 43.6301,517.461 L 156.9755,219.4072 272.9184,519.2936 C 274.0131,522.1869 276.761,524.2075 279.9799,524.2075 284.1384,524.2075 287.5108,520.8351 287.5108,516.6767 287.5108,515.6629 287.3103,514.6958 286.9469,513.8129 L 163.9409,195.6602 C 162.8212,192.824 160.1059,190.8521 156.9303,190.8468 Z" />
		<path style="fill:#000000;" d="M 672.0279,190.8468 C 672.0243,190.8468 672.02,190.8468 672.0157,190.8468 668.82,190.8468 666.0885,192.8384 664.995,195.6479 L 544.6688,512.056 C 544.3329,512.879 544.1379,513.8335 544.1379,514.8335 544.1379,518.992 547.5102,522.3644 551.6687,522.3644 554.9031,522.3644 557.6619,520.3243 558.7283,517.461 L 672.0737,219.4072 788.0166,519.2936 C 789.111,522.1875 791.8592,524.2086 795.0785,524.2086 799.237,524.2086 802.6094,520.8362 802.6094,516.6777 802.6094,515.6635 802.4088,514.6961 802.0452,513.813 L 679.0391,195.6602 C 677.9194,192.824 675.2041,190.8521 672.0285,190.8468 Z" />
	</g>
</g>
</svg>