<?xml version="1.0" encoding="utf-8"?>
<!-- Created by sK1 2.0rc4 (https://sk1project.net/) -->
<svg xmlns="http://www.w3.org/2000/svg" height="832.677165354pt" viewBox="0 0 832.677165354 832.677165354" width="832.677165354pt" version="1.1" xmlns:xlink="http://www.w3.org/1999/xlink" id="4afab54e-b1dc-11ea-bb2a-a0f3c11e789f">

<g>
	<path style="fill-rule:evenodd;fill:#000000;" d="M 382.5641,323.4442 L 416.3388,186.9442 450.0853,323.4442 450.0853,475.0859 382.5641,475.0859 382.5641,323.4442 Z" />
	<path style="fill-rule:evenodd;fill:#000000;" d="M 416.3388,3.1883 C 188.5751,3.1883 3.1892,188.5741 3.1892,416.3379 3.1892,644.1017 188.5751,829.4875 416.3388,829.4875 644.1026,829.4875 829.4885,644.1017 829.4885,416.3379 829.4885,188.5741 644.1026,3.1883 416.3388,3.1883 Z M 416.3388,75.1883 C 605.1829,75.1883 757.4885,227.4938 757.4885,416.3379 757.4885,605.182 605.1829,757.4875 416.3388,757.4875 227.4948,757.4875 75.1892,605.182 75.1892,416.3379 75.1892,227.4938 227.4948,75.1883 416.3388,75.1883 Z" />
	<path style="fill:none;" d="M 382.5641,186.9442 L 382.5641,460.4381 444.8706,460.4381 444.8706,186.9442 382.5641,186.9442 Z" />
	<path style="fill-rule:evenodd;fill:#000000;" d="M 244.2419,320.244 C 244.2419,344.9526 224.204,364.9904 199.4954,364.9904 174.7868,364.9904 154.749,344.9526 154.749,320.244 154.749,295.5354 174.7868,275.4976 199.4954,275.4976 224.204,275.4976 244.2419,295.5354 244.2419,320.244 Z" />
	<path style="fill-rule:evenodd;fill:#000000;" d="M 372.9661,196.2566 C 372.9661,220.9652 352.9283,241.003 328.2197,241.003 303.5111,241.003 283.4732,220.9652 283.4732,196.2566 283.4732,171.548 303.5111,151.5101 328.2197,151.5101 352.9283,151.5101 372.9661,171.548 372.9661,196.2566 Z" />
	<path style="fill-rule:evenodd;fill:#000000;" d="M 509.5033,241.7682 C 484.8285,243.06 463.7704,224.0972 462.4786,199.4224 461.1868,174.7476 480.1497,153.6896 504.8245,152.3978 529.4993,151.106 550.5573,170.0688 551.8491,194.7436 553.1409,219.4184 534.1781,240.4764 509.5033,241.7682 Z" />
	<path style="fill-rule:evenodd;fill:#000000;" d="M 635.722,364.3791 C 611.0472,365.6709 589.9892,346.708 588.6974,322.0332 587.4056,297.3584 606.3684,276.3004 631.0432,275.0086 655.718,273.7168 676.776,292.6796 678.0679,317.3544 679.3597,342.0292 660.3968,363.0873 635.722,364.3791 Z" />
</g>
</svg>