<?xml version="1.0" encoding="utf-8"?>
<!-- Created by sK1 2.0rc4 (https://sk1project.net/) -->
<svg xmlns="http://www.w3.org/2000/svg" height="832.677165354pt" viewBox="0 0 832.677165354 832.677165354" width="832.677165354pt" version="1.1" xmlns:xlink="http://www.w3.org/1999/xlink" id="8621f804-b113-11ea-bb2a-a0f3c11e789f">

<g>
	<g>
		<path style="fill-rule:evenodd;fill:#2d2c2b;" d="M 700.2431,672.6243 C 715.8984,672.6243 728.5896,659.9331 728.5896,644.2778 728.5896,628.6225 715.8984,615.9314 700.2431,615.9314 L 232.4997,615.9314 243.0664,605.3647 C 246.1756,602.272 248.6111,598.392 250.0362,593.91 251.4613,589.4281 251.7138,584.854 250.9617,580.5336 L 169.026,102.3324 C 168.472,99.034 167.3014,95.76 165.4851,92.689 163.6687,89.618 161.3634,87.0151 158.7397,84.9409 L 47.4226,29.3451 C 35.1737,19.5956 17.3405,21.6217 7.591,33.8707 -2.1585,46.1196 -0.1323,63.9528 12.1166,73.7023 L 114.9735,122.5643 192.6058,575.6494 144.0213,624.2338 C 136.1567,632.0936 133.3563,644.2125 137.8766,655.1255 142.3969,666.0386 152.9465,672.6277 164.0653,672.6243 L 700.2431,672.6243 Z" />
		<path style="fill-rule:evenodd;fill:#2d2c2b;" d="M 235.9551,568.1565 C 207.0239,568.1565 205.7938,548.9123 205.7938,523.6326 L 145.4711,197.6034 C 145.4711,172.3238 138.0838,151.6433 167.015,151.6433 L 778.8586,153.4386 C 807.7897,153.4386 831.2519,173.9396 831.2519,199.2192 L 753.0058,443.2025 C 745.9966,466.0685 723.221,485.1308 700.6125,488.9831 L 235.9551,568.1565 Z" />
		<path style="fill-rule:evenodd;fill:#2d2c2b;" d="M 317.8213,749.1766 C 317.8213,715.8669 290.8082,688.8538 257.4985,688.8538 224.1887,688.8538 197.1756,715.8669 197.1756,749.1766 197.1756,782.4864 224.1887,809.4995 257.4985,809.4995 290.8082,809.4995 317.8213,782.4864 317.8213,749.1766 Z" />
		<path style="fill-rule:evenodd;fill:#2d2c2b;" d="M 676.8841,749.1782 C 676.8841,715.8685 649.871,688.8554 616.5612,688.8554 583.2515,688.8554 556.2384,715.8685 556.2384,749.1782 556.2384,782.488 583.2515,809.5011 616.5612,809.5011 649.871,809.5011 676.8841,782.488 676.8841,749.1782 Z" />
	</g>
</g>
</svg>