<?xml version="1.0" encoding="utf-8"?>
<!-- Created by sK1 2.0rc4 (https://sk1project.net/) -->
<svg xmlns="http://www.w3.org/2000/svg" height="832.677165354pt" viewBox="0 0 832.677165354 832.677165354" width="832.677165354pt" version="1.1" xmlns:xlink="http://www.w3.org/1999/xlink" id="296c0166-b115-11ea-bb2a-a0f3c11e789f">

<g>
	<g>
		<g>
			<path style="fill-rule:evenodd;fill:#2d2c2b;" d="M 190.3387,264.6396 C 182.512,264.76 176.2648,271.2024 176.3852,279.0291 176.5056,286.8559 182.948,293.1031 190.7748,292.9827 L 750.9131,284.3651 C 758.7398,284.2447 764.9871,277.8023 764.8666,269.9756 764.7462,262.1488 758.3038,255.9016 750.4771,256.022 L 190.3387,264.6396 Z" />
			<path style="fill-rule:evenodd;fill:#2d2c2b;" d="M 209.0458,395.8838 C 201.2694,396.7777 195.6899,403.8064 196.5838,411.5828 197.4776,419.3593 204.5063,424.9387 212.2827,424.0449 L 712.0985,366.5948 C 719.8749,365.7009 725.4544,358.6723 724.5606,350.8958 723.6667,343.1194 716.638,337.5399 708.8616,338.4338 L 209.0458,395.8838 Z" />
			<path style="fill-rule:evenodd;fill:#2d2c2b;" d="M 469.3783,145.9966 C 469.008,138.1777 462.3693,132.1394 454.5504,132.5097 446.7315,132.8801 440.6933,139.5187 441.0636,147.3376 L 457.5097,494.57 C 457.8801,502.3889 464.5188,508.4272 472.3376,508.0568 480.1565,507.6865 486.1948,501.0478 485.8245,493.2289 L 469.3783,145.9966 Z" />
			<path style="fill-rule:evenodd;fill:#2d2c2b;" d="M 638.9678,161.2488 C 639.9995,153.4894 634.5457,146.3629 626.7863,145.3312 619.0269,144.2995 611.9004,149.7534 610.8687,157.5127 L 566.5535,490.808 C 565.5218,498.5673 570.9757,505.6939 578.7351,506.7256 586.4945,507.7573 593.621,502.3034 594.6527,494.5441 L 638.9678,161.2488 Z" />
			<path style="fill-rule:evenodd;fill:#2d2c2b;" d="M 321.586,156.346 C 320.257,148.632 312.9262,143.4559 305.2122,144.7849 297.4982,146.114 292.3221,153.4448 293.6511,161.1588 L 352.6726,503.7333 C 354.0016,511.4473 361.3324,516.6233 369.0464,515.2943 376.7604,513.9653 381.9365,506.6344 380.6074,498.9204 L 321.586,156.346 Z" />
		</g>
		<path style="fill-rule:evenodd;fill:#2d2c2b;" d="M 221.4652,509.9375 C 206.0263,512.5313 195.6132,527.1497 198.2069,542.5887 200.8007,558.0276 215.4191,568.4407 230.8581,565.8469 L 698.2843,487.3186 C 703.0505,486.5281 707.6806,484.4995 711.673,481.1917 715.6654,477.8838 718.5194,473.7116 720.1822,469.1754 L 829.3374,173.3075 C 832.4025,164.9861 831.524,155.3535 826.1299,147.478 820.7358,139.6024 812.0717,135.3024 803.2049,135.1533 L 157.6834,124.634 C 142.0302,124.3789 129.1339,136.8616 128.8788,152.5148 128.6238,168.168 141.1064,181.0643 156.7597,181.3194 L 762.3128,191.1874 672.6826,434.1323 221.4652,509.9375 Z" />
		<path style="fill-rule:evenodd;fill:#2d2c2b;" d="M 700.4072,655.3658 C 716.0625,655.3658 728.7536,642.6746 728.7536,627.0193 728.7536,611.364 716.0625,598.6729 700.4072,598.6729 L 232.6638,598.6729 243.2305,588.1062 C 246.3396,585.0135 248.7752,581.1335 250.2003,576.6515 251.6254,572.1696 251.8779,567.5955 251.1258,563.275 L 169.1901,85.0739 C 168.6361,81.7755 167.4655,78.5015 165.6492,75.4305 163.8328,72.3595 161.5275,69.7566 158.9038,67.6824 L 47.5867,12.0866 C 35.3378,2.3371 17.5045,4.3632 7.755,16.6122 -1.9945,28.8611 0.0317,46.6943 12.2806,56.4438 L 115.1376,105.3058 192.7698,558.3909 144.1854,606.9753 C 136.3208,614.8351 133.5203,626.954 138.0407,637.867 142.561,648.7801 153.1106,655.3692 164.2294,655.3658 L 700.4072,655.3658 Z" />
		<path style="fill-rule:evenodd;fill:#2d2c2b;" d="M 336.4673,752.2629 C 336.4673,711.1255 303.1087,677.7668 261.9713,677.7668 220.8339,677.7668 187.4752,711.1255 187.4752,752.2629 187.4752,793.4003 220.8339,826.759 261.9713,826.759 303.1087,826.759 336.4673,793.4003 336.4673,752.2629 Z M 308.1209,752.2629 C 308.1209,777.745 287.4534,798.4125 261.9713,798.4125 236.4892,798.4125 215.8217,777.745 215.8217,752.2629 215.8217,726.7808 236.4892,706.1133 261.9713,706.1133 287.4534,706.1133 308.1209,726.7808 308.1209,752.2629 Z" />
		<path style="fill-rule:evenodd;fill:#2d2c2b;" d="M 685.5523,750.8254 C 685.5523,709.688 652.1937,676.3293 611.0563,676.3293 569.9188,676.3293 536.5602,709.688 536.5602,750.8254 536.5602,791.9628 569.9188,825.3215 611.0563,825.3215 652.1937,825.3215 685.5523,791.9628 685.5523,750.8254 Z M 657.2059,750.8254 C 657.2059,776.3075 636.5384,796.975 611.0563,796.975 585.5742,796.975 564.9066,776.3075 564.9066,750.8254 564.9066,725.3433 585.5742,704.6758 611.0563,704.6758 636.5384,704.6758 657.2059,725.3433 657.2059,750.8254 Z" />
	</g>
</g>
</svg>