<?xml version="1.0" encoding="utf-8"?>
<!-- Created by sK1 2.0rc4 (https://sk1project.net/) -->
<svg xmlns="http://www.w3.org/2000/svg" height="832.677165354pt" viewBox="0 0 832.677165354 832.677165354" width="832.677165354pt" version="1.1" xmlns:xlink="http://www.w3.org/1999/xlink" id="cd9253f2-b44a-11ea-be2e-a0f3c11e789f">

<g>
	<g>
		<path style="fill:#2d2c2b;" d="M 630.711,368.1222 C 567.0389,368.4437 503.9442,382.6859 441.6902,409.3388 L 382.7433,409.3388 C 261.0305,354.427 125.9528,355.1732 3.0107,412.0036 L 22.6423,464.3907 C 53.1533,469.5653 41.5849,475.1226 52.6362,538.9012 73.8409,628.8117 127.6577,660.2503 204.7622,660.2502 274.4574,660.2502 325.3943,631.589 359.7971,571.2934 376.0819,539.0771 383.5261,517.0542 388.9126,483.25 396.6589,468.1814 432.4282,464.0985 440.5522,483.25 456.9458,531.4612 465.1437,552.4375 473.7572,571.5573 497.4044,616.7432 520.0047,660.2502 627.9588,660.2502 706.6058,655.6227 762.1702,610.4878 774.5101,539.1651 783.138,479.2643 781.6866,459.3287 811.4905,466.8506 L 829.6556,411.8574 C 762.976,382.0292 696.5468,367.7897 630.711,368.1222 Z" />
		<path style="fill-rule:evenodd;fill:#2d2c2b;" d="M 24.022,402.7301 C 14.0187,412.6527 13.9533,428.8058 23.8759,438.809 33.7985,448.8122 49.9515,448.8776 59.9548,438.9551 L 275.4449,225.2027 318.8074,232.1967 C 332.7174,234.4402 345.8124,224.9827 348.056,211.0727 350.2995,197.1627 340.842,184.0676 326.932,181.8241 L 270.7557,172.7634 C 266.9191,172.1336 262.8645,172.3843 258.8934,173.6595 254.9222,174.9347 251.4797,177.0914 248.727,179.8372 L 24.022,402.7301 Z" />
		<path style="fill-rule:evenodd;fill:#2d2c2b;" d="M 810.8504,402.7301 C 820.9457,412.6527 821.0117,428.8058 810.9978,438.809 800.9839,448.8122 784.6822,448.8776 774.587,438.9551 L 557.114,225.2027 513.3525,232.1967 C 499.3145,234.4402 486.0989,224.9827 483.8347,211.0727 481.5705,197.1627 491.1151,184.0676 505.1531,181.8241 L 561.8463,172.7634 C 565.7182,172.1336 569.8101,172.3843 573.8178,173.6595 577.8255,174.9347 581.2997,177.0914 584.0777,179.8372 L 810.8504,402.7301 Z" />
	</g>
</g>
</svg>