<?xml version="1.0" encoding="utf-8"?>
<!-- Created by sK1 2.0rc4 (https://sk1project.net/) -->
<svg xmlns="http://www.w3.org/2000/svg" height="832.677165354pt" viewBox="0 0 832.677165354 832.677165354" width="832.677165354pt" version="1.1" xmlns:xlink="http://www.w3.org/1999/xlink" id="f56e930e-b44a-11ea-be2e-a0f3c11e789f">

<g>
	<path style="fill:#2d2c2b;" d="M 630.7129,270.2804 C 567.0409,270.6019 503.9461,284.8441 441.6922,311.497 L 382.7453,311.497 C 261.0325,256.5852 125.9547,257.3314 3.0127,314.1618 L 22.6443,366.5489 C 53.1552,371.7235 41.5869,377.2809 52.6381,441.0594 73.8428,530.9699 127.6597,562.4085 204.7642,562.4084 274.4593,562.4084 325.3963,533.7472 359.7991,473.4516 376.0838,441.2353 383.5281,419.2124 388.9146,385.4082 396.6609,370.3396 432.4302,366.2567 440.5541,385.4082 456.9478,433.6194 465.1457,454.5957 473.7592,473.7155 497.4063,518.9014 520.0066,562.4084 627.9608,562.4084 706.6078,557.7809 762.1722,512.646 774.512,441.3233 783.14,381.4225 781.6885,361.4869 811.4925,369.0088 L 829.6576,314.0156 C 762.9779,284.1874 696.5487,269.9479 630.7129,270.2804 Z" />
</g>
</svg>