<?xml version="1.0" encoding="UTF-8"?>
<!DOCTYPE svg PUBLIC "-//W3C//DTD SVG 1.1//EN" "http://www.w3.org/Graphics/SVG/1.1/DTD/svg11.dtd">
<svg version="1.2" width="293.75mm" height="293.75mm" viewBox="0 0 29375 29375" preserveAspectRatio="xMidYMid" fill-rule="evenodd" stroke-width="28.222" stroke-linejoin="round" xmlns="http://www.w3.org/2000/svg" xmlns:ooo="http://xml.openoffice.org/svg/export" xmlns:xlink="http://www.w3.org/1999/xlink" xmlns:presentation="http://sun.com/xmlns/staroffice/presentation" xmlns:smil="http://www.w3.org/2001/SMIL20/" xmlns:anim="urn:oasis:names:tc:opendocument:xmlns:animation:1.0" xml:space="preserve">
 <defs class="ClipPathGroup">
  <clipPath id="presentation_clip_path" clipPathUnits="userSpaceOnUse">
   <rect x="0" y="0" width="29375" height="29375"/>
  </clipPath>
  <clipPath id="presentation_clip_path_shrink" clipPathUnits="userSpaceOnUse">
   <rect x="29" y="29" width="29317" height="29317"/>
  </clipPath>
 </defs>
 <defs class="TextShapeIndex">
  <g ooo:slide="id1" ooo:id-list="id3"/>
 </defs>
 <defs class="EmbeddedBulletChars">
  <g id="bullet-char-template-57356" transform="scale(0.00048828125,-0.00048828125)">
   <path d="M 580,1141 L 1163,571 580,0 -4,571 580,1141 Z"/>
  </g>
  <g id="bullet-char-template-57354" transform="scale(0.00048828125,-0.00048828125)">
   <path d="M 8,1128 L 1137,1128 1137,0 8,0 8,1128 Z"/>
  </g>
  <g id="bullet-char-template-10146" transform="scale(0.00048828125,-0.00048828125)">
   <path d="M 174,0 L 602,739 174,1481 1456,739 174,0 Z M 1358,739 L 309,1346 659,739 1358,739 Z"/>
  </g>
  <g id="bullet-char-template-10132" transform="scale(0.00048828125,-0.00048828125)">
   <path d="M 2015,739 L 1276,0 717,0 1260,543 174,543 174,936 1260,936 717,1481 1274,1481 2015,739 Z"/>
  </g>
  <g id="bullet-char-template-10007" transform="scale(0.00048828125,-0.00048828125)">
   <path d="M 0,-2 C -7,14 -16,27 -25,37 L 356,567 C 262,823 215,952 215,954 215,979 228,992 255,992 264,992 276,990 289,987 310,991 331,999 354,1012 L 381,999 492,748 772,1049 836,1024 860,1049 C 881,1039 901,1025 922,1006 886,937 835,863 770,784 769,783 710,716 594,584 L 774,223 C 774,196 753,168 711,139 L 727,119 C 717,90 699,76 672,76 641,76 570,178 457,381 L 164,-76 C 142,-110 111,-127 72,-127 30,-127 9,-110 8,-76 1,-67 -2,-52 -2,-32 -2,-23 -1,-13 0,-2 Z"/>
  </g>
  <g id="bullet-char-template-10004" transform="scale(0.00048828125,-0.00048828125)">
   <path d="M 285,-33 C 182,-33 111,30 74,156 52,228 41,333 41,471 41,549 55,616 82,672 116,743 169,778 240,778 293,778 328,747 346,684 L 369,508 C 377,444 397,411 428,410 L 1163,1116 C 1174,1127 1196,1133 1229,1133 1271,1133 1292,1118 1292,1087 L 1292,965 C 1292,929 1282,901 1262,881 L 442,47 C 390,-6 338,-33 285,-33 Z"/>
  </g>
  <g id="bullet-char-template-9679" transform="scale(0.00048828125,-0.00048828125)">
   <path d="M 813,0 C 632,0 489,54 383,161 276,268 223,411 223,592 223,773 276,916 383,1023 489,1130 632,1184 813,1184 992,1184 1136,1130 1245,1023 1353,916 1407,772 1407,592 1407,412 1353,268 1245,161 1136,54 992,0 813,0 Z"/>
  </g>
  <g id="bullet-char-template-8226" transform="scale(0.00048828125,-0.00048828125)">
   <path d="M 346,457 C 273,457 209,483 155,535 101,586 74,649 74,723 74,796 101,859 155,911 209,963 273,989 346,989 419,989 480,963 531,910 582,859 608,796 608,723 608,648 583,586 532,535 482,483 420,457 346,457 Z"/>
  </g>
  <g id="bullet-char-template-8211" transform="scale(0.00048828125,-0.00048828125)">
   <path d="M -4,459 L 1135,459 1135,606 -4,606 -4,459 Z"/>
  </g>
  <g id="bullet-char-template-61548" transform="scale(0.00048828125,-0.00048828125)">
   <path d="M 173,740 C 173,903 231,1043 346,1159 462,1274 601,1332 765,1332 928,1332 1067,1274 1183,1159 1299,1043 1357,903 1357,740 1357,577 1299,437 1183,322 1067,206 928,148 765,148 601,148 462,206 346,322 231,437 173,577 173,740 Z"/>
  </g>
 </defs>
 <defs class="TextEmbeddedBitmaps"/>
 <g>
  <g id="id2" class="Master_Slide">
   <g id="bg-id2" class="Background"/>
   <g id="bo-id2" class="BackgroundObjects"/>
  </g>
 </g>
 <g class="SlideGroup">
  <g>
   <g id="container-id1">
    <g id="id1" class="Slide" clip-path="url(#presentation_clip_path)">
     <g class="Page">
      <g class="Graphic">
       <g id="id3">
        <rect class="BoundingBox" stroke="none" fill="none" x="-13" y="-13" width="29401" height="29401"/>
        <path fill="rgb(0,0,0)" stroke="none" d="M 7368,2010 C 5034,3357 3357,5034 2010,7368 662,9702 48,11992 48,14687 L 48,14687 48,14687 C 48,17382 662,19672 2010,22006 3357,24340 5034,26017 7368,27364 9702,28712 11992,29326 14687,29326 L 14687,29326 C 17382,29326 19672,28712 22006,27364 24340,26017 26017,24340 27364,22006 28712,19672 29326,17382 29326,14687 L 29326,14687 C 29326,11992 28712,9702 27364,7368 26017,5034 24340,3357 22006,2010 19672,662 17382,48 14687,48 L 14687,48 C 11992,48 9702,662 7368,2010 Z M 14687,3339 C 16776,3339 18552,3815 20361,4860 22170,5904 23470,7204 24514,9013 25559,10822 26035,12598 26035,14687 L 26035,14687 C 26035,16776 25559,18552 24514,20361 23470,22170 22170,23470 20361,24514 18552,25559 16776,26035 14687,26035 L 14687,26035 C 12598,26035 10822,25559 9013,24514 7204,23470 5904,22170 4860,20361 3815,18552 3339,16776 3339,14687 L 3339,14687 C 3339,12598 3815,10822 4860,9013 5904,7204 7204,5904 9013,4860 10822,3815 12598,3339 14687,3339 L 14687,3339 Z"/>
        <path fill="rgb(0,0,0)" stroke="none" d="M 10352,7178 C 8969,7976 7976,8969 7178,10352 6380,11734 6016,13091 6016,14687 L 6016,14687 C 6016,16283 6380,17640 7178,19022 7976,20405 8969,21398 10352,22196 11734,22994 13091,23358 14687,23358 L 14687,23358 C 16283,23358 17640,22994 19022,22196 20405,21398 21398,20405 22196,19022 22994,17640 23358,16283 23358,14687 L 23358,14687 C 23358,13091 22994,11734 22196,10352 21398,8969 20405,7976 19022,7178 17640,6380 16283,6016 14687,6016 L 14687,6016 C 13091,6016 11734,6380 10352,7178 Z M 14687,8743 C 15781,8743 16711,8992 17659,9539 18607,10086 19288,10767 19835,11715 20382,12663 20631,13593 20631,14687 L 20631,14687 20631,14687 C 20631,15781 20382,16711 19835,17659 19288,18607 18607,19288 17659,19835 16711,20382 15781,20631 14687,20631 L 14687,20631 14687,20631 C 13593,20631 12663,20382 11715,19835 10767,19288 10086,18607 9539,17659 8992,16711 8743,15781 8743,14687 L 8743,14687 8743,14687 C 8743,13593 8992,12663 9539,11715 10086,10767 10767,10086 11715,9539 12663,8992 13593,8743 14687,8743 L 14687,8743 14687,8743 Z"/>
        <path fill="rgb(0,0,0)" stroke="none" d="M 14687,11153 L 14687,11153 C 14036,11153 13483,11301 12920,11627 12357,11952 11952,12357 11627,12920 11301,13483 11153,14036 11153,14687 L 11153,14687 C 11153,14687 11153,14687 11153,14687 11153,15338 11301,15891 11627,16454 11952,17017 12357,17422 12920,17747 13483,18073 14036,18221 14687,18221 L 14687,18221 C 14687,18221 14687,18221 14687,18221 15338,18221 15891,18073 16454,17747 17017,17422 17422,17017 17747,16454 18073,15891 18221,15338 18221,14687 18221,14687 18221,14687 18221,14687 L 18221,14687 C 18221,14036 18073,13483 17747,12920 17422,12357 17017,11952 16454,11627 15891,11301 15338,11153 14687,11153 14687,11153 14687,11153 14687,11153 L 14687,11153 Z"/>
       </g>
      </g>
     </g>
    </g>
   </g>
  </g>
 </g>
</svg>