<?xml version="1.0" encoding="utf-8"?>
<!-- Created by sK1 2.0rc4 (https://sk1project.net/) -->
<svg xmlns="http://www.w3.org/2000/svg" height="832.677165354pt" viewBox="0 0 832.677165354 832.677165354" width="832.677165354pt" version="1.1" xmlns:xlink="http://www.w3.org/1999/xlink" id="13cdc6ac-b1b8-11ea-bb2a-a0f3c11e789f">
<defs id="defs1">
	<clipPath clipPathUnits="userSpaceOnUse" id="clipPath1">
		<path style="fill:none;" d="M 209.548,274.3269 L 209.548,471.5467 406.7679,471.5467 406.7679,274.3269 209.548,274.3269 Z" /></clipPath>
	<clipPath clipPathUnits="userSpaceOnUse" id="clipPath2">
		<path style="fill:none;" d="M 209.5481,424.9731 L 209.5481,622.1929 406.7679,622.1929 406.7679,424.9731 209.5481,424.9731 Z" /></clipPath>
	<clipPath clipPathUnits="userSpaceOnUse" id="clipPath3">
		<path style="fill:none;" d="M 209.5482,575.6195 L 209.5482,772.8393 406.768,772.8393 406.768,575.6195 209.5482,575.6195 Z" /></clipPath>
</defs>
<g>
	<path style="fill-rule:evenodd;fill:#000000;" d="M 414.9996,2.8835 C 400.3342,3.0501 385.4578,6.0455 371.2491,12.1648 348.7506,21.8543 330.3591,38.8767 319.4889,60.0725 314.6693,69.4701 309.3364,88.162 309.2716,95.8835 309.2422,99.3879 308.6542,99.5198 293.0001,99.5442 271.839,99.5771 258.5529,102.5727 246.9527,109.9255 229.8826,120.7455 221.4557,136.5363 221.4557,157.7058 L 221.4557,170.6155 185.9024,170.6243 C 166.3482,170.6292 147.3654,171.3956 143.7179,172.3279 135.3454,174.4677 125.8114,182.1075 120.8385,190.6604 L 116.9903,197.2756 116.9903,500.2434 116.9903,803.2112 120.7711,809.6755 C 125.6274,817.9803 130.8645,822.4043 140.693,826.5052 148.5347,829.777 150.5907,829.8025 416.3385,829.8025 682.0862,829.8025 684.1438,829.777 691.9855,826.5052 701.8139,822.4043 707.0511,817.9803 711.9074,809.6755 L 715.6866,803.2112 715.6866,500.2434 715.6866,197.2756 711.7887,190.5652 C 707.0547,182.4179 696.7916,174.3377 688.4742,172.2078 685.0945,171.3423 666.3302,170.6291 646.776,170.6243 L 611.2228,170.6155 611.2228,157.7058 C 611.2228,136.6559 602.7603,120.6852 586.0304,110.1614 574.3334,102.8034 560.0475,99.5193 539.7472,99.5193 524.0122,99.5193 523.4364,99.3909 523.4069,95.8835 523.3421,88.162 518.0091,69.4701 513.1896,60.0725 494.4738,23.5789 455.5453,2.4231 414.9996,2.8835 Z M 416.3385,54.2746 C 440.1581,54.2746 462.1513,71.4698 466.4581,93.4592 L 467.6461,99.5193 416.3385,99.5193 365.0323,99.5193 366.2452,93.4592 C 370.7044,71.1657 392.2966,54.2746 416.3385,54.2746 Z M 165.273,214.2429 L 193.3644,214.2429 221.4557,214.2429 221.4557,234.4402 221.4557,254.6374 416.3385,254.6374 611.2228,254.6374 611.2228,234.4402 611.2228,214.2429 639.3141,214.2429 667.4054,214.2429 667.4054,500.2434 667.4054,786.2454 416.3385,786.2454 165.273,786.2454 165.273,500.2434 165.273,214.2429 Z" />
	<g>
		<g clip-path="url(#clipPath1)">
			<g>
				<path style="fill:none;" d="M 209.4608,274.2396 L 209.4608,471.634 406.8552,471.634 406.8552,274.2396 209.4608,274.2396 Z" />
				<path style="fill-rule:evenodd;fill:#000000;" d="M 273.3701,452.2846 L 272.7054,451.62 272.3764,451.949 210.9177,391.4906 238.2767,363.6549 273.7528,398.5536 378.7241,293.5822 405.3916,320.2631 273.3701,452.2846 Z" />
			</g>
		</g>
		<g clip-path="url(#clipPath2)">
			<g>
				<path style="fill:none;" d="M 209.4608,424.8858 L 209.4608,622.2802 406.8552,622.2802 406.8552,424.8858 209.4608,424.8858 Z" />
				<path style="fill-rule:evenodd;fill:#000000;" d="M 273.3701,602.9308 L 272.7054,602.2661 272.3765,602.5951 210.9177,542.1368 238.2767,514.3011 273.7528,549.1998 378.7241,444.2285 405.3915,470.9094 273.3701,602.9308 Z" />
			</g>
		</g>
		<g clip-path="url(#clipPath3)">
			<g>
				<path style="fill:none;" d="M 209.4609,575.5322 L 209.4609,772.9265 406.8553,772.9265 406.8553,575.5322 209.4609,575.5322 Z" />
				<path style="fill-rule:evenodd;fill:#000000;" d="M 273.3702,753.5772 L 272.7055,752.9125 272.3765,753.2415 210.9178,692.7831 238.2768,664.9475 273.7529,699.8461 378.7242,594.8749 405.3916,621.5558 273.3702,753.5772 Z" />
			</g>
		</g>
		<path style="fill-rule:evenodd;fill:#000000;" d="M 449.2182,410.329 L 449.2182,409.3891 448.7529,409.3891 448.0456,372.5756 C 508.3476,372.5252 571.0827,372.5252 635.9342,372.6061 L 635.9247,410.329 449.2182,410.329 Z" />
		<path style="fill-rule:evenodd;fill:#000000;" d="M 446.6185,564.615 L 446.6185,563.675 446.1533,563.675 445.4459,526.8615 C 505.7479,526.8112 568.4831,526.8112 633.3345,526.892 L 633.325,564.615 446.6185,564.615 Z" />
		<path style="fill-rule:evenodd;fill:#000000;" d="M 447.0838,713.7397 L 447.0838,712.7997 446.6185,712.7997 445.9112,675.9862 C 506.2131,675.9359 568.9483,675.9359 633.7997,676.0167 L 633.7902,713.7397 447.0838,713.7397 Z" />
	</g>
</g>
</svg>