<?xml version="1.0" encoding="utf-8"?>
<!-- Created by sK1 2.0rc4 (https://sk1project.net/) -->
<svg xmlns="http://www.w3.org/2000/svg" height="832.677165354pt" viewBox="0 0 832.677165354 832.677165354" width="832.677165354pt" version="1.1" xmlns:xlink="http://www.w3.org/1999/xlink" id="cc3656e6-b514-11ea-be2e-a0f3c11e789f">

<g>
	<path style="fill-rule:evenodd;fill:#2d2c2b;" d="M 369.8783,600.495 C 361.8052,608.8643 347.0072,609.7927 336.7717,599.9193 L 235.7428,502.4654 C 225.5073,492.5921 225.9022,477.7703 233.9754,469.4009 L 462.7992,232.1832 C 470.8724,223.8138 485.6703,222.8855 495.9058,232.7588 L 596.9347,330.2128 C 607.1702,340.0861 606.7754,354.9079 598.7022,363.2773 L 369.8783,600.495 Z M 408.9493,638.1834 L 637.7731,400.9657 C 667.8164,369.8204 665.2194,320.6555 634.6231,291.1419 L 533.5942,193.6879 C 502.9979,164.1742 453.7715,163.3494 423.7282,194.4948 L 194.9044,431.7125 C 164.8612,462.8578 167.4581,512.0227 198.0544,541.5363 L 299.0833,638.9903 C 329.6796,668.504 378.906,669.3288 408.9493,638.1834 Z M 751.6952,189.6877 L 792.2231,228.7815 C 833.7845,268.8723 838.4183,331.5223 802.5707,368.6848 L 382.6242,804.0363 C 346.7766,841.1989 284.0004,838.8242 242.4389,798.7333 L 201.8943,759.6234 C 202.4479,759.0761 202.9965,758.5207 203.5401,757.9572 238.1476,722.0802 239.1345,666.8649 205.7441,634.656 172.3537,602.4471 117.2097,605.4217 82.6023,641.2987 82.0587,641.8622 81.5234,642.4305 80.9964,643.0034 L 80.9964,643.0034 40.4505,603.8923 C -1.111,563.8015 -5.7447,501.1515 30.1029,463.9889 L 450.0494,28.6375 C 485.897,-8.5251 548.6732,-6.1504 590.2347,33.9404 L 630.7638,73.0354 C 630.5545,73.2479 630.3462,73.4618 630.1387,73.677 595.5312,109.5539 594.5443,164.7693 627.9347,196.9782 661.3251,229.1871 716.4691,226.2124 751.0765,190.3355 751.2841,190.1203 751.4904,189.9045 751.6956,189.6879 L 751.6952,189.6877 Z" />
</g>
</svg>