<?xml version="1.0" encoding="UTF-8"?>
<!DOCTYPE svg PUBLIC "-//W3C//DTD SVG 1.1//EN" "http://www.w3.org/Graphics/SVG/1.1/DTD/svg11.dtd">
<svg version="1.2" width="293.75mm" height="293.75mm" viewBox="0 0 29375 29375" preserveAspectRatio="xMidYMid" fill-rule="evenodd" stroke-width="28.222" stroke-linejoin="round" xmlns="http://www.w3.org/2000/svg" xmlns:ooo="http://xml.openoffice.org/svg/export" xmlns:xlink="http://www.w3.org/1999/xlink" xmlns:presentation="http://sun.com/xmlns/staroffice/presentation" xmlns:smil="http://www.w3.org/2001/SMIL20/" xmlns:anim="urn:oasis:names:tc:opendocument:xmlns:animation:1.0" xml:space="preserve">
 <defs class="ClipPathGroup">
  <clipPath id="presentation_clip_path" clipPathUnits="userSpaceOnUse">
   <rect x="0" y="0" width="29375" height="29375"/>
  </clipPath>
  <clipPath id="presentation_clip_path_shrink" clipPathUnits="userSpaceOnUse">
   <rect x="29" y="29" width="29317" height="29317"/>
  </clipPath>
 </defs>
 <defs class="TextShapeIndex">
  <g ooo:slide="id1" ooo:id-list="id3"/>
 </defs>
 <defs class="EmbeddedBulletChars">
  <g id="bullet-char-template-57356" transform="scale(0.00048828125,-0.00048828125)">
   <path d="M 580,1141 L 1163,571 580,0 -4,571 580,1141 Z"/>
  </g>
  <g id="bullet-char-template-57354" transform="scale(0.00048828125,-0.00048828125)">
   <path d="M 8,1128 L 1137,1128 1137,0 8,0 8,1128 Z"/>
  </g>
  <g id="bullet-char-template-10146" transform="scale(0.00048828125,-0.00048828125)">
   <path d="M 174,0 L 602,739 174,1481 1456,739 174,0 Z M 1358,739 L 309,1346 659,739 1358,739 Z"/>
  </g>
  <g id="bullet-char-template-10132" transform="scale(0.00048828125,-0.00048828125)">
   <path d="M 2015,739 L 1276,0 717,0 1260,543 174,543 174,936 1260,936 717,1481 1274,1481 2015,739 Z"/>
  </g>
  <g id="bullet-char-template-10007" transform="scale(0.00048828125,-0.00048828125)">
   <path d="M 0,-2 C -7,14 -16,27 -25,37 L 356,567 C 262,823 215,952 215,954 215,979 228,992 255,992 264,992 276,990 289,987 310,991 331,999 354,1012 L 381,999 492,748 772,1049 836,1024 860,1049 C 881,1039 901,1025 922,1006 886,937 835,863 770,784 769,783 710,716 594,584 L 774,223 C 774,196 753,168 711,139 L 727,119 C 717,90 699,76 672,76 641,76 570,178 457,381 L 164,-76 C 142,-110 111,-127 72,-127 30,-127 9,-110 8,-76 1,-67 -2,-52 -2,-32 -2,-23 -1,-13 0,-2 Z"/>
  </g>
  <g id="bullet-char-template-10004" transform="scale(0.00048828125,-0.00048828125)">
   <path d="M 285,-33 C 182,-33 111,30 74,156 52,228 41,333 41,471 41,549 55,616 82,672 116,743 169,778 240,778 293,778 328,747 346,684 L 369,508 C 377,444 397,411 428,410 L 1163,1116 C 1174,1127 1196,1133 1229,1133 1271,1133 1292,1118 1292,1087 L 1292,965 C 1292,929 1282,901 1262,881 L 442,47 C 390,-6 338,-33 285,-33 Z"/>
  </g>
  <g id="bullet-char-template-9679" transform="scale(0.00048828125,-0.00048828125)">
   <path d="M 813,0 C 632,0 489,54 383,161 276,268 223,411 223,592 223,773 276,916 383,1023 489,1130 632,1184 813,1184 992,1184 1136,1130 1245,1023 1353,916 1407,772 1407,592 1407,412 1353,268 1245,161 1136,54 992,0 813,0 Z"/>
  </g>
  <g id="bullet-char-template-8226" transform="scale(0.00048828125,-0.00048828125)">
   <path d="M 346,457 C 273,457 209,483 155,535 101,586 74,649 74,723 74,796 101,859 155,911 209,963 273,989 346,989 419,989 480,963 531,910 582,859 608,796 608,723 608,648 583,586 532,535 482,483 420,457 346,457 Z"/>
  </g>
  <g id="bullet-char-template-8211" transform="scale(0.00048828125,-0.00048828125)">
   <path d="M -4,459 L 1135,459 1135,606 -4,606 -4,459 Z"/>
  </g>
  <g id="bullet-char-template-61548" transform="scale(0.00048828125,-0.00048828125)">
   <path d="M 173,740 C 173,903 231,1043 346,1159 462,1274 601,1332 765,1332 928,1332 1067,1274 1183,1159 1299,1043 1357,903 1357,740 1357,577 1299,437 1183,322 1067,206 928,148 765,148 601,148 462,206 346,322 231,437 173,577 173,740 Z"/>
  </g>
 </defs>
 <defs class="TextEmbeddedBitmaps"/>
 <g>
  <g id="id2" class="Master_Slide">
   <g id="bg-id2" class="Background"/>
   <g id="bo-id2" class="BackgroundObjects"/>
  </g>
 </g>
 <g class="SlideGroup">
  <g>
   <g id="container-id1">
    <g id="id1" class="Slide" clip-path="url(#presentation_clip_path)">
     <g class="Page">
      <g class="Graphic">
       <g id="id3">
        <rect class="BoundingBox" stroke="none" fill="none" x="-13" y="-13" width="29401" height="29401"/>
        <path fill="rgb(0,0,0)" stroke="none" d="M 753,17941 C 363,17941 49,18054 49,18195 L 49,27046 C 49,27186 363,27300 753,27300 L 28621,27300 C 29011,27300 29325,27186 29325,27046 L 29325,18195 C 29325,18054 29011,17941 28621,17941 L 19633,17941 19633,21606 C 19633,21673 19620,21737 19597,21796 19574,21854 19540,21906 19499,21950 19458,21994 19409,22029 19354,22054 19300,22078 19240,22092 19176,22092 L 9911,22092 C 9848,22092 9788,22078 9734,22054 9679,22029 9630,21994 9589,21950 9547,21906 9514,21854 9491,21796 9468,21737 9455,21673 9455,21606 L 9455,17941 753,17941 Z M 21946,22860 C 21990,22860 22034,22862 22078,22867 22122,22871 22165,22878 22208,22887 22251,22895 22294,22906 22336,22919 22378,22932 22419,22947 22460,22964 22500,22982 22540,23001 22579,23022 22617,23043 22655,23066 22691,23091 22728,23116 22763,23142 22796,23171 22830,23199 22862,23229 22893,23261 22923,23292 22952,23325 22980,23360 23007,23394 23033,23430 23057,23467 23080,23504 23102,23542 23122,23581 23142,23621 23160,23661 23176,23702 23192,23743 23206,23785 23218,23827 23229,23869 23239,23912 23247,23956 23254,23999 23259,24043 23263,24087 23265,24118 23266,24149 23266,24180 23266,24224 23264,24268 23259,24312 23255,24356 23248,24399 23239,24442 23231,24485 23220,24528 23207,24570 23194,24612 23179,24653 23162,24694 23144,24735 23125,24774 23104,24813 23083,24851 23060,24889 23035,24925 23010,24962 22984,24997 22955,25030 22927,25064 22897,25096 22866,25127 22834,25157 22801,25187 22766,25214 22732,25241 22696,25267 22659,25291 22622,25314 22584,25336 22545,25356 22505,25376 22465,25394 22424,25410 22383,25426 22341,25440 22299,25452 22257,25464 22214,25473 22170,25481 22127,25488 22083,25493 22039,25497 22008,25499 21977,25500 21946,25500 21902,25500 21858,25498 21814,25493 21770,25489 21727,25482 21684,25474 21641,25465 21598,25454 21556,25441 21514,25428 21473,25413 21432,25396 21391,25379 21352,25359 21313,25338 21275,25317 21237,25294 21201,25269 21164,25244 21129,25218 21096,25189 21062,25161 21030,25131 20999,25100 20969,25068 20939,25035 20912,25000 20885,24966 20859,24930 20835,24893 20812,24856 20790,24818 20770,24779 20750,24740 20732,24699 20716,24658 20700,24617 20686,24576 20674,24533 20662,24491 20653,24448 20645,24404 20638,24361 20633,24317 20629,24273 20627,24242 20626,24211 20626,24180 20626,24136 20628,24092 20633,24048 20637,24005 20644,23961 20652,23918 20661,23875 20672,23832 20685,23790 20698,23748 20713,23707 20730,23666 20748,23626 20767,23586 20788,23547 20809,23509 20832,23471 20857,23435 20882,23399 20908,23363 20936,23330 20965,23296 20995,23264 21026,23233 21058,23203 21091,23174 21126,23146 21160,23119 21196,23093 21233,23069 21270,23046 21308,23024 21347,23004 21387,22984 21427,22966 21468,22950 21509,22934 21551,22920 21593,22908 21635,22897 21678,22887 21722,22879 21765,22872 21809,22867 21853,22864 21884,22861 21915,22860 21946,22860 L 21946,22860 Z M 26157,22860 C 26201,22860 26245,22862 26289,22867 26333,22871 26376,22878 26419,22887 26463,22895 26505,22906 26547,22919 26589,22932 26631,22947 26671,22964 26712,22982 26751,23001 26790,23022 26829,23043 26866,23066 26903,23091 26939,23116 26974,23142 27008,23171 27041,23199 27073,23229 27104,23261 27135,23292 27164,23325 27191,23360 27218,23394 27244,23430 27268,23467 27292,23504 27314,23542 27333,23581 27353,23621 27371,23661 27387,23702 27403,23743 27417,23785 27429,23827 27441,23869 27450,23912 27458,23956 27465,23999 27471,24043 27474,24087 27476,24118 27477,24149 27477,24180 27477,24224 27475,24268 27471,24312 27466,24356 27460,24399 27451,24442 27442,24485 27431,24528 27418,24570 27405,24612 27390,24653 27373,24694 27356,24735 27337,24774 27316,24813 27294,24851 27271,24889 27247,24925 27222,24962 27195,24997 27167,25030 27138,25064 27108,25096 27077,25127 27045,25157 27012,25187 26978,25214 26943,25241 26907,25267 26870,25291 26833,25314 26795,25336 26756,25356 26717,25376 26677,25394 26635,25410 26594,25426 26553,25440 26510,25452 26468,25464 26425,25473 26382,25481 26338,25488 26295,25493 26251,25497 26220,25499 26188,25500 26157,25500 26113,25500 26069,25498 26026,25493 25982,25489 25938,25482 25895,25474 25852,25465 25809,25454 25767,25441 25725,25428 25684,25413 25643,25396 25603,25379 25563,25359 25525,25338 25486,25317 25448,25294 25412,25269 25376,25244 25341,25218 25307,25189 25273,25161 25241,25131 25210,25100 25180,25068 25151,25035 25123,25000 25096,24966 25070,24930 25047,24893 25023,24856 25001,24818 24981,24779 24961,24740 24943,24699 24927,24658 24911,24617 24897,24575 24886,24533 24874,24491 24864,24448 24857,24404 24849,24361 24844,24317 24841,24273 24839,24242 24837,24211 24837,24180 24837,24136 24840,24092 24844,24048 24848,24005 24855,23961 24864,23918 24873,23875 24883,23832 24896,23790 24909,23748 24924,23707 24942,23666 24959,23626 24978,23586 24999,23547 25020,23509 25043,23471 25068,23435 25093,23399 25119,23363 25148,23330 25176,23296 25206,23264 25238,23233 25269,23203 25302,23174 25337,23146 25371,23119 25407,23093 25444,23069 25481,23046 25519,23024 25559,23004 25598,22984 25638,22966 25679,22950 25720,22934 25762,22920 25804,22908 25847,22897 25890,22887 25933,22879 25976,22872 26020,22867 26064,22864 26095,22861 26126,22860 26157,22860 L 26157,22860 Z"/>
        <path fill="rgb(0,0,0)" stroke="none" d="M 14410,831 L 6077,9163 C 5924,9317 5940,9580 6113,9753 L 6226,9866 11445,9866 11445,19715 C 11445,19908 11591,20063 11772,20063 L 17602,20063 C 17783,20063 17929,19908 17929,19715 L 17929,9866 23148,9866 23297,9718 C 23450,9564 23434,9301 23261,9128 L 15000,866 C 14902,769 14776,721 14658,726 14565,729 14477,764 14410,831 Z"/>
       </g>
      </g>
     </g>
    </g>
   </g>
  </g>
 </g>
</svg>