<?xml version="1.0" encoding="utf-8"?>
<!-- Created by sK1 2.0rc4 (https://sk1project.net/) -->
<svg xmlns="http://www.w3.org/2000/svg" height="832.677165354pt" viewBox="0 0 832.677165354 832.677165354" width="832.677165354pt" version="1.1" xmlns:xlink="http://www.w3.org/1999/xlink" id="c275223a-b1b9-11ea-bb2a-a0f3c11e789f">

<g>
	<g>
		<g>
			<path style="fill-rule:evenodd;fill:#000000;" d="M 367.8399,238.7933 C 351.3709,238.7933 335.3844,251.5422 335.3844,269.6401 L 335.3844,800.6715 C 335.3844,818.7694 351.3709,831.5183 367.8399,831.5183 L 753.4048,831.5183 C 769.8739,831.5183 785.8603,818.7694 785.8603,800.6715 L 785.8603,372.5365 670.3557,238.7933 661.4073,238.7933 367.8399,238.7933 Z M 374.335,277.5629 L 652.459,277.5629 746.9097,386.9142 746.9097,792.7487 374.335,792.7487 374.335,277.5629 Z" />
			<path style="fill-rule:evenodd;fill:#000000;" d="M 784.2516,379.7354 L 675.5036,379.7354 C 662.634,379.7354 652.2579,371.531 652.2579,361.356 L 652.2579,247.6411 621.3105,247.6411 621.3105,383.8175 C 621.3105,398.6376 636.4122,410.5621 655.1535,410.5621 L 784.2516,410.5621 784.2516,379.7354 Z" />
			<path style="fill-rule:evenodd;fill:#000000;" d="M 436.9335,476.3981 L 436.9335,476.3981 C 436.8129,476.3981 436.6922,476.3981 436.5716,476.3981 432.0471,476.3981 428.2063,477.4236 424.2851,479.6758 420.384,481.928 417.5688,484.7231 415.2965,488.6242 413.0444,492.5253 412.0188,496.3459 412.0188,500.8503 412.0188,505.3547 413.0444,509.1753 415.2965,513.0764 417.5688,516.9775 420.384,519.7726 424.2851,522.0248 428.2063,524.277 432.0471,525.3025 436.5716,525.3025 436.6922,525.3025 436.8129,525.3025 436.9335,525.3025 L 683.9291,525.3025 683.9291,525.3025 C 684.0498,525.3025 684.1503,525.3025 684.271,525.3025 688.7954,525.3025 692.6362,524.277 696.5574,522.0248 700.4585,519.7726 703.2737,516.9775 705.546,513.0764 707.7982,509.1753 708.8438,505.3547 708.8438,500.8503 708.8438,496.3459 707.7982,492.5253 705.546,488.6242 703.2737,484.7231 700.4585,481.928 696.5574,479.6758 692.6362,477.4236 688.7954,476.3981 684.271,476.3981 684.1503,476.3981 684.0498,476.3981 683.9291,476.3981 L 436.9335,476.3981 Z" />
			<path style="fill-rule:evenodd;fill:#000000;" d="M 436.9335,576.8613 L 436.9335,576.8613 C 436.7928,576.8613 436.6922,576.8613 436.5716,576.8613 432.0471,576.8613 428.2063,577.8869 424.2851,580.139 420.384,582.3912 417.5688,585.1863 415.2965,589.0874 413.0444,592.9885 412.0188,596.8092 412.0188,601.3135 412.0188,605.8179 413.0444,609.6386 415.2965,613.5397 417.5688,617.4408 420.384,620.2359 424.2851,622.488 428.2063,624.7402 432.0471,625.7658 436.5716,625.7658 436.6922,625.7658 436.7928,625.7658 436.9335,625.7658 L 683.9291,625.7658 683.9291,625.7658 C 684.0498,625.7658 684.1503,625.7658 684.271,625.7658 688.7954,625.7658 692.6362,624.7402 696.5574,622.488 700.4585,620.2359 703.2737,617.4408 705.546,613.5397 707.7982,609.6386 708.8438,605.8179 708.8438,601.3135 708.8438,596.8092 707.7982,592.9885 705.546,589.0874 703.2737,585.1863 700.4585,582.3912 696.5574,580.139 692.6362,577.8869 688.7954,576.8613 684.271,576.8613 684.1503,576.8613 684.0498,576.8613 683.9291,576.8613 L 436.9335,576.8613 Z" />
			<path style="fill-rule:evenodd;fill:#000000;" d="M 436.9335,677.3246 L 436.9335,677.3246 C 436.7928,677.3246 436.6922,677.3246 436.5716,677.3246 432.0471,677.3246 428.2063,678.3501 424.2851,680.6023 420.384,682.8545 417.5688,685.6496 415.2965,689.5507 413.0444,693.4518 412.0188,697.2724 412.0188,701.7768 412.0188,706.2811 413.0444,710.1018 415.2965,714.0029 417.5688,717.904 420.384,720.7192 424.2851,722.9513 428.2063,725.2035 432.0471,726.229 436.5716,726.229 436.6922,726.229 436.7928,726.229 436.9335,726.229 L 683.9291,726.229 683.9291,726.229 C 684.0498,726.229 684.1503,726.229 684.271,726.229 688.7954,726.229 692.6362,725.2035 696.5574,722.9513 700.4585,720.7192 703.2737,717.904 705.546,714.0029 707.7982,710.1018 708.8438,706.2811 708.8438,701.7768 708.8438,697.2724 707.7982,693.4518 705.546,689.5507 703.2737,685.6496 700.4585,682.8545 696.5574,680.6023 692.6362,678.3501 688.7954,677.3246 684.271,677.3246 684.1503,677.3246 684.0498,677.3246 683.9291,677.3246 L 436.9335,677.3246 Z" />
		</g>
		<path style="fill-rule:evenodd;fill:#000000;" d="M 495.6835,142.1003 L 386.9354,142.1003 C 374.0658,142.1003 363.6897,133.896 363.6897,123.721 L 363.6897,10.0061 332.7424,10.0061 332.7424,146.1824 C 332.7424,161.0026 347.844,172.927 366.5854,172.927 L 495.6835,172.927 495.6835,142.1003 Z" />
		<path style="fill-rule:evenodd;fill:#000000;" d="M 312.4754,238.763 L 148.3654,238.763 148.3654,238.763 C 148.2447,238.763 148.1241,238.763 148.0034,238.763 143.479,238.763 139.6382,239.7886 135.717,242.0408 131.8159,244.2929 129.0007,247.0881 126.7284,250.9892 124.4762,254.8902 123.4507,258.7109 123.4507,263.2153 123.4507,267.7196 124.4762,271.5403 126.7284,275.4414 129.0007,279.3425 131.8159,282.1376 135.717,284.3898 139.6382,286.6419 143.479,287.6675 148.0034,287.6675 148.1241,287.6675 148.2447,287.6675 148.3654,287.6675 L 312.4754,287.6675 312.4754,238.763 Z" />
		<path style="fill-rule:evenodd;fill:#000000;" d="M 312.4754,339.2263 L 148.3654,339.2263 148.3654,339.2263 C 148.2246,339.2263 148.1241,339.2263 148.0034,339.2263 143.479,339.2263 139.6382,340.2518 135.717,342.504 131.8159,344.7562 129.0007,347.5513 126.7284,351.4524 124.4762,355.3535 123.4507,359.1741 123.4507,363.6785 123.4507,368.1829 124.4762,372.0035 126.7284,375.9046 129.0007,379.8057 131.8159,382.6008 135.717,384.853 139.6382,387.1052 143.479,388.1307 148.0034,388.1307 148.1241,388.1307 148.2246,388.1307 148.3654,388.1307 L 312.4754,388.1307 312.4754,339.2263 Z" />
		<path style="fill-rule:evenodd;fill:#000000;" d="M 312.4754,439.6895 L 148.3654,439.6895 148.3654,439.6895 C 148.2246,439.6895 148.1241,439.6895 148.0034,439.6895 143.479,439.6895 139.6382,440.7151 135.717,442.9672 131.8159,445.2194 129.0007,448.0145 126.7284,451.9156 124.4762,455.8167 123.4507,459.6374 123.4507,464.1417 123.4507,468.6461 124.4762,472.4668 126.7284,476.3679 129.0007,480.2689 131.8159,483.0842 135.717,485.3162 139.6382,487.5684 143.479,488.594 148.0034,488.594 148.1241,488.594 148.2246,488.594 148.3654,488.594 L 312.4754,488.594 312.4754,439.6895 Z" />
		<path style="fill-rule:evenodd;fill:#000000;" d="M 497.2922,214.2841 L 497.2922,134.9014 381.7876,1.1582 372.8392,1.1582 79.2718,1.1582 C 62.8027,1.1582 46.8163,13.9072 46.8163,32.005 L 46.8163,563.0365 C 46.8163,581.1344 62.8027,593.8833 79.2718,593.8833 L 311.1461,593.8833 311.1461,555.1137 85.7669,555.1137 85.7669,39.9279 363.8908,39.9279 458.3415,149.2792 458.3415,214.2841 497.2922,214.2841 Z" />
	</g>
</g>
</svg>