<?xml version="1.0" encoding="utf-8"?>
<!-- Created by sK1 2.0rc4 (https://sk1project.net/) -->
<svg xmlns="http://www.w3.org/2000/svg" height="832.677165354pt" viewBox="0 0 832.677165354 832.677165354" width="832.677165354pt" version="1.1" xmlns:xlink="http://www.w3.org/1999/xlink" id="6a5b120a-b1f8-11ea-bb2a-a0f3c11e789f">

<g>
	<g>
		<path style="fill-rule:evenodd;fill:#2d2c2b;" d="M 1.1171,525.0588 L 831.5581,526.6064 831.5581,792.6123 1.1171,791.0736 1.1171,525.0588 Z M 742.0166,658.7516 C 742.0166,633.4275 721.4796,612.8906 696.1555,612.8906 670.8314,612.8906 650.2945,633.4275 650.2945,658.7516 650.2945,684.0757 670.8314,704.6127 696.1555,704.6127 721.4796,704.6127 742.0166,684.0757 742.0166,658.7516 Z" />
		<g>
			<path style="fill-rule:evenodd;fill:#2d2c2b;" d="M 270.1546,259.8928 L 431.5505,147.3889 357.8243,41.3786 703.4581,40.0596 582.2791,362.6518 508.2374,257.0844 346.9213,369.527 270.1546,259.8928 Z" />
			<path style="fill-rule:evenodd;fill:#2d2c2b;" d="M 300.0889,408.405 L 238.8959,450.7948 159.415,336.0578 220.6081,293.668 300.0889,408.405 Z" />
		</g>
	</g>
</g>
</svg>