<?xml version="1.0" encoding="utf-8"?>
<!-- Created by sK1 2.0rc4 (https://sk1project.net/) -->
<svg xmlns="http://www.w3.org/2000/svg" height="832.677165354pt" viewBox="0 0 832.677165354 832.677165354" width="832.677165354pt" version="1.1" xmlns:xlink="http://www.w3.org/1999/xlink" id="4ac6305a-b1f8-11ea-bb2a-a0f3c11e789f">

<g>
	<g>
		<path style="fill-rule:evenodd;fill:#2d2c2b;" d="M 1.1171,528.719 L 831.5581,530.2666 831.5581,796.2724 1.1171,794.7338 1.1171,528.719 Z M 742.0166,662.4118 C 742.0166,637.0877 721.4796,616.5507 696.1555,616.5507 670.8314,616.5507 650.2945,637.0877 650.2945,662.4118 650.2945,687.7358 670.8314,708.2728 696.1555,708.2728 721.4796,708.2728 742.0166,687.7358 742.0166,662.4118 Z" />
		<g>
			<path style="fill-rule:evenodd;fill:#2d2c2b;" d="M 333.992,114.4149 L 494.9117,227.5988 569.313,122.0612 688.7661,446.3995 344.1829,442.8616 418.0601,337.179 257.2253,224.0491 333.992,114.4149 Z" />
			<path style="fill-rule:evenodd;fill:#2d2c2b;" d="M 204.6743,193.3381 L 143.9117,150.3336 224.5451,36.4037 285.3077,79.4082 204.6743,193.3381 Z" />
		</g>
	</g>
</g>
</svg>