<?xml version="1.0" encoding="utf-8"?>
<!-- Created by sK1 2.0rc4 (https://sk1project.net/) -->
<svg xmlns="http://www.w3.org/2000/svg" height="832.677165354pt" viewBox="0 0 832.677165354 832.677165354" width="832.677165354pt" version="1.1" xmlns:xlink="http://www.w3.org/1999/xlink" id="fb00ea1e-b284-11ea-be2e-a0f3c11e789f">

<g>
	<path style="fill-rule:evenodd;fill:#2d2c2b;" d="M 0.0001,348.8286 L 237.0545,349.5086 237.4273,220.3825 494.3132,417.5494 237.0544,612.2961 236.9634,483.3517 0.0001,482.6673 0.0001,348.8286 Z" />
	<path style="fill-rule:evenodd;fill:#2d2c2b;" d="M 237.0508,87.0074 L 745.6703,87.0074 745.6703,745.6716 237.0508,745.6716 237.0508,830.7109 788.19,830.7109 C 799.0717,830.7109 809.9535,826.5597 818.256,818.2572 826.5584,809.9547 830.7097,799.073 830.7097,788.1913 L 830.7097,44.4877 C 830.7097,33.6059 826.5584,22.7242 818.256,14.4217 809.9535,6.1192 799.0717,1.968 788.19,1.968 L 237.0508,1.968 237.0508,87.0074 Z" />
</g>
</svg>