<?xml version="1.0" encoding="utf-8"?>
<!-- Created by sK1 2.0rc4 (https://sk1project.net/) -->
<svg xmlns="http://www.w3.org/2000/svg" height="832.677165354pt" viewBox="0 0 832.677165354 832.677165354" width="832.677165354pt" version="1.1" xmlns:xlink="http://www.w3.org/1999/xlink" id="1d1f6198-b285-11ea-be2e-a0f3c11e789f">

<g>
	<g>
		<path style="fill-rule:evenodd;fill:#2d2c2b;" d="M 337.379,348.8286 L 574.4334,349.5086 574.8062,220.3825 831.6921,417.5494 574.4333,612.2961 574.3423,483.3517 337.379,482.6673 337.379,348.8286 Z" />
		<path style="fill-rule:evenodd;fill:#2d2c2b;" d="M 594.642,745.6698 L 86.0225,745.6698 86.0225,87.0056 594.642,87.0056 594.642,1.9662 43.5028,1.9662 C 32.6211,1.9662 21.7393,6.1175 13.4368,14.42 5.1344,22.7224 0.9831,33.6042 0.9831,44.4859 L 0.9831,788.1895 C 0.9831,799.0712 5.1344,809.953 13.4368,818.2555 21.7393,826.5579 32.6211,830.7092 43.5028,830.7092 L 594.642,830.7092 594.642,745.6698 Z" />
	</g>
</g>
</svg>