<?xml version="1.0" encoding="utf-8"?>
<!-- Created by sK1 2.0rc4 (https://sk1project.net/) -->
<svg xmlns="http://www.w3.org/2000/svg" height="832.677165354pt" viewBox="0 0 832.677165354 832.677165354" width="832.677165354pt" version="1.1" xmlns:xlink="http://www.w3.org/1999/xlink" id="601909f8-b286-11ea-be2e-a0f3c11e789f">

<g>
	<g>
		<path style="fill-rule:evenodd;fill:#2d2c2b;" d="M 472.0068,272.8674 L 623.88,121.8632 541.6279,39.1347 831.6928,0.9841 791.7579,289.7412 709.3256,207.425 557.5077,358.3683 472.0068,272.8674 Z" />
		<path style="fill-rule:evenodd;fill:#2d2c2b;" d="M 684.5735,148.1035 L 684.5735,753.5277 79.1493,753.5277 79.1493,148.1035 442.1464,148.1035 520.312,69.9379 40.0665,69.9379 C 30.0644,69.9379 20.0622,73.7536 12.4308,81.385 4.7994,89.0164 0.9837,99.0185 0.9837,109.0207 L 0.9837,792.6105 C 0.9837,802.6127 4.7994,812.6148 12.4308,820.2462 20.0622,827.8776 30.0644,831.6933 40.0665,831.6933 L 723.6563,831.6933 C 733.6585,831.6933 743.6607,827.8776 751.2921,820.2462 758.9234,812.6148 762.7391,802.6127 762.7391,792.6105 L 762.7391,308.2611 684.5735,386.4267 684.5735,148.1035 Z" />
	</g>
</g>
</svg>