<?xml version="1.0" encoding="utf-8"?>
<!-- Created by sK1 2.0rc4 (https://sk1project.net/) -->
<svg xmlns="http://www.w3.org/2000/svg" height="832.677165354pt" viewBox="0 0 832.677165354 832.677165354" width="832.677165354pt" version="1.1" xmlns:xlink="http://www.w3.org/1999/xlink" id="473d35ee-b1b9-11ea-bb2a-a0f3c11e789f">

<g>
	<g>
		<g>
			<path style="fill-rule:evenodd;fill:#000000;" d="M 488.1523,343.7517 C 474.6098,343.7517 461.4641,354.2352 461.4641,369.1171 L 461.4641,805.7858 C 461.4641,820.6677 474.6098,831.1512 488.1523,831.1512 L 805.2034,831.1512 C 818.746,831.1512 831.8917,820.6677 831.8917,805.7858 L 831.8917,453.7291 736.9119,343.7517 729.5536,343.7517 488.1523,343.7517 Z M 493.4933,375.6321 L 722.1954,375.6321 799.8625,465.552 799.8625,799.2708 493.4933,799.2708 493.4933,375.6321 Z" />
			<path style="fill-rule:evenodd;fill:#000000;" d="M 830.5688,459.6488 L 741.145,459.6488 C 730.5623,459.6488 722.03,452.9023 722.03,444.5354 L 722.03,351.0273 696.5819,351.0273 696.5819,463.0055 C 696.5819,475.1921 709.0001,484.9977 724.4111,484.9977 L 830.5688,484.9977 830.5688,459.6488 Z" />
			<path style="fill-rule:evenodd;fill:#000000;" d="M 544.9682,539.1348 L 544.9682,539.1348 C 544.869,539.1348 544.7698,539.1348 544.6706,539.1348 540.9501,539.1348 537.7918,539.9781 534.5674,541.8301 531.3595,543.682 529.0446,545.9805 527.176,549.1884 525.3241,552.3962 524.4808,555.538 524.4808,559.2419 524.4808,562.9459 525.3241,566.0876 527.176,569.2955 529.0446,572.5034 531.3595,574.8018 534.5674,576.6538 537.7918,578.5057 540.9501,579.3491 544.6706,579.3491 544.7698,579.3491 544.869,579.3491 544.9682,579.3491 L 748.0734,579.3491 748.0734,579.3491 C 748.1726,579.3491 748.2553,579.3491 748.3545,579.3491 752.075,579.3491 755.2332,578.5057 758.4576,576.6538 761.6655,574.8018 763.9805,572.5034 765.849,569.2955 767.701,566.0876 768.5608,562.9459 768.5608,559.2419 768.5608,555.538 767.701,552.3962 765.849,549.1884 763.9805,545.9805 761.6655,543.682 758.4576,541.8301 755.2332,539.9781 752.075,539.1348 748.3545,539.1348 748.2553,539.1348 748.1726,539.1348 748.0734,539.1348 L 544.9682,539.1348 Z" />
			<path style="fill-rule:evenodd;fill:#000000;" d="M 544.9682,621.746 L 544.9682,621.746 C 544.8525,621.746 544.7698,621.746 544.6706,621.746 540.9501,621.746 537.7918,622.5893 534.5674,624.4413 531.3595,626.2932 529.0446,628.5917 527.176,631.7996 525.3241,635.0074 524.4808,638.1492 524.4808,641.8531 524.4808,645.5571 525.3241,648.6988 527.176,651.9067 529.0446,655.1146 531.3595,657.413 534.5674,659.265 537.7918,661.1169 540.9501,661.9603 544.6706,661.9603 544.7698,661.9603 544.8525,661.9603 544.9682,661.9603 L 748.0734,661.9603 748.0734,661.9603 C 748.1726,661.9603 748.2553,661.9603 748.3545,661.9603 752.075,661.9603 755.2332,661.1169 758.4576,659.265 761.6655,657.413 763.9805,655.1146 765.849,651.9067 767.701,648.6988 768.5608,645.5571 768.5608,641.8531 768.5608,638.1492 767.701,635.0074 765.849,631.7996 763.9805,628.5917 761.6655,626.2932 758.4576,624.4413 755.2332,622.5893 752.075,621.746 748.3545,621.746 748.2553,621.746 748.1726,621.746 748.0734,621.746 L 544.9682,621.746 Z" />
			<path style="fill-rule:evenodd;fill:#000000;" d="M 544.9682,704.3572 L 544.9682,704.3572 C 544.8525,704.3572 544.7698,704.3572 544.6706,704.3572 540.9501,704.3572 537.7918,705.2005 534.5674,707.0525 531.3595,708.9045 529.0446,711.2029 527.176,714.4108 525.3241,717.6186 524.4808,720.7604 524.4808,724.4643 524.4808,728.1683 525.3241,731.31 527.176,734.5179 529.0446,737.7258 531.3595,740.0407 534.5674,741.8762 537.7918,743.7281 540.9501,744.5715 544.6706,744.5715 544.7698,744.5715 544.8525,744.5715 544.9682,744.5715 L 748.0734,744.5715 748.0734,744.5715 C 748.1726,744.5715 748.2553,744.5715 748.3545,744.5715 752.075,744.5715 755.2332,743.7281 758.4576,741.8762 761.6655,740.0407 763.9805,737.7258 765.849,734.5179 767.701,731.31 768.5608,728.1683 768.5608,724.4643 768.5608,720.7604 767.701,717.6186 765.849,714.4108 763.9805,711.2029 761.6655,708.9045 758.4576,707.0525 755.2332,705.2005 752.075,704.3572 748.3545,704.3572 748.2553,704.3572 748.1726,704.3572 748.0734,704.3572 L 544.9682,704.3572 Z" />
		</g>
		<path style="fill-rule:evenodd;fill:#000000;" d="M 282.8541,49.9576 C 305.2986,49.9576 326.0221,66.1601 330.0803,86.8801 L 331.1998,92.5903 282.8541,92.5903 234.5097,92.5903 235.6526,86.8801 C 239.8543,65.8735 260.2001,49.9576 282.8541,49.9576 Z M 564.9212,302.0566 L 564.9212,184.7033 561.2483,178.3802 C 556.7876,170.7033 547.117,163.0895 539.2798,161.0826 536.0951,160.267 518.4141,159.595 499.9887,159.5905 L 466.4879,159.5822 466.4879,147.4178 C 466.4879,127.5831 458.514,112.5343 442.7499,102.618 431.7281,95.6849 418.2669,92.5903 399.1385,92.5903 384.3119,92.5903 383.7693,92.4693 383.7415,89.1644 383.6805,81.8886 378.6554,64.2758 374.114,55.4207 356.4787,21.0338 319.7975,1.0994 281.5925,1.5332 267.7737,1.6901 253.756,4.5126 240.3677,10.2787 219.1679,19.4088 201.8382,35.4485 191.5955,55.4207 187.0541,64.2758 182.0291,81.8886 181.968,89.1644 181.9403,92.4665 181.3863,92.5908 166.6358,92.6138 146.6963,92.6448 134.1773,95.4675 123.2467,102.3958 107.162,112.5912 99.2216,127.4704 99.2216,147.4178 L 99.2216,159.5822 65.7208,159.5905 C 47.2954,159.5951 29.4085,160.3173 25.9715,161.1957 18.0824,163.212 9.0988,170.4108 4.4129,178.47 L 0.7869,184.7033 0.7869,470.1811 0.7869,755.659 4.3494,761.7501 C 8.9253,769.5754 13.8601,773.7441 23.1212,777.6082 30.5103,780.6912 32.4476,780.7151 282.8541,780.7151 339.2395,780.7151 383.0266,780.7139 417.1144,780.6768 L 417.114,739.6725 282.8541,739.6725 46.2823,739.6725 46.2823,470.1811 46.2823,200.6911 72.752,200.6911 99.2216,200.6911 99.2216,219.7224 99.2216,238.7537 282.8541,238.7537 466.4879,238.7537 466.4879,219.7224 466.4879,200.6911 492.9576,200.6911 519.4272,200.6911 519.4272,302.0566 564.9212,302.0566 Z" />
	</g>
</g>
</svg>