<?xml version="1.0" encoding="utf-8"?>
<!-- Created by sK1 2.0rc4 (https://sk1project.net/) -->
<svg xmlns="http://www.w3.org/2000/svg" height="832.677165354pt" viewBox="0 0 832.677165354 832.677165354" width="832.677165354pt" version="1.1" xmlns:xlink="http://www.w3.org/1999/xlink" id="6d1b5e8a-b1fa-11ea-bb2a-a0f3c11e789f">

<g>
	<g>
		<path style="fill-rule:evenodd;fill:#2d2c2b;" d="M 501.5231,634.0448 C 501.2569,634.0448 501.015,634.1486 500.773,634.3043 500.531,634.4601 500.289,634.6936 500.0712,634.9791 499.8292,635.2905 499.6114,635.6538 499.4179,636.0691 499.2243,636.4843 499.0307,636.9774 498.8613,637.4964 498.6919,638.0414 498.5467,638.6383 498.4015,639.2612 498.2805,639.884 498.1595,640.5588 498.0628,641.2595 497.966,641.9602 497.8934,642.7128 497.845,643.4914 497.7966,644.244 497.7724,645.0485 497.7724,645.8789 L 497.7724,759.2114 C 497.7724,760.0159 497.7966,760.8204 497.845,761.599 497.8934,762.3516 497.966,763.1042 498.0628,763.8049 498.1595,764.5056 498.2805,765.1803 498.4015,765.8032 498.5467,766.452 498.6919,767.0229 498.8613,767.5679 499.0307,768.087 499.2243,768.5801 499.4179,768.9953 499.6114,769.4365 499.8292,769.7998 500.0712,770.0853 500.289,770.3967 500.531,770.6303 500.773,770.786 501.015,770.9417 501.2569,771.0195 501.5231,771.0195 L 582.1521,771.0195 C 582.4182,771.0195 582.6844,770.9417 582.9264,770.786 583.1684,770.6043 583.4104,770.3967 583.6282,770.0853 583.846,769.7998 584.0637,769.4365 584.2573,768.9953 584.4509,768.5801 584.6445,768.087 584.8139,767.5679 584.9833,767.0229 585.1285,766.452 585.2737,765.8032 585.4188,765.1803 585.5156,764.5056 585.6124,763.8049 585.7092,763.1042 585.7818,762.3516 585.8302,761.599 585.8786,760.8204 585.9028,760.0159 585.9028,759.2114 L 585.9028,645.8789 C 585.9028,645.0485 585.8786,644.244 585.8302,643.4914 585.7818,642.7128 585.7092,641.9602 585.6124,641.2595 585.5156,640.5588 585.4188,639.884 585.2737,639.2612 585.1285,638.6383 584.9833,638.0414 584.8139,637.4964 584.6445,636.9774 584.4509,636.4843 584.2573,636.0691 584.0637,635.6538 583.846,635.2905 583.6282,634.9791 583.4104,634.6936 583.1684,634.4601 582.9264,634.3043 582.6844,634.1486 582.4182,634.0448 582.1521,634.0448 L 501.5231,634.0448 Z" />
		<path style="fill-rule:evenodd;fill:#2d2c2b;" d="M 30.5302,-0.5628 C 15.0751,-0.5628 2.6251,10.5454 2.6251,24.3595 L 2.6251,808.3169 C 2.6251,822.131 15.0751,833.2393 30.5302,833.2393 L 733.8248,833.2393 830.0474,732.4675 830.0474,24.3595 C 830.0474,10.5454 817.5974,-0.5628 802.1423,-0.5628 L 30.5302,-0.5628 Z M 698.4784,100.4368 C 699.9953,100.4368 701.4835,100.5792 702.9146,100.864 704.3456,101.1204 705.748,101.5191 707.0646,102.0318 708.3811,102.5445 709.6118,103.1711 710.7852,103.9117 711.9587,104.6237 713.0463,105.4497 714.048,106.3897 715.0497,107.3011 715.937,108.298 716.7383,109.3803 717.5397,110.4627 718.198,111.602 718.7704,112.8267 719.3142,114.0515 719.7435,115.3332 720.0297,116.6434 720.3445,117.9536 720.4876,119.3493 720.4876,120.7449 L 720.4876,477.0063 C 720.4876,478.402 720.3445,479.7976 720.0297,481.1078 719.7435,482.418 719.3142,483.6998 718.7704,484.9245 718.198,486.1493 717.5397,487.2886 716.7383,488.3709 715.937,489.4533 715.0497,490.4502 714.048,491.3616 713.0463,492.273 711.9587,493.1275 710.7852,493.8396 709.6118,494.5801 708.3811,495.2068 707.0646,495.7195 705.748,496.2321 704.3456,496.6309 702.9146,496.8872 701.4835,497.1436 699.9953,497.286 698.4784,497.286 L 134.1941,497.286 C 132.6772,497.286 131.1889,497.1436 129.7579,496.8872 128.3269,496.6309 126.9245,496.2321 125.6079,495.7195 124.2914,495.2068 123.0607,494.5801 121.8872,493.8396 120.7138,493.1275 119.6262,492.273 118.6245,491.3616 117.6228,490.4502 116.7355,489.4533 115.9341,488.3709 115.1328,487.2886 114.4745,486.1493 113.9021,484.9245 113.3583,483.6998 112.929,482.418 112.6428,481.1078 112.328,479.7976 112.1848,478.402 112.1848,477.0063 L 112.1848,120.7449 C 112.1848,119.3493 112.328,117.9536 112.6428,116.6434 112.929,115.3332 113.3583,114.0515 113.9021,112.8267 114.4745,111.602 115.1328,110.4627 115.9341,109.3803 116.7355,108.298 117.6228,107.3011 118.6245,106.3897 119.6262,105.4497 120.7138,104.6237 121.8872,103.9117 123.0607,103.1711 124.2914,102.5445 125.6079,102.0318 126.9245,101.5191 128.3269,101.1204 129.7579,100.864 131.1889,100.5792 132.6772,100.4368 134.1941,100.4368 L 698.4784,100.4368 Z M 610.8706,593.3011 C 612.1013,593.3011 613.332,593.4435 614.5055,593.6714 615.7075,593.9277 616.8237,594.298 617.9113,594.7822 618.9989,595.2379 620.0292,595.8361 621.0023,596.5197 621.9468,597.1748 622.8627,597.9438 623.6641,598.7983 624.4941,599.6528 625.2382,600.5927 625.8678,601.5896 626.5261,602.5865 627.0985,603.6688 627.5565,604.7796 628.0144,605.919 628.3578,607.1152 628.5868,608.34 628.8444,609.5647 628.9589,610.8465 628.9589,612.1282 L 628.9589,792.9363 C 628.9589,794.218 628.8444,795.4997 628.5868,796.7245 628.3578,797.9777 628.0144,799.1455 627.5565,800.2848 627.0985,801.3956 626.5261,802.478 625.8678,803.4748 625.2382,804.4717 624.4941,805.4117 623.6641,806.2662 622.8627,807.1206 621.9468,807.8897 621.0023,808.5732 620.0292,809.2284 618.9989,809.8265 617.9113,810.2822 616.8237,810.7664 615.7075,811.1367 614.5055,811.393 613.332,811.6494 612.1013,811.7633 610.8706,811.7633 L 221.8018,811.7633 C 220.5712,811.7633 219.3405,811.6494 218.167,811.393 216.965,811.1367 215.8488,810.7664 214.7612,810.2822 213.6736,809.8265 212.6432,809.2284 211.6701,808.5732 210.7257,807.8897 209.8098,807.1206 209.0084,806.2662 208.1784,805.4117 207.4343,804.4717 206.8046,803.4748 206.1464,802.478 205.574,801.3956 205.116,800.2848 204.6581,799.1455 204.3146,797.9777 204.0857,796.7245 203.8281,795.4997 203.7136,794.218 203.7136,792.9363 L 203.7136,612.1282 C 203.7136,610.8465 203.8281,609.5647 204.0857,608.34 204.3146,607.1152 204.6581,605.919 205.116,604.7796 205.574,603.6688 206.1464,602.5865 206.8046,601.5896 207.4343,600.5927 208.1784,599.6528 209.0084,598.7983 209.8098,597.9438 210.7257,597.1748 211.6701,596.5197 212.6432,595.8361 213.6736,595.2379 214.7612,594.7822 215.8488,594.298 216.965,593.9277 218.167,593.6714 219.3405,593.4151 220.5712,593.3011 221.8018,593.3011 L 610.8706,593.3011 Z" />
	</g>
	<path style="fill-rule:evenodd;fill:#2d2c2b;" d="M 346.8459,452.8313 L 345.518,451.5034 344.8608,452.1606 222.0782,331.3766 276.7362,275.7663 347.6104,345.4871 557.3227,135.7749 610.5991,189.0781 346.8459,452.8313 Z" />
</g>
</svg>