<?xml version="1.0" encoding="utf-8"?>
<!-- Created by sK1 2.0rc4 (https://sk1project.net/) -->
<svg xmlns="http://www.w3.org/2000/svg" height="832.677165354pt" viewBox="0 0 832.677165354 832.677165354" width="832.677165354pt" version="1.1" xmlns:xlink="http://www.w3.org/1999/xlink" id="7d280c96-b430-11ea-be2e-a0f3c11e789f">

<g>
	<path style="fill-rule:evenodd;fill:#2d2c2b;" d="M -93.767,964.077 C -92.8599,963.8502 -91.5843,963.8502 -90.9607,964.1053 -90.3088,964.3605 -91.0458,964.5589 -92.6048,964.5589 -94.1639,964.5305 -94.6741,964.3038 -93.767,964.077 L -93.767,964.077 Z" />
	<path style="fill-rule:evenodd;fill:#2d2c2b;" d="M -83.4489,964.077 C -82.5135,963.8502 -81.2662,963.8502 -80.6143,964.1053 -79.9906,964.3605 -80.7277,964.5589 -82.2867,964.5589 -83.8458,964.5305 -84.356,964.3038 -83.4489,964.077 L -83.4489,964.077 Z" />
	<path style="fill-rule:evenodd;fill:#2d2c2b;" d="M 390.7556,783.6715 C 370.1572,759.0322 359.3364,729.2437 359.247,700.4655 359.1573,671.6216 369.9812,642.9984 393.4886,623.3462 404.875,613.8272 396.2648,4.7163 409.7962,1.4265 419.4461,-0.9195 480.0764,240.2332 525.0757,416.8577 525.5463,422.0288 474.3656,459.2513 471.4238,500.3935 464.6875,584.8787 463.2513,600.9574 475.4558,603.315 503.7625,608.5036 531.1616,624.4327 551.76,649.072 572.3584,673.7113 583.1792,703.4998 583.2687,732.2779 583.3583,761.1219 572.5344,789.7451 549.027,809.3972 525.5196,829.0493 495.4312,834.6288 467.0598,829.4284 438.7531,824.2399 411.3541,808.3107 390.7556,783.6715 Z M 428.1394,752.4187 C 441.8884,768.8649 459.43,778.5681 476.0098,781.6071 492.5249,784.6343 507.269,781.0366 517.8927,772.1551 528.5164,763.2737 534.6704,749.4007 534.6182,732.6106 534.5658,715.7546 528.1252,696.771 514.3762,680.3248 500.6272,663.8786 483.0857,654.1754 466.5058,651.1363 449.9907,648.1091 435.2467,651.7069 424.6229,660.5883 413.9992,669.4697 407.8453,683.3427 407.8974,700.1329 407.9498,716.9888 414.3904,735.9725 428.1394,752.4187 Z M 458.3064,431.7621 C 452.4444,424.7502 442.0041,423.8176 434.9922,429.6796 427.9803,435.5415 427.0477,445.9818 432.9097,452.9938 438.7716,460.0057 449.2119,460.9383 456.2238,455.0763 463.2357,449.2143 464.1683,438.7741 458.3064,431.7621 Z" />
	<path style="fill-rule:evenodd;fill:#2d2c2b;" d="M 750.7627,482.706 C 764.5117,499.1522 770.9227,518.1605 770.9311,535.0533 770.9394,551.8801 764.7298,565.7996 754.0495,574.7283 743.3692,583.6571 728.5695,587.3013 712.0105,584.3108 695.3867,581.3085 677.8156,571.63 664.0666,555.1838 650.3176,538.7376 643.9065,519.7293 643.8982,502.8365 643.8898,486.0097 650.0994,472.0902 660.7797,463.1615 671.46,454.2328 686.2597,450.5885 702.8187,453.579 719.4425,456.5813 737.0137,466.2598 750.7627,482.706 Z M 372.0013,387.3643 C 204.3452,358.7282 16.1747,326.0159 13.0005,333.1473 9.1944,341.6984 208.9176,432.0979 370.8594,505.4468 371.3717,470.3509 371.7116,429.8742 372.0013,387.3643 L 372.0013,387.3643 Z M 507.013,482.5308 C 580.4915,489.6211 594.9758,491.4947 595.0943,503.2974 595.1086,532.1384 605.8853,561.9637 626.4837,586.603 647.0821,611.2423 674.5253,627.1346 702.9071,632.2603 731.3539,637.3977 761.5512,631.7272 785.1838,611.9704 808.8164,592.2136 819.7492,563.4993 819.7349,534.5924 819.7206,505.7514 808.9439,475.9261 788.3455,451.2868 767.7471,426.6475 740.3039,410.7553 711.9221,405.6295 683.4753,400.4921 653.278,406.1626 629.6454,425.9194 627.2019,427.9622 597.9613,424.3232 553.4204,417.4594 553.3393,421.9417 552.2442,425.4248 551.5375,427.3233 550.5852,429.8821 549.4564,431.8663 548.7061,433.0822 547.2229,435.4857 545.6015,437.4586 544.5837,438.6506 544.2436,439.0489 543.2468,440.1757 542.8333,440.6289 542.4198,441.082 541.5861,441.9758 541.1052,442.482 540.1436,443.4946 538.7124,444.9646 537.5179,446.1795 535.1289,448.6093 532.5679,451.1779 529.5403,454.3346 526.5127,457.4913 524.2111,459.9454 520.9351,463.7191 515.6439,469.8141 510.7854,476.162 507.0122,482.5307 L 507.013,482.5308 Z" />
</g>
</svg>