<?xml version="1.0" encoding="utf-8"?>
<!-- Created by sK1 2.0rc4 (https://sk1project.net/) -->
<svg xmlns="http://www.w3.org/2000/svg" height="832.677165354pt" viewBox="0 0 832.677165354 832.677165354" width="832.677165354pt" version="1.1" xmlns:xlink="http://www.w3.org/1999/xlink" id="460c3b40-b1df-11ea-bb2a-a0f3c11e789f">

<g>
	<g>
		<path style="fill-rule:evenodd;fill:#000000;" d="M 648.498,489.3216 C 556.7179,467.413 479.997,449.0329 478.007,448.477 476.0172,447.9211 517.5949,384.3759 570.4018,307.2654 623.2089,230.1548 664.4813,168.1946 662.1185,169.5759 659.7556,170.9572 596.0946,229.3333 520.6495,299.3006 437.0292,376.8495 380.9979,426.1222 377.127,425.5108 368.0676,424.0802 60.2897,352.6032 58.2906,351.4658 56.8819,350.6642 828.2174,1.2726 831.3447,1.2726 832.338,1.2726 824.9451,486.7799 824.7021,517.0594 824.6459,524.0561 822.5234,529.64 819.9855,529.4682 817.4476,529.2964 740.2782,511.2304 648.498,489.3216 Z" />
		<path style="fill:#000000;" d="M 242.1305,508.363 C 238.3039,508.5136 234.8882,510.1597 232.4294,512.7291 L 5.4493,743.5994 C 2.8505,746.1707 1.2406,749.7373 1.2406,753.6792 1.2406,761.5063 7.5881,767.8538 15.4153,767.8538 19.4418,767.8538 23.0768,766.174 25.6575,763.4771 L 252.6376,532.6067 C 255.2362,530.0354 256.846,526.469 256.846,522.5273 256.846,514.7002 250.4984,508.3527 242.6713,508.3527 242.4811,508.3527 242.2918,508.3564 242.1035,508.3639 Z" />
		<path style="fill:#000000;" d="M 447.5468,455.671 C 443.7203,455.8216 440.3045,457.4677 437.8457,460.0371 L 210.8656,690.9075 C 208.2667,693.4788 206.6568,697.0454 206.6568,700.9872 206.6568,708.8144 213.0043,715.1619 220.8314,715.1619 224.858,715.1619 228.493,713.482 231.0737,710.7851 L 458.0539,479.9147 C 460.6525,477.3435 462.2622,473.777 462.2622,469.8354 462.2622,462.0082 455.9147,455.6607 448.0876,455.6607 447.8974,455.6607 447.7082,455.6645 447.5198,455.6719 Z" />
		<path style="fill:#000000;" d="M 524.2275,571.9159 C 520.401,572.0665 516.9852,573.7126 514.5264,576.282 L 287.5463,807.1524 C 284.9484,809.7235 283.3391,813.2895 283.3391,817.2306 283.3391,825.0577 289.6867,831.4052 297.5138,831.4052 301.5396,831.4052 305.1739,829.726 307.7545,827.03 L 534.7346,596.1596 C 537.3332,593.5884 538.943,590.0219 538.943,586.0802 538.943,578.2531 532.5955,571.9056 524.7684,571.9056 524.5782,571.9056 524.3889,571.9093 524.2005,571.9167 Z" />
	</g>
</g>
</svg>