<?xml version="1.0" encoding="utf-8"?>
<!-- Created by sK1 2.0rc4 (https://sk1project.net/) -->
<svg xmlns="http://www.w3.org/2000/svg" height="832.677165354pt" viewBox="0 0 832.677165354 832.677165354" width="832.677165354pt" version="1.1" xmlns:xlink="http://www.w3.org/1999/xlink" id="eb3e352e-b1fc-11ea-bb2a-a0f3c11e789f">

<g>
	<path style="fill-rule:evenodd;fill:#2d2c2b;" d="M 257.7991,128.708 L 546.6104,129.1272 547.0224,0.0011 830.9056,197.168 546.6103,391.9147 546.5098,262.9703 257.7991,262.5488 257.7991,128.708 Z M 66.3791,262.2693 L 1.7705,262.175 1.7705,128.3363 66.3791,128.4301 66.3791,262.2693 Z M 128.8565,128.5208 L 195.3217,128.6173 195.3217,262.4576 128.8565,262.3605 128.8565,128.5208 Z" />
	<path style="fill-rule:evenodd;fill:#2d2c2b;" d="M 574.8792,703.9709 L 286.0679,703.5517 285.6559,832.6778 1.7727,635.5109 286.068,440.7642 286.1685,569.7086 574.8792,570.1301 574.8792,703.9709 Z M 766.2993,570.4095 L 830.9078,570.5039 830.9078,704.3426 766.2993,704.2488 766.2993,570.4095 Z M 703.8219,704.1581 L 637.3566,704.0616 637.3566,570.2213 703.8219,570.3183 703.8219,704.1581 Z" />
</g>
</svg>