<?xml version="1.0" encoding="utf-8"?>
<!-- Created by sK1 2.0rc4 (https://sk1project.net/) -->
<svg xmlns="http://www.w3.org/2000/svg" height="832.677165354pt" viewBox="0 0 832.677165354 832.677165354" width="832.677165354pt" version="1.1" xmlns:xlink="http://www.w3.org/1999/xlink" id="f56fb948-b443-11ea-be2e-a0f3c11e789f">

<g>
	<g>
		<path style="fill:#2d2c2b;" d="M 305.8598,375.0786 C 333.7515,404.8883 352.215,417.8441 396.3372,427.6528 425.5121,434.5847 422.7761,426.1598 422.7761,426.1598 424.8711,378.409 404.9344,340.1983 379.2631,312.0799 354.0788,284.4953 328.578,271.413 305.7788,261.693 264.3961,250.0351 237.4691,140.1182 236.9449,140.2303 262.6804,322.0945 280.302,347.7633 305.8598,375.0786 Z" />
		<path style="fill:#2d2c2b;" d="M 272.3674,537.8322 C 306.2866,564.453 327.6478,575.0007 375.2851,578.1277 406.8563,580.6609 402.6424,572.3077 402.6424,572.3077 397.1327,522.1259 370.1631,485.4536 338.8341,460.2404 308.0997,435.5058 279.3723,425.9604 254.0069,419.4891 208.9311,413.9904 163.1069,303.5952 162.5778,303.7967 218.7549,489.4852 241.2864,513.4389 272.3674,537.8322 Z" />
		<path style="fill:#2d2c2b;" d="M 217.2751,683.3822 C 253.7645,706.354 276.1016,714.637 323.807,712.8227 355.4709,712.0787 350.4161,704.2058 350.4161,704.2058 339.7483,654.8625 309.1321,621.1746 275.3646,599.3351 242.2379,577.9102 212.6777,571.3856 186.7792,567.5712 141.3764,566.7616 84.3856,461.695 83.8802,461.9501 158.952,640.8365 183.839,662.3327 217.2751,683.3822 Z" />
		<path style="fill:#2d2c2b;" d="M 621.3741,373.5903 C 592.6584,403.4 573.6495,416.3558 528.2239,426.1646 498.187,433.0964 501.0039,424.6715 501.0039,424.6715 498.847,376.9207 519.3726,338.71 545.8024,310.5916 571.7306,283.007 597.9848,269.9247 621.4576,260.2047 664.0628,248.5468 691.7853,138.63 692.325,138.742 665.8292,320.6063 647.687,346.275 621.3741,373.5903 Z" />
		<path style="fill:#2d2c2b;" d="M 636.6472,549.1285 C 604.9649,579.2523 584.3062,592.042 535.9189,600.2864 503.9029,606.2084 507.2657,597.4491 507.2657,597.4491 507.2033,546.963 530.6331,507.5948 559.8249,479.1497 588.4629,451.2446 616.7725,438.6573 641.9913,429.4889 687.4883,419.1626 721.8361,304.4644 722.4003,304.6077 686.0119,495.2809 665.6785,521.5254 636.6472,549.1285 Z" />
		<path style="fill:#2d2c2b;" d="M 598.0856,734.48 C 559.2431,754.5417 535.832,761.0438 487.0697,755.4274 454.675,752.1598 460.3533,744.6904 460.3533,744.6904 474.4121,696.2011 507.9165,664.956 543.8985,645.8096 579.1976,627.0266 609.8978,622.8585 636.6744,621.1085 683.2439,623.9177 748.2972,523.4015 748.7989,523.6968 660.5394,696.5861 633.6779,716.097 598.0856,734.48 Z" />
		<path style="fill:#2d2c2b;" d="M 506.2099,212.4062 C 502.4134,250.4057 496.0313,270.6479 468.7053,303.6894 450.891,325.8608 448.1232,318.1462 448.1232,318.1462 419.3006,284.7667 412.3649,245.3533 415.47,209.8846 418.5162,175.0891 430.0777,150.6192 441.5424,130.1741 465.7686,97.4023 423.1147,1.9063 423.5698,1.6794 508.1851,148.6243 509.6887,177.5864 506.2099,212.4062 Z" />
		<path style="fill-rule:evenodd;fill:#2d2c2b;" d="M 276.5927,805.9234 C 270.575,810.9293 269.7548,819.8657 274.7607,825.8835 279.7666,831.9012 288.703,832.7215 294.7207,827.7155 346.6763,784.4959 384.2602,743.774 411.117,703.9294 438.0297,664.002 454.0064,625.1968 462.9846,586.0495 471.9376,547.0121 473.8457,507.9974 473.0041,467.84 472.5896,448.0643 471.4689,427.2601 470.1843,406.3805 468.8997,385.5009 467.4352,364.1058 466.2704,341.7346 465.8635,333.9175 459.1966,327.9105 451.3795,328.3175 443.5624,328.7244 437.5553,335.3913 437.9623,343.2084 439.127,365.5796 440.6068,387.2416 441.8914,408.1212 443.176,429.0008 444.2494,448.6582 444.6638,468.434 445.4801,507.3794 443.5856,543.8272 435.3554,579.7129 427.1505,615.4888 412.5634,651.0675 387.6116,688.0858 362.604,725.187 327.023,763.9726 276.5927,805.9234 Z" />
	</g>
</g>
</svg>