<?xml version="1.0" encoding="utf-8"?>
<!-- Created by sK1 2.0rc4 (https://sk1project.net/) -->
<svg xmlns="http://www.w3.org/2000/svg" height="832.677165354pt" viewBox="0 0 832.677165354 832.677165354" width="832.677165354pt" version="1.1" xmlns:xlink="http://www.w3.org/1999/xlink" id="4439d8dc-b1ac-11ea-bb2a-a0f3c11e789f">

<g>
	<g>
		<path style="fill:#2d2c2b;" d="M 59.9048,824.9952 C 51.7795,820.5439 15.9293,789.3594 10.8297,782.5034 -0.8218,766.8386 -1.5661,744.1043 9.0265,727.4262 144.4896,571.8337 152.3151,560.2277 282.414,403.7231 316.0745,431.3106 355.457,464.1364 385.7522,489.6656 256.2145,646.637 248.5822,655.8141 117.6459,813.2533 102.5018,829.4901 80.8959,836.2445 59.9048,824.9952 Z" />
		<path style="fill:#2d2c2b;" d="M 678.8949,371.2154 C 667.9442,362.1081 661.5618,352.6714 674.2387,337.4287 639.261,256.7569 568.4282,253.4913 529.6345,290.4942 527.3154,292.706 402.5658,442.4117 400.4903,444.9034 L 324.8094,381.9624 C 327.0226,379.3013 452.8174,227.8481 454.7164,225.1753 475.3996,196.0635 477.4635,166.405 461.2141,139.4554 457.2993,133.1316 455.522,131.208 447.4545,124.5623 421.9193,103.5275 386.542,86.0548 348.4199,75.6494 318.4586,67.4715 281.3439,63.0557 253.1471,64.314 L 242.5753,64.7858 241.2763,55.937 C 240.5618,51.0702 239.6352,44.3931 239.2173,41.099 L 238.4575,35.1097 247.0669,32.0926 C 271.5181,23.524 304.5141,14.7015 331.8314,9.4282 351.1381,5.7012 393.5924,1.7983 411.0143,2.1487 466.018,3.255 511.7151,15.3005 553.0486,39.5882 568.1586,48.4669 583.035,60.0099 631.5547,100.5031 662.7041,126.4996 676.5495,135.4881 680.1769,141.8932 685.1535,150.6808 684.4656,149.2253 685.1535,150.6808 676.3194,202.8709 711.8824,237.6775 755.3518,239.8974 765.092,232.3861 778.2449,231.7353 789.874,237.7728 L 817.9777,261.1457 C 835.1233,275.405 833.6265,288.2414 824.0921,299.7057 L 748.4138,390.7022 C 733.08,409.1396 723.5328,408.3391 706.9986,394.5882 695.8062,385.4855 680.2675,372.3457 678.8949,371.2154 Z" />
	</g>
</g>
</svg>