<?xml version="1.0" encoding="utf-8"?>
<!-- Created by sK1 2.0rc4 (https://sk1project.net/) -->
<svg xmlns="http://www.w3.org/2000/svg" height="832.677165354pt" viewBox="0 0 832.677165354 832.677165354" width="832.677165354pt" version="1.1" xmlns:xlink="http://www.w3.org/1999/xlink" id="2afad266-b1a9-11ea-bb2a-a0f3c11e789f">

<g>
	<path style="fill:#2d2c2b;" d="M 780.6491,15.1303 C 772.5405,7.6113 765.5104,1.7472 763.9212,1.7987 759.7834,1.9328 677.4219,54.3718 671.5304,60.623 668.1193,64.2424 660.729,79.1926 651.8099,100.5217 L 637.5451,134.6338 558.8923,218.8986 368.1804,421.9928 334.0634,389.8267 C 307.1932,381.1541 270.1041,421.3911 284.7406,442.1408 L 286.2916,443.6032 280.9456,447.543 C 269.9795,455.6221 255.3451,461.6862 238.1899,465.263 L 224.771,468.0586 134.3156,564.7951 C 72.0415,631.3918 41.6636,665.2161 36.8173,673.3613 12.7241,713.8554 19.0454,746.6293 58.7143,786.9242 79.6348,808.1749 102.9642,823.9287 121.0591,829.0273 132.6657,832.2977 151.6099,831.1332 164.4016,826.3621 185.5397,818.478 195.2089,809.3789 289.4249,708.7373 L 380.0327,611.9535 382.1936,596.5252 C 384.4749,580.2367 389.9773,564.8774 397.1138,554.864 398.167,553.3863 399.0951,551.9255 399.837,550.6558 L 402.786,553.4362 C 422.4673,566.9005 464.5361,520.4617 452.1088,501.1221 L 415.0505,466.1828 605.7734,263.8045 684.3743,180.3481 718.866,163.126 C 738.0495,153.5474 755.2871,143.723 757.7067,140.9898 761.5936,136.599 807.5596,53.762 809.9801,46.7867 810.6727,44.7904 794.1634,27.6618 780.6491,15.1303 L 780.6491,15.1303 Z M 336.5592,569.1286 C 340.0946,572.6417 342.0898,577.8817 342.3078,584.6065 342.5261,591.3427 339.7533,594.5147 248.5279,691.8529 L 154.5236,792.1561 146.608,792.4143 C 140.0378,792.6274 137.6018,791.6487 132.2872,786.6678 126.9733,781.6861 125.8394,779.3252 125.6264,772.7549 L 125.3707,764.8368 219.3775,664.531 313.3818,564.2278 321.5733,564.0043 C 327.9468,563.8293 333.0238,565.6155 336.5592,569.1286 Z M 271.5915,508.5079 C 277.654,513.943 280.4329,522.804 276.4762,531.3039 273.7962,537.0611 96.8396,726.1583 90.9918,729.5136 82.7065,734.2675 75.3913,733.3477 68.2554,726.66 62.7499,721.4976 61.8113,719.4278 61.5667,711.883 L 61.2833,703.1109 153.4994,604.5952 C 223.3486,529.9758 247.1803,505.6251 251.7327,504.2078 253.8185,503.5585 255.8789,503.2516 257.8799,503.2427 263.1327,503.2194 267.954,505.2468 271.5915,508.5079 Z" />
</g>
</svg>