<?xml version="1.0" encoding="utf-8"?>
<!-- Created by sK1 2.0rc4 (https://sk1project.net/) -->
<svg xmlns="http://www.w3.org/2000/svg" height="832.677165354pt" viewBox="0 0 832.677165354 832.677165354" width="832.677165354pt" version="1.1" xmlns:xlink="http://www.w3.org/1999/xlink" id="ba65b28c-b13a-11ea-bb2a-a0f3c11e789f">

<g>
	<g>
		<path style="fill-rule:evenodd;fill:#2d2c2b;" d="M 770.746,346.5491 C 826.005,293.7515 843.9238,216.5777 823.6863,148.19 815.1415,119.3153 696.2951,358.9703 591.4657,249.2541 486.6364,139.5378 728.792,28.9403 700.3363,19.0897 671.8805,9.2391 555.0314,10.1456 499.7724,62.9433 421.1819,138.0332 418.1198,262.4292 492.9345,340.7316 567.7491,419.0339 692.1555,421.6391 770.746,346.5491 Z" />
		<path style="fill-rule:evenodd;fill:#2d2c2b;" d="M 9.406,707.2713 L 525.6991,251.7728 585.8666,314.7452 112.5276,812.5983 C 34.2039,840.5502 -21.5171,763.2597 9.406,707.2713 Z M 109.6969,742.589 C 109.6969,725.2196 95.6109,711.1336 78.2415,711.1336 60.8721,711.1336 46.7861,725.2196 46.7861,742.589 46.7861,759.9584 60.8721,774.0444 78.2415,774.0444 95.6109,774.0444 109.6969,759.9584 109.6969,742.589 Z" />
	</g>
</g>
</svg>