<?xml version="1.0" encoding="utf-8"?>
<!-- Created by sK1 2.0rc4 (https://sk1project.net/) -->
<svg xmlns="http://www.w3.org/2000/svg" height="832.677165354pt" viewBox="0 0 832.677165354 832.677165354" width="832.677165354pt" version="1.1" xmlns:xlink="http://www.w3.org/1999/xlink" id="4e8143b4-b13b-11ea-bb2a-a0f3c11e789f">

<g>
	<path style="fill-rule:evenodd;fill:#2d2c2b;" d="M 789.2879,235.6205 C 828.4607,198.1926 841.1633,143.4844 826.817,95.0047 820.7597,74.5356 736.51,244.4259 662.1969,166.6485 587.8839,88.8712 759.5469,10.4692 739.3748,3.4861 719.2026,-3.4969 636.3688,-2.8543 597.196,34.5737 541.4836,87.8046 539.3129,175.9884 592.3486,231.4965 645.3843,287.0047 733.5755,288.8515 789.2879,235.6205 Z" />
	<path style="fill-rule:evenodd;fill:#2d2c2b;" d="M 43.388,597.0564 C 4.2152,634.4844 -8.4874,689.1925 5.8589,737.6722 11.9163,758.1414 96.166,588.2511 170.479,666.0284 244.792,743.8058 73.129,822.2078 93.3012,829.1908 113.4734,836.1739 196.3071,835.5312 235.4799,798.1033 291.1924,744.8723 293.3631,656.6886 240.3273,601.1804 187.2916,545.6723 99.1005,543.8255 43.388,597.0564 Z" />
	<path style="fill-rule:evenodd;fill:#2d2c2b;" d="M 143.3227,631.5005 L 625.3502,138.4864 688.1139,199.8515 206.0865,692.8656 143.3227,631.5005 Z M 292.6394,519.6796 C 287.1772,525.2865 287.2945,534.2597 292.9014,539.7219 298.5083,545.1841 307.4815,545.0668 312.9436,539.4599 L 544.97,301.2871 C 550.4322,295.6803 550.3149,286.707 544.708,281.2449 539.1012,275.7827 530.1279,275.9 524.6658,281.5069 L 292.6394,519.6796 Z" />
</g>
</svg>