<?xml version="1.0" encoding="utf-8"?>
<!-- Created by sK1 2.0rc4 (https://sk1project.net/) -->
<svg xmlns="http://www.w3.org/2000/svg" height="832.677165354pt" viewBox="0 0 832.677165354 832.677165354" width="832.677165354pt" version="1.1" xmlns:xlink="http://www.w3.org/1999/xlink" id="9afee4c6-b1b3-11ea-bb2a-a0f3c11e789f">

<g>
	<path style="fill:#2d2c2b;" d="M 65.5413,829.7324 C 47.823,826.1003 35.6268,819.0774 22.3162,804.8425 2.7993,783.9702 -3.6239,753.1935 6.1082,727.1821 9.1607,719.0237 12.2809,715.4934 33.3623,696.3461 79.3154,654.6088 120.3906,619.7718 202.8437,552.604 252.9999,511.7458 270.2568,496.6375 290.0293,476.2734 327.1208,438.072 341.5485,409.3366 343.8088,369.1611 345.9525,331.0606 334.6217,282.0597 306.997,209.9652 L 302.7126,198.7837 320.3789,170.6164 C 330.0954,155.1244 338.5998,141.8397 339.2777,141.0949 339.9555,140.3501 345.3258,142.3236 351.2118,145.4805 357.0977,148.6373 421.5184,181.4583 494.369,218.416 642.3823,293.5044 633.6112,290.008 651.7221,281.14 684.6277,265.0277 730.9026,203.4246 777.4728,113.7356 785.3344,98.5949 792.7143,86.3561 793.9824,86.3561 796.8225,86.3561 807.9289,104.8854 814.7823,121.0577 840.799,182.4498 835.3844,252.6826 800.2552,309.4868 771.7702,355.5471 732.7017,397.3625 696.5376,420.4963 681.2917,430.249 659.0769,440.6723 641.6817,446.2351 617.7947,453.8738 598.0043,456.3771 561.1692,456.4192 524.1403,456.4616 494.9934,458.5967 480.7971,462.3068 433.4484,474.6813 390.9779,515.0494 191.9366,736.8677 103.1377,835.8281 113.0182,826.0341 99.0297,828.9614 86.2694,831.6317 75.9637,831.8689 65.5413,829.7324 Z M 89.4327,783.6715 C 117.9751,771.7457 115.6508,730.5856 85.9768,722.4728 72.9352,718.9073 57.4519,725.6184 51.4752,737.4273 46.8383,746.5889 45.8628,753.3489 48.012,761.4252 53.1619,780.7773 72.0633,790.9289 89.4327,783.6715 Z M 549.873,407.4258 C 555.0775,401.8556 587.1227,334.4792 587.1227,329.1066 587.1227,326.57 585.8041,322.9501 584.1925,321.0626 580.2991,316.5026 437.7666,243.7514 432.7262,243.7514 424.7043,243.7514 421.001,248.9948 403.5169,285.1079 385.0992,323.1496 383.3703,329.4183 389.7114,335.1663 391.6467,336.9207 424.9886,354.6807 463.8044,374.6331 539.0778,413.3257 542.9736,414.81 549.873,407.4258 Z M 521.4018,370.8998 C 516.1064,368.1666 511.7739,365.5531 511.7739,365.092 511.7739,364.2594 530.1401,327.1178 531.0517,326.1069 531.4505,325.6647 551.7532,335.3191 553.3024,336.6876 554.4156,337.671 534.3269,376.0248 532.7378,375.9499 531.7983,375.9057 526.6971,373.6331 521.4018,370.8998 Z M 476.2811,348.2778 L 465.0674,342.5853 474.458,322.8893 C 479.6229,312.0565 484.1174,302.8658 484.4459,302.4656 484.7743,302.0655 490.2111,304.2382 496.5275,307.2939 L 508.012,312.8497 498.7605,332.3006 C 493.6722,342.9985 489.0558,352.2507 488.5019,352.8608 487.948,353.4711 482.4486,351.4087 476.2811,348.2778 Z M 429.3088,324.0161 C 424.0134,321.2828 419.6809,318.6693 419.6809,318.2083 419.6809,317.2233 438.1464,280.1117 439.1974,278.9844 439.7338,278.4091 457.9895,287.4358 461.2093,289.8685 462.3598,290.7377 442.2125,329.1401 440.6448,329.0662 439.7053,329.022 434.6041,326.7494 429.3088,324.0161 Z M 476.4074,175.4057 L 418.4442,145.8188 424.7609,135.8838 C 442.8752,107.3935 469.905,78.0285 494.9559,59.6245 525.3731,37.278 562.4332,18.928 596.4231,9.3838 618.4547,3.1975 640.2783,-0.1349 642.7267,2.3135 645.2397,4.8266 639.2525,14.4521 615.14,46.664 587.6068,83.4455 568.9002,111.7244 557.9803,133.0726 545.2408,157.9782 542.0263,166.6466 537.9396,187.1162 L 534.3706,204.9927 476.4074,175.4057 Z M 276.8134,179.7049 C 268.5428,168.6225 266.5274,160.4897 269.0903,148.5393 273.5027,127.9652 296.1511,115.9985 314.6011,124.493 L 320.8702,127.3793 302.8801,156.2105 C 292.9857,172.0677 283.9866,185.0654 282.8823,185.0942 281.7781,185.1232 279.047,182.6979 276.8134,179.7049 Z" />
</g>
</svg>