<?xml version="1.0" encoding="UTF-8"?>
<!DOCTYPE svg PUBLIC "-//W3C//DTD SVG 1.1//EN" "http://www.w3.org/Graphics/SVG/1.1/DTD/svg11.dtd">
<svg version="1.2" width="367.19mm" height="367.19mm" viewBox="0 0 36719 36719" preserveAspectRatio="xMidYMid" fill-rule="evenodd" stroke-width="28.222" stroke-linejoin="round" xmlns="http://www.w3.org/2000/svg" xmlns:ooo="http://xml.openoffice.org/svg/export" xmlns:xlink="http://www.w3.org/1999/xlink" xmlns:presentation="http://sun.com/xmlns/staroffice/presentation" xmlns:smil="http://www.w3.org/2001/SMIL20/" xmlns:anim="urn:oasis:names:tc:opendocument:xmlns:animation:1.0" xml:space="preserve">
 <defs class="ClipPathGroup">
  <clipPath id="presentation_clip_path" clipPathUnits="userSpaceOnUse">
   <rect x="0" y="0" width="36719" height="36719"/>
  </clipPath>
  <clipPath id="presentation_clip_path_shrink" clipPathUnits="userSpaceOnUse">
   <rect x="36" y="36" width="36646" height="36646"/>
  </clipPath>
 </defs>
 <defs class="TextShapeIndex">
  <g ooo:slide="id1" ooo:id-list="id3"/>
 </defs>
 <defs class="EmbeddedBulletChars">
  <g id="bullet-char-template-57356" transform="scale(0.00048828125,-0.00048828125)">
   <path d="M 580,1141 L 1163,571 580,0 -4,571 580,1141 Z"/>
  </g>
  <g id="bullet-char-template-57354" transform="scale(0.00048828125,-0.00048828125)">
   <path d="M 8,1128 L 1137,1128 1137,0 8,0 8,1128 Z"/>
  </g>
  <g id="bullet-char-template-10146" transform="scale(0.00048828125,-0.00048828125)">
   <path d="M 174,0 L 602,739 174,1481 1456,739 174,0 Z M 1358,739 L 309,1346 659,739 1358,739 Z"/>
  </g>
  <g id="bullet-char-template-10132" transform="scale(0.00048828125,-0.00048828125)">
   <path d="M 2015,739 L 1276,0 717,0 1260,543 174,543 174,936 1260,936 717,1481 1274,1481 2015,739 Z"/>
  </g>
  <g id="bullet-char-template-10007" transform="scale(0.00048828125,-0.00048828125)">
   <path d="M 0,-2 C -7,14 -16,27 -25,37 L 356,567 C 262,823 215,952 215,954 215,979 228,992 255,992 264,992 276,990 289,987 310,991 331,999 354,1012 L 381,999 492,748 772,1049 836,1024 860,1049 C 881,1039 901,1025 922,1006 886,937 835,863 770,784 769,783 710,716 594,584 L 774,223 C 774,196 753,168 711,139 L 727,119 C 717,90 699,76 672,76 641,76 570,178 457,381 L 164,-76 C 142,-110 111,-127 72,-127 30,-127 9,-110 8,-76 1,-67 -2,-52 -2,-32 -2,-23 -1,-13 0,-2 Z"/>
  </g>
  <g id="bullet-char-template-10004" transform="scale(0.00048828125,-0.00048828125)">
   <path d="M 285,-33 C 182,-33 111,30 74,156 52,228 41,333 41,471 41,549 55,616 82,672 116,743 169,778 240,778 293,778 328,747 346,684 L 369,508 C 377,444 397,411 428,410 L 1163,1116 C 1174,1127 1196,1133 1229,1133 1271,1133 1292,1118 1292,1087 L 1292,965 C 1292,929 1282,901 1262,881 L 442,47 C 390,-6 338,-33 285,-33 Z"/>
  </g>
  <g id="bullet-char-template-9679" transform="scale(0.00048828125,-0.00048828125)">
   <path d="M 813,0 C 632,0 489,54 383,161 276,268 223,411 223,592 223,773 276,916 383,1023 489,1130 632,1184 813,1184 992,1184 1136,1130 1245,1023 1353,916 1407,772 1407,592 1407,412 1353,268 1245,161 1136,54 992,0 813,0 Z"/>
  </g>
  <g id="bullet-char-template-8226" transform="scale(0.00048828125,-0.00048828125)">
   <path d="M 346,457 C 273,457 209,483 155,535 101,586 74,649 74,723 74,796 101,859 155,911 209,963 273,989 346,989 419,989 480,963 531,910 582,859 608,796 608,723 608,648 583,586 532,535 482,483 420,457 346,457 Z"/>
  </g>
  <g id="bullet-char-template-8211" transform="scale(0.00048828125,-0.00048828125)">
   <path d="M -4,459 L 1135,459 1135,606 -4,606 -4,459 Z"/>
  </g>
  <g id="bullet-char-template-61548" transform="scale(0.00048828125,-0.00048828125)">
   <path d="M 173,740 C 173,903 231,1043 346,1159 462,1274 601,1332 765,1332 928,1332 1067,1274 1183,1159 1299,1043 1357,903 1357,740 1357,577 1299,437 1183,322 1067,206 928,148 765,148 601,148 462,206 346,322 231,437 173,577 173,740 Z"/>
  </g>
 </defs>
 <defs class="TextEmbeddedBitmaps"/>
 <g>
  <g id="id2" class="Master_Slide">
   <g id="bg-id2" class="Background"/>
   <g id="bo-id2" class="BackgroundObjects"/>
  </g>
 </g>
 <g class="SlideGroup">
  <g>
   <g id="container-id1">
    <g id="id1" class="Slide" clip-path="url(#presentation_clip_path)">
     <g class="Page">
      <g class="Graphic">
       <g id="id3">
        <rect class="BoundingBox" stroke="none" fill="none" x="69" y="69" width="36581" height="36581"/>
        <path fill="rgb(0,0,0)" stroke="none" d="M 550,89 C 296,89 89,296 89,550 L 89,36168 C 89,36290 138,36407 224,36494 311,36580 428,36629 550,36629 L 36168,36629 C 36290,36629 36407,36580 36494,36494 36580,36407 36629,36290 36629,36168 L 36629,550 C 36629,428 36580,311 36494,224 36407,138 36290,89 36168,89 L 550,89 Z M 1669,1669 L 35049,1669 35049,35049 1669,35049 1669,1669 Z"/>
        <path fill="rgb(0,0,0)" stroke="none" d="M 9379,4234 C 9379,4516 9290,4940 9111,5504 9076,5605 8464,7330 7274,10680 6224,13631 5693,15668 5680,16789 5680,16919 5684,17053 5693,17190 5697,17277 5710,17404 5732,17570 5732,17628 5710,17657 5667,17657 5667,17657 5595,17599 5451,17483 5307,17367 5080,17176 4771,16908 4553,16706 4442,16369 4438,15899 4429,15335 4531,14564 4745,13588 4937,12720 5141,11989 5359,11396 6052,9515 6895,7482 7889,5298 L 7719,4994 6340,5862 C 6283,5920 6181,5999 6033,6101 5993,6101 6006,6007 6072,5819 6072,5500 6250,5171 6608,4831 7937,3572 8699,2936 8895,2921 9013,2914 9128,3102 9242,3486 9290,3638 9335,3887 9379,4234 L 9379,4234 Z"/>
        <path fill="rgb(0,0,0)" stroke="none" d="M 17934,6882 C 17943,9117 17425,11309 16379,13458 15259,15772 13952,17017 12457,17190 11913,17255 11462,16901 11104,16127 10791,15440 10632,14608 10627,13631 10605,11418 11248,9092 12555,6654 13113,5612 13821,4694 14680,3898 15468,3175 16107,2806 16595,2791 16817,2784 17054,2954 17307,3301 17542,3634 17666,3909 17680,4126 17680,4169 17612,4234 17477,4321 17324,4401 17213,4506 17144,4636 17666,4925 17930,5674 17934,6882 L 17934,6882 Z M 17209,6882 C 17213,6585 17157,6238 17039,5840 16943,5529 16786,5348 16568,5298 16433,5298 16263,5439 16059,5721 15854,6003 15743,6144 15725,6144 L 15725,5591 C 14475,6748 13507,8119 12823,9703 12226,11070 11913,12405 11882,13707 11873,14105 11904,14496 11974,14879 12070,15385 12222,15646 12431,15660 12632,15668 12924,15498 13307,15150 13638,14854 13904,14557 14104,14261 L 15444,12253 C 15802,11725 16183,10879 16588,9714 16993,8542 17200,7598 17209,6882 L 17209,6882 Z"/>
        <path fill="rgb(0,0,0)" stroke="none" d="M 24647,4234 C 24647,4516 24557,4940 24379,5504 24344,5605 23732,7330 22542,10680 21492,13631 20961,15668 20947,16789 20947,16919 20952,17053 20961,17190 20965,17277 20978,17404 21000,17570 21000,17628 20978,17657 20934,17657 20934,17657 20863,17599 20719,17483 20575,17367 20348,17176 20039,16908 19821,16706 19710,16369 19706,15899 19697,15335 19799,14564 20013,13588 20205,12720 20409,11989 20627,11396 21320,9515 22163,7482 23157,5298 L 22987,4994 21608,5862 C 21551,5920 21449,5999 21300,6101 21261,6101 21274,6007 21340,5819 21340,5500 21518,5171 21876,4831 23205,3572 23967,2936 24163,2921 24281,2914 24396,3102 24510,3486 24557,3638 24603,3887 24647,4234 L 24647,4234 Z"/>
        <path fill="rgb(0,0,0)" stroke="none" d="M 32281,4234 C 32281,4516 32191,4940 32013,5504 31978,5605 31366,7330 30176,10680 29126,13631 28595,15668 28581,16789 28581,16919 28586,17053 28595,17190 28599,17277 28612,17404 28634,17570 28634,17628 28612,17657 28568,17657 28568,17657 28496,17599 28353,17483 28209,17367 27982,17176 27673,16908 27455,16706 27344,16369 27340,15899 27331,15335 27433,14564 27647,13588 27839,12720 28043,11989 28261,11396 28954,9515 29797,7482 30791,5298 L 30621,4994 29242,5862 C 29185,5920 29083,5999 28934,6101 28895,6101 28908,6007 28974,5819 28974,5500 29152,5171 29510,4831 30839,3572 31601,2936 31797,2921 31915,2914 32030,3102 32144,3486 32191,3638 32237,3887 32281,4234 L 32281,4234 Z"/>
        <path fill="rgb(0,0,0)" stroke="none" d="M 11023,23152 C 11031,25387 10513,27579 9467,29728 8347,32043 7040,33287 5546,33460 5001,33526 4550,33171 4193,32397 3879,31710 3720,30878 3716,29901 3694,27688 4336,25362 5644,22924 6201,21883 6909,20964 7768,20168 8556,19445 9195,19076 9683,19061 9905,19054 10143,19224 10395,19571 10631,19904 10755,20179 10768,20396 10768,20439 10700,20505 10565,20591 10413,20671 10302,20776 10232,20906 10755,21195 11018,21944 11023,23152 L 11023,23152 Z M 10297,23152 C 10302,22856 10245,22508 10127,22110 10031,21799 9875,21619 9657,21568 9522,21568 9352,21709 9147,21991 8942,22273 8831,22414 8814,22414 L 8814,21861 C 7563,23018 6596,24389 5912,25973 5315,27341 5001,28675 4970,29977 4962,30375 4992,30766 5062,31149 5158,31656 5310,31916 5519,31930 5720,31938 6012,31768 6395,31420 6726,31124 6992,30827 7193,30531 L 8533,28523 C 8890,27995 9271,27149 9676,25984 10082,24812 10288,23868 10297,23152 L 10297,23152 Z"/>
        <path fill="rgb(0,0,0)" stroke="none" d="M 17735,20505 C 17735,20787 17646,21210 17467,21774 17432,21875 16820,23601 15631,26950 14580,29901 14049,31938 14036,33059 14036,33189 14040,33323 14049,33460 14053,33547 14066,33674 14088,33840 14088,33898 14066,33927 14023,33927 14023,33927 13951,33869 13807,33753 13663,33638 13437,33446 13127,33178 12909,32976 12798,32639 12794,32169 12785,31605 12888,30835 13101,29858 13293,28990 13498,28259 13715,27666 14408,25785 15251,23753 16245,21568 L 16075,21264 14696,22132 C 14639,22190 14537,22270 14389,22371 14349,22371 14363,22277 14428,22089 14428,21770 14607,21441 14964,21101 16293,19843 17055,19206 17251,19192 17369,19184 17485,19372 17598,19756 17646,19908 17692,20157 17735,20505 L 17735,20505 Z"/>
        <path fill="rgb(0,0,0)" stroke="none" d="M 26291,23152 C 26299,25387 25781,27579 24735,29728 23615,32043 22308,33287 20814,33460 20269,33526 19818,33171 19461,32397 19147,31710 18988,30878 18983,29901 18962,27688 19604,25362 20912,22924 21469,21883 22177,20964 23036,20168 23824,19445 24463,19076 24951,19061 25173,19054 25410,19224 25663,19571 25898,19904 26023,20179 26036,20396 26036,20439 25968,20505 25833,20591 25681,20671 25569,20776 25500,20906 26023,21195 26286,21944 26291,23152 L 26291,23152 Z M 25565,23152 C 25569,22856 25513,22508 25395,22110 25299,21799 25142,21619 24925,21568 24790,21568 24620,21709 24415,21991 24210,22273 24099,22414 24081,22414 L 24081,21861 C 22831,23018 21864,24389 21180,25973 20583,27341 20269,28675 20238,29977 20230,30375 20260,30766 20330,31149 20426,31656 20578,31916 20787,31930 20988,31938 21280,31768 21663,31420 21994,31124 22260,30827 22461,30531 L 23800,28523 C 24158,27995 24539,27149 24944,25984 25349,24812 25556,23868 25565,23152 L 25565,23152 Z"/>
        <path fill="rgb(0,0,0)" stroke="none" d="M 33003,20505 C 33003,20787 32914,21210 32735,21774 32700,21875 32088,23601 30898,26950 29848,29901 29317,31938 29304,33059 29304,33189 29308,33323 29317,33460 29321,33547 29334,33674 29356,33840 29356,33898 29334,33927 29291,33927 29291,33927 29219,33869 29075,33753 28931,33638 28705,33446 28395,33178 28177,32976 28066,32639 28062,32169 28053,31605 28156,30835 28369,29858 28561,28990 28766,28259 28983,27666 29676,25785 30519,23753 31513,21568 L 31343,21264 29964,22132 C 29907,22190 29805,22270 29657,22371 29617,22371 29630,22277 29696,22089 29696,21770 29874,21441 30232,21101 31561,19843 32323,19206 32519,19192 32637,19184 32752,19372 32866,19756 32914,19908 32959,20157 33003,20505 L 33003,20505 Z"/>
       </g>
      </g>
     </g>
    </g>
   </g>
  </g>
 </g>
</svg>