<?xml version="1.0" encoding="UTF-8"?>
<!DOCTYPE svg PUBLIC "-//W3C//DTD SVG 1.1//EN" "http://www.w3.org/Graphics/SVG/1.1/DTD/svg11.dtd">
<svg version="1.2" width="293.75mm" height="293.75mm" viewBox="0 0 29375 29375" preserveAspectRatio="xMidYMid" fill-rule="evenodd" stroke-width="28.222" stroke-linejoin="round" xmlns="http://www.w3.org/2000/svg" xmlns:ooo="http://xml.openoffice.org/svg/export" xmlns:xlink="http://www.w3.org/1999/xlink" xmlns:presentation="http://sun.com/xmlns/staroffice/presentation" xmlns:smil="http://www.w3.org/2001/SMIL20/" xmlns:anim="urn:oasis:names:tc:opendocument:xmlns:animation:1.0" xml:space="preserve">
 <defs class="ClipPathGroup">
  <clipPath id="presentation_clip_path" clipPathUnits="userSpaceOnUse">
   <rect x="0" y="0" width="29375" height="29375"/>
  </clipPath>
  <clipPath id="presentation_clip_path_shrink" clipPathUnits="userSpaceOnUse">
   <rect x="29" y="29" width="29317" height="29317"/>
  </clipPath>
 </defs>
 <defs class="TextShapeIndex">
  <g ooo:slide="id1" ooo:id-list="id3"/>
 </defs>
 <defs class="EmbeddedBulletChars">
  <g id="bullet-char-template-57356" transform="scale(0.00048828125,-0.00048828125)">
   <path d="M 580,1141 L 1163,571 580,0 -4,571 580,1141 Z"/>
  </g>
  <g id="bullet-char-template-57354" transform="scale(0.00048828125,-0.00048828125)">
   <path d="M 8,1128 L 1137,1128 1137,0 8,0 8,1128 Z"/>
  </g>
  <g id="bullet-char-template-10146" transform="scale(0.00048828125,-0.00048828125)">
   <path d="M 174,0 L 602,739 174,1481 1456,739 174,0 Z M 1358,739 L 309,1346 659,739 1358,739 Z"/>
  </g>
  <g id="bullet-char-template-10132" transform="scale(0.00048828125,-0.00048828125)">
   <path d="M 2015,739 L 1276,0 717,0 1260,543 174,543 174,936 1260,936 717,1481 1274,1481 2015,739 Z"/>
  </g>
  <g id="bullet-char-template-10007" transform="scale(0.00048828125,-0.00048828125)">
   <path d="M 0,-2 C -7,14 -16,27 -25,37 L 356,567 C 262,823 215,952 215,954 215,979 228,992 255,992 264,992 276,990 289,987 310,991 331,999 354,1012 L 381,999 492,748 772,1049 836,1024 860,1049 C 881,1039 901,1025 922,1006 886,937 835,863 770,784 769,783 710,716 594,584 L 774,223 C 774,196 753,168 711,139 L 727,119 C 717,90 699,76 672,76 641,76 570,178 457,381 L 164,-76 C 142,-110 111,-127 72,-127 30,-127 9,-110 8,-76 1,-67 -2,-52 -2,-32 -2,-23 -1,-13 0,-2 Z"/>
  </g>
  <g id="bullet-char-template-10004" transform="scale(0.00048828125,-0.00048828125)">
   <path d="M 285,-33 C 182,-33 111,30 74,156 52,228 41,333 41,471 41,549 55,616 82,672 116,743 169,778 240,778 293,778 328,747 346,684 L 369,508 C 377,444 397,411 428,410 L 1163,1116 C 1174,1127 1196,1133 1229,1133 1271,1133 1292,1118 1292,1087 L 1292,965 C 1292,929 1282,901 1262,881 L 442,47 C 390,-6 338,-33 285,-33 Z"/>
  </g>
  <g id="bullet-char-template-9679" transform="scale(0.00048828125,-0.00048828125)">
   <path d="M 813,0 C 632,0 489,54 383,161 276,268 223,411 223,592 223,773 276,916 383,1023 489,1130 632,1184 813,1184 992,1184 1136,1130 1245,1023 1353,916 1407,772 1407,592 1407,412 1353,268 1245,161 1136,54 992,0 813,0 Z"/>
  </g>
  <g id="bullet-char-template-8226" transform="scale(0.00048828125,-0.00048828125)">
   <path d="M 346,457 C 273,457 209,483 155,535 101,586 74,649 74,723 74,796 101,859 155,911 209,963 273,989 346,989 419,989 480,963 531,910 582,859 608,796 608,723 608,648 583,586 532,535 482,483 420,457 346,457 Z"/>
  </g>
  <g id="bullet-char-template-8211" transform="scale(0.00048828125,-0.00048828125)">
   <path d="M -4,459 L 1135,459 1135,606 -4,606 -4,459 Z"/>
  </g>
  <g id="bullet-char-template-61548" transform="scale(0.00048828125,-0.00048828125)">
   <path d="M 173,740 C 173,903 231,1043 346,1159 462,1274 601,1332 765,1332 928,1332 1067,1274 1183,1159 1299,1043 1357,903 1357,740 1357,577 1299,437 1183,322 1067,206 928,148 765,148 601,148 462,206 346,322 231,437 173,577 173,740 Z"/>
  </g>
 </defs>
 <defs class="TextEmbeddedBitmaps"/>
 <g>
  <g id="id2" class="Master_Slide">
   <g id="bg-id2" class="Background"/>
   <g id="bo-id2" class="BackgroundObjects"/>
  </g>
 </g>
 <g class="SlideGroup">
  <g>
   <g id="container-id1">
    <g id="id1" class="Slide" clip-path="url(#presentation_clip_path)">
     <g class="Page">
      <g class="Graphic">
       <g id="id3">
        <rect class="BoundingBox" stroke="none" fill="none" x="-13" y="-13" width="29401" height="29401"/>
        <defs>
         <clipPath id="clip_path_1" clipPathUnits="userSpaceOnUse">
          <path d="M -13,-13 L 29387,-13 29387,29387 -13,29387 -13,-13 Z"/>
         </clipPath>
        </defs>
        <g clip-path="url(#clip_path_1)">
         <path fill="rgb(0,0,0)" stroke="none" d="M -13,19016 L -13,24202 -13,29387 5172,29387 10358,29387 10358,24202 10358,19016 5172,19016 -13,19016 Z M 2061,21090 L 5172,21090 8284,21090 8284,24202 8284,27313 5172,27313 2061,27313 2061,24202 2061,21090 Z"/>
         <path fill="rgb(0,0,0)" stroke="none" d="M 4135,24202 L 4135,23165 5172,23165 6209,23165 6209,24202 6209,25239 5172,25239 4135,25239 4135,24202 Z"/>
         <path fill="rgb(0,0,0)" stroke="none" d="M -13,-13 L -13,5172 -13,10358 5172,10358 10358,10358 10358,5172 10358,-13 5172,-13 -13,-13 Z M 2061,2061 L 5172,2061 8284,2061 8284,5172 8284,8284 5172,8284 2061,8284 2061,5172 2061,2061 Z"/>
         <path fill="rgb(0,0,0)" stroke="none" d="M 4135,5172 L 4135,4135 5172,4135 6209,4135 6209,5172 6209,6209 5172,6209 4135,6209 4135,5172 Z"/>
         <path fill="rgb(0,0,0)" stroke="none" d="M 19016,-13 L 19016,5172 19016,10358 24202,10358 29387,10358 29387,5172 29387,-13 24202,-13 19016,-13 Z M 21090,2061 L 24202,2061 27313,2061 27313,5172 27313,8284 24202,8284 21090,8284 21090,5172 21090,2061 Z"/>
         <path fill="rgb(0,0,0)" stroke="none" d="M 23165,5172 L 23165,4135 24202,4135 25239,4135 25239,5172 25239,6209 24202,6209 23165,6209 23165,5172 Z"/>
         <path fill="rgb(0,0,0)" stroke="none" d="M 12432,-13 L 12432,1024 12432,2061 12432,3098 12432,4135 12432,5172 12432,6209 13469,6209 14506,6209 14506,7247 14506,8284 14506,9321 14506,10358 15543,10358 16580,10358 16580,9321 16580,8284 16580,7247 16580,6209 16580,5172 16580,4135 15543,4135 14506,4135 14506,3098 14506,2061 15543,2061 16580,2061 16580,1024 16580,-13 15543,-13 14506,-13 13469,-13 12432,-13 12432,-13 Z"/>
         <path fill="rgb(0,0,0)" stroke="none" d="M 21090,12794 L 21090,14868 21090,16942 23165,16942 25239,16942 25239,15905 25239,14868 24202,14868 23165,14868 23165,13831 23165,12794 22128,12794 21090,12794 Z M 25239,16942 L 25239,17979 25239,19016 25239,20053 25239,21090 26276,21090 27313,21090 27313,20053 27313,19016 27313,17979 27313,16942 27313,15905 27313,14868 28350,14868 29387,14868 29387,13831 29387,12794 27313,12794 25239,12794 25239,14868 25239,16942 25239,16942 Z"/>
         <path fill="rgb(0,0,0)" stroke="none" d="M 16580,21090 L 16580,22127 16580,23164 17617,23164 18654,23164 18654,22127 18654,21090 17617,21090 16580,21090 16580,21090 Z M 15690,23165 L 15690,24202 15690,25239 15690,26276 15690,27313 15690,28350 15690,29387 16727,29387 17764,29387 17764,28350 17764,27313 18801,27313 19838,27313 19838,25239 19838,23165 17764,23165 15690,23165 15690,23165 Z"/>
         <path fill="rgb(0,0,0)" stroke="none" d="M 13616,19016 L 13616,20053 13616,21090 13616,22127 13616,23165 14653,23165 15690,23165 15690,22127 15690,21090 15690,20053 15690,19016 14653,19016 13616,19016 Z"/>
         <path fill="rgb(0,0,0)" stroke="none" d="M 20875,21090 L 21912,21090 21912,20053 21912,19016 22949,19016 23986,19016 23986,21090 23986,23165 21912,23165 19838,23165 19838,22127 19838,21090 20875,21090 Z"/>
         <path fill="rgb(0,0,0)" stroke="none" d="M 23986,23165 L 23986,24202 23986,25239 23986,26276 23986,27313 23986,27313 23986,28350 23986,29387 25023,29387 26060,29387 26060,28350 26060,27313 26060,26276 26060,25239 26060,24202 26060,23165 25023,23165 23986,23165 23986,23165 Z"/>
         <path fill="rgb(0,0,0)" stroke="none" d="M 11541,23165 L 11541,24202 11541,25239 11541,26276 11541,27313 12578,27313 13616,27313 13616,26276 13616,25239 13616,24202 13616,23165 12578,23165 11541,23165 Z"/>
         <path fill="rgb(0,0,0)" stroke="none" d="M 12432,10358 L 12432,12432 12432,12432 11395,12432 10358,12432 9321,12432 8284,12432 7247,12432 6209,12432 6209,13469 6209,14506 6209,15543 6209,16580 7247,16580 8284,16580 8284,15543 8284,14506 8284,14506 9321,14506 10358,14506 10358,15543 10358,16580 11395,16580 12432,16580 12432,16580 13469,16580 14506,16580 14506,15543 14506,14506 16580,14506 16580,13469 16580,12432 15543,12432 14506,12432 14506,11395 14506,10358 13469,10358 12432,10358 12432,10358 Z"/>
         <path fill="rgb(0,0,0)" stroke="none" d="M -13,12432 L -13,13469 -13,14506 -13,15543 -13,16580 1024,16580 2061,16580 3098,16580 4135,16580 4135,15543 4135,14506 3098,14506 2061,14506 2061,14506 2061,13469 2061,12432 1024,12432 -13,12432 -13,12432 Z"/>
         <path fill="rgb(0,0,0)" stroke="none" d="M 16580,14506 L 16580,15543 16580,16580 16580,17617 16580,18654 17617,18654 18654,18654 18654,17617 18654,16580 18654,15543 18654,14506 17617,14506 16580,14506 Z"/>
         <path fill="rgb(0,0,0)" stroke="none" d="M 19838,28350 L 19838,27313 20875,27313 21912,27313 21912,28350 21912,29387 20875,29387 19838,29387 19838,28350 Z"/>
         <path fill="rgb(0,0,0)" stroke="none" d="M 26060,28350 L 26060,27313 27098,27313 28135,27313 28135,28350 28135,29387 27098,29387 26060,29387 26060,28350 Z"/>
        </g>
       </g>
      </g>
     </g>
    </g>
   </g>
  </g>
 </g>
</svg>