<?xml version="1.0" encoding="utf-8"?>
<!-- Created by sK1 2.0rc4 (https://sk1project.net/) -->
<svg xmlns="http://www.w3.org/2000/svg" height="832.677165354pt" viewBox="0 0 832.677165354 832.677165354" width="832.677165354pt" version="1.1" xmlns:xlink="http://www.w3.org/1999/xlink" id="26f89192-b2cd-11ea-be2e-a0f3c11e789f">

<g>
	<path style="fill:#2d2c2b;" d="M 385.7047,718.606 C 172.3403,717.6585 145.8134,720.073 146.3441,718.606 242.7652,561.8719 285.1039,496.0917 285.1039,495.367 L 206.4733,513.7658 325.5755,313.8319 270.0716,331.0041 C 373.2493,145.8507 414.7517,89.5922 415.1646,89.5922 L 556.8418,331.0041 504.8069,313.8319 623.9091,513.7658 C 623.9091,513.7658 554.5292,494.6616 554.5292,495.367 650.2917,651.6178 685.9879,717.6024 686.351,718.606 L 446.9903,718.606 452.772,832.6787 376.4541,832.6787 385.7047,718.606 Z" />
	<path style="fill:#2d2c2b;" d="M 229.0974,430.8808 L 177.4459,430.8808 180.8582,509.0216 135.8154,509.0216 141.2752,430.8808 C 15.3476,430.2317 -0.3086,431.8857 0.0046,430.8808 56.9123,323.5165 81.9006,278.4565 81.9006,277.96 L 35.4929,290.5634 105.7869,153.6069 73.0285,165.37 C 133.924,38.5382 158.4186,0.0007 158.6624,0.0007 L 242.2802,165.37 211.5692,153.6069 273.669,274.5983 C 271.3218,278.2426 268.945,281.9431 266.5389,285.7004 254.9128,282.0336 240.9152,277.6775 240.9152,277.96 245.7788,287.1705 250.3799,295.9231 254.7278,304.2289 243.3168,322.2106 231.2908,341.3937 218.645,361.8331 L 275.8159,344.8332 C 276.7288,346.6064 277.6252,348.3499 278.5054,350.0639 L 229.0974,430.8808 Z M 549.8446,265.3534 L 601.6169,166.684 566.0694,179.4487 C 632.1496,41.8182 658.7298,-0.0005 658.9943,-0.0005 L 749.7315,179.4487 716.4057,166.684 792.6848,315.3013 C 792.6848,315.3013 748.2504,301.1005 748.2504,301.6249 809.5815,417.7712 832.4432,466.8196 832.6757,467.5657 L 679.3771,467.5657 683.0799,552.3596 680.1587,552.3596 638.7924,486.6628 640.1267,467.5657 C 635.5262,467.542 631.0613,467.5211 626.7281,467.5028 L 598.03,421.9255 553.0648,346.4434 610.2062,364.5673 593.8002,339.4551 549.8446,265.3534 Z M 552.2666,345.1034 L 561.148,328.6794 561.1471,328.6791 552.2656,345.1018 552.2666,345.1034 Z M 552.2666,345.1034 L 553.0648,346.4434" />
</g>
</svg>