<?xml version="1.0" encoding="utf-8"?>
<!-- Created by sK1 2.0rc4 (https://sk1project.net/) -->
<svg xmlns="http://www.w3.org/2000/svg" height="832.677165354pt" viewBox="0 0 832.677165354 832.677165354" width="832.677165354pt" version="1.1" xmlns:xlink="http://www.w3.org/1999/xlink" id="4fdc2806-b33d-11ea-be2e-a0f3c11e789f">

<g>
	<g>
		<path style="fill:#2d2c2b;" d="M 306.4889,828.8149 C 393.5227,742.1032 363.7046,577.6319 286.0835,571.5028 268.9534,561.584 283.4065,541.3903 278.3611,526.7477 274.5278,517.1027 279.309,516.2908 322.9534,519.1756 366.7811,522.0725 372.0897,523.9738 374.2576,537.5511 378.7399,565.6221 415.4307,598.0789 422.6263,592.7496 434.5817,583.8949 440.2366,530.9103 434.7705,521.5376 431.9495,516.7005 448.5908,511.2933 455.6071,509.5217 463.2738,507.5859 470.9645,511.6159 474.8809,519.6213 481.2022,532.5426 481.651,532.4472 489.8495,516.4402 498.1514,500.2313 498.7386,500.1181 522.9314,510.0635 558.8834,521.3171 548.3308,528.939 529.8467,544.9935 480.9855,587.1442 466.3406,618.6733 461.9527,691.1622 457.1197,771.0069 467.4364,798.2548 508.7611,814.7908 555.9558,830.2547 520.3045,825.8016 487.0975,825.1434 459.5903,824.5981 396.2864,826.9092 368.4371,829.3135 354.27,829.3371 318.0224,833.0606 306.4889,828.8149 Z" />
		<path style="fill:#2d2c2b;" d="M 198.2963,476.1756 C 125.0409,491.3815 55.9083,438.847 55.9083,389.3474 81.2867,334.2295 46.7592,278.602 29.0774,248.6796 17.9864,222.9744 23.741,182.6924 67.8105,183.9697 110.3006,-39.8853 236.6601,155.8377 243.9134,61.6819 236.6601,-5.2903 405.4609,-27.7943 449.5793,56.0918 509.0432,86.7829 509.0432,25.4008 620.2983,29.2372 697.0259,38.8281 612.6255,100.2102 705.2646,97.0363 833.2174,109.8012 729.6351,188.447 789.099,207.6289 818.53,246.3973 817.392,322.3758 765.0137,345.8193 693.1895,355.3296 814.0355,410.9571 698.9441,437.8118 711.4886,471.381 608.7891,566.3306 556.8848,443.2138 441.9065,533.7213 497.5341,399.448 407.9327,447.6478 319.1423,545.2305 330.6515,397.5298 248.1693,447.4027 L 198.2963,476.1756 Z" />
	</g>
</g>
</svg>