<?xml version="1.0" encoding="UTF-8"?>
<!DOCTYPE svg PUBLIC "-//W3C//DTD SVG 1.1//EN" "http://www.w3.org/Graphics/SVG/1.1/DTD/svg11.dtd">
<svg version="1.2" width="367.19mm" height="367.19mm" viewBox="0 0 36719 36719" preserveAspectRatio="xMidYMid" fill-rule="evenodd" stroke-width="28.222" stroke-linejoin="round" xmlns="http://www.w3.org/2000/svg" xmlns:ooo="http://xml.openoffice.org/svg/export" xmlns:xlink="http://www.w3.org/1999/xlink" xmlns:presentation="http://sun.com/xmlns/staroffice/presentation" xmlns:smil="http://www.w3.org/2001/SMIL20/" xmlns:anim="urn:oasis:names:tc:opendocument:xmlns:animation:1.0" xml:space="preserve">
 <defs class="ClipPathGroup">
  <clipPath id="presentation_clip_path" clipPathUnits="userSpaceOnUse">
   <rect x="0" y="0" width="36719" height="36719"/>
  </clipPath>
  <clipPath id="presentation_clip_path_shrink" clipPathUnits="userSpaceOnUse">
   <rect x="36" y="36" width="36646" height="36646"/>
  </clipPath>
 </defs>
 <defs class="TextShapeIndex">
  <g ooo:slide="id1" ooo:id-list="id3"/>
 </defs>
 <defs class="EmbeddedBulletChars">
  <g id="bullet-char-template-57356" transform="scale(0.00048828125,-0.00048828125)">
   <path d="M 580,1141 L 1163,571 580,0 -4,571 580,1141 Z"/>
  </g>
  <g id="bullet-char-template-57354" transform="scale(0.00048828125,-0.00048828125)">
   <path d="M 8,1128 L 1137,1128 1137,0 8,0 8,1128 Z"/>
  </g>
  <g id="bullet-char-template-10146" transform="scale(0.00048828125,-0.00048828125)">
   <path d="M 174,0 L 602,739 174,1481 1456,739 174,0 Z M 1358,739 L 309,1346 659,739 1358,739 Z"/>
  </g>
  <g id="bullet-char-template-10132" transform="scale(0.00048828125,-0.00048828125)">
   <path d="M 2015,739 L 1276,0 717,0 1260,543 174,543 174,936 1260,936 717,1481 1274,1481 2015,739 Z"/>
  </g>
  <g id="bullet-char-template-10007" transform="scale(0.00048828125,-0.00048828125)">
   <path d="M 0,-2 C -7,14 -16,27 -25,37 L 356,567 C 262,823 215,952 215,954 215,979 228,992 255,992 264,992 276,990 289,987 310,991 331,999 354,1012 L 381,999 492,748 772,1049 836,1024 860,1049 C 881,1039 901,1025 922,1006 886,937 835,863 770,784 769,783 710,716 594,584 L 774,223 C 774,196 753,168 711,139 L 727,119 C 717,90 699,76 672,76 641,76 570,178 457,381 L 164,-76 C 142,-110 111,-127 72,-127 30,-127 9,-110 8,-76 1,-67 -2,-52 -2,-32 -2,-23 -1,-13 0,-2 Z"/>
  </g>
  <g id="bullet-char-template-10004" transform="scale(0.00048828125,-0.00048828125)">
   <path d="M 285,-33 C 182,-33 111,30 74,156 52,228 41,333 41,471 41,549 55,616 82,672 116,743 169,778 240,778 293,778 328,747 346,684 L 369,508 C 377,444 397,411 428,410 L 1163,1116 C 1174,1127 1196,1133 1229,1133 1271,1133 1292,1118 1292,1087 L 1292,965 C 1292,929 1282,901 1262,881 L 442,47 C 390,-6 338,-33 285,-33 Z"/>
  </g>
  <g id="bullet-char-template-9679" transform="scale(0.00048828125,-0.00048828125)">
   <path d="M 813,0 C 632,0 489,54 383,161 276,268 223,411 223,592 223,773 276,916 383,1023 489,1130 632,1184 813,1184 992,1184 1136,1130 1245,1023 1353,916 1407,772 1407,592 1407,412 1353,268 1245,161 1136,54 992,0 813,0 Z"/>
  </g>
  <g id="bullet-char-template-8226" transform="scale(0.00048828125,-0.00048828125)">
   <path d="M 346,457 C 273,457 209,483 155,535 101,586 74,649 74,723 74,796 101,859 155,911 209,963 273,989 346,989 419,989 480,963 531,910 582,859 608,796 608,723 608,648 583,586 532,535 482,483 420,457 346,457 Z"/>
  </g>
  <g id="bullet-char-template-8211" transform="scale(0.00048828125,-0.00048828125)">
   <path d="M -4,459 L 1135,459 1135,606 -4,606 -4,459 Z"/>
  </g>
  <g id="bullet-char-template-61548" transform="scale(0.00048828125,-0.00048828125)">
   <path d="M 173,740 C 173,903 231,1043 346,1159 462,1274 601,1332 765,1332 928,1332 1067,1274 1183,1159 1299,1043 1357,903 1357,740 1357,577 1299,437 1183,322 1067,206 928,148 765,148 601,148 462,206 346,322 231,437 173,577 173,740 Z"/>
  </g>
 </defs>
 <defs class="TextEmbeddedBitmaps"/>
 <g>
  <g id="id2" class="Master_Slide">
   <g id="bg-id2" class="Background"/>
   <g id="bo-id2" class="BackgroundObjects"/>
  </g>
 </g>
 <g class="SlideGroup">
  <g>
   <g id="container-id1">
    <g id="id1" class="Slide" clip-path="url(#presentation_clip_path)">
     <g class="Page">
      <g class="Graphic">
       <g id="id3">
        <rect class="BoundingBox" stroke="none" fill="none" x="69" y="69" width="36581" height="36581"/>
        <path fill="rgb(0,0,0)" stroke="none" d="M 30816,8211 L 30816,19730 C 30816,20304 30559,20855 30102,21261 29645,21667 29026,21895 28380,21895 L 12236,21895 C 11041,23698 9693,24940 8114,25883 8207,26328 8424,26740 8745,27067 9181,27511 9773,27760 10390,27760 L 25812,27760 C 28335,32121 31575,33482 36330,34939 36760,35071 30803,31188 31103,27760 L 34179,27760 C 34796,27760 35388,27511 35825,27067 36261,26623 36506,26020 36506,25392 L 36506,10578 C 36506,9950 36261,9348 35825,8904 35388,8460 34796,8211 34179,8211 L 30816,8211 Z"/>
        <path fill="rgb(0,0,0)" stroke="none" d="M 2908,1776 C 2200,1776 1519,2037 1011,2510 503,2983 212,3633 212,4313 212,4313 212,4313 212,4313 212,4313 212,4313 212,4313 L 212,17364 C 212,18044 503,18694 1011,19167 1519,19640 2200,19901 2908,19901 2908,19901 2908,19901 2908,19901 2908,19901 2908,19901 2908,19901 L 5404,19901 C 5261,21044 4165,22397 2997,23455 2342,24048 1685,24550 1216,24898 981,25071 795,25205 669,25301 606,25348 568,25373 503,25439 486,25456 467,25473 436,25521 404,25569 285,25680 393,25943 447,26075 578,26170 663,26200 748,26231 799,26229 836,26228 911,26226 938,26215 963,26208 5475,24943 8729,23688 11209,19901 L 25797,19901 C 25797,19901 25797,19901 25797,19901 25797,19901 25797,19901 25797,19901 26505,19901 27186,19640 27694,19167 28202,18694 28493,18044 28493,17364 28493,17364 28493,17364 28493,17364 28493,17364 28493,17364 28493,17364 L 28493,4313 C 28493,4313 28493,4313 28493,4313 28493,4313 28493,4313 28493,4313 28493,3633 28202,2983 27694,2510 27186,2037 26505,1776 25797,1776 25797,1776 25797,1776 25797,1776 25797,1776 25797,1776 25797,1776 L 2908,1776 C 2908,1776 2908,1776 2908,1776 2908,1776 2908,1776 2908,1776 L 2908,1776 Z M 2908,2679 L 2908,2679 25797,2679 C 26277,2679 26735,2858 27067,3167 27399,3476 27579,3887 27579,4313 L 27579,17363 C 27579,17790 27399,18201 27067,18510 26735,18819 26277,18998 25797,18998 L 10958,18998 C 10874,18998 10803,19017 10730,19058 10662,19097 10612,19144 10571,19210 8633,22277 6298,23580 2997,24657 3198,24488 3406,24309 3615,24121 4994,22871 6495,21212 6322,19407 6316,19339 6297,19283 6263,19224 6221,19152 6169,19100 6096,19058 6023,19017 5951,18998 5867,18998 L 2908,18998 2908,18998 C 2428,18998 1970,18819 1638,18510 1306,18201 1126,17790 1126,17364 L 1126,4313 1126,4313 C 1126,3887 1306,3476 1638,3167 1970,2858 2428,2679 2908,2679 L 2908,2679 Z M 735,25333 C 728,25335 721,25337 713,25339 718,25338 725,25335 735,25333 Z"/>
       </g>
      </g>
     </g>
    </g>
   </g>
  </g>
 </g>
</svg>