<?xml version="1.0" encoding="UTF-8"?>
<!DOCTYPE svg PUBLIC "-//W3C//DTD SVG 1.1//EN" "http://www.w3.org/Graphics/SVG/1.1/DTD/svg11.dtd">
<svg version="1.2" width="367.19mm" height="367.19mm" viewBox="0 0 36719 36719" preserveAspectRatio="xMidYMid" fill-rule="evenodd" stroke-width="28.222" stroke-linejoin="round" xmlns="http://www.w3.org/2000/svg" xmlns:ooo="http://xml.openoffice.org/svg/export" xmlns:xlink="http://www.w3.org/1999/xlink" xmlns:presentation="http://sun.com/xmlns/staroffice/presentation" xmlns:smil="http://www.w3.org/2001/SMIL20/" xmlns:anim="urn:oasis:names:tc:opendocument:xmlns:animation:1.0" xml:space="preserve">
 <defs class="ClipPathGroup">
  <clipPath id="presentation_clip_path" clipPathUnits="userSpaceOnUse">
   <rect x="0" y="0" width="36719" height="36719"/>
  </clipPath>
  <clipPath id="presentation_clip_path_shrink" clipPathUnits="userSpaceOnUse">
   <rect x="36" y="36" width="36646" height="36646"/>
  </clipPath>
 </defs>
 <defs class="TextShapeIndex">
  <g ooo:slide="id1" ooo:id-list="id3"/>
 </defs>
 <defs class="EmbeddedBulletChars">
  <g id="bullet-char-template-57356" transform="scale(0.00048828125,-0.00048828125)">
   <path d="M 580,1141 L 1163,571 580,0 -4,571 580,1141 Z"/>
  </g>
  <g id="bullet-char-template-57354" transform="scale(0.00048828125,-0.00048828125)">
   <path d="M 8,1128 L 1137,1128 1137,0 8,0 8,1128 Z"/>
  </g>
  <g id="bullet-char-template-10146" transform="scale(0.00048828125,-0.00048828125)">
   <path d="M 174,0 L 602,739 174,1481 1456,739 174,0 Z M 1358,739 L 309,1346 659,739 1358,739 Z"/>
  </g>
  <g id="bullet-char-template-10132" transform="scale(0.00048828125,-0.00048828125)">
   <path d="M 2015,739 L 1276,0 717,0 1260,543 174,543 174,936 1260,936 717,1481 1274,1481 2015,739 Z"/>
  </g>
  <g id="bullet-char-template-10007" transform="scale(0.00048828125,-0.00048828125)">
   <path d="M 0,-2 C -7,14 -16,27 -25,37 L 356,567 C 262,823 215,952 215,954 215,979 228,992 255,992 264,992 276,990 289,987 310,991 331,999 354,1012 L 381,999 492,748 772,1049 836,1024 860,1049 C 881,1039 901,1025 922,1006 886,937 835,863 770,784 769,783 710,716 594,584 L 774,223 C 774,196 753,168 711,139 L 727,119 C 717,90 699,76 672,76 641,76 570,178 457,381 L 164,-76 C 142,-110 111,-127 72,-127 30,-127 9,-110 8,-76 1,-67 -2,-52 -2,-32 -2,-23 -1,-13 0,-2 Z"/>
  </g>
  <g id="bullet-char-template-10004" transform="scale(0.00048828125,-0.00048828125)">
   <path d="M 285,-33 C 182,-33 111,30 74,156 52,228 41,333 41,471 41,549 55,616 82,672 116,743 169,778 240,778 293,778 328,747 346,684 L 369,508 C 377,444 397,411 428,410 L 1163,1116 C 1174,1127 1196,1133 1229,1133 1271,1133 1292,1118 1292,1087 L 1292,965 C 1292,929 1282,901 1262,881 L 442,47 C 390,-6 338,-33 285,-33 Z"/>
  </g>
  <g id="bullet-char-template-9679" transform="scale(0.00048828125,-0.00048828125)">
   <path d="M 813,0 C 632,0 489,54 383,161 276,268 223,411 223,592 223,773 276,916 383,1023 489,1130 632,1184 813,1184 992,1184 1136,1130 1245,1023 1353,916 1407,772 1407,592 1407,412 1353,268 1245,161 1136,54 992,0 813,0 Z"/>
  </g>
  <g id="bullet-char-template-8226" transform="scale(0.00048828125,-0.00048828125)">
   <path d="M 346,457 C 273,457 209,483 155,535 101,586 74,649 74,723 74,796 101,859 155,911 209,963 273,989 346,989 419,989 480,963 531,910 582,859 608,796 608,723 608,648 583,586 532,535 482,483 420,457 346,457 Z"/>
  </g>
  <g id="bullet-char-template-8211" transform="scale(0.00048828125,-0.00048828125)">
   <path d="M -4,459 L 1135,459 1135,606 -4,606 -4,459 Z"/>
  </g>
  <g id="bullet-char-template-61548" transform="scale(0.00048828125,-0.00048828125)">
   <path d="M 173,740 C 173,903 231,1043 346,1159 462,1274 601,1332 765,1332 928,1332 1067,1274 1183,1159 1299,1043 1357,903 1357,740 1357,577 1299,437 1183,322 1067,206 928,148 765,148 601,148 462,206 346,322 231,437 173,577 173,740 Z"/>
  </g>
 </defs>
 <defs class="TextEmbeddedBitmaps"/>
 <g>
  <g id="id2" class="Master_Slide">
   <g id="bg-id2" class="Background"/>
   <g id="bo-id2" class="BackgroundObjects"/>
  </g>
 </g>
 <g class="SlideGroup">
  <g>
   <g id="container-id1">
    <g id="id1" class="Slide" clip-path="url(#presentation_clip_path)">
     <g class="Page">
      <g class="Graphic">
       <g id="id3">
        <rect class="BoundingBox" stroke="none" fill="none" x="69" y="69" width="36581" height="36581"/>
        <path fill="rgb(0,0,0)" stroke="none" d="M 18022,29201 L 18022,29201 C 18022,29508 17858,29768 17499,30034 17140,30299 16692,30490 16070,30643 15448,30796 14837,30866 14118,30866 L 14118,30866 C 13400,30866 12789,30796 12167,30643 11544,30490 11097,30299 10738,30034 10378,29768 10215,29508 10215,29201 L 10215,29201 C 10215,28895 10378,28634 10738,28369 11097,28104 11544,27913 12167,27760 12789,27606 13400,27537 14118,27537 L 14118,27537 C 14837,27537 15448,27606 16070,27760 16692,27913 17140,28104 17499,28369 17858,28634 18022,28895 18022,29201 L 18022,29201 Z"/>
        <path fill="rgb(0,0,0)" stroke="none" d="M 12342,33406 L 12342,33406 C 12342,33641 12231,33841 11987,34045 11743,34249 11440,34395 11018,34513 10597,34630 10183,34684 9695,34684 9695,34684 9695,34684 9695,34684 L 9695,34684 C 9208,34684 8794,34630 8372,34513 7950,34395 7647,34249 7404,34045 7160,33841 7049,33641 7049,33406 L 7049,33406 C 7049,33406 7049,33406 7049,33406 7049,33171 7160,32971 7404,32767 7647,32564 7950,32417 8372,32300 8794,32182 9208,32129 9695,32129 L 9695,32129 C 9695,32129 9695,32129 9695,32129 10183,32129 10597,32182 11018,32300 11440,32417 11743,32564 11987,32767 12231,32971 12342,33171 12342,33406 12342,33406 12342,33406 12342,33406 L 12342,33406 Z"/>
        <path fill="rgb(0,0,0)" stroke="none" d="M 5729,34852 L 5729,34852 C 5729,34852 5729,34852 5729,34852 5729,35031 5639,35182 5442,35336 5244,35491 4999,35602 4657,35691 4315,35780 3980,35820 3585,35820 3585,35820 3585,35820 3585,35820 L 3585,35820 C 3191,35820 2855,35780 2513,35691 2172,35602 1926,35491 1729,35336 1531,35182 1442,35031 1442,34852 1442,34852 1442,34852 1442,34852 L 1442,34852 C 1442,34852 1442,34852 1442,34852 1442,34674 1531,34523 1729,34369 1926,34214 2172,34103 2513,34014 2855,33925 3191,33885 3585,33885 L 3585,33885 C 3585,33885 3585,33885 3585,33885 3980,33885 4315,33925 4657,34014 4999,34103 5244,34214 5442,34369 5639,34523 5729,34674 5729,34852 5729,34852 5729,34852 5729,34852 L 5729,34852 Z"/>
        <path fill="rgb(0,0,0)" stroke="none" d="M 22024,898 C 21482,898 20935,958 20391,1078 17818,1645 15495,3485 14121,6042 13860,5827 13587,5630 13305,5452 12265,4800 11132,4435 10039,4400 8096,4339 6488,5324 5772,7017 5262,8226 5252,9695 5741,11149 2473,12177 206,14420 206,17022 206,20261 3728,22645 8305,23334 8305,23334 8305,23334 8305,23334 8618,23410 8939,23477 9267,23534 14311,26565 21428,25913 26568,23542 30958,23899 32464,21698 32571,19659 35019,17946 37353,15389 36138,11792 35220,9077 32449,7184 28928,6481 28057,3106 25328,898 22024,898 L 22024,898 Z"/>
       </g>
      </g>
     </g>
    </g>
   </g>
  </g>
 </g>
</svg>