<?xml version="1.0" encoding="utf-8"?>
<!-- Created by sK1 2.0rc4 (https://sk1project.net/) -->
<svg xmlns="http://www.w3.org/2000/svg" height="832.677165354pt" viewBox="0 0 832.677165354 832.677165354" width="832.677165354pt" version="1.1" xmlns:xlink="http://www.w3.org/1999/xlink" id="8af7d166-b2b5-11ea-be2e-a0f3c11e789f">

<g>
	<g>
		<g>
			<path style="fill:#2d2c2b;" d="M 536.8879,641.4775 C 534.6176,712.2016 534.6176,702.5446 416.1692,702.5446 298.0577,702.5446 298.0577,712.2016 299.1086,645.1357 299.1086,645.1357 385.1907,414.7707 416.1692,414.7707 447.1477,414.7707 536.8879,641.4775 536.8879,641.4775 Z" />
			<path style="fill:#2d2c2b;" d="M 298.0556,741.4223 C 297.8636,741.4194 297.6372,741.4178 297.4104,741.4178 272.2149,741.4178 251.7822,761.8505 251.7822,787.046 251.7822,812.2415 272.2149,832.6742 297.4104,832.6742 297.6372,832.6742 297.8636,832.6725 298.0897,832.6692 L 534.6213,832.6696 C 534.8133,832.6725 535.0397,832.6742 535.2666,832.6742 560.4621,832.6742 580.8948,812.2415 580.8948,787.046 580.8948,761.8505 560.4621,741.4178 535.2666,741.4178 535.0397,741.4178 534.8133,741.4194 534.5872,741.4227 L 298.0556,741.4223 Z" />
		</g>
		<path style="fill:#2d2c2b;" d="M 417.2201,160.9867 C 392.4622,160.9869 372.3845,181.0647 372.3843,205.8225 372.4067,218.8615 377.9946,230.5936 386.898,238.773 384.3487,244.3105 382.1477,248.5869 380.6149,250.2197 350.1355,282.6878 308.5788,321.3576 308.5788,371.3708 308.5788,431.3718 357.2191,480.0121 417.2201,480.0121 477.221,480.0121 525.8614,431.3718 525.8614,371.3708 525.8614,353.1271 521.7769,338.1473 514.7827,324.531 L 441.4663,397.845 C 437.3164,402.1033 431.5255,404.7457 425.1187,404.7457 412.5209,404.7457 402.3046,394.5293 402.3046,381.9316 402.3046,375.5265 404.9455,369.7371 409.1976,365.5929 L 487.4904,287.2988 C 477.1019,275.8368 465.2549,264.0078 452.7902,250.4343 451.612,249.1513 449.3498,245.0836 446.5141,239.6951 456.0382,231.4399 462.0357,219.3325 462.0582,205.8264 462.058,181.0645 441.9801,160.9867 417.2221,160.9867 417.2214,160.9867 417.2207,160.9867 417.22,160.9867 Z" />
	</g>
</g>
</svg>