<?xml version="1.0" encoding="utf-8"?>
<!-- Created by sK1 2.0rc4 (https://sk1project.net/) -->
<svg xmlns="http://www.w3.org/2000/svg" height="832.677165354pt" viewBox="0 0 832.677165354 832.677165354" width="832.677165354pt" version="1.1" xmlns:xlink="http://www.w3.org/1999/xlink" id="6f016800-b2b5-11ea-be2e-a0f3c11e789f">

<g>
	<g>
		<g>
			<path style="fill:#2d2c2b;" d="M 298.0574,741.4174 C 297.8654,741.4145 297.639,741.4128 297.4122,741.4128 272.2167,741.4128 251.7839,761.8455 251.7839,787.041 251.7839,812.2365 272.2167,832.6692 297.4122,832.6692 297.639,832.6692 297.8654,832.6676 298.0915,832.6643 L 534.6231,832.6647 C 534.8151,832.6676 535.0415,832.6692 535.2684,832.6692 560.4639,832.6692 580.8966,812.2365 580.8966,787.041 580.8966,761.8455 560.4639,741.4128 535.2684,741.4128 535.0415,741.4128 534.8151,741.4145 534.589,741.4178 L 298.0574,741.4174 Z" />
			<path style="fill:#2d2c2b;" d="M 533.65,603.9146 C 561.1577,714.446 531.3797,702.2451 412.9312,702.2451 294.8198,702.2451 264.4972,713.1424 295.8707,609.805 L 359.4154,349.8039 470.2421,349.1293 533.65,603.9146 Z" />
		</g>
		<path style="fill:#2d2c2b;" d="M 337.288,303.4622 C 328.2309,270.9518 316.4967,242.6723 294.5213,200.3937 285.5086,183.0539 278.1373,167.0958 278.1407,164.9312 278.1498,159.0192 284.6616,147.6984 289.9815,144.3451 294.2339,141.6648 300.1723,141.675 352.1226,140.5735 L 390.2486,139.7652 390.7293,116.0754 391.21,92.3857 374.473,91.824 C 352.0789,91.0725 351.085,90.0223 351.085,67.1136 351.085,45.2335 352.3951,43.9039 374.617,43.232 L 390.2486,42.7595 390.748,27.8748 C 391.2123,14.0403 391.5666,12.757 395.7695,9.6862 399.5859,6.8978 402.8123,6.3823 416.45,6.3823 425.3373,6.3823 433.8766,6.8345 435.4263,7.3866 440.6972,9.2653 443.337,16.9963 443.337,30.5535 L 443.337,43.5678 459.0025,43.5678 C 480.7225,43.5678 481.6303,44.5012 481.6303,66.8318 481.6303,89.869 480.5568,91.063 459.1574,91.8273 L 443.337,92.3924 443.337,116.483 443.337,140.5735 479.3144,140.5735 C 529.8143,140.5735 535.1314,140.8331 540.6708,143.5712 547.8048,147.0972 554.4993,157.0687 554.5398,164.2291 554.5581,167.2867 549.6739,178.4927 542.2104,192.5224 521.5785,231.3063 503.4342,274.313 495.4056,303.4622 L 493.5131,310.3334 416.3576,310.3334 339.2023,310.3334 337.288,303.4622 Z" />
	</g>
</g>
</svg>