<?xml version="1.0" encoding="utf-8"?>
<!-- Created by sK1 2.0rc4 (https://sk1project.net/) -->
<svg xmlns="http://www.w3.org/2000/svg" height="832.677165354pt" viewBox="0 0 832.677165354 832.677165354" width="832.677165354pt" version="1.1" xmlns:xlink="http://www.w3.org/1999/xlink" id="dfd17cd2-b2b5-11ea-be2e-a0f3c11e789f">

<g>
	<g>
		<path style="fill:#2d2c2b;" d="M 539.5181,671.4457 C 535.3005,709.1521 518.3486,702.5485 420.3999,702.5485 322.0798,702.5485 305.6048,709.2403 303.4503,672.797 302.57,652.6336 301.3973,647.2337 310.5499,634.8331 322.2876,618.9721 351.8858,581.3277 423.3235,499.1091 454.9022,446.5937 422.4358,418.3978 395.335,438.5056 382.5108,447.5147 344.1729,471.8417 310.2843,489.1962 291.1299,499.0052 270.2613,494.3184 258.3998,477.5059 240.6017,458.6479 238.8456,439.2614 247.8263,423.2009 268.1396,386.8737 296.4461,350.5145 320.9936,315.8889 326.4195,308.2354 333.8923,291.2719 328.5798,280.8535 325.8886,275.5759 305.2809,241.9591 313.0741,240.353 318.2363,239.289 322.2592,239.6824 327.3179,239.5757 346.5275,239.1704 360.5693,239.3718 371.5749,239.4395 397.407,239.5985 418.7418,239.912 431.609,240.3881 463.3942,244.4093 495.3745,258.4778 517.4414,276.3219 546.5535,300.3942 571.7836,339.0262 580.3665,378.283 615.8368,564.589 543.7743,589.5833 539.5181,671.4457 L 539.5181,671.4457 Z" />
		<path style="fill:#2d2c2b;" d="M 302.2864,741.4262 C 302.0943,741.4233 301.8677,741.4217 301.6407,741.4217 276.4452,741.4217 256.0124,761.8544 256.0124,787.0499 256.0124,812.2454 276.4452,832.6781 301.6407,832.6781 301.8677,832.6781 302.0943,832.6764 302.3205,832.6731 L 538.8521,832.6735 C 539.0442,832.6764 539.2708,832.6781 539.4978,832.6781 564.6933,832.6781 585.126,812.2454 585.126,787.0499 585.126,761.8544 564.6933,741.4217 539.4978,741.4217 539.2708,741.4217 539.0442,741.4233 538.818,741.4266 L 302.2864,741.4262 Z" />
	</g>
</g>
</svg>