<?xml version="1.0" encoding="utf-8"?>
<!-- Created by sK1 2.0rc4 (https://sk1project.net/) -->
<svg xmlns="http://www.w3.org/2000/svg" height="832.677165354pt" viewBox="0 0 832.677165354 832.677165354" width="832.677165354pt" version="1.1" xmlns:xlink="http://www.w3.org/1999/xlink" id="a26f0f1c-b2b5-11ea-be2e-a0f3c11e789f">

<g>
	<g>
		<path style="fill:#2d2c2b;" d="M 528.34,367.2123 C 528.34,429.1522 478.1088,479.3834 416.1688,479.3834 354.2289,479.3834 303.9977,429.1522 303.9977,367.2123 303.9977,305.2723 354.2289,255.0411 416.1688,255.0411 478.1088,255.0411 528.34,305.2723 528.34,367.2123 Z" />
		<g>
			<path style="fill:#2d2c2b;" d="M 536.8875,641.4775 C 534.6173,712.2016 534.6173,702.5446 416.1688,702.5446 298.0573,702.5446 298.0573,712.2016 299.1082,645.1357 299.1082,645.1357 385.1903,414.7707 416.1688,414.7707 447.1473,414.7707 536.8875,641.4775 536.8875,641.4775 Z" />
			<path style="fill:#2d2c2b;" d="M 298.0553,741.4223 C 297.8633,741.4194 297.6369,741.4178 297.41,741.4178 272.2145,741.4178 251.7818,761.8505 251.7818,787.046 251.7818,812.2415 272.2145,832.6742 297.41,832.6742 297.6369,832.6742 297.8633,832.6725 298.0893,832.6692 L 534.621,832.6696 C 534.813,832.6725 535.0394,832.6742 535.2662,832.6742 560.4617,832.6742 580.8944,812.2415 580.8944,787.046 580.8944,761.8505 560.4617,741.4178 535.2662,741.4178 535.0394,741.4178 534.813,741.4194 534.5869,741.4227 L 298.0553,741.4223 Z" />
		</g>
	</g>
</g>
</svg>