<?xml version="1.0" encoding="utf-8"?>
<!-- Created by sK1 2.0rc4 (https://sk1project.net/) -->
<svg xmlns="http://www.w3.org/2000/svg" height="832.677165354pt" viewBox="0 0 832.677165354 832.677165354" width="832.677165354pt" version="1.1" xmlns:xlink="http://www.w3.org/1999/xlink" id="d282de96-b2b9-11ea-be2e-a0f3c11e789f">

<g>
	<path style="fill:#2d2c2b;" d="M 190.6243,658.5476 C 190.258,658.5421 189.8259,658.5389 189.393,658.5389 141.314,658.5389 102.3236,697.5294 102.3236,745.6084 102.3236,793.6874 141.314,832.6778 189.393,832.6778 189.8259,832.6778 190.258,832.6747 190.6893,832.6684 L 642.048,832.6691 C 642.4143,832.6747 642.8464,832.6778 643.2792,832.6778 691.3582,832.6778 730.3487,793.6874 730.3487,745.6084 730.3487,697.5294 691.3582,658.5389 643.2792,658.5389 642.8464,658.5389 642.4143,658.5421 641.9829,658.5484 L 190.6243,658.5476 Z" />
	<path style="fill-rule:evenodd;fill:#2d2c2b;" d="M 185.346,119.635 C 185.346,86.6082 158.5623,59.8245 125.5355,59.8245 92.5086,59.8245 65.725,86.6082 65.725,119.635 65.725,152.6619 92.5086,179.4456 125.5355,179.4456 158.5623,179.4456 185.346,152.6619 185.346,119.635 Z" />
	<path style="fill-rule:evenodd;fill:#2d2c2b;" d="M 768.2325,116.8006 C 768.2325,83.7737 741.4488,56.99 708.422,56.99 675.3951,56.99 648.6114,83.7737 648.6114,116.8006 648.6114,149.8274 675.3951,176.6111 708.422,176.6111 741.4488,176.6111 768.2325,149.8274 768.2325,116.8006 Z" />
	<path style="fill-rule:evenodd;fill:#2d2c2b;" d="M 493.5074,77.8141 C 493.5074,36.5306 460.0279,3.0511 418.7445,3.0511 377.461,3.0511 343.9815,36.5306 343.9815,77.8141 343.9815,119.0975 377.461,152.577 418.7445,152.577 460.0279,152.577 493.5074,119.0975 493.5074,77.8141 Z" />
	<path style="fill:#2d2c2b;" d="M 235.081,584.5651 C 241.5413,567.1342 236.19,488.4064 185.2128,327.0758 L 129.662,151.2702 158.7877,131.0538 229.6381,194.0414 C 268.6059,228.6846 308.715,264.4503 318.7695,273.5207 L 337.0505,290.0124 369.6326,211.9615 402.2148,133.9105 C 443.9607,124.9204 433.3233,136.9287 433.3111,138.9322 433.2961,140.9357 446.8612,175.6011 463.4491,215.9665 L 493.6091,289.3582 506.6402,279.3326 C 513.8073,273.8186 554.3082,238.7128 596.6421,201.3197 L 673.6128,133.3324 702.025,154.096 647.0669,329.7929 C 599.0217,483.39 597.0494,569.0996 602.4897,584.5651 L 235.081,584.5651 Z" />
</g>
</svg>