<?xml version="1.0" encoding="utf-8"?>
<!-- Created by sK1 2.0rc4 (https://sk1project.net/) -->
<svg xmlns="http://www.w3.org/2000/svg" height="832.677165354pt" viewBox="0 0 832.677165354 832.677165354" width="832.677165354pt" version="1.1" xmlns:xlink="http://www.w3.org/1999/xlink" id="28df9ed0-b2b7-11ea-be2e-a0f3c11e789f">

<g>
	<path style="fill:#2d2c2b;" d="M 190.6293,658.5344 C 190.263,658.5289 189.8309,658.5257 189.398,658.5257 141.319,658.5257 102.3286,697.5162 102.3286,745.5952 102.3286,793.6742 141.319,832.6646 189.398,832.6646 189.8309,832.6646 190.263,832.6615 190.6943,832.6552 L 642.053,832.6559 C 642.4193,832.6615 642.8514,832.6646 643.2842,832.6646 691.3632,832.6646 730.3537,793.6742 730.3537,745.5952 730.3537,697.5162 691.3632,658.5257 643.2842,658.5257 642.8514,658.5257 642.4193,658.5289 641.9879,658.5352 L 190.6293,658.5344 Z" />
	<path style="fill:#2d2c2b;" d="M 416.3423,8.9155 C 363.537,8.9158 320.7138,44.7998 320.7134,89.0482 320.7612,112.3522 332.6793,133.3204 351.6692,147.939 346.232,157.8359 341.5375,165.4789 338.2682,168.3971 273.2595,226.4257 184.6243,295.5383 184.6243,384.9245 184.6243,492.1611 288.368,579.0936 416.3423,579.0936 544.3167,579.0936 648.0603,492.1611 648.0603,384.9245 648.0603,352.3184 639.3485,325.5457 624.4309,301.21 L 468.0564,432.2405 C 459.2051,439.8511 446.8539,444.5737 433.189,444.5737 406.3196,444.5737 384.5295,426.3145 384.5295,403.7992 384.5295,392.3518 390.1622,382.0045 399.2314,374.5979 L 566.2198,234.6667 C 544.0626,214.1813 518.7945,193.0399 492.2088,168.7806 489.6959,166.4876 484.8709,159.2176 478.8228,149.587 499.1365,134.8329 511.9283,113.1939 511.9763,89.0553 511.9759,44.7996 469.1522,8.9155 416.3466,8.9155 416.3451,8.9155 416.3436,8.9155 416.3421,8.9155 Z" />
</g>
</svg>