<?xml version="1.0" encoding="utf-8"?>
<!-- Created by sK1 2.0rc4 (https://sk1project.net/) -->
<svg xmlns="http://www.w3.org/2000/svg" height="832.677165354pt" viewBox="0 0 832.677165354 832.677165354" width="832.677165354pt" version="1.1" xmlns:xlink="http://www.w3.org/1999/xlink" id="556e446e-b344-11ea-be2e-a0f3c11e789f">

<g>
	<path style="fill:#2d2c2b;" d="M 190.6278,657.0391 C 190.2615,657.0336 189.8294,657.0304 189.3965,657.0304 141.3175,657.0304 102.3271,696.0209 102.3271,744.0999 102.3271,792.1789 141.3175,831.1693 189.3965,831.1693 189.8294,831.1693 190.2615,831.1662 190.6928,831.1599 L 642.0515,831.1606 C 642.4178,831.1662 642.8499,831.1693 643.2827,831.1693 691.3617,831.1693 730.3522,792.1789 730.3522,744.0999 730.3522,696.0209 691.3617,657.0304 643.2827,657.0304 642.8499,657.0304 642.4178,657.0336 641.9864,657.0399 L 190.6278,657.0391 Z" />
	<path style="fill:#2d2c2b;" d="M 639.6041,499.3355 C 635.3435,589.9001 635.3435,577.534 413.055,577.534 191.3987,577.534 191.3987,589.9001 193.3709,504.0199 193.3709,504.0199 259.5129,352.0823 283.4372,282.0183 437.6225,271.765 507.9383,249.3386 544.8955,282.0183 580.782,364.0444 639.6041,499.3355 639.6041,499.3355 Z" />
	<path style="fill:#2d2c2b;" d="M 191.1578,266.4693 C 188.5679,175.9282 192.923,68.7723 199.8357,23.1484 202.6008,7.9404 215.0437,1.0277 244.133,1.7818 270.9826,1.7818 294.2932,-0.5959 294.2932,24.248 294.2932,49.0919 310.7689,90.5521 330.906,90.5521 351.0431,90.5521 367.5193,49.0919 367.5193,24.248 367.5193,-0.5959 391.589,1.7818 418.4386,1.7818 445.2882,1.7818 465.1541,-0.5959 465.1541,24.248 465.1541,49.0919 481.6297,89.2312 501.7668,89.2312 521.9044,89.2312 538.3802,49.0919 538.3802,24.248 538.3802,-0.5959 562.4767,1.7818 589.3263,1.7818 620.1289,2.4102 632.5718,2.4102 633.5383,27.5715 639.4846,78.4501 639.2843,159.4426 637.1749,253.6026 633.7572,330.8031 491.4214,312.422 411.6031,312.422 331.7848,312.422 191.1578,339.9936 191.1578,266.4693 Z" />
</g>
</svg>