<?xml version="1.0" encoding="utf-8"?>
<!-- Created by sK1 2.0rc4 (https://sk1project.net/) -->
<svg xmlns="http://www.w3.org/2000/svg" height="832.677165354pt" viewBox="0 0 832.677165354 832.677165354" width="832.677165354pt" version="1.1" xmlns:xlink="http://www.w3.org/1999/xlink" id="6b9a5882-b2b7-11ea-be2e-a0f3c11e789f">

<g>
	<path style="fill:#2d2c2b;" d="M 190.6293,658.5344 C 190.263,658.5289 189.8309,658.5257 189.398,658.5257 141.319,658.5257 102.3286,697.5162 102.3286,745.5952 102.3286,793.6742 141.319,832.6646 189.398,832.6646 189.8309,832.6646 190.263,832.6615 190.6943,832.6552 L 642.053,832.6559 C 642.4193,832.6615 642.8514,832.6646 643.2842,832.6646 691.3632,832.6646 730.3537,793.6742 730.3537,745.5952 730.3537,697.5162 691.3632,658.5257 643.2842,658.5257 642.8514,658.5257 642.4193,658.5289 641.9879,658.5352 L 190.6293,658.5344 Z" />
	<path style="fill:#2d2c2b;" d="M 589.1824,175.9944 C 589.1824,271.4371 511.7815,348.838 416.3388,348.838 320.8961,348.838 243.4952,271.4371 243.4952,175.9944 243.4952,80.5517 320.8961,3.1508 416.3388,3.1508 511.7815,3.1508 589.1824,80.5517 589.1824,175.9944 Z" />
	<path style="fill:#2d2c2b;" d="M 639.6056,500.8308 C 635.345,591.3954 635.345,579.0293 413.0565,579.0293 191.4002,579.0293 191.4002,591.3954 193.3724,505.5152 193.3724,505.5152 351.8083,303.3391 409.9447,303.3391 468.0811,303.3391 639.6056,500.8308 639.6056,500.8308 Z" />
</g>
</svg>