<?xml version="1.0" encoding="utf-8"?>
<!-- Created by sK1 2.0rc4 (https://sk1project.net/) -->
<svg xmlns="http://www.w3.org/2000/svg" height="832.677165354pt" viewBox="0 0 832.677165354 832.677165354" width="832.677165354pt" version="1.1" xmlns:xlink="http://www.w3.org/1999/xlink" id="ba954934-b2b6-11ea-be2e-a0f3c11e789f">

<g>
	<g>
		<path style="fill:#2d2c2b;" d="M 190.6293,658.5344 C 190.263,658.5289 189.8309,658.5257 189.398,658.5257 141.319,658.5257 102.3286,697.5162 102.3286,745.5952 102.3286,793.6742 141.319,832.6646 189.398,832.6646 189.8309,832.6646 190.263,832.6615 190.6943,832.6552 L 642.053,832.6559 C 642.4193,832.6615 642.8514,832.6646 643.2842,832.6646 691.3632,832.6646 730.3537,793.6742 730.3537,745.5952 730.3537,697.5162 691.3632,658.5257 643.2842,658.5257 642.8514,658.5257 642.4193,658.5289 641.9879,658.5352 L 190.6293,658.5344 Z" />
		<path style="fill:#2d2c2b;" d="M 265.4906,571.1733 C 248.2075,509.1356 225.816,455.1717 183.8817,374.494 166.6832,341.4056 152.6169,310.9538 152.6235,306.8232 152.6409,295.5416 165.0669,273.9389 175.2185,267.5401 183.3331,262.4253 194.6651,262.4447 293.7986,260.3429 L 366.552,258.8004 367.4693,213.5947 368.3867,168.3891 336.4484,167.3173 C 293.7153,165.8831 291.8185,163.8792 291.8185,120.164 291.8185,78.4114 294.3186,75.8742 336.7232,74.5923 L 366.552,73.6905 367.5051,45.2869 C 368.3909,18.8875 369.067,16.4385 377.0872,10.5788 384.3699,5.2579 390.5266,4.2742 416.5506,4.2742 433.5096,4.2742 449.8047,5.137 452.7619,6.1907 462.8199,9.7757 467.8574,24.5282 467.8574,50.3985 L 467.8574,75.233 497.7508,75.233 C 539.1978,75.233 540.9301,77.014 540.9301,119.6262 540.9301,163.5866 538.8816,165.8651 498.0463,167.3236 L 467.8574,168.4019 467.8574,214.3724 467.8574,260.3429 536.5107,260.3429 C 632.8766,260.3429 643.0228,260.8383 653.5933,266.0632 667.2067,272.7917 679.9814,291.8196 680.0587,305.4834 680.0935,311.318 670.7734,332.7016 656.5313,359.4738 617.1607,433.4827 582.5371,515.5497 567.2166,571.1733 L 563.6052,584.2852 416.3743,584.2852 269.1435,584.2852 265.4906,571.1733 Z" />
	</g>
</g>
</svg>