<?xml version="1.0" encoding="utf-8"?>
<!-- Created by sK1 2.0rc4 (https://sk1project.net/) -->
<svg xmlns="http://www.w3.org/2000/svg" height="832.677165354pt" viewBox="0 0 832.677165354 832.677165354" width="832.677165354pt" version="1.1" xmlns:xlink="http://www.w3.org/1999/xlink" id="4b01fca8-b2ba-11ea-be2e-a0f3c11e789f">

<g>
	<path style="fill:#2d2c2b;" d="M 190.6242,658.5457 C 190.2579,658.5402 189.8258,658.537 189.3929,658.537 141.3139,658.537 102.3235,697.5275 102.3235,745.6065 102.3235,793.6855 141.3139,832.6759 189.3929,832.6759 189.8258,832.6759 190.2579,832.6728 190.6892,832.6665 L 642.0479,832.6672 C 642.4142,832.6728 642.8463,832.6759 643.2791,832.6759 691.3581,832.6759 730.3486,793.6855 730.3486,745.6065 730.3486,697.5275 691.3581,658.537 643.2791,658.537 642.8463,658.537 642.4142,658.5402 641.9828,658.5465 L 190.6242,658.5457 Z" />
	<path style="fill:#2d2c2b;" d="M 595.6905,541.9242 C 589.5493,588.569 564.7492,581.4919 422.3817,580.9459 279.727,581.4919 255.0946,588.6781 251.9576,543.5959 250.6757,518.6526 248.9682,511.9727 262.295,496.6325 279.386,477.0116 322.4834,430.4436 426.5021,328.7348 472.4832,263.7705 425.2096,228.8907 385.7487,253.765 367.0757,264.9098 311.2527,295.0036 261.9083,316.472 234.018,328.6063 203.6317,322.8085 186.3605,302.0105 160.4452,278.6821 157.8881,254.7 170.9646,234.8323 200.5423,189.8937 241.7589,144.9155 277.5019,102.0818 285.4024,92.614 296.2834,71.6293 288.5479,58.7412 284.6294,52.2125 254.6231,10.6268 265.9705,8.6399 273.4871,7.3237 279.3447,7.8104 286.7106,7.6784 314.6813,7.177 335.1272,7.4261 351.1522,7.5099 388.7657,7.7066 419.8308,8.0944 438.5664,8.6833 484.8482,13.6578 531.4139,31.0613 563.545,53.1353 605.9345,82.9141 642.6715,130.7038 655.1689,179.2666 706.8163,409.7368 601.8878,440.6561 595.6905,541.9242 L 595.6905,541.9242 Z" />
</g>
</svg>