<?xml version="1.0" encoding="utf-8"?>
<!-- Created by sK1 2.0rc4 (https://sk1project.net/) -->
<svg xmlns="http://www.w3.org/2000/svg" height="832.677165354pt" viewBox="0 0 832.677165354 832.677165354" width="832.677165354pt" version="1.1" xmlns:xlink="http://www.w3.org/1999/xlink" id="7e3301bc-b2b5-11ea-be2e-a0f3c11e789f">

<g>
	<g>
		<path style="fill:#2d2c2b;" d="M 298.0557,741.4195 C 297.8637,741.4165 297.6373,741.4149 297.4104,741.4149 272.2149,741.4149 251.7822,761.8476 251.7822,787.0431 251.7822,812.2386 272.2149,832.6713 297.4104,832.6713 297.6373,832.6713 297.8637,832.6697 298.0897,832.6664 L 534.6214,832.6667 C 534.8133,832.6697 535.0398,832.6713 535.2666,832.6713 560.4621,832.6713 580.8948,812.2386 580.8948,787.0431 580.8948,761.8476 560.4621,741.4149 535.2666,741.4149 535.0398,741.4149 534.8133,741.4165 534.5873,741.4198 L 298.0557,741.4195 Z" />
		<path style="fill:#2d2c2b;" d="M 324.4594,346.5495 C 319.4711,340.8178 319.9591,333.2493 325.5164,330.1565 329.8854,327.7251 330.0979,326.347 328.9485,307.8985 326.9197,275.3354 320.4058,260.7602 290.2161,221.2335 L 276.8681,203.7571 281.1052,195.2187 C 283.4357,190.5226 288.5483,184.4147 292.4665,181.6456 299.4412,176.7164 302.5842,175.8498 323.5701,173.0696 332.5724,171.877 334.0514,170.9223 335.114,165.6181 341.179,135.3449 348.357,125.7539 374.9952,112.3306 385.2003,107.1881 393.8892,101.7991 394.3039,100.3549 394.7182,98.9108 392.0686,94.5493 388.4149,90.6627 378.2656,79.8664 379.7115,72.5575 393.4615,65.1511 406.6039,58.072 427.5488,58.3537 440.5369,65.7843 453.2297,73.0459 454.4974,80.2874 444.8688,90.5299 441.1464,94.4895 438.4394,98.9108 438.8531,100.3549 439.2665,101.7991 447.6077,107.0525 457.3884,112.0293 467.1692,117.006 478.1017,124.0284 481.6828,127.6346 489.479,135.4852 497.0587,151.4293 497.1048,160.0753 497.1541,170.0158 499.6581,171.8701 515.8626,173.9858 524.2563,175.0817 534.2025,177.6339 537.9654,179.6573 544.734,183.297 555.809,197.6858 555.809,202.8401 555.809,204.3073 547.9473,215.5231 538.3386,227.7642 512.5802,260.5788 503.5979,283.3821 503.5979,315.959 503.5979,325.5905 504.4411,328.3749 507.9488,330.327 513.7956,333.5809 513.5321,342.7458 507.4645,347.1649 503.2836,350.2101 490.8235,350.6865 415.3446,350.6865 333.5472,350.6865 327.8333,350.4259 324.4593,346.5495 L 324.4594,346.5495 Z" />
		<path style="fill:#2d2c2b;" d="M 462.0653,72.1415 C 462.0653,97.3915 441.5885,117.8683 416.3385,117.8683 391.0886,117.8683 370.6117,97.3915 370.6117,72.1415 370.6117,46.8916 391.0886,26.4147 416.3385,26.4147 441.5885,26.4147 462.0653,46.8916 462.0653,72.1415 Z" />
		<path style="fill:#2d2c2b;" d="M 533.6482,603.9167 C 566.0427,713.1159 531.378,702.2472 412.9295,702.2472 294.8181,702.2472 264.4955,713.1445 295.869,609.8071 L 359.4137,390.8483 470.2404,390.1737 533.6482,603.9167 Z" />
	</g>
</g>
</svg>