<?xml version="1.0" encoding="utf-8"?>
<!-- Created by sK1 2.0rc4 (https://sk1project.net/) -->
<svg xmlns="http://www.w3.org/2000/svg" height="832.677165354pt" viewBox="0 0 832.677165354 832.677165354" width="832.677165354pt" version="1.1" xmlns:xlink="http://www.w3.org/1999/xlink" id="c6e9d96c-b2b5-11ea-be2e-a0f3c11e789f">

<g>
	<g>
		<path style="fill:#2d2c2b;" d="M 536.8871,641.4853 C 534.6169,712.2094 534.6169,702.5524 416.1684,702.5524 298.0569,702.5524 298.0569,712.2094 299.1079,645.1435 299.1079,645.1435 362.2368,415.5344 379.6148,414.969 379.6148,414.969 450.2852,414.1256 451.1801,414.969 471.4045,414.1256 536.8871,641.4853 536.8871,641.4853 Z" />
		<path style="fill:#2d2c2b;" d="M 298.0549,741.4301 C 297.8629,741.4272 297.6365,741.4256 297.4096,741.4256 272.2141,741.4256 251.7814,761.8583 251.7814,787.0538 251.7814,812.2493 272.2141,832.682 297.4096,832.682 297.6365,832.682 297.8629,832.6803 298.089,832.677 L 534.6206,832.6774 C 534.8126,832.6803 535.039,832.682 535.2658,832.682 560.4613,832.682 580.894,812.2493 580.894,787.0538 580.894,761.8583 560.4613,741.4256 535.2658,741.4256 535.039,741.4256 534.8126,741.4272 534.5865,741.4305 L 298.0549,741.4301 Z" />
		<path style="fill:#2d2c2b;" d="M 294.6124,409.7113 C 244.5198,342.2597 242.6264,255.7435 291.2446,255.7435 310.9023,255.7435 326.9861,267.3661 326.9861,281.5721 326.9861,295.7781 339.0486,319.4855 353.7917,319.4855 368.5349,319.4855 380.5978,295.7781 380.5978,281.5721 380.5978,267.3661 396.6812,255.7435 416.3389,255.7435 435.9965,255.7435 452.0799,267.3661 452.0799,281.5721 452.0799,295.7781 464.1424,318.7302 478.8856,318.7302 493.6291,318.7302 505.6916,295.7781 505.6916,281.5721 505.6916,267.3661 521.7751,255.7435 541.4327,255.7435 590.0489,255.7435 588.1557,342.2597 538.0611,409.7113 510.3956,446.9642 474.7751,462.3759 416.337,462.3759 357.8989,462.3759 322.2783,446.9642 294.6124,409.7113 Z" />
	</g>
</g>
</svg>