<?xml version="1.0" encoding="utf-8"?>
<!-- Created by sK1 2.0rc4 (https://sk1project.net/) -->
<svg xmlns="http://www.w3.org/2000/svg" height="832.677165354pt" viewBox="0 0 832.677165354 832.677165354" width="832.677165354pt" version="1.1" xmlns:xlink="http://www.w3.org/1999/xlink" id="cec9d9b0-b2c5-11ea-be2e-a0f3c11e789f">

<g>
	<g>
		<path style="fill-rule:evenodd;fill:#2d2c2b;" d="M 573.9539,97.6613 C 578.6495,91.1715 577.3788,81.9661 571.1159,77.1005 564.8529,72.2349 555.9694,73.5515 551.2738,80.0413 L 427.2336,251.481 C 422.5381,257.9708 423.8087,267.1761 430.0717,272.0418 436.3346,276.9074 445.2182,275.5907 449.9137,269.1009 L 573.9539,97.6613 Z" />
		<path style="fill-rule:evenodd;fill:#2d2c2b;" d="M 432.197,15.5186 C 432.197,7.4074 425.8515,0.8319 418.0238,0.8319 410.1961,0.8319 403.8506,7.4074 403.8506,15.5186 L 403.8506,229.7904 C 403.8506,237.9016 410.1961,244.4771 418.0238,244.4771 425.8515,244.4771 432.197,237.9016 432.197,229.7904 L 432.197,15.5186 Z" />
		<path style="fill-rule:evenodd;fill:#2d2c2b;" d="M 287.8054,81.6313 C 283.009,75.2211 274.106,74.0538 267.92,79.0239 261.7339,83.994 260.6073,93.2195 265.4037,99.6296 L 391.0201,267.5109 C 395.8164,273.921 404.7194,275.0884 410.9055,270.1183 417.0915,265.1482 418.2181,255.9227 413.4217,249.5125 L 287.8054,81.6313 Z" />
		<path style="fill:#2d2c2b;" d="M 817.9216,824.8538 C 657.9502,564.1173 484.6478,277.4797 417.9931,134.161 158.0396,652.1806 3.6001,829.3561 16.3983,828.3073 L 817.9216,824.8538 Z M 587.1527,790.2783 L 245.5472,792.005 C 298.0146,716.0288 394.6639,557.1694 417.9931,519.1813 508.787,667.6803 512.9761,676.314 587.1527,790.2783 Z" />
		<path style="fill-rule:evenodd;fill:#2d2c2b;" d="M 3.6457,831.8487 L 3.6457,787.5792 829.0337,787.5792 829.0337,831.8487 3.6457,831.8487 Z" />
	</g>
</g>
</svg>