<?xml version="1.0" encoding="utf-8"?>
<!-- Created by sK1 2.0rc4 (https://sk1project.net/) -->
<svg xmlns="http://www.w3.org/2000/svg" height="832.677165354pt" viewBox="0 0 832.677165354 832.677165354" width="832.677165354pt" version="1.1" xmlns:xlink="http://www.w3.org/1999/xlink" id="130e65fa-b2c6-11ea-be2e-a0f3c11e789f">

<g>
	<path style="fill:#2d2c2b;" d="M 823.5295,623.9444 C 660.6252,452.0308 493.7188,199.2396 433.5663,117.2134 299.5903,707.8016 289.1998,717.0421 302.3245,716.0042 L 823.5295,623.9444 Z M 717.0774,606.7857 L 400.935,668.3053 C 463.0801,599.0458 486.3197,365.8852 493.1552,327.6063 631.6335,511.0886 643.6548,524.0067 717.0774,606.7857 Z M 406.822,116.6223 L 9.1425,546.5108 C 48.0635,539.8534 85.4407,542.3822 112.7827,586.1295 120.3529,590.7344 165.1099,570.8994 212.9585,488.8732 211.9851,498.8017 139.7356,619.7198 154.7974,638.2984 233.4058,640.0073 261.3411,703.4885 262.9519,703.4885 L 406.822,116.6223 Z" />
</g>
</svg>