<?xml version="1.0" encoding="utf-8"?>
<!-- Created by sK1 2.0rc4 (https://sk1project.net/) -->
<svg xmlns="http://www.w3.org/2000/svg" height="832.677165354pt" viewBox="0 0 832.677165354 832.677165354" width="832.677165354pt" version="1.1" xmlns:xlink="http://www.w3.org/1999/xlink" id="ac09fd26-b412-11ea-be2e-a0f3c11e789f">

<g>
	<path style="fill:none;" d="M -11.9649,-87.2456 L -11.9649,745.4316 820.7122,745.4316 820.7122,-87.2456 -11.9649,-87.2456 Z" />
	<path style="fill:none;" d="M -12.3334,-87.6141 L -12.3334,745.8001 821.0808,745.8001 821.0808,-87.6141 -12.3334,-87.6141 Z" />
	<g>
		<path style="fill-rule:evenodd;fill:#2d2c2b;" d="M 182.212,535.3692 C 169.6435,531.8223 157.0667,527.9444 144.1344,523.6323 143.4069,523.3898 142.6794,523.1472 141.9519,522.9046 141.185,522.9046 140.4181,522.9046 139.6512,522.9046 92.6853,522.9046 54.6118,560.978 54.6118,607.944 54.6118,654.9099 92.6853,692.9833 139.6512,692.9833 L 693.0263,692.9833 C 739.9923,692.9833 778.0657,654.9099 778.0657,607.944 778.0657,560.978 739.9923,522.9046 693.0263,522.9046 692.3855,522.9046 691.7447,522.9046 691.1039,522.9046 690.4862,523.0753 689.8686,523.246 689.2509,523.4167 676.2173,527.0186 663.2727,530.4061 650.4096,533.5733 L 650.4097,562.7479 C 665.1265,559.2037 679.9323,555.3781 694.8368,551.2806 725.3097,552.2356 749.7192,577.2392 749.7192,607.944 749.7192,639.2546 724.3369,664.6369 693.0263,664.6369 L 139.6512,664.6369 C 108.3406,664.6369 82.9583,639.2546 82.9583,607.944 82.9583,577.359 107.1777,552.4307 137.4841,551.2917 152.1877,556.1475 167.2576,560.6784 182.212,564.7552 L 182.212,535.3692 182.212,535.3692 Z" />
		<g>
			<path style="fill:#2d2c2b;" d="M 430.1309,173.9512 C 308.8695,173.9512 210.2917,272.5289 210.2917,393.7903 210.2917,412.1508 212.5566,429.9882 216.8156,447.0434 L 239.7628,432.3732 C 237.2574,419.9059 235.9367,407.0055 235.9367,393.7903 235.9367,286.3883 322.7289,199.5942 430.1309,199.5942 537.5329,199.5942 624.3269,286.3883 624.3269,393.7903 624.3269,406.976 623.0105,419.8484 620.516,432.2899 L 644.4892,442.655 C 648.071,426.936 649.9719,410.5824 649.9719,393.7903 649.9719,272.5289 551.3922,173.9512 430.1309,173.9512 Z" />
			<path style="fill:#2d2c2b;" d="M 229.9669,425.5798 C 229.8966,425.5782 229.8138,425.5772 229.7308,425.5772 228.6074,425.5772 227.5179,425.7508 226.4804,426.0768 191.6812,436.0815 169.8578,456.0856 160.6185,480.5766 151.3792,505.0675 155.572,531.8753 167.1667,551.796 178.7614,571.7167 198.0327,585.9519 220.2333,586.3791 236.4512,586.6915 253.5337,578.9752 269.0999,562.6957 275.5551,584.6004 284.8138,601.1809 296.6335,612.2425 313.0036,627.5627 333.2988,631.3197 352.3959,627.3837 383.6224,620.9479 412.9359,596.1168 433.3721,565.4755 450.3676,596.5147 477.5524,615.7138 505.6788,618.8246 535.7349,622.1488 567.0553,605.5753 584.7678,568.6947 600.5505,580.7173 616.6521,584.6271 630.9315,580.5829 649.2999,575.3806 662.904,558.9131 670.6392,539.6205 678.3743,520.3279 680.789,497.4889 675.5202,476.1407 670.2514,454.7925 656.2488,435.3097 634.3226,426.7036 633.0964,426.188 631.683,425.89 630.2112,425.89 623.1903,425.89 617.4966,432.6711 617.4966,441.0328 617.4966,447.7575 621.1793,453.4599 626.2732,455.4349 641.0528,461.2311 647.9086,471.6614 651.1223,484.6829 654.3361,497.7044 652.8551,513.6887 647.6886,526.5748 642.5221,539.4608 634.2179,548.5236 625.0502,551.1201 615.8824,553.7166 604.1314,551.3173 588.535,534.2467 586.2781,531.771 583.253,530.2526 579.9307,530.2526 574.4767,530.2526 569.8236,534.3447 568.0184,540.0911 556.1517,578.7161 532.7418,591.4023 508.0271,588.6689 483.3123,585.9355 457.8858,565.5244 446.9509,531.5261 445.0686,525.7896 440.4634,521.7985 435.0771,521.7985 430.3903,521.7985 426.2948,524.8204 424.0899,529.3172 408.6297,561.3281 375.6581,591.8529 348.0612,597.5407 334.2628,600.3846 322.4992,597.9395 312.3406,588.4323 302.182,578.9253 292.8423,561.0139 287.8435,529.5067 286.691,522.4413 281.5358,517.1782 275.3504,517.1782 271.1585,517.1782 267.4396,519.5956 265.1234,523.3235 249.3742,548.912 233.836,556.359 220.6447,556.1052 207.4534,555.8512 195.3611,547.0743 188.067,534.5424 180.7729,522.0105 178.5511,506.9294 183.8103,492.9887 189.0695,479.0479 202.6523,464.0804 232.5351,455.4905 238.251,453.9128 242.4479,447.899 242.4479,440.72 242.4479,432.4561 236.8866,425.7361 229.9791,425.5801 Z" />
			<path style="fill:#2d2c2b;" d="M 397.9125,227.3792 C 397.8027,227.3758 397.6737,227.3739 397.5442,227.3739 396.4583,227.3739 395.404,227.5089 394.397,227.7631 360.9738,235.5302 326.3808,258.251 301.5091,290.5033 276.6374,322.7555 261.7319,365.3922 271.2279,411.3206 272.4137,417.2755 277.5993,421.703 283.817,421.703 290.898,421.703 296.6405,415.9605 296.6405,408.8794 296.6405,407.9064 296.5321,406.9587 296.3267,406.0476 288.5486,368.4344 300.5229,333.7778 321.8159,306.1662 343.1088,278.5547 373.9665,258.8389 400.2881,252.7233 406.0921,251.4171 410.3646,246.3052 410.3646,240.1974 410.3646,233.2469 404.832,227.5861 397.9315,227.3796 Z" />
		</g>
		<path style="fill-rule:evenodd;fill:#2d2c2b;" d="M 161.3589,777.5909 L 161.3589,777.5909 Z M 104.666,805.9374 C 104.6673,813.1954 107.4348,820.4477 112.9685,825.9814 118.5021,831.515 125.7544,834.2825 133.0124,834.2839 L 696.2627,834.2839 C 703.5207,834.2825 710.773,831.515 716.3067,825.9814 721.8403,820.4477 724.6078,813.1954 724.6091,805.9374 L 831.2603,675.9912 C 831.2589,668.7331 828.4915,661.4808 822.9578,655.9472 817.4242,650.4136 810.1719,647.6461 802.9138,647.6447 L 33.0272,647.6447 C 25.7692,647.6461 18.5169,650.4136 12.9832,655.9472 7.4496,661.4808 4.6821,668.7331 4.6807,675.9912 L 104.666,805.9374 Z" />
		<path style="fill:none;" d="M 139.6501,513.4546 C 100.5118,513.4546 68.7839,545.1824 68.7839,584.3207 68.7839,623.459 100.5118,655.1869 139.6501,655.1869 L 693.0252,655.1869 C 732.1635,655.1869 763.8913,623.459 763.8913,584.3207 763.8913,545.1824 732.1635,513.4546 693.0252,513.4546 L 139.6501,513.4546 Z" />
		<path style="fill-rule:evenodd;fill:#2d2c2b;" d="M 604.6646,3.2623 C 606.7719,3.429 608.5158,3.9767 610.3567,5.0246 612.4882,6.263 614.0383,7.811 615.2979,9.9544 616.5332,12.074 617.0903,14.1936 617.0903,16.6704 617.0903,19.1472 616.5332,21.2429 615.2979,23.3863 614.0383,25.5297 612.4882,27.0539 610.3567,28.2923 608.2009,29.5307 606.0694,30.1023 603.5988,30.1023 603.066,30.1023 602.63,30.0785 602.0971,30.007 602.0971,30.007 600.4743,29.7212 595.194,30.8644 589.9137,32.0075 582.0901,34.651 572.7648,41.105 558.4983,51.0123 540.4532,70.1361 524.1037,107.5025 526.2594,108.479 528.0518,109.3839 530.0864,110.5509 541.2768,116.9334 549.2941,124.864 555.737,135.8906 562.18,146.9171 565.1108,157.7293 565.135,170.4468 L 565.135,170.4468 C 565.135,183.188 562.18,194.0241 555.737,205.0745 549.2941,216.101 541.2768,224.0316 530.0864,230.4141 518.9203,236.7966 507.9721,239.7021 495.062,239.7021 482.1762,239.7021 471.2038,236.7966 460.0377,230.4141 448.8715,224.0316 440.8542,216.101 434.4112,205.0745 427.9441,194.0241 425.0133,183.188 425.0133,170.4468 L 425.0133,170.4468 C 425.0133,157.6817 427.9441,146.8457 434.4112,135.8191 440.8542,124.7687 448.8715,116.8382 460.0377,110.4556 471.2038,104.0731 482.1762,101.1676 495.062,101.1676 495.9098,101.1914 496.6122,101.2152 497.4357,101.2629 515.8684,57.3948 537.7162,32.6744 557.3114,19.0757 569.6644,10.5022 581.0001,6.4297 589.4777,4.5959 594.7822,3.4528 599.3843,3.2146 602.0971,3.2146 603.72,3.1908 604.6646,3.2623 604.6646,3.2623 Z" />
	</g>
</g>
</svg>