<?xml version="1.0" encoding="utf-8"?>
<!-- Created by sK1 2.0rc4 (https://sk1project.net/) -->
<svg xmlns="http://www.w3.org/2000/svg" height="832.677165354pt" viewBox="0 0 832.677165354 832.677165354" width="832.677165354pt" version="1.1" xmlns:xlink="http://www.w3.org/1999/xlink" id="590cec0c-b4e2-11ea-be2e-a0f3c11e789f">

<g>
	<path style="fill-rule:evenodd;fill:#2d2c2b;" d="M 439.7443,7.9912 C 278.3048,6.1933 133.5295,146.011 89.5891,346.5633 45.6487,547.1156 126.8873,739.4363 274.2892,805.3046 287.2599,810.1236 305.7341,798.9154 308.8522,787.419 346.1966,710.2839 356.6058,647.8291 360.0755,554.1469 328.8481,370.2523 412.9646,350.2033 413.3372,305.1239 401.7879,193.7292 432.9394,130.8423 470.1424,52.028 473.6185,31.708 459.2437,9.1451 439.7443,7.9912 Z M 391.5495,823.9389 C 552.99,825.7385 698.4002,690.1327 742.3408,489.5792 786.3727,288.6097 710.0251,85.2599 563.0396,33.5967 550.8886,27.1733 524.5143,33.7228 523.6828,45.948 481.5153,137.7817 436.4091,214.1153 463.5312,314.7803 478.0456,384.1311 491.9245,439.6465 415.5908,536.7984 398.2423,644.3594 401.712,710.2839 362.9293,779.2588 359.9198,799.9576 371.5981,822.307 391.5495,823.9389 Z" />
</g>
</svg>