<?xml version="1.0" encoding="utf-8"?>
<!-- Created by sK1 2.0rc4 (https://sk1project.net/) -->
<svg xmlns="http://www.w3.org/2000/svg" height="832.677165354pt" viewBox="0 0 832.677165354 832.677165354" width="832.677165354pt" version="1.1" xmlns:xlink="http://www.w3.org/1999/xlink" id="e042f238-b44d-11ea-be2e-a0f3c11e789f">

<g>
	<g>
		<path style="fill-rule:evenodd;fill:#2d2c2b;" d="M 539.4025,562.345 C 563.9178,562.345 583.7975,582.2262 583.7975,606.7414 583.7975,631.2567 563.9178,651.1379 539.4025,651.1379 514.8873,651.1379 495.006,631.2567 495.006,606.7414 495.006,582.2262 514.8873,562.345 539.4025,562.345 Z" />
		<path style="fill-rule:evenodd;fill:#2d2c2b;" d="M 280.2658,558.7209 C 304.781,558.7209 324.6623,578.6021 324.6623,603.1174 324.6623,627.6326 304.781,647.5124 280.2658,647.5124 255.7505,647.5124 235.8693,627.6326 235.8693,603.1174 235.8693,578.6021 255.7505,558.7209 280.2658,558.7209 Z" />
		<path style="fill-rule:evenodd;fill:#2d2c2b;" d="M 403.4914,413.7483 C 421.0022,413.7483 435.2038,427.95 435.2038,445.4607 435.2038,462.9715 421.0022,477.1716 403.4914,477.1716 385.9806,477.1716 371.7804,462.9715 371.7804,445.4607 371.7804,427.95 385.9806,413.7483 403.4914,413.7483 Z" />
		<path style="fill-rule:evenodd;fill:#2d2c2b;" d="M 182.4113,285.0881 C 209.9285,285.0881 232.2438,307.4035 232.2438,334.9206 232.2438,362.4379 209.9285,384.7532 182.4113,384.7532 154.8942,384.7532 132.5773,362.4379 132.5773,334.9206 132.5773,307.4035 154.8942,285.0881 182.4113,285.0881 Z" />
		<path style="fill-rule:evenodd;fill:#2d2c2b;" d="M 354.5641,225.2873 C 372.0748,225.2873 386.2751,239.4876 386.2751,256.9983 386.2751,274.5091 372.0748,288.7092 354.5641,288.7092 337.0533,288.7092 322.8532,274.5091 322.8532,256.9983 322.8532,239.4876 337.0533,225.2873 354.5641,225.2873 Z" />
		<path style="fill-rule:evenodd;fill:#2d2c2b;" d="M 803.0667,78.9437 C 803.0667,59.4317 787.2432,43.6081 767.7312,43.6081 748.2192,43.6081 732.3956,59.4317 732.3956,78.9437 732.3956,98.4557 748.2192,114.2792 767.7312,114.2792 787.2432,114.2792 803.0667,98.4557 803.0667,78.9437 Z" />
		<path style="fill-rule:evenodd;fill:#2d2c2b;" d="M 685.8347,245.6598 C 685.8347,232.1517 674.8801,221.197 661.372,221.197 647.8639,221.197 636.9092,232.1517 636.9092,245.6598 636.9092,259.1679 647.8639,270.1225 661.372,270.1225 674.8801,270.1225 685.8347,259.1679 685.8347,245.6598 Z" />
		<path style="fill-rule:evenodd;fill:#2d2c2b;" d="M 815.7521,374.3214 C 815.7521,359.8127 803.986,348.0465 789.4772,348.0465 774.9685,348.0465 763.2023,359.8127 763.2023,374.3214 763.2023,388.8302 774.9685,400.5963 789.4772,400.5963 803.986,400.5963 815.7521,388.8302 815.7521,374.3214 Z" />
		<path style="fill-rule:evenodd;fill:#2d2c2b;" d="M 414.9913,2.8181 C 186.6468,2.8181 1.4716,187.9933 1.4716,416.3377 1.4716,644.6822 186.6468,829.8574 414.9913,829.8574 617.3173,829.8574 785.698,684.5051 821.4927,492.5594 824.7305,475.1971 827.9683,457.8349 831.206,440.4726 815.373,448.2986 799.54,456.1246 783.7069,463.9505 773.1556,469.1658 761.2647,472.1087 748.6136,472.1087 714.6792,472.1087 685.6424,450.7828 674.3116,420.7087 672.4052,415.6487 670.4988,410.5887 668.5924,405.5287 663.2189,404.9259 657.8454,404.323 652.4719,403.7202 601.8919,398.0459 562.5428,355.0744 562.5428,302.9743 562.5428,285.583 566.9037,269.2842 574.5707,255.0346 577.9383,248.7757 581.3059,242.5167 584.6736,236.2578 579.2795,231.6296 573.8855,227.0014 568.4915,222.3732 548.2172,204.9776 535.4417,179.2569 535.4417,150.5352 535.4417,120.4318 549.4811,93.6118 571.4789,76.2379 583.597,66.667 595.7151,57.0961 607.8332,47.5252 593.4394,41.9333 579.0457,36.3414 564.6519,30.7494 518.2056,12.7052 467.7197,2.8181 414.9913,2.8181 Z M 414.9913,55.8076 C 447.0942,55.8076 478.1898,59.9997 507.7753,67.8581 491.8029,91.4372 482.4521,119.8986 482.4521,150.5352 482.4521,188.0507 496.4776,222.314 519.5127,248.3364 513.0742,265.342 509.5532,283.7682 509.5532,302.9743 509.5532,376.9997 561.6596,438.8408 631.1994,453.8654 653.2653,496.1635 697.5367,525.0983 748.6136,525.0983 752.091,525.0983 755.5391,524.9636 758.9526,524.699 712.943,670.8494 576.2969,776.8678 414.9913,776.8678 215.9121,776.8678 54.4612,615.4169 54.4612,416.3377 54.4612,217.2586 215.9121,55.8076 414.9913,55.8076 Z" />
	</g>
</g>
</svg>