<?xml version="1.0" encoding="utf-8"?>
<!-- Created by sK1 2.0rc4 (https://sk1project.net/) -->
<svg xmlns="http://www.w3.org/2000/svg" height="832.677165354pt" viewBox="0 0 832.677165354 832.677165354" width="832.677165354pt" version="1.1" xmlns:xlink="http://www.w3.org/1999/xlink" id="851a6684-b44d-11ea-be2e-a0f3c11e789f">

<g>
	<g>
		<path style="fill-rule:evenodd;fill:#2d2c2b;" d="M 419.8522,2.2664 C 191.2045,2.2664 5.779,187.6919 5.779,416.3396 5.779,644.9873 191.2045,830.4128 419.8522,830.4128 622.4165,830.4128 791.0571,684.8801 826.8971,492.6916 811.7903,500.1586 794.7794,504.3547 776.7907,504.3547 728.2985,504.3547 686.9148,473.8625 670.7697,431.01 602.4752,423.3484 549.3693,365.3905 549.3693,295.0535 549.3693,271.6423 555.2534,249.6024 565.6217,230.3323 537.9242,206.5674 520.3742,171.3091 520.3742,131.9607 520.3742,90.7106 539.6609,53.9564 569.7072,30.2258 523.2348,12.1714 472.6979,2.2664 419.8522,2.2664 Z M 354.5641,225.2873 C 372.0748,225.2873 386.2751,239.4876 386.2751,256.9983 386.2751,274.5091 372.0748,288.7092 354.5641,288.7092 337.0533,288.7092 322.8532,274.5091 322.8532,256.9983 322.8532,239.4876 337.0533,225.2873 354.5641,225.2873 Z M 182.4113,285.0881 C 209.9285,285.0881 232.2438,307.4035 232.2438,334.9206 232.2438,362.4379 209.9285,384.7532 182.4113,384.7532 154.8942,384.7532 132.5773,362.4379 132.5773,334.9206 132.5773,307.4035 154.8942,285.0881 182.4113,285.0881 Z M 403.4914,413.7483 C 421.0022,413.7483 435.2038,427.95 435.2038,445.4607 435.2038,462.9715 421.0022,477.1716 403.4914,477.1716 385.9806,477.1716 371.7804,462.9715 371.7804,445.4607 371.7804,427.95 385.9806,413.7483 403.4914,413.7483 Z M 280.2658,558.7209 C 304.781,558.7209 324.6623,578.6021 324.6623,603.1174 324.6623,627.6326 304.781,647.5124 280.2658,647.5124 255.7505,647.5124 235.8693,627.6326 235.8693,603.1174 235.8693,578.6021 255.7505,558.7209 280.2658,558.7209 Z M 539.4025,562.345 C 563.9178,562.345 583.7975,582.2262 583.7975,606.7414 583.7975,631.2567 563.9178,651.1379 539.4025,651.1379 514.8873,651.1379 495.006,631.2567 495.006,606.7414 495.006,582.2262 514.8873,562.345 539.4025,562.345 Z" />
		<path style="fill-rule:evenodd;fill:#2d2c2b;" d="M 803.0667,78.9437 C 803.0667,59.4317 787.2432,43.6081 767.7312,43.6081 748.2192,43.6081 732.3956,59.4317 732.3956,78.9437 732.3956,98.4557 748.2192,114.2792 767.7312,114.2792 787.2432,114.2792 803.0667,98.4557 803.0667,78.9437 Z" />
		<path style="fill-rule:evenodd;fill:#2d2c2b;" d="M 685.8347,245.6598 C 685.8347,232.1517 674.8801,221.197 661.372,221.197 647.8639,221.197 636.9092,232.1517 636.9092,245.6598 636.9092,259.1679 647.8639,270.1225 661.372,270.1225 674.8801,270.1225 685.8347,259.1679 685.8347,245.6598 Z" />
		<path style="fill-rule:evenodd;fill:#2d2c2b;" d="M 815.7521,374.3214 C 815.7521,359.8127 803.986,348.0465 789.4772,348.0465 774.9685,348.0465 763.2023,359.8127 763.2023,374.3214 763.2023,388.8302 774.9685,400.5963 789.4772,400.5963 803.986,400.5963 815.7521,388.8302 815.7521,374.3214 Z" />
	</g>
</g>
</svg>