<?xml version="1.0" encoding="utf-8"?>
<!-- Created by sK1 2.0rc4 (https://sk1project.net/) -->
<svg xmlns="http://www.w3.org/2000/svg" height="832.677165354pt" viewBox="0 0 832.677165354 832.677165354" width="832.677165354pt" version="1.1" xmlns:xlink="http://www.w3.org/1999/xlink" id="288d4186-b405-11ea-be2e-a0f3c11e789f">

<g>
	<path style="fill-rule:evenodd;fill:#2d2c2b;" d="M 9.6783,783.2495 C -1.5828,794.125 -1.8954,812.0703 8.98,823.3314 19.8555,834.5925 37.8008,834.9052 49.0619,824.0297 L 370.5011,513.7488 C 381.7622,502.8733 382.0748,484.928 371.1993,473.6669 360.3239,462.4058 342.3786,462.0932 331.1175,472.9686 L 9.6783,783.2495 Z" />
	<g>
		<path style="fill-rule:evenodd;fill:#2d2c2b;" d="M 320.3694,575.6306 C 320.127,591.284 332.6202,604.1701 348.2737,604.4124 363.9271,604.6547 376.8132,592.1615 377.0555,576.5081 L 378.2379,500.1314 C 378.4802,484.478 365.987,471.5919 350.3336,471.3496 334.6802,471.1073 321.7941,483.6004 321.5518,499.2539 L 320.3694,575.6306 Z" />
		<path style="fill-rule:evenodd;fill:#2d2c2b;" d="M 272.8863,467.8284 C 257.3175,466.1854 243.3645,477.4745 241.7214,493.0433 240.0784,508.6122 251.3675,522.5652 266.9363,524.2082 L 342.9003,532.2251 C 358.4691,533.8681 372.4221,522.579 374.0652,507.0102 375.7083,491.4413 364.4192,477.4883 348.8503,475.8453 L 272.8863,467.8284 Z" />
	</g>
	<g>
		<path style="fill-rule:evenodd;fill:#2d2c2b;" d="M 540.9156,309.4252 C 490.236,171.2166 548.603,77.09 629.7347,36.8606 L 534.3977,37.7638 437.6856,41.5405 C 406.8382,169.6393 486.6305,284.1521 540.9156,309.4252 Z" />
		<path style="fill-rule:evenodd;fill:#2d2c2b;" d="M 545.9917,300.3278 C 545.9917,292.6092 539.7322,286.3497 532.0136,286.3497 524.295,286.3497 518.0355,292.6092 518.0355,300.3278 518.0355,308.0464 524.295,314.3059 532.0136,314.3059 539.7322,314.3059 545.9917,308.0464 545.9917,300.3278 Z" />
		<path style="fill-rule:evenodd;fill:#2d2c2b;" d="M 527.2559,311.308 C 645.2818,223.3309 752.1416,252.4424 813.8307,318.7388 L 785.7864,227.6154 754.5957,135.9932 C 623.0186,142.9442 536.0047,252.0707 527.2559,311.308 Z" />
		<path style="fill-rule:evenodd;fill:#2d2c2b;" d="M 523.1364,300.3846 C 642.0154,387.2054 645.7225,497.8976 600.5743,576.3986 L 679.3697,522.7213 757.7135,465.8906 C 712.2573,342.2193 582.3184,291.2694 523.1364,300.3846 Z" />
		<path style="fill-rule:evenodd;fill:#2d2c2b;" d="M 530.1033,296.686 C 481.6737,435.6991 376.861,471.4874 288.6134,451.1623 L 362.9143,510.9062 440.1004,569.2995 C 545.1689,489.7919 556.0616,350.6468 530.1033,296.686 Z" />
		<path style="fill-rule:evenodd;fill:#2d2c2b;" d="M 536.7481,298.8252 C 389.5682,301.6805 319.6113,215.817 308.0282,126.0028 L 277.8025,216.4261 249.845,309.086 C 360.8897,380.0081 495.1588,341.9058 536.7481,298.8252 Z" />
		<path style="fill-rule:evenodd;fill:#2d2c2b;" d="M 831.6528,300.3288 C 831.6528,134.869 697.4736,0.6898 532.0138,0.6898 366.5539,0.6898 232.3747,134.869 232.3747,300.3288 232.3747,465.7887 366.5539,599.9678 532.0138,599.9678 697.4736,599.9678 831.6528,465.7887 831.6528,300.3288 Z M 793.3023,300.3288 C 793.3023,444.6083 676.2932,561.6174 532.0138,561.6174 387.7343,561.6174 270.7252,444.6083 270.7252,300.3288 270.7252,156.0493 387.7343,39.0403 532.0138,39.0403 676.2932,39.0403 793.3023,156.0493 793.3023,300.3288 Z" />
	</g>
</g>
</svg>