<?xml version="1.0" encoding="UTF-8"?>
<!DOCTYPE svg PUBLIC "-//W3C//DTD SVG 1.1//EN" "http://www.w3.org/Graphics/SVG/1.1/DTD/svg11.dtd">
<svg version="1.2" width="293.75mm" height="293.75mm" viewBox="0 0 29375 29375" preserveAspectRatio="xMidYMid" fill-rule="evenodd" stroke-width="28.222" stroke-linejoin="round" xmlns="http://www.w3.org/2000/svg" xmlns:ooo="http://xml.openoffice.org/svg/export" xmlns:xlink="http://www.w3.org/1999/xlink" xmlns:presentation="http://sun.com/xmlns/staroffice/presentation" xmlns:smil="http://www.w3.org/2001/SMIL20/" xmlns:anim="urn:oasis:names:tc:opendocument:xmlns:animation:1.0" xml:space="preserve">
 <defs class="ClipPathGroup">
  <clipPath id="presentation_clip_path" clipPathUnits="userSpaceOnUse">
   <rect x="0" y="0" width="29375" height="29375"/>
  </clipPath>
  <clipPath id="presentation_clip_path_shrink" clipPathUnits="userSpaceOnUse">
   <rect x="29" y="29" width="29317" height="29317"/>
  </clipPath>
 </defs>
 <defs class="TextShapeIndex">
  <g ooo:slide="id1" ooo:id-list="id3"/>
 </defs>
 <defs class="EmbeddedBulletChars">
  <g id="bullet-char-template-57356" transform="scale(0.00048828125,-0.00048828125)">
   <path d="M 580,1141 L 1163,571 580,0 -4,571 580,1141 Z"/>
  </g>
  <g id="bullet-char-template-57354" transform="scale(0.00048828125,-0.00048828125)">
   <path d="M 8,1128 L 1137,1128 1137,0 8,0 8,1128 Z"/>
  </g>
  <g id="bullet-char-template-10146" transform="scale(0.00048828125,-0.00048828125)">
   <path d="M 174,0 L 602,739 174,1481 1456,739 174,0 Z M 1358,739 L 309,1346 659,739 1358,739 Z"/>
  </g>
  <g id="bullet-char-template-10132" transform="scale(0.00048828125,-0.00048828125)">
   <path d="M 2015,739 L 1276,0 717,0 1260,543 174,543 174,936 1260,936 717,1481 1274,1481 2015,739 Z"/>
  </g>
  <g id="bullet-char-template-10007" transform="scale(0.00048828125,-0.00048828125)">
   <path d="M 0,-2 C -7,14 -16,27 -25,37 L 356,567 C 262,823 215,952 215,954 215,979 228,992 255,992 264,992 276,990 289,987 310,991 331,999 354,1012 L 381,999 492,748 772,1049 836,1024 860,1049 C 881,1039 901,1025 922,1006 886,937 835,863 770,784 769,783 710,716 594,584 L 774,223 C 774,196 753,168 711,139 L 727,119 C 717,90 699,76 672,76 641,76 570,178 457,381 L 164,-76 C 142,-110 111,-127 72,-127 30,-127 9,-110 8,-76 1,-67 -2,-52 -2,-32 -2,-23 -1,-13 0,-2 Z"/>
  </g>
  <g id="bullet-char-template-10004" transform="scale(0.00048828125,-0.00048828125)">
   <path d="M 285,-33 C 182,-33 111,30 74,156 52,228 41,333 41,471 41,549 55,616 82,672 116,743 169,778 240,778 293,778 328,747 346,684 L 369,508 C 377,444 397,411 428,410 L 1163,1116 C 1174,1127 1196,1133 1229,1133 1271,1133 1292,1118 1292,1087 L 1292,965 C 1292,929 1282,901 1262,881 L 442,47 C 390,-6 338,-33 285,-33 Z"/>
  </g>
  <g id="bullet-char-template-9679" transform="scale(0.00048828125,-0.00048828125)">
   <path d="M 813,0 C 632,0 489,54 383,161 276,268 223,411 223,592 223,773 276,916 383,1023 489,1130 632,1184 813,1184 992,1184 1136,1130 1245,1023 1353,916 1407,772 1407,592 1407,412 1353,268 1245,161 1136,54 992,0 813,0 Z"/>
  </g>
  <g id="bullet-char-template-8226" transform="scale(0.00048828125,-0.00048828125)">
   <path d="M 346,457 C 273,457 209,483 155,535 101,586 74,649 74,723 74,796 101,859 155,911 209,963 273,989 346,989 419,989 480,963 531,910 582,859 608,796 608,723 608,648 583,586 532,535 482,483 420,457 346,457 Z"/>
  </g>
  <g id="bullet-char-template-8211" transform="scale(0.00048828125,-0.00048828125)">
   <path d="M -4,459 L 1135,459 1135,606 -4,606 -4,459 Z"/>
  </g>
  <g id="bullet-char-template-61548" transform="scale(0.00048828125,-0.00048828125)">
   <path d="M 173,740 C 173,903 231,1043 346,1159 462,1274 601,1332 765,1332 928,1332 1067,1274 1183,1159 1299,1043 1357,903 1357,740 1357,577 1299,437 1183,322 1067,206 928,148 765,148 601,148 462,206 346,322 231,437 173,577 173,740 Z"/>
  </g>
 </defs>
 <defs class="TextEmbeddedBitmaps"/>
 <g>
  <g id="id2" class="Master_Slide">
   <g id="bg-id2" class="Background"/>
   <g id="bo-id2" class="BackgroundObjects"/>
  </g>
 </g>
 <g class="SlideGroup">
  <g>
   <g id="container-id1">
    <g id="id1" class="Slide" clip-path="url(#presentation_clip_path)">
     <g class="Page">
      <g class="Graphic">
       <g id="id3">
        <rect class="BoundingBox" stroke="none" fill="none" x="-13" y="-13" width="29401" height="29401"/>
        <defs>
         <clipPath id="clip_path_1" clipPathUnits="userSpaceOnUse">
          <path d="M -13,-13 L 29387,-13 29387,29387 -13,29387 -13,-13 Z"/>
         </clipPath>
        </defs>
        <g clip-path="url(#clip_path_1)">
         <path fill="rgb(0,0,0)" stroke="none" d="M 17243,17416 C 17164,17423 17188,17713 17297,18060 17406,18408 17991,20357 18596,22392 L 19696,26092 20279,25968 C 21281,25755 23202,24404 24167,23234 25018,22202 26142,20006 25914,19821 25787,19717 17429,17399 17243,17416 L 17243,17416 Z M 21721,20402 C 22039,20363 22381,20434 22715,20662 23677,21316 23649,22632 22660,23235 22029,23619 21439,23559 20864,23053 19780,22101 20588,20543 21721,20402 L 21721,20402 Z M 27162,20229 C 27144,20232 27131,20236 27127,20243 27100,20285 26884,20791 26647,21369 25541,24065 23512,25956 20331,27255 20161,27325 20127,27516 20233,27795 20323,28033 20418,28405 20444,28624 20546,29498 20784,29531 22236,28868 25371,27436 27702,24992 28870,21912 29094,21321 29272,20791 29267,20733 29254,20615 27446,20193 27162,20229 L 27162,20229 Z"/>
         <path fill="rgb(0,0,0)" stroke="none" d="M 14992,13311 C 14955,13382 15213,13517 15565,13610 15917,13704 17877,14252 19920,14828 L 23635,15876 23842,15318 C 24198,14356 24083,12012 23610,10570 23193,9300 21938,7176 21660,7269 21504,7321 15077,13145 14992,13311 L 14992,13311 Z M 20660,10422 C 21727,9959 22825,10687 22805,11844 22793,12582 22426,13050 21692,13265 20307,13672 19423,12156 19910,11123 20046,10834 20290,10583 20660,10422 Z M 22672,6433 C 22664,6450 22662,6462 22665,6470 22686,6515 22999,6968 23360,7478 25047,9853 25560,12579 24958,15962 24926,16142 25069,16274 25361,16333 25611,16384 25977,16503 26175,16598 26969,16979 27123,16795 27339,15214 27805,11800 26986,8523 25007,5889 24628,5384 24275,4950 24223,4924 24117,4871 22793,6174 22672,6433 L 22672,6433 Z"/>
         <path fill="rgb(0,0,0)" stroke="none" d="M 14178,12522 C 14222,12589 14465,12428 14717,12165 14970,11902 16397,10452 17890,8943 L 20605,6198 20216,5747 C 19547,4971 17439,3937 15949,3654 14635,3404 12169,3475 12116,3764 12087,3925 14074,12367 14178,12522 L 14178,12522 Z M 14392,6163 C 14503,5006 15671,4397 16674,4975 17314,5343 17546,5889 17379,6637 17065,8045 15311,8086 14642,7160 14455,6901 14353,6566 14392,6163 Z M 11874,2473 C 11885,2488 11895,2496 11903,2497 11952,2501 12500,2446 13121,2376 16016,2049 18651,2919 21320,5083 21462,5198 21647,5136 21840,4909 22005,4715 22286,4453 22465,4325 23182,3815 23096,3591 21817,2637 19054,577 15790,-291 12527,166 11902,254 11351,353 11304,385 11206,453 11706,2242 11874,2473 L 11874,2473 Z"/>
         <path fill="rgb(0,0,0)" stroke="none" d="M 12988,12692 C 13068,12687 13052,12396 12952,12046 12853,11695 12325,9730 11777,7679 L 10782,3949 10197,4057 C 9188,4241 7230,5536 6232,6679 5353,7686 4167,9849 4389,10041 4513,10148 12801,12703 12988,12692 L 12988,12692 Z M 7610,9291 C 6667,8610 6733,7295 7739,6721 8380,6355 8969,6432 9529,6953 10585,7936 9733,9471 8597,9579 8278,9609 7938,9528 7610,9291 Z M 3153,9597 C 3172,9595 3184,9591 3188,9585 3216,9544 3447,9043 3700,8472 4882,5809 6965,3976 10181,2768 10352,2704 10392,2513 10294,2232 10211,1991 10126,1616 10107,1397 10029,520 9792,481 8322,1102 5148,2444 2749,4821 1494,7867 1253,8451 1060,8976 1064,9034 1072,9152 2869,9625 3153,9597 L 3153,9597 Z"/>
         <path fill="rgb(0,0,0)" stroke="none" d="M 12582,13817 C 12619,13746 12360,13612 12008,13518 11656,13425 9696,12878 7653,12302 L 3937,11256 3731,11815 C 3375,12776 3491,15121 3965,16562 4383,17832 5639,19956 5917,19862 6073,19810 12497,13983 12582,13817 L 12582,13817 Z M 6915,16709 C 5848,17173 4750,16445 4769,15288 4782,14550 5148,14082 5882,13866 7266,13459 8152,14974 7665,16007 7529,16297 7285,16548 6915,16709 Z M 4905,20699 C 4913,20682 4916,20670 4912,20662 4891,20617 4578,20164 4216,19655 2528,17280 2014,14554 2615,11171 2647,10991 2503,10859 2211,10800 1962,10750 1596,10631 1398,10536 603,10155 449,10339 234,11920 -231,15335 591,18612 2570,21244 2950,21749 3303,22183 3355,22209 3461,22262 4784,20958 4905,20699 L 4905,20699 Z"/>
         <path fill="rgb(0,0,0)" stroke="none" d="M 13342,14554 C 13298,14488 13055,14649 12803,14912 12551,15175 11124,16625 9632,18136 L 6919,20881 7308,21332 C 7977,22109 10085,23142 11576,23424 12890,23673 15356,23601 15409,23312 15438,23151 13446,14710 13342,14554 L 13342,14554 Z M 12880,19917 C 13068,20176 13170,20511 13132,20913 13021,22071 11854,22680 10850,22103 10210,21736 9978,21189 10144,20442 10457,19033 12212,18991 12880,19917 L 12880,19917 Z M 15651,24603 C 15640,24588 15631,24579 15623,24579 15573,24575 15025,24630 14404,24700 11509,25029 8875,24160 6204,21998 6062,21883 5877,21945 5684,22172 5520,22365 5239,22628 5060,22756 4342,23266 4429,23491 5708,24444 8472,26502 11737,27369 14999,26909 15625,26821 16175,26723 16223,26690 16321,26622 15819,24834 15651,24603 L 15651,24603 Z"/>
        </g>
       </g>
      </g>
     </g>
    </g>
   </g>
  </g>
 </g>
</svg>