<?xml version="1.0" encoding="UTF-8"?>
<!DOCTYPE svg PUBLIC "-//W3C//DTD SVG 1.1//EN" "http://www.w3.org/Graphics/SVG/1.1/DTD/svg11.dtd">
<svg version="1.2" width="293.75mm" height="293.75mm" viewBox="0 0 29375 29375" preserveAspectRatio="xMidYMid" fill-rule="evenodd" stroke-width="28.222" stroke-linejoin="round" xmlns="http://www.w3.org/2000/svg" xmlns:ooo="http://xml.openoffice.org/svg/export" xmlns:xlink="http://www.w3.org/1999/xlink" xmlns:presentation="http://sun.com/xmlns/staroffice/presentation" xmlns:smil="http://www.w3.org/2001/SMIL20/" xmlns:anim="urn:oasis:names:tc:opendocument:xmlns:animation:1.0" xml:space="preserve">
 <defs class="ClipPathGroup">
  <clipPath id="presentation_clip_path" clipPathUnits="userSpaceOnUse">
   <rect x="0" y="0" width="29375" height="29375"/>
  </clipPath>
  <clipPath id="presentation_clip_path_shrink" clipPathUnits="userSpaceOnUse">
   <rect x="29" y="29" width="29317" height="29317"/>
  </clipPath>
 </defs>
 <defs class="TextShapeIndex">
  <g ooo:slide="id1" ooo:id-list="id3"/>
 </defs>
 <defs class="EmbeddedBulletChars">
  <g id="bullet-char-template-57356" transform="scale(0.00048828125,-0.00048828125)">
   <path d="M 580,1141 L 1163,571 580,0 -4,571 580,1141 Z"/>
  </g>
  <g id="bullet-char-template-57354" transform="scale(0.00048828125,-0.00048828125)">
   <path d="M 8,1128 L 1137,1128 1137,0 8,0 8,1128 Z"/>
  </g>
  <g id="bullet-char-template-10146" transform="scale(0.00048828125,-0.00048828125)">
   <path d="M 174,0 L 602,739 174,1481 1456,739 174,0 Z M 1358,739 L 309,1346 659,739 1358,739 Z"/>
  </g>
  <g id="bullet-char-template-10132" transform="scale(0.00048828125,-0.00048828125)">
   <path d="M 2015,739 L 1276,0 717,0 1260,543 174,543 174,936 1260,936 717,1481 1274,1481 2015,739 Z"/>
  </g>
  <g id="bullet-char-template-10007" transform="scale(0.00048828125,-0.00048828125)">
   <path d="M 0,-2 C -7,14 -16,27 -25,37 L 356,567 C 262,823 215,952 215,954 215,979 228,992 255,992 264,992 276,990 289,987 310,991 331,999 354,1012 L 381,999 492,748 772,1049 836,1024 860,1049 C 881,1039 901,1025 922,1006 886,937 835,863 770,784 769,783 710,716 594,584 L 774,223 C 774,196 753,168 711,139 L 727,119 C 717,90 699,76 672,76 641,76 570,178 457,381 L 164,-76 C 142,-110 111,-127 72,-127 30,-127 9,-110 8,-76 1,-67 -2,-52 -2,-32 -2,-23 -1,-13 0,-2 Z"/>
  </g>
  <g id="bullet-char-template-10004" transform="scale(0.00048828125,-0.00048828125)">
   <path d="M 285,-33 C 182,-33 111,30 74,156 52,228 41,333 41,471 41,549 55,616 82,672 116,743 169,778 240,778 293,778 328,747 346,684 L 369,508 C 377,444 397,411 428,410 L 1163,1116 C 1174,1127 1196,1133 1229,1133 1271,1133 1292,1118 1292,1087 L 1292,965 C 1292,929 1282,901 1262,881 L 442,47 C 390,-6 338,-33 285,-33 Z"/>
  </g>
  <g id="bullet-char-template-9679" transform="scale(0.00048828125,-0.00048828125)">
   <path d="M 813,0 C 632,0 489,54 383,161 276,268 223,411 223,592 223,773 276,916 383,1023 489,1130 632,1184 813,1184 992,1184 1136,1130 1245,1023 1353,916 1407,772 1407,592 1407,412 1353,268 1245,161 1136,54 992,0 813,0 Z"/>
  </g>
  <g id="bullet-char-template-8226" transform="scale(0.00048828125,-0.00048828125)">
   <path d="M 346,457 C 273,457 209,483 155,535 101,586 74,649 74,723 74,796 101,859 155,911 209,963 273,989 346,989 419,989 480,963 531,910 582,859 608,796 608,723 608,648 583,586 532,535 482,483 420,457 346,457 Z"/>
  </g>
  <g id="bullet-char-template-8211" transform="scale(0.00048828125,-0.00048828125)">
   <path d="M -4,459 L 1135,459 1135,606 -4,606 -4,459 Z"/>
  </g>
  <g id="bullet-char-template-61548" transform="scale(0.00048828125,-0.00048828125)">
   <path d="M 173,740 C 173,903 231,1043 346,1159 462,1274 601,1332 765,1332 928,1332 1067,1274 1183,1159 1299,1043 1357,903 1357,740 1357,577 1299,437 1183,322 1067,206 928,148 765,148 601,148 462,206 346,322 231,437 173,577 173,740 Z"/>
  </g>
 </defs>
 <defs class="TextEmbeddedBitmaps"/>
 <g>
  <g id="id2" class="Master_Slide">
   <g id="bg-id2" class="Background"/>
   <g id="bo-id2" class="BackgroundObjects"/>
  </g>
 </g>
 <g class="SlideGroup">
  <g>
   <g id="container-id1">
    <g id="id1" class="Slide" clip-path="url(#presentation_clip_path)">
     <g class="Page">
      <g class="Graphic">
       <g id="id3">
        <rect class="BoundingBox" stroke="none" fill="none" x="-13" y="-13" width="29401" height="29401"/>
        <defs>
         <clipPath id="clip_path_1" clipPathUnits="userSpaceOnUse">
          <path d="M -13,-13 L 29387,-13 29387,29387 -13,29387 -13,-13 Z"/>
         </clipPath>
        </defs>
        <g clip-path="url(#clip_path_1)">
         <path fill="rgb(0,0,0)" stroke="none" d="M -4473,35510 C -4441,35502 -4396,35502 -4374,35511 -4351,35520 -4377,35527 -4432,35527 -4487,35526 -4505,35518 -4473,35510 L -4473,35510 Z"/>
         <path fill="rgb(0,0,0)" stroke="none" d="M -4109,35510 C -4076,35502 -4032,35502 -4009,35511 -3987,35520 -4013,35527 -4068,35527 -4123,35526 -4141,35518 -4109,35510 L -4109,35510 Z"/>
         <path fill="rgb(0,0,0)" stroke="none" d="M 14687,903 C 11318,903 8229,2116 5833,4128 L 6510,4860 C 8725,3016 11575,1907 14687,1907 15983,1907 17233,2100 18411,2457 L 19167,1650 C 17762,1166 16255,903 14687,903 L 14687,903 Z M 14687,5910 C 12630,5910 10737,6622 9239,7811 L 9889,8513 C 11108,7565 12618,6971 14264,6883 L 15163,5923 C 15005,5915 14847,5910 14687,5910 L 14687,5910 Z M 27693,10123 L 26916,10951 C 27276,12133 27470,13387 27470,14687 27470,18157 26090,21303 23847,23605 L 24523,24336 C 26962,21849 28468,18443 28468,14687 28468,13087 28194,11551 27693,10123 L 27693,10123 Z M 1574,10443 C 1141,11780 906,13206 906,14687 906,17974 2059,20993 3982,23362 L 4654,22611 C 2932,20434 1904,17681 1904,14687 1904,13642 2029,12627 2265,11656 2021,11255 1790,10850 1574,10443 L 1574,10443 Z M 23460,14640 L 22436,15733 C 22220,17348 21513,18806 20469,19952 L 21117,20653 C 22570,19086 23460,16990 23460,14687 23460,14671 23460,14656 23460,14640 L 23460,14640 Z M 6078,16381 C 6304,17536 6758,18610 7389,19554 L 8047,18819 C 7764,18365 7526,17878 7339,17367 6926,17096 6503,16764 6078,16381 L 6078,16381 Z M 12256,22118 L 11566,22890 C 12536,23260 13588,23464 14687,23464 14912,23464 15135,23455 15356,23438 L 14489,22500 C 13711,22481 12961,22348 12256,22118 L 12256,22118 Z M 8766,26018 L 8081,26784 C 10043,27859 12294,28471 14687,28471 16298,28471 17845,28193 19283,27684 L 18537,26878 C 17323,27260 16029,27467 14687,27467 12549,27467 10536,26943 8766,26018 L 8766,26018 Z"/>
         <path fill="rgb(0,0,0)" stroke="none" d="M 3302,28819 C 3062,28679 2688,28245 2607,28012 2513,27738 2543,27178 2668,26885 2750,26692 3963,25316 6900,22083 L 11017,17552 11337,17900 11658,18249 7540,22784 C 5275,25278 3422,27367 3422,27426 3422,27657 3536,27846 3716,27916 3819,27955 3918,27987 3937,27987 3956,27987 5798,25976 8032,23518 L 12094,19048 12425,19417 12757,19786 8713,24235 C 5597,27663 4609,28714 4408,28813 4071,28980 3582,28982 3302,28819 L 3302,28819 Z"/>
         <path fill="rgb(0,0,0)" stroke="none" d="M 1428,1624 C 1597,1626 1768,1658 1902,1719 2055,1789 5282,5299 13155,13960 22135,23839 24220,26164 24332,26423 24507,26826 24521,27448 24364,27829 24229,28155 23716,28667 23438,28752 23143,28842 22689,28829 22416,28722 22234,28651 20962,27372 16435,22299 L 11203,16436 C 10603,16877 9606,17217 8892,16857 4841,14167 1023,6849 429,2360 481,2134 750,1808 967,1708 1093,1650 1259,1622 1428,1624 L 1428,1624 Z M 1410,2578 C 1444,6142 6474,14261 9268,15965 10065,15945 10513,15546 11318,15232 L 16846,21341 C 20059,24891 22754,27810 22816,27846 22952,27924 23054,27888 23283,27681 23528,27460 23665,27212 23625,27062 23584,26908 1509,2578 1410,2578 L 1410,2578 Z"/>
         <path fill="rgb(0,0,0)" stroke="none" d="M 15600,15250 C 15600,15216 15940,14813 16357,14353 L 17114,13518 17676,13826 C 18699,14387 19603,14400 20586,13868 21073,13605 21122,13555 24559,9803 26472,7714 28060,5964 28087,5914 28139,5818 27929,5515 27811,5515 27777,5515 26763,6599 25557,7925 22192,11609 20703,9569 23854,6035 25055,4713 26038,3581 26038,3521 26038,3461 25970,3363 25888,3303 L 25739,3195 23554,5600 C 20734,9209 17995,8429 21826,3800 23692,1744 24015,1362 23982,1246 23929,1063 23747,960 23617,1039 23390,1177 16711,8629 16535,8940 16228,9483 16105,9943 16077,10654 16049,11382 16141,11883 16412,12474 L 16577,12835 15783,13709 14988,14582 14672,14230 14356,13877 14899,13277 15441,12677 15307,12145 C 15200,11722 15173,11460 15176,10878 15181,9988 15312,9386 15665,8625 15901,8118 16031,7966 19480,4156 22935,340 23062,208 23366,110 24400,-222 25215,883 24728,1957 24677,2070 23810,3074 22801,4188 19707,7717 20171,8100 23165,4566 24187,3445 25088,2491 25168,2446 25577,2216 26193,2270 26512,2565 26874,2901 27011,3584 26819,4096 26759,4256 26116,5010 24862,6392 22163,9265 21917,10533 25212,6845 26224,5734 27135,4780 27235,4725 27644,4501 28186,4542 28547,4825 28912,5111 29063,5939 28843,6449 28702,6775 21989,14073 21502,14430 20413,15227 18991,15436 17780,14977 L 17291,14791 16780,15356 C 16499,15667 16241,15921 16208,15921 16174,15921 16023,15784 15873,15616 15723,15448 15600,15283 15600,15250 Z"/>
        </g>
       </g>
      </g>
     </g>
    </g>
   </g>
  </g>
 </g>
</svg>