<?xml version="1.0" encoding="utf-8"?>
<!-- Created by sK1 2.0rc4 (https://sk1project.net/) -->
<svg xmlns="http://www.w3.org/2000/svg" height="832.677165354pt" viewBox="0 0 832.677165354 832.677165354" width="832.677165354pt" version="1.1" xmlns:xlink="http://www.w3.org/1999/xlink" id="2aa97a8c-b385-11ea-be2e-a0f3c11e789f">

<g>
	<path style="fill:#2d2c2b;" d="M 575.6299,205.81 C 516.685,206.1267 484.814,221.8594 447.4475,237.6937 426.0772,244.8038 412.1905,243.5683 392.3185,237.2628 377.5303,230.396 343.2072,216.1665 300.0636,209.4349 193.8843,192.8681 76.0405,294.1506 78.5022,450.6909 81.467,639.2113 201.8004,827.572 286.0302,829.8075 339.5604,831.2282 372.5457,802.6869 413.8508,798.2991 427.1761,797.4169 433.893,797.4199 446.0979,798.7586 480.7098,807.0638 530.9217,831.0262 576.7978,829.8075 635.8326,828.2393 712.6139,734.2261 754.2176,613.1634 687.4497,579.7828 642.9087,516.0833 642.8858,442.9039 642.9962,377.8684 678.2468,320.3584 732.2232,285.3398 695.1275,235.6221 641.2942,206.6883 587.7903,205.9565 583.6104,205.836 579.5596,205.7889 575.6299,205.81 Z" />
	<path style="fill:#2d2c2b;" d="M 535.0856,135.3477 C 505.937,167.4785 486.6415,181.4431 440.5311,192.0156 410.0414,199.4872 412.9007,190.4063 412.9007,190.4063 410.7113,138.9374 431.5464,97.7514 458.3746,67.4436 484.6937,37.7111 511.3437,23.6102 535.1703,13.1333 588.9106,-2.8046 583.5423,4.47 583.5423,4.47 576.6373,81.657 561.7951,105.9055 535.0856,135.3477 Z" />
</g>
</svg>