<?xml version="1.0" encoding="UTF-8"?>
<!DOCTYPE svg PUBLIC "-//W3C//DTD SVG 1.1//EN" "http://www.w3.org/Graphics/SVG/1.1/DTD/svg11.dtd">
<svg version="1.2" width="293.75mm" height="293.75mm" viewBox="0 0 29375 29375" preserveAspectRatio="xMidYMid" fill-rule="evenodd" stroke-width="28.222" stroke-linejoin="round" xmlns="http://www.w3.org/2000/svg" xmlns:ooo="http://xml.openoffice.org/svg/export" xmlns:xlink="http://www.w3.org/1999/xlink" xmlns:presentation="http://sun.com/xmlns/staroffice/presentation" xmlns:smil="http://www.w3.org/2001/SMIL20/" xmlns:anim="urn:oasis:names:tc:opendocument:xmlns:animation:1.0" xml:space="preserve">
 <defs class="ClipPathGroup">
  <clipPath id="presentation_clip_path" clipPathUnits="userSpaceOnUse">
   <rect x="0" y="0" width="29375" height="29375"/>
  </clipPath>
  <clipPath id="presentation_clip_path_shrink" clipPathUnits="userSpaceOnUse">
   <rect x="29" y="29" width="29317" height="29317"/>
  </clipPath>
 </defs>
 <defs class="TextShapeIndex">
  <g ooo:slide="id1" ooo:id-list="id3"/>
 </defs>
 <defs class="EmbeddedBulletChars">
  <g id="bullet-char-template-57356" transform="scale(0.00048828125,-0.00048828125)">
   <path d="M 580,1141 L 1163,571 580,0 -4,571 580,1141 Z"/>
  </g>
  <g id="bullet-char-template-57354" transform="scale(0.00048828125,-0.00048828125)">
   <path d="M 8,1128 L 1137,1128 1137,0 8,0 8,1128 Z"/>
  </g>
  <g id="bullet-char-template-10146" transform="scale(0.00048828125,-0.00048828125)">
   <path d="M 174,0 L 602,739 174,1481 1456,739 174,0 Z M 1358,739 L 309,1346 659,739 1358,739 Z"/>
  </g>
  <g id="bullet-char-template-10132" transform="scale(0.00048828125,-0.00048828125)">
   <path d="M 2015,739 L 1276,0 717,0 1260,543 174,543 174,936 1260,936 717,1481 1274,1481 2015,739 Z"/>
  </g>
  <g id="bullet-char-template-10007" transform="scale(0.00048828125,-0.00048828125)">
   <path d="M 0,-2 C -7,14 -16,27 -25,37 L 356,567 C 262,823 215,952 215,954 215,979 228,992 255,992 264,992 276,990 289,987 310,991 331,999 354,1012 L 381,999 492,748 772,1049 836,1024 860,1049 C 881,1039 901,1025 922,1006 886,937 835,863 770,784 769,783 710,716 594,584 L 774,223 C 774,196 753,168 711,139 L 727,119 C 717,90 699,76 672,76 641,76 570,178 457,381 L 164,-76 C 142,-110 111,-127 72,-127 30,-127 9,-110 8,-76 1,-67 -2,-52 -2,-32 -2,-23 -1,-13 0,-2 Z"/>
  </g>
  <g id="bullet-char-template-10004" transform="scale(0.00048828125,-0.00048828125)">
   <path d="M 285,-33 C 182,-33 111,30 74,156 52,228 41,333 41,471 41,549 55,616 82,672 116,743 169,778 240,778 293,778 328,747 346,684 L 369,508 C 377,444 397,411 428,410 L 1163,1116 C 1174,1127 1196,1133 1229,1133 1271,1133 1292,1118 1292,1087 L 1292,965 C 1292,929 1282,901 1262,881 L 442,47 C 390,-6 338,-33 285,-33 Z"/>
  </g>
  <g id="bullet-char-template-9679" transform="scale(0.00048828125,-0.00048828125)">
   <path d="M 813,0 C 632,0 489,54 383,161 276,268 223,411 223,592 223,773 276,916 383,1023 489,1130 632,1184 813,1184 992,1184 1136,1130 1245,1023 1353,916 1407,772 1407,592 1407,412 1353,268 1245,161 1136,54 992,0 813,0 Z"/>
  </g>
  <g id="bullet-char-template-8226" transform="scale(0.00048828125,-0.00048828125)">
   <path d="M 346,457 C 273,457 209,483 155,535 101,586 74,649 74,723 74,796 101,859 155,911 209,963 273,989 346,989 419,989 480,963 531,910 582,859 608,796 608,723 608,648 583,586 532,535 482,483 420,457 346,457 Z"/>
  </g>
  <g id="bullet-char-template-8211" transform="scale(0.00048828125,-0.00048828125)">
   <path d="M -4,459 L 1135,459 1135,606 -4,606 -4,459 Z"/>
  </g>
  <g id="bullet-char-template-61548" transform="scale(0.00048828125,-0.00048828125)">
   <path d="M 173,740 C 173,903 231,1043 346,1159 462,1274 601,1332 765,1332 928,1332 1067,1274 1183,1159 1299,1043 1357,903 1357,740 1357,577 1299,437 1183,322 1067,206 928,148 765,148 601,148 462,206 346,322 231,437 173,577 173,740 Z"/>
  </g>
 </defs>
 <defs class="TextEmbeddedBitmaps"/>
 <g>
  <g id="id2" class="Master_Slide">
   <g id="bg-id2" class="Background"/>
   <g id="bo-id2" class="BackgroundObjects"/>
  </g>
 </g>
 <g class="SlideGroup">
  <g>
   <g id="container-id1">
    <g id="id1" class="Slide" clip-path="url(#presentation_clip_path)">
     <g class="Page">
      <g class="Graphic">
       <g id="id3">
        <rect class="BoundingBox" stroke="none" fill="none" x="-13" y="-13" width="29401" height="29401"/>
        <path fill="rgb(0,0,0)" stroke="none" d="M 27810,28692 C 27685,28624 27528,28489 27462,28391 27347,28221 27341,27965 27311,21615 L 27279,15016 26805,14935 C 26545,14891 26218,14815 26079,14766 25762,14659 25813,14327 25836,13869 25861,11779 26455,6778 26996,4107 27366,2274 27678,1346 28033,1014 28179,878 28209,871 28292,954 28743,1405 29071,7500 29267,19083 29300,21082 29336,23925 29346,25402 29366,28385 29374,28326 28943,28632 28662,28832 28120,28861 27810,28692 L 27810,28692 Z"/>
        <path fill="rgb(0,0,0)" stroke="none" d="M 2938,28568 C 2786,28503 2588,28354 2499,28237 L 2336,28025 2302,19765 2269,11506 1847,11309 C 1005,10916 328,10093 99,9187 2,8802 -1,8594 67,7393 227,4604 450,2303 623,1662 837,867 971,1778 1227,4221 1302,4940 1372,5628 1381,5750 L 1399,5971 C 1848,7433 2410,6537 2756,6008 L 2793,5674 C 2814,5490 2879,4856 2939,4265 3070,2966 3158,1742 3298,1489 3391,1321 3409,1313 3484,1409 3664,1638 3785,3110 3934,4834 4045,6122 4824,7176 5108,6650 L 5458,6003 5492,5734 C 5511,5587 5575,4980 5633,4387 5818,2520 5862,1351 6039,1406 6232,1466 6409,2642 6595,5087 6873,8752 6863,9084 6454,9899 6211,10382 5449,11094 4922,11330 L 4533,11504 4533,19675 4533,27847 4378,28122 C 4271,28310 4129,28443 3928,28543 3573,28718 3308,28725 2938,28568 L 2938,28568 Z"/>
        <path fill="rgb(0,0,0)" stroke="none" d="M 14156,26502 C 11224,26077 8473,24493 6615,22158 L 6321,21789 6321,17029 6321,12269 6534,12137 C 6843,11946 7581,11141 7826,10728 8085,10291 8314,9642 8402,9099 8438,8873 8468,8006 8469,7172 L 8469,5655 9005,5276 C 10463,4243 12035,3585 13852,3246 14669,3094 16437,3063 17354,3184 20001,3533 22307,4687 24224,6621 L 24781,7183 24427,9831 C 23965,13284 24020,13012 23882,12510 23204,10034 21119,7833 18623,6957 16903,6354 15037,6322 13312,6867 12075,7258 11025,7887 10051,8823 7079,11674 6614,16150 8932,19588 9350,20207 10298,21181 10919,21628 11906,22339 12989,22810 14239,23072 15064,23245 16442,23260 17296,23104 21046,22421 23919,19250 24185,15500 L 24222,14982 24394,15220 C 24635,15552 25054,15897 25380,16031 L 25656,16145 25657,18749 25657,21353 25190,21971 C 24693,22630 23605,23727 22960,24220 21724,25164 20000,25975 18499,26319 17253,26604 15399,26682 14156,26502 L 14156,26502 Z"/>
        <path fill="rgb(0,0,0)" stroke="none" d="M 22697,14851 C 22697,16107 22412,17174 21784,18261 21156,19348 20375,20129 19288,20757 18200,21385 17133,21671 15878,21671 14622,21671 13555,21385 12468,20757 11381,20129 10600,19348 9972,18261 9344,17174 9058,16107 9058,14851 9058,13596 9344,12529 9972,11441 10600,10354 11381,9573 12468,8945 13555,8317 14622,8031 15878,8031 17133,8031 18200,8317 19288,8945 20375,9573 21156,10354 21784,11441 22412,12529 22697,13596 22697,14851 L 22697,14851 Z"/>
       </g>
      </g>
     </g>
    </g>
   </g>
  </g>
 </g>
</svg>