<?xml version="1.0" encoding="UTF-8"?>
<!DOCTYPE svg PUBLIC "-//W3C//DTD SVG 1.1//EN" "http://www.w3.org/Graphics/SVG/1.1/DTD/svg11.dtd">
<svg version="1.2" width="293.75mm" height="293.75mm" viewBox="0 0 29375 29375" preserveAspectRatio="xMidYMid" fill-rule="evenodd" stroke-width="28.222" stroke-linejoin="round" xmlns="http://www.w3.org/2000/svg" xmlns:ooo="http://xml.openoffice.org/svg/export" xmlns:xlink="http://www.w3.org/1999/xlink" xmlns:presentation="http://sun.com/xmlns/staroffice/presentation" xmlns:smil="http://www.w3.org/2001/SMIL20/" xmlns:anim="urn:oasis:names:tc:opendocument:xmlns:animation:1.0" xml:space="preserve">
 <defs class="ClipPathGroup">
  <clipPath id="presentation_clip_path" clipPathUnits="userSpaceOnUse">
   <rect x="0" y="0" width="29375" height="29375"/>
  </clipPath>
  <clipPath id="presentation_clip_path_shrink" clipPathUnits="userSpaceOnUse">
   <rect x="29" y="29" width="29317" height="29317"/>
  </clipPath>
 </defs>
 <defs class="TextShapeIndex">
  <g ooo:slide="id1" ooo:id-list="id3"/>
 </defs>
 <defs class="EmbeddedBulletChars">
  <g id="bullet-char-template-57356" transform="scale(0.00048828125,-0.00048828125)">
   <path d="M 580,1141 L 1163,571 580,0 -4,571 580,1141 Z"/>
  </g>
  <g id="bullet-char-template-57354" transform="scale(0.00048828125,-0.00048828125)">
   <path d="M 8,1128 L 1137,1128 1137,0 8,0 8,1128 Z"/>
  </g>
  <g id="bullet-char-template-10146" transform="scale(0.00048828125,-0.00048828125)">
   <path d="M 174,0 L 602,739 174,1481 1456,739 174,0 Z M 1358,739 L 309,1346 659,739 1358,739 Z"/>
  </g>
  <g id="bullet-char-template-10132" transform="scale(0.00048828125,-0.00048828125)">
   <path d="M 2015,739 L 1276,0 717,0 1260,543 174,543 174,936 1260,936 717,1481 1274,1481 2015,739 Z"/>
  </g>
  <g id="bullet-char-template-10007" transform="scale(0.00048828125,-0.00048828125)">
   <path d="M 0,-2 C -7,14 -16,27 -25,37 L 356,567 C 262,823 215,952 215,954 215,979 228,992 255,992 264,992 276,990 289,987 310,991 331,999 354,1012 L 381,999 492,748 772,1049 836,1024 860,1049 C 881,1039 901,1025 922,1006 886,937 835,863 770,784 769,783 710,716 594,584 L 774,223 C 774,196 753,168 711,139 L 727,119 C 717,90 699,76 672,76 641,76 570,178 457,381 L 164,-76 C 142,-110 111,-127 72,-127 30,-127 9,-110 8,-76 1,-67 -2,-52 -2,-32 -2,-23 -1,-13 0,-2 Z"/>
  </g>
  <g id="bullet-char-template-10004" transform="scale(0.00048828125,-0.00048828125)">
   <path d="M 285,-33 C 182,-33 111,30 74,156 52,228 41,333 41,471 41,549 55,616 82,672 116,743 169,778 240,778 293,778 328,747 346,684 L 369,508 C 377,444 397,411 428,410 L 1163,1116 C 1174,1127 1196,1133 1229,1133 1271,1133 1292,1118 1292,1087 L 1292,965 C 1292,929 1282,901 1262,881 L 442,47 C 390,-6 338,-33 285,-33 Z"/>
  </g>
  <g id="bullet-char-template-9679" transform="scale(0.00048828125,-0.00048828125)">
   <path d="M 813,0 C 632,0 489,54 383,161 276,268 223,411 223,592 223,773 276,916 383,1023 489,1130 632,1184 813,1184 992,1184 1136,1130 1245,1023 1353,916 1407,772 1407,592 1407,412 1353,268 1245,161 1136,54 992,0 813,0 Z"/>
  </g>
  <g id="bullet-char-template-8226" transform="scale(0.00048828125,-0.00048828125)">
   <path d="M 346,457 C 273,457 209,483 155,535 101,586 74,649 74,723 74,796 101,859 155,911 209,963 273,989 346,989 419,989 480,963 531,910 582,859 608,796 608,723 608,648 583,586 532,535 482,483 420,457 346,457 Z"/>
  </g>
  <g id="bullet-char-template-8211" transform="scale(0.00048828125,-0.00048828125)">
   <path d="M -4,459 L 1135,459 1135,606 -4,606 -4,459 Z"/>
  </g>
  <g id="bullet-char-template-61548" transform="scale(0.00048828125,-0.00048828125)">
   <path d="M 173,740 C 173,903 231,1043 346,1159 462,1274 601,1332 765,1332 928,1332 1067,1274 1183,1159 1299,1043 1357,903 1357,740 1357,577 1299,437 1183,322 1067,206 928,148 765,148 601,148 462,206 346,322 231,437 173,577 173,740 Z"/>
  </g>
 </defs>
 <defs class="TextEmbeddedBitmaps"/>
 <g>
  <g id="id2" class="Master_Slide">
   <g id="bg-id2" class="Background"/>
   <g id="bo-id2" class="BackgroundObjects"/>
  </g>
 </g>
 <g class="SlideGroup">
  <g>
   <g id="container-id1">
    <g id="id1" class="Slide" clip-path="url(#presentation_clip_path)">
     <g class="Page">
      <g class="Graphic">
       <g id="id3">
        <rect class="BoundingBox" stroke="none" fill="none" x="-13" y="-13" width="29401" height="29401"/>
        <path fill="rgb(0,0,0)" stroke="none" d="M 7889,3313 C 9699,3863 11713,4467 12765,4776 13173,4896 13508,5034 13508,5082 13508,5130 13420,5384 13312,5647 13205,5909 13079,6124 13034,6124 12988,6124 11754,5763 10291,5320 3855,3376 653,2397 615,2365 539,2301 858,1250 953,1250 1037,1250 3792,2070 7889,3313 Z M 554,2982 C 849,2973 1406,3149 2539,3500 3492,3795 5435,4383 6856,4807 10669,5944 12888,6634 12956,6703 12989,6737 12977,7006 12928,7301 12828,7904 12816,7909 11982,7646 11306,7433 9495,6887 4530,5400 -170,3992 40,4080 147,3574 228,3185 260,2991 554,2982 L 554,2982 Z M 15916,4585 C 16055,4588 16181,4614 16289,4664 16510,4766 16514,4822 16313,4994 16179,5109 15969,5202 15846,5202 15471,5202 14843,5770 14537,6385 14203,7057 14151,8229 14427,8876 14532,9122 14573,9374 14519,9436 14400,9573 14231,9577 13960,9448 12817,8908 13163,6136 14498,5132 14976,4773 15501,4577 15916,4585 L 15916,4585 Z M 17011,5103 C 17108,5100 17205,5107 17302,5127 17724,5212 18085,5627 18002,5933 17957,6098 17890,6098 17491,5932 16860,5669 16628,5776 16140,6557 15806,7093 15720,7426 15720,8190 15720,9103 15740,9153 16133,9232 16660,9337 16654,9463 16103,9808 L 16103,9808 C 15668,10081 15653,10081 15348,9838 14878,9463 14717,8686 14906,7705 15197,6192 16077,5134 17011,5103 L 17011,5103 Z M 17418,6166 C 17431,6168 17443,6170 17454,6175 17555,6214 18379,6467 19286,6737 20193,7007 20952,7239 20973,7253 20994,7266 20944,7547 20863,7876 L 20715,8475 20115,8285 C 19784,8181 18888,7910 18123,7682 16851,7304 16739,7245 16812,6993 16948,6528 17229,6151 17418,6166 L 17418,6166 Z M 18942,8453 C 21189,9125 21055,9016 20727,9912 20667,10075 20586,10208 20547,10208 20428,10208 17340,9280 16963,9131 16650,9007 16608,8921 16608,8414 16608,8093 16669,7837 16745,7837 16821,7837 17810,8114 18942,8453 Z M 16403,10308 C 16486,10311 16581,10325 16686,10352 17118,10461 17124,10498 17124,12772 L 17124,15082 16540,15082 15956,15082 15960,12810 C 15961,11560 16027,10471 16105,10389 16163,10330 16266,10302 16403,10308 L 16403,10308 Z M 14927,10646 C 15156,10621 15187,10953 15187,12829 L 15187,15082 14603,15082 14019,15082 14019,12909 C 14019,11120 14068,10735 14295,10735 14447,10735 14710,10699 14879,10655 14896,10650 14912,10647 14927,10646 L 14927,10646 Z M 29266,15477 L 29265,15906 C 29265,16635 28920,18532 28624,19429 27670,22329 25492,24967 22907,26353 L 22033,26821 22033,27473 22032,27473 22032,28124 17189,28124 12345,28124 12345,27414 C 12345,26786 12311,26695 12052,26629 11892,26587 11235,26201 10594,25770 8630,24450 6972,22409 6149,20297 5605,18900 5243,17304 5241,16301 L 5241,15477 17253,15477 29266,15477 Z M 8865,16815 L 7842,16815 6818,16815 6889,17674 C 6970,18653 7368,20121 7784,20976 L 8067,21557 9103,21557 C 9673,21557 10139,21530 10139,21498 10139,21465 10004,21184 9838,20872 9328,19911 8867,18223 8866,17309 L 8865,16815 Z"/>
       </g>
      </g>
     </g>
    </g>
   </g>
  </g>
 </g>
</svg>