<?xml version="1.0" encoding="utf-8"?>
<!-- Created by sK1 2.0rc4 (https://sk1project.net/) -->
<svg xmlns="http://www.w3.org/2000/svg" height="832.677165354pt" viewBox="0 0 832.677165354 832.677165354" width="832.677165354pt" version="1.1" xmlns:xlink="http://www.w3.org/1999/xlink" id="49157378-b438-11ea-be2e-a0f3c11e789f">

<g>
	<path style="fill-rule:evenodd;fill:#2d2c2b;" d="M 51.6162,450.0095 C 24.2194,450.0095 2.0099,472.219 2.0099,499.6158 2.0099,527.0126 24.2194,549.2221 51.6162,549.2221 L 781.0629,549.2221 C 808.4597,549.2221 830.6692,527.0126 830.6692,499.6158 830.6692,472.219 808.4597,450.0095 781.0629,450.0095 L 51.6162,450.0095 Z" />
	<path style="fill-rule:evenodd;fill:#2d2c2b;" d="M 69.579,832.6649 C 40.6089,820.079 25.7085,780.756 25.6802,740.3906 L 25.6802,707.2536 416.8897,707.2536 808.1274,707.2536 808.1274,739.115 C 808.1274,778.0063 794.3112,816.3373 767.5521,832.6649 131.6459,832.6649 95.6512,832.6649 72.2452,832.6649 L 69.579,832.6649 Z" />
	<path style="fill-rule:evenodd;fill:#2d2c2b;" d="M 655.2267,600.9827 C 667.8692,605.5182 686.0109,615.326 695.507,622.8095 716.3133,639.1654 743.6676,640.2142 768.4708,625.5591 785.8471,615.2977 787.3495,615.326 797.8377,625.9276 808.3826,636.6142 807.929,638.0032 788.2849,655.6914 770.9085,671.3103 762.3763,674.23 734.0015,674.23 707.0723,674.23 694.7983,670.4882 672.5747,655.4363 657.0408,644.8914 636.4897,636.6142 625.8881,636.6142 615.2865,636.6142 594.7353,644.8914 579.2015,655.4363 540.0834,681.9119 496.3448,681.9402 461.3652,655.493 428.455,630.5764 400.5621,630.5764 367.6235,655.493 332.6723,681.9402 288.9054,681.9119 249.8156,655.4363 234.2818,644.8914 213.7023,636.6142 203.129,636.6142 192.5274,636.6142 171.9479,644.8914 156.4141,655.4363 117.8345,681.5717 70.2408,682.1953 41.9227,656.8819 11.2235,629.4709 31.2645,602.4 63.9196,627.1182 82.4015,641.093 112.7889,638.3717 136.94,620.5418 181.2172,587.8867 224.9841,587.8583 269.1763,620.4567 298.0897,641.7733 321.3337,640.6394 355.2928,616.2331 377.7715,600.0756 389.5353,596.0788 414.5085,596.0788 439.4818,596.0788 451.2172,600.0756 473.696,616.2331 507.655,640.6111 530.9274,641.7733 559.7274,620.5418 592.2408,597.7512 622.77,589.4174 655.2267,600.9827 L 655.2267,600.9827 Z" />
	<path style="fill-rule:evenodd;fill:#2d2c2b;" d="M 125.0345,99.2221 L 46.4298,99.2221 46.4298,0.0095 203.6393,0.0095 203.6393,99.2221 125.0345,99.2221 Z" />
	<path style="fill-rule:evenodd;fill:#2d2c2b;" d="M 187.4534,215.0457 L 171.2676,215.0457 171.2676,51.6 203.6393,51.6 203.6393,215.0457 187.4534,215.0457 Z" />
	<path style="fill-rule:evenodd;fill:#2d2c2b;" d="M 808.4389,390.7464 C 808.4389,374.5459 808.4389,358.2916 808.4389,342.6638 763.6539,203.5031 537.8799,150.3597 420.0512,150.3597 301.7004,151.43 59.447,210.5514 25.3589,342.3614 25.3589,354.964 25.3589,378.2338 25.3589,390.7464 L 827.9011,390.8606 808.4389,390.7464 Z" />
</g>
</svg>