<?xml version="1.0" encoding="UTF-8"?>
<!DOCTYPE svg PUBLIC "-//W3C//DTD SVG 1.1//EN" "http://www.w3.org/Graphics/SVG/1.1/DTD/svg11.dtd">
<svg version="1.2" width="293.75mm" height="293.75mm" viewBox="0 0 29375 29375" preserveAspectRatio="xMidYMid" fill-rule="evenodd" stroke-width="28.222" stroke-linejoin="round" xmlns="http://www.w3.org/2000/svg" xmlns:ooo="http://xml.openoffice.org/svg/export" xmlns:xlink="http://www.w3.org/1999/xlink" xmlns:presentation="http://sun.com/xmlns/staroffice/presentation" xmlns:smil="http://www.w3.org/2001/SMIL20/" xmlns:anim="urn:oasis:names:tc:opendocument:xmlns:animation:1.0" xml:space="preserve">
 <defs class="ClipPathGroup">
  <clipPath id="presentation_clip_path" clipPathUnits="userSpaceOnUse">
   <rect x="0" y="0" width="29375" height="29375"/>
  </clipPath>
  <clipPath id="presentation_clip_path_shrink" clipPathUnits="userSpaceOnUse">
   <rect x="29" y="29" width="29317" height="29317"/>
  </clipPath>
 </defs>
 <defs class="TextShapeIndex">
  <g ooo:slide="id1" ooo:id-list="id3"/>
 </defs>
 <defs class="EmbeddedBulletChars">
  <g id="bullet-char-template-57356" transform="scale(0.00048828125,-0.00048828125)">
   <path d="M 580,1141 L 1163,571 580,0 -4,571 580,1141 Z"/>
  </g>
  <g id="bullet-char-template-57354" transform="scale(0.00048828125,-0.00048828125)">
   <path d="M 8,1128 L 1137,1128 1137,0 8,0 8,1128 Z"/>
  </g>
  <g id="bullet-char-template-10146" transform="scale(0.00048828125,-0.00048828125)">
   <path d="M 174,0 L 602,739 174,1481 1456,739 174,0 Z M 1358,739 L 309,1346 659,739 1358,739 Z"/>
  </g>
  <g id="bullet-char-template-10132" transform="scale(0.00048828125,-0.00048828125)">
   <path d="M 2015,739 L 1276,0 717,0 1260,543 174,543 174,936 1260,936 717,1481 1274,1481 2015,739 Z"/>
  </g>
  <g id="bullet-char-template-10007" transform="scale(0.00048828125,-0.00048828125)">
   <path d="M 0,-2 C -7,14 -16,27 -25,37 L 356,567 C 262,823 215,952 215,954 215,979 228,992 255,992 264,992 276,990 289,987 310,991 331,999 354,1012 L 381,999 492,748 772,1049 836,1024 860,1049 C 881,1039 901,1025 922,1006 886,937 835,863 770,784 769,783 710,716 594,584 L 774,223 C 774,196 753,168 711,139 L 727,119 C 717,90 699,76 672,76 641,76 570,178 457,381 L 164,-76 C 142,-110 111,-127 72,-127 30,-127 9,-110 8,-76 1,-67 -2,-52 -2,-32 -2,-23 -1,-13 0,-2 Z"/>
  </g>
  <g id="bullet-char-template-10004" transform="scale(0.00048828125,-0.00048828125)">
   <path d="M 285,-33 C 182,-33 111,30 74,156 52,228 41,333 41,471 41,549 55,616 82,672 116,743 169,778 240,778 293,778 328,747 346,684 L 369,508 C 377,444 397,411 428,410 L 1163,1116 C 1174,1127 1196,1133 1229,1133 1271,1133 1292,1118 1292,1087 L 1292,965 C 1292,929 1282,901 1262,881 L 442,47 C 390,-6 338,-33 285,-33 Z"/>
  </g>
  <g id="bullet-char-template-9679" transform="scale(0.00048828125,-0.00048828125)">
   <path d="M 813,0 C 632,0 489,54 383,161 276,268 223,411 223,592 223,773 276,916 383,1023 489,1130 632,1184 813,1184 992,1184 1136,1130 1245,1023 1353,916 1407,772 1407,592 1407,412 1353,268 1245,161 1136,54 992,0 813,0 Z"/>
  </g>
  <g id="bullet-char-template-8226" transform="scale(0.00048828125,-0.00048828125)">
   <path d="M 346,457 C 273,457 209,483 155,535 101,586 74,649 74,723 74,796 101,859 155,911 209,963 273,989 346,989 419,989 480,963 531,910 582,859 608,796 608,723 608,648 583,586 532,535 482,483 420,457 346,457 Z"/>
  </g>
  <g id="bullet-char-template-8211" transform="scale(0.00048828125,-0.00048828125)">
   <path d="M -4,459 L 1135,459 1135,606 -4,606 -4,459 Z"/>
  </g>
  <g id="bullet-char-template-61548" transform="scale(0.00048828125,-0.00048828125)">
   <path d="M 173,740 C 173,903 231,1043 346,1159 462,1274 601,1332 765,1332 928,1332 1067,1274 1183,1159 1299,1043 1357,903 1357,740 1357,577 1299,437 1183,322 1067,206 928,148 765,148 601,148 462,206 346,322 231,437 173,577 173,740 Z"/>
  </g>
 </defs>
 <defs class="TextEmbeddedBitmaps"/>
 <g>
  <g id="id2" class="Master_Slide">
   <g id="bg-id2" class="Background"/>
   <g id="bo-id2" class="BackgroundObjects"/>
  </g>
 </g>
 <g class="SlideGroup">
  <g>
   <g id="container-id1">
    <g id="id1" class="Slide" clip-path="url(#presentation_clip_path)">
     <g class="Page">
      <g class="Graphic">
       <g id="id3">
        <rect class="BoundingBox" stroke="none" fill="none" x="-13" y="-13" width="29401" height="29401"/>
        <path fill="rgb(0,0,0)" stroke="none" d="M 10152,2414 C 9108,2403 8462,2467 7628,2634 4256,3310 1446,5132 468,7278 -47,8407 -21,10243 524,11237 927,11971 929,11996 1012,17922 L 1094,23871 5376,25416 9657,26961 18875,26955 C 23945,26952 28140,26902 28198,26844 28257,26787 28304,24170 28304,21030 L 28304,15320 28742,14466 C 29689,12618 29360,10433 27889,8813 26459,7239 25757,6883 18730,4173 15228,2822 14115,2562 11349,2448 10891,2429 10500,2417 10152,2414 L 10152,2414 Z M 27190,12701 C 27197,13410 27089,13866 26759,14521 L 26319,15395 26319,20276 26319,25157 18793,25157 11267,25157 11266,20203 11266,15249 10853,14443 C 9696,12186 10881,9770 13838,8363 15364,7636 16890,7312 18793,7312 23469,7312 27161,9682 27190,12701 Z"/>
        <path fill="rgb(0,0,0)" stroke="none" d="M 15501,12270 C 15501,12430 15465,12566 15385,12704 15305,12843 15205,12942 15067,13022 14928,13102 14792,13138 14633,13138 14473,13138 14337,13102 14198,13022 14060,12942 13960,12843 13880,12704 13801,12566 13764,12430 13764,12270 13764,12110 13801,11974 13880,11836 13960,11697 14060,11598 14198,11518 14337,11438 14473,11402 14633,11402 14792,11402 14928,11438 15067,11518 15205,11598 15305,11697 15385,11836 15465,11974 15501,12110 15501,12270 L 15501,12270 Z"/>
        <path fill="rgb(0,0,0)" stroke="none" d="M 21446,10333 C 21446,10493 21410,10628 21330,10767 21250,10905 21150,11005 21012,11085 20873,11165 20738,11201 20578,11201 20418,11201 20282,11165 20143,11085 20005,11005 19906,10905 19826,10767 19746,10628 19709,10493 19709,10333 19709,10173 19746,10037 19826,9899 19906,9760 20005,9661 20143,9581 20282,9501 20418,9464 20578,9464 20738,9464 20873,9501 21012,9581 21150,9661 21250,9760 21330,9899 21410,10037 21446,10173 21446,10333 L 21446,10333 Z"/>
        <path fill="rgb(0,0,0)" stroke="none" d="M 18707,16812 C 18707,16972 18671,17108 18591,17246 18511,17385 18412,17484 18273,17564 18135,17644 17999,17681 17839,17681 17679,17681 17543,17644 17405,17564 17266,17484 17167,17385 17087,17246 17007,17108 16970,16972 16970,16812 16970,16652 17007,16517 17087,16378 17167,16240 17266,16140 17405,16060 17543,15980 17679,15944 17839,15944 17999,15944 18135,15980 18273,16060 18412,16140 18511,16240 18591,16378 18671,16517 18707,16652 18707,16812 L 18707,16812 Z"/>
        <path fill="rgb(0,0,0)" stroke="none" d="M 24452,13539 C 24452,13699 24416,13835 24336,13973 24256,14112 24156,14211 24018,14291 23879,14371 23743,14407 23584,14407 23424,14407 23288,14371 23149,14291 23011,14211 22911,14112 22832,13973 22752,13835 22715,13699 22715,13539 22715,13379 22752,13243 22832,13105 22911,12966 23011,12867 23149,12787 23288,12707 23424,12671 23584,12671 23743,12671 23879,12707 24018,12787 24156,12867 24256,12966 24336,13105 24416,13243 24452,13379 24452,13539 L 24452,13539 Z"/>
        <path fill="rgb(0,0,0)" stroke="none" d="M 19642,13606 C 19642,13766 19606,13902 19526,14040 19446,14179 19347,14278 19208,14358 19070,14438 18934,14474 18774,14474 18614,14474 18478,14438 18340,14358 18201,14278 18102,14179 18022,14040 17942,13902 17906,13766 17906,13606 17906,13446 17942,13310 18022,13172 18102,13033 18201,12934 18340,12854 18478,12774 18614,12738 18774,12738 18934,12738 19070,12774 19208,12854 19347,12934 19446,13033 19526,13172 19606,13310 19642,13446 19642,13606 L 19642,13606 Z"/>
        <path fill="rgb(0,0,0)" stroke="none" d="M 22982,18015 C 22982,18101 22963,18174 22920,18248 22877,18323 22823,18377 22749,18420 22674,18463 22601,18482 22515,18482 22429,18482 22356,18463 22281,18420 22206,18377 22153,18323 22110,18248 22067,18174 22047,18101 22047,18015 22047,17929 22067,17855 22110,17781 22153,17706 22206,17653 22281,17610 22356,17567 22429,17547 22515,17547 22601,17547 22674,17567 22749,17610 22823,17653 22877,17706 22920,17781 22963,17855 22982,17929 22982,18015 L 22982,18015 Z"/>
        <path fill="rgb(0,0,0)" stroke="none" d="M 18039,10600 C 18039,10686 18020,10759 17977,10834 17934,10908 17880,10962 17805,11005 17731,11048 17658,11068 17572,11068 17486,11068 17412,11048 17338,11005 17263,10962 17210,10908 17167,10834 17124,10759 17104,10686 17104,10600 17104,10514 17124,10441 17167,10366 17210,10292 17263,10238 17338,10195 17412,10152 17486,10132 17572,10132 17658,10132 17731,10152 17805,10195 17880,10238 17934,10292 17977,10366 18020,10441 18039,10514 18039,10600 L 18039,10600 Z"/>
        <path fill="rgb(0,0,0)" stroke="none" d="M 21914,15075 C 21914,15162 21894,15235 21851,15309 21808,15384 21754,15437 21680,15480 21605,15523 21532,15543 21446,15543 21360,15543 21287,15523 21212,15480 21138,15437 21084,15384 21041,15309 20998,15235 20978,15162 20978,15075 20978,14989 20998,14916 21041,14842 21084,14767 21138,14714 21212,14671 21287,14627 21360,14608 21446,14608 21532,14608 21605,14627 21680,14671 21754,14714 21808,14767 21851,14842 21894,14916 21914,14989 21914,15075 L 21914,15075 Z"/>
        <path fill="rgb(0,0,0)" stroke="none" d="M 16102,15075 C 16102,15162 16082,15235 16039,15309 15996,15384 15943,15437 15868,15480 15794,15523 15721,15543 15635,15543 15548,15543 15475,15523 15401,15480 15326,15437 15273,15384 15230,15309 15187,15235 15167,15162 15167,15075 15167,14989 15187,14916 15230,14842 15273,14767 15326,14714 15401,14671 15475,14627 15548,14608 15635,14608 15721,14608 15794,14627 15868,14671 15943,14714 15996,14767 16039,14842 16082,14916 16102,14989 16102,15075 L 16102,15075 Z"/>
        <path fill="rgb(0,0,0)" stroke="none" d="M 14499,17347 C 14499,17433 14479,17506 14436,17580 14393,17655 14340,17709 14265,17752 14191,17795 14117,17814 14031,17814 13945,17814 13872,17795 13798,17752 13723,17709 13669,17655 13626,17580 13583,17506 13564,17433 13564,17347 13564,17261 13583,17187 13626,17113 13669,17038 13723,16985 13798,16942 13872,16899 13945,16879 14031,16879 14117,16879 14191,16899 14265,16942 14340,16985 14393,17038 14436,17113 14479,17187 14499,17261 14499,17347 L 14499,17347 Z"/>
        <path fill="rgb(0,0,0)" stroke="none" d="M 24051,10800 C 24051,10886 24032,10960 23989,11034 23945,11109 23892,11162 23817,11205 23743,11248 23670,11268 23584,11268 23498,11268 23424,11248 23350,11205 23275,11162 23222,11109 23179,11034 23136,10960 23116,10886 23116,10800 23116,10714 23136,10641 23179,10567 23222,10492 23275,10438 23350,10395 23424,10352 23498,10333 23584,10333 23670,10333 23743,10352 23817,10395 23892,10438 23945,10492 23989,10567 24032,10641 24051,10714 24051,10800 L 24051,10800 Z"/>
       </g>
      </g>
     </g>
    </g>
   </g>
  </g>
 </g>
</svg>