<?xml version="1.0" encoding="UTF-8"?>
<!DOCTYPE svg PUBLIC "-//W3C//DTD SVG 1.1//EN" "http://www.w3.org/Graphics/SVG/1.1/DTD/svg11.dtd">
<svg version="1.2" width="293.75mm" height="293.75mm" viewBox="0 0 29375 29375" preserveAspectRatio="xMidYMid" fill-rule="evenodd" stroke-width="28.222" stroke-linejoin="round" xmlns="http://www.w3.org/2000/svg" xmlns:ooo="http://xml.openoffice.org/svg/export" xmlns:xlink="http://www.w3.org/1999/xlink" xmlns:presentation="http://sun.com/xmlns/staroffice/presentation" xmlns:smil="http://www.w3.org/2001/SMIL20/" xmlns:anim="urn:oasis:names:tc:opendocument:xmlns:animation:1.0" xml:space="preserve">
 <defs class="ClipPathGroup">
  <clipPath id="presentation_clip_path" clipPathUnits="userSpaceOnUse">
   <rect x="0" y="0" width="29375" height="29375"/>
  </clipPath>
  <clipPath id="presentation_clip_path_shrink" clipPathUnits="userSpaceOnUse">
   <rect x="29" y="29" width="29317" height="29317"/>
  </clipPath>
 </defs>
 <defs class="TextShapeIndex">
  <g ooo:slide="id1" ooo:id-list="id3"/>
 </defs>
 <defs class="EmbeddedBulletChars">
  <g id="bullet-char-template-57356" transform="scale(0.00048828125,-0.00048828125)">
   <path d="M 580,1141 L 1163,571 580,0 -4,571 580,1141 Z"/>
  </g>
  <g id="bullet-char-template-57354" transform="scale(0.00048828125,-0.00048828125)">
   <path d="M 8,1128 L 1137,1128 1137,0 8,0 8,1128 Z"/>
  </g>
  <g id="bullet-char-template-10146" transform="scale(0.00048828125,-0.00048828125)">
   <path d="M 174,0 L 602,739 174,1481 1456,739 174,0 Z M 1358,739 L 309,1346 659,739 1358,739 Z"/>
  </g>
  <g id="bullet-char-template-10132" transform="scale(0.00048828125,-0.00048828125)">
   <path d="M 2015,739 L 1276,0 717,0 1260,543 174,543 174,936 1260,936 717,1481 1274,1481 2015,739 Z"/>
  </g>
  <g id="bullet-char-template-10007" transform="scale(0.00048828125,-0.00048828125)">
   <path d="M 0,-2 C -7,14 -16,27 -25,37 L 356,567 C 262,823 215,952 215,954 215,979 228,992 255,992 264,992 276,990 289,987 310,991 331,999 354,1012 L 381,999 492,748 772,1049 836,1024 860,1049 C 881,1039 901,1025 922,1006 886,937 835,863 770,784 769,783 710,716 594,584 L 774,223 C 774,196 753,168 711,139 L 727,119 C 717,90 699,76 672,76 641,76 570,178 457,381 L 164,-76 C 142,-110 111,-127 72,-127 30,-127 9,-110 8,-76 1,-67 -2,-52 -2,-32 -2,-23 -1,-13 0,-2 Z"/>
  </g>
  <g id="bullet-char-template-10004" transform="scale(0.00048828125,-0.00048828125)">
   <path d="M 285,-33 C 182,-33 111,30 74,156 52,228 41,333 41,471 41,549 55,616 82,672 116,743 169,778 240,778 293,778 328,747 346,684 L 369,508 C 377,444 397,411 428,410 L 1163,1116 C 1174,1127 1196,1133 1229,1133 1271,1133 1292,1118 1292,1087 L 1292,965 C 1292,929 1282,901 1262,881 L 442,47 C 390,-6 338,-33 285,-33 Z"/>
  </g>
  <g id="bullet-char-template-9679" transform="scale(0.00048828125,-0.00048828125)">
   <path d="M 813,0 C 632,0 489,54 383,161 276,268 223,411 223,592 223,773 276,916 383,1023 489,1130 632,1184 813,1184 992,1184 1136,1130 1245,1023 1353,916 1407,772 1407,592 1407,412 1353,268 1245,161 1136,54 992,0 813,0 Z"/>
  </g>
  <g id="bullet-char-template-8226" transform="scale(0.00048828125,-0.00048828125)">
   <path d="M 346,457 C 273,457 209,483 155,535 101,586 74,649 74,723 74,796 101,859 155,911 209,963 273,989 346,989 419,989 480,963 531,910 582,859 608,796 608,723 608,648 583,586 532,535 482,483 420,457 346,457 Z"/>
  </g>
  <g id="bullet-char-template-8211" transform="scale(0.00048828125,-0.00048828125)">
   <path d="M -4,459 L 1135,459 1135,606 -4,606 -4,459 Z"/>
  </g>
  <g id="bullet-char-template-61548" transform="scale(0.00048828125,-0.00048828125)">
   <path d="M 173,740 C 173,903 231,1043 346,1159 462,1274 601,1332 765,1332 928,1332 1067,1274 1183,1159 1299,1043 1357,903 1357,740 1357,577 1299,437 1183,322 1067,206 928,148 765,148 601,148 462,206 346,322 231,437 173,577 173,740 Z"/>
  </g>
 </defs>
 <defs class="TextEmbeddedBitmaps"/>
 <g>
  <g id="id2" class="Master_Slide">
   <g id="bg-id2" class="Background"/>
   <g id="bo-id2" class="BackgroundObjects"/>
  </g>
 </g>
 <g class="SlideGroup">
  <g>
   <g id="container-id1">
    <g id="id1" class="Slide" clip-path="url(#presentation_clip_path)">
     <g class="Page">
      <g class="Graphic">
       <g id="id3">
        <rect class="BoundingBox" stroke="none" fill="none" x="-13" y="-13" width="29401" height="29401"/>
        <defs>
         <clipPath id="clip_path_1" clipPathUnits="userSpaceOnUse">
          <path d="M -13,-13 L 29387,-13 29387,29387 -13,29387 -13,-13 Z"/>
         </clipPath>
        </defs>
        <g clip-path="url(#clip_path_1)">
         <path fill="rgb(0,0,0)" stroke="none" d="M -4473,35510 C -4441,35502 -4396,35502 -4374,35511 -4351,35520 -4377,35527 -4432,35527 -4487,35526 -4505,35518 -4473,35510 L -4473,35510 Z"/>
         <path fill="rgb(0,0,0)" stroke="none" d="M -4109,35510 C -4076,35502 -4032,35502 -4009,35511 -3987,35520 -4013,35527 -4068,35527 -4123,35526 -4141,35518 -4109,35510 L -4109,35510 Z"/>
         <path fill="rgb(0,0,0)" stroke="none" d="M 1470,22 L 1470,29352 27904,29352 27904,22 1470,22 Z M 4287,1953 C 4412,2193 4552,2485 4706,2832 4860,3178 5017,3543 5176,3927 5336,4305 5493,4692 5647,5089 5807,5479 5952,5841 6083,6175 6214,5841 6357,5479 6511,5089 6665,4692 6821,4305 6981,3927 7141,3543 7298,3178 7452,2832 7605,2485 7745,2193 7871,1953 L 8846,1953 C 8897,2432 8945,2942 8991,3483 9037,4018 9077,4569 9111,5136 9151,5696 9185,6263 9213,6836 9248,7402 9276,7957 9299,8498 L 8238,8498 C 8216,7736 8187,6952 8153,6146 8124,5340 8079,4560 8016,3804 7953,3949 7879,4122 7794,4324 7708,4525 7617,4746 7520,4985 7423,5218 7323,5460 7221,5712 7124,5964 7027,6209 6930,6449 6839,6682 6753,6902 6673,7110 6593,7311 6525,7484 6468,7629 L 5664,7629 C 5607,7484 5539,7308 5459,7100 5379,6892 5291,6672 5194,6439 5102,6200 5005,5954 4903,5703 4806,5451 4709,5208 4612,4975 4515,4742 4424,4525 4338,4324 4253,4116 4179,3943 4116,3804 4053,4560 4005,5340 3970,6146 3942,6952 3916,7736 3894,8498 L 2833,8498 C 2856,7957 2881,7396 2910,6817 2944,6238 2978,5665 3013,5098 3052,4525 3095,3971 3141,3436 3186,2901 3235,2407 3286,1953 L 4287,1953 Z M 10563,1953 L 14369,1953 14369,2964 11640,2964 11640,4579 14069,4579 14069,5570 11640,5570 11640,7487 14574,7487 14574,8498 10563,8498 10563,1953 Z M 15574,1953 L 16455,1953 C 16569,2086 16688,2230 16810,2388 16933,2545 17060,2715 17191,2898 17453,3257 17715,3631 17978,4022 18112,4217 18243,4413 18371,4609 18499,4806 18625,5004 18747,5202 18873,5397 18991,5586 19102,5769 19213,5951 19318,6127 19415,6297 L 19415,1953 20484,1953 20484,8498 19568,8498 C 19375,8139 19158,7755 18918,7346 18679,6930 18431,6515 18174,6099 18046,5888 17916,5681 17785,5478 17654,5275 17521,5076 17387,4881 17256,4683 17128,4495 17003,4317 16877,4139 16755,3971 16635,3814 L 16635,8498 15574,8498 15574,1953 Z M 21863,1953 L 22949,1953 22949,5929 C 22949,6225 22977,6480 23034,6694 23097,6902 23183,7072 23291,7204 23405,7336 23536,7434 23684,7497 23838,7560 24009,7591 24198,7591 24386,7591 24557,7560 24711,7497 24865,7434 24996,7336 25104,7204 25218,7072 25304,6902 25361,6694 25424,6480 25455,6225 25455,5929 L 25455,1953 26541,1953 26541,6043 C 26541,6420 26493,6767 26396,7081 26304,7396 26162,7670 25968,7903 25780,8136 25538,8318 25241,8451 24945,8577 24594,8640 24189,8640 23784,8640 23436,8577 23146,8451 22855,8318 22612,8136 22419,7903 22230,7670 22091,7396 21999,7081 21908,6767 21863,6420 21863,6043 L 21863,1953 Z M 4360,10776 L 8144,10776 8144,14258 4360,14258 4360,10776 Z M 10091,11660 L 25014,11660 25014,13373 10091,13373 10091,11660 Z M 4360,17495 L 8145,17495 8145,20976 4360,20976 4360,17495 Z M 10092,18379 L 25014,18379 25014,20092 10092,20092 10092,18379 Z M 4359,24214 L 8146,24214 8146,27695 4359,27695 4359,24214 Z M 10093,25098 L 25016,25098 25016,26811 10093,26811 10093,25098 Z"/>
        </g>
       </g>
      </g>
     </g>
    </g>
   </g>
  </g>
 </g>
</svg>