<?xml version="1.0" encoding="UTF-8"?>
<!DOCTYPE svg PUBLIC "-//W3C//DTD SVG 1.1//EN" "http://www.w3.org/Graphics/SVG/1.1/DTD/svg11.dtd">
<svg version="1.2" width="293.75mm" height="293.75mm" viewBox="0 0 29375 29375" preserveAspectRatio="xMidYMid" fill-rule="evenodd" stroke-width="28.222" stroke-linejoin="round" xmlns="http://www.w3.org/2000/svg" xmlns:ooo="http://xml.openoffice.org/svg/export" xmlns:xlink="http://www.w3.org/1999/xlink" xmlns:presentation="http://sun.com/xmlns/staroffice/presentation" xmlns:smil="http://www.w3.org/2001/SMIL20/" xmlns:anim="urn:oasis:names:tc:opendocument:xmlns:animation:1.0" xml:space="preserve">
 <defs class="ClipPathGroup">
  <clipPath id="presentation_clip_path" clipPathUnits="userSpaceOnUse">
   <rect x="0" y="0" width="29375" height="29375"/>
  </clipPath>
  <clipPath id="presentation_clip_path_shrink" clipPathUnits="userSpaceOnUse">
   <rect x="29" y="29" width="29317" height="29317"/>
  </clipPath>
 </defs>
 <defs class="TextShapeIndex">
  <g ooo:slide="id1" ooo:id-list="id3"/>
 </defs>
 <defs class="EmbeddedBulletChars">
  <g id="bullet-char-template-57356" transform="scale(0.00048828125,-0.00048828125)">
   <path d="M 580,1141 L 1163,571 580,0 -4,571 580,1141 Z"/>
  </g>
  <g id="bullet-char-template-57354" transform="scale(0.00048828125,-0.00048828125)">
   <path d="M 8,1128 L 1137,1128 1137,0 8,0 8,1128 Z"/>
  </g>
  <g id="bullet-char-template-10146" transform="scale(0.00048828125,-0.00048828125)">
   <path d="M 174,0 L 602,739 174,1481 1456,739 174,0 Z M 1358,739 L 309,1346 659,739 1358,739 Z"/>
  </g>
  <g id="bullet-char-template-10132" transform="scale(0.00048828125,-0.00048828125)">
   <path d="M 2015,739 L 1276,0 717,0 1260,543 174,543 174,936 1260,936 717,1481 1274,1481 2015,739 Z"/>
  </g>
  <g id="bullet-char-template-10007" transform="scale(0.00048828125,-0.00048828125)">
   <path d="M 0,-2 C -7,14 -16,27 -25,37 L 356,567 C 262,823 215,952 215,954 215,979 228,992 255,992 264,992 276,990 289,987 310,991 331,999 354,1012 L 381,999 492,748 772,1049 836,1024 860,1049 C 881,1039 901,1025 922,1006 886,937 835,863 770,784 769,783 710,716 594,584 L 774,223 C 774,196 753,168 711,139 L 727,119 C 717,90 699,76 672,76 641,76 570,178 457,381 L 164,-76 C 142,-110 111,-127 72,-127 30,-127 9,-110 8,-76 1,-67 -2,-52 -2,-32 -2,-23 -1,-13 0,-2 Z"/>
  </g>
  <g id="bullet-char-template-10004" transform="scale(0.00048828125,-0.00048828125)">
   <path d="M 285,-33 C 182,-33 111,30 74,156 52,228 41,333 41,471 41,549 55,616 82,672 116,743 169,778 240,778 293,778 328,747 346,684 L 369,508 C 377,444 397,411 428,410 L 1163,1116 C 1174,1127 1196,1133 1229,1133 1271,1133 1292,1118 1292,1087 L 1292,965 C 1292,929 1282,901 1262,881 L 442,47 C 390,-6 338,-33 285,-33 Z"/>
  </g>
  <g id="bullet-char-template-9679" transform="scale(0.00048828125,-0.00048828125)">
   <path d="M 813,0 C 632,0 489,54 383,161 276,268 223,411 223,592 223,773 276,916 383,1023 489,1130 632,1184 813,1184 992,1184 1136,1130 1245,1023 1353,916 1407,772 1407,592 1407,412 1353,268 1245,161 1136,54 992,0 813,0 Z"/>
  </g>
  <g id="bullet-char-template-8226" transform="scale(0.00048828125,-0.00048828125)">
   <path d="M 346,457 C 273,457 209,483 155,535 101,586 74,649 74,723 74,796 101,859 155,911 209,963 273,989 346,989 419,989 480,963 531,910 582,859 608,796 608,723 608,648 583,586 532,535 482,483 420,457 346,457 Z"/>
  </g>
  <g id="bullet-char-template-8211" transform="scale(0.00048828125,-0.00048828125)">
   <path d="M -4,459 L 1135,459 1135,606 -4,606 -4,459 Z"/>
  </g>
  <g id="bullet-char-template-61548" transform="scale(0.00048828125,-0.00048828125)">
   <path d="M 173,740 C 173,903 231,1043 346,1159 462,1274 601,1332 765,1332 928,1332 1067,1274 1183,1159 1299,1043 1357,903 1357,740 1357,577 1299,437 1183,322 1067,206 928,148 765,148 601,148 462,206 346,322 231,437 173,577 173,740 Z"/>
  </g>
 </defs>
 <defs class="TextEmbeddedBitmaps"/>
 <g>
  <g id="id2" class="Master_Slide">
   <g id="bg-id2" class="Background"/>
   <g id="bo-id2" class="BackgroundObjects"/>
  </g>
 </g>
 <g class="SlideGroup">
  <g>
   <g id="container-id1">
    <g id="id1" class="Slide" clip-path="url(#presentation_clip_path)">
     <g class="Page">
      <g class="Graphic">
       <g id="id3">
        <rect class="BoundingBox" stroke="none" fill="none" x="-13" y="-13" width="29401" height="29401"/>
        <path fill="rgb(0,0,0)" stroke="none" d="M 19872,111 C 19840,111 19808,111 19776,112 19435,118 19096,182 18768,306 L 18667,345 18637,374 C 18141,604 17589,1090 16295,2287 14890,3588 12689,5712 9157,9152 5005,13196 2839,15312 1668,16536 1083,17148 744,17536 521,17856 297,18176 193,18456 134,18686 -197,19983 248,21268 1333,22378 L 2194,23259 C 228,25331 146,25652 178,26120 311,28104 2079,29560 3836,29134 4028,29087 4830,28409 6033,27306 L 6827,28053 C 8013,29169 9504,29598 10811,29079 L 10913,29039 10941,29010 C 11430,28775 11980,28283 13257,27077 14644,25767 16815,23631 20297,20171 24392,16103 26528,13975 27680,12746 28256,12131 28589,11742 28807,11423 29026,11103 29126,10823 29180,10595 29483,9308 28996,8051 27872,6992 L 27122,6286 C 28199,5117 28862,4337 28912,4145 29378,2356 28008,503 26078,310 25634,265 25322,336 23381,2154 L 22700,1459 C 21869,609 20863,122 19872,111 L 19872,111 Z M 19879,1175 C 20549,1180 21262,1514 21943,2210 L 22421,2698 12484,12390 2541,22088 2091,21627 C 1172,20687 924,19893 1164,18952 1209,18777 1227,18705 1390,18472 1553,18240 1864,17875 2435,17278 3575,16086 5745,13965 9897,9921 13427,6482 15627,4360 17015,3075 18403,1790 19051,1343 19144,1308 19360,1226 19584,1181 19814,1175 19836,1175 19857,1175 19879,1175 L 19879,1175 Z M 25024,3865 C 25056,3865 25091,3865 25127,3866 25710,3875 25736,3926 25672,4958 25616,5871 25459,6187 24672,6964 23925,7703 23482,7934 22455,8123 21737,8255 20940,8587 20646,8878 20352,9168 20007,9964 19863,10683 19500,12495 18287,13695 16595,13915 15003,14123 14229,14887 13994,16486 13745,18183 12530,19382 10723,19714 10005,19846 9209,20179 8915,20469 8621,20760 8276,21555 8131,22275 7773,24063 6469,25385 4993,25455 3395,25531 3214,24226 4793,24020 5687,23904 6456,22994 6641,21834 6979,19709 8193,18508 10308,18207 11690,18010 12304,17341 12582,15728 12766,14660 12983,14226 13676,13542 14369,12858 14804,12647 15868,12481 17475,12231 18152,11626 18372,10243 18654,8716 19274,7646 20489,7079 L 20489,7079 C 20964,6858 21734,6635 22202,6583 23226,6470 24012,5749 24301,4660 24491,3945 24541,3864 25024,3865 L 25024,3865 Z M 26669,7318 L 27148,7770 C 28101,8667 28367,9429 28150,10349 28109,10520 28093,10587 27935,10819 27777,11050 27472,11416 26910,12014 25788,13212 23648,15345 19554,19413 16073,22871 13902,25006 12532,26301 11162,27595 10522,28048 10422,28088 L 10420,28089 C 9548,28434 8520,28188 7550,27275 L 7067,26821 16853,17084 26669,7318 26669,7318 Z"/>
       </g>
      </g>
     </g>
    </g>
   </g>
  </g>
 </g>
</svg>