<?xml version="1.0" encoding="utf-8"?>
<!-- Created by sK1 2.0rc4 (https://sk1project.net/) -->
<svg xmlns="http://www.w3.org/2000/svg" height="832.677165354pt" viewBox="0 0 832.677165354 832.677165354" width="832.677165354pt" version="1.1" xmlns:xlink="http://www.w3.org/1999/xlink" id="02911b04-b385-11ea-be2e-a0f3c11e789f">

<g>
	<path style="fill:#2d2c2b;" d="M 573.1359,205.5157 C 506.1168,203.5843 472.4408,220.3945 432.4999,237.3197 411.0849,244.4447 397.1693,243.206 377.2557,236.8874 362.4367,230.0061 328.0417,215.7471 284.8079,209.0015 178.4067,192.4 60.3166,293.8941 62.7836,450.7616 65.7545,639.6759 186.3394,828.4301 270.7452,830.6703 324.3873,832.094 357.4407,803.4929 398.8321,799.0959 412.1853,798.2119 418.9172,798.2144 431.1477,799.5558 465.8319,807.8784 516.1484,831.8915 562.1204,830.6703 646.4513,828.4301 766.9299,637.949 769.8982,449.0347 772.1704,304.4225 672.0762,206.8691 573.1359,205.5157 Z" />
	<path style="fill:#2d2c2b;" d="M 520.321,134.7594 C 491.1115,166.9574 471.7757,180.9511 425.5689,191.5457 395.0155,199.033 397.8808,189.9331 397.8808,189.9331 395.6868,138.3566 416.5655,97.0845 443.4497,66.7134 469.8238,36.9188 496.5295,22.7884 520.4059,12.2896 574.2584,-3.6816 568.879,3.6082 568.879,3.6082 561.9596,80.9565 547.0863,105.2557 520.321,134.7594 Z" />
</g>
</svg>