<?xml version="1.0" encoding="utf-8"?>
<!-- Created by sK1 2.0rc4 (https://sk1project.net/) -->
<svg xmlns="http://www.w3.org/2000/svg" height="832.677165354pt" viewBox="0 0 832.677165354 832.677165354" width="832.677165354pt" version="1.1" xmlns:xlink="http://www.w3.org/1999/xlink" id="d116f7aa-b137-11ea-bb2a-a0f3c11e789f">

<g>
	<g>
		<path style="fill:#2d2c2b;" d="M 101.7141,1.673 L 96.192,8.5939 C 90.4812,15.7512 91.0698,28.0123 97.5105,36.0844 L 404.7128,421.0967 C 411.1536,429.1688 420.9357,429.9063 426.6465,422.749 L 736.4841,34.434 C 742.1948,27.2767 741.6063,15.0156 735.1656,6.9435 L 730.9601,1.673 101.7141,1.673 Z M 198.7696,51.2758 L 633.9046,51.2758 636.8134,54.9634 C 641.2673,60.609 641.6743,69.183 637.7252,74.1888 L 571.9553,157.5556 260.7207,157.5556 195.8627,75.3432 C 191.4088,69.6976 191.0017,61.1235 194.9508,56.1178 L 198.7696,51.2758 Z" />
		<path style="fill:#2d2c2b;" d="M 384.3241,353.4672 L 384.3241,774.9817 448.3516,774.9817 448.3516,353.4672 384.3241,353.4672 Z" />
		<path style="fill:#2d2c2b;" d="M 668.0124,831.0058 L 164.6632,831.0058 C 219.5761,719.6953 621.7949,716.2575 668.0124,831.0058 Z" />
	</g>
</g>
</svg>