<?xml version="1.0" encoding="UTF-8"?>
<!DOCTYPE svg PUBLIC "-//W3C//DTD SVG 1.1//EN" "http://www.w3.org/Graphics/SVG/1.1/DTD/svg11.dtd">
<svg version="1.2" width="293.75mm" height="293.75mm" viewBox="0 0 29375 29375" preserveAspectRatio="xMidYMid" fill-rule="evenodd" stroke-width="28.222" stroke-linejoin="round" xmlns="http://www.w3.org/2000/svg" xmlns:ooo="http://xml.openoffice.org/svg/export" xmlns:xlink="http://www.w3.org/1999/xlink" xmlns:presentation="http://sun.com/xmlns/staroffice/presentation" xmlns:smil="http://www.w3.org/2001/SMIL20/" xmlns:anim="urn:oasis:names:tc:opendocument:xmlns:animation:1.0" xml:space="preserve">
 <defs class="ClipPathGroup">
  <clipPath id="presentation_clip_path" clipPathUnits="userSpaceOnUse">
   <rect x="0" y="0" width="29375" height="29375"/>
  </clipPath>
  <clipPath id="presentation_clip_path_shrink" clipPathUnits="userSpaceOnUse">
   <rect x="29" y="29" width="29317" height="29317"/>
  </clipPath>
 </defs>
 <defs class="TextShapeIndex">
  <g ooo:slide="id1" ooo:id-list="id3"/>
 </defs>
 <defs class="EmbeddedBulletChars">
  <g id="bullet-char-template-57356" transform="scale(0.00048828125,-0.00048828125)">
   <path d="M 580,1141 L 1163,571 580,0 -4,571 580,1141 Z"/>
  </g>
  <g id="bullet-char-template-57354" transform="scale(0.00048828125,-0.00048828125)">
   <path d="M 8,1128 L 1137,1128 1137,0 8,0 8,1128 Z"/>
  </g>
  <g id="bullet-char-template-10146" transform="scale(0.00048828125,-0.00048828125)">
   <path d="M 174,0 L 602,739 174,1481 1456,739 174,0 Z M 1358,739 L 309,1346 659,739 1358,739 Z"/>
  </g>
  <g id="bullet-char-template-10132" transform="scale(0.00048828125,-0.00048828125)">
   <path d="M 2015,739 L 1276,0 717,0 1260,543 174,543 174,936 1260,936 717,1481 1274,1481 2015,739 Z"/>
  </g>
  <g id="bullet-char-template-10007" transform="scale(0.00048828125,-0.00048828125)">
   <path d="M 0,-2 C -7,14 -16,27 -25,37 L 356,567 C 262,823 215,952 215,954 215,979 228,992 255,992 264,992 276,990 289,987 310,991 331,999 354,1012 L 381,999 492,748 772,1049 836,1024 860,1049 C 881,1039 901,1025 922,1006 886,937 835,863 770,784 769,783 710,716 594,584 L 774,223 C 774,196 753,168 711,139 L 727,119 C 717,90 699,76 672,76 641,76 570,178 457,381 L 164,-76 C 142,-110 111,-127 72,-127 30,-127 9,-110 8,-76 1,-67 -2,-52 -2,-32 -2,-23 -1,-13 0,-2 Z"/>
  </g>
  <g id="bullet-char-template-10004" transform="scale(0.00048828125,-0.00048828125)">
   <path d="M 285,-33 C 182,-33 111,30 74,156 52,228 41,333 41,471 41,549 55,616 82,672 116,743 169,778 240,778 293,778 328,747 346,684 L 369,508 C 377,444 397,411 428,410 L 1163,1116 C 1174,1127 1196,1133 1229,1133 1271,1133 1292,1118 1292,1087 L 1292,965 C 1292,929 1282,901 1262,881 L 442,47 C 390,-6 338,-33 285,-33 Z"/>
  </g>
  <g id="bullet-char-template-9679" transform="scale(0.00048828125,-0.00048828125)">
   <path d="M 813,0 C 632,0 489,54 383,161 276,268 223,411 223,592 223,773 276,916 383,1023 489,1130 632,1184 813,1184 992,1184 1136,1130 1245,1023 1353,916 1407,772 1407,592 1407,412 1353,268 1245,161 1136,54 992,0 813,0 Z"/>
  </g>
  <g id="bullet-char-template-8226" transform="scale(0.00048828125,-0.00048828125)">
   <path d="M 346,457 C 273,457 209,483 155,535 101,586 74,649 74,723 74,796 101,859 155,911 209,963 273,989 346,989 419,989 480,963 531,910 582,859 608,796 608,723 608,648 583,586 532,535 482,483 420,457 346,457 Z"/>
  </g>
  <g id="bullet-char-template-8211" transform="scale(0.00048828125,-0.00048828125)">
   <path d="M -4,459 L 1135,459 1135,606 -4,606 -4,459 Z"/>
  </g>
  <g id="bullet-char-template-61548" transform="scale(0.00048828125,-0.00048828125)">
   <path d="M 173,740 C 173,903 231,1043 346,1159 462,1274 601,1332 765,1332 928,1332 1067,1274 1183,1159 1299,1043 1357,903 1357,740 1357,577 1299,437 1183,322 1067,206 928,148 765,148 601,148 462,206 346,322 231,437 173,577 173,740 Z"/>
  </g>
 </defs>
 <defs class="TextEmbeddedBitmaps"/>
 <g>
  <g id="id2" class="Master_Slide">
   <g id="bg-id2" class="Background"/>
   <g id="bo-id2" class="BackgroundObjects"/>
  </g>
 </g>
 <g class="SlideGroup">
  <g>
   <g id="container-id1">
    <g id="id1" class="Slide" clip-path="url(#presentation_clip_path)">
     <g class="Page">
      <g class="Graphic">
       <g id="id3">
        <rect class="BoundingBox" stroke="none" fill="none" x="-13" y="-13" width="29401" height="29401"/>
        <defs>
         <clipPath id="clip_path_1" clipPathUnits="userSpaceOnUse">
          <path d="M -13,-13 L 29387,-13 29387,29387 -13,29387 -13,-13 Z"/>
         </clipPath>
        </defs>
        <g clip-path="url(#clip_path_1)">
         <path fill="rgb(0,0,0)" stroke="none" d="M 1090,26812 C 959,26812 847,26842 733,26908 619,26974 537,27057 471,27172 405,27286 375,27399 375,27532 375,27664 405,27777 471,27892 527,27989 593,28061 684,28124 1162,28455 1739,28591 2522,28741 3305,28891 4269,29011 5366,29107 7558,29298 10275,29390 13006,29387 15737,29384 18479,29287 20722,29094 21843,28998 22838,28878 23656,28731 24473,28584 25092,28437 25583,28159 25586,28158 25588,28156 25590,28155 25704,28089 25786,28006 25852,27892 25918,27777 25948,27664 25948,27532 25948,27399 25918,27286 25852,27172 25786,27057 25704,26974 25590,26908 25476,26842 25364,26812 25232,26812 L 1090,26812 Z"/>
         <path fill="rgb(0,0,0)" stroke="none" d="M 2008,13627 C 2008,22163 7001,28040 13161,28040 19321,28040 24315,22163 24315,13627 L 2008,13627 Z"/>
         <path fill="rgb(0,0,0)" stroke="none" d="M 20637,24232 L 24929,24232 C 25388,24195 25694,23756 26031,23127 L 29388,16625 C 29388,16015 28895,15520 28286,15520 L 22526,15520 C 22526,17117 21641,19794 21077,21991 L 22954,17019 27574,17019 24549,22659 20913,22659 C 20776,23246 20675,23782 20637,24232 Z M 20913,22659 L 20825,22659 21077,21991 C 21018,22219 20963,22443 20913,22659 Z"/>
         <path fill="rgb(0,0,0)" stroke="none" d="M 11925,1633 L 11925,1633 C 11836,1635 11761,1654 11684,1696 11604,1739 11547,1792 11501,1867 11455,1941 11435,2014 11435,2100 11435,2186 11455,2259 11501,2333 11509,2346 11517,2357 11526,2369 12614,3853 12776,4707 12645,5243 12513,5780 12040,6156 11471,6620 10903,7085 10229,7681 10203,8624 10176,9567 10744,10675 12213,12301 L 12213,12301 C 12254,12348 12296,12382 12352,12412 12432,12455 12510,12475 12601,12475 12693,12475 12771,12455 12851,12412 12930,12369 12988,12316 13034,12242 13079,12167 13100,12094 13100,12008 13100,11922 13079,11849 13034,11775 13016,11746 12998,11724 12975,11699 11572,10147 11185,9197 11200,8648 11215,8100 11580,7770 12128,7323 12675,6875 13396,6353 13617,5452 13838,4550 13511,3427 12349,1841 L 12349,1841 C 12304,1779 12253,1734 12183,1696 12103,1653 12025,1633 11933,1633 11931,1633 11928,1633 11925,1633 L 11925,1633 Z"/>
         <path fill="rgb(0,0,0)" stroke="none" d="M 16147,203 C 16067,246 16010,299 15964,374 15918,448 15897,521 15897,607 15897,693 15918,766 15964,840 15974,856 15983,869 15995,884 17260,2535 17566,3510 17504,4056 17441,4602 17049,4904 16465,5309 15881,5715 15118,6182 14821,7064 14524,7946 14753,9090 15777,10757 15777,10757 15777,10757 15777,10758 15823,10832 15880,10886 15960,10929 16040,10972 16118,10991 16209,10991 16301,10991 16379,10972 16459,10929 16538,10886 16596,10832 16641,10758 16687,10683 16708,10610 16708,10525 16708,10439 16687,10366 16642,10292 15684,8733 15595,7870 15772,7345 15949,6819 16453,6479 17060,6058 17666,5637 18389,5093 18495,4155 18602,3216 18131,2069 16806,340 16762,281 16712,239 16646,203 16566,160 16488,140 16396,140 16390,140 16384,140 16378,141 16293,144 16221,163 16147,203 Z"/>
        </g>
       </g>
      </g>
     </g>
    </g>
   </g>
  </g>
 </g>
</svg>