<?xml version="1.0" encoding="utf-8"?>
<!-- Created by sK1 2.0rc4 (https://sk1project.net/) -->
<svg xmlns="http://www.w3.org/2000/svg" height="832.677165354pt" viewBox="0 0 832.677165354 832.677165354" width="832.677165354pt" version="1.1" xmlns:xlink="http://www.w3.org/1999/xlink" id="8639093c-b40f-11ea-be2e-a0f3c11e789f">

<g>
	<g>
		<path style="fill:#2d2c2b;" d="M 428.7238,2.7097 C 314.9605,2.7097 222.4781,95.192 222.4781,208.9553 222.4781,226.1805 224.603,242.915 228.5986,258.9156 L 250.1269,245.1525 C 247.7764,233.4561 246.5374,221.3534 246.5374,208.9553 246.5374,108.1944 327.9629,26.7671 428.7238,26.7671 529.4847,26.7671 610.912,108.1944 610.912,208.9553 610.912,221.3257 609.6769,233.4022 607.3367,245.0743 L 629.8276,254.7986 C 633.1878,240.0515 634.9712,224.7091 634.9712,208.9553 634.9712,95.192 542.4871,2.7097 428.7238,2.7097 Z" />
		<path style="fill:#2d2c2b;" d="M 595.4012,332.388 L 505.9917,557.9257 428.4023,786.149 350.82,557.9257 269.7902,336.7324 267.4706,337.6471 245.4539,342.7267 336.0658,572.5769 C 336.0981,572.6766 336.1315,572.7752 336.1653,572.8735 L 421.1043,822.7191 C 422.5775,827.0517 425.2136,829.7807 428.1004,829.9621 431.205,830.157 434.123,827.3787 435.7075,822.7191 L 520.6411,572.8735 C 520.6755,572.7752 520.7083,572.6766 520.7406,572.5769 L 615.2972,332.7183 608.2709,334.8905 595.4012,332.388 Z" />
		<path style="fill:#2d2c2b;" d="M 239.4095,232.7589 C 239.343,232.7576 239.2646,232.7568 239.1861,232.7568 238.1231,232.7568 237.0923,232.8948 236.1105,233.1537 203.1832,241.1023 182.5336,256.9953 173.7912,276.453 165.0489,295.9106 169.0162,317.209 179.9872,333.0357 190.9583,348.8623 209.193,360.172 230.1994,360.5114 245.5451,360.7596 261.7087,354.6291 276.4376,341.6953 282.5456,359.0983 291.3063,372.2712 302.4902,381.0595 317.9798,393.2311 337.1834,396.216 355.2533,393.0889 384.8002,387.9758 412.537,368.2478 431.874,343.9038 447.9553,368.564 473.6779,383.8173 500.2915,386.2888 528.7308,388.9298 558.3666,375.7624 575.1264,346.4614 590.0602,356.0132 605.2957,359.1195 618.8071,355.9064 636.1875,351.7732 649.0599,338.6901 656.3789,323.3624 663.698,308.0348 665.9828,289.8895 660.9974,272.9287 656.012,255.9679 642.7626,240.4892 622.0158,233.6517 620.8555,233.2421 619.5181,233.0054 618.1255,233.0054 611.4822,233.0054 606.0948,238.3928 606.0948,245.036 606.0948,250.3787 609.5794,254.9092 614.3993,256.4783 628.384,261.0833 634.871,269.37 637.9119,279.7154 640.9527,290.0607 639.5514,302.76 634.6628,312.9978 629.7742,323.2355 621.9167,330.4358 613.2421,332.4986 604.5675,334.5615 593.4484,332.6554 578.691,319.093 576.5555,317.1261 573.6931,315.9198 570.5495,315.9198 565.3888,315.9198 560.986,319.1709 559.2779,323.7363 548.0495,354.4233 525.8988,364.5023 502.5134,362.3306 479.128,360.1589 455.0692,343.9426 444.7224,316.9315 442.9413,312.374 438.5839,309.2031 433.4873,309.2031 429.0525,309.2031 425.1774,311.604 423.091,315.1766 408.4624,340.6087 377.2643,364.8603 351.1518,369.3791 338.0955,371.6385 326.9647,369.696 317.3525,362.1427 307.7403,354.5894 298.903,340.3591 294.173,315.3271 293.0825,309.7138 288.2046,305.5324 282.352,305.5324 278.3855,305.5324 274.8667,307.4529 272.675,310.4147 257.7729,330.7443 243.0705,336.6609 230.5888,336.4592 218.107,336.2575 206.6651,329.2844 199.7633,319.328 192.8615,309.3716 190.7593,297.3898 195.7356,286.3142 200.7119,275.2384 213.5641,263.347 241.8395,256.5225 247.248,255.269 251.2192,250.4911 251.2192,244.7875 251.2192,238.222 245.957,232.883 239.421,232.7591 Z" />
		<path style="fill:#2d2c2b;" d="M 398.4976,52.8341 C 398.3946,52.8309 398.2735,52.8291 398.1521,52.8291 397.1334,52.8291 396.1442,52.9558 395.1994,53.1942 363.843,60.481 331.389,81.797 308.0552,112.0549 284.7214,142.3129 270.7375,182.3132 279.6464,225.4016 280.7589,230.9884 285.6238,235.1421 291.457,235.1421 298.1003,235.1421 303.4877,229.7546 303.4877,223.1114 303.4877,222.1986 303.386,221.3094 303.1932,220.4547 295.8961,185.1673 307.13,152.6536 327.1063,126.7494 347.0827,100.8452 376.0322,82.3484 400.7263,76.611 406.1714,75.3856 410.1797,70.5898 410.1797,64.8597 410.1797,58.339 404.9892,53.0282 398.5154,52.8345 Z" />
		<path style="fill:#2d2c2b;" d="M 423.456,335.3113 L 299.4695,456.7403 316.3053,473.9252 440.2919,352.4963 423.456,335.3113 Z" />
		<path style="fill:#2d2c2b;" d="M 514.2005,364.5593 L 331.4227,533.7503 347.7685,551.4118 530.5396,382.2141 514.2005,364.5593 Z" />
		<path style="fill:#2d2c2b;" d="M 560.658,439.2287 C 557.5324,439.2184 554.5254,440.4242 552.2736,442.5918 L 361.1674,622.0714 C 348.9383,633.0111 365.8857,651.1141 377.6072,639.6322 L 559.6198,469.2531 C 561.2441,452.7744 560.658,439.2287 560.658,439.2287 Z" />
		<path style="fill:#2d2c2b;" d="M 494.5596,616.1414 C 491.4338,616.0877 488.4098,617.2531 486.1283,619.3904 L 391.6908,705.4451 C 379.8314,716.2484 396.0362,734.0375 407.8956,723.2342 L 494.5385,644.3245 494.5596,616.1414 Z" />
		<path style="fill:#2d2c2b;" d="M 368.5851,618.7821 C 362.2202,619.1283 357.1882,624.3757 357.1882,630.7961 357.1882,636.0943 360.6149,640.5937 365.3725,642.1985 L 468.2174,677.721 C 469.4003,678.1479 470.7649,678.3948 472.187,678.3948 478.8302,678.3948 484.2176,673.0074 484.2176,666.3642 484.2176,661.1114 480.8494,656.6437 476.1554,655.0036 L 373.3177,619.4802 C 372.1013,619.0271 370.6966,618.7648 369.2307,618.7648 369.0037,618.7648 368.7781,618.7711 368.5541,618.7835 Z" />
		<path style="fill:#2d2c2b;" d="M 324.9851,500.0114 C 318.4652,500.1705 313.2387,505.4954 313.2387,512.0387 313.2387,517.2072 316.4997,521.6156 321.076,523.3181 L 499.5665,591.0244 C 500.8523,591.5355 502.3416,591.832 503.9001,591.832 510.5433,591.832 515.9307,586.4446 515.9307,579.8014 515.9307,574.6683 512.7143,570.285 508.1873,568.5574 L 329.6908,500.8505 C 328.3801,500.3175 326.8601,500.0081 325.2681,500.0081 325.1686,500.0081 325.0693,500.0093 324.9704,500.0117 Z" />
		<path style="fill:#2d2c2b;" d="M 284.4326,389.0948 C 277.91,389.2503 272.6799,394.5767 272.6799,401.1222 272.6799,406.2906 275.9407,410.6989 280.5169,412.4015 L 530.8954,507.4426 C 532.1809,507.9535 533.6699,508.2498 535.228,508.2498 541.8712,508.2498 547.2586,502.8624 547.2586,496.2191 547.2586,491.0865 544.0427,486.7034 539.5162,484.9755 L 289.1384,389.9339 C 287.8277,389.4009 286.3077,389.0914 284.7156,389.0914 284.6162,389.0914 284.5169,389.0927 284.418,389.0951 Z" />
		<path style="fill:#2d2c2b;" d="M 431.9344,331.7938 C 431.8724,331.7926 431.7993,331.792 431.7261,331.792 425.0828,331.792 419.6954,337.1794 419.6954,343.8226 419.6954,348.3975 422.2504,352.3768 426.0109,354.4113 L 563.0567,428.5401 C 559.3168,426.4505 567.2504,426.7643 567.2504,422.2496 567.2504,415.606 564.451,413.8622 571.0946,413.8622 573.2234,413.8622 567.4371,404.7702 569.1721,405.7406 L 437.6739,333.3646 C 436.0232,332.4097 434.0501,331.8314 431.9452,331.7939 L 431.9344,331.7938 Z" />
		<path style="fill:#2d2c2b;" d="M 404.7732,709.8633 C 391.4792,710.5645 389.0001,729.1418 401.645,733.3046 L 444.647,750.6148 C 459.8462,755.9273 467.7395,733.0704 452.501,727.8717 L 409.5058,710.5614 C 407.9909,710.0142 406.3815,709.7769 404.7732,709.8633 Z" />
	</g>
</g>
</svg>