<?xml version="1.0" encoding="utf-8"?>
<!-- Created by sK1 2.0rc4 (https://sk1project.net/) -->
<svg xmlns="http://www.w3.org/2000/svg" height="832.677165354pt" viewBox="0 0 832.677165354 832.677165354" width="832.677165354pt" version="1.1" xmlns:xlink="http://www.w3.org/1999/xlink" id="63d7f770-b416-11ea-be2e-a0f3c11e789f">

<g>
	<path style="fill-rule:evenodd;fill:#2d2c2b;" d="M 610.89,165.4702 C 610.9102,164.5128 610.9204,163.5533 610.9204,162.5919 610.9204,138.9506 604.7728,116.4964 593.73,96.2667 563.1999,40.3374 495.2525,1.4113 416.3519,1.4113 308.9129,1.4113 221.7835,73.5894 221.7835,162.5919 221.7835,163.5533 221.7937,164.5128 221.8139,165.4702 L 221.7541,608.8827 610.89,608.8827 610.8897,165.4702 610.89,165.4702 Z M 476.443,476.065 L 476.443,476.065 Z M 314.2516,476.065 L 314.2516,476.065 Z" />
	<path style="fill:none;" d="M -11.9649,-87.2456 L -11.9649,745.4316 820.7122,745.4316 820.7122,-87.2456 -11.9649,-87.2456 Z" />
	<path style="fill:none;" d="M -12.3334,-87.6141 L -12.3334,745.8001 821.0808,745.8001 821.0808,-87.6141 -12.3334,-87.6141 Z" />
	<path style="fill-rule:evenodd;fill:#2d2c2b;" d="M 371.6438,760.8977 C 371.6392,761.3165 371.6368,761.7363 371.6368,762.1569 371.6368,801.0966 391.6533,832.6754 416.3355,832.6754 441.0178,832.6754 461.0342,801.0966 461.0342,762.1569 461.0342,761.7363 461.0319,761.3165 461.0272,760.8977 L 461.041,566.8993 371.6438,566.8993 371.6439,760.8977 371.6438,760.8977 Z" />
</g>
</svg>