<?xml version="1.0" encoding="utf-8"?>
<!-- Created by sK1 2.0rc4 (https://sk1project.net/) -->
<svg xmlns="http://www.w3.org/2000/svg" height="832.677165354pt" viewBox="0 0 832.677165354 832.677165354" width="832.677165354pt" version="1.1" xmlns:xlink="http://www.w3.org/1999/xlink" id="7f9c0cc2-b410-11ea-be2e-a0f3c11e789f">

<g>
	<path style="fill-rule:evenodd;fill:#2d2c2b;" d="M 416.3381,832.6791 L 521.8694,623.3347 627.4007,413.9903 525.0569,467.3039 433.7637,422.0839 338.2045,472.4231 292.1313,452.7994 253.7369,414.405 210.2233,420.3775 310.8069,623.3347 416.3381,832.6791 Z" />
	<g>
		<path style="fill:#2d2c2b;" d="M 430.6509,-0.0025 C 298.924,-0.0025 191.8384,107.083 191.8384,238.81 191.8384,258.755 194.2987,278.1319 198.9253,296.6591 L 223.853,280.7228 C 221.1313,267.1794 219.6966,253.1657 219.6966,238.81 219.6966,122.1385 313.9795,27.8536 430.6509,27.8536 547.3223,27.8536 641.6072,122.1385 641.6072,238.81 641.6072,253.1337 640.1771,267.117 637.4673,280.6323 L 663.5096,291.892 C 667.4005,274.8163 669.4654,257.0513 669.4654,238.81 669.4654,107.083 562.3778,-0.0025 430.6509,-0.0025 Z" />
		<path style="fill:#2d2c2b;" d="M 213.2116,273.3431 C 213.1353,273.3413 213.0453,273.3403 212.9551,273.3403 211.7348,273.3403 210.5513,273.5289 209.4242,273.8829 171.6217,284.7511 147.9148,306.4817 137.8781,333.0864 127.8414,359.691 132.396,388.8125 144.9914,410.4525 157.5868,432.0924 178.5213,447.5561 202.6379,448.0203 220.2556,448.3596 238.8124,439.9773 255.722,422.2928 262.7343,446.0881 272.7921,464.0995 285.6319,476.1158 303.4148,492.7582 325.4616,496.8394 346.207,492.5638 380.1285,485.5726 411.9719,458.5984 434.1719,425.3125 452.6342,459.0306 482.1652,479.8867 512.7191,483.266 545.3691,486.877 579.3927,468.8731 598.6339,428.8096 615.7787,441.8698 633.2699,446.1171 648.7818,441.7238 668.7355,436.0725 683.5137,418.1838 691.9164,397.2261 700.3192,376.2685 702.9422,351.4583 697.2187,328.2676 691.4952,305.0769 676.2841,283.9128 652.4656,274.5639 651.1335,274.0038 649.5981,273.6801 647.9992,273.6801 640.3724,273.6801 634.1874,281.0464 634.1874,290.1297 634.1874,297.4348 638.1878,303.6294 643.7214,305.7748 659.7766,312.0713 667.2241,323.4018 670.7152,337.5471 674.2063,351.6924 672.5975,369.0563 666.9851,383.0545 661.3727,397.0526 652.3518,406.8976 642.3929,409.7182 632.4339,412.5388 619.6686,409.9325 602.7262,391.3885 600.2746,388.6992 596.9884,387.0497 593.3793,387.0497 587.4546,387.0497 582.3999,391.495 580.4389,397.7373 567.5481,439.6959 542.1178,453.477 515.27,450.5077 488.4222,447.5383 460.8013,425.3657 448.9226,388.4331 446.8778,382.2016 441.8752,377.866 436.0241,377.866 430.9327,377.866 426.4838,381.1487 424.0885,386.0336 407.2941,420.8072 371.4768,453.9665 341.4982,460.1451 326.5088,463.2345 313.73,460.5784 302.6947,450.2507 291.6593,439.9231 281.5136,420.4659 276.0833,386.2394 274.8313,378.5642 269.2312,372.8469 262.512,372.8469 257.9583,372.8469 253.9185,375.473 251.4023,379.5226 234.2938,407.3195 217.4147,415.4093 203.0849,415.1335 188.7551,414.8577 175.6192,405.3233 167.6955,391.7098 159.7719,378.0963 157.3584,361.7136 163.0715,346.5697 168.7846,331.4258 183.5396,315.1665 216.0014,305.8352 222.2107,304.1214 226.7698,297.5885 226.7698,289.7899 226.7698,280.8128 220.7285,273.5128 213.2249,273.3433 Z" />
		<path style="fill:#2d2c2b;" d="M 395.6519,58.0366 C 395.5326,58.033 395.3925,58.0309 395.2518,58.0309 394.0722,58.0309 392.9269,58.1776 391.8329,58.4537 355.5252,66.8911 317.9466,91.5729 290.9284,126.6087 263.9101,161.6444 247.7181,207.9609 258.0337,257.8532 259.3218,264.3221 264.955,269.1317 271.7093,269.1317 279.4015,269.1317 285.6396,262.8935 285.6396,255.2013 285.6396,254.1443 285.5218,253.1148 285.2987,252.1251 276.8492,211.2657 289.857,173.618 312.9877,143.6234 336.1184,113.6288 369.6392,92.2114 398.2325,85.568 404.5374,84.1492 409.1786,78.5961 409.1786,71.9611 409.1786,64.4108 403.1685,58.2614 395.6725,58.0371 Z" />
	</g>
</g>
</svg>