<?xml version="1.0" encoding="utf-8"?>
<!-- Created by sK1 2.0rc4 (https://sk1project.net/) -->
<svg xmlns="http://www.w3.org/2000/svg" height="832.677165354pt" viewBox="0 0 832.677165354 832.677165354" width="832.677165354pt" version="1.1" xmlns:xlink="http://www.w3.org/1999/xlink" id="44943b0c-b377-11ea-be2e-a0f3c11e789f">

<g>
	<g>
		<path style="fill-rule:evenodd;fill:#2d2c2b;" d="M 830.1739,416.3383 C 830.1739,187.818 644.8585,2.5025 416.3381,2.5025 187.8178,2.5025 2.5024,187.818 2.5024,416.3383 2.5024,644.8587 187.8178,830.1741 416.3381,830.1741 644.8585,830.1741 830.1739,644.8587 830.1739,416.3383 Z M 287.4921,332.3276 L 95.2608,165.4472 247.7607,46.251 355.3542,275.1014 C 374.0538,267.013 394.6754,262.5306 416.3419,262.5306 501.2732,262.5306 570.1497,331.407 570.1497,416.3383 570.1497,443.223 563.2482,468.499 551.1205,490.4908 L 762.784,638.1379 623.7294,772.7773 489.561,551.6272 C 467.7887,563.4381 442.8471,570.1461 416.3419,570.1461 331.4106,570.1461 262.5342,501.2697 262.5342,416.3383 262.5342,385.3399 271.7094,356.4801 287.4916,332.3272 L 287.4921,332.3276 Z M 515.1571,534.1989 C 527.479,526.4901 528.3491,525.6769 531.4015,518.4005 526.3819,524.0535 520.9507,529.3367 515.1557,534.2005 L 515.1571,534.1989 Z" />
		<path style="fill-rule:evenodd;fill:#2d2c2b;" d="M 506.7255,416.3385 C 506.7255,366.4261 466.2518,325.9524 416.3394,325.9524 366.427,325.9524 325.9533,366.4261 325.9533,416.3385 325.9533,466.2509 366.427,506.7246 416.3394,506.7246 466.2518,506.7246 506.7255,466.2509 506.7255,416.3385 Z M 464.2058,416.3385 C 464.2058,442.7679 442.7689,464.2049 416.3394,464.2049 389.91,464.2049 368.473,442.7679 368.473,416.3385 368.473,389.909 389.91,368.4721 416.3394,368.4721 442.7689,368.4721 464.2058,389.909 464.2058,416.3385 Z" />
		<path style="fill-rule:evenodd;fill:#2d2c2b;" d="M 584.3204,416.3397 C 584.3204,323.5807 509.0983,248.3587 416.3394,248.3587 323.5804,248.3587 248.3584,323.5807 248.3584,416.3397 248.3584,509.0987 323.5804,584.3207 416.3394,584.3207 509.0983,584.3207 584.3204,509.0987 584.3204,416.3397 Z M 555.9739,416.3397 C 555.9739,493.4434 493.443,555.9742 416.3394,555.9742 339.2357,555.9742 276.7048,493.4434 276.7048,416.3397 276.7048,339.2361 339.2357,276.7052 416.3394,276.7052 493.443,276.7052 555.9739,339.2361 555.9739,416.3397 Z" />
		<path style="fill-rule:evenodd;fill:#2d2c2b;" d="M 831.4505,416.3396 C 831.4505,187.118 645.5618,1.2294 416.3402,1.2294 187.1186,1.2294 1.2299,187.118 1.2299,416.3396 1.2299,645.5613 187.1186,831.4499 416.3402,831.4499 645.5618,831.4499 831.4505,645.5613 831.4505,416.3396 Z M 803.104,416.3396 C 803.104,629.9059 629.9065,803.1035 416.3402,803.1035 202.7739,803.1035 29.5764,629.9059 29.5764,416.3396 29.5764,202.7733 202.7739,29.5758 416.3402,29.5758 629.9065,29.5758 803.104,202.7733 803.104,416.3396 Z" />
	</g>
</g>
</svg>