<?xml version="1.0" encoding="utf-8"?>
<!-- Created by sK1 2.0rc4 (https://sk1project.net/) -->
<svg xmlns="http://www.w3.org/2000/svg" height="832.677165354pt" viewBox="0 0 832.677165354 832.677165354" width="832.677165354pt" version="1.1" xmlns:xlink="http://www.w3.org/1999/xlink" id="d828131a-b378-11ea-be2e-a0f3c11e789f">

<g>
	<path style="fill-rule:evenodd;fill:#2d2c2b;" d="M 229.5101,225.8272 C 226.9842,225.8272 224.9345,227.8718 224.9345,230.3914 L 224.9345,380.1652 C 224.9345,382.6848 226.9842,384.7294 229.5101,384.7294 L 379.1807,384.7294 C 381.7066,384.7294 383.7563,382.6848 383.7563,380.1652 L 383.7563,230.3914 C 383.7563,227.8718 381.7066,225.8272 379.1807,225.8272 L 229.5101,225.8272 Z" />
	<path style="fill-rule:evenodd;fill:#2d2c2b;" d="M 454.1092,225.8272 C 451.5833,225.8272 449.5336,227.8718 449.5336,230.3914 L 449.5336,380.1652 C 449.5336,382.6848 451.5833,384.7294 454.1092,384.7294 L 603.7591,384.7294 C 606.285,384.7294 608.3347,382.6848 608.3347,380.1652 L 608.3347,230.3914 C 608.3347,227.8718 606.285,225.8272 603.7591,225.8272 L 454.1092,225.8272 Z" />
	<path style="fill-rule:evenodd;fill:#2d2c2b;" d="M 229.5101,449.9715 C 226.9842,449.9715 224.9345,452.0161 224.9345,454.5357 L 224.9345,604.3095 C 224.9345,606.8291 226.9842,608.8737 229.5101,608.8737 L 379.1807,608.8737 C 381.7066,608.8737 383.7563,606.8291 383.7563,604.3095 L 383.7563,454.5357 C 383.7563,452.0161 381.7066,449.9715 379.1807,449.9715 L 229.5101,449.9715 Z" />
	<path style="fill-rule:evenodd;fill:#2d2c2b;" d="M 4.2071,449.9715 C 1.6811,449.9715 -0.3686,452.0161 -0.3686,454.5357 L -0.3686,604.3095 C -0.3686,606.8291 1.6811,608.8737 4.2071,608.8737 L 153.857,608.8737 C 156.3829,608.8737 158.4326,606.8291 158.4326,604.3095 L 158.4326,454.5357 C 158.4326,452.0161 156.3829,449.9715 153.857,449.9715 L 4.2071,449.9715 Z" />
	<path style="fill-rule:evenodd;fill:#2d2c2b;" d="M 454.1092,449.9715 C 451.5833,449.9715 449.5336,452.0161 449.5336,454.5357 L 449.5336,604.3095 C 449.5336,606.8291 451.5833,608.8737 454.1092,608.8737 L 603.7591,608.8737 C 606.285,608.8737 608.3347,606.8291 608.3347,604.3095 L 608.3347,454.5357 C 608.3347,452.0161 606.285,449.9715 603.7591,449.9715 L 454.1092,449.9715 Z" />
	<path style="fill-rule:evenodd;fill:#2d2c2b;" d="M 158.9295,679.1757 C 158.9295,676.6561 156.8798,674.6114 154.3539,674.6114 L 4.2071,674.6114 C 1.6811,674.6114 -0.3686,676.6561 -0.3686,679.1757 L -0.3686,828.4538 C -0.3686,830.9734 1.6811,833.018 4.2071,833.018 L 154.3539,833.018 C 156.8798,833.018 158.9295,830.9734 158.9295,828.4538 L 158.9295,679.1757 Z" />
	<path style="fill-rule:evenodd;fill:#2d2c2b;" d="M 229.5101,674.1158 C 226.9842,674.1158 224.9345,676.1604 224.9345,678.68 L 224.9345,828.4538 C 224.9345,830.9734 226.9842,833.018 229.5101,833.018 L 379.1807,833.018 C 381.7066,833.018 383.7563,830.9734 383.7563,828.4538 L 383.7563,678.68 C 383.7563,676.1604 381.7066,674.1158 379.1807,674.1158 L 229.5101,674.1158 Z" />
	<path style="fill-rule:evenodd;fill:#2d2c2b;" d="M 454.1092,674.1158 C 451.5833,674.1158 449.5336,676.1604 449.5336,678.68 L 449.5336,828.4538 C 449.5336,830.9734 451.5833,833.018 454.1092,833.018 L 603.7591,833.018 C 606.285,833.018 608.3347,830.9734 608.3347,828.4538 L 608.3347,678.68 C 608.3347,676.1604 606.285,674.1158 603.7591,674.1158 L 454.1092,674.1158 Z" />
	<path style="fill-rule:evenodd;fill:#2d2c2b;" d="M 229.5101,0.4442 C 226.9842,0.4442 224.9345,2.4889 224.9345,5.0085 L 224.9345,154.7823 C 224.9345,157.3019 226.9842,159.3465 229.5101,159.3465 L 379.1807,159.3465 C 381.7066,159.3465 383.7563,157.3019 383.7563,154.7823 L 383.7563,5.0085 C 383.7563,2.4889 381.7066,0.4442 379.1807,0.4442 L 229.5101,0.4442 Z" />
	<path style="fill-rule:evenodd;fill:#2d2c2b;" d="M 678.7912,674.1158 C 676.2653,674.1158 674.2156,676.1604 674.2156,678.68 L 674.2156,828.4538 C 674.2156,830.9734 676.2653,833.018 678.7912,833.018 L 828.4412,833.018 C 830.9671,833.018 833.0168,830.9734 833.0168,828.4538 L 833.0168,678.68 C 833.0168,676.1604 830.9671,674.1158 828.4412,674.1158 L 678.7912,674.1158 Z" />
</g>
</svg>