<?xml version="1.0" encoding="utf-8"?>
<!-- Created by sK1 2.0rc4 (https://sk1project.net/) -->
<svg xmlns="http://www.w3.org/2000/svg" height="832.677165354pt" viewBox="0 0 832.677165354 832.677165354" width="832.677165354pt" version="1.1" xmlns:xlink="http://www.w3.org/1999/xlink" id="12811f94-b341-11ea-be2e-a0f3c11e789f">

<g>
	<path style="fill-rule:evenodd;fill:#2d2c2b;" d="M 455.7422,424.841 C 455.7422,403.0833 438.0974,385.4385 416.3397,385.4385 394.582,385.4385 376.9372,403.0833 376.9372,424.841 376.9372,446.5987 394.582,464.2435 416.3397,464.2435 438.0974,464.2435 455.7422,446.5987 455.7422,424.841 Z" />
	<g>
		<path style="fill-rule:evenodd;fill:#2d2c2b;" d="M 407.912,302.4939 C 395.2892,278.6351 386.5319,252.7678 384.42,233.092 382.2122,212.6415 384.1485,190.1653 390.7974,158.9943 393.1355,148.076 394.9747,139.1208 394.9013,139.0936 394.1188,138.8522 385.8738,149.496 381.9375,155.8573 378.284,161.7631 373.3196,171.798 370.4285,179.0944 367.0884,187.5595 361.2947,214.3115 360.7484,223.7556 359.545,244.9608 361.9513,267.4055 367.3159,285.0753 372.6523,302.6408 383.8899,325.1793 398.4642,347.5965 400.2134,350.3002 402.3683,353.6324 403.2411,355.0127 L 404.8236,357.5183 400.9009,355.9238 C 386.0898,349.901 364.3152,336.8585 349.5751,325.1901 316.7962,299.2488 297.0323,268.9005 291.5319,236.078 288.8326,219.9603 287.6883,196.5617 290.8018,179.1807 306.2302,104.3473 338.6343,77.6788 473.7248,12.7167 460.6859,35.0063 457.9573,67.6235 467.651,80.3172 513.457,141.5445 518.5517,184.3322 513.7587,227.0984 511.9722,243.1364 503.2512,272.051 493.9912,292.6058 480.9102,322.8319 464.8043,347.4314 435.3638,355.8284 L 407.912,302.4939 Z" />
		<path style="fill-rule:evenodd;fill:#2d2c2b;" d="M 371.1355,550.21 C 373.6393,577.0033 371.7936,604.2115 366.1798,623.2079 360.3568,642.957 349.9198,663.0329 331.7774,689.3944 325.4142,698.6247 320.2677,706.2247 320.3252,706.2773 320.9564,706.7929 332.6802,700.023 338.7696,695.6067 344.4221,691.5062 352.8759,684.0744 358.3577,678.4023 364.7046,671.8165 380.3558,649.2247 384.494,640.6893 393.7639,621.5159 400.1703,599.8473 402.0025,581.4922 403.8206,563.2441 402.0908,538.19 397.2265,512.0018 396.6477,508.8464 395.9354,504.958 395.6586,503.3548 L 395.158,500.445 398.1746,503.3857 C 409.564,514.4913 424.6971,534.6937 433.8492,550.9972 454.2042,587.2463 460.8202,622.7122 453.2853,655.14 449.5837,671.0632 441.6425,693.1433 432.0759,708.0644 389.015,771.5511 348.7711,784.1261 198.7739,793.7821 219.4133,778.0261 234.4841,748.8618 230.3963,733.4946 211.5587,659.7267 223.3019,618.2287 244.1868,580.4439 252.0089,566.27 271.2008,542.7705 287.676,527.2081 311.4071,504.1235 335.7731,487.3753 366.2466,490.6015 L 371.1355,550.21 Z" />
		<path style="fill-rule:evenodd;fill:#2d2c2b;" d="M 303.4154,465.6422 C 283.6117,484.166 260.785,499.5801 242.1702,506.9948 222.826,514.7135 200.3653,519.0636 168.1252,521.3412 156.8299,522.1304 147.587,522.852 147.5806,522.929 147.5605,523.7367 160.2133,528.6194 167.5025,530.5983 174.2695,532.4346 185.4257,534.3767 193.3396,535.1081 202.5172,535.9432 230.2109,534.0712 239.575,531.9902 260.594,527.2956 281.8291,518.8401 297.5918,508.8958 313.2605,499.0068 332.1572,482.1587 350.0174,462.1828 352.1739,459.7817 354.8319,456.8233 355.9383,455.6166 L 357.9474,453.428 357.471,457.583 C 355.6706,473.2723 348.9376,497.4902 341.6097,514.6656 325.3204,552.8582 301.1505,579.933 270.6421,594.1753 255.6603,601.1674 233.1472,608.6898 215.3334,610.5225 138.0802,616.4965 103.1461,593.1349 2.5977,483.025 27.9313,489.2449 60.5037,482.8552 70.2205,470.1787 117.3505,409.9351 157.6927,393.3351 200.7346,386.1086 216.873,383.3883 247.4819,383.6946 270.0833,386.8117 303.1714,390.8877 331.6025,399.3777 347.8953,424.9592 L 303.4154,465.6422 Z" />
		<path style="fill-rule:evenodd;fill:#2d2c2b;" d="M 304.7832,359.6838 C 277.5372,357.924 250.5569,351.8659 232.397,343.4267 213.5154,334.6659 195.0291,321.3633 171.4499,299.5768 163.1955,291.9379 156.3845,285.7385 156.3227,285.7862 155.7071,286.3198 160.6559,298.7907 164.1284,305.4091 167.3528,311.5527 173.4772,320.9446 178.3034,327.1684 183.91,334.3772 204.1012,353.1488 212.0075,358.5132 229.7722,370.5386 250.4862,380.1677 268.5956,384.826 286.6,389.4538 311.9816,391.6945 338.9907,391.0621 342.2438,390.9931 346.2526,390.9088 347.9028,390.8906 L 350.8975,390.8591 347.4777,393.3344 C 334.5631,402.6799 311.9448,414.2442 294.1711,420.5981 254.6521,434.7312 218.07,435.6153 186.7493,423.2025 171.37,417.1057 150.4841,405.9183 137.0277,394.2703 80.1428,342.4161 73.843,301.2782 87.6597,153.7774 100.2185,176.3331 127.0878,195.5693 143.13,193.9976 220.0146,187.218 259.7667,205.1473 294.3654,231.3924 307.3461,241.2255 327.8925,263.5853 340.9093,282.0578 360.3289,308.7704 373.2983,335.1085 365.2916,364.2622 L 304.7832,359.6838 Z" />
		<path style="fill-rule:evenodd;fill:#2d2c2b;" d="M 515.6754,342.1051 C 526.1301,317.249 540.6295,294.0231 554.5796,279.7933 569.0708,264.9935 587.7989,252.0234 616.3169,237.0303 626.3118,231.7855 634.4593,227.4245 634.4334,227.3515 634.1187,226.6054 620.5442,227.2116 613.068,228.3228 606.1277,229.3552 595.1335,232.0487 587.6011,234.55 578.8711,237.4625 554.3398,250.2642 546.6422,255.9159 529.3735,268.6234 513.4585,284.8537 503.1576,300.2526 492.9196,315.5633 482.6025,338.5253 474.5224,363.93 473.5423,366.9875 472.3338,370.7551 471.8206,372.3007 L 470.8876,375.1051 469.6091,371.1179 C 464.7836,356.0617 460.9474,331.2376 460.5594,312.6098 459.6912,271.1899 470.6087,236.772 492.61,211.5404 503.415,199.1516 520.8826,183.2621 536.4029,174.4532 604.5245,138.0551 646.0782,145.4093 783.3599,205.7461 757.6476,210.209 730.5218,229.0924 726.8718,244.5663 708.6555,318.4856 678.6415,349.8098 642.295,373.6507 628.6715,382.5996 600.5782,394.5786 578.642,400.7823 546.7287,410.3097 517.2501,413.9391 491.8131,397.0909 L 515.6754,342.1051 Z" />
		<path style="fill-rule:evenodd;fill:#2d2c2b;" d="M 543.4725,459.3078 C 568.7596,449.1576 595.7139,442.9879 615.7904,442.7583 636.6587,442.5072 659.1856,446.5114 690.0556,455.9535 700.8677,459.2698 709.7431,461.9128 709.7775,461.8433 710.0946,461.0982 700.113,452.0123 694.0546,447.5547 688.43,443.4173 678.7564,437.607 671.6554,434.0873 663.4157,430.0177 636.9301,421.8284 627.4397,420.4081 606.1283,417.2419 583.2267,417.5011 564.8723,421.1098 546.6257,424.7006 522.8024,433.6154 498.7892,445.8153 495.8937,447.2783 492.3254,449.0804 490.8492,449.8075 L 488.1695,451.1255 490.1478,447.4263 C 497.6196,433.4589 512.8356,413.317 526.0046,399.9479 555.2829,370.2173 587.7951,353.6686 621.4714,351.3455 638.0081,350.2064 661.7554,351.2748 679.0242,355.9569 753.1852,378.101 777.0947,412.39 830.0777,551.0111 808.7791,536.1314 776.0807,530.4002 762.3484,538.7222 696.2001,577.9296 652.4937,578.9216 609.735,570.2147 593.6987,566.9601 565.3024,555.6964 545.4025,544.6867 516.0894,529.0225 492.7441,510.9175 487.0172,481.247 L 543.4725,459.3078 Z" />
		<path style="fill-rule:evenodd;fill:#2d2c2b;" d="M 474.1254,538.7376 C 497.4999,552.6445 518.6331,570.2483 530.8226,585.9703 543.5028,602.3048 553.7131,622.4936 564.4878,652.5239 568.254,663.0473 571.4102,671.6385 571.4872,671.6241 572.2829,671.4292 573.7065,658.1123 573.7107,650.6617 573.7136,643.745 572.6567,632.6298 571.2746,624.9163 569.659,615.9744 560.4863,590.1565 555.968,581.8106 545.8027,563.083 531.9003,545.1471 517.9917,532.8056 504.1621,520.5387 482.6676,507.0494 458.3874,495.3741 455.4662,493.9615 451.867,492.2201 450.393,491.4887 L 447.7189,490.1598 451.9107,489.511 C 467.7396,487.0629 493.221,487.0409 511.9692,489.4511 553.6577,494.8049 586.5566,510.5939 608.5795,535.8073 619.3925,548.1893 632.7206,567.5869 639.2359,584.0275 665.5593,655.8488 651.9607,695.2352 570.8735,819.9624 570.2443,794.242 555.3579,764.9859 540.3785,759.1134 468.9386,730.3003 442.0021,696.368 423.5217,657.3858 416.5821,642.7724 408.7681,613.6071 405.827,591.3053 401.0445,558.7851 401.8153,529.5197 422.5273,507.2575 L 474.1254,538.7376 Z" />
	</g>
</g>
</svg>