<?xml version="1.0" encoding="utf-8"?>
<!-- Created by sK1 2.0rc4 (https://sk1project.net/) -->
<svg xmlns="http://www.w3.org/2000/svg" height="832.677165354pt" viewBox="0 0 832.677165354 832.677165354" width="832.677165354pt" version="1.1" xmlns:xlink="http://www.w3.org/1999/xlink" id="e49ed538-b342-11ea-be2e-a0f3c11e789f">

<g>
	<g>
		<path style="fill-rule:evenodd;fill:#2d2c2b;" d="M 661.8252,593.8449 C 683.27,588.9269 703.7346,581.0268 716.7293,572.647 730.2429,563.9439 742.629,552.1053 757.5661,533.6217 762.793,527.1426 767.1245,521.8693 767.1824,521.8945 767.7694,522.1859 766.046,531.6109 764.4557,536.7271 762.9787,541.4764 759.7661,548.8985 757.0242,553.9206 753.835,559.7398 741.0648,575.6487 735.7093,580.4838 723.6712,591.328 708.8494,600.8885 695.2192,606.6068 681.6675,612.2895 661.7975,617.2932 640.1143,620.4996 637.5039,620.8908 634.2873,621.3735 632.9661,621.5837 L 630.5689,621.9664 633.7425,623.2421 C 645.7267,628.0583 665.8572,633.1208 681.1874,635.1798 715.2745,639.7617 744.648,635.4381 767.4431,622.4897 778.6358,616.1304 793.3164,605.4526 801.9812,595.4556 838.1433,551.3593 835.8219,521.6241 798.4248,419.9282 792.4264,437.4624 774.4058,454.6 761.3132,455.6648 698.6991,461.2961 670.1565,479.2574 647.2157,502.3609 638.6064,511.0193 626.1938,529.4956 619.0998,544.2248 608.365,565.6049 602.7147,585.8503 614.3196,605.2376 L 661.8252,593.8449 Z" />
		<path style="fill-rule:evenodd;fill:#2d2c2b;" d="M 595.4019,823.599 C 599.6731,829.3799 608.5386,831.2006 615.2035,827.6657 621.8684,824.1308 623.8089,816.5788 619.5377,810.798 598.2652,782.0067 590.2317,756.0861 587.6925,730.9025 586.4094,718.1779 586.5197,705.5366 587.1248,692.5604 587.4327,685.9572 587.8516,679.5387 588.2758,672.9136 588.7001,666.2885 589.1313,659.4201 589.4205,652.716 590.6019,625.3311 589.7136,596.0436 577.9451,563.7241 566.16,531.3594 543.7715,496.76 503.2541,458.085 497.914,452.9877 488.8478,452.4747 483.0042,456.9392 477.1606,461.4037 476.7525,469.155 482.0926,474.2523 520.2845,510.7077 540.2647,542.2102 550.5925,570.573 560.9368,598.981 561.9057,625.0466 560.7733,651.2944 560.4841,657.9985 560.0762,664.4309 559.652,671.056 559.2277,677.6811 558.7888,684.4626 558.4808,691.0658 557.8542,704.5026 557.7006,718.3011 559.1323,732.4997 562.0223,761.1625 571.3322,791.022 595.4019,823.599 Z" />
		<path style="fill-rule:evenodd;fill:#2d2c2b;" d="M 251.0833,277.9665 C 169.1649,237.7197 -2.3068,357.3377 5.0814,394.6893 12.4696,432.0409 204.6043,485.5732 277.8429,413.2515 351.0815,340.9298 295.1798,377.2265 287.7916,339.8749 280.4034,302.5232 333.0016,318.2132 251.0833,277.9665 Z" />
		<path style="fill-rule:evenodd;fill:#2d2c2b;" d="M 355.1448,186.6856 C 361.5955,96.3701 184.6535,-15.1657 152.5695,5.8016 120.4854,26.7688 143.5301,223.0611 238.9386,262.6277 334.3471,302.1942 279.1844,264.8056 311.2684,243.8384 343.3524,222.8711 348.694,277.0011 355.1448,186.6856 Z" />
		<path style="fill-rule:evenodd;fill:#2d2c2b;" d="M 467.5341,262.8542 C 557.8059,248.367 626.8995,52.2805 598.9308,26.1677 570.9621,0.055 383.2616,67.2609 366.2333,168.2757 349.2051,269.2906 373.3179,207.5597 401.2867,233.6724 429.2554,259.7851 377.2624,277.3415 467.5341,262.8542 Z" />
		<path style="fill-rule:evenodd;fill:#2d2c2b;" d="M 444.3213,401.2777 C 499.7326,473.3054 706.9932,441.3341 717.0936,404.6101 727.194,367.8862 578.9343,235.5794 480.9042,268.266 382.874,300.9525 449.2345,292.9498 439.1341,329.6738 429.0337,366.3977 388.91,329.2499 444.3213,401.2777 Z" />
		<path style="fill-rule:evenodd;fill:#2d2c2b;" d="M 295.6999,416.6799 C 244.8608,491.9406 342.6468,675.6699 381.01,673.2149 419.3732,670.7598 497.6811,488.9897 434.6488,407.7878 371.6164,326.586 400.7912,386.1369 362.428,388.5919 324.0648,391.047 346.539,341.4191 295.6999,416.6799 Z" />
		<path style="fill-rule:evenodd;fill:#2d2c2b;" d="M 391.3371,311.7932 C 392.6226,294.0768 379.1535,278.6771 361.2592,277.4043 343.3649,276.1316 327.8107,289.4668 326.5251,307.1832 325.2395,324.8997 338.7086,340.2993 356.603,341.5721 374.4973,342.8449 390.0515,329.5097 391.3371,311.7932 Z" />
	</g>
</g>
</svg>