<?xml version="1.0" encoding="utf-8"?>
<!-- Created by sK1 2.0rc4 (https://sk1project.net/) -->
<svg xmlns="http://www.w3.org/2000/svg" height="832.677165354pt" viewBox="0 0 832.677165354 832.677165354" width="832.677165354pt" version="1.1" xmlns:xlink="http://www.w3.org/1999/xlink" id="f6e26f8c-b33f-11ea-be2e-a0f3c11e789f">

<g>
	<path style="fill-rule:evenodd;fill:#2d2c2b;" d="M 321.9384,496.1444 L 321.9384,496.1444 Z" />
	<path style="fill-rule:evenodd;fill:#2d2c2b;" d="M 380.4812,699.3273 C 418.9808,768.9932 485.3574,835.5272 516.5222,826.9472 545.086,819.0833 570.5705,740.8237 574.1541,666.1458 640.2462,691.584 713.2571,700.5864 731.0247,678.6345 752.2811,652.3723 716.9601,554.0204 666.2725,489.0276 742.2551,461.2311 820.9935,402.7641 816.7028,369.9593 812.8159,340.2422 737.1464,303.6937 662.8495,290.1911 697.8746,224.1524 716.5598,144.688 695.0864,123.8558 670.3742,99.8816 565.8318,127.7111 496.5123,173.9155 476.7393,93.4015 422.053,3.3445 387.6946,5.0086 348.8142,6.8918 288.5708,128.5242 285.2824,215.4944 208.6513,174.3055 76.3188,160.3365 55.3358,193.219 34.4015,226.0251 98.7881,345.4447 167.8334,398.4238 90.2204,436.3183 4.3147,527.6286 17.0779,563.1884 28.0274,593.695 122.7091,614.1337 202.6664,607.2805 185.92,685.4301 192.5889,780.1595 221.9511,794.1112 250.4557,807.6555 328.5173,758.4569 380.4814,699.3273 L 380.4812,699.3273 Z M 400.8599,538.5005 C 417.4796,568.5742 446.1334,597.2959 459.5867,593.592 471.9173,590.1973 482.9186,556.4138 484.4655,524.1765 512.9965,535.1578 544.5142,539.044 552.1842,529.5677 561.3603,518.2307 546.1127,475.7737 524.2317,447.7173 557.0322,435.718 591.0223,410.4787 589.1701,396.3174 587.4922,383.4889 554.8268,367.7115 522.754,361.8826 537.8738,333.3748 545.9399,299.0712 536.6702,290.0782 526.0023,279.729 480.873,291.7425 450.9488,311.6883 442.4131,276.9316 418.8058,238.0554 403.9739,238.7738 387.1898,239.5867 361.1836,292.0935 359.7641,329.6372 326.6836,311.8566 269.5577,305.8264 260.4996,320.0213 251.4626,334.1832 279.2573,385.7348 309.0631,408.6051 275.5588,424.9635 238.4746,464.3808 243.9843,479.7314 248.711,492.9006 289.5837,501.7237 324.1,498.7653 316.8708,532.5012 319.7497,573.3945 332.4249,579.4172 344.7299,585.2641 378.4279,564.0258 400.86,538.5005 L 400.8599,538.5005 Z" />
	<path style="fill-rule:evenodd;fill:#2d2c2b;" d="M 467.2915,416.3381 C 467.2915,388.2029 444.4748,365.3862 416.3396,365.3862 388.2044,365.3862 365.3877,388.2029 365.3877,416.3381 365.3877,444.4733 388.2044,467.29 416.3396,467.29 444.4748,467.29 467.2915,444.4733 467.2915,416.3381 Z" />
</g>
</svg>