<?xml version="1.0" encoding="UTF-8"?>
<!DOCTYPE svg PUBLIC "-//W3C//DTD SVG 1.1//EN" "http://www.w3.org/Graphics/SVG/1.1/DTD/svg11.dtd">
<svg version="1.2" width="293.75mm" height="293.75mm" viewBox="0 0 29375 29375" preserveAspectRatio="xMidYMid" fill-rule="evenodd" stroke-width="28.222" stroke-linejoin="round" xmlns="http://www.w3.org/2000/svg" xmlns:ooo="http://xml.openoffice.org/svg/export" xmlns:xlink="http://www.w3.org/1999/xlink" xmlns:presentation="http://sun.com/xmlns/staroffice/presentation" xmlns:smil="http://www.w3.org/2001/SMIL20/" xmlns:anim="urn:oasis:names:tc:opendocument:xmlns:animation:1.0" xml:space="preserve">
 <defs class="ClipPathGroup">
  <clipPath id="presentation_clip_path" clipPathUnits="userSpaceOnUse">
   <rect x="0" y="0" width="29375" height="29375"/>
  </clipPath>
  <clipPath id="presentation_clip_path_shrink" clipPathUnits="userSpaceOnUse">
   <rect x="29" y="29" width="29317" height="29317"/>
  </clipPath>
 </defs>
 <defs class="TextShapeIndex">
  <g ooo:slide="id1" ooo:id-list="id3"/>
 </defs>
 <defs class="EmbeddedBulletChars">
  <g id="bullet-char-template-57356" transform="scale(0.00048828125,-0.00048828125)">
   <path d="M 580,1141 L 1163,571 580,0 -4,571 580,1141 Z"/>
  </g>
  <g id="bullet-char-template-57354" transform="scale(0.00048828125,-0.00048828125)">
   <path d="M 8,1128 L 1137,1128 1137,0 8,0 8,1128 Z"/>
  </g>
  <g id="bullet-char-template-10146" transform="scale(0.00048828125,-0.00048828125)">
   <path d="M 174,0 L 602,739 174,1481 1456,739 174,0 Z M 1358,739 L 309,1346 659,739 1358,739 Z"/>
  </g>
  <g id="bullet-char-template-10132" transform="scale(0.00048828125,-0.00048828125)">
   <path d="M 2015,739 L 1276,0 717,0 1260,543 174,543 174,936 1260,936 717,1481 1274,1481 2015,739 Z"/>
  </g>
  <g id="bullet-char-template-10007" transform="scale(0.00048828125,-0.00048828125)">
   <path d="M 0,-2 C -7,14 -16,27 -25,37 L 356,567 C 262,823 215,952 215,954 215,979 228,992 255,992 264,992 276,990 289,987 310,991 331,999 354,1012 L 381,999 492,748 772,1049 836,1024 860,1049 C 881,1039 901,1025 922,1006 886,937 835,863 770,784 769,783 710,716 594,584 L 774,223 C 774,196 753,168 711,139 L 727,119 C 717,90 699,76 672,76 641,76 570,178 457,381 L 164,-76 C 142,-110 111,-127 72,-127 30,-127 9,-110 8,-76 1,-67 -2,-52 -2,-32 -2,-23 -1,-13 0,-2 Z"/>
  </g>
  <g id="bullet-char-template-10004" transform="scale(0.00048828125,-0.00048828125)">
   <path d="M 285,-33 C 182,-33 111,30 74,156 52,228 41,333 41,471 41,549 55,616 82,672 116,743 169,778 240,778 293,778 328,747 346,684 L 369,508 C 377,444 397,411 428,410 L 1163,1116 C 1174,1127 1196,1133 1229,1133 1271,1133 1292,1118 1292,1087 L 1292,965 C 1292,929 1282,901 1262,881 L 442,47 C 390,-6 338,-33 285,-33 Z"/>
  </g>
  <g id="bullet-char-template-9679" transform="scale(0.00048828125,-0.00048828125)">
   <path d="M 813,0 C 632,0 489,54 383,161 276,268 223,411 223,592 223,773 276,916 383,1023 489,1130 632,1184 813,1184 992,1184 1136,1130 1245,1023 1353,916 1407,772 1407,592 1407,412 1353,268 1245,161 1136,54 992,0 813,0 Z"/>
  </g>
  <g id="bullet-char-template-8226" transform="scale(0.00048828125,-0.00048828125)">
   <path d="M 346,457 C 273,457 209,483 155,535 101,586 74,649 74,723 74,796 101,859 155,911 209,963 273,989 346,989 419,989 480,963 531,910 582,859 608,796 608,723 608,648 583,586 532,535 482,483 420,457 346,457 Z"/>
  </g>
  <g id="bullet-char-template-8211" transform="scale(0.00048828125,-0.00048828125)">
   <path d="M -4,459 L 1135,459 1135,606 -4,606 -4,459 Z"/>
  </g>
  <g id="bullet-char-template-61548" transform="scale(0.00048828125,-0.00048828125)">
   <path d="M 173,740 C 173,903 231,1043 346,1159 462,1274 601,1332 765,1332 928,1332 1067,1274 1183,1159 1299,1043 1357,903 1357,740 1357,577 1299,437 1183,322 1067,206 928,148 765,148 601,148 462,206 346,322 231,437 173,577 173,740 Z"/>
  </g>
 </defs>
 <defs class="TextEmbeddedBitmaps"/>
 <g>
  <g id="id2" class="Master_Slide">
   <g id="bg-id2" class="Background"/>
   <g id="bo-id2" class="BackgroundObjects"/>
  </g>
 </g>
 <g class="SlideGroup">
  <g>
   <g id="container-id1">
    <g id="id1" class="Slide" clip-path="url(#presentation_clip_path)">
     <g class="Page">
      <g class="Graphic">
       <g id="id3">
        <rect class="BoundingBox" stroke="none" fill="none" x="-13" y="-13" width="29401" height="29401"/>
        <path fill="rgb(0,0,0)" stroke="none" d="M 15764,16552 C 15420,16750 15083,16841 14687,16841 14291,16841 13954,16750 13610,16552 13600,16546 13592,16541 13582,16535 13252,16338 13014,16097 12822,15764 12624,15420 12533,15083 12533,14687 12533,14291 12624,13954 12822,13610 12828,13600 12833,13592 12839,13582 13036,13252 13277,13014 13610,12822 13954,12624 14291,12533 14687,12533 15083,12533 15420,12624 15764,12822 15774,12828 15782,12833 15792,12839 16122,13036 16360,13277 16552,13610 16750,13954 16841,14291 16841,14687 16841,15083 16750,15420 16552,15764 16546,15774 16541,15782 16535,15792 16338,16122 16097,16360 15764,16552 Z"/>
        <path fill="rgb(0,0,0)" stroke="none" d="M 23149,4860 C 21490,4842 19725,5238 17509,6127 15293,7016 13291,8130 11113,9688 L 11113,9688 C 8934,11245 7232,12779 5674,14588 4117,16397 3170,17939 2651,19515 2131,21091 2195,22228 2852,23148 L 2853,23148 C 3511,24068 4566,24496 6225,24514 7884,24532 9649,24136 11865,23247 14081,22358 16083,21244 18261,19686 L 18261,19686 C 20440,18129 22142,16595 23700,14786 25257,12977 26204,11435 26723,9859 27243,8283 27180,7146 26522,6226 L 26521,6226 C 25863,5305 24808,4878 23149,4860 Z M 24814,7446 C 24913,7584 24981,7711 25043,7873 25105,8035 25143,8183 25168,8368 25194,8553 25200,8719 25189,8926 25177,9133 25152,9316 25104,9542 25056,9768 25000,9966 24916,10209 24896,10266 24878,10315 24856,10373 24785,10561 24717,10724 24625,10920 24505,11178 24389,11401 24235,11670 24081,11939 23936,12171 23750,12449 23563,12728 23391,12966 23174,13251 22956,13536 22759,13779 22513,14067 22397,14203 22296,14318 22174,14455 22037,14608 21918,14737 21774,14890 21501,15179 21260,15423 20964,15710 20668,15997 20408,16238 20092,16520 19775,16802 19499,17038 19165,17312 18831,17586 18542,17814 18194,18078 17948,18264 17737,18419 17486,18599 17485,18599 17485,18599 17484,18600 17484,18600 17484,18600 17484,18600 17128,18854 16824,19064 16459,19303 16095,19543 15785,19738 15417,19960 15048,20182 14736,20362 14367,20565 13998,20767 13686,20930 13320,21111 12954,21291 12646,21435 12287,21592 12202,21629 12130,21660 12046,21696 11773,21812 11544,21904 11278,22005 10928,22137 10638,22238 10302,22344 9967,22450 9690,22529 9371,22607 9052,22686 8791,22741 8493,22791 8195,22841 7952,22872 7677,22894 7547,22904 7439,22910 7315,22914 7176,22918 7062,22918 6930,22915 6681,22908 6482,22889 6262,22853 6041,22817 5867,22775 5677,22710 5487,22646 5340,22580 5183,22487 5025,22395 4906,22305 4783,22186 4696,22102 4629,22025 4560,21928 4461,21790 4393,21663 4331,21501 4269,21338 4231,21191 4206,21006 4180,20821 4174,20655 4185,20448 4197,20241 4222,20058 4270,19832 4318,19606 4374,19408 4458,19165 4478,19108 4496,19060 4518,19002 4589,18813 4657,18650 4749,18454 4869,18196 4985,17973 5139,17704 5293,17435 5438,17203 5624,16925 5811,16646 5983,16408 6200,16123 6418,15838 6615,15595 6861,15307 6977,15171 7078,15056 7200,14919 7337,14766 7456,14637 7600,14484 7873,14195 8114,13951 8410,13664 8706,13377 8966,13136 9282,12854 9599,12572 9875,12336 10209,12062 10543,11787 10832,11560 11180,11296 11427,11109 11637,10954 11889,10774 11890,10774 11890,10774 11890,10774 12246,10519 12550,10310 12914,10071 13279,9831 13589,9636 13957,9414 14326,9191 14638,9012 15007,8809 15377,8607 15688,8444 16054,8263 16420,8083 16728,7939 17087,7782 17172,7745 17244,7714 17329,7678 17602,7562 17830,7470 18096,7369 18446,7237 18736,7136 19072,7030 19407,6924 19684,6845 20003,6767 20321,6688 20583,6633 20881,6583 21179,6532 21422,6502 21697,6480 21827,6470 21935,6464 22059,6460 22198,6456 22312,6456 22444,6459 22693,6466 22892,6485 23112,6521 23333,6557 23507,6599 23697,6664 23887,6728 24034,6794 24191,6887 24349,6979 24468,7069 24591,7188 24678,7272 24745,7349 24814,7446 L 24814,7446 Z"/>
        <path fill="rgb(0,0,0)" stroke="none" d="M 27104,22268 C 27693,21302 27674,20164 27041,18630 26409,17096 25354,15626 23669,13935 21984,12244 20175,10837 17889,9442 L 17889,9442 C 15603,8046 13526,7080 11252,6354 8977,5628 7188,5361 5535,5499 3881,5638 2860,6141 2270,7106 L 2270,7106 C 1681,8072 1700,9210 2333,10744 2965,12278 4020,13748 5705,15439 7390,17130 9199,18537 11485,19932 L 11485,19932 C 13771,21328 15848,22294 18122,23020 20396,23746 22186,24013 23839,23875 25493,23736 26514,23233 27104,22268 L 27104,22268 Z M 25313,21174 L 25313,21174 C 25224,21319 25134,21431 25009,21552 24884,21673 24763,21764 24603,21861 24442,21957 24292,22027 24097,22098 23903,22168 23724,22217 23498,22261 23271,22305 23067,22331 22810,22348 22750,22352 22698,22355 22636,22358 22435,22366 22258,22367 22041,22359 21758,22350 21507,22330 21199,22293 20891,22257 20621,22215 20292,22152 19963,22089 19676,22024 19329,21935 18981,21846 18681,21761 18319,21647 18148,21593 18003,21545 17830,21486 17635,21420 17470,21361 17273,21288 16900,21150 16581,21024 16201,20864 15821,20704 15498,20559 15114,20378 14731,20197 14406,20035 14023,19835 13640,19635 13317,19458 12938,19241 12671,19087 12446,18954 12182,18793 12181,18793 12181,18793 12181,18792 12181,18792 12180,18792 12180,18792 11807,18564 11495,18365 11132,18124 10769,17883 10468,17674 10120,17422 9771,17169 9483,16952 9152,16692 8822,16431 8550,16208 8241,15942 7931,15676 7679,15449 7393,15180 7326,15116 7269,15062 7203,14998 6990,14792 6816,14618 6619,14412 6360,14143 6154,13915 5925,13648 5696,13380 5515,13156 5318,12894 5121,12631 4969,12412 4806,12157 4642,11902 4519,11691 4392,11446 4331,11331 4284,11234 4232,11121 4173,10995 4128,10890 4080,10768 3990,10536 3928,10345 3875,10128 3822,9911 3793,9734 3778,9534 3763,9334 3767,9173 3790,8992 3813,8811 3849,8666 3911,8506 3954,8393 3999,8302 4061,8200 4149,8055 4240,7943 4365,7822 4490,7701 4611,7610 4771,7513 4932,7417 5082,7347 5277,7276 5471,7206 5650,7157 5876,7113 6103,7069 6307,7043 6564,7026 6624,7022 6676,7019 6738,7016 6939,7008 7116,7007 7333,7015 7616,7024 7867,7044 8175,7080 8483,7117 8753,7159 9082,7222 9411,7285 9698,7350 10045,7439 10393,7528 10693,7613 11055,7727 11226,7781 11371,7829 11544,7888 11739,7954 11904,8013 12101,8086 12474,8223 12793,8350 13173,8510 13553,8670 13876,8815 14260,8996 14643,9177 14968,9338 15351,9539 15734,9739 16057,9916 16436,10133 16704,10287 16929,10420 17193,10582 L 17194,10582 C 17567,10810 17879,11008 18242,11250 18605,11491 18906,11700 19254,11952 19603,12204 19891,12422 20222,12682 20552,12943 20824,13166 21133,13432 21443,13698 21695,13925 21981,14194 22048,14258 22105,14312 22171,14376 22384,14582 22558,14756 22755,14962 23014,15231 23220,15459 23449,15726 23678,15994 23859,16218 24056,16480 24253,16743 24405,16962 24568,17217 24732,17472 24855,17683 24982,17928 25043,18043 25090,18140 25142,18252 25201,18379 25245,18484 25294,18606 25384,18838 25445,19029 25499,19246 25552,19463 25581,19640 25596,19840 25611,20040 25607,20201 25584,20382 25561,20563 25525,20707 25463,20868 25420,20981 25375,21072 25313,21174 L 25313,21174 Z"/>
        <path fill="rgb(0,0,0)" stroke="none" d="M 19467,26742 C 20253,25281 20720,23533 20961,21158 21202,18783 21143,16493 20774,13840 20405,11187 19836,8968 18956,6749 18076,4530 17149,2976 15994,1785 14839,593 13802,122 12682,278 L 12682,278 C 11561,434 10693,1170 9907,2632 9121,4093 8654,5841 8413,8216 8172,10591 8231,12881 8600,15534 L 8600,15534 C 8969,18187 9538,20406 10418,22625 11298,24844 12225,26398 13380,27589 14535,28781 15572,29252 16692,29096 L 16692,29096 C 17813,28940 18681,28204 19467,26742 Z M 16403,27018 L 16403,27018 C 16235,27041 16091,27042 15919,27022 15746,27002 15598,26967 15422,26904 15246,26840 15096,26769 14918,26663 14741,26557 14590,26450 14412,26302 14234,26155 14085,26013 13909,25826 13867,25782 13832,25744 13791,25697 13657,25547 13545,25411 13413,25238 13241,25013 13097,24807 12930,24545 12763,24284 12625,24048 12465,23753 12305,23459 12173,23196 12022,22871 11870,22546 11746,22259 11605,21907 11539,21741 11483,21599 11419,21427 11347,21235 11288,21070 11220,20871 11090,20495 10985,20169 10868,19773 10752,19377 10658,19036 10556,18624 10453,18213 10372,17859 10284,17436 10196,17013 10128,16651 10056,16221 10005,15916 9966,15658 9923,15351 9923,15351 9923,15350 9923,15350 9923,15350 9923,15350 9923,15350 9863,14916 9819,14549 9775,14116 9732,13682 9703,13317 9677,12887 9651,12458 9637,12097 9629,11676 9620,11255 9621,10904 9631,10496 9640,10087 9656,9749 9683,9357 9690,9265 9696,9187 9703,9095 9727,8800 9752,8555 9786,8272 9831,7901 9876,7597 9938,7250 10000,6904 10059,6622 10137,6303 10215,5985 10288,5728 10381,5440 10475,5152 10561,4923 10669,4669 10720,4549 10765,4452 10819,4340 10880,4215 10932,4113 10997,3999 11119,3781 11227,3613 11361,3435 11496,3256 11614,3121 11759,2983 11904,2845 12031,2745 12186,2648 12341,2552 12476,2488 12638,2434 12754,2396 12852,2373 12971,2356 13139,2333 13283,2332 13455,2352 13628,2372 13776,2407 13952,2470 14128,2534 14278,2605 14456,2711 14633,2817 14784,2924 14962,3072 15140,3219 15289,3361 15465,3548 15507,3592 15541,3630 15583,3677 15717,3827 15829,3963 15961,4136 16133,4361 16277,4567 16444,4829 16611,5090 16749,5326 16909,5621 17069,5915 17201,6178 17352,6503 17504,6828 17627,7115 17769,7467 17835,7633 17891,7775 17955,7947 18027,8139 18086,8304 18154,8503 18284,8879 18389,9205 18506,9601 18622,9997 18716,10338 18818,10750 18921,11161 19002,11515 19090,11938 19178,12361 19246,12723 19318,13153 19369,13458 19408,13717 19451,14024 19451,14024 19451,14024 19451,14024 19511,14458 19555,14825 19599,15258 19642,15692 19671,16057 19697,16487 19723,16916 19737,17277 19745,17698 19754,18119 19753,18470 19743,18878 19734,19287 19718,19625 19691,20017 19684,20110 19678,20187 19671,20279 19647,20574 19622,20819 19588,21102 19543,21473 19498,21777 19436,22123 19374,22470 19315,22752 19237,23071 19159,23389 19086,23646 18993,23934 18899,24222 18813,24451 18705,24705 18654,24824 18609,24922 18555,25034 18494,25159 18442,25261 18377,25375 18255,25593 18147,25761 18013,25939 17878,26118 17760,26252 17615,26391 17470,26529 17343,26629 17188,26726 17033,26822 16898,26886 16736,26940 16620,26978 16522,27001 16403,27018 L 16403,27018 Z"/>
       </g>
      </g>
     </g>
    </g>
   </g>
  </g>
 </g>
</svg>