<?xml version="1.0" encoding="UTF-8"?>
<!DOCTYPE svg PUBLIC "-//W3C//DTD SVG 1.1//EN" "http://www.w3.org/Graphics/SVG/1.1/DTD/svg11.dtd">
<svg version="1.2" width="293.75mm" height="293.75mm" viewBox="0 0 29375 29375" preserveAspectRatio="xMidYMid" fill-rule="evenodd" stroke-width="28.222" stroke-linejoin="round" xmlns="http://www.w3.org/2000/svg" xmlns:ooo="http://xml.openoffice.org/svg/export" xmlns:xlink="http://www.w3.org/1999/xlink" xmlns:presentation="http://sun.com/xmlns/staroffice/presentation" xmlns:smil="http://www.w3.org/2001/SMIL20/" xmlns:anim="urn:oasis:names:tc:opendocument:xmlns:animation:1.0" xml:space="preserve">
 <defs class="ClipPathGroup">
  <clipPath id="presentation_clip_path" clipPathUnits="userSpaceOnUse">
   <rect x="0" y="0" width="29375" height="29375"/>
  </clipPath>
  <clipPath id="presentation_clip_path_shrink" clipPathUnits="userSpaceOnUse">
   <rect x="29" y="29" width="29317" height="29317"/>
  </clipPath>
 </defs>
 <defs class="TextShapeIndex">
  <g ooo:slide="id1" ooo:id-list="id3"/>
 </defs>
 <defs class="EmbeddedBulletChars">
  <g id="bullet-char-template-57356" transform="scale(0.00048828125,-0.00048828125)">
   <path d="M 580,1141 L 1163,571 580,0 -4,571 580,1141 Z"/>
  </g>
  <g id="bullet-char-template-57354" transform="scale(0.00048828125,-0.00048828125)">
   <path d="M 8,1128 L 1137,1128 1137,0 8,0 8,1128 Z"/>
  </g>
  <g id="bullet-char-template-10146" transform="scale(0.00048828125,-0.00048828125)">
   <path d="M 174,0 L 602,739 174,1481 1456,739 174,0 Z M 1358,739 L 309,1346 659,739 1358,739 Z"/>
  </g>
  <g id="bullet-char-template-10132" transform="scale(0.00048828125,-0.00048828125)">
   <path d="M 2015,739 L 1276,0 717,0 1260,543 174,543 174,936 1260,936 717,1481 1274,1481 2015,739 Z"/>
  </g>
  <g id="bullet-char-template-10007" transform="scale(0.00048828125,-0.00048828125)">
   <path d="M 0,-2 C -7,14 -16,27 -25,37 L 356,567 C 262,823 215,952 215,954 215,979 228,992 255,992 264,992 276,990 289,987 310,991 331,999 354,1012 L 381,999 492,748 772,1049 836,1024 860,1049 C 881,1039 901,1025 922,1006 886,937 835,863 770,784 769,783 710,716 594,584 L 774,223 C 774,196 753,168 711,139 L 727,119 C 717,90 699,76 672,76 641,76 570,178 457,381 L 164,-76 C 142,-110 111,-127 72,-127 30,-127 9,-110 8,-76 1,-67 -2,-52 -2,-32 -2,-23 -1,-13 0,-2 Z"/>
  </g>
  <g id="bullet-char-template-10004" transform="scale(0.00048828125,-0.00048828125)">
   <path d="M 285,-33 C 182,-33 111,30 74,156 52,228 41,333 41,471 41,549 55,616 82,672 116,743 169,778 240,778 293,778 328,747 346,684 L 369,508 C 377,444 397,411 428,410 L 1163,1116 C 1174,1127 1196,1133 1229,1133 1271,1133 1292,1118 1292,1087 L 1292,965 C 1292,929 1282,901 1262,881 L 442,47 C 390,-6 338,-33 285,-33 Z"/>
  </g>
  <g id="bullet-char-template-9679" transform="scale(0.00048828125,-0.00048828125)">
   <path d="M 813,0 C 632,0 489,54 383,161 276,268 223,411 223,592 223,773 276,916 383,1023 489,1130 632,1184 813,1184 992,1184 1136,1130 1245,1023 1353,916 1407,772 1407,592 1407,412 1353,268 1245,161 1136,54 992,0 813,0 Z"/>
  </g>
  <g id="bullet-char-template-8226" transform="scale(0.00048828125,-0.00048828125)">
   <path d="M 346,457 C 273,457 209,483 155,535 101,586 74,649 74,723 74,796 101,859 155,911 209,963 273,989 346,989 419,989 480,963 531,910 582,859 608,796 608,723 608,648 583,586 532,535 482,483 420,457 346,457 Z"/>
  </g>
  <g id="bullet-char-template-8211" transform="scale(0.00048828125,-0.00048828125)">
   <path d="M -4,459 L 1135,459 1135,606 -4,606 -4,459 Z"/>
  </g>
  <g id="bullet-char-template-61548" transform="scale(0.00048828125,-0.00048828125)">
   <path d="M 173,740 C 173,903 231,1043 346,1159 462,1274 601,1332 765,1332 928,1332 1067,1274 1183,1159 1299,1043 1357,903 1357,740 1357,577 1299,437 1183,322 1067,206 928,148 765,148 601,148 462,206 346,322 231,437 173,577 173,740 Z"/>
  </g>
 </defs>
 <defs class="TextEmbeddedBitmaps"/>
 <g>
  <g id="id2" class="Master_Slide">
   <g id="bg-id2" class="Background"/>
   <g id="bo-id2" class="BackgroundObjects"/>
  </g>
 </g>
 <g class="SlideGroup">
  <g>
   <g id="container-id1">
    <g id="id1" class="Slide" clip-path="url(#presentation_clip_path)">
     <g class="Page">
      <g class="Graphic">
       <g id="id3">
        <rect class="BoundingBox" stroke="none" fill="none" x="-13" y="-13" width="29401" height="29401"/>
        <path fill="rgb(0,0,0)" stroke="none" d="M 14748,1145 L 3682,7885 235,17999 626,18151 3005,19076 6145,9881 14593,4562 23356,9726 26543,18783 29158,17911 25760,7831 14748,1145 Z"/>
        <path fill="rgb(0,0,0)" stroke="none" d="M 14713,2452 L 4946,8323 2649,15884 2706,28722 3140,28722 26725,28722 26725,15382 24036,7989 14713,2452 Z M 14716,3472 L 23324,8585 25853,15538 25853,27845 3574,27845 3522,16013 5682,8903 14716,3472 Z"/>
        <path fill="rgb(0,0,0)" stroke="none" d="M 8613,17217 C 8533,17217 8465,17235 8395,17276 8326,17316 8276,17366 8236,17436 8195,17506 8177,17575 8177,17656 L 8177,28233 C 8177,28314 8195,28382 8236,28452 8276,28522 8326,28572 8395,28613 8465,28653 8533,28672 8613,28672 L 14687,28672 C 14767,28672 14835,28653 14905,28613 14974,28572 15024,28522 15065,28452 15105,28382 15123,28314 15123,28233 L 15123,17656 C 15123,17575 15105,17506 15065,17436 15024,17366 14974,17316 14905,17276 14835,17235 14767,17217 14687,17217 L 8613,17217 Z M 9049,18094 L 14251,18094 14251,27794 9049,27794 9049,18094 Z"/>
        <path fill="rgb(0,0,0)" stroke="none" d="M 8991,17436 L 8236,17875 14310,28452 15064,28013 8991,17436 Z"/>
        <path fill="rgb(0,0,0)" stroke="none" d="M 14310,17436 L 8236,28013 8991,28452 15064,17875 14310,17436 Z"/>
        <path fill="rgb(0,0,0)" stroke="none" d="M 14687,17217 C 14607,17217 14539,17235 14469,17276 14400,17316 14350,17366 14309,17436 14269,17506 14251,17575 14251,17656 L 14251,28233 C 14251,28314 14269,28382 14309,28452 14350,28522 14400,28572 14469,28613 14539,28653 14607,28672 14687,28672 L 20761,28672 C 20841,28672 20909,28653 20979,28613 21048,28572 21098,28522 21138,28452 21179,28382 21197,28314 21197,28233 L 21197,17656 C 21197,17575 21179,17506 21138,17436 21098,17366 21048,17316 20979,17276 20909,17235 20841,17217 20761,17217 L 14687,17217 Z M 15123,18094 L 20325,18094 20325,27794 15123,27794 15123,18094 Z"/>
        <path fill="rgb(0,0,0)" stroke="none" d="M 15064,17436 L 14310,17875 20383,28452 21138,28013 15064,17436 Z"/>
        <path fill="rgb(0,0,0)" stroke="none" d="M 20383,17436 L 14310,28013 15064,28452 21138,17875 20383,17436 Z"/>
        <path fill="rgb(0,0,0)" stroke="none" d="M 11371,11873 C 11371,13703 12862,15192 14687,15192 16512,15192 18003,13703 18003,11873 18003,10044 16512,8555 14687,8555 12862,8555 11371,10044 11371,11873 Z M 14687,9379 C 16073,9379 17184,10492 17184,11873 17184,13255 16073,14368 14687,14368 13301,14368 12190,13255 12190,11873 12190,10492 13301,9379 14687,9379 Z"/>
       </g>
      </g>
     </g>
    </g>
   </g>
  </g>
 </g>
</svg>