<?xml version="1.0" encoding="UTF-8"?>
<!DOCTYPE svg PUBLIC "-//W3C//DTD SVG 1.1//EN" "http://www.w3.org/Graphics/SVG/1.1/DTD/svg11.dtd">
<svg version="1.2" width="293.75mm" height="293.75mm" viewBox="0 0 29375 29375" preserveAspectRatio="xMidYMid" fill-rule="evenodd" stroke-width="28.222" stroke-linejoin="round" xmlns="http://www.w3.org/2000/svg" xmlns:ooo="http://xml.openoffice.org/svg/export" xmlns:xlink="http://www.w3.org/1999/xlink" xmlns:presentation="http://sun.com/xmlns/staroffice/presentation" xmlns:smil="http://www.w3.org/2001/SMIL20/" xmlns:anim="urn:oasis:names:tc:opendocument:xmlns:animation:1.0" xml:space="preserve">
 <defs class="ClipPathGroup">
  <clipPath id="presentation_clip_path" clipPathUnits="userSpaceOnUse">
   <rect x="0" y="0" width="29375" height="29375"/>
  </clipPath>
  <clipPath id="presentation_clip_path_shrink" clipPathUnits="userSpaceOnUse">
   <rect x="29" y="29" width="29317" height="29317"/>
  </clipPath>
 </defs>
 <defs class="TextShapeIndex">
  <g ooo:slide="id1" ooo:id-list="id3"/>
 </defs>
 <defs class="EmbeddedBulletChars">
  <g id="bullet-char-template-57356" transform="scale(0.00048828125,-0.00048828125)">
   <path d="M 580,1141 L 1163,571 580,0 -4,571 580,1141 Z"/>
  </g>
  <g id="bullet-char-template-57354" transform="scale(0.00048828125,-0.00048828125)">
   <path d="M 8,1128 L 1137,1128 1137,0 8,0 8,1128 Z"/>
  </g>
  <g id="bullet-char-template-10146" transform="scale(0.00048828125,-0.00048828125)">
   <path d="M 174,0 L 602,739 174,1481 1456,739 174,0 Z M 1358,739 L 309,1346 659,739 1358,739 Z"/>
  </g>
  <g id="bullet-char-template-10132" transform="scale(0.00048828125,-0.00048828125)">
   <path d="M 2015,739 L 1276,0 717,0 1260,543 174,543 174,936 1260,936 717,1481 1274,1481 2015,739 Z"/>
  </g>
  <g id="bullet-char-template-10007" transform="scale(0.00048828125,-0.00048828125)">
   <path d="M 0,-2 C -7,14 -16,27 -25,37 L 356,567 C 262,823 215,952 215,954 215,979 228,992 255,992 264,992 276,990 289,987 310,991 331,999 354,1012 L 381,999 492,748 772,1049 836,1024 860,1049 C 881,1039 901,1025 922,1006 886,937 835,863 770,784 769,783 710,716 594,584 L 774,223 C 774,196 753,168 711,139 L 727,119 C 717,90 699,76 672,76 641,76 570,178 457,381 L 164,-76 C 142,-110 111,-127 72,-127 30,-127 9,-110 8,-76 1,-67 -2,-52 -2,-32 -2,-23 -1,-13 0,-2 Z"/>
  </g>
  <g id="bullet-char-template-10004" transform="scale(0.00048828125,-0.00048828125)">
   <path d="M 285,-33 C 182,-33 111,30 74,156 52,228 41,333 41,471 41,549 55,616 82,672 116,743 169,778 240,778 293,778 328,747 346,684 L 369,508 C 377,444 397,411 428,410 L 1163,1116 C 1174,1127 1196,1133 1229,1133 1271,1133 1292,1118 1292,1087 L 1292,965 C 1292,929 1282,901 1262,881 L 442,47 C 390,-6 338,-33 285,-33 Z"/>
  </g>
  <g id="bullet-char-template-9679" transform="scale(0.00048828125,-0.00048828125)">
   <path d="M 813,0 C 632,0 489,54 383,161 276,268 223,411 223,592 223,773 276,916 383,1023 489,1130 632,1184 813,1184 992,1184 1136,1130 1245,1023 1353,916 1407,772 1407,592 1407,412 1353,268 1245,161 1136,54 992,0 813,0 Z"/>
  </g>
  <g id="bullet-char-template-8226" transform="scale(0.00048828125,-0.00048828125)">
   <path d="M 346,457 C 273,457 209,483 155,535 101,586 74,649 74,723 74,796 101,859 155,911 209,963 273,989 346,989 419,989 480,963 531,910 582,859 608,796 608,723 608,648 583,586 532,535 482,483 420,457 346,457 Z"/>
  </g>
  <g id="bullet-char-template-8211" transform="scale(0.00048828125,-0.00048828125)">
   <path d="M -4,459 L 1135,459 1135,606 -4,606 -4,459 Z"/>
  </g>
  <g id="bullet-char-template-61548" transform="scale(0.00048828125,-0.00048828125)">
   <path d="M 173,740 C 173,903 231,1043 346,1159 462,1274 601,1332 765,1332 928,1332 1067,1274 1183,1159 1299,1043 1357,903 1357,740 1357,577 1299,437 1183,322 1067,206 928,148 765,148 601,148 462,206 346,322 231,437 173,577 173,740 Z"/>
  </g>
 </defs>
 <defs class="TextEmbeddedBitmaps"/>
 <g>
  <g id="id2" class="Master_Slide">
   <g id="bg-id2" class="Background"/>
   <g id="bo-id2" class="BackgroundObjects"/>
  </g>
 </g>
 <g class="SlideGroup">
  <g>
   <g id="container-id1">
    <g id="id1" class="Slide" clip-path="url(#presentation_clip_path)">
     <g class="Page">
      <g class="Graphic">
       <g id="id3">
        <rect class="BoundingBox" stroke="none" fill="none" x="-13" y="-13" width="29401" height="29401"/>
        <path fill="rgb(0,0,0)" stroke="none" d="M 3562,165 C 3383,166 3217,262 3127,419 L 197,5212 C 80,5415 28,5929 90,6306 L 76,8322 76,8325 C 79,9500 241,10412 528,11107 814,11802 1242,12305 1802,12512 2362,12719 2991,12556 3435,12175 3878,11794 4188,11223 4357,10517 L 4359,10509 4360,10502 C 4361,10498 4361,10500 4362,10497 L 4366,10514 C 4525,11197 4792,11727 5171,12096 5550,12465 6059,12648 6540,12600 7502,12503 8242,11653 8514,10517 L 8520,10496 8525,10526 8535,10558 C 8725,11164 8959,11642 9274,12002 9589,12362 10031,12606 10497,12592 10963,12577 11372,12330 11704,11987 12036,11644 12317,11188 12567,10622 L 12577,10599 12585,10576 C 12597,10542 12599,10553 12611,10525 12623,10548 12634,10555 12645,10580 12828,11177 13077,11657 13409,12014 13746,12376 14198,12610 14672,12605 15147,12600 15588,12366 15934,12012 16281,11657 16556,11178 16771,10582 L 16772,10578 C 16953,11247 17226,11766 17606,12119 17997,12482 18516,12645 18993,12579 19939,12448 20636,11604 20882,10531 21020,11164 21255,11675 21598,12044 21947,12419 22429,12635 22909,12614 23869,12573 24628,11738 24976,10547 L 24979,10535 24982,10525 C 24984,10519 24985,10521 24986,10515 24990,10528 24994,10526 24997,10540 L 25000,10550 25004,10561 C 25245,11316 25601,11882 26098,12217 26596,12552 27262,12578 27774,12291 28797,11716 29329,10300 29296,8264 L 29296,5954 29283,5950 C 29270,5870 29246,5795 29211,5733 L 26206,423 C 26117,264 25950,166 25769,165 L 3562,165 3562,165 Z M 3852,1177 L 25475,1177 27972,5643 25491,5643 2276,5643 1285,5660 3852,1177 3852,1177 Z M 2286,6859 L 25491,6859 28088,6859 28088,8278 28088,8283 C 28117,10070 27520,11040 27184,11229 27017,11323 26946,11325 26771,11206 26595,11088 26341,10772 26156,10193 26073,9905 25956,9656 25781,9448 25602,9237 25336,9056 25012,9042 24688,9028 24383,9202 24194,9423 24005,9643 23890,9910 23811,10225 L 23816,10203 C 23559,11084 23091,11389 22857,11399 22739,11404 22631,11374 22480,11212 22329,11050 22158,10739 22055,10249 L 22053,10242 22052,10234 C 21975,9908 21862,9633 21679,9404 21496,9175 21200,8981 20860,8987 20520,8994 20238,9195 20063,9424 19887,9653 19780,9925 19710,10244 19551,10954 19094,11337 18827,11374 18694,11392 18587,11374 18425,11224 18263,11074 18063,10762 17923,10221 L 17924,10224 C 17845,9915 17740,9654 17571,9431 17401,9208 17120,9001 16777,9002 16433,9003 16157,9207 15985,9427 15820,9639 15713,9887 15629,10181 15460,10647 15254,10973 15072,11158 14889,11346 14754,11388 14660,11389 14566,11390 14456,11359 14291,11182 14127,11005 13938,10681 13793,10199 L 13788,10181 13781,10163 C 13610,9699 13384,9221 12771,9100 12464,9039 12111,9174 11899,9383 11695,9584 11567,9833 11457,10140 11249,10607 11026,10944 10837,11139 10647,11336 10517,11374 10459,11376 10401,11377 10332,11370 10182,11198 10034,11029 9851,10702 9696,10216 9556,9573 9137,9024 8502,9017 8179,9014 7870,9185 7675,9423 7489,9650 7384,9930 7335,10248 7147,11013 6686,11362 6419,11389 6285,11403 6171,11377 6011,11222 5854,11068 5668,10762 5547,10250 5454,9685 5101,9197 4513,9094 4213,9041 3858,9147 3622,9371 3390,9591 3257,9886 3182,10233 3059,10746 2839,11088 2650,11250 2461,11412 2357,11421 2219,11370 2081,11319 1846,11131 1644,10641 1442,10151 1287,9383 1285,8322 1285,8322 1285,8322 1285,8322 L 1295,6876 2286,6859 2286,6859 Z"/>
        <path fill="rgb(0,0,0)" stroke="none" d="M 2260,11773 L 2260,28833 C 2260,28925 2281,29003 2327,29083 2373,29163 2430,29221 2509,29267 2589,29313 2667,29334 2759,29334 L 26590,29334 C 26682,29334 26759,29313 26839,29267 26918,29221 26975,29163 27021,29083 27067,29003 27088,28925 27088,28833 L 27088,11773 26092,11773 26092,28331 3257,28331 3257,11773 2260,11773 Z"/>
        <path fill="rgb(0,0,0)" stroke="none" d="M 10070,14854 C 9985,14854 9912,14873 9838,14916 9764,14959 9711,15013 9668,15087 9625,15162 9606,15235 9606,15321 L 9606,28756 C 9606,28842 9625,28915 9668,28989 9711,29064 9764,29118 9838,29161 9912,29204 9985,29223 10070,29223 L 19061,29223 C 19147,29223 19220,29204 19294,29161 19368,29118 19421,29064 19464,28989 19506,28915 19526,28842 19526,28756 L 19526,15321 C 19526,15235 19506,15162 19464,15087 19421,15013 19368,14959 19294,14916 19220,14873 19147,14854 19061,14854 L 10070,14854 Z M 10535,15789 L 18597,15789 18597,28288 10535,28288 10535,15789 Z"/>
       </g>
      </g>
     </g>
    </g>
   </g>
  </g>
 </g>
</svg>