<?xml version="1.0" encoding="UTF-8"?>
<!DOCTYPE svg PUBLIC "-//W3C//DTD SVG 1.1//EN" "http://www.w3.org/Graphics/SVG/1.1/DTD/svg11.dtd">
<svg version="1.2" width="293.75mm" height="293.75mm" viewBox="0 0 29375 29375" preserveAspectRatio="xMidYMid" fill-rule="evenodd" stroke-width="28.222" stroke-linejoin="round" xmlns="http://www.w3.org/2000/svg" xmlns:ooo="http://xml.openoffice.org/svg/export" xmlns:xlink="http://www.w3.org/1999/xlink" xmlns:presentation="http://sun.com/xmlns/staroffice/presentation" xmlns:smil="http://www.w3.org/2001/SMIL20/" xmlns:anim="urn:oasis:names:tc:opendocument:xmlns:animation:1.0" xml:space="preserve">
 <defs class="ClipPathGroup">
  <clipPath id="presentation_clip_path" clipPathUnits="userSpaceOnUse">
   <rect x="0" y="0" width="29375" height="29375"/>
  </clipPath>
  <clipPath id="presentation_clip_path_shrink" clipPathUnits="userSpaceOnUse">
   <rect x="29" y="29" width="29317" height="29317"/>
  </clipPath>
 </defs>
 <defs class="TextShapeIndex">
  <g ooo:slide="id1" ooo:id-list="id3"/>
 </defs>
 <defs class="EmbeddedBulletChars">
  <g id="bullet-char-template-57356" transform="scale(0.00048828125,-0.00048828125)">
   <path d="M 580,1141 L 1163,571 580,0 -4,571 580,1141 Z"/>
  </g>
  <g id="bullet-char-template-57354" transform="scale(0.00048828125,-0.00048828125)">
   <path d="M 8,1128 L 1137,1128 1137,0 8,0 8,1128 Z"/>
  </g>
  <g id="bullet-char-template-10146" transform="scale(0.00048828125,-0.00048828125)">
   <path d="M 174,0 L 602,739 174,1481 1456,739 174,0 Z M 1358,739 L 309,1346 659,739 1358,739 Z"/>
  </g>
  <g id="bullet-char-template-10132" transform="scale(0.00048828125,-0.00048828125)">
   <path d="M 2015,739 L 1276,0 717,0 1260,543 174,543 174,936 1260,936 717,1481 1274,1481 2015,739 Z"/>
  </g>
  <g id="bullet-char-template-10007" transform="scale(0.00048828125,-0.00048828125)">
   <path d="M 0,-2 C -7,14 -16,27 -25,37 L 356,567 C 262,823 215,952 215,954 215,979 228,992 255,992 264,992 276,990 289,987 310,991 331,999 354,1012 L 381,999 492,748 772,1049 836,1024 860,1049 C 881,1039 901,1025 922,1006 886,937 835,863 770,784 769,783 710,716 594,584 L 774,223 C 774,196 753,168 711,139 L 727,119 C 717,90 699,76 672,76 641,76 570,178 457,381 L 164,-76 C 142,-110 111,-127 72,-127 30,-127 9,-110 8,-76 1,-67 -2,-52 -2,-32 -2,-23 -1,-13 0,-2 Z"/>
  </g>
  <g id="bullet-char-template-10004" transform="scale(0.00048828125,-0.00048828125)">
   <path d="M 285,-33 C 182,-33 111,30 74,156 52,228 41,333 41,471 41,549 55,616 82,672 116,743 169,778 240,778 293,778 328,747 346,684 L 369,508 C 377,444 397,411 428,410 L 1163,1116 C 1174,1127 1196,1133 1229,1133 1271,1133 1292,1118 1292,1087 L 1292,965 C 1292,929 1282,901 1262,881 L 442,47 C 390,-6 338,-33 285,-33 Z"/>
  </g>
  <g id="bullet-char-template-9679" transform="scale(0.00048828125,-0.00048828125)">
   <path d="M 813,0 C 632,0 489,54 383,161 276,268 223,411 223,592 223,773 276,916 383,1023 489,1130 632,1184 813,1184 992,1184 1136,1130 1245,1023 1353,916 1407,772 1407,592 1407,412 1353,268 1245,161 1136,54 992,0 813,0 Z"/>
  </g>
  <g id="bullet-char-template-8226" transform="scale(0.00048828125,-0.00048828125)">
   <path d="M 346,457 C 273,457 209,483 155,535 101,586 74,649 74,723 74,796 101,859 155,911 209,963 273,989 346,989 419,989 480,963 531,910 582,859 608,796 608,723 608,648 583,586 532,535 482,483 420,457 346,457 Z"/>
  </g>
  <g id="bullet-char-template-8211" transform="scale(0.00048828125,-0.00048828125)">
   <path d="M -4,459 L 1135,459 1135,606 -4,606 -4,459 Z"/>
  </g>
  <g id="bullet-char-template-61548" transform="scale(0.00048828125,-0.00048828125)">
   <path d="M 173,740 C 173,903 231,1043 346,1159 462,1274 601,1332 765,1332 928,1332 1067,1274 1183,1159 1299,1043 1357,903 1357,740 1357,577 1299,437 1183,322 1067,206 928,148 765,148 601,148 462,206 346,322 231,437 173,577 173,740 Z"/>
  </g>
 </defs>
 <defs class="TextEmbeddedBitmaps"/>
 <g>
  <g id="id2" class="Master_Slide">
   <g id="bg-id2" class="Background"/>
   <g id="bo-id2" class="BackgroundObjects"/>
  </g>
 </g>
 <g class="SlideGroup">
  <g>
   <g id="container-id1">
    <g id="id1" class="Slide" clip-path="url(#presentation_clip_path)">
     <g class="Page">
      <g class="Graphic">
       <g id="id3">
        <rect class="BoundingBox" stroke="none" fill="none" x="-13" y="-13" width="29401" height="29401"/>
        <defs>
         <clipPath id="clip_path_1" clipPathUnits="userSpaceOnUse">
          <path d="M -13,-13 L 29387,-13 29387,29387 -13,29387 -13,-13 Z"/>
         </clipPath>
        </defs>
        <g clip-path="url(#clip_path_1)">
         <path fill="rgb(0,0,0)" stroke="none" d="M 13907,6466 L 13907,8485 11895,8485 11895,10046 13907,10046 13907,16156 15467,16156 15467,10046 17479,10046 17479,8485 15467,8485 15467,6466 13907,6466 Z"/>
         <path fill="rgb(0,0,0)" stroke="none" d="M 14744,-13 C 14541,-11 14368,36 14192,138 14070,209 13977,288 13887,398 L 7598,8077 C 7551,8133 7516,8183 7479,8246 7376,8426 7329,8603 7329,8811 7329,9019 7376,9196 7479,9376 7583,9556 7711,9686 7890,9790 8069,9894 8245,9941 8452,9941 8658,9941 8834,9894 9013,9790 9141,9715 9238,9631 9330,9514 L 14744,2904 20037,9505 C 20129,9624 20227,9710 20358,9785 20537,9889 20712,9937 20919,9937 21125,9937 21301,9889 21480,9785 21659,9681 21788,9552 21891,9372 21994,9192 22041,9015 22041,8807 22041,8599 21994,8422 21891,8242 21858,8184 21826,8138 21783,8087 L 15627,407 C 15535,293 15440,211 15314,138 15135,34 14960,-13 14753,-13 14750,-13 14747,-13 14744,-13 Z"/>
         <path fill="rgb(0,0,0)" stroke="none" d="M 20621,14879 C 20414,14879 20238,14926 20059,15030 19880,15134 19752,15264 19649,15444 19545,15624 19498,15801 19498,16009 19498,16217 19545,16394 19649,16574 19752,16754 19880,16883 20059,16987 20130,17028 20193,17056 20270,17082 L 27883,19730 C 28011,19776 28127,19797 28264,19797 28470,19797 28646,19749 28825,19645 29004,19541 29133,19412 29236,19232 29339,19052 29386,18875 29386,18667 29386,18459 29339,18282 29236,18102 29133,17922 29004,17793 28825,17689 28755,17648 28693,17620 28616,17595 L 21003,14947 C 20892,14906 20792,14886 20674,14880 20655,14879 20639,14879 20621,14879 Z"/>
         <path fill="rgb(0,0,0)" stroke="none" d="M 8805,14770 C 8667,14770 8549,14791 8419,14840 L 730,17621 C 659,17645 602,17671 538,17709 362,17811 236,17938 135,18114 34,18290 -12,18464 -12,18667 -12,18871 34,19044 135,19221 236,19397 362,19524 538,19626 713,19728 885,19774 1087,19774 1226,19774 1344,19753 1473,19704 L 9163,16923 C 9234,16899 9291,16873 9356,16835 9531,16733 9657,16606 9758,16430 9860,16253 9906,16080 9906,15877 9906,15673 9860,15500 9758,15323 9657,15147 9531,15020 9356,14918 9184,14818 9016,14772 8818,14770 8813,14770 8810,14770 8805,14770 Z"/>
         <path fill="rgb(0,0,0)" stroke="none" d="M 2039,28356 C 2035,28355 2032,28355 2027,28355 1935,28355 1857,28376 1778,28423 1698,28469 1641,28526 1595,28606 1549,28686 1528,28765 1528,28857 1528,28950 1549,29028 1595,29108 1641,29189 1698,29246 1778,29292 1857,29338 1935,29360 2027,29360 2032,29360 2035,29359 2039,29359 L 27329,29359 C 27333,29359 27336,29360 27340,29360 27432,29360 27510,29338 27590,29292 27669,29246 27727,29189 27773,29108 27818,29028 27839,28950 27839,28857 27839,28765 27818,28686 27773,28606 27727,28526 27669,28469 27590,28423 27510,28376 27432,28355 27340,28355 27336,28355 27333,28355 27329,28356 L 2039,28356 Z"/>
         <path fill="rgb(0,0,0)" stroke="none" d="M 19731,8555 C 19651,8601 19594,8659 19548,8739 19502,8819 19481,8897 19481,8990 19481,8992 19481,8994 19481,8997 L 19481,28659 C 19481,28751 19502,28830 19548,28910 19594,28990 19651,29047 19731,29094 19810,29140 19888,29161 19980,29161 20072,29161 20150,29140 20229,29094 20309,29047 20366,28990 20412,28910 20458,28830 20479,28751 20479,28659 L 20479,8997 C 20479,8994 20479,8992 20479,8990 20479,8897 20458,8819 20412,8739 20366,8659 20309,8601 20230,8555 20150,8509 20072,8488 19980,8488 19977,8488 19975,8488 19973,8488 19883,8489 19808,8510 19731,8555 Z"/>
         <path fill="rgb(0,0,0)" stroke="none" d="M 9204,8555 C 9125,8601 9068,8659 9022,8739 8976,8819 8955,8897 8955,8990 8955,8992 8955,8994 8955,8997 L 8955,28659 8955,28659 C 8955,28751 8976,28830 9022,28910 9068,28990 9125,29047 9204,29094 9284,29140 9362,29161 9454,29161 9546,29161 9624,29140 9703,29094 9783,29047 9840,28990 9886,28910 9932,28830 9953,28751 9953,28659 L 9953,28659 9953,8997 C 9953,8994 9953,8992 9953,8990 9953,8897 9932,8819 9886,8739 9840,8659 9783,8601 9703,8555 9624,8509 9546,8488 9454,8488 9451,8488 9449,8488 9446,8488 9357,8489 9282,8510 9204,8555 Z"/>
         <path fill="rgb(0,0,0)" stroke="none" d="M 1393,17757 C 1313,17803 1256,17861 1210,17941 1164,18021 1143,18099 1143,18192 1143,18194 1143,18196 1143,18199 L 1143,28857 C 1143,28862 1143,28865 1143,28869 1143,28962 1164,29040 1210,29120 1256,29200 1313,29258 1393,29304 1472,29350 1550,29371 1642,29371 1734,29371 1812,29350 1891,29304 1971,29258 2028,29200 2074,29120 2120,29040 2141,28962 2141,28869 2141,28865 2141,28862 2141,28857 L 2141,18199 C 2141,18196 2141,18194 2141,18192 2141,18099 2120,18021 2074,17941 2028,17861 1971,17803 1891,17757 1812,17711 1734,17690 1642,17690 1639,17690 1637,17690 1634,17690 1545,17691 1470,17712 1393,17757 Z"/>
         <path fill="rgb(0,0,0)" stroke="none" d="M 27543,17757 C 27463,17803 27406,17861 27360,17941 27314,18021 27293,18099 27293,18192 27293,18194 27293,18196 27293,18199 L 27293,28857 C 27293,28862 27293,28865 27293,28869 27293,28962 27314,29040 27360,29120 27406,29200 27463,29258 27542,29304 27622,29350 27700,29371 27792,29371 27884,29371 27962,29350 28041,29304 28121,29258 28178,29200 28224,29120 28270,29040 28291,28962 28291,28869 28291,28865 28291,28862 28291,28857 L 28291,18199 C 28291,18196 28291,18194 28291,18192 28291,18099 28270,18021 28224,17941 28178,17861 28121,17803 28041,17757 27962,17711 27884,17690 27792,17690 27789,17690 27787,17690 27784,17690 27695,17691 27620,17712 27543,17757 Z"/>
         <path fill="rgb(0,0,0)" stroke="none" d="M 14618,18028 C 14526,18028 14448,18049 14368,18095 14335,18114 14309,18134 14281,18160 L 11768,20477 C 11729,20513 11700,20549 11673,20596 11627,20676 11606,20755 11606,20847 L 11606,28725 C 11606,28817 11627,28896 11673,28976 11719,29056 11776,29113 11856,29160 11935,29206 12013,29227 12105,29227 L 12105,29227 17269,29227 17269,29227 C 17361,29227 17439,29206 17518,29160 17598,29113 17655,29056 17701,28976 17747,28896 17768,28817 17768,28725 L 17768,20847 C 17768,20754 17747,20676 17701,20596 17672,20545 17640,20506 17596,20468 L 14945,18151 C 14919,18129 14896,18112 14867,18095 14790,18050 14714,18029 14625,18028 14623,18028 14620,18028 14618,18028 Z M 14626,19202 L 16770,21076 16770,28223 12604,28223 12604,21068 14626,19202 Z"/>
         <path fill="rgb(0,0,0)" stroke="none" d="M 23840,21763 C 23760,21763 23692,21782 23622,21822 23593,21839 23570,21856 23545,21879 L 21897,23399 C 21862,23431 21837,23462 21814,23503 21774,23573 21755,23642 21755,23723 21755,23723 21755,23723 21755,23723 L 21755,28892 C 21755,28973 21774,29042 21814,29112 21854,29182 21904,29232 21974,29273 22043,29313 22112,29332 22192,29332 L 25580,29332 C 25660,29332 25729,29313 25798,29273 25868,29232 25918,29182 25958,29112 25998,29042 26017,28973 26017,28892 L 26017,23723 C 26017,23723 26017,23723 26017,23723 26017,23642 25998,23573 25958,23503 25933,23459 25905,23425 25866,23391 L 24127,21871 C 24104,21851 24084,21837 24059,21822 23991,21783 23925,21764 23847,21763 23845,21763 23843,21763 23840,21763 Z M 23848,22791 L 25144,23923 25144,28453 22628,28453 22628,23916 23848,22791 Z"/>
         <path fill="rgb(0,0,0)" stroke="none" d="M 5377,21631 C 5374,21631 5372,21631 5370,21631 5290,21631 5221,21649 5152,21690 5123,21706 5100,21723 5075,21746 L 3427,23266 C 3392,23298 3367,23330 3344,23371 3303,23441 3285,23509 3285,23590 3285,23590 3285,23590 3285,23590 L 3285,28760 C 3285,28841 3303,28909 3344,28979 3384,29049 3434,29100 3503,29140 3573,29181 3641,29199 3722,29199 L 7110,29199 C 7190,29199 7258,29181 7328,29140 7398,29100 7448,29049 7488,28979 7528,28909 7546,28841 7546,28760 L 7546,23590 C 7546,23590 7546,23590 7546,23590 7546,23509 7528,23441 7488,23371 7462,23326 7434,23292 7396,23259 L 5656,21738 C 5634,21719 5614,21704 5588,21690 5521,21650 5455,21632 5377,21631 Z M 5378,22659 L 6673,23791 6673,28321 4158,28321 4158,23783 5378,22659 Z"/>
        </g>
       </g>
      </g>
     </g>
    </g>
   </g>
  </g>
 </g>
</svg>