<?xml version="1.0" encoding="UTF-8"?>
<!DOCTYPE svg PUBLIC "-//W3C//DTD SVG 1.1//EN" "http://www.w3.org/Graphics/SVG/1.1/DTD/svg11.dtd">
<svg version="1.2" width="293.75mm" height="293.75mm" viewBox="0 0 29375 29375" preserveAspectRatio="xMidYMid" fill-rule="evenodd" stroke-width="28.222" stroke-linejoin="round" xmlns="http://www.w3.org/2000/svg" xmlns:ooo="http://xml.openoffice.org/svg/export" xmlns:xlink="http://www.w3.org/1999/xlink" xmlns:presentation="http://sun.com/xmlns/staroffice/presentation" xmlns:smil="http://www.w3.org/2001/SMIL20/" xmlns:anim="urn:oasis:names:tc:opendocument:xmlns:animation:1.0" xml:space="preserve">
 <defs class="ClipPathGroup">
  <clipPath id="presentation_clip_path" clipPathUnits="userSpaceOnUse">
   <rect x="0" y="0" width="29375" height="29375"/>
  </clipPath>
  <clipPath id="presentation_clip_path_shrink" clipPathUnits="userSpaceOnUse">
   <rect x="29" y="29" width="29317" height="29317"/>
  </clipPath>
 </defs>
 <defs class="TextShapeIndex">
  <g ooo:slide="id1" ooo:id-list="id3"/>
 </defs>
 <defs class="EmbeddedBulletChars">
  <g id="bullet-char-template-57356" transform="scale(0.00048828125,-0.00048828125)">
   <path d="M 580,1141 L 1163,571 580,0 -4,571 580,1141 Z"/>
  </g>
  <g id="bullet-char-template-57354" transform="scale(0.00048828125,-0.00048828125)">
   <path d="M 8,1128 L 1137,1128 1137,0 8,0 8,1128 Z"/>
  </g>
  <g id="bullet-char-template-10146" transform="scale(0.00048828125,-0.00048828125)">
   <path d="M 174,0 L 602,739 174,1481 1456,739 174,0 Z M 1358,739 L 309,1346 659,739 1358,739 Z"/>
  </g>
  <g id="bullet-char-template-10132" transform="scale(0.00048828125,-0.00048828125)">
   <path d="M 2015,739 L 1276,0 717,0 1260,543 174,543 174,936 1260,936 717,1481 1274,1481 2015,739 Z"/>
  </g>
  <g id="bullet-char-template-10007" transform="scale(0.00048828125,-0.00048828125)">
   <path d="M 0,-2 C -7,14 -16,27 -25,37 L 356,567 C 262,823 215,952 215,954 215,979 228,992 255,992 264,992 276,990 289,987 310,991 331,999 354,1012 L 381,999 492,748 772,1049 836,1024 860,1049 C 881,1039 901,1025 922,1006 886,937 835,863 770,784 769,783 710,716 594,584 L 774,223 C 774,196 753,168 711,139 L 727,119 C 717,90 699,76 672,76 641,76 570,178 457,381 L 164,-76 C 142,-110 111,-127 72,-127 30,-127 9,-110 8,-76 1,-67 -2,-52 -2,-32 -2,-23 -1,-13 0,-2 Z"/>
  </g>
  <g id="bullet-char-template-10004" transform="scale(0.00048828125,-0.00048828125)">
   <path d="M 285,-33 C 182,-33 111,30 74,156 52,228 41,333 41,471 41,549 55,616 82,672 116,743 169,778 240,778 293,778 328,747 346,684 L 369,508 C 377,444 397,411 428,410 L 1163,1116 C 1174,1127 1196,1133 1229,1133 1271,1133 1292,1118 1292,1087 L 1292,965 C 1292,929 1282,901 1262,881 L 442,47 C 390,-6 338,-33 285,-33 Z"/>
  </g>
  <g id="bullet-char-template-9679" transform="scale(0.00048828125,-0.00048828125)">
   <path d="M 813,0 C 632,0 489,54 383,161 276,268 223,411 223,592 223,773 276,916 383,1023 489,1130 632,1184 813,1184 992,1184 1136,1130 1245,1023 1353,916 1407,772 1407,592 1407,412 1353,268 1245,161 1136,54 992,0 813,0 Z"/>
  </g>
  <g id="bullet-char-template-8226" transform="scale(0.00048828125,-0.00048828125)">
   <path d="M 346,457 C 273,457 209,483 155,535 101,586 74,649 74,723 74,796 101,859 155,911 209,963 273,989 346,989 419,989 480,963 531,910 582,859 608,796 608,723 608,648 583,586 532,535 482,483 420,457 346,457 Z"/>
  </g>
  <g id="bullet-char-template-8211" transform="scale(0.00048828125,-0.00048828125)">
   <path d="M -4,459 L 1135,459 1135,606 -4,606 -4,459 Z"/>
  </g>
  <g id="bullet-char-template-61548" transform="scale(0.00048828125,-0.00048828125)">
   <path d="M 173,740 C 173,903 231,1043 346,1159 462,1274 601,1332 765,1332 928,1332 1067,1274 1183,1159 1299,1043 1357,903 1357,740 1357,577 1299,437 1183,322 1067,206 928,148 765,148 601,148 462,206 346,322 231,437 173,577 173,740 Z"/>
  </g>
 </defs>
 <defs class="TextEmbeddedBitmaps"/>
 <g>
  <g id="id2" class="Master_Slide">
   <g id="bg-id2" class="Background"/>
   <g id="bo-id2" class="BackgroundObjects"/>
  </g>
 </g>
 <g class="SlideGroup">
  <g>
   <g id="container-id1">
    <g id="id1" class="Slide" clip-path="url(#presentation_clip_path)">
     <g class="Page">
      <g class="Graphic">
       <g id="id3">
        <rect class="BoundingBox" stroke="none" fill="none" x="-13" y="-13" width="29401" height="29401"/>
        <defs>
         <clipPath id="clip_path_1" clipPathUnits="userSpaceOnUse">
          <path d="M -13,-13 L 29387,-13 29387,29387 -13,29387 -13,-13 Z"/>
         </clipPath>
        </defs>
        <g clip-path="url(#clip_path_1)">
         <path fill="rgb(0,0,0)" stroke="none" d="M 491,16815 C 410,16815 342,16834 273,16874 203,16915 153,16965 113,17035 73,17105 54,17174 54,17255 L 54,28951 C 54,29032 73,29100 113,29170 153,29240 203,29291 273,29331 342,29372 410,29390 491,29390 L 28883,29390 C 28964,29390 29032,29372 29101,29331 29171,29291 29221,29240 29261,29170 29301,29100 29320,29032 29320,28951 L 29320,17255 C 29320,17174 29301,17105 29261,17035 29221,16965 29171,16915 29101,16874 29032,16834 28964,16815 28883,16815 L 491,16815 Z M 927,17694 L 28447,17694 28447,28511 927,28511 927,17694 Z"/>
         <path fill="rgb(0,0,0)" stroke="none" d="M 5478,83 C 5398,83 5329,101 5260,142 5190,182 5140,233 5100,303 5060,373 5042,441 5042,522 L 5042,17206 C 5042,17287 5060,17355 5100,17426 5140,17496 5190,17546 5260,17586 5329,17627 5398,17645 5478,17645 L 23907,17645 C 23987,17645 24055,17627 24125,17586 24195,17546 24245,17496 24285,17426 24325,17355 24343,17287 24343,17206 L 24343,522 C 24343,441 24325,373 24285,303 24245,233 24195,182 24125,142 24055,101 23987,83 23907,83 L 5478,83 Z M 5915,962 L 23470,962 23470,16767 5915,16767 5915,962 Z"/>
         <path fill="rgb(0,0,0)" stroke="none" d="M 24016,2440 C 23936,2440 23868,2458 23798,2499 23729,2539 23679,2590 23638,2660 23598,2730 23580,2798 23580,2879 L 23580,17182 C 23580,17263 23598,17332 23638,17402 23679,17472 23729,17522 23798,17563 23868,17603 23936,17621 24016,17621 L 26382,17621 C 26462,17621 26531,17603 26600,17563 26670,17522 26720,17472 26760,17402 26800,17332 26818,17263 26818,17182 L 26818,2879 C 26818,2798 26800,2730 26760,2660 26720,2590 26670,2539 26600,2499 26531,2458 26462,2440 26382,2440 L 24016,2440 Z M 24453,3319 L 25946,3319 25946,16743 24453,16743 24453,3319 Z"/>
         <path fill="rgb(0,0,0)" stroke="none" d="M 3073,2424 C 2993,2424 2924,2443 2855,2483 2785,2524 2735,2574 2695,2644 2655,2714 2637,2783 2637,2864 L 2637,17166 C 2637,17247 2655,17316 2695,17386 2735,17456 2785,17506 2855,17547 2924,17587 2993,17605 3073,17605 L 5439,17605 C 5519,17605 5588,17587 5657,17547 5727,17506 5777,17456 5817,17386 5857,17316 5875,17247 5875,17166 L 5875,2864 C 5875,2783 5857,2714 5817,2644 5777,2574 5727,2524 5657,2483 5588,2443 5519,2424 5439,2424 L 3073,2424 Z M 3510,3303 L 5002,3303 5002,16727 3510,16727 3510,3303 Z"/>
         <path fill="rgb(0,0,0)" stroke="none" d="M 7596,3227 L 11018,3227 11018,7380 7596,7380 7596,3227 Z"/>
         <path fill="rgb(0,0,0)" stroke="none" d="M 12981,3227 L 16403,3227 16403,7380 12981,7380 12981,3227 Z"/>
         <path fill="rgb(0,0,0)" stroke="none" d="M 18367,3227 L 21789,3227 21789,7380 18367,7380 18367,3227 Z"/>
         <path fill="rgb(0,0,0)" stroke="none" d="M 7596,9785 L 11018,9785 11018,13938 7596,13938 7596,9785 Z"/>
         <path fill="rgb(0,0,0)" stroke="none" d="M 12981,9785 L 16403,9785 16403,13938 12981,13938 12981,9785 Z"/>
         <path fill="rgb(0,0,0)" stroke="none" d="M 18367,9785 L 21789,9785 21789,13938 18367,13938 18367,9785 Z"/>
         <path fill="rgb(0,0,0)" stroke="none" d="M 9657,21771 L 19717,21771 19717,29115 9657,29115 9657,21771 Z"/>
        </g>
       </g>
      </g>
     </g>
    </g>
   </g>
  </g>
 </g>
</svg>