<?xml version="1.0" encoding="UTF-8"?>
<!DOCTYPE svg PUBLIC "-//W3C//DTD SVG 1.1//EN" "http://www.w3.org/Graphics/SVG/1.1/DTD/svg11.dtd">
<svg version="1.2" width="293.75mm" height="293.75mm" viewBox="0 0 29375 29375" preserveAspectRatio="xMidYMid" fill-rule="evenodd" stroke-width="28.222" stroke-linejoin="round" xmlns="http://www.w3.org/2000/svg" xmlns:ooo="http://xml.openoffice.org/svg/export" xmlns:xlink="http://www.w3.org/1999/xlink" xmlns:presentation="http://sun.com/xmlns/staroffice/presentation" xmlns:smil="http://www.w3.org/2001/SMIL20/" xmlns:anim="urn:oasis:names:tc:opendocument:xmlns:animation:1.0" xml:space="preserve">
 <defs class="ClipPathGroup">
  <clipPath id="presentation_clip_path" clipPathUnits="userSpaceOnUse">
   <rect x="0" y="0" width="29375" height="29375"/>
  </clipPath>
  <clipPath id="presentation_clip_path_shrink" clipPathUnits="userSpaceOnUse">
   <rect x="29" y="29" width="29317" height="29317"/>
  </clipPath>
 </defs>
 <defs class="TextShapeIndex">
  <g ooo:slide="id1" ooo:id-list="id3"/>
 </defs>
 <defs class="EmbeddedBulletChars">
  <g id="bullet-char-template-57356" transform="scale(0.00048828125,-0.00048828125)">
   <path d="M 580,1141 L 1163,571 580,0 -4,571 580,1141 Z"/>
  </g>
  <g id="bullet-char-template-57354" transform="scale(0.00048828125,-0.00048828125)">
   <path d="M 8,1128 L 1137,1128 1137,0 8,0 8,1128 Z"/>
  </g>
  <g id="bullet-char-template-10146" transform="scale(0.00048828125,-0.00048828125)">
   <path d="M 174,0 L 602,739 174,1481 1456,739 174,0 Z M 1358,739 L 309,1346 659,739 1358,739 Z"/>
  </g>
  <g id="bullet-char-template-10132" transform="scale(0.00048828125,-0.00048828125)">
   <path d="M 2015,739 L 1276,0 717,0 1260,543 174,543 174,936 1260,936 717,1481 1274,1481 2015,739 Z"/>
  </g>
  <g id="bullet-char-template-10007" transform="scale(0.00048828125,-0.00048828125)">
   <path d="M 0,-2 C -7,14 -16,27 -25,37 L 356,567 C 262,823 215,952 215,954 215,979 228,992 255,992 264,992 276,990 289,987 310,991 331,999 354,1012 L 381,999 492,748 772,1049 836,1024 860,1049 C 881,1039 901,1025 922,1006 886,937 835,863 770,784 769,783 710,716 594,584 L 774,223 C 774,196 753,168 711,139 L 727,119 C 717,90 699,76 672,76 641,76 570,178 457,381 L 164,-76 C 142,-110 111,-127 72,-127 30,-127 9,-110 8,-76 1,-67 -2,-52 -2,-32 -2,-23 -1,-13 0,-2 Z"/>
  </g>
  <g id="bullet-char-template-10004" transform="scale(0.00048828125,-0.00048828125)">
   <path d="M 285,-33 C 182,-33 111,30 74,156 52,228 41,333 41,471 41,549 55,616 82,672 116,743 169,778 240,778 293,778 328,747 346,684 L 369,508 C 377,444 397,411 428,410 L 1163,1116 C 1174,1127 1196,1133 1229,1133 1271,1133 1292,1118 1292,1087 L 1292,965 C 1292,929 1282,901 1262,881 L 442,47 C 390,-6 338,-33 285,-33 Z"/>
  </g>
  <g id="bullet-char-template-9679" transform="scale(0.00048828125,-0.00048828125)">
   <path d="M 813,0 C 632,0 489,54 383,161 276,268 223,411 223,592 223,773 276,916 383,1023 489,1130 632,1184 813,1184 992,1184 1136,1130 1245,1023 1353,916 1407,772 1407,592 1407,412 1353,268 1245,161 1136,54 992,0 813,0 Z"/>
  </g>
  <g id="bullet-char-template-8226" transform="scale(0.00048828125,-0.00048828125)">
   <path d="M 346,457 C 273,457 209,483 155,535 101,586 74,649 74,723 74,796 101,859 155,911 209,963 273,989 346,989 419,989 480,963 531,910 582,859 608,796 608,723 608,648 583,586 532,535 482,483 420,457 346,457 Z"/>
  </g>
  <g id="bullet-char-template-8211" transform="scale(0.00048828125,-0.00048828125)">
   <path d="M -4,459 L 1135,459 1135,606 -4,606 -4,459 Z"/>
  </g>
  <g id="bullet-char-template-61548" transform="scale(0.00048828125,-0.00048828125)">
   <path d="M 173,740 C 173,903 231,1043 346,1159 462,1274 601,1332 765,1332 928,1332 1067,1274 1183,1159 1299,1043 1357,903 1357,740 1357,577 1299,437 1183,322 1067,206 928,148 765,148 601,148 462,206 346,322 231,437 173,577 173,740 Z"/>
  </g>
 </defs>
 <defs class="TextEmbeddedBitmaps"/>
 <g>
  <g id="id2" class="Master_Slide">
   <g id="bg-id2" class="Background"/>
   <g id="bo-id2" class="BackgroundObjects"/>
  </g>
 </g>
 <g class="SlideGroup">
  <g>
   <g id="container-id1">
    <g id="id1" class="Slide" clip-path="url(#presentation_clip_path)">
     <g class="Page">
      <g class="Graphic">
       <g id="id3">
        <rect class="BoundingBox" stroke="none" fill="none" x="-13" y="-13" width="30714" height="29401"/>
        <defs>
         <clipPath id="clip_path_1" clipPathUnits="userSpaceOnUse">
          <path d="M -13,-13 L 30700,-13 30700,29387 -13,29387 -13,-13 Z"/>
         </clipPath>
        </defs>
        <g clip-path="url(#clip_path_1)">
         <path fill="rgb(0,0,0)" stroke="none" d="M 17482,3414 C 17291,3375 17101,3304 16923,3200 16568,2991 16243,2663 15916,2182 15349,1349 14936,1147 14705,1129 14474,1111 14191,1265 13814,1504 13437,1743 12956,2075 12326,1996 11697,1917 11179,1467 10602,524 L 10602,524 C 10580,488 10567,455 10561,415 10551,352 10561,296 10590,237 10620,177 10661,132 10722,91 10783,51 10846,27 10921,16 10997,6 11064,11 11135,33 11205,54 11258,87 11305,135 11322,153 11335,170 11347,191 11880,1062 12284,1290 12487,1315 12690,1340 12952,1203 13327,964 13703,726 14181,393 14820,443 15460,493 16026,915 16645,1824 16937,2252 17206,2504 17424,2632 17642,2759 17792,2777 17963,2756 18305,2713 18784,2393 19290,2025 19796,1657 20352,1219 21095,1244 21466,1256 21829,1410 22142,1684 22454,1957 22739,2352 23028,2912 L 23028,2912 C 23046,2944 23056,2973 23061,3008 23071,3070 23062,3126 23032,3186 23002,3245 22961,3291 22900,3331 22839,3372 22777,3395 22701,3406 22625,3417 22558,3412 22488,3390 22417,3368 22364,3336 22318,3287 22293,3262 22276,3237 22262,3207 21994,2690 21740,2357 21525,2169 21310,1981 21160,1937 21023,1932 20750,1923 20319,2173 19822,2534 19325,2895 18785,3345 18050,3437 17866,3460 17673,3453 17482,3414 L 17482,3414 Z"/>
         <path fill="rgb(0,0,0)" stroke="none" d="M 3085,10024 L 401,10024 C 205,10024 46,10171 46,10352 L 46,29060 C 47,29240 205,29387 401,29387 L 18839,29387 19318,29387 28955,29387 C 29198,29387 29396,29197 29396,28962 L 29396,19343 C 29396,19108 29198,18918 28955,18918 L 26297,18918 25308,5491 C 25308,5107 25111,4796 24867,4796 L 23070,4796 C 22827,4796 22630,5107 22630,5491 L 21641,18918 19672,18918 19672,10352 C 19672,10171 19513,10024 19318,10024 L 11572,6780 11855,10024 3159,6780 3085,10024 Z M 2910,12180 L 5272,12180 5272,15325 2910,15325 2910,12180 Z M 5728,12180 L 8089,12180 8089,15325 5728,15325 5728,12180 Z M 11363,12180 L 13724,12180 13724,15325 11363,15325 11363,12180 Z M 14180,12180 L 16542,12180 16542,15325 14180,15325 14180,12180 Z M 2910,15707 L 5272,15707 5272,18851 2910,18851 2910,15707 Z M 5728,15707 L 8089,15707 8089,18851 5728,18851 5728,15707 Z M 11363,15707 L 13724,15707 13724,18851 11363,18851 11363,15707 Z M 14180,15707 L 16542,15707 16542,18851 14180,18851 14180,15707 Z M 2910,20653 L 5272,20653 5272,23798 2910,23798 2910,20653 Z M 5728,20653 L 8089,20653 8089,23798 5728,23798 5728,20653 Z M 11363,20653 L 13724,20653 13724,23798 11363,23798 11363,20653 Z M 14180,20653 L 16542,20653 16542,23798 14180,23798 14180,20653 Z M 21307,20653 L 23669,20653 23669,23798 21307,23798 21307,20653 Z M 24125,20653 L 26486,20653 26486,23798 24125,23798 24125,20653 Z M 2910,24180 L 5272,24180 5272,27324 2910,27324 2910,24180 Z M 5728,24180 L 8089,24180 8089,27324 5728,27324 5728,24180 Z M 11363,24180 L 13724,24180 13724,27324 11363,27324 11363,24180 Z M 14180,24180 L 16542,24180 16542,27324 14180,27324 14180,24180 Z M 21307,24180 L 23669,24180 23669,27324 21307,27324 21307,24180 Z M 24125,24180 L 26486,24180 26486,27324 24125,27324 24125,24180 Z"/>
        </g>
       </g>
      </g>
     </g>
    </g>
   </g>
  </g>
 </g>
</svg>