<?xml version="1.0" encoding="UTF-8"?>
<!DOCTYPE svg PUBLIC "-//W3C//DTD SVG 1.1//EN" "http://www.w3.org/Graphics/SVG/1.1/DTD/svg11.dtd">
<svg version="1.2" width="293.75mm" height="293.75mm" viewBox="0 0 29375 29375" preserveAspectRatio="xMidYMid" fill-rule="evenodd" stroke-width="28.222" stroke-linejoin="round" xmlns="http://www.w3.org/2000/svg" xmlns:ooo="http://xml.openoffice.org/svg/export" xmlns:xlink="http://www.w3.org/1999/xlink" xmlns:presentation="http://sun.com/xmlns/staroffice/presentation" xmlns:smil="http://www.w3.org/2001/SMIL20/" xmlns:anim="urn:oasis:names:tc:opendocument:xmlns:animation:1.0" xml:space="preserve">
 <defs class="ClipPathGroup">
  <clipPath id="presentation_clip_path" clipPathUnits="userSpaceOnUse">
   <rect x="0" y="0" width="29375" height="29375"/>
  </clipPath>
  <clipPath id="presentation_clip_path_shrink" clipPathUnits="userSpaceOnUse">
   <rect x="29" y="29" width="29317" height="29317"/>
  </clipPath>
 </defs>
 <defs class="TextShapeIndex">
  <g ooo:slide="id1" ooo:id-list="id3"/>
 </defs>
 <defs class="EmbeddedBulletChars">
  <g id="bullet-char-template-57356" transform="scale(0.00048828125,-0.00048828125)">
   <path d="M 580,1141 L 1163,571 580,0 -4,571 580,1141 Z"/>
  </g>
  <g id="bullet-char-template-57354" transform="scale(0.00048828125,-0.00048828125)">
   <path d="M 8,1128 L 1137,1128 1137,0 8,0 8,1128 Z"/>
  </g>
  <g id="bullet-char-template-10146" transform="scale(0.00048828125,-0.00048828125)">
   <path d="M 174,0 L 602,739 174,1481 1456,739 174,0 Z M 1358,739 L 309,1346 659,739 1358,739 Z"/>
  </g>
  <g id="bullet-char-template-10132" transform="scale(0.00048828125,-0.00048828125)">
   <path d="M 2015,739 L 1276,0 717,0 1260,543 174,543 174,936 1260,936 717,1481 1274,1481 2015,739 Z"/>
  </g>
  <g id="bullet-char-template-10007" transform="scale(0.00048828125,-0.00048828125)">
   <path d="M 0,-2 C -7,14 -16,27 -25,37 L 356,567 C 262,823 215,952 215,954 215,979 228,992 255,992 264,992 276,990 289,987 310,991 331,999 354,1012 L 381,999 492,748 772,1049 836,1024 860,1049 C 881,1039 901,1025 922,1006 886,937 835,863 770,784 769,783 710,716 594,584 L 774,223 C 774,196 753,168 711,139 L 727,119 C 717,90 699,76 672,76 641,76 570,178 457,381 L 164,-76 C 142,-110 111,-127 72,-127 30,-127 9,-110 8,-76 1,-67 -2,-52 -2,-32 -2,-23 -1,-13 0,-2 Z"/>
  </g>
  <g id="bullet-char-template-10004" transform="scale(0.00048828125,-0.00048828125)">
   <path d="M 285,-33 C 182,-33 111,30 74,156 52,228 41,333 41,471 41,549 55,616 82,672 116,743 169,778 240,778 293,778 328,747 346,684 L 369,508 C 377,444 397,411 428,410 L 1163,1116 C 1174,1127 1196,1133 1229,1133 1271,1133 1292,1118 1292,1087 L 1292,965 C 1292,929 1282,901 1262,881 L 442,47 C 390,-6 338,-33 285,-33 Z"/>
  </g>
  <g id="bullet-char-template-9679" transform="scale(0.00048828125,-0.00048828125)">
   <path d="M 813,0 C 632,0 489,54 383,161 276,268 223,411 223,592 223,773 276,916 383,1023 489,1130 632,1184 813,1184 992,1184 1136,1130 1245,1023 1353,916 1407,772 1407,592 1407,412 1353,268 1245,161 1136,54 992,0 813,0 Z"/>
  </g>
  <g id="bullet-char-template-8226" transform="scale(0.00048828125,-0.00048828125)">
   <path d="M 346,457 C 273,457 209,483 155,535 101,586 74,649 74,723 74,796 101,859 155,911 209,963 273,989 346,989 419,989 480,963 531,910 582,859 608,796 608,723 608,648 583,586 532,535 482,483 420,457 346,457 Z"/>
  </g>
  <g id="bullet-char-template-8211" transform="scale(0.00048828125,-0.00048828125)">
   <path d="M -4,459 L 1135,459 1135,606 -4,606 -4,459 Z"/>
  </g>
  <g id="bullet-char-template-61548" transform="scale(0.00048828125,-0.00048828125)">
   <path d="M 173,740 C 173,903 231,1043 346,1159 462,1274 601,1332 765,1332 928,1332 1067,1274 1183,1159 1299,1043 1357,903 1357,740 1357,577 1299,437 1183,322 1067,206 928,148 765,148 601,148 462,206 346,322 231,437 173,577 173,740 Z"/>
  </g>
 </defs>
 <defs class="TextEmbeddedBitmaps"/>
 <g>
  <g id="id2" class="Master_Slide">
   <g id="bg-id2" class="Background"/>
   <g id="bo-id2" class="BackgroundObjects"/>
  </g>
 </g>
 <g class="SlideGroup">
  <g>
   <g id="container-id1">
    <g id="id1" class="Slide" clip-path="url(#presentation_clip_path)">
     <g class="Page">
      <g class="Graphic">
       <g id="id3">
        <rect class="BoundingBox" stroke="none" fill="none" x="-13" y="-13" width="29401" height="29401"/>
        <path fill="rgb(0,0,0)" stroke="none" d="M 12537,94 C 11836,94 11268,662 11268,1363 L 10890,2236 C 10082,2484 9308,2808 8575,3200 L 7683,2848 C 7188,2352 6384,2352 5888,2848 L 2848,5888 C 2352,6384 2352,7188 2848,7683 L 3200,8575 C 2808,9308 2484,10082 2236,10889 L 1363,11268 C 662,11268 94,11836 94,12537 L 94,16837 C 94,17538 662,18106 1363,18106 L 2236,18484 C 2483,19292 2808,20067 3200,20800 L 2848,21691 C 2352,22186 2352,22990 2848,23486 L 5888,26526 C 6384,27022 7188,27022 7683,26526 L 8575,26174 C 9308,26566 10082,26890 10890,27138 L 11268,28011 C 11268,28712 11836,29280 12537,29280 L 16837,29280 C 17538,29280 18106,28712 18106,28011 L 18484,27138 C 19292,26891 20067,26566 20800,26174 L 21691,26526 C 22186,27022 22990,27022 23486,26526 L 26526,23486 C 27022,22990 27022,22186 26526,21691 L 26174,20799 C 26566,20066 26890,19292 27138,18485 L 28011,18106 C 28712,18106 29280,17538 29280,16837 L 29280,12537 C 29280,11836 28712,11268 28011,11268 L 27138,10890 C 26891,10082 26566,9307 26174,8574 L 26526,7683 C 27022,7188 27022,6384 26526,5888 L 23486,2848 C 22990,2352 22186,2352 21691,2848 L 20799,3200 C 20066,2808 19292,2484 18484,2236 L 18106,1363 C 18106,662 17538,94 16837,94 L 12537,94 Z M 14687,5690 C 16294,5690 17659,6067 19051,6895 20443,7723 21442,8754 22246,10188 23049,11623 23415,13031 23415,14687 L 23415,14687 C 23415,16343 23049,17751 22246,19186 21442,20620 20443,21651 19051,22479 17659,23307 16294,23684 14687,23684 L 14687,23684 C 13080,23684 11714,23307 10323,22479 8931,21651 7932,20620 7128,19186 6325,17751 5959,16343 5959,14687 L 5959,14687 C 5959,13031 6325,11623 7128,10188 7932,8754 8931,7723 10323,6895 11714,6067 13080,5690 14687,5690 L 14687,5690 Z"/>
        <path fill="rgb(0,0,0)" stroke="none" d="M 20387,17978 C 19781,19027 19027,19781 17978,20387 16929,20993 15899,21269 14687,21269 13475,21269 12445,20993 11396,20387 10347,19781 9593,19027 8987,17978 8381,16929 8105,15899 8105,14687 8105,13475 8381,12445 8987,11396 9593,10347 10347,9593 11396,8987 12445,8381 13475,8105 14687,8105 15899,8105 16929,8381 17978,8987 19027,9593 19781,10347 20387,11396 20993,12445 21269,13475 21269,14687 21269,15899 20993,16929 20387,17978 Z"/>
       </g>
      </g>
     </g>
    </g>
   </g>
  </g>
 </g>
</svg>