<?xml version="1.0" encoding="UTF-8"?>
<!DOCTYPE svg PUBLIC "-//W3C//DTD SVG 1.1//EN" "http://www.w3.org/Graphics/SVG/1.1/DTD/svg11.dtd">
<svg version="1.2" width="293.75mm" height="293.75mm" viewBox="0 0 29375 29375" preserveAspectRatio="xMidYMid" fill-rule="evenodd" stroke-width="28.222" stroke-linejoin="round" xmlns="http://www.w3.org/2000/svg" xmlns:ooo="http://xml.openoffice.org/svg/export" xmlns:xlink="http://www.w3.org/1999/xlink" xmlns:presentation="http://sun.com/xmlns/staroffice/presentation" xmlns:smil="http://www.w3.org/2001/SMIL20/" xmlns:anim="urn:oasis:names:tc:opendocument:xmlns:animation:1.0" xml:space="preserve">
 <defs class="ClipPathGroup">
  <clipPath id="presentation_clip_path" clipPathUnits="userSpaceOnUse">
   <rect x="0" y="0" width="29375" height="29375"/>
  </clipPath>
  <clipPath id="presentation_clip_path_shrink" clipPathUnits="userSpaceOnUse">
   <rect x="29" y="29" width="29317" height="29317"/>
  </clipPath>
 </defs>
 <defs class="TextShapeIndex">
  <g ooo:slide="id1" ooo:id-list="id3"/>
 </defs>
 <defs class="EmbeddedBulletChars">
  <g id="bullet-char-template-57356" transform="scale(0.00048828125,-0.00048828125)">
   <path d="M 580,1141 L 1163,571 580,0 -4,571 580,1141 Z"/>
  </g>
  <g id="bullet-char-template-57354" transform="scale(0.00048828125,-0.00048828125)">
   <path d="M 8,1128 L 1137,1128 1137,0 8,0 8,1128 Z"/>
  </g>
  <g id="bullet-char-template-10146" transform="scale(0.00048828125,-0.00048828125)">
   <path d="M 174,0 L 602,739 174,1481 1456,739 174,0 Z M 1358,739 L 309,1346 659,739 1358,739 Z"/>
  </g>
  <g id="bullet-char-template-10132" transform="scale(0.00048828125,-0.00048828125)">
   <path d="M 2015,739 L 1276,0 717,0 1260,543 174,543 174,936 1260,936 717,1481 1274,1481 2015,739 Z"/>
  </g>
  <g id="bullet-char-template-10007" transform="scale(0.00048828125,-0.00048828125)">
   <path d="M 0,-2 C -7,14 -16,27 -25,37 L 356,567 C 262,823 215,952 215,954 215,979 228,992 255,992 264,992 276,990 289,987 310,991 331,999 354,1012 L 381,999 492,748 772,1049 836,1024 860,1049 C 881,1039 901,1025 922,1006 886,937 835,863 770,784 769,783 710,716 594,584 L 774,223 C 774,196 753,168 711,139 L 727,119 C 717,90 699,76 672,76 641,76 570,178 457,381 L 164,-76 C 142,-110 111,-127 72,-127 30,-127 9,-110 8,-76 1,-67 -2,-52 -2,-32 -2,-23 -1,-13 0,-2 Z"/>
  </g>
  <g id="bullet-char-template-10004" transform="scale(0.00048828125,-0.00048828125)">
   <path d="M 285,-33 C 182,-33 111,30 74,156 52,228 41,333 41,471 41,549 55,616 82,672 116,743 169,778 240,778 293,778 328,747 346,684 L 369,508 C 377,444 397,411 428,410 L 1163,1116 C 1174,1127 1196,1133 1229,1133 1271,1133 1292,1118 1292,1087 L 1292,965 C 1292,929 1282,901 1262,881 L 442,47 C 390,-6 338,-33 285,-33 Z"/>
  </g>
  <g id="bullet-char-template-9679" transform="scale(0.00048828125,-0.00048828125)">
   <path d="M 813,0 C 632,0 489,54 383,161 276,268 223,411 223,592 223,773 276,916 383,1023 489,1130 632,1184 813,1184 992,1184 1136,1130 1245,1023 1353,916 1407,772 1407,592 1407,412 1353,268 1245,161 1136,54 992,0 813,0 Z"/>
  </g>
  <g id="bullet-char-template-8226" transform="scale(0.00048828125,-0.00048828125)">
   <path d="M 346,457 C 273,457 209,483 155,535 101,586 74,649 74,723 74,796 101,859 155,911 209,963 273,989 346,989 419,989 480,963 531,910 582,859 608,796 608,723 608,648 583,586 532,535 482,483 420,457 346,457 Z"/>
  </g>
  <g id="bullet-char-template-8211" transform="scale(0.00048828125,-0.00048828125)">
   <path d="M -4,459 L 1135,459 1135,606 -4,606 -4,459 Z"/>
  </g>
  <g id="bullet-char-template-61548" transform="scale(0.00048828125,-0.00048828125)">
   <path d="M 173,740 C 173,903 231,1043 346,1159 462,1274 601,1332 765,1332 928,1332 1067,1274 1183,1159 1299,1043 1357,903 1357,740 1357,577 1299,437 1183,322 1067,206 928,148 765,148 601,148 462,206 346,322 231,437 173,577 173,740 Z"/>
  </g>
 </defs>
 <defs class="TextEmbeddedBitmaps"/>
 <g>
  <g id="id2" class="Master_Slide">
   <g id="bg-id2" class="Background"/>
   <g id="bo-id2" class="BackgroundObjects"/>
  </g>
 </g>
 <g class="SlideGroup">
  <g>
   <g id="container-id1">
    <g id="id1" class="Slide" clip-path="url(#presentation_clip_path)">
     <g class="Page">
      <g class="Graphic">
       <g id="id3">
        <rect class="BoundingBox" stroke="none" fill="none" x="-13" y="-13" width="29401" height="29401"/>
        <path fill="rgb(0,0,0)" stroke="none" d="M 17827,22758 C 17819,22758 17811,22760 17803,22765 17796,22769 17789,22776 17782,22784 17775,22793 17768,22803 17762,22815 17756,22827 17750,22841 17745,22857 17740,22872 17735,22889 17731,22907 17727,22925 17723,22944 17720,22964 17717,22984 17715,23006 17714,23028 17712,23050 17711,23073 17711,23096 L 17711,26342 C 17711,26366 17712,26389 17714,26411 17715,26433 17718,26454 17720,26474 17723,26495 17727,26514 17731,26532 17735,26550 17740,26566 17745,26582 17750,26597 17756,26611 17762,26623 17768,26635 17775,26646 17782,26654 17789,26663 17796,26669 17803,26674 17811,26678 17819,26681 17827,26681 L 20304,26681 C 20312,26681 20320,26678 20327,26674 20335,26669 20342,26663 20349,26654 20356,26646 20362,26635 20368,26623 20374,26611 20380,26597 20385,26582 20391,26566 20395,26550 20399,26532 20404,26514 20407,26495 20410,26474 20413,26454 20415,26433 20417,26411 20418,26389 20419,26366 20419,26342 L 20419,23096 C 20419,23073 20418,23050 20417,23028 20415,23006 20413,22984 20410,22964 20407,22944 20404,22925 20399,22907 20395,22889 20391,22872 20385,22857 20380,22841 20374,22827 20368,22815 20362,22803 20356,22793 20349,22784 20342,22776 20335,22769 20327,22765 20320,22760 20312,22758 20304,22758 L 17827,22758 Z"/>
        <path fill="rgb(0,0,0)" stroke="none" d="M 1229,73 C 689,73 255,463 255,947 L 255,28427 C 255,28911 689,29301 1229,29301 L 25762,29301 29119,25768 29119,947 C 29119,463 28685,73 28145,73 L 1229,73 Z M 14687,10685 C 14828,10685 14947,10691 15087,10705 15227,10719 15344,10737 15482,10765 15620,10792 15735,10822 15870,10864 16004,10905 16116,10946 16246,11001 16375,11055 16482,11107 16606,11175 16635,11191 16660,11204 16688,11221 16781,11275 16858,11323 16947,11384 17063,11463 17158,11535 17265,11626 17373,11717 17460,11798 17558,11899 17656,12000 17735,12089 17822,12199 17910,12309 17979,12406 18055,12525 18091,12580 18120,12628 18153,12686 18190,12750 18220,12805 18254,12872 18318,12997 18366,13106 18417,13237 18468,13368 18506,13481 18543,13616 18581,13752 18607,13868 18631,14007 18655,14145 18669,14264 18679,14404 18686,14503 18689,14587 18689,14687 18689,14687 18689,14687 18689,14687 18689,14828 18683,14947 18669,15087 18655,15227 18637,15344 18609,15482 18582,15620 18552,15735 18510,15870 18469,16004 18428,16116 18373,16246 18319,16375 18267,16482 18199,16606 18183,16635 18170,16659 18153,16688 18099,16781 18051,16858 17990,16947 17911,17063 17839,17158 17748,17265 17657,17373 17576,17460 17475,17558 17374,17656 17285,17735 17175,17822 17065,17910 16968,17979 16849,18055 16794,18091 16746,18120 16688,18153 16624,18190 16569,18220 16502,18254 16377,18318 16268,18366 16137,18417 16006,18468 15893,18506 15758,18543 15622,18581 15506,18607 15367,18631 15229,18655 15110,18669 14970,18679 14871,18686 14787,18689 14687,18689 14687,18689 14687,18689 14687,18689 14546,18689 14427,18683 14287,18669 14147,18655 14030,18637 13892,18609 13754,18582 13639,18552 13504,18510 13370,18469 13258,18428 13128,18373 12999,18319 12892,18267 12768,18199 12739,18183 12715,18170 12686,18153 12593,18099 12516,18051 12427,17990 12311,17911 12216,17839 12109,17748 12001,17657 11914,17576 11816,17475 11718,17374 11639,17285 11552,17175 11464,17065 11395,16968 11319,16849 11283,16794 11254,16746 11221,16688 11184,16624 11154,16569 11120,16502 11056,16377 11008,16268 10957,16137 10906,16006 10868,15893 10831,15758 10793,15622 10767,15506 10743,15367 10719,15229 10705,15110 10695,14970 10688,14871 10685,14787 10685,14687 10685,14687 10685,14687 10685,14687 10685,14546 10691,14427 10705,14287 10719,14147 10737,14030 10765,13892 10792,13754 10822,13639 10864,13504 10905,13370 10946,13258 11001,13128 11055,12999 11107,12892 11175,12768 11191,12739 11204,12715 11221,12686 11275,12593 11323,12516 11384,12427 11463,12311 11535,12216 11626,12109 11717,12001 11798,11914 11899,11816 12000,11718 12089,11639 12199,11552 12309,11464 12406,11395 12525,11319 12580,11283 12628,11254 12686,11221 12750,11184 12805,11154 12872,11120 12997,11056 13106,11008 13237,10957 13368,10906 13481,10868 13616,10831 13752,10793 13868,10767 14007,10743 14145,10719 14264,10705 14404,10695 14503,10688 14587,10685 14687,10685 14687,10685 14687,10685 14687,10685 Z M 7901,20890 L 21473,20890 C 21516,20890 21559,20895 21600,20903 21642,20912 21681,20925 21719,20942 21757,20958 21793,20979 21826,21003 21860,21026 21891,21053 21920,21083 21948,21113 21974,21146 21997,21181 22020,21216 22039,21253 22055,21293 22071,21333 22083,21374 22092,21417 22100,21460 22104,21505 22104,21551 L 22104,27888 C 22104,27933 22100,27978 22092,28021 22083,28064 22071,28106 22055,28145 22039,28185 22020,28222 21997,28257 21974,28293 21948,28325 21920,28355 21891,28385 21860,28412 21826,28436 21793,28459 21757,28480 21719,28497 21681,28513 21642,28526 21600,28535 21559,28544 21516,28548 21473,28548 L 7901,28548 C 7858,28548 7815,28544 7774,28535 7732,28526 7693,28513 7655,28497 7617,28480 7581,28459 7548,28436 7514,28412 7483,28385 7454,28355 7426,28325 7400,28293 7377,28257 7354,28222 7335,28185 7319,28145 7303,28106 7291,28064 7282,28021 7274,27978 7270,27933 7270,27888 L 7270,21551 C 7270,21505 7274,21460 7282,21417 7291,21374 7303,21333 7319,21293 7335,21253 7354,21216 7377,21181 7400,21146 7426,21113 7454,21083 7483,21053 7514,21026 7548,21003 7581,20979 7617,20958 7655,20942 7693,20925 7732,20912 7774,20903 7815,20895 7858,20890 7901,20890 Z"/>
        <path fill="rgb(0,0,0)" stroke="none" d="M 15428,15157 L 15428,15157 C 15350,15293 15253,15390 15118,15468 14982,15546 14849,15582 14693,15582 14537,15582 14404,15546 14269,15468 L 14269,15468 C 14133,15390 14036,15293 13958,15157 13880,15022 13844,14889 13844,14733 13844,14576 13880,14444 13958,14308 L 13958,14308 C 14036,14173 14133,14076 14269,13997 14404,13919 14537,13884 14693,13884 14849,13884 14982,13919 15118,13997 L 15118,13997 C 15253,14076 15350,14173 15428,14308 15506,14444 15542,14576 15542,14733 15542,14889 15506,15022 15428,15157 Z"/>
       </g>
      </g>
     </g>
    </g>
   </g>
  </g>
 </g>
</svg>