<?xml version="1.0" encoding="UTF-8"?>
<!DOCTYPE svg PUBLIC "-//W3C//DTD SVG 1.1//EN" "http://www.w3.org/Graphics/SVG/1.1/DTD/svg11.dtd">
<svg version="1.2" width="293.75mm" height="293.75mm" viewBox="0 0 29375 29375" preserveAspectRatio="xMidYMid" fill-rule="evenodd" stroke-width="28.222" stroke-linejoin="round" xmlns="http://www.w3.org/2000/svg" xmlns:ooo="http://xml.openoffice.org/svg/export" xmlns:xlink="http://www.w3.org/1999/xlink" xmlns:presentation="http://sun.com/xmlns/staroffice/presentation" xmlns:smil="http://www.w3.org/2001/SMIL20/" xmlns:anim="urn:oasis:names:tc:opendocument:xmlns:animation:1.0" xml:space="preserve">
 <defs class="ClipPathGroup">
  <clipPath id="presentation_clip_path" clipPathUnits="userSpaceOnUse">
   <rect x="0" y="0" width="29375" height="29375"/>
  </clipPath>
  <clipPath id="presentation_clip_path_shrink" clipPathUnits="userSpaceOnUse">
   <rect x="29" y="29" width="29317" height="29317"/>
  </clipPath>
 </defs>
 <defs class="TextShapeIndex">
  <g ooo:slide="id1" ooo:id-list="id3"/>
 </defs>
 <defs class="EmbeddedBulletChars">
  <g id="bullet-char-template-57356" transform="scale(0.00048828125,-0.00048828125)">
   <path d="M 580,1141 L 1163,571 580,0 -4,571 580,1141 Z"/>
  </g>
  <g id="bullet-char-template-57354" transform="scale(0.00048828125,-0.00048828125)">
   <path d="M 8,1128 L 1137,1128 1137,0 8,0 8,1128 Z"/>
  </g>
  <g id="bullet-char-template-10146" transform="scale(0.00048828125,-0.00048828125)">
   <path d="M 174,0 L 602,739 174,1481 1456,739 174,0 Z M 1358,739 L 309,1346 659,739 1358,739 Z"/>
  </g>
  <g id="bullet-char-template-10132" transform="scale(0.00048828125,-0.00048828125)">
   <path d="M 2015,739 L 1276,0 717,0 1260,543 174,543 174,936 1260,936 717,1481 1274,1481 2015,739 Z"/>
  </g>
  <g id="bullet-char-template-10007" transform="scale(0.00048828125,-0.00048828125)">
   <path d="M 0,-2 C -7,14 -16,27 -25,37 L 356,567 C 262,823 215,952 215,954 215,979 228,992 255,992 264,992 276,990 289,987 310,991 331,999 354,1012 L 381,999 492,748 772,1049 836,1024 860,1049 C 881,1039 901,1025 922,1006 886,937 835,863 770,784 769,783 710,716 594,584 L 774,223 C 774,196 753,168 711,139 L 727,119 C 717,90 699,76 672,76 641,76 570,178 457,381 L 164,-76 C 142,-110 111,-127 72,-127 30,-127 9,-110 8,-76 1,-67 -2,-52 -2,-32 -2,-23 -1,-13 0,-2 Z"/>
  </g>
  <g id="bullet-char-template-10004" transform="scale(0.00048828125,-0.00048828125)">
   <path d="M 285,-33 C 182,-33 111,30 74,156 52,228 41,333 41,471 41,549 55,616 82,672 116,743 169,778 240,778 293,778 328,747 346,684 L 369,508 C 377,444 397,411 428,410 L 1163,1116 C 1174,1127 1196,1133 1229,1133 1271,1133 1292,1118 1292,1087 L 1292,965 C 1292,929 1282,901 1262,881 L 442,47 C 390,-6 338,-33 285,-33 Z"/>
  </g>
  <g id="bullet-char-template-9679" transform="scale(0.00048828125,-0.00048828125)">
   <path d="M 813,0 C 632,0 489,54 383,161 276,268 223,411 223,592 223,773 276,916 383,1023 489,1130 632,1184 813,1184 992,1184 1136,1130 1245,1023 1353,916 1407,772 1407,592 1407,412 1353,268 1245,161 1136,54 992,0 813,0 Z"/>
  </g>
  <g id="bullet-char-template-8226" transform="scale(0.00048828125,-0.00048828125)">
   <path d="M 346,457 C 273,457 209,483 155,535 101,586 74,649 74,723 74,796 101,859 155,911 209,963 273,989 346,989 419,989 480,963 531,910 582,859 608,796 608,723 608,648 583,586 532,535 482,483 420,457 346,457 Z"/>
  </g>
  <g id="bullet-char-template-8211" transform="scale(0.00048828125,-0.00048828125)">
   <path d="M -4,459 L 1135,459 1135,606 -4,606 -4,459 Z"/>
  </g>
  <g id="bullet-char-template-61548" transform="scale(0.00048828125,-0.00048828125)">
   <path d="M 173,740 C 173,903 231,1043 346,1159 462,1274 601,1332 765,1332 928,1332 1067,1274 1183,1159 1299,1043 1357,903 1357,740 1357,577 1299,437 1183,322 1067,206 928,148 765,148 601,148 462,206 346,322 231,437 173,577 173,740 Z"/>
  </g>
 </defs>
 <defs class="TextEmbeddedBitmaps"/>
 <g>
  <g id="id2" class="Master_Slide">
   <g id="bg-id2" class="Background"/>
   <g id="bo-id2" class="BackgroundObjects"/>
  </g>
 </g>
 <g class="SlideGroup">
  <g>
   <g id="container-id1">
    <g id="id1" class="Slide" clip-path="url(#presentation_clip_path)">
     <g class="Page">
      <g class="Graphic">
       <g id="id3">
        <rect class="BoundingBox" stroke="none" fill="none" x="-13" y="-13" width="29401" height="29401"/>
        <defs>
         <clipPath id="clip_path_1" clipPathUnits="userSpaceOnUse">
          <path d="M -13,-13 L 29387,-13 29387,29387 -13,29387 -13,-13 Z"/>
         </clipPath>
        </defs>
        <g clip-path="url(#clip_path_1)">
         <path fill="rgb(0,0,0)" stroke="none" d="M 13590,10700 C 13232,10700 12942,10990 12942,11347 L 12749,11793 C 12337,11919 11942,12085 11568,12285 L 11113,12105 C 10860,11852 10450,11852 10197,12105 L 8645,13657 C 8392,13910 8392,14320 8645,14573 L 8825,15028 C 8625,15402 8459,15797 8333,16209 L 7888,16402 C 7530,16402 7240,16692 7240,17050 L 7240,19244 C 7240,19602 7530,19892 7888,19892 L 8333,20085 C 8459,20497 8625,20892 8825,21266 L 8645,21721 C 8392,21974 8392,22384 8645,22637 L 10197,24188 C 10450,24441 10860,24441 11113,24188 L 11568,24008 C 11942,24209 12337,24374 12749,24501 L 12942,24946 C 12942,25304 13232,25594 13590,25594 L 15784,25594 C 16142,25594 16432,25304 16432,24946 L 16625,24501 C 17037,24374 17432,24209 17806,24009 L 18261,24188 C 18514,24441 18924,24441 19177,24188 L 20729,22637 C 20982,22384 20982,21974 20729,21721 L 20549,21266 C 20749,20892 20915,20497 21041,20085 L 21486,19892 C 21844,19892 22134,19602 22134,19244 L 22134,17050 C 22134,16692 21844,16402 21486,16402 L 21041,16209 C 20915,15797 20749,15401 20549,15027 L 20729,14573 C 20982,14320 20982,13910 20729,13657 L 19177,12105 C 18924,11852 18514,11852 18261,12105 L 17806,12285 C 17432,12085 17037,11919 16625,11793 L 16432,11347 C 16432,10990 16142,10700 15784,10700 L 13590,10700 Z M 14687,13555 C 15507,13555 16204,13748 16914,14170 17624,14593 18134,15119 18544,15851 18954,16583 19141,17301 19141,18147 L 19141,18147 C 19141,18992 18954,19710 18544,20442 18134,21174 17624,21700 16914,22123 16204,22546 15507,22738 14687,22738 L 14687,22738 C 13867,22738 13170,22546 12460,22123 11750,21700 11240,21174 10830,20442 10420,19710 10233,18992 10233,18147 L 10233,18147 C 10233,17301 10420,16583 10830,15851 11240,15119 11750,14593 12460,14170 13170,13748 13867,13555 14687,13555 L 14687,13555 Z"/>
         <path fill="rgb(0,0,0)" stroke="none" d="M 17759,18147 C 17759,18712 17631,19193 17348,19683 17065,20173 16713,20525 16223,20808 15733,21090 15253,21219 14687,21219 14121,21219 13641,21090 13151,20808 12661,20525 12309,20173 12026,19683 11743,19193 11615,18712 11615,18147 11615,17581 11743,17100 12026,16610 12309,16121 12661,15769 13151,15486 13641,15203 14121,15074 14687,15074 15253,15074 15733,15203 16223,15486 16713,15769 17065,16121 17348,16610 17631,17100 17759,17581 17759,18147 Z"/>
         <path fill="rgb(0,0,0)" stroke="none" d="M 5100,-51 C 4281,-51 3486,583 3486,1483 L 3486,27891 C 3486,28791 4281,29425 5100,29425 L 24274,29425 C 25093,29425 25888,28791 25888,27891 L 25888,6600 20144,-51 19699,-51 5100,-51 Z M 5423,1877 L 19254,1877 23951,7315 23951,27497 5423,27497 5423,1877 Z"/>
         <path fill="rgb(0,0,0)" stroke="none" d="M 25808,6958 L 20400,6958 C 19760,6958 19244,6550 19244,6044 L 19244,389 17705,389 17705,7161 C 17705,7898 18456,8491 19388,8491 L 25808,8491 25808,6958 Z"/>
        </g>
       </g>
      </g>
     </g>
    </g>
   </g>
  </g>
 </g>
</svg>