<?xml version="1.0" encoding="UTF-8"?>
<!DOCTYPE svg PUBLIC "-//W3C//DTD SVG 1.1//EN" "http://www.w3.org/Graphics/SVG/1.1/DTD/svg11.dtd">
<svg version="1.2" width="293.75mm" height="293.75mm" viewBox="0 0 29375 29375" preserveAspectRatio="xMidYMid" fill-rule="evenodd" stroke-width="28.222" stroke-linejoin="round" xmlns="http://www.w3.org/2000/svg" xmlns:ooo="http://xml.openoffice.org/svg/export" xmlns:xlink="http://www.w3.org/1999/xlink" xmlns:presentation="http://sun.com/xmlns/staroffice/presentation" xmlns:smil="http://www.w3.org/2001/SMIL20/" xmlns:anim="urn:oasis:names:tc:opendocument:xmlns:animation:1.0" xml:space="preserve">
 <defs class="ClipPathGroup">
  <clipPath id="presentation_clip_path" clipPathUnits="userSpaceOnUse">
   <rect x="0" y="0" width="29375" height="29375"/>
  </clipPath>
  <clipPath id="presentation_clip_path_shrink" clipPathUnits="userSpaceOnUse">
   <rect x="29" y="29" width="29317" height="29317"/>
  </clipPath>
 </defs>
 <defs class="TextShapeIndex">
  <g ooo:slide="id1" ooo:id-list="id3"/>
 </defs>
 <defs class="EmbeddedBulletChars">
  <g id="bullet-char-template-57356" transform="scale(0.00048828125,-0.00048828125)">
   <path d="M 580,1141 L 1163,571 580,0 -4,571 580,1141 Z"/>
  </g>
  <g id="bullet-char-template-57354" transform="scale(0.00048828125,-0.00048828125)">
   <path d="M 8,1128 L 1137,1128 1137,0 8,0 8,1128 Z"/>
  </g>
  <g id="bullet-char-template-10146" transform="scale(0.00048828125,-0.00048828125)">
   <path d="M 174,0 L 602,739 174,1481 1456,739 174,0 Z M 1358,739 L 309,1346 659,739 1358,739 Z"/>
  </g>
  <g id="bullet-char-template-10132" transform="scale(0.00048828125,-0.00048828125)">
   <path d="M 2015,739 L 1276,0 717,0 1260,543 174,543 174,936 1260,936 717,1481 1274,1481 2015,739 Z"/>
  </g>
  <g id="bullet-char-template-10007" transform="scale(0.00048828125,-0.00048828125)">
   <path d="M 0,-2 C -7,14 -16,27 -25,37 L 356,567 C 262,823 215,952 215,954 215,979 228,992 255,992 264,992 276,990 289,987 310,991 331,999 354,1012 L 381,999 492,748 772,1049 836,1024 860,1049 C 881,1039 901,1025 922,1006 886,937 835,863 770,784 769,783 710,716 594,584 L 774,223 C 774,196 753,168 711,139 L 727,119 C 717,90 699,76 672,76 641,76 570,178 457,381 L 164,-76 C 142,-110 111,-127 72,-127 30,-127 9,-110 8,-76 1,-67 -2,-52 -2,-32 -2,-23 -1,-13 0,-2 Z"/>
  </g>
  <g id="bullet-char-template-10004" transform="scale(0.00048828125,-0.00048828125)">
   <path d="M 285,-33 C 182,-33 111,30 74,156 52,228 41,333 41,471 41,549 55,616 82,672 116,743 169,778 240,778 293,778 328,747 346,684 L 369,508 C 377,444 397,411 428,410 L 1163,1116 C 1174,1127 1196,1133 1229,1133 1271,1133 1292,1118 1292,1087 L 1292,965 C 1292,929 1282,901 1262,881 L 442,47 C 390,-6 338,-33 285,-33 Z"/>
  </g>
  <g id="bullet-char-template-9679" transform="scale(0.00048828125,-0.00048828125)">
   <path d="M 813,0 C 632,0 489,54 383,161 276,268 223,411 223,592 223,773 276,916 383,1023 489,1130 632,1184 813,1184 992,1184 1136,1130 1245,1023 1353,916 1407,772 1407,592 1407,412 1353,268 1245,161 1136,54 992,0 813,0 Z"/>
  </g>
  <g id="bullet-char-template-8226" transform="scale(0.00048828125,-0.00048828125)">
   <path d="M 346,457 C 273,457 209,483 155,535 101,586 74,649 74,723 74,796 101,859 155,911 209,963 273,989 346,989 419,989 480,963 531,910 582,859 608,796 608,723 608,648 583,586 532,535 482,483 420,457 346,457 Z"/>
  </g>
  <g id="bullet-char-template-8211" transform="scale(0.00048828125,-0.00048828125)">
   <path d="M -4,459 L 1135,459 1135,606 -4,606 -4,459 Z"/>
  </g>
  <g id="bullet-char-template-61548" transform="scale(0.00048828125,-0.00048828125)">
   <path d="M 173,740 C 173,903 231,1043 346,1159 462,1274 601,1332 765,1332 928,1332 1067,1274 1183,1159 1299,1043 1357,903 1357,740 1357,577 1299,437 1183,322 1067,206 928,148 765,148 601,148 462,206 346,322 231,437 173,577 173,740 Z"/>
  </g>
 </defs>
 <defs class="TextEmbeddedBitmaps"/>
 <g>
  <g id="id2" class="Master_Slide">
   <g id="bg-id2" class="Background"/>
   <g id="bo-id2" class="BackgroundObjects"/>
  </g>
 </g>
 <g class="SlideGroup">
  <g>
   <g id="container-id1">
    <g id="id1" class="Slide" clip-path="url(#presentation_clip_path)">
     <g class="Page">
      <g class="Graphic">
       <g id="id3">
        <rect class="BoundingBox" stroke="none" fill="none" x="-13" y="-13" width="29401" height="29401"/>
        <path fill="rgb(0,0,0)" stroke="none" d="M 793,18577 C 404,18577 92,18689 92,18830 L 92,27655 C 92,27795 404,27908 793,27908 L 28581,27908 C 28970,27908 29282,27795 29282,27655 L 29282,18830 C 29282,18689 28970,18577 28581,18577 L 21231,18577 15034,24774 C 15010,24798 14984,24819 14956,24836 14928,24854 14899,24868 14868,24879 14807,24900 14741,24909 14674,24905 14607,24901 14540,24884 14475,24855 14411,24826 14350,24784 14296,24729 L 8143,18577 793,18577 Z M 21925,23482 C 21969,23482 22013,23484 22056,23488 22100,23493 22143,23499 22186,23508 22229,23517 22272,23528 22314,23540 22356,23553 22397,23569 22437,23586 22478,23603 22517,23622 22556,23643 22594,23664 22632,23687 22668,23712 22704,23736 22739,23763 22773,23791 22806,23819 22838,23849 22869,23881 22899,23912 22928,23945 22956,23980 22983,24014 23009,24050 23032,24087 23056,24124 23078,24162 23098,24201 23118,24240 23136,24280 23151,24321 23167,24362 23181,24403 23193,24446 23205,24488 23214,24531 23222,24574 23229,24617 23234,24661 23238,24705 23240,24736 23241,24767 23241,24798 23241,24842 23239,24885 23234,24929 23230,24973 23223,25016 23215,25059 23206,25102 23195,25145 23182,25187 23169,25228 23154,25270 23137,25310 23120,25351 23101,25390 23080,25429 23059,25467 23036,25505 23011,25541 22986,25577 22960,25612 22931,25645 22903,25679 22873,25711 22842,25742 22810,25772 22777,25801 22743,25829 22709,25856 22673,25881 22636,25905 22599,25929 22561,25951 22522,25971 22483,25990 22443,26008 22402,26024 22361,26040 22319,26054 22277,26066 22235,26077 22192,26087 22149,26094 22105,26102 22062,26107 22018,26110 21987,26113 21956,26114 21925,26114 21881,26114 21837,26111 21793,26107 21750,26103 21706,26096 21663,26087 21620,26079 21578,26068 21536,26055 21494,26042 21453,26027 21412,26010 21372,25993 21332,25974 21294,25953 21255,25932 21218,25909 21182,25884 21146,25859 21111,25832 21077,25804 21044,25776 21011,25746 20981,25715 20950,25683 20921,25650 20894,25616 20867,25581 20841,25546 20817,25509 20794,25472 20772,25434 20752,25395 20732,25356 20714,25315 20698,25275 20682,25234 20669,25192 20657,25150 20645,25107 20635,25065 20628,25021 20621,24978 20615,24935 20612,24891 20610,24860 20609,24829 20609,24798 20609,24754 20611,24710 20616,24666 20620,24623 20626,24579 20635,24536 20644,24493 20655,24451 20668,24409 20681,24367 20696,24326 20713,24285 20730,24245 20749,24205 20770,24167 20791,24128 20814,24091 20839,24055 20864,24018 20890,23983 20918,23950 20947,23916 20977,23884 21008,23854 21040,23823 21072,23794 21107,23767 21141,23740 21177,23714 21214,23690 21251,23667 21289,23645 21328,23625 21367,23605 21407,23587 21448,23571 21489,23555 21531,23541 21573,23530 21615,23518 21658,23508 21701,23501 21744,23493 21788,23488 21832,23485 21863,23483 21894,23482 21925,23482 L 21925,23482 Z M 26124,23482 C 26168,23482 26212,23484 26255,23488 26299,23493 26342,23499 26385,23508 26428,23517 26471,23527 26513,23540 26555,23553 26596,23569 26636,23586 26677,23603 26716,23622 26755,23643 26793,23664 26831,23687 26867,23712 26903,23736 26938,23763 26972,23791 27005,23819 27037,23849 27068,23881 27099,23912 27127,23945 27155,23980 27182,24014 27208,24050 27231,24087 27255,24124 27277,24162 27297,24201 27317,24240 27335,24280 27350,24321 27366,24362 27380,24403 27392,24446 27404,24488 27413,24531 27421,24574 27428,24617 27434,24661 27437,24705 27439,24736 27440,24767 27440,24798 27440,24842 27438,24885 27433,24929 27429,24973 27422,25016 27414,25059 27405,25102 27394,25145 27381,25187 27368,25228 27353,25270 27336,25310 27319,25351 27300,25390 27279,25429 27258,25467 27235,25505 27210,25541 27185,25577 27159,25612 27130,25645 27102,25679 27072,25711 27041,25742 27009,25772 26976,25801 26942,25829 26908,25856 26872,25881 26835,25905 26798,25929 26760,25951 26721,25971 26682,25990 26642,26008 26601,26024 26560,26040 26518,26054 26476,26066 26434,26077 26391,26087 26348,26094 26304,26102 26261,26107 26217,26110 26186,26113 26155,26114 26124,26114 26080,26114 26036,26111 25993,26107 25949,26103 25906,26096 25863,26087 25819,26079 25777,26068 25735,26055 25693,26042 25652,26027 25611,26010 25571,25993 25532,25974 25493,25953 25455,25932 25417,25909 25381,25884 25345,25859 25310,25832 25276,25804 25243,25776 25210,25746 25180,25715 25149,25683 25120,25650 25093,25616 25066,25581 25040,25546 25017,25509 24993,25472 24971,25434 24951,25395 24931,25356 24913,25315 24897,25275 24882,25234 24868,25192 24856,25150 24844,25107 24835,25065 24827,25021 24820,24978 24814,24935 24811,24891 24809,24860 24808,24829 24808,24798 24808,24754 24810,24710 24815,24666 24819,24623 24825,24579 24834,24536 24843,24493 24854,24451 24867,24409 24880,24367 24895,24326 24912,24285 24929,24245 24948,24205 24969,24167 24990,24128 25013,24091 25038,24055 25063,24018 25089,23983 25117,23950 25146,23916 25176,23884 25207,23854 25239,23823 25272,23794 25306,23767 25340,23740 25376,23714 25413,23690 25450,23667 25488,23645 25527,23625 25566,23605 25606,23587 25647,23571 25688,23555 25730,23541 25772,23530 25814,23518 25857,23508 25900,23501 25944,23493 25987,23488 26031,23485 26062,23483 26093,23482 26124,23482 L 26124,23482 Z"/>
        <path fill="rgb(0,0,0)" stroke="none" d="M 14964,20698 L 23297,12366 C 23450,12212 23435,11949 23261,11776 L 23148,11663 17929,11663 17929,1815 C 17929,1621 17783,1466 17602,1466 L 11772,1466 C 11591,1466 11445,1621 11445,1815 L 11445,11663 6226,11663 6077,11811 C 5924,11965 5939,12228 6113,12401 L 14374,20663 C 14472,20760 14598,20808 14716,20804 14809,20800 14897,20766 14964,20698 Z"/>
       </g>
      </g>
     </g>
    </g>
   </g>
  </g>
 </g>
</svg>