<?xml version="1.0" encoding="UTF-8"?>
<!DOCTYPE svg PUBLIC "-//W3C//DTD SVG 1.1//EN" "http://www.w3.org/Graphics/SVG/1.1/DTD/svg11.dtd">
<svg version="1.2" width="293.75mm" height="293.75mm" viewBox="0 0 29375 29375" preserveAspectRatio="xMidYMid" fill-rule="evenodd" stroke-width="28.222" stroke-linejoin="round" xmlns="http://www.w3.org/2000/svg" xmlns:ooo="http://xml.openoffice.org/svg/export" xmlns:xlink="http://www.w3.org/1999/xlink" xmlns:presentation="http://sun.com/xmlns/staroffice/presentation" xmlns:smil="http://www.w3.org/2001/SMIL20/" xmlns:anim="urn:oasis:names:tc:opendocument:xmlns:animation:1.0" xml:space="preserve">
 <defs class="ClipPathGroup">
  <clipPath id="presentation_clip_path" clipPathUnits="userSpaceOnUse">
   <rect x="0" y="0" width="29375" height="29375"/>
  </clipPath>
  <clipPath id="presentation_clip_path_shrink" clipPathUnits="userSpaceOnUse">
   <rect x="29" y="29" width="29317" height="29317"/>
  </clipPath>
 </defs>
 <defs class="TextShapeIndex">
  <g ooo:slide="id1" ooo:id-list="id3"/>
 </defs>
 <defs class="EmbeddedBulletChars">
  <g id="bullet-char-template-57356" transform="scale(0.00048828125,-0.00048828125)">
   <path d="M 580,1141 L 1163,571 580,0 -4,571 580,1141 Z"/>
  </g>
  <g id="bullet-char-template-57354" transform="scale(0.00048828125,-0.00048828125)">
   <path d="M 8,1128 L 1137,1128 1137,0 8,0 8,1128 Z"/>
  </g>
  <g id="bullet-char-template-10146" transform="scale(0.00048828125,-0.00048828125)">
   <path d="M 174,0 L 602,739 174,1481 1456,739 174,0 Z M 1358,739 L 309,1346 659,739 1358,739 Z"/>
  </g>
  <g id="bullet-char-template-10132" transform="scale(0.00048828125,-0.00048828125)">
   <path d="M 2015,739 L 1276,0 717,0 1260,543 174,543 174,936 1260,936 717,1481 1274,1481 2015,739 Z"/>
  </g>
  <g id="bullet-char-template-10007" transform="scale(0.00048828125,-0.00048828125)">
   <path d="M 0,-2 C -7,14 -16,27 -25,37 L 356,567 C 262,823 215,952 215,954 215,979 228,992 255,992 264,992 276,990 289,987 310,991 331,999 354,1012 L 381,999 492,748 772,1049 836,1024 860,1049 C 881,1039 901,1025 922,1006 886,937 835,863 770,784 769,783 710,716 594,584 L 774,223 C 774,196 753,168 711,139 L 727,119 C 717,90 699,76 672,76 641,76 570,178 457,381 L 164,-76 C 142,-110 111,-127 72,-127 30,-127 9,-110 8,-76 1,-67 -2,-52 -2,-32 -2,-23 -1,-13 0,-2 Z"/>
  </g>
  <g id="bullet-char-template-10004" transform="scale(0.00048828125,-0.00048828125)">
   <path d="M 285,-33 C 182,-33 111,30 74,156 52,228 41,333 41,471 41,549 55,616 82,672 116,743 169,778 240,778 293,778 328,747 346,684 L 369,508 C 377,444 397,411 428,410 L 1163,1116 C 1174,1127 1196,1133 1229,1133 1271,1133 1292,1118 1292,1087 L 1292,965 C 1292,929 1282,901 1262,881 L 442,47 C 390,-6 338,-33 285,-33 Z"/>
  </g>
  <g id="bullet-char-template-9679" transform="scale(0.00048828125,-0.00048828125)">
   <path d="M 813,0 C 632,0 489,54 383,161 276,268 223,411 223,592 223,773 276,916 383,1023 489,1130 632,1184 813,1184 992,1184 1136,1130 1245,1023 1353,916 1407,772 1407,592 1407,412 1353,268 1245,161 1136,54 992,0 813,0 Z"/>
  </g>
  <g id="bullet-char-template-8226" transform="scale(0.00048828125,-0.00048828125)">
   <path d="M 346,457 C 273,457 209,483 155,535 101,586 74,649 74,723 74,796 101,859 155,911 209,963 273,989 346,989 419,989 480,963 531,910 582,859 608,796 608,723 608,648 583,586 532,535 482,483 420,457 346,457 Z"/>
  </g>
  <g id="bullet-char-template-8211" transform="scale(0.00048828125,-0.00048828125)">
   <path d="M -4,459 L 1135,459 1135,606 -4,606 -4,459 Z"/>
  </g>
  <g id="bullet-char-template-61548" transform="scale(0.00048828125,-0.00048828125)">
   <path d="M 173,740 C 173,903 231,1043 346,1159 462,1274 601,1332 765,1332 928,1332 1067,1274 1183,1159 1299,1043 1357,903 1357,740 1357,577 1299,437 1183,322 1067,206 928,148 765,148 601,148 462,206 346,322 231,437 173,577 173,740 Z"/>
  </g>
 </defs>
 <defs class="TextEmbeddedBitmaps"/>
 <g>
  <g id="id2" class="Master_Slide">
   <g id="bg-id2" class="Background"/>
   <g id="bo-id2" class="BackgroundObjects"/>
  </g>
 </g>
 <g class="SlideGroup">
  <g>
   <g id="container-id1">
    <g id="id1" class="Slide" clip-path="url(#presentation_clip_path)">
     <g class="Page">
      <g class="Graphic">
       <g id="id3">
        <rect class="BoundingBox" stroke="none" fill="none" x="-13" y="-13" width="29401" height="29401"/>
        <path fill="rgb(0,0,0)" stroke="none" d="M 195,14610 C -106,14944 134,15478 585,15477 L 28785,15400 C 29071,15399 29302,15166 29301,14880 28626,9832 25298,5951 19781,4312 19567,4120 19239,4137 19047,4350 L 195,14610 Z M 2744,14434 L 19456,5453 C 23211,6951 26241,8600 28101,14362 L 2744,14434 Z"/>
        <path fill="rgb(0,0,0)" stroke="none" d="M 543,14652 C 543,14652 543,14652 543,14652 454,14652 378,14672 301,14717 223,14762 168,14818 123,14896 78,14974 58,15050 58,15140 L 58,27737 C 58,27737 58,27737 58,27737 58,27827 78,27903 123,27981 168,28059 223,28115 301,28160 378,28204 454,28225 543,28225 543,28225 543,28225 543,28225 L 28824,28225 C 28913,28225 28989,28204 29066,28160 29144,28115 29199,28059 29244,27981 29288,27903 29309,27827 29309,27737 29309,27737 29309,27737 29309,27737 L 29309,15140 C 29309,15050 29288,14974 29244,14896 29199,14818 29144,14762 29066,14717 28989,14672 28913,14652 28824,14652 L 543,14652 Z M 1028,15629 L 28339,15629 28339,27248 1028,27248 1028,15629 Z"/>
        <path fill="rgb(0,0,0)" stroke="none" d="M 23082,19624 C 21659,19528 20659,20029 19941,20567 19223,21104 18742,21604 18218,21774 17694,21944 16996,21913 15610,21098 L 15604,21095 15598,21091 C 13511,19924 12031,19562 10824,19709 9617,19856 8792,20510 8066,21075 7339,21639 6701,22127 5722,22292 4744,22456 3223,21570 1038,20600 272,20247 -240,21415 535,21747 2853,22776 4632,23746 5927,23528 7223,23311 8097,22634 8827,22067 9556,21500 10132,21056 10973,20954 11814,20851 13030,21090 14993,22187 L 14982,22181 C 16527,23089 17678,23267 18600,22967 19522,22668 20085,22022 20684,21573 21284,21124 21876,20799 22999,20875 24121,20951 25795,21489 28314,22965 29038,23410 29683,22296 28941,21882 26330,20352 24505,19720 23082,19624 L 23082,19624 Z"/>
        <path fill="rgb(0,0,0)" stroke="none" d="M 9918,85 C 9836,85 9788,89 9788,89 9682,97 9594,125 9501,178 9393,241 9315,319 9252,428 9189,537 9160,644 9160,769 9160,895 9189,1002 9252,1111 9315,1220 9393,1298 9501,1361 9610,1424 9717,1452 9843,1452 9869,1452 9891,1451 9918,1448 9918,1448 10000,1433 10267,1491 10534,1549 10929,1684 11400,2012 12121,2516 13033,3488 13859,5387 13750,5436 13659,5482 13556,5542 12991,5866 12586,6269 12260,6831 11935,7390 11787,7940 11786,8586 L 11786,8586 C 11786,9234 11934,9785 12260,10346 12586,10908 12991,11311 13556,11635 14120,11959 14674,12107 15325,12107 15977,12107 16530,11959 17095,11635 17659,11311 18064,10908 18390,10346 18716,9785 18864,9234 18864,8586 L 18864,8586 C 18864,7938 18716,7387 18390,6826 18064,6265 17659,5861 17095,5537 16530,5213 15977,5066 15325,5066 15283,5066 15248,5068 15206,5070 14274,2840 13171,1584 12181,892 11557,456 10983,249 10556,156 10288,98 10055,86 9918,85 Z"/>
       </g>
      </g>
     </g>
    </g>
   </g>
  </g>
 </g>
</svg>