<?xml version="1.0" encoding="UTF-8"?>
<!DOCTYPE svg PUBLIC "-//W3C//DTD SVG 1.1//EN" "http://www.w3.org/Graphics/SVG/1.1/DTD/svg11.dtd">
<svg version="1.2" width="293.75mm" height="293.75mm" viewBox="0 0 29375 29375" preserveAspectRatio="xMidYMid" fill-rule="evenodd" stroke-width="28.222" stroke-linejoin="round" xmlns="http://www.w3.org/2000/svg" xmlns:ooo="http://xml.openoffice.org/svg/export" xmlns:xlink="http://www.w3.org/1999/xlink" xmlns:presentation="http://sun.com/xmlns/staroffice/presentation" xmlns:smil="http://www.w3.org/2001/SMIL20/" xmlns:anim="urn:oasis:names:tc:opendocument:xmlns:animation:1.0" xml:space="preserve">
 <defs class="ClipPathGroup">
  <clipPath id="presentation_clip_path" clipPathUnits="userSpaceOnUse">
   <rect x="0" y="0" width="29375" height="29375"/>
  </clipPath>
  <clipPath id="presentation_clip_path_shrink" clipPathUnits="userSpaceOnUse">
   <rect x="29" y="29" width="29317" height="29317"/>
  </clipPath>
 </defs>
 <defs class="TextShapeIndex">
  <g ooo:slide="id1" ooo:id-list="id3"/>
 </defs>
 <defs class="EmbeddedBulletChars">
  <g id="bullet-char-template-57356" transform="scale(0.00048828125,-0.00048828125)">
   <path d="M 580,1141 L 1163,571 580,0 -4,571 580,1141 Z"/>
  </g>
  <g id="bullet-char-template-57354" transform="scale(0.00048828125,-0.00048828125)">
   <path d="M 8,1128 L 1137,1128 1137,0 8,0 8,1128 Z"/>
  </g>
  <g id="bullet-char-template-10146" transform="scale(0.00048828125,-0.00048828125)">
   <path d="M 174,0 L 602,739 174,1481 1456,739 174,0 Z M 1358,739 L 309,1346 659,739 1358,739 Z"/>
  </g>
  <g id="bullet-char-template-10132" transform="scale(0.00048828125,-0.00048828125)">
   <path d="M 2015,739 L 1276,0 717,0 1260,543 174,543 174,936 1260,936 717,1481 1274,1481 2015,739 Z"/>
  </g>
  <g id="bullet-char-template-10007" transform="scale(0.00048828125,-0.00048828125)">
   <path d="M 0,-2 C -7,14 -16,27 -25,37 L 356,567 C 262,823 215,952 215,954 215,979 228,992 255,992 264,992 276,990 289,987 310,991 331,999 354,1012 L 381,999 492,748 772,1049 836,1024 860,1049 C 881,1039 901,1025 922,1006 886,937 835,863 770,784 769,783 710,716 594,584 L 774,223 C 774,196 753,168 711,139 L 727,119 C 717,90 699,76 672,76 641,76 570,178 457,381 L 164,-76 C 142,-110 111,-127 72,-127 30,-127 9,-110 8,-76 1,-67 -2,-52 -2,-32 -2,-23 -1,-13 0,-2 Z"/>
  </g>
  <g id="bullet-char-template-10004" transform="scale(0.00048828125,-0.00048828125)">
   <path d="M 285,-33 C 182,-33 111,30 74,156 52,228 41,333 41,471 41,549 55,616 82,672 116,743 169,778 240,778 293,778 328,747 346,684 L 369,508 C 377,444 397,411 428,410 L 1163,1116 C 1174,1127 1196,1133 1229,1133 1271,1133 1292,1118 1292,1087 L 1292,965 C 1292,929 1282,901 1262,881 L 442,47 C 390,-6 338,-33 285,-33 Z"/>
  </g>
  <g id="bullet-char-template-9679" transform="scale(0.00048828125,-0.00048828125)">
   <path d="M 813,0 C 632,0 489,54 383,161 276,268 223,411 223,592 223,773 276,916 383,1023 489,1130 632,1184 813,1184 992,1184 1136,1130 1245,1023 1353,916 1407,772 1407,592 1407,412 1353,268 1245,161 1136,54 992,0 813,0 Z"/>
  </g>
  <g id="bullet-char-template-8226" transform="scale(0.00048828125,-0.00048828125)">
   <path d="M 346,457 C 273,457 209,483 155,535 101,586 74,649 74,723 74,796 101,859 155,911 209,963 273,989 346,989 419,989 480,963 531,910 582,859 608,796 608,723 608,648 583,586 532,535 482,483 420,457 346,457 Z"/>
  </g>
  <g id="bullet-char-template-8211" transform="scale(0.00048828125,-0.00048828125)">
   <path d="M -4,459 L 1135,459 1135,606 -4,606 -4,459 Z"/>
  </g>
  <g id="bullet-char-template-61548" transform="scale(0.00048828125,-0.00048828125)">
   <path d="M 173,740 C 173,903 231,1043 346,1159 462,1274 601,1332 765,1332 928,1332 1067,1274 1183,1159 1299,1043 1357,903 1357,740 1357,577 1299,437 1183,322 1067,206 928,148 765,148 601,148 462,206 346,322 231,437 173,577 173,740 Z"/>
  </g>
 </defs>
 <defs class="TextEmbeddedBitmaps"/>
 <g>
  <g id="id2" class="Master_Slide">
   <g id="bg-id2" class="Background"/>
   <g id="bo-id2" class="BackgroundObjects"/>
  </g>
 </g>
 <g class="SlideGroup">
  <g>
   <g id="container-id1">
    <g id="id1" class="Slide" clip-path="url(#presentation_clip_path)">
     <g class="Page">
      <g class="Graphic">
       <g id="id3">
        <rect class="BoundingBox" stroke="none" fill="none" x="-13" y="-13" width="29401" height="29401"/>
        <defs>
         <clipPath id="clip_path_1" clipPathUnits="userSpaceOnUse">
          <path d="M -13,-13 L 29387,-13 29387,29387 -13,29387 -13,-13 Z"/>
         </clipPath>
        </defs>
        <g clip-path="url(#clip_path_1)">
         <path fill="rgb(0,0,0)" stroke="none" d="M -4473,35510 C -4441,35502 -4396,35502 -4374,35511 -4351,35520 -4377,35527 -4432,35527 -4487,35526 -4505,35518 -4473,35510 L -4473,35510 Z"/>
         <path fill="rgb(0,0,0)" stroke="none" d="M -4109,35510 C -4076,35502 -4032,35502 -4009,35511 -3987,35520 -4013,35527 -4068,35527 -4123,35526 -4141,35518 -4109,35510 L -4109,35510 Z"/>
         <path fill="rgb(0,0,0)" stroke="none" d="M 1470,201 L 1470,29339 27904,29339 27904,201 1470,201 Z M 3102,1793 L 26272,1793 26272,27757 3102,27757 3102,1793 Z"/>
         <path fill="rgb(0,0,0)" stroke="none" d="M 10668,12444 L 10668,11701 23711,11701 23711,13188 10668,13188 10668,12444 Z"/>
         <path fill="rgb(0,0,0)" stroke="none" d="M 5659,12444 L 5659,10933 8966,10933 8966,13956 5659,13956 5659,12444 Z"/>
         <path fill="rgb(0,0,0)" stroke="none" d="M 5658,18278 L 5658,16767 8967,16767 8967,19790 5658,19790 5658,18278 Z"/>
         <path fill="rgb(0,0,0)" stroke="none" d="M 5657,24112 L 5657,22601 8968,22601 8968,25624 5657,25624 5657,24112 Z"/>
         <path fill="rgb(0,0,0)" stroke="none" d="M 10668,18278 L 10668,17535 23711,17535 23711,19022 10668,19022 10668,18278 Z"/>
         <path fill="rgb(0,0,0)" stroke="none" d="M 10669,24112 L 10669,23368 23712,23368 23712,24856 10669,24856 10669,24112 Z"/>
         <path fill="rgb(0,0,0)" stroke="none" d="M 5976,3454 C 6081,3653 6198,3896 6327,4185 6456,4473 6587,4777 6721,5096 6855,5410 6986,5733 7115,6063 7249,6388 7370,6689 7480,6966 7590,6689 7709,6388 7838,6063 7967,5733 8099,5410 8232,5096 8366,4777 8497,4473 8626,4185 8755,3896 8872,3653 8977,3454 L 9794,3454 C 9837,3852 9878,4276 9916,4727 9954,5172 9988,5631 10016,6102 10050,6568 10078,7040 10102,7517 10131,7988 10155,8449 10174,8900 L 9286,8900 C 9266,8266 9243,7613 9214,6943 9190,6272 9152,5623 9099,4994 9047,5114 8985,5259 8913,5426 8841,5594 8765,5777 8684,5976 8603,6170 8519,6372 8433,6581 8352,6791 8271,6995 8189,7194 8113,7388 8041,7572 7975,7744 7908,7912 7850,8056 7803,8177 L 7129,8177 C 7081,8056 7024,7909 6957,7737 6890,7564 6816,7380 6735,7187 6659,6987 6578,6783 6492,6574 6410,6364 6329,6162 6248,5968 6167,5775 6090,5594 6019,5426 5947,5253 5885,5109 5832,4994 5780,5623 5739,6272 5711,6943 5687,7613 5665,8266 5646,8900 L 4758,8900 C 4777,8449 4798,7983 4822,7501 4851,7019 4880,6542 4908,6071 4942,5594 4978,5133 5016,4688 5054,4242 5095,3831 5138,3454 L 5976,3454 Z"/>
         <path fill="rgb(0,0,0)" stroke="none" d="M 11232,8900 L 11232,3454 14420,3454 14420,4295 12135,4295 12135,5638 14170,5638 14170,6464 12135,6464 12135,8059 14592,8059 14592,8900 11232,8900 Z"/>
         <path fill="rgb(0,0,0)" stroke="none" d="M 18776,8900 C 18613,8601 18432,8281 18231,7941 18031,7595 17823,7249 17608,6904 17393,6553 17173,6215 16949,5890 16729,5560 16519,5264 16319,5002 L 16319,8900 15430,8900 15430,3454 16168,3454 C 16359,3674 16564,3936 16784,4240 17004,4538 17224,4850 17443,5175 17668,5500 17883,5827 18088,6157 18298,6482 18484,6786 18647,7069 L 18647,3454 19542,3454 19542,8900 18776,8900 Z"/>
         <path fill="rgb(0,0,0)" stroke="none" d="M 21772,8860 C 21528,8750 21325,8598 21163,8405 21005,8211 20888,7983 20812,7721 20736,7459 20697,7171 20697,6856 L 20697,3454 21607,3454 21607,6762 C 21607,7008 21631,7221 21679,7399 21731,7572 21803,7713 21894,7823 21989,7933 22099,8014 22223,8067 22352,8119 22496,8145 22653,8145 22811,8145 22954,8119 23083,8067 23212,8014 23322,7933 23413,7823 23508,7713 23580,7572 23628,7399 23680,7221 23706,7008 23706,6762 L 23706,3454 24616,3454 24616,6856 C 24616,7171 24576,7459 24494,7721 24418,7983 24299,8211 24136,8405 23979,8598 23776,8750 23527,8860 23279,8965 22985,9018 22646,9018 22307,9018 22016,8965 21772,8860 Z"/>
        </g>
       </g>
      </g>
     </g>
    </g>
   </g>
  </g>
 </g>
</svg>