<?xml version="1.0" encoding="UTF-8"?>
<!DOCTYPE svg PUBLIC "-//W3C//DTD SVG 1.1//EN" "http://www.w3.org/Graphics/SVG/1.1/DTD/svg11.dtd">
<svg version="1.2" width="293.75mm" height="293.75mm" viewBox="0 0 29375 29375" preserveAspectRatio="xMidYMid" fill-rule="evenodd" stroke-width="28.222" stroke-linejoin="round" xmlns="http://www.w3.org/2000/svg" xmlns:ooo="http://xml.openoffice.org/svg/export" xmlns:xlink="http://www.w3.org/1999/xlink" xmlns:presentation="http://sun.com/xmlns/staroffice/presentation" xmlns:smil="http://www.w3.org/2001/SMIL20/" xmlns:anim="urn:oasis:names:tc:opendocument:xmlns:animation:1.0" xml:space="preserve">
 <defs class="ClipPathGroup">
  <clipPath id="presentation_clip_path" clipPathUnits="userSpaceOnUse">
   <rect x="0" y="0" width="29375" height="29375"/>
  </clipPath>
  <clipPath id="presentation_clip_path_shrink" clipPathUnits="userSpaceOnUse">
   <rect x="29" y="29" width="29317" height="29317"/>
  </clipPath>
 </defs>
 <defs class="TextShapeIndex">
  <g ooo:slide="id1" ooo:id-list="id3"/>
 </defs>
 <defs class="EmbeddedBulletChars">
  <g id="bullet-char-template-57356" transform="scale(0.00048828125,-0.00048828125)">
   <path d="M 580,1141 L 1163,571 580,0 -4,571 580,1141 Z"/>
  </g>
  <g id="bullet-char-template-57354" transform="scale(0.00048828125,-0.00048828125)">
   <path d="M 8,1128 L 1137,1128 1137,0 8,0 8,1128 Z"/>
  </g>
  <g id="bullet-char-template-10146" transform="scale(0.00048828125,-0.00048828125)">
   <path d="M 174,0 L 602,739 174,1481 1456,739 174,0 Z M 1358,739 L 309,1346 659,739 1358,739 Z"/>
  </g>
  <g id="bullet-char-template-10132" transform="scale(0.00048828125,-0.00048828125)">
   <path d="M 2015,739 L 1276,0 717,0 1260,543 174,543 174,936 1260,936 717,1481 1274,1481 2015,739 Z"/>
  </g>
  <g id="bullet-char-template-10007" transform="scale(0.00048828125,-0.00048828125)">
   <path d="M 0,-2 C -7,14 -16,27 -25,37 L 356,567 C 262,823 215,952 215,954 215,979 228,992 255,992 264,992 276,990 289,987 310,991 331,999 354,1012 L 381,999 492,748 772,1049 836,1024 860,1049 C 881,1039 901,1025 922,1006 886,937 835,863 770,784 769,783 710,716 594,584 L 774,223 C 774,196 753,168 711,139 L 727,119 C 717,90 699,76 672,76 641,76 570,178 457,381 L 164,-76 C 142,-110 111,-127 72,-127 30,-127 9,-110 8,-76 1,-67 -2,-52 -2,-32 -2,-23 -1,-13 0,-2 Z"/>
  </g>
  <g id="bullet-char-template-10004" transform="scale(0.00048828125,-0.00048828125)">
   <path d="M 285,-33 C 182,-33 111,30 74,156 52,228 41,333 41,471 41,549 55,616 82,672 116,743 169,778 240,778 293,778 328,747 346,684 L 369,508 C 377,444 397,411 428,410 L 1163,1116 C 1174,1127 1196,1133 1229,1133 1271,1133 1292,1118 1292,1087 L 1292,965 C 1292,929 1282,901 1262,881 L 442,47 C 390,-6 338,-33 285,-33 Z"/>
  </g>
  <g id="bullet-char-template-9679" transform="scale(0.00048828125,-0.00048828125)">
   <path d="M 813,0 C 632,0 489,54 383,161 276,268 223,411 223,592 223,773 276,916 383,1023 489,1130 632,1184 813,1184 992,1184 1136,1130 1245,1023 1353,916 1407,772 1407,592 1407,412 1353,268 1245,161 1136,54 992,0 813,0 Z"/>
  </g>
  <g id="bullet-char-template-8226" transform="scale(0.00048828125,-0.00048828125)">
   <path d="M 346,457 C 273,457 209,483 155,535 101,586 74,649 74,723 74,796 101,859 155,911 209,963 273,989 346,989 419,989 480,963 531,910 582,859 608,796 608,723 608,648 583,586 532,535 482,483 420,457 346,457 Z"/>
  </g>
  <g id="bullet-char-template-8211" transform="scale(0.00048828125,-0.00048828125)">
   <path d="M -4,459 L 1135,459 1135,606 -4,606 -4,459 Z"/>
  </g>
  <g id="bullet-char-template-61548" transform="scale(0.00048828125,-0.00048828125)">
   <path d="M 173,740 C 173,903 231,1043 346,1159 462,1274 601,1332 765,1332 928,1332 1067,1274 1183,1159 1299,1043 1357,903 1357,740 1357,577 1299,437 1183,322 1067,206 928,148 765,148 601,148 462,206 346,322 231,437 173,577 173,740 Z"/>
  </g>
 </defs>
 <defs class="TextEmbeddedBitmaps"/>
 <g>
  <g id="id2" class="Master_Slide">
   <g id="bg-id2" class="Background"/>
   <g id="bo-id2" class="BackgroundObjects"/>
  </g>
 </g>
 <g class="SlideGroup">
  <g>
   <g id="container-id1">
    <g id="id1" class="Slide" clip-path="url(#presentation_clip_path)">
     <g class="Page">
      <g class="Graphic">
       <g id="id3">
        <rect class="BoundingBox" stroke="none" fill="none" x="-13" y="-13" width="29401" height="29401"/>
        <path fill="rgb(0,0,0)" stroke="none" d="M 15293,109 C 11895,106 8324,1059 5250,2942 2684,4683 889,6929 339,9084 84,10085 90,11198 355,12061 606,12879 1191,13621 1960,14100 4829,16276 18937,19501 27907,13748 28545,13178 28968,12406 29158,11464 29244,11038 29244,10078 29158,9612 29017,8840 28736,8089 28277,7249 27505,5839 26315,4538 24750,3394 22332,1197 18910,112 15293,109 Z M 15200,1181 C 16215,1181 17077,1324 17956,1638 18834,1951 19466,2342 19973,2885 20480,3428 20711,3961 20711,4588 20711,5215 20480,5748 19973,6291 19466,6835 18834,7225 17956,7538 17077,7852 16215,7995 15200,7995 L 15200,7995 15200,7995 C 14186,7995 13323,7852 12445,7538 11566,7225 10935,6835 10428,6291 9920,5748 9689,5215 9689,4588 9689,3961 9920,3428 10428,2885 10935,2342 11566,1951 12445,1638 13323,1324 14186,1181 15200,1181 L 15200,1181 15200,1181 Z M 6967,8090 C 7537,8339 7946,8649 8275,9080 8604,9512 8754,9935 8754,10433 8754,10931 8604,11354 8275,11786 7946,12217 7537,12527 6967,12776 6398,13025 5838,13138 5180,13138 4523,13138 3963,13025 3394,12776 2824,12527 2414,12217 2086,11786 1757,11354 1607,10931 1607,10433 1607,9935 1757,9512 2086,9080 2414,8649 2824,8339 3394,8090 3963,7841 4523,7728 5180,7728 5838,7728 6398,7841 6967,8090 Z M 23851,8596 L 23851,8596 C 24552,8596 25148,8677 25755,8856 26362,9034 26798,9256 27148,9565 27499,9873 27658,10177 27658,10533 27658,10533 27658,10533 27658,10533 27658,10890 27499,11193 27148,11502 26798,11811 26362,12032 25755,12211 25148,12389 24552,12470 23851,12470 L 23851,12470 C 23150,12470 22554,12389 21947,12211 21340,12032 20904,11811 20553,11502 20203,11193 20043,10890 20043,10533 20043,10533 20043,10533 20043,10533 20043,10177 20203,9873 20553,9565 20904,9256 21340,9034 21947,8856 22554,8677 23150,8596 23851,8596 Z M 20572,18175 C 15952,19028 13892,19334 9478,18216 8120,19976 7364,23520 7984,26356 8255,27320 8779,28089 9451,28508 10178,28960 11276,29239 12563,29298 13401,29336 16033,29338 16956,29301 18173,29252 18938,29147 19754,28919 20160,28806 20619,28524 21016,28144 21627,27561 21996,26886 22158,26060 22696,23111 21906,20826 20572,18175 Z"/>
       </g>
      </g>
     </g>
    </g>
   </g>
  </g>
 </g>
</svg>