<?xml version="1.0" encoding="UTF-8"?>
<!DOCTYPE svg PUBLIC "-//W3C//DTD SVG 1.1//EN" "http://www.w3.org/Graphics/SVG/1.1/DTD/svg11.dtd">
<svg version="1.2" width="293.75mm" height="293.75mm" viewBox="0 0 29375 29375" preserveAspectRatio="xMidYMid" fill-rule="evenodd" stroke-width="28.222" stroke-linejoin="round" xmlns="http://www.w3.org/2000/svg" xmlns:ooo="http://xml.openoffice.org/svg/export" xmlns:xlink="http://www.w3.org/1999/xlink" xmlns:presentation="http://sun.com/xmlns/staroffice/presentation" xmlns:smil="http://www.w3.org/2001/SMIL20/" xmlns:anim="urn:oasis:names:tc:opendocument:xmlns:animation:1.0" xml:space="preserve">
 <defs class="ClipPathGroup">
  <clipPath id="presentation_clip_path" clipPathUnits="userSpaceOnUse">
   <rect x="0" y="0" width="29375" height="29375"/>
  </clipPath>
  <clipPath id="presentation_clip_path_shrink" clipPathUnits="userSpaceOnUse">
   <rect x="29" y="29" width="29317" height="29317"/>
  </clipPath>
 </defs>
 <defs class="TextShapeIndex">
  <g ooo:slide="id1" ooo:id-list="id3"/>
 </defs>
 <defs class="EmbeddedBulletChars">
  <g id="bullet-char-template-57356" transform="scale(0.00048828125,-0.00048828125)">
   <path d="M 580,1141 L 1163,571 580,0 -4,571 580,1141 Z"/>
  </g>
  <g id="bullet-char-template-57354" transform="scale(0.00048828125,-0.00048828125)">
   <path d="M 8,1128 L 1137,1128 1137,0 8,0 8,1128 Z"/>
  </g>
  <g id="bullet-char-template-10146" transform="scale(0.00048828125,-0.00048828125)">
   <path d="M 174,0 L 602,739 174,1481 1456,739 174,0 Z M 1358,739 L 309,1346 659,739 1358,739 Z"/>
  </g>
  <g id="bullet-char-template-10132" transform="scale(0.00048828125,-0.00048828125)">
   <path d="M 2015,739 L 1276,0 717,0 1260,543 174,543 174,936 1260,936 717,1481 1274,1481 2015,739 Z"/>
  </g>
  <g id="bullet-char-template-10007" transform="scale(0.00048828125,-0.00048828125)">
   <path d="M 0,-2 C -7,14 -16,27 -25,37 L 356,567 C 262,823 215,952 215,954 215,979 228,992 255,992 264,992 276,990 289,987 310,991 331,999 354,1012 L 381,999 492,748 772,1049 836,1024 860,1049 C 881,1039 901,1025 922,1006 886,937 835,863 770,784 769,783 710,716 594,584 L 774,223 C 774,196 753,168 711,139 L 727,119 C 717,90 699,76 672,76 641,76 570,178 457,381 L 164,-76 C 142,-110 111,-127 72,-127 30,-127 9,-110 8,-76 1,-67 -2,-52 -2,-32 -2,-23 -1,-13 0,-2 Z"/>
  </g>
  <g id="bullet-char-template-10004" transform="scale(0.00048828125,-0.00048828125)">
   <path d="M 285,-33 C 182,-33 111,30 74,156 52,228 41,333 41,471 41,549 55,616 82,672 116,743 169,778 240,778 293,778 328,747 346,684 L 369,508 C 377,444 397,411 428,410 L 1163,1116 C 1174,1127 1196,1133 1229,1133 1271,1133 1292,1118 1292,1087 L 1292,965 C 1292,929 1282,901 1262,881 L 442,47 C 390,-6 338,-33 285,-33 Z"/>
  </g>
  <g id="bullet-char-template-9679" transform="scale(0.00048828125,-0.00048828125)">
   <path d="M 813,0 C 632,0 489,54 383,161 276,268 223,411 223,592 223,773 276,916 383,1023 489,1130 632,1184 813,1184 992,1184 1136,1130 1245,1023 1353,916 1407,772 1407,592 1407,412 1353,268 1245,161 1136,54 992,0 813,0 Z"/>
  </g>
  <g id="bullet-char-template-8226" transform="scale(0.00048828125,-0.00048828125)">
   <path d="M 346,457 C 273,457 209,483 155,535 101,586 74,649 74,723 74,796 101,859 155,911 209,963 273,989 346,989 419,989 480,963 531,910 582,859 608,796 608,723 608,648 583,586 532,535 482,483 420,457 346,457 Z"/>
  </g>
  <g id="bullet-char-template-8211" transform="scale(0.00048828125,-0.00048828125)">
   <path d="M -4,459 L 1135,459 1135,606 -4,606 -4,459 Z"/>
  </g>
  <g id="bullet-char-template-61548" transform="scale(0.00048828125,-0.00048828125)">
   <path d="M 173,740 C 173,903 231,1043 346,1159 462,1274 601,1332 765,1332 928,1332 1067,1274 1183,1159 1299,1043 1357,903 1357,740 1357,577 1299,437 1183,322 1067,206 928,148 765,148 601,148 462,206 346,322 231,437 173,577 173,740 Z"/>
  </g>
 </defs>
 <defs class="TextEmbeddedBitmaps"/>
 <g>
  <g id="id2" class="Master_Slide">
   <g id="bg-id2" class="Background"/>
   <g id="bo-id2" class="BackgroundObjects"/>
  </g>
 </g>
 <g class="SlideGroup">
  <g>
   <g id="container-id1">
    <g id="id1" class="Slide" clip-path="url(#presentation_clip_path)">
     <g class="Page">
      <g class="Graphic">
       <g id="id3">
        <rect class="BoundingBox" stroke="none" fill="none" x="-13" y="-13" width="29401" height="29401"/>
        <defs>
         <clipPath id="clip_path_1" clipPathUnits="userSpaceOnUse">
          <path d="M -13,-13 L 29387,-13 29387,29387 -13,29387 -13,-13 Z"/>
         </clipPath>
        </defs>
        <g clip-path="url(#clip_path_1)">
         <path fill="rgb(0,0,0)" stroke="none" d="M 7454,11297 L 7454,11304 C 6126,11334 5004,11647 3853,12307 2650,12998 1785,13857 1090,15053 396,16248 79,17421 78,18801 78,20182 395,21356 1090,22553 1785,23749 2650,24609 3853,25299 5057,25990 6239,26304 7629,26304 9016,26303 10194,25988 11395,25299 11921,24998 12336,24692 12779,24280 L 16648,24280 C 17091,24692 17506,24998 18031,25299 19231,25987 20408,26302 21793,26304 23183,26304 24364,25990 25568,25299 26772,24609 27636,23749 28331,22553 29026,21356 29343,20182 29343,18801 29343,17420 29026,16245 28331,15049 27636,13853 26772,12993 25568,12303 24364,11612 23183,11297 21793,11297 21791,11297 21789,11298 21786,11298 L 21786,11297 7454,11297 Z M 5378,15343 L 7884,15343 7884,17660 10201,17660 10201,20166 7884,20166 7884,22483 5378,22483 5378,20166 3061,20166 3061,17660 5378,17660 5378,15343 Z M 24267,15527 C 24594,15527 24872,15601 25155,15765 25438,15928 25641,16132 25804,16415 25968,16698 26042,16975 26042,17302 26042,17629 25968,17907 25804,18190 25641,18473 25438,18676 25155,18840 24872,19003 24594,19077 24267,19077 23940,19077 23662,19003 23379,18840 23096,18676 22893,18473 22730,18190 22566,17907 22492,17629 22492,17302 22492,16975 22566,16698 22730,16415 22893,16132 23096,15928 23379,15765 23662,15601 23940,15527 24267,15527 Z M 20346,18606 C 20673,18606 20951,18681 21234,18844 21517,19008 21720,19211 21884,19494 22047,19777 22121,20055 22121,20382 22121,20709 22047,20986 21884,21269 21720,21552 21517,21756 21234,21919 20951,22083 20673,22157 20346,22157 20346,22157 20346,22157 20346,22157 20019,22157 19742,22083 19458,21919 19175,21756 18972,21552 18809,21269 18645,20986 18571,20709 18571,20382 18571,20055 18645,19777 18809,19494 18972,19211 19175,19008 19458,18844 19742,18681 20019,18606 20346,18606 20346,18606 20346,18606 20346,18606 Z"/>
         <path fill="rgb(0,0,0)" stroke="none" d="M 23580,64 C 23580,64 23636,1002 22987,3967 22874,4486 22712,4731 22560,4876 22408,5020 22227,5104 21919,5153 21302,5250 20268,5075 19167,4948 18066,4821 16782,4729 15690,5531 14598,6334 14083,7842 14121,10111 L 16116,10077 C 16083,8114 16494,7427 16867,7153 17239,6879 17957,6829 18940,6943 19923,7056 21054,7321 22226,7137 22812,7045 23432,6808 23929,6337 24425,5866 24761,5201 24936,4399 25611,1311 25573,-20 25573,-20 L 23580,64 Z"/>
        </g>
       </g>
      </g>
     </g>
    </g>
   </g>
  </g>
 </g>
</svg>