<?xml version="1.0" encoding="UTF-8"?>
<!DOCTYPE svg PUBLIC "-//W3C//DTD SVG 1.1//EN" "http://www.w3.org/Graphics/SVG/1.1/DTD/svg11.dtd">
<svg version="1.2" width="293.75mm" height="293.75mm" viewBox="0 0 29375 29375" preserveAspectRatio="xMidYMid" fill-rule="evenodd" stroke-width="28.222" stroke-linejoin="round" xmlns="http://www.w3.org/2000/svg" xmlns:ooo="http://xml.openoffice.org/svg/export" xmlns:xlink="http://www.w3.org/1999/xlink" xmlns:presentation="http://sun.com/xmlns/staroffice/presentation" xmlns:smil="http://www.w3.org/2001/SMIL20/" xmlns:anim="urn:oasis:names:tc:opendocument:xmlns:animation:1.0" xml:space="preserve">
 <defs class="ClipPathGroup">
  <clipPath id="presentation_clip_path" clipPathUnits="userSpaceOnUse">
   <rect x="0" y="0" width="29375" height="29375"/>
  </clipPath>
  <clipPath id="presentation_clip_path_shrink" clipPathUnits="userSpaceOnUse">
   <rect x="29" y="29" width="29317" height="29317"/>
  </clipPath>
 </defs>
 <defs class="TextShapeIndex">
  <g ooo:slide="id1" ooo:id-list="id3"/>
 </defs>
 <defs class="EmbeddedBulletChars">
  <g id="bullet-char-template-57356" transform="scale(0.00048828125,-0.00048828125)">
   <path d="M 580,1141 L 1163,571 580,0 -4,571 580,1141 Z"/>
  </g>
  <g id="bullet-char-template-57354" transform="scale(0.00048828125,-0.00048828125)">
   <path d="M 8,1128 L 1137,1128 1137,0 8,0 8,1128 Z"/>
  </g>
  <g id="bullet-char-template-10146" transform="scale(0.00048828125,-0.00048828125)">
   <path d="M 174,0 L 602,739 174,1481 1456,739 174,0 Z M 1358,739 L 309,1346 659,739 1358,739 Z"/>
  </g>
  <g id="bullet-char-template-10132" transform="scale(0.00048828125,-0.00048828125)">
   <path d="M 2015,739 L 1276,0 717,0 1260,543 174,543 174,936 1260,936 717,1481 1274,1481 2015,739 Z"/>
  </g>
  <g id="bullet-char-template-10007" transform="scale(0.00048828125,-0.00048828125)">
   <path d="M 0,-2 C -7,14 -16,27 -25,37 L 356,567 C 262,823 215,952 215,954 215,979 228,992 255,992 264,992 276,990 289,987 310,991 331,999 354,1012 L 381,999 492,748 772,1049 836,1024 860,1049 C 881,1039 901,1025 922,1006 886,937 835,863 770,784 769,783 710,716 594,584 L 774,223 C 774,196 753,168 711,139 L 727,119 C 717,90 699,76 672,76 641,76 570,178 457,381 L 164,-76 C 142,-110 111,-127 72,-127 30,-127 9,-110 8,-76 1,-67 -2,-52 -2,-32 -2,-23 -1,-13 0,-2 Z"/>
  </g>
  <g id="bullet-char-template-10004" transform="scale(0.00048828125,-0.00048828125)">
   <path d="M 285,-33 C 182,-33 111,30 74,156 52,228 41,333 41,471 41,549 55,616 82,672 116,743 169,778 240,778 293,778 328,747 346,684 L 369,508 C 377,444 397,411 428,410 L 1163,1116 C 1174,1127 1196,1133 1229,1133 1271,1133 1292,1118 1292,1087 L 1292,965 C 1292,929 1282,901 1262,881 L 442,47 C 390,-6 338,-33 285,-33 Z"/>
  </g>
  <g id="bullet-char-template-9679" transform="scale(0.00048828125,-0.00048828125)">
   <path d="M 813,0 C 632,0 489,54 383,161 276,268 223,411 223,592 223,773 276,916 383,1023 489,1130 632,1184 813,1184 992,1184 1136,1130 1245,1023 1353,916 1407,772 1407,592 1407,412 1353,268 1245,161 1136,54 992,0 813,0 Z"/>
  </g>
  <g id="bullet-char-template-8226" transform="scale(0.00048828125,-0.00048828125)">
   <path d="M 346,457 C 273,457 209,483 155,535 101,586 74,649 74,723 74,796 101,859 155,911 209,963 273,989 346,989 419,989 480,963 531,910 582,859 608,796 608,723 608,648 583,586 532,535 482,483 420,457 346,457 Z"/>
  </g>
  <g id="bullet-char-template-8211" transform="scale(0.00048828125,-0.00048828125)">
   <path d="M -4,459 L 1135,459 1135,606 -4,606 -4,459 Z"/>
  </g>
  <g id="bullet-char-template-61548" transform="scale(0.00048828125,-0.00048828125)">
   <path d="M 173,740 C 173,903 231,1043 346,1159 462,1274 601,1332 765,1332 928,1332 1067,1274 1183,1159 1299,1043 1357,903 1357,740 1357,577 1299,437 1183,322 1067,206 928,148 765,148 601,148 462,206 346,322 231,437 173,577 173,740 Z"/>
  </g>
 </defs>
 <defs class="TextEmbeddedBitmaps"/>
 <g>
  <g id="id2" class="Master_Slide">
   <g id="bg-id2" class="Background"/>
   <g id="bo-id2" class="BackgroundObjects"/>
  </g>
 </g>
 <g class="SlideGroup">
  <g>
   <g id="container-id1">
    <g id="id1" class="Slide" clip-path="url(#presentation_clip_path)">
     <g class="Page">
      <g class="Graphic">
       <g id="id3">
        <rect class="BoundingBox" stroke="none" fill="none" x="-13" y="-13" width="29401" height="29401"/>
        <path fill="rgb(0,0,0)" stroke="none" d="M 15399,10013 C 15334,9980 15271,9956 15191,9932 15030,9886 14872,9864 14687,9864 14502,9864 14344,9886 14183,9932 14103,9956 14040,9980 13975,10013 L 445,16853 C 380,16886 331,16918 285,16959 192,17040 150,17119 150,17213 150,17307 192,17387 285,17468 331,17508 380,17540 445,17573 L 13975,24413 C 14040,24446 14103,24471 14183,24494 14344,24541 14502,24562 14687,24562 14872,24562 15030,24541 15191,24494 15271,24471 15334,24446 15399,24413 L 28929,17573 C 28994,17540 29043,17508 29089,17468 29182,17387 29224,17307 29224,17213 29224,17119 29182,17040 29089,16959 29043,16918 28994,16886 28929,16853 L 15399,10013 Z M 14687,11094 L 26792,17213 14687,23333 2582,17213 14687,11094 Z"/>
        <path fill="rgb(0,0,0)" stroke="none" d="M 1151,21088 C 972,21088 819,21117 663,21180 507,21244 396,21323 306,21433 216,21543 175,21651 175,21779 175,21906 216,22014 306,22124 381,22217 471,22285 595,22346 L 14125,29186 C 14152,29200 14176,29211 14204,29222 14360,29286 14513,29315 14693,29315 14873,29315 15025,29286 15181,29222 15210,29211 15233,29200 15261,29186 L 28790,22346 C 28909,22286 28995,22220 29068,22130 29158,22020 29199,21911 29199,21784 29199,21657 29158,21549 29068,21439 28978,21329 28866,21249 28711,21186 28555,21122 28402,21093 28222,21093 28043,21093 27890,21122 27734,21186 27705,21198 27682,21208 27655,21222 L 14693,27775 1731,21222 C 1700,21206 1673,21194 1640,21180 1495,21121 1354,21092 1186,21088 1174,21088 1163,21088 1151,21088 Z"/>
        <path fill="rgb(0,0,0)" stroke="none" d="M 14687,74 C 12372,74 10477,1967 10477,4289 10477,5819 11300,7163 12524,7902 12382,8823 12305,9899 12305,11064 12305,12557 12430,13905 12659,14966 12774,15497 12905,15952 13124,16380 13233,16594 13362,16809 13591,17026 13821,17243 14215,17479 14687,17479 15159,17479 15553,17243 15783,17026 16012,16809 16141,16594 16250,16380 16469,15952 16600,15497 16715,14966 16944,13905 17069,12557 17069,11064 17069,9899 16992,8823 16850,7902 18074,7163 18897,5819 18897,4289 18897,1967 17002,74 14687,74 L 14687,74 Z M 15785,728 C 17026,1145 18001,2278 18186,3705 18439,5664 17112,7715 15239,7952 14417,8055 13621,7843 12964,7408 16440,7344 17273,4843 17048,3048 16906,1949 16625,1285 15785,728 L 15785,728 Z"/>
        <path fill="rgb(0,0,0)" stroke="none" d="M 157,17157 L 14687,23333 14687,28726 169,21830 157,17157 Z"/>
        <path fill="rgb(0,0,0)" stroke="none" d="M 28580,16775 C 28463,16776 28364,16804 28263,16863 28159,16923 28084,16999 28024,17104 27963,17209 27936,17312 27936,17433 27936,17436 27936,17439 27936,17442 L 27936,21644 C 27936,21647 27936,21649 27936,21653 27936,21774 27963,21877 28024,21982 28084,22087 28159,22162 28263,22223 28367,22283 28470,22311 28590,22311 28711,22311 28813,22283 28917,22223 29022,22162 29097,22087 29157,21982 29217,21877 29244,21774 29244,21653 29244,21649 29244,21647 29244,21644 L 29244,17442 C 29244,17439 29244,17436 29244,17433 29244,17312 29217,17209 29157,17104 29097,16999 29022,16923 28917,16863 28813,16802 28711,16774 28590,16774 28587,16774 28584,16774 28580,16775 Z"/>
       </g>
      </g>
     </g>
    </g>
   </g>
  </g>
 </g>
</svg>