<?xml version="1.0" encoding="UTF-8"?>
<!DOCTYPE svg PUBLIC "-//W3C//DTD SVG 1.1//EN" "http://www.w3.org/Graphics/SVG/1.1/DTD/svg11.dtd">
<svg version="1.2" width="293.75mm" height="293.75mm" viewBox="0 0 29375 29375" preserveAspectRatio="xMidYMid" fill-rule="evenodd" stroke-width="28.222" stroke-linejoin="round" xmlns="http://www.w3.org/2000/svg" xmlns:ooo="http://xml.openoffice.org/svg/export" xmlns:xlink="http://www.w3.org/1999/xlink" xmlns:presentation="http://sun.com/xmlns/staroffice/presentation" xmlns:smil="http://www.w3.org/2001/SMIL20/" xmlns:anim="urn:oasis:names:tc:opendocument:xmlns:animation:1.0" xml:space="preserve">
 <defs class="ClipPathGroup">
  <clipPath id="presentation_clip_path" clipPathUnits="userSpaceOnUse">
   <rect x="0" y="0" width="29375" height="29375"/>
  </clipPath>
  <clipPath id="presentation_clip_path_shrink" clipPathUnits="userSpaceOnUse">
   <rect x="29" y="29" width="29317" height="29317"/>
  </clipPath>
 </defs>
 <defs class="TextShapeIndex">
  <g ooo:slide="id1" ooo:id-list="id3"/>
 </defs>
 <defs class="EmbeddedBulletChars">
  <g id="bullet-char-template-57356" transform="scale(0.00048828125,-0.00048828125)">
   <path d="M 580,1141 L 1163,571 580,0 -4,571 580,1141 Z"/>
  </g>
  <g id="bullet-char-template-57354" transform="scale(0.00048828125,-0.00048828125)">
   <path d="M 8,1128 L 1137,1128 1137,0 8,0 8,1128 Z"/>
  </g>
  <g id="bullet-char-template-10146" transform="scale(0.00048828125,-0.00048828125)">
   <path d="M 174,0 L 602,739 174,1481 1456,739 174,0 Z M 1358,739 L 309,1346 659,739 1358,739 Z"/>
  </g>
  <g id="bullet-char-template-10132" transform="scale(0.00048828125,-0.00048828125)">
   <path d="M 2015,739 L 1276,0 717,0 1260,543 174,543 174,936 1260,936 717,1481 1274,1481 2015,739 Z"/>
  </g>
  <g id="bullet-char-template-10007" transform="scale(0.00048828125,-0.00048828125)">
   <path d="M 0,-2 C -7,14 -16,27 -25,37 L 356,567 C 262,823 215,952 215,954 215,979 228,992 255,992 264,992 276,990 289,987 310,991 331,999 354,1012 L 381,999 492,748 772,1049 836,1024 860,1049 C 881,1039 901,1025 922,1006 886,937 835,863 770,784 769,783 710,716 594,584 L 774,223 C 774,196 753,168 711,139 L 727,119 C 717,90 699,76 672,76 641,76 570,178 457,381 L 164,-76 C 142,-110 111,-127 72,-127 30,-127 9,-110 8,-76 1,-67 -2,-52 -2,-32 -2,-23 -1,-13 0,-2 Z"/>
  </g>
  <g id="bullet-char-template-10004" transform="scale(0.00048828125,-0.00048828125)">
   <path d="M 285,-33 C 182,-33 111,30 74,156 52,228 41,333 41,471 41,549 55,616 82,672 116,743 169,778 240,778 293,778 328,747 346,684 L 369,508 C 377,444 397,411 428,410 L 1163,1116 C 1174,1127 1196,1133 1229,1133 1271,1133 1292,1118 1292,1087 L 1292,965 C 1292,929 1282,901 1262,881 L 442,47 C 390,-6 338,-33 285,-33 Z"/>
  </g>
  <g id="bullet-char-template-9679" transform="scale(0.00048828125,-0.00048828125)">
   <path d="M 813,0 C 632,0 489,54 383,161 276,268 223,411 223,592 223,773 276,916 383,1023 489,1130 632,1184 813,1184 992,1184 1136,1130 1245,1023 1353,916 1407,772 1407,592 1407,412 1353,268 1245,161 1136,54 992,0 813,0 Z"/>
  </g>
  <g id="bullet-char-template-8226" transform="scale(0.00048828125,-0.00048828125)">
   <path d="M 346,457 C 273,457 209,483 155,535 101,586 74,649 74,723 74,796 101,859 155,911 209,963 273,989 346,989 419,989 480,963 531,910 582,859 608,796 608,723 608,648 583,586 532,535 482,483 420,457 346,457 Z"/>
  </g>
  <g id="bullet-char-template-8211" transform="scale(0.00048828125,-0.00048828125)">
   <path d="M -4,459 L 1135,459 1135,606 -4,606 -4,459 Z"/>
  </g>
  <g id="bullet-char-template-61548" transform="scale(0.00048828125,-0.00048828125)">
   <path d="M 173,740 C 173,903 231,1043 346,1159 462,1274 601,1332 765,1332 928,1332 1067,1274 1183,1159 1299,1043 1357,903 1357,740 1357,577 1299,437 1183,322 1067,206 928,148 765,148 601,148 462,206 346,322 231,437 173,577 173,740 Z"/>
  </g>
 </defs>
 <defs class="TextEmbeddedBitmaps"/>
 <g>
  <g id="id2" class="Master_Slide">
   <g id="bg-id2" class="Background"/>
   <g id="bo-id2" class="BackgroundObjects"/>
  </g>
 </g>
 <g class="SlideGroup">
  <g>
   <g id="container-id1">
    <g id="id1" class="Slide" clip-path="url(#presentation_clip_path)">
     <g class="Page">
      <g class="Graphic">
       <g id="id3">
        <rect class="BoundingBox" stroke="none" fill="none" x="-13" y="-13" width="29401" height="29401"/>
        <defs>
         <clipPath id="clip_path_1" clipPathUnits="userSpaceOnUse">
          <path d="M -13,-13 L 29387,-13 29387,29387 -13,29387 -13,-13 Z"/>
         </clipPath>
        </defs>
        <g clip-path="url(#clip_path_1)">
         <path fill="rgb(0,0,0)" stroke="none" d="M 10306,1480 L 10306,1480 C 10217,1481 10142,1501 10065,1543 9986,1585 9929,1639 9883,1713 9837,1788 9816,1861 9816,1947 9816,2033 9837,2106 9883,2180 9891,2193 9898,2204 9907,2216 10995,3699 11157,4553 11026,5090 10895,5626 10421,6002 9853,6467 9284,6931 8610,7527 8584,8471 8557,9414 9125,10522 10594,12148 L 10594,12148 C 10635,12195 10677,12229 10733,12259 10813,12302 10891,12322 10983,12322 11075,12322 11153,12302 11232,12259 11312,12216 11369,12163 11415,12088 11461,12014 11482,11941 11482,11855 11482,11769 11461,11696 11415,11622 11397,11593 11379,11570 11356,11545 9954,9994 9566,9044 9581,8495 9597,7946 9961,7617 10509,7169 11057,6722 11777,6200 11998,5298 12219,4397 11892,3274 10730,1688 L 10730,1688 C 10685,1625 10634,1580 10564,1543 10485,1500 10406,1480 10315,1480 10312,1480 10309,1480 10306,1480 L 10306,1480 Z"/>
         <path fill="rgb(0,0,0)" stroke="none" d="M 14528,50 C 14449,92 14391,146 14345,220 14300,295 14279,368 14279,454 14279,539 14300,613 14345,687 14355,703 14365,716 14376,731 15642,2381 15947,3357 15885,3903 15823,4448 15431,4750 14846,5156 14262,5561 13499,6029 13202,6911 12905,7793 13134,8937 14158,10603 14158,10604 14158,10604 14159,10605 14204,10679 14262,10732 14341,10775 14421,10818 14499,10838 14591,10838 14682,10838 14761,10818 14840,10775 14920,10732 14977,10679 15023,10605 15069,10530 15090,10457 15090,10371 15090,10286 15069,10213 15023,10138 14066,8579 13976,7716 14153,7191 14330,6666 14834,6326 15441,5905 16047,5484 16770,4940 16877,4001 16983,3063 16512,1916 15187,187 15143,128 15094,86 15027,50 14947,7 14869,-13 14777,-13 14771,-13 14766,-13 14759,-13 14674,-10 14602,10 14528,50 Z"/>
         <path fill="rgb(0,0,0)" stroke="none" d="M 3306,15059 C 3210,15061 3129,15083 3047,15131 2961,15181 2900,15243 2851,15328 2802,15414 2779,15498 2779,15597 2779,15600 2779,15602 2779,15605 2779,19383 4664,22884 7746,24785 10828,26687 14646,26687 17728,24785 20810,22884 22695,19383 22695,15605 22695,15600 22695,15597 22695,15592 22695,15493 22673,15409 22623,15323 22574,15237 22513,15176 22428,15126 22342,15077 22259,15054 22160,15054 22062,15054 21978,15077 21893,15126 21808,15176 21747,15237 21697,15323 21648,15409 21626,15493 21626,15592 21626,15597 21626,15600 21626,15605 21626,19023 19918,22172 17169,23868 14420,25564 11054,25564 8305,23868 5556,22172 3848,19023 3848,15605 3848,15602 3848,15600 3848,15597 3848,15498 3826,15414 3777,15328 3727,15243 3666,15181 3581,15131 3496,15082 3412,15059 3314,15059 3311,15059 3308,15059 3306,15059 Z"/>
         <path fill="rgb(0,0,0)" stroke="none" d="M 6750,23281 C 6691,23281 6640,23290 6583,23310 5291,23753 4385,24297 3939,25048 3716,25424 3633,25873 3740,26294 3847,26715 4117,27086 4497,27412 6017,28714 9165,29381 12696,29387 16228,29393 19395,28733 20943,27442 21330,27119 21607,26753 21724,26335 21842,25916 21772,25464 21557,25085 21129,24327 20233,23779 18952,23331 18894,23310 18842,23301 18780,23301 18688,23301 18610,23322 18531,23368 18451,23414 18394,23472 18348,23552 18302,23632 18281,23710 18281,23803 18281,23895 18302,23974 18348,24054 18394,24134 18451,24191 18531,24238 18562,24256 18590,24269 18625,24280 19789,24686 20478,25207 20690,25582 20796,25769 20810,25899 20764,26062 20719,26224 20586,26435 20306,26669 19185,27604 16091,28389 12698,28383 9305,28377 6231,27579 5143,26647 4871,26414 4747,26206 4707,26046 4666,25886 4683,25753 4796,25563 5021,25183 5729,24664 6905,24261 6940,24249 6968,24237 7000,24218 7079,24172 7136,24115 7182,24035 7228,23955 7249,23876 7249,23784 7249,23691 7228,23613 7182,23533 7136,23452 7079,23395 7000,23349 6925,23305 6852,23284 6765,23282 6760,23282 6755,23281 6750,23281 Z"/>
         <path fill="rgb(0,0,0)" stroke="none" d="M 21889,16959 C 21860,16995 21841,17027 21826,17065 21800,17130 21798,17186 21819,17242 21841,17298 21879,17338 21942,17369 22005,17400 22073,17414 22161,17412 22195,17412 22224,17409 22259,17403 23632,17195 24922,17567 25405,18297 25888,19027 25523,19895 24512,20533 23501,21171 21988,21427 20813,21103 20762,21089 20714,21083 20654,21084 20566,21085 20486,21102 20397,21136 20308,21171 20237,21212 20171,21270 20105,21328 20063,21384 20037,21450 20011,21515 20009,21571 20030,21627 20051,21683 20090,21723 20153,21754 20177,21766 20200,21774 20228,21782 21693,22185 23604,21897 25022,21002 26440,20107 26962,18800 26328,17842 25695,16885 24115,16439 22360,16706 22299,16714 22246,16728 22186,16751 22097,16786 22027,16827 21960,16885 21932,16910 21910,16932 21889,16959 Z"/>
         <path fill="rgb(0,0,0)" stroke="none" d="M 22591,15429 C 22591,15774 22179,16068 21274,16367 20370,16666 19244,16881 17678,17054 16111,17227 14574,17305 12765,17305 10956,17305 9418,17227 7852,17054 6285,16881 5159,16666 4255,16367 3350,16068 2938,15774 2938,15429 2938,15084 3350,14790 4255,14491 5159,14192 6285,13977 7852,13804 9418,13632 10956,13553 12765,13553 14574,13553 16111,13632 17678,13804 19244,13977 20370,14192 21274,14491 22179,14790 22591,15084 22591,15429 L 22591,15429 Z"/>
        </g>
       </g>
      </g>
     </g>
    </g>
   </g>
  </g>
 </g>
</svg>