<?xml version="1.0" encoding="UTF-8"?>
<!DOCTYPE svg PUBLIC "-//W3C//DTD SVG 1.1//EN" "http://www.w3.org/Graphics/SVG/1.1/DTD/svg11.dtd">
<svg version="1.2" width="293.75mm" height="293.75mm" viewBox="0 0 29375 29375" preserveAspectRatio="xMidYMid" fill-rule="evenodd" stroke-width="28.222" stroke-linejoin="round" xmlns="http://www.w3.org/2000/svg" xmlns:ooo="http://xml.openoffice.org/svg/export" xmlns:xlink="http://www.w3.org/1999/xlink" xmlns:presentation="http://sun.com/xmlns/staroffice/presentation" xmlns:smil="http://www.w3.org/2001/SMIL20/" xmlns:anim="urn:oasis:names:tc:opendocument:xmlns:animation:1.0" xml:space="preserve">
 <defs class="ClipPathGroup">
  <clipPath id="presentation_clip_path" clipPathUnits="userSpaceOnUse">
   <rect x="0" y="0" width="29375" height="29375"/>
  </clipPath>
  <clipPath id="presentation_clip_path_shrink" clipPathUnits="userSpaceOnUse">
   <rect x="29" y="29" width="29317" height="29317"/>
  </clipPath>
 </defs>
 <defs class="TextShapeIndex">
  <g ooo:slide="id1" ooo:id-list="id3"/>
 </defs>
 <defs class="EmbeddedBulletChars">
  <g id="bullet-char-template-57356" transform="scale(0.00048828125,-0.00048828125)">
   <path d="M 580,1141 L 1163,571 580,0 -4,571 580,1141 Z"/>
  </g>
  <g id="bullet-char-template-57354" transform="scale(0.00048828125,-0.00048828125)">
   <path d="M 8,1128 L 1137,1128 1137,0 8,0 8,1128 Z"/>
  </g>
  <g id="bullet-char-template-10146" transform="scale(0.00048828125,-0.00048828125)">
   <path d="M 174,0 L 602,739 174,1481 1456,739 174,0 Z M 1358,739 L 309,1346 659,739 1358,739 Z"/>
  </g>
  <g id="bullet-char-template-10132" transform="scale(0.00048828125,-0.00048828125)">
   <path d="M 2015,739 L 1276,0 717,0 1260,543 174,543 174,936 1260,936 717,1481 1274,1481 2015,739 Z"/>
  </g>
  <g id="bullet-char-template-10007" transform="scale(0.00048828125,-0.00048828125)">
   <path d="M 0,-2 C -7,14 -16,27 -25,37 L 356,567 C 262,823 215,952 215,954 215,979 228,992 255,992 264,992 276,990 289,987 310,991 331,999 354,1012 L 381,999 492,748 772,1049 836,1024 860,1049 C 881,1039 901,1025 922,1006 886,937 835,863 770,784 769,783 710,716 594,584 L 774,223 C 774,196 753,168 711,139 L 727,119 C 717,90 699,76 672,76 641,76 570,178 457,381 L 164,-76 C 142,-110 111,-127 72,-127 30,-127 9,-110 8,-76 1,-67 -2,-52 -2,-32 -2,-23 -1,-13 0,-2 Z"/>
  </g>
  <g id="bullet-char-template-10004" transform="scale(0.00048828125,-0.00048828125)">
   <path d="M 285,-33 C 182,-33 111,30 74,156 52,228 41,333 41,471 41,549 55,616 82,672 116,743 169,778 240,778 293,778 328,747 346,684 L 369,508 C 377,444 397,411 428,410 L 1163,1116 C 1174,1127 1196,1133 1229,1133 1271,1133 1292,1118 1292,1087 L 1292,965 C 1292,929 1282,901 1262,881 L 442,47 C 390,-6 338,-33 285,-33 Z"/>
  </g>
  <g id="bullet-char-template-9679" transform="scale(0.00048828125,-0.00048828125)">
   <path d="M 813,0 C 632,0 489,54 383,161 276,268 223,411 223,592 223,773 276,916 383,1023 489,1130 632,1184 813,1184 992,1184 1136,1130 1245,1023 1353,916 1407,772 1407,592 1407,412 1353,268 1245,161 1136,54 992,0 813,0 Z"/>
  </g>
  <g id="bullet-char-template-8226" transform="scale(0.00048828125,-0.00048828125)">
   <path d="M 346,457 C 273,457 209,483 155,535 101,586 74,649 74,723 74,796 101,859 155,911 209,963 273,989 346,989 419,989 480,963 531,910 582,859 608,796 608,723 608,648 583,586 532,535 482,483 420,457 346,457 Z"/>
  </g>
  <g id="bullet-char-template-8211" transform="scale(0.00048828125,-0.00048828125)">
   <path d="M -4,459 L 1135,459 1135,606 -4,606 -4,459 Z"/>
  </g>
  <g id="bullet-char-template-61548" transform="scale(0.00048828125,-0.00048828125)">
   <path d="M 173,740 C 173,903 231,1043 346,1159 462,1274 601,1332 765,1332 928,1332 1067,1274 1183,1159 1299,1043 1357,903 1357,740 1357,577 1299,437 1183,322 1067,206 928,148 765,148 601,148 462,206 346,322 231,437 173,577 173,740 Z"/>
  </g>
 </defs>
 <defs class="TextEmbeddedBitmaps"/>
 <g>
  <g id="id2" class="Master_Slide">
   <g id="bg-id2" class="Background"/>
   <g id="bo-id2" class="BackgroundObjects"/>
  </g>
 </g>
 <g class="SlideGroup">
  <g>
   <g id="container-id1">
    <g id="id1" class="Slide" clip-path="url(#presentation_clip_path)">
     <g class="Page">
      <g class="Graphic">
       <g id="id3">
        <rect class="BoundingBox" stroke="none" fill="none" x="-13" y="-13" width="29401" height="29401"/>
        <defs>
         <clipPath id="clip_path_1" clipPathUnits="userSpaceOnUse">
          <path d="M -13,-13 L 29387,-13 29387,29387 -13,29387 -13,-13 Z"/>
         </clipPath>
        </defs>
        <g clip-path="url(#clip_path_1)">
         <path fill="rgb(0,0,0)" stroke="none" d="M 11090,-13 C 10968,-13 10869,86 10869,208 L 10869,7460 C 10869,7582 10968,7681 11090,7681 L 18319,7681 C 18441,7681 18540,7582 18540,7460 L 18540,208 C 18540,86 18441,-13 18319,-13 L 11090,-13 Z"/>
         <path fill="rgb(0,0,0)" stroke="none" d="M 21938,-13 C 21816,-13 21717,86 21717,208 L 21717,7460 C 21717,7582 21816,7681 21938,7681 L 29166,7681 C 29288,7681 29387,7582 29387,7460 L 29387,208 C 29387,86 29288,-13 29166,-13 L 21938,-13 Z"/>
         <path fill="rgb(0,0,0)" stroke="none" d="M 7681,208 C 7681,86 7582,-13 7460,-13 L 208,-13 C 86,-13 -13,86 -13,208 L -13,7436 C -13,7558 86,7657 208,7657 L 7460,7657 C 7582,7657 7681,7558 7681,7436 L 7681,208 Z"/>
         <path fill="rgb(0,0,0)" stroke="none" d="M 11090,10840 C 10968,10840 10869,10939 10869,11061 L 10869,18313 C 10869,18435 10968,18534 11090,18534 L 18319,18534 C 18441,18534 18540,18435 18540,18313 L 18540,11061 C 18540,10939 18441,10840 18319,10840 L 11090,10840 Z"/>
         <path fill="rgb(0,0,0)" stroke="none" d="M 208,10840 C 86,10840 -13,10939 -13,11061 L -13,18313 C -13,18435 86,18534 208,18534 L 7436,18534 C 7558,18534 7657,18435 7657,18313 L 7657,11061 C 7657,10939 7558,10840 7436,10840 L 208,10840 Z"/>
         <path fill="rgb(0,0,0)" stroke="none" d="M 21938,10840 C 21816,10840 21717,10939 21717,11061 L 21717,18313 C 21717,18435 21816,18534 21938,18534 L 29166,18534 C 29288,18534 29387,18435 29387,18313 L 29387,11061 C 29387,10939 29288,10840 29166,10840 L 21938,10840 Z"/>
         <path fill="rgb(0,0,0)" stroke="none" d="M 7681,21938 C 7681,21816 7582,21717 7460,21717 L 208,21717 C 86,21717 -13,21816 -13,21938 L -13,29166 C -13,29288 86,29387 208,29387 L 7460,29387 C 7582,29387 7681,29288 7681,29166 L 7681,21938 Z"/>
         <path fill="rgb(0,0,0)" stroke="none" d="M 11090,21693 C 10968,21693 10869,21792 10869,21914 L 10869,29166 C 10869,29288 10968,29387 11090,29387 L 18319,29387 C 18441,29387 18540,29288 18540,29166 L 18540,21914 C 18540,21792 18441,21693 18319,21693 L 11090,21693 Z"/>
         <path fill="rgb(0,0,0)" stroke="none" d="M 21938,21693 C 21816,21693 21717,21792 21717,21914 L 21717,29166 C 21717,29288 21816,29387 21938,29387 L 29166,29387 C 29288,29387 29387,29288 29387,29166 L 29387,21914 C 29387,21792 29288,21693 29166,21693 L 21938,21693 Z"/>
        </g>
       </g>
      </g>
     </g>
    </g>
   </g>
  </g>
 </g>
</svg>