<?xml version="1.0" encoding="UTF-8"?>
<!DOCTYPE svg PUBLIC "-//W3C//DTD SVG 1.1//EN" "http://www.w3.org/Graphics/SVG/1.1/DTD/svg11.dtd">
<svg version="1.2" width="293.75mm" height="293.75mm" viewBox="0 0 29375 29375" preserveAspectRatio="xMidYMid" fill-rule="evenodd" stroke-width="28.222" stroke-linejoin="round" xmlns="http://www.w3.org/2000/svg" xmlns:ooo="http://xml.openoffice.org/svg/export" xmlns:xlink="http://www.w3.org/1999/xlink" xmlns:presentation="http://sun.com/xmlns/staroffice/presentation" xmlns:smil="http://www.w3.org/2001/SMIL20/" xmlns:anim="urn:oasis:names:tc:opendocument:xmlns:animation:1.0" xml:space="preserve">
 <defs class="ClipPathGroup">
  <clipPath id="presentation_clip_path" clipPathUnits="userSpaceOnUse">
   <rect x="0" y="0" width="29375" height="29375"/>
  </clipPath>
  <clipPath id="presentation_clip_path_shrink" clipPathUnits="userSpaceOnUse">
   <rect x="29" y="29" width="29317" height="29317"/>
  </clipPath>
 </defs>
 <defs class="TextShapeIndex">
  <g ooo:slide="id1" ooo:id-list="id3"/>
 </defs>
 <defs class="EmbeddedBulletChars">
  <g id="bullet-char-template-57356" transform="scale(0.00048828125,-0.00048828125)">
   <path d="M 580,1141 L 1163,571 580,0 -4,571 580,1141 Z"/>
  </g>
  <g id="bullet-char-template-57354" transform="scale(0.00048828125,-0.00048828125)">
   <path d="M 8,1128 L 1137,1128 1137,0 8,0 8,1128 Z"/>
  </g>
  <g id="bullet-char-template-10146" transform="scale(0.00048828125,-0.00048828125)">
   <path d="M 174,0 L 602,739 174,1481 1456,739 174,0 Z M 1358,739 L 309,1346 659,739 1358,739 Z"/>
  </g>
  <g id="bullet-char-template-10132" transform="scale(0.00048828125,-0.00048828125)">
   <path d="M 2015,739 L 1276,0 717,0 1260,543 174,543 174,936 1260,936 717,1481 1274,1481 2015,739 Z"/>
  </g>
  <g id="bullet-char-template-10007" transform="scale(0.00048828125,-0.00048828125)">
   <path d="M 0,-2 C -7,14 -16,27 -25,37 L 356,567 C 262,823 215,952 215,954 215,979 228,992 255,992 264,992 276,990 289,987 310,991 331,999 354,1012 L 381,999 492,748 772,1049 836,1024 860,1049 C 881,1039 901,1025 922,1006 886,937 835,863 770,784 769,783 710,716 594,584 L 774,223 C 774,196 753,168 711,139 L 727,119 C 717,90 699,76 672,76 641,76 570,178 457,381 L 164,-76 C 142,-110 111,-127 72,-127 30,-127 9,-110 8,-76 1,-67 -2,-52 -2,-32 -2,-23 -1,-13 0,-2 Z"/>
  </g>
  <g id="bullet-char-template-10004" transform="scale(0.00048828125,-0.00048828125)">
   <path d="M 285,-33 C 182,-33 111,30 74,156 52,228 41,333 41,471 41,549 55,616 82,672 116,743 169,778 240,778 293,778 328,747 346,684 L 369,508 C 377,444 397,411 428,410 L 1163,1116 C 1174,1127 1196,1133 1229,1133 1271,1133 1292,1118 1292,1087 L 1292,965 C 1292,929 1282,901 1262,881 L 442,47 C 390,-6 338,-33 285,-33 Z"/>
  </g>
  <g id="bullet-char-template-9679" transform="scale(0.00048828125,-0.00048828125)">
   <path d="M 813,0 C 632,0 489,54 383,161 276,268 223,411 223,592 223,773 276,916 383,1023 489,1130 632,1184 813,1184 992,1184 1136,1130 1245,1023 1353,916 1407,772 1407,592 1407,412 1353,268 1245,161 1136,54 992,0 813,0 Z"/>
  </g>
  <g id="bullet-char-template-8226" transform="scale(0.00048828125,-0.00048828125)">
   <path d="M 346,457 C 273,457 209,483 155,535 101,586 74,649 74,723 74,796 101,859 155,911 209,963 273,989 346,989 419,989 480,963 531,910 582,859 608,796 608,723 608,648 583,586 532,535 482,483 420,457 346,457 Z"/>
  </g>
  <g id="bullet-char-template-8211" transform="scale(0.00048828125,-0.00048828125)">
   <path d="M -4,459 L 1135,459 1135,606 -4,606 -4,459 Z"/>
  </g>
  <g id="bullet-char-template-61548" transform="scale(0.00048828125,-0.00048828125)">
   <path d="M 173,740 C 173,903 231,1043 346,1159 462,1274 601,1332 765,1332 928,1332 1067,1274 1183,1159 1299,1043 1357,903 1357,740 1357,577 1299,437 1183,322 1067,206 928,148 765,148 601,148 462,206 346,322 231,437 173,577 173,740 Z"/>
  </g>
 </defs>
 <defs class="TextEmbeddedBitmaps"/>
 <g>
  <g id="id2" class="Master_Slide">
   <g id="bg-id2" class="Background"/>
   <g id="bo-id2" class="BackgroundObjects"/>
  </g>
 </g>
 <g class="SlideGroup">
  <g>
   <g id="container-id1">
    <g id="id1" class="Slide" clip-path="url(#presentation_clip_path)">
     <g class="Page">
      <g class="Graphic">
       <g id="id3">
        <rect class="BoundingBox" stroke="none" fill="none" x="-13" y="-13" width="29401" height="29401"/>
        <path fill="rgb(0,0,0)" stroke="none" d="M 7415,2092 C 5097,3431 3431,5097 2092,7415 753,9734 144,12010 144,14687 144,17364 753,19640 2092,21959 3431,24277 5097,25943 7415,27282 9734,28621 12010,29230 14687,29230 17364,29230 19640,28621 21959,27282 24277,25943 25943,24277 27282,21959 28621,19640 29230,17364 29230,14687 29230,12010 28621,9734 27282,7415 25943,5097 24277,3431 21959,2092 19640,753 17364,144 14687,144 12010,144 9734,753 7415,2092 Z M 14375,3147 C 14591,3147 14804,3154 15014,3168 15224,3182 15431,3203 15634,3231 15837,3258 16036,3293 16232,3333 16428,3374 16620,3422 16808,3475 16996,3528 17181,3588 17360,3654 17540,3719 17716,3791 17887,3868 18058,3945 18225,4028 18387,4117 18549,4205 18706,4299 18859,4399 19011,4498 19159,4602 19301,4712 19443,4821 19580,4936 19712,5055 19843,5174 19970,5298 20090,5427 20211,5555 20326,5688 20434,5825 20543,5963 20646,6104 20743,6250 20840,6396 20931,6545 21015,6699 21100,6852 21178,7009 21249,7170 21321,7331 21385,7496 21443,7663 21500,7824 21548,7986 21589,8148 21630,8311 21663,8475 21689,8639 21715,8803 21734,8968 21746,9133 21759,9298 21764,9463 21764,9629 21764,9847 21754,10060 21736,10267 21717,10474 21689,10675 21652,10871 21616,11067 21571,11258 21519,11443 21467,11629 21407,11809 21341,11985 21275,12160 21202,12331 21123,12497 21044,12663 20959,12825 20869,12982 20780,13139 20685,13292 20586,13441 20486,13590 20383,13735 20276,13876 20169,14017 20059,14155 19946,14289 19833,14422 19717,14553 19600,14680 19482,14807 19363,14931 19242,15052 19122,15173 19000,15291 18878,15406 18635,15637 18390,15857 18151,16068 17912,16279 17678,16482 17456,16678 17326,16794 17201,16894 17081,16983 16961,17073 16847,17152 16738,17226 16629,17299 16525,17368 16427,17436 16329,17504 16236,17571 16150,17644 16063,17717 15982,17794 15907,17882 15869,17925 15833,17972 15798,18021 15764,18070 15731,18123 15699,18179 15668,18235 15638,18295 15609,18360 15581,18424 15554,18493 15529,18567 15503,18641 15480,18720 15457,18805 15435,18889 15415,18980 15396,19077 15385,19129 15379,19180 15377,19228 15374,19277 15375,19324 15378,19369 15385,19460 15402,19544 15421,19627 15441,19709 15463,19789 15480,19869 15497,19950 15509,20031 15509,20116 15509,20201 15500,20284 15484,20364 15468,20444 15444,20521 15413,20595 15382,20668 15344,20738 15300,20804 15256,20869 15205,20930 15150,20985 15094,21041 15034,21091 14968,21135 14903,21179 14833,21217 14760,21248 14686,21279 14609,21303 14529,21319 14449,21336 14366,21344 14281,21344 14212,21344 14147,21340 14085,21331 14023,21322 13964,21309 13908,21292 13852,21275 13800,21254 13750,21229 13700,21204 13653,21176 13609,21144 13564,21112 13523,21077 13484,21039 13445,21000 13408,20959 13374,20915 13340,20871 13309,20824 13280,20774 13250,20725 13223,20673 13199,20619 13149,20511 13108,20394 13074,20271 13041,20148 13014,20019 12994,19885 12974,19752 12960,19615 12952,19476 12943,19337 12939,19197 12939,19058 12939,18925 12943,18797 12951,18672 12959,18547 12970,18426 12986,18308 13001,18190 13020,18075 13043,17964 13065,17853 13091,17745 13120,17640 13150,17535 13182,17433 13217,17334 13253,17235 13291,17139 13333,17045 13374,16952 13418,16861 13465,16772 13511,16684 13561,16598 13612,16515 13664,16431 13718,16350 13775,16270 13831,16191 13889,16114 13950,16039 14071,15889 14200,15746 14335,15610 14470,15474 14612,15344 14758,15219 14904,15093 15055,14973 15209,14856 15363,14739 15520,14625 15678,14513 15836,14401 15996,14290 16155,14180 16314,14070 16473,13961 16630,13850 16787,13739 16941,13627 17093,13512 17244,13398 17392,13281 17534,13159 17676,13038 17813,12912 17943,12781 18073,12650 18197,12513 18311,12370 18368,12298 18424,12224 18476,12148 18529,12073 18579,11995 18627,11915 18731,11745 18826,11575 18909,11401 18951,11314 18989,11226 19025,11137 19061,11048 19094,10957 19123,10864 19153,10771 19179,10677 19202,10580 19225,10483 19244,10383 19260,10281 19275,10179 19287,10073 19295,9965 19303,9856 19308,9744 19308,9629 19308,9468 19299,9312 19281,9160 19263,9008 19237,8861 19203,8718 19168,8575 19126,8437 19076,8303 19026,8169 18969,8040 18904,7915 18840,7791 18768,7671 18690,7556 18612,7441 18527,7331 18437,7226 18346,7120 18249,7020 18147,6924 18045,6829 17937,6738 17824,6652 17711,6567 17594,6486 17471,6410 17349,6335 17222,6265 17091,6199 16960,6134 16825,6074 16687,6019 16549,5965 16407,5915 16262,5871 16117,5827 15969,5788 15819,5755 15669,5721 15516,5693 15361,5671 15206,5649 15050,5632 14891,5620 14733,5609 14574,5603 14413,5603 14264,5603 14117,5609 13972,5620 13827,5631 13683,5648 13543,5670 13402,5692 13263,5719 13128,5752 12992,5785 12859,5823 12729,5866 12599,5909 12473,5957 12350,6011 12227,6064 12107,6123 11991,6186 11876,6250 11764,6318 11656,6392 11549,6465 11445,6543 11347,6626 11248,6709 11154,6797 11065,6889 10976,6982 10892,7079 10814,7180 10735,7282 10662,7388 10595,7499 10528,7609 10466,7724 10411,7844 10355,7963 10306,8087 10263,8215 10221,8343 10185,8475 10155,8611 10126,8747 10104,8888 10089,9032 10074,9177 10066,9325 10066,9478 10066,9629 10085,9780 10085,9931 10085,10016 10077,10099 10060,10179 10044,10259 10020,10337 9989,10410 9958,10484 9920,10553 9876,10619 9832,10684 9782,10745 9726,10800 9671,10856 9610,10906 9545,10950 9479,10994 9409,11032 9336,11063 9262,11094 9185,11118 9105,11135 9025,11151 8942,11159 8857,11159 8800,11159 8746,11157 8693,11151 8641,11145 8591,11137 8543,11126 8495,11115 8449,11101 8405,11085 8361,11069 8319,11051 8279,11030 8239,11009 8202,10985 8166,10960 8130,10934 8096,10906 8064,10876 7999,10817 7943,10748 7893,10673 7843,10597 7801,10514 7765,10425 7729,10336 7700,10240 7677,10139 7654,10038 7637,9932 7626,9821 7615,9711 7610,9596 7610,9478 7610,9358 7613,9240 7619,9124 7625,9007 7633,8891 7645,8777 7657,8663 7672,8551 7689,8439 7707,8328 7727,8218 7750,8109 7773,8001 7799,7894 7827,7788 7855,7683 7886,7578 7920,7476 7953,7373 7989,7272 8028,7172 8067,7073 8108,6974 8151,6878 8195,6781 8241,6686 8289,6593 8337,6500 8387,6408 8440,6318 8493,6227 8548,6139 8605,6052 8663,5965 8722,5880 8784,5797 8907,5630 9038,5470 9177,5317 9316,5164 9463,5019 9618,4881 9772,4742 9933,4612 10101,4489 10269,4366 10443,4250 10623,4143 10804,4036 10990,3937 11181,3846 11373,3755 11570,3673 11771,3599 11973,3525 12179,3460 12389,3404 12600,3347 12814,3300 13032,3262 13250,3224 13471,3195 13695,3176 13919,3156 14146,3147 14375,3147 Z M 14490,23176 C 14546,23181 14593,23188 14649,23200 14704,23211 14751,23223 14805,23239 14859,23256 14904,23273 14956,23295 15008,23317 15051,23337 15100,23364 15112,23371 15122,23376 15133,23383 15171,23405 15202,23424 15238,23449 15284,23480 15322,23509 15366,23546 15409,23582 15444,23615 15483,23655 15523,23696 15554,23732 15589,23776 15624,23821 15652,23859 15683,23907 15697,23930 15709,23949 15722,23972 15737,23998 15749,24020 15763,24047 15789,24097 15808,24141 15829,24193 15849,24246 15864,24291 15879,24346 15894,24400 15905,24447 15914,24503 15924,24559 15930,24606 15934,24663 15937,24702 15938,24736 15938,24776 15938,24833 15935,24881 15930,24937 15924,24993 15917,25040 15906,25096 15895,25151 15883,25198 15866,25252 15849,25306 15833,25351 15811,25403 15789,25455 15768,25498 15741,25548 15734,25559 15729,25569 15722,25581 15701,25618 15681,25649 15657,25685 15625,25731 15596,25769 15560,25813 15523,25856 15491,25891 15450,25930 15409,25970 15373,26001 15329,26036 15285,26072 15246,26099 15198,26130 15176,26144 15157,26156 15134,26169 15108,26184 15085,26196 15059,26210 15008,26236 14965,26255 14912,26276 14859,26296 14814,26311 14759,26326 14705,26342 14658,26352 14603,26362 14547,26371 14499,26377 14443,26381 14403,26384 14369,26385 14330,26385 14329,26385 14329,26385 14329,26385 14329,26385 14329,26385 14329,26385 14272,26385 14225,26383 14169,26377 14112,26371 14065,26364 14010,26353 13954,26342 13908,26330 13854,26313 13800,26296 13755,26280 13703,26258 13651,26236 13608,26215 13558,26188 13546,26182 13536,26176 13525,26170 13487,26148 13457,26128 13421,26104 13374,26072 13336,26043 13293,26007 13250,25970 13215,25938 13175,25897 13136,25857 13104,25821 13069,25776 13034,25732 13006,25693 12975,25646 12961,25623 12949,25604 12936,25581 12921,25555 12909,25533 12895,25506 12870,25456 12850,25412 12830,25359 12809,25307 12794,25261 12779,25207 12764,25152 12753,25105 12744,25050 12734,24994 12728,24946 12724,24890 12722,24850 12720,24817 12720,24777 12720,24777 12720,24776 12720,24776 12720,24776 12720,24776 12720,24776 12720,24720 12723,24672 12728,24616 12734,24559 12741,24512 12752,24457 12764,24401 12776,24355 12792,24301 12809,24247 12825,24202 12847,24150 12869,24098 12890,24055 12917,24005 12924,23993 12929,23984 12936,23972 12957,23935 12977,23904 13001,23868 13033,23821 13062,23783 13099,23740 13135,23697 13168,23662 13208,23622 13249,23583 13285,23551 13329,23516 13373,23481 13412,23453 13460,23423 13482,23408 13502,23396 13525,23383 13551,23368 13573,23356 13599,23343 13650,23317 13693,23297 13746,23277 13799,23256 13844,23241 13899,23226 13953,23211 14000,23201 14056,23191 14111,23181 14159,23176 14215,23172 14255,23169 14289,23168 14329,23168 14386,23168 14433,23170 14490,23176 Z"/>
       </g>
      </g>
     </g>
    </g>
   </g>
  </g>
 </g>
</svg>