<?xml version="1.0" encoding="UTF-8"?>
<!DOCTYPE svg PUBLIC "-//W3C//DTD SVG 1.1//EN" "http://www.w3.org/Graphics/SVG/1.1/DTD/svg11.dtd">
<svg version="1.2" width="293.75mm" height="293.75mm" viewBox="0 0 29375 29375" preserveAspectRatio="xMidYMid" fill-rule="evenodd" stroke-width="28.222" stroke-linejoin="round" xmlns="http://www.w3.org/2000/svg" xmlns:ooo="http://xml.openoffice.org/svg/export" xmlns:xlink="http://www.w3.org/1999/xlink" xmlns:presentation="http://sun.com/xmlns/staroffice/presentation" xmlns:smil="http://www.w3.org/2001/SMIL20/" xmlns:anim="urn:oasis:names:tc:opendocument:xmlns:animation:1.0" xml:space="preserve">
 <defs class="ClipPathGroup">
  <clipPath id="presentation_clip_path" clipPathUnits="userSpaceOnUse">
   <rect x="0" y="0" width="29375" height="29375"/>
  </clipPath>
  <clipPath id="presentation_clip_path_shrink" clipPathUnits="userSpaceOnUse">
   <rect x="29" y="29" width="29317" height="29317"/>
  </clipPath>
 </defs>
 <defs class="TextShapeIndex">
  <g ooo:slide="id1" ooo:id-list="id3"/>
 </defs>
 <defs class="EmbeddedBulletChars">
  <g id="bullet-char-template-57356" transform="scale(0.00048828125,-0.00048828125)">
   <path d="M 580,1141 L 1163,571 580,0 -4,571 580,1141 Z"/>
  </g>
  <g id="bullet-char-template-57354" transform="scale(0.00048828125,-0.00048828125)">
   <path d="M 8,1128 L 1137,1128 1137,0 8,0 8,1128 Z"/>
  </g>
  <g id="bullet-char-template-10146" transform="scale(0.00048828125,-0.00048828125)">
   <path d="M 174,0 L 602,739 174,1481 1456,739 174,0 Z M 1358,739 L 309,1346 659,739 1358,739 Z"/>
  </g>
  <g id="bullet-char-template-10132" transform="scale(0.00048828125,-0.00048828125)">
   <path d="M 2015,739 L 1276,0 717,0 1260,543 174,543 174,936 1260,936 717,1481 1274,1481 2015,739 Z"/>
  </g>
  <g id="bullet-char-template-10007" transform="scale(0.00048828125,-0.00048828125)">
   <path d="M 0,-2 C -7,14 -16,27 -25,37 L 356,567 C 262,823 215,952 215,954 215,979 228,992 255,992 264,992 276,990 289,987 310,991 331,999 354,1012 L 381,999 492,748 772,1049 836,1024 860,1049 C 881,1039 901,1025 922,1006 886,937 835,863 770,784 769,783 710,716 594,584 L 774,223 C 774,196 753,168 711,139 L 727,119 C 717,90 699,76 672,76 641,76 570,178 457,381 L 164,-76 C 142,-110 111,-127 72,-127 30,-127 9,-110 8,-76 1,-67 -2,-52 -2,-32 -2,-23 -1,-13 0,-2 Z"/>
  </g>
  <g id="bullet-char-template-10004" transform="scale(0.00048828125,-0.00048828125)">
   <path d="M 285,-33 C 182,-33 111,30 74,156 52,228 41,333 41,471 41,549 55,616 82,672 116,743 169,778 240,778 293,778 328,747 346,684 L 369,508 C 377,444 397,411 428,410 L 1163,1116 C 1174,1127 1196,1133 1229,1133 1271,1133 1292,1118 1292,1087 L 1292,965 C 1292,929 1282,901 1262,881 L 442,47 C 390,-6 338,-33 285,-33 Z"/>
  </g>
  <g id="bullet-char-template-9679" transform="scale(0.00048828125,-0.00048828125)">
   <path d="M 813,0 C 632,0 489,54 383,161 276,268 223,411 223,592 223,773 276,916 383,1023 489,1130 632,1184 813,1184 992,1184 1136,1130 1245,1023 1353,916 1407,772 1407,592 1407,412 1353,268 1245,161 1136,54 992,0 813,0 Z"/>
  </g>
  <g id="bullet-char-template-8226" transform="scale(0.00048828125,-0.00048828125)">
   <path d="M 346,457 C 273,457 209,483 155,535 101,586 74,649 74,723 74,796 101,859 155,911 209,963 273,989 346,989 419,989 480,963 531,910 582,859 608,796 608,723 608,648 583,586 532,535 482,483 420,457 346,457 Z"/>
  </g>
  <g id="bullet-char-template-8211" transform="scale(0.00048828125,-0.00048828125)">
   <path d="M -4,459 L 1135,459 1135,606 -4,606 -4,459 Z"/>
  </g>
  <g id="bullet-char-template-61548" transform="scale(0.00048828125,-0.00048828125)">
   <path d="M 173,740 C 173,903 231,1043 346,1159 462,1274 601,1332 765,1332 928,1332 1067,1274 1183,1159 1299,1043 1357,903 1357,740 1357,577 1299,437 1183,322 1067,206 928,148 765,148 601,148 462,206 346,322 231,437 173,577 173,740 Z"/>
  </g>
 </defs>
 <defs class="TextEmbeddedBitmaps"/>
 <g>
  <g id="id2" class="Master_Slide">
   <g id="bg-id2" class="Background"/>
   <g id="bo-id2" class="BackgroundObjects"/>
  </g>
 </g>
 <g class="SlideGroup">
  <g>
   <g id="container-id1">
    <g id="id1" class="Slide" clip-path="url(#presentation_clip_path)">
     <g class="Page">
      <g class="Graphic">
       <g id="id3">
        <rect class="BoundingBox" stroke="none" fill="none" x="-13" y="-13" width="29401" height="29401"/>
        <path fill="rgb(0,0,0)" stroke="none" d="M 11092,25566 L 11092,23849 29370,23849 29370,27283 11092,27283 11092,25566 Z"/>
        <path fill="rgb(0,0,0)" stroke="none" d="M 519,5983 L 2169,5983 2169,1299 475,1648 475,376 2160,27 3936,27 3936,5983 5587,5983 5587,7274 519,7274 519,5983 Z"/>
        <path fill="rgb(0,0,0)" stroke="none" d="M 2439,16490 L 5628,16490 5628,17864 361,17864 361,16490 3007,14155 C 3243,13942 3418,13733 3531,13529 3644,13325 3701,13113 3701,12893 3701,12553 3586,12280 3356,12073 3130,11866 2827,11762 2448,11762 2157,11762 1838,11825 1492,11951 1146,12074 775,12259 381,12505 L 381,10913 C 801,10773 1217,10668 1628,10597 2039,10523 2442,10485 2837,10485 3704,10485 4377,10676 4856,11058 5338,11440 5579,11972 5579,12655 5579,13050 5477,13419 5273,13762 5070,14102 4641,14558 3987,15131 L 2439,16490 Z"/>
        <path fill="rgb(0,0,0)" stroke="none" d="M 5203,25982 C 5459,26293 5587,26689 5587,27172 5587,27890 5311,28437 4761,28812 4211,29184 3409,29370 2354,29370 1982,29370 1608,29340 1232,29278 860,29220 491,29131 126,29011 L 126,27570 C 475,27744 821,27877 1165,27968 1511,28055 1851,28099 2184,28099 2679,28099 3058,28013 3320,27841 3585,27670 3718,27424 3718,27104 3718,26774 3582,26524 3310,26356 3041,26185 2643,26099 2116,26099 L 1368,26099 1368,24895 2155,24895 C 2624,24895 2973,24822 3203,24677 3433,24528 3548,24303 3548,24002 3548,23724 3436,23508 3213,23356 2990,23204 2674,23128 2266,23128 1965,23128 1661,23162 1354,23230 1046,23298 741,23398 436,23531 L 436,22162 C 805,22059 1171,21981 1533,21929 1896,21877 2252,21852 2601,21852 3543,21852 4247,22007 4713,22318 5182,22625 5417,23089 5417,23711 5417,24135 5305,24482 5082,24754 4858,25023 4528,25212 4091,25322 4580,25448 4951,25668 5203,25982 Z"/>
        <path fill="rgb(0,0,0)" stroke="none" d="M 11092,14419 L 11092,12702 29370,12702 29370,16136 11092,16136 11092,14419 Z"/>
        <path fill="rgb(0,0,0)" stroke="none" d="M 11092,3272 L 11092,1555 29370,1555 29370,4989 11092,4989 11092,3272 Z"/>
       </g>
      </g>
     </g>
    </g>
   </g>
  </g>
 </g>
</svg>