<?xml version="1.0" encoding="UTF-8"?>
<!DOCTYPE svg PUBLIC "-//W3C//DTD SVG 1.1//EN" "http://www.w3.org/Graphics/SVG/1.1/DTD/svg11.dtd">
<svg version="1.2" width="293.75mm" height="293.75mm" viewBox="0 0 29375 29375" preserveAspectRatio="xMidYMid" fill-rule="evenodd" stroke-width="28.222" stroke-linejoin="round" xmlns="http://www.w3.org/2000/svg" xmlns:ooo="http://xml.openoffice.org/svg/export" xmlns:xlink="http://www.w3.org/1999/xlink" xmlns:presentation="http://sun.com/xmlns/staroffice/presentation" xmlns:smil="http://www.w3.org/2001/SMIL20/" xmlns:anim="urn:oasis:names:tc:opendocument:xmlns:animation:1.0" xml:space="preserve">
 <defs class="ClipPathGroup">
  <clipPath id="presentation_clip_path" clipPathUnits="userSpaceOnUse">
   <rect x="0" y="0" width="29375" height="29375"/>
  </clipPath>
  <clipPath id="presentation_clip_path_shrink" clipPathUnits="userSpaceOnUse">
   <rect x="29" y="29" width="29317" height="29317"/>
  </clipPath>
 </defs>
 <defs class="TextShapeIndex">
  <g ooo:slide="id1" ooo:id-list="id3"/>
 </defs>
 <defs class="EmbeddedBulletChars">
  <g id="bullet-char-template-57356" transform="scale(0.00048828125,-0.00048828125)">
   <path d="M 580,1141 L 1163,571 580,0 -4,571 580,1141 Z"/>
  </g>
  <g id="bullet-char-template-57354" transform="scale(0.00048828125,-0.00048828125)">
   <path d="M 8,1128 L 1137,1128 1137,0 8,0 8,1128 Z"/>
  </g>
  <g id="bullet-char-template-10146" transform="scale(0.00048828125,-0.00048828125)">
   <path d="M 174,0 L 602,739 174,1481 1456,739 174,0 Z M 1358,739 L 309,1346 659,739 1358,739 Z"/>
  </g>
  <g id="bullet-char-template-10132" transform="scale(0.00048828125,-0.00048828125)">
   <path d="M 2015,739 L 1276,0 717,0 1260,543 174,543 174,936 1260,936 717,1481 1274,1481 2015,739 Z"/>
  </g>
  <g id="bullet-char-template-10007" transform="scale(0.00048828125,-0.00048828125)">
   <path d="M 0,-2 C -7,14 -16,27 -25,37 L 356,567 C 262,823 215,952 215,954 215,979 228,992 255,992 264,992 276,990 289,987 310,991 331,999 354,1012 L 381,999 492,748 772,1049 836,1024 860,1049 C 881,1039 901,1025 922,1006 886,937 835,863 770,784 769,783 710,716 594,584 L 774,223 C 774,196 753,168 711,139 L 727,119 C 717,90 699,76 672,76 641,76 570,178 457,381 L 164,-76 C 142,-110 111,-127 72,-127 30,-127 9,-110 8,-76 1,-67 -2,-52 -2,-32 -2,-23 -1,-13 0,-2 Z"/>
  </g>
  <g id="bullet-char-template-10004" transform="scale(0.00048828125,-0.00048828125)">
   <path d="M 285,-33 C 182,-33 111,30 74,156 52,228 41,333 41,471 41,549 55,616 82,672 116,743 169,778 240,778 293,778 328,747 346,684 L 369,508 C 377,444 397,411 428,410 L 1163,1116 C 1174,1127 1196,1133 1229,1133 1271,1133 1292,1118 1292,1087 L 1292,965 C 1292,929 1282,901 1262,881 L 442,47 C 390,-6 338,-33 285,-33 Z"/>
  </g>
  <g id="bullet-char-template-9679" transform="scale(0.00048828125,-0.00048828125)">
   <path d="M 813,0 C 632,0 489,54 383,161 276,268 223,411 223,592 223,773 276,916 383,1023 489,1130 632,1184 813,1184 992,1184 1136,1130 1245,1023 1353,916 1407,772 1407,592 1407,412 1353,268 1245,161 1136,54 992,0 813,0 Z"/>
  </g>
  <g id="bullet-char-template-8226" transform="scale(0.00048828125,-0.00048828125)">
   <path d="M 346,457 C 273,457 209,483 155,535 101,586 74,649 74,723 74,796 101,859 155,911 209,963 273,989 346,989 419,989 480,963 531,910 582,859 608,796 608,723 608,648 583,586 532,535 482,483 420,457 346,457 Z"/>
  </g>
  <g id="bullet-char-template-8211" transform="scale(0.00048828125,-0.00048828125)">
   <path d="M -4,459 L 1135,459 1135,606 -4,606 -4,459 Z"/>
  </g>
  <g id="bullet-char-template-61548" transform="scale(0.00048828125,-0.00048828125)">
   <path d="M 173,740 C 173,903 231,1043 346,1159 462,1274 601,1332 765,1332 928,1332 1067,1274 1183,1159 1299,1043 1357,903 1357,740 1357,577 1299,437 1183,322 1067,206 928,148 765,148 601,148 462,206 346,322 231,437 173,577 173,740 Z"/>
  </g>
 </defs>
 <defs class="TextEmbeddedBitmaps"/>
 <g>
  <g id="id2" class="Master_Slide">
   <g id="bg-id2" class="Background"/>
   <g id="bo-id2" class="BackgroundObjects"/>
  </g>
 </g>
 <g class="SlideGroup">
  <g>
   <g id="container-id1">
    <g id="id1" class="Slide" clip-path="url(#presentation_clip_path)">
     <g class="Page">
      <g class="Graphic">
       <g id="id3">
        <rect class="BoundingBox" stroke="none" fill="none" x="-13" y="-13" width="29401" height="29401"/>
        <path fill="rgb(0,0,0)" stroke="none" d="M 14598,25446 C 19795,25443 24097,21686 24460,16895 24467,16803 24473,13565 24477,13473 24500,13059 24156,12708 23711,12691 23266,12674 22892,12999 22879,13413 22875,13512 22869,16756 22860,16854 22524,20854 18947,23957 14597,23959 10269,23962 6702,20895 6329,16926 6318,16808 6309,13542 6304,13422 6288,13010 5914,12689 5472,12707 5029,12724 4686,13073 4707,13485 4712,13596 4719,16854 4728,16964 4923,19290 6047,21368 7749,22885 9532,24474 11949,25447 14598,25446 Z"/>
        <path fill="rgb(0,0,0)" stroke="none" d="M 21056,7606 C 21056,7764 21052,14987 21044,15142 20839,19096 18066,22228 14675,22228 11284,22228 8511,19097 8306,15143 8298,14988 8294,7764 8294,7606 8294,3434 11151,51 14675,51 18199,51 21056,3434 21056,7606 L 21056,7606 Z"/>
        <path fill="rgb(0,0,0)" stroke="none" d="M 9087,27323 C 9081,27323 9075,27323 9069,27323 8885,27323 8729,27365 8569,27457 8410,27549 8295,27664 8203,27823 8111,27982 8069,28139 8069,28323 8069,28507 8111,28663 8203,28823 8295,28982 8410,29097 8569,29189 8729,29281 8885,29323 9069,29323 9072,29323 9075,29323 9078,29323 L 20287,29370 C 20293,29370 20299,29370 20305,29370 20489,29370 20645,29328 20805,29236 20964,29144 21079,29030 21171,28870 21263,28711 21305,28555 21305,28371 21305,28186 21263,28030 21171,27871 21079,27711 20964,27597 20805,27505 20645,27413 20489,27371 20305,27371 20302,27371 20299,27371 20296,27371 L 9087,27323 Z"/>
        <path fill="rgb(0,0,0)" stroke="none" d="M 15711,25238 L 15711,25238 C 15711,25236 15711,25235 15711,25233 15711,25174 15669,25124 15577,25074 15485,25023 15370,24987 15211,24957 15051,24928 14895,24915 14711,24915 14527,24915 14370,24928 14211,24957 14052,24987 13937,25023 13845,25074 13753,25124 13711,25174 13711,25233 13711,25234 13711,25234 13711,25235 L 13663,28797 13663,28797 C 13663,28798 13663,28800 13663,28802 13663,28861 13705,28910 13797,28961 13889,29012 14004,29048 14163,29077 14323,29106 14479,29120 14663,29120 14847,29120 15004,29106 15163,29077 15322,29048 15437,29012 15529,28961 15621,28910 15663,28861 15663,28802 15663,28801 15663,28800 15663,28799 L 15711,25238 Z"/>
       </g>
      </g>
     </g>
    </g>
   </g>
  </g>
 </g>
</svg>