<?xml version="1.0" encoding="UTF-8"?>
<!DOCTYPE svg PUBLIC "-//W3C//DTD SVG 1.1//EN" "http://www.w3.org/Graphics/SVG/1.1/DTD/svg11.dtd">
<svg version="1.2" width="293.75mm" height="293.75mm" viewBox="0 0 29375 29375" preserveAspectRatio="xMidYMid" fill-rule="evenodd" stroke-width="28.222" stroke-linejoin="round" xmlns="http://www.w3.org/2000/svg" xmlns:ooo="http://xml.openoffice.org/svg/export" xmlns:xlink="http://www.w3.org/1999/xlink" xmlns:presentation="http://sun.com/xmlns/staroffice/presentation" xmlns:smil="http://www.w3.org/2001/SMIL20/" xmlns:anim="urn:oasis:names:tc:opendocument:xmlns:animation:1.0" xml:space="preserve">
 <defs class="ClipPathGroup">
  <clipPath id="presentation_clip_path" clipPathUnits="userSpaceOnUse">
   <rect x="0" y="0" width="29375" height="29375"/>
  </clipPath>
  <clipPath id="presentation_clip_path_shrink" clipPathUnits="userSpaceOnUse">
   <rect x="29" y="29" width="29317" height="29317"/>
  </clipPath>
 </defs>
 <defs class="TextShapeIndex">
  <g ooo:slide="id1" ooo:id-list="id3"/>
 </defs>
 <defs class="EmbeddedBulletChars">
  <g id="bullet-char-template-57356" transform="scale(0.00048828125,-0.00048828125)">
   <path d="M 580,1141 L 1163,571 580,0 -4,571 580,1141 Z"/>
  </g>
  <g id="bullet-char-template-57354" transform="scale(0.00048828125,-0.00048828125)">
   <path d="M 8,1128 L 1137,1128 1137,0 8,0 8,1128 Z"/>
  </g>
  <g id="bullet-char-template-10146" transform="scale(0.00048828125,-0.00048828125)">
   <path d="M 174,0 L 602,739 174,1481 1456,739 174,0 Z M 1358,739 L 309,1346 659,739 1358,739 Z"/>
  </g>
  <g id="bullet-char-template-10132" transform="scale(0.00048828125,-0.00048828125)">
   <path d="M 2015,739 L 1276,0 717,0 1260,543 174,543 174,936 1260,936 717,1481 1274,1481 2015,739 Z"/>
  </g>
  <g id="bullet-char-template-10007" transform="scale(0.00048828125,-0.00048828125)">
   <path d="M 0,-2 C -7,14 -16,27 -25,37 L 356,567 C 262,823 215,952 215,954 215,979 228,992 255,992 264,992 276,990 289,987 310,991 331,999 354,1012 L 381,999 492,748 772,1049 836,1024 860,1049 C 881,1039 901,1025 922,1006 886,937 835,863 770,784 769,783 710,716 594,584 L 774,223 C 774,196 753,168 711,139 L 727,119 C 717,90 699,76 672,76 641,76 570,178 457,381 L 164,-76 C 142,-110 111,-127 72,-127 30,-127 9,-110 8,-76 1,-67 -2,-52 -2,-32 -2,-23 -1,-13 0,-2 Z"/>
  </g>
  <g id="bullet-char-template-10004" transform="scale(0.00048828125,-0.00048828125)">
   <path d="M 285,-33 C 182,-33 111,30 74,156 52,228 41,333 41,471 41,549 55,616 82,672 116,743 169,778 240,778 293,778 328,747 346,684 L 369,508 C 377,444 397,411 428,410 L 1163,1116 C 1174,1127 1196,1133 1229,1133 1271,1133 1292,1118 1292,1087 L 1292,965 C 1292,929 1282,901 1262,881 L 442,47 C 390,-6 338,-33 285,-33 Z"/>
  </g>
  <g id="bullet-char-template-9679" transform="scale(0.00048828125,-0.00048828125)">
   <path d="M 813,0 C 632,0 489,54 383,161 276,268 223,411 223,592 223,773 276,916 383,1023 489,1130 632,1184 813,1184 992,1184 1136,1130 1245,1023 1353,916 1407,772 1407,592 1407,412 1353,268 1245,161 1136,54 992,0 813,0 Z"/>
  </g>
  <g id="bullet-char-template-8226" transform="scale(0.00048828125,-0.00048828125)">
   <path d="M 346,457 C 273,457 209,483 155,535 101,586 74,649 74,723 74,796 101,859 155,911 209,963 273,989 346,989 419,989 480,963 531,910 582,859 608,796 608,723 608,648 583,586 532,535 482,483 420,457 346,457 Z"/>
  </g>
  <g id="bullet-char-template-8211" transform="scale(0.00048828125,-0.00048828125)">
   <path d="M -4,459 L 1135,459 1135,606 -4,606 -4,459 Z"/>
  </g>
  <g id="bullet-char-template-61548" transform="scale(0.00048828125,-0.00048828125)">
   <path d="M 173,740 C 173,903 231,1043 346,1159 462,1274 601,1332 765,1332 928,1332 1067,1274 1183,1159 1299,1043 1357,903 1357,740 1357,577 1299,437 1183,322 1067,206 928,148 765,148 601,148 462,206 346,322 231,437 173,577 173,740 Z"/>
  </g>
 </defs>
 <defs class="TextEmbeddedBitmaps"/>
 <g>
  <g id="id2" class="Master_Slide">
   <g id="bg-id2" class="Background"/>
   <g id="bo-id2" class="BackgroundObjects"/>
  </g>
 </g>
 <g class="SlideGroup">
  <g>
   <g id="container-id1">
    <g id="id1" class="Slide" clip-path="url(#presentation_clip_path)">
     <g class="Page">
      <g class="Graphic">
       <g id="id3">
        <rect class="BoundingBox" stroke="none" fill="none" x="-13" y="-13" width="29401" height="29401"/>
        <defs>
         <clipPath id="clip_path_1" clipPathUnits="userSpaceOnUse">
          <path d="M -13,-13 L 29387,-13 29387,29387 -13,29387 -13,-13 Z"/>
         </clipPath>
        </defs>
        <g clip-path="url(#clip_path_1)">
         <path fill="rgb(0,0,0)" stroke="none" d="M 16273,-16 L 15114,2289 C 14545,2278 13978,2303 13413,2369 L 12058,151 C 10908,371 9787,726 8721,1209 L 8870,3785 C 8371,4057 7893,4362 7438,4699 L 5165,3462 C 4274,4223 3477,5090 2791,6040 L 4212,8201 C 3915,8684 3649,9185 3421,9704 L 842,9768 C 642,10320 473,10881 339,11450 214,12022 123,12603 68,13186 L 2372,14343 C 2361,14912 2386,15481 2452,16047 L 234,17399 C 454,18552 810,19672 1292,20738 L 3866,20590 C 4140,21086 4445,21564 4782,22019 L 3543,24295 C 4306,25183 5171,25980 6123,26666 L 8285,25247 C 8768,25542 9268,25809 9787,26037 L 9851,28618 C 10403,28818 10964,28987 11534,29121 12105,29243 12686,29334 13268,29390 L 14426,27085 C 14695,27091 14964,27088 15233,27076 L 15233,23721 C 15231,23721 15228,23721 15226,23721 14923,23737 14623,23737 14321,23721 14018,23707 13718,23676 13422,23632 13210,23601 13001,23560 12791,23515 12497,23448 12206,23366 11922,23273 11634,23177 11352,23068 11078,22944 10803,22821 10534,22685 10273,22535 10011,22385 9756,22222 9512,22047 9266,21872 9029,21683 8804,21485 8576,21284 8360,21075 8155,20853 7947,20633 7754,20403 7572,20164 7389,19923 7219,19674 7061,19417 6902,19160 6758,18896 6627,18624 6497,18351 6378,18074 6273,17791 6170,17508 6082,17219 6006,16928 5931,16634 5873,16341 5828,16042 5781,15744 5753,15443 5736,15142 5723,14840 5723,14539 5736,14238 5753,13935 5781,13637 5828,13338 5859,13127 5898,12918 5945,12708 6011,12414 6092,12122 6187,11838 6280,11551 6389,11272 6513,10995 6638,10720 6775,10451 6922,10189 7072,9928 7236,9673 7413,9429 7588,9182 7774,8946 7974,8721 8173,8493 8382,8277 8604,8071 8824,7864 9054,7671 9296,7488 9534,7306 9782,7136 10040,6978 10298,6819 10564,6675 10834,6544 11106,6414 11384,6295 11666,6192 11950,6087 12238,5998 12532,5923 12824,5848 13119,5789 13418,5744 13716,5698 14015,5669 14317,5653 14618,5639 14920,5639 15221,5653 15522,5669 15822,5698 16120,5744 16330,5776 16542,5814 16749,5862 17043,5928 17335,6008 17621,6103 17907,6197 18188,6309 18465,6431 18740,6555 19009,6691 19270,6842 19532,6989 19784,7153 20031,7329 20275,7505 20511,7691 20739,7891 20964,8090 21181,8299 21388,8521 21593,8741 21786,8971 21971,9212 22153,9451 22322,9702 22482,9957 22638,10214 22785,10481 22913,10751 23046,11023 23162,11300 23267,11583 23370,11867 23459,12155 23534,12449 23609,12740 23668,13036 23713,13335 23759,13632 23788,13933 23804,14234 23804,14240 23804,14249 23804,14259 L 27159,14259 C 27147,13949 27124,13637 27088,13330 L 29306,11975 C 29087,10825 28732,9704 28248,8638 L 25674,8787 C 25400,8288 25095,7810 24759,7355 L 25997,5081 C 25234,4191 24370,3394 23418,2708 L 21256,4129 C 20775,3832 20272,3566 19753,3337 L 19689,759 C 19140,559 18578,390 18007,256 17435,131 16856,40 16273,-16 L 16273,-16 Z"/>
         <path fill="rgb(0,0,0)" stroke="none" d="M 24313,19093 C 24323,19084 24318,19082 24330,19068 24391,19004 24432,18936 24457,18866 24482,18795 24491,18722 24491,18652 24490,18579 24476,18508 24452,18438 24432,18366 24402,18301 24371,18238 24305,18110 24224,17999 24159,17921 24136,17891 24136,17893 24118,17872 19049,12649 21604,11664 19201,9341 16961,7247 13405,7292 10846,9299 10914,9257 10982,9215 11056,9177 11207,9101 11362,9032 11520,8973 11679,8913 11841,8861 12005,8821 12170,8777 12337,8741 12506,8716 12677,8688 12847,8669 13020,8661 13194,8649 13369,8649 13544,8657 13717,8663 13894,8677 14071,8699 14246,8722 14424,8754 14599,8793 14774,8835 14949,8880 15123,8936 15298,8991 15471,9055 15642,9127 15812,9201 15981,9280 16148,9366 16315,9455 16480,9554 16639,9656 16801,9760 16961,9874 17113,9996 17267,10114 17419,10243 17564,10381 17708,10517 17833,10647 17942,10772 18053,10898 18149,11018 18236,11136 18319,11253 18393,11367 18457,11478 18522,11589 18577,11701 18627,11811 18727,12028 18802,12247 18876,12473 18951,12700 19021,12938 19113,13194 19158,13322 19208,13457 19268,13599 19324,13740 19390,13885 19468,14043 19546,14197 19632,14360 19732,14534 19832,14707 19946,14890 20076,15085 20206,15279 20351,15484 20515,15700 20679,15917 20862,16147 21067,16390 21271,16634 21497,16891 21747,17164 21998,17438 22272,17725 22574,18030 22589,18049 22589,18046 22613,18074 22674,18146 22754,18246 22822,18360 22856,18416 22888,18476 22913,18535 22938,18597 22957,18658 22966,18720 22972,18782 22972,18841 22957,18898 22941,18954 22913,19009 22868,19057 22858,19066 22863,19068 22856,19077 L 21184,20822 21173,20833 21162,20845 19493,22591 C 19485,22599 19484,22596 19474,22605 19427,22653 19374,22683 19318,22700 19260,22719 19201,22724 19140,22719 19076,22714 19015,22699 18951,22678 18889,22658 18825,22630 18766,22599 18650,22539 18543,22466 18466,22407 18438,22386 18441,22386 18420,22371 18097,22091 17789,21836 17500,21603 17211,21373 16937,21164 16681,20975 16423,20787 16181,20620 15954,20469 15724,20318 15510,20187 15307,20070 15104,19951 14913,19851 14731,19760 14551,19671 14380,19595 14221,19529 14060,19462 13907,19405 13761,19355 13615,19305 13477,19262 13344,19226 13080,19148 12836,19091 12603,19032 12369,18973 12145,18909 11920,18824 11806,18782 11690,18732 11575,18674 11459,18618 11340,18552 11217,18474 11092,18396 10967,18308 10832,18205 10700,18102 10562,17986 10415,17855 10270,17718 10130,17577 10001,17431 9871,17285 9748,17135 9635,16983 9521,16828 9413,16672 9316,16511 9215,16351 9127,16190 9044,16026 8963,15859 8888,15693 8821,15525 8755,15356 8699,15185 8647,15015 8597,14843 8557,14671 8522,14498 8491,14324 8466,14154 8450,13980 8434,13808 8425,13635 8425,13463 8425,13293 8434,13122 8452,12953 8469,12785 8495,12619 8530,12453 8564,12289 8607,12125 8657,11965 8680,11895 8711,11826 8739,11756 7373,14282 7687,17349 9721,19251 12203,21494 13052,18916 18611,23630 18635,23646 18632,23646 18661,23668 18746,23727 18862,23801 18994,23857 19060,23887 19129,23912 19201,23929 19272,23946 19345,23955 19418,23954 19490,23951 19563,23937 19634,23907 19702,23880 19771,23835 19832,23771 19843,23760 19846,23765 19857,23752 L 22070,21439 22084,21423 22100,21408 24313,19093 Z"/>
         <path fill="rgb(0,0,0)" stroke="none" d="M 22619,22125 L 21505,23303 C 20932,23909 20646,24569 20870,24778 21091,24988 21735,24667 22309,24061 L 24533,21705 C 25108,21100 25393,20439 25169,20230 24949,20020 24305,20342 23733,20947 L 22619,22125 Z"/>
         <path fill="rgb(0,0,0)" stroke="none" d="M 24128,23568 L 23015,24747 C 22442,25352 22156,26013 22379,26222 22601,26432 23245,26110 23819,25505 L 26044,23150 C 26618,22544 26903,21883 26679,21674 26459,21465 25813,21786 25243,22391 L 24128,23568 Z"/>
         <path fill="rgb(0,0,0)" stroke="none" d="M 25579,24958 L 25167,25394 C 24594,25999 24308,26660 24532,26869 24752,27079 25397,26757 25971,26152 L 26793,25281 C 27365,24675 27650,24015 27428,23806 27207,23596 26563,23917 25990,24523 L 25579,24958 Z"/>
         <path fill="rgb(0,0,0)" stroke="none" d="M 11028,11009 L 14485,18119 15756,15809 20539,20239 16114,12307 14804,14851 11028,11009 Z"/>
        </g>
       </g>
      </g>
     </g>
    </g>
   </g>
  </g>
 </g>
</svg>