<?xml version="1.0" encoding="UTF-8"?>
<!DOCTYPE svg PUBLIC "-//W3C//DTD SVG 1.1//EN" "http://www.w3.org/Graphics/SVG/1.1/DTD/svg11.dtd">
<svg version="1.2" width="293.75mm" height="293.75mm" viewBox="0 0 29375 29375" preserveAspectRatio="xMidYMid" fill-rule="evenodd" stroke-width="28.222" stroke-linejoin="round" xmlns="http://www.w3.org/2000/svg" xmlns:ooo="http://xml.openoffice.org/svg/export" xmlns:xlink="http://www.w3.org/1999/xlink" xmlns:presentation="http://sun.com/xmlns/staroffice/presentation" xmlns:smil="http://www.w3.org/2001/SMIL20/" xmlns:anim="urn:oasis:names:tc:opendocument:xmlns:animation:1.0" xml:space="preserve">
 <defs class="ClipPathGroup">
  <clipPath id="presentation_clip_path" clipPathUnits="userSpaceOnUse">
   <rect x="0" y="0" width="29375" height="29375"/>
  </clipPath>
  <clipPath id="presentation_clip_path_shrink" clipPathUnits="userSpaceOnUse">
   <rect x="29" y="29" width="29317" height="29317"/>
  </clipPath>
 </defs>
 <defs class="TextShapeIndex">
  <g ooo:slide="id1" ooo:id-list="id3"/>
 </defs>
 <defs class="EmbeddedBulletChars">
  <g id="bullet-char-template-57356" transform="scale(0.00048828125,-0.00048828125)">
   <path d="M 580,1141 L 1163,571 580,0 -4,571 580,1141 Z"/>
  </g>
  <g id="bullet-char-template-57354" transform="scale(0.00048828125,-0.00048828125)">
   <path d="M 8,1128 L 1137,1128 1137,0 8,0 8,1128 Z"/>
  </g>
  <g id="bullet-char-template-10146" transform="scale(0.00048828125,-0.00048828125)">
   <path d="M 174,0 L 602,739 174,1481 1456,739 174,0 Z M 1358,739 L 309,1346 659,739 1358,739 Z"/>
  </g>
  <g id="bullet-char-template-10132" transform="scale(0.00048828125,-0.00048828125)">
   <path d="M 2015,739 L 1276,0 717,0 1260,543 174,543 174,936 1260,936 717,1481 1274,1481 2015,739 Z"/>
  </g>
  <g id="bullet-char-template-10007" transform="scale(0.00048828125,-0.00048828125)">
   <path d="M 0,-2 C -7,14 -16,27 -25,37 L 356,567 C 262,823 215,952 215,954 215,979 228,992 255,992 264,992 276,990 289,987 310,991 331,999 354,1012 L 381,999 492,748 772,1049 836,1024 860,1049 C 881,1039 901,1025 922,1006 886,937 835,863 770,784 769,783 710,716 594,584 L 774,223 C 774,196 753,168 711,139 L 727,119 C 717,90 699,76 672,76 641,76 570,178 457,381 L 164,-76 C 142,-110 111,-127 72,-127 30,-127 9,-110 8,-76 1,-67 -2,-52 -2,-32 -2,-23 -1,-13 0,-2 Z"/>
  </g>
  <g id="bullet-char-template-10004" transform="scale(0.00048828125,-0.00048828125)">
   <path d="M 285,-33 C 182,-33 111,30 74,156 52,228 41,333 41,471 41,549 55,616 82,672 116,743 169,778 240,778 293,778 328,747 346,684 L 369,508 C 377,444 397,411 428,410 L 1163,1116 C 1174,1127 1196,1133 1229,1133 1271,1133 1292,1118 1292,1087 L 1292,965 C 1292,929 1282,901 1262,881 L 442,47 C 390,-6 338,-33 285,-33 Z"/>
  </g>
  <g id="bullet-char-template-9679" transform="scale(0.00048828125,-0.00048828125)">
   <path d="M 813,0 C 632,0 489,54 383,161 276,268 223,411 223,592 223,773 276,916 383,1023 489,1130 632,1184 813,1184 992,1184 1136,1130 1245,1023 1353,916 1407,772 1407,592 1407,412 1353,268 1245,161 1136,54 992,0 813,0 Z"/>
  </g>
  <g id="bullet-char-template-8226" transform="scale(0.00048828125,-0.00048828125)">
   <path d="M 346,457 C 273,457 209,483 155,535 101,586 74,649 74,723 74,796 101,859 155,911 209,963 273,989 346,989 419,989 480,963 531,910 582,859 608,796 608,723 608,648 583,586 532,535 482,483 420,457 346,457 Z"/>
  </g>
  <g id="bullet-char-template-8211" transform="scale(0.00048828125,-0.00048828125)">
   <path d="M -4,459 L 1135,459 1135,606 -4,606 -4,459 Z"/>
  </g>
  <g id="bullet-char-template-61548" transform="scale(0.00048828125,-0.00048828125)">
   <path d="M 173,740 C 173,903 231,1043 346,1159 462,1274 601,1332 765,1332 928,1332 1067,1274 1183,1159 1299,1043 1357,903 1357,740 1357,577 1299,437 1183,322 1067,206 928,148 765,148 601,148 462,206 346,322 231,437 173,577 173,740 Z"/>
  </g>
 </defs>
 <defs class="TextEmbeddedBitmaps"/>
 <g>
  <g id="id2" class="Master_Slide">
   <g id="bg-id2" class="Background"/>
   <g id="bo-id2" class="BackgroundObjects"/>
  </g>
 </g>
 <g class="SlideGroup">
  <g>
   <g id="container-id1">
    <g id="id1" class="Slide" clip-path="url(#presentation_clip_path)">
     <g class="Page">
      <g class="Graphic">
       <g id="id3">
        <rect class="BoundingBox" stroke="none" fill="none" x="-13" y="-13" width="29401" height="29401"/>
        <path fill="rgb(0,0,0)" stroke="none" d="M 5725,8963 C 2583,8963 7,11534 7,14687 7,17840 2583,20411 5725,20411 8868,20411 11443,17840 11443,14687 11443,11534 8868,8963 5725,8963 L 5725,8963 Z M 5725,10969 C 7798,10969 9450,12625 9450,14687 9450,16749 7798,18406 5725,18406 3653,18406 2000,16749 2000,14687 2000,12625 3653,10969 5725,10969 L 5725,10969 Z"/>
        <path fill="rgb(0,0,0)" stroke="none" d="M 23649,8 C 20506,8 17931,2579 17931,5732 17931,8885 20506,11456 23649,11456 26791,11456 29367,8885 29367,5732 29367,2579 26791,8 23649,8 L 23649,8 Z M 23649,2013 C 25721,2013 27374,3670 27374,5732 27374,7794 25721,9450 23649,9450 21576,9450 19924,7794 19924,5732 19924,3670 21576,2013 23649,2013 L 23649,2013 Z"/>
        <path fill="rgb(0,0,0)" stroke="none" d="M 23649,17918 C 20506,17918 17931,20489 17931,23642 17931,26795 20506,29367 23649,29367 26791,29367 29367,26795 29367,23642 29367,20489 26791,17918 23649,17918 L 23649,17918 Z M 23649,19924 C 25721,19924 27374,21580 27374,23642 27374,25704 25721,27360 23649,27360 21576,27360 19924,25704 19924,23642 19924,21580 21576,19924 23649,19924 L 23649,19924 Z"/>
        <path fill="rgb(0,0,0)" stroke="none" d="M 18909,7391 L 9746,11595 10572,13420 19736,9217 18909,7391 Z"/>
        <path fill="rgb(0,0,0)" stroke="none" d="M 10339,16084 L 9507,17907 19000,22299 19833,20477 10339,16084 Z"/>
       </g>
      </g>
     </g>
    </g>
   </g>
  </g>
 </g>
</svg>