<?xml version="1.0" encoding="UTF-8"?>
<!DOCTYPE svg PUBLIC "-//W3C//DTD SVG 1.1//EN" "http://www.w3.org/Graphics/SVG/1.1/DTD/svg11.dtd">
<svg version="1.2" width="293.75mm" height="293.75mm" viewBox="0 0 29375 29375" preserveAspectRatio="xMidYMid" fill-rule="evenodd" stroke-width="28.222" stroke-linejoin="round" xmlns="http://www.w3.org/2000/svg" xmlns:ooo="http://xml.openoffice.org/svg/export" xmlns:xlink="http://www.w3.org/1999/xlink" xmlns:presentation="http://sun.com/xmlns/staroffice/presentation" xmlns:smil="http://www.w3.org/2001/SMIL20/" xmlns:anim="urn:oasis:names:tc:opendocument:xmlns:animation:1.0" xml:space="preserve">
 <defs class="ClipPathGroup">
  <clipPath id="presentation_clip_path" clipPathUnits="userSpaceOnUse">
   <rect x="0" y="0" width="29375" height="29375"/>
  </clipPath>
  <clipPath id="presentation_clip_path_shrink" clipPathUnits="userSpaceOnUse">
   <rect x="29" y="29" width="29317" height="29317"/>
  </clipPath>
 </defs>
 <defs class="TextShapeIndex">
  <g ooo:slide="id1" ooo:id-list="id3"/>
 </defs>
 <defs class="EmbeddedBulletChars">
  <g id="bullet-char-template-57356" transform="scale(0.00048828125,-0.00048828125)">
   <path d="M 580,1141 L 1163,571 580,0 -4,571 580,1141 Z"/>
  </g>
  <g id="bullet-char-template-57354" transform="scale(0.00048828125,-0.00048828125)">
   <path d="M 8,1128 L 1137,1128 1137,0 8,0 8,1128 Z"/>
  </g>
  <g id="bullet-char-template-10146" transform="scale(0.00048828125,-0.00048828125)">
   <path d="M 174,0 L 602,739 174,1481 1456,739 174,0 Z M 1358,739 L 309,1346 659,739 1358,739 Z"/>
  </g>
  <g id="bullet-char-template-10132" transform="scale(0.00048828125,-0.00048828125)">
   <path d="M 2015,739 L 1276,0 717,0 1260,543 174,543 174,936 1260,936 717,1481 1274,1481 2015,739 Z"/>
  </g>
  <g id="bullet-char-template-10007" transform="scale(0.00048828125,-0.00048828125)">
   <path d="M 0,-2 C -7,14 -16,27 -25,37 L 356,567 C 262,823 215,952 215,954 215,979 228,992 255,992 264,992 276,990 289,987 310,991 331,999 354,1012 L 381,999 492,748 772,1049 836,1024 860,1049 C 881,1039 901,1025 922,1006 886,937 835,863 770,784 769,783 710,716 594,584 L 774,223 C 774,196 753,168 711,139 L 727,119 C 717,90 699,76 672,76 641,76 570,178 457,381 L 164,-76 C 142,-110 111,-127 72,-127 30,-127 9,-110 8,-76 1,-67 -2,-52 -2,-32 -2,-23 -1,-13 0,-2 Z"/>
  </g>
  <g id="bullet-char-template-10004" transform="scale(0.00048828125,-0.00048828125)">
   <path d="M 285,-33 C 182,-33 111,30 74,156 52,228 41,333 41,471 41,549 55,616 82,672 116,743 169,778 240,778 293,778 328,747 346,684 L 369,508 C 377,444 397,411 428,410 L 1163,1116 C 1174,1127 1196,1133 1229,1133 1271,1133 1292,1118 1292,1087 L 1292,965 C 1292,929 1282,901 1262,881 L 442,47 C 390,-6 338,-33 285,-33 Z"/>
  </g>
  <g id="bullet-char-template-9679" transform="scale(0.00048828125,-0.00048828125)">
   <path d="M 813,0 C 632,0 489,54 383,161 276,268 223,411 223,592 223,773 276,916 383,1023 489,1130 632,1184 813,1184 992,1184 1136,1130 1245,1023 1353,916 1407,772 1407,592 1407,412 1353,268 1245,161 1136,54 992,0 813,0 Z"/>
  </g>
  <g id="bullet-char-template-8226" transform="scale(0.00048828125,-0.00048828125)">
   <path d="M 346,457 C 273,457 209,483 155,535 101,586 74,649 74,723 74,796 101,859 155,911 209,963 273,989 346,989 419,989 480,963 531,910 582,859 608,796 608,723 608,648 583,586 532,535 482,483 420,457 346,457 Z"/>
  </g>
  <g id="bullet-char-template-8211" transform="scale(0.00048828125,-0.00048828125)">
   <path d="M -4,459 L 1135,459 1135,606 -4,606 -4,459 Z"/>
  </g>
  <g id="bullet-char-template-61548" transform="scale(0.00048828125,-0.00048828125)">
   <path d="M 173,740 C 173,903 231,1043 346,1159 462,1274 601,1332 765,1332 928,1332 1067,1274 1183,1159 1299,1043 1357,903 1357,740 1357,577 1299,437 1183,322 1067,206 928,148 765,148 601,148 462,206 346,322 231,437 173,577 173,740 Z"/>
  </g>
 </defs>
 <defs class="TextEmbeddedBitmaps"/>
 <g>
  <g id="id2" class="Master_Slide">
   <g id="bg-id2" class="Background"/>
   <g id="bo-id2" class="BackgroundObjects"/>
  </g>
 </g>
 <g class="SlideGroup">
  <g>
   <g id="container-id1">
    <g id="id1" class="Slide" clip-path="url(#presentation_clip_path)">
     <g class="Page">
      <g class="Graphic">
       <g id="id3">
        <rect class="BoundingBox" stroke="none" fill="none" x="-13" y="-13" width="29401" height="29401"/>
        <path fill="rgb(0,0,0)" stroke="none" d="M 14687,103 C 6419,103 103,6419 103,14687 103,22955 6419,29271 14687,29271 22955,29271 29271,22955 29271,14687 29271,6419 22955,103 14687,103 L 14687,103 Z M 14685,3519 C 21016,3519 25853,8355 25853,14685 25853,21016 21016,25853 14685,25853 8355,25853 3519,21016 3519,14685 3519,8355 8355,3519 14685,3519 L 14685,3519 Z"/>
        <path fill="rgb(0,0,0)" stroke="none" d="M 9952,22495 C 9706,22427 9454,22220 9345,21997 9267,21838 9230,21647 9241,21453 9255,21196 9321,21076 9699,20616 10504,19637 11026,18646 11216,17740 11283,17420 11292,17308 11291,16798 11290,16300 11271,16018 11208,15618 L 11183,15453 10555,15443 C 10210,15437 9764,15426 9563,15417 9136,15399 9107,15390 9042,15262 L 9001,15182 9001,14564 C 9001,13649 8935,13708 9972,13699 10444,13695 10650,13687 10650,13675 10650,13665 10614,13536 10570,13388 10407,12845 10325,12410 10274,11948 10149,10794 10244,9727 10823,8709 11124,8194 11596,7694 12095,7360 13149,6655 14601,6424 16036,6733 16694,6874 17277,7147 17791,7553 18219,7892 18654,8416 18910,8903 19090,9244 19255,9696 19272,9893 19279,9986 19276,10006 19242,10055 19157,10179 19123,10189 18408,10291 17811,10376 17589,10398 17514,10381 17419,10359 17348,10269 17249,10043 17091,9684 16975,9507 16743,9275 16450,8981 16077,8788 15549,8655 15011,8581 14582,8558 14055,8664 13408,8833 12990,9084 12689,9484 12513,9719 12351,10089 12283,10414 12220,10709 12212,11445 12266,11849 12320,12253 12394,12542 12619,13236 L 12768,13695 14573,13696 C 15565,13696 16453,13703 16546,13710 16693,13723 16723,13730 16781,13771 16924,13871 16954,14010 16954,14564 16954,15117 16924,15257 16782,15356 16727,15395 16691,15405 16563,15418 16479,15426 15687,15433 14804,15433 L 13198,15433 13208,15494 C 13272,15893 13305,16975 13268,17472 13223,18083 13035,18784 12706,19566 12646,19707 12601,19827 12606,19832 12611,19837 12752,19831 12920,19820 13120,19806 13386,19802 13688,19808 14442,19823 14845,19899 15898,20226 16637,20456 17153,20546 17647,20531 17871,20524 17919,20518 18013,20483 18227,20403 18474,20233 18774,19959 18867,19873 18976,19788 19014,19769 19128,19714 19179,19730 19452,19910 19979,20258 20488,20635 20532,20711 20622,20864 20518,21052 20148,21408 19602,21933 18993,22291 18357,22461 18210,22501 18163,22505 17796,22513 17175,22526 16687,22484 16209,22377 16016,22335 15521,22194 15037,22046 14499,21880 14233,21829 13764,21801 13055,21759 12216,21883 11411,22149 11292,22188 11045,22279 10861,22351 10678,22423 10485,22490 10432,22499 10305,22522 10044,22520 9952,22495 L 9952,22495 Z"/>
       </g>
      </g>
     </g>
    </g>
   </g>
  </g>
 </g>
</svg>