<?xml version="1.0" encoding="UTF-8"?>
<!DOCTYPE svg PUBLIC "-//W3C//DTD SVG 1.1//EN" "http://www.w3.org/Graphics/SVG/1.1/DTD/svg11.dtd">
<svg version="1.2" width="293.75mm" height="293.75mm" viewBox="0 0 29375 29375" preserveAspectRatio="xMidYMid" fill-rule="evenodd" stroke-width="28.222" stroke-linejoin="round" xmlns="http://www.w3.org/2000/svg" xmlns:ooo="http://xml.openoffice.org/svg/export" xmlns:xlink="http://www.w3.org/1999/xlink" xmlns:presentation="http://sun.com/xmlns/staroffice/presentation" xmlns:smil="http://www.w3.org/2001/SMIL20/" xmlns:anim="urn:oasis:names:tc:opendocument:xmlns:animation:1.0" xml:space="preserve">
 <defs class="ClipPathGroup">
  <clipPath id="presentation_clip_path" clipPathUnits="userSpaceOnUse">
   <rect x="0" y="0" width="29375" height="29375"/>
  </clipPath>
  <clipPath id="presentation_clip_path_shrink" clipPathUnits="userSpaceOnUse">
   <rect x="29" y="29" width="29317" height="29317"/>
  </clipPath>
 </defs>
 <defs class="TextShapeIndex">
  <g ooo:slide="id1" ooo:id-list="id3"/>
 </defs>
 <defs class="EmbeddedBulletChars">
  <g id="bullet-char-template-57356" transform="scale(0.00048828125,-0.00048828125)">
   <path d="M 580,1141 L 1163,571 580,0 -4,571 580,1141 Z"/>
  </g>
  <g id="bullet-char-template-57354" transform="scale(0.00048828125,-0.00048828125)">
   <path d="M 8,1128 L 1137,1128 1137,0 8,0 8,1128 Z"/>
  </g>
  <g id="bullet-char-template-10146" transform="scale(0.00048828125,-0.00048828125)">
   <path d="M 174,0 L 602,739 174,1481 1456,739 174,0 Z M 1358,739 L 309,1346 659,739 1358,739 Z"/>
  </g>
  <g id="bullet-char-template-10132" transform="scale(0.00048828125,-0.00048828125)">
   <path d="M 2015,739 L 1276,0 717,0 1260,543 174,543 174,936 1260,936 717,1481 1274,1481 2015,739 Z"/>
  </g>
  <g id="bullet-char-template-10007" transform="scale(0.00048828125,-0.00048828125)">
   <path d="M 0,-2 C -7,14 -16,27 -25,37 L 356,567 C 262,823 215,952 215,954 215,979 228,992 255,992 264,992 276,990 289,987 310,991 331,999 354,1012 L 381,999 492,748 772,1049 836,1024 860,1049 C 881,1039 901,1025 922,1006 886,937 835,863 770,784 769,783 710,716 594,584 L 774,223 C 774,196 753,168 711,139 L 727,119 C 717,90 699,76 672,76 641,76 570,178 457,381 L 164,-76 C 142,-110 111,-127 72,-127 30,-127 9,-110 8,-76 1,-67 -2,-52 -2,-32 -2,-23 -1,-13 0,-2 Z"/>
  </g>
  <g id="bullet-char-template-10004" transform="scale(0.00048828125,-0.00048828125)">
   <path d="M 285,-33 C 182,-33 111,30 74,156 52,228 41,333 41,471 41,549 55,616 82,672 116,743 169,778 240,778 293,778 328,747 346,684 L 369,508 C 377,444 397,411 428,410 L 1163,1116 C 1174,1127 1196,1133 1229,1133 1271,1133 1292,1118 1292,1087 L 1292,965 C 1292,929 1282,901 1262,881 L 442,47 C 390,-6 338,-33 285,-33 Z"/>
  </g>
  <g id="bullet-char-template-9679" transform="scale(0.00048828125,-0.00048828125)">
   <path d="M 813,0 C 632,0 489,54 383,161 276,268 223,411 223,592 223,773 276,916 383,1023 489,1130 632,1184 813,1184 992,1184 1136,1130 1245,1023 1353,916 1407,772 1407,592 1407,412 1353,268 1245,161 1136,54 992,0 813,0 Z"/>
  </g>
  <g id="bullet-char-template-8226" transform="scale(0.00048828125,-0.00048828125)">
   <path d="M 346,457 C 273,457 209,483 155,535 101,586 74,649 74,723 74,796 101,859 155,911 209,963 273,989 346,989 419,989 480,963 531,910 582,859 608,796 608,723 608,648 583,586 532,535 482,483 420,457 346,457 Z"/>
  </g>
  <g id="bullet-char-template-8211" transform="scale(0.00048828125,-0.00048828125)">
   <path d="M -4,459 L 1135,459 1135,606 -4,606 -4,459 Z"/>
  </g>
  <g id="bullet-char-template-61548" transform="scale(0.00048828125,-0.00048828125)">
   <path d="M 173,740 C 173,903 231,1043 346,1159 462,1274 601,1332 765,1332 928,1332 1067,1274 1183,1159 1299,1043 1357,903 1357,740 1357,577 1299,437 1183,322 1067,206 928,148 765,148 601,148 462,206 346,322 231,437 173,577 173,740 Z"/>
  </g>
 </defs>
 <defs class="TextEmbeddedBitmaps"/>
 <g>
  <g id="id2" class="Master_Slide">
   <g id="bg-id2" class="Background"/>
   <g id="bo-id2" class="BackgroundObjects"/>
  </g>
 </g>
 <g class="SlideGroup">
  <g>
   <g id="container-id1">
    <g id="id1" class="Slide" clip-path="url(#presentation_clip_path)">
     <g class="Page">
      <g class="Graphic">
       <g id="id3">
        <rect class="BoundingBox" stroke="none" fill="none" x="-13" y="-13" width="29401" height="29401"/>
        <path fill="rgb(0,0,0)" stroke="none" d="M 5825,29252 C 5373,29128 4911,28749 4711,28339 4568,28047 4501,27696 4521,27340 4547,26869 4667,26649 5361,25805 6838,24008 7797,22191 8145,20528 8268,19940 8284,19734 8282,18799 8281,17885 8245,17368 8131,16634 L 8084,16332 6932,16313 C 6298,16303 5479,16281 5112,16265 4327,16232 4274,16216 4155,15981 L 4081,15833 4081,14700 C 4081,13022 3960,13129 5862,13112 6728,13105 7106,13091 7106,13069 7106,13051 7040,12814 6959,12542 6661,11546 6511,10748 6415,9901 6186,7783 6360,5824 7424,3957 7976,3012 8842,2093 9758,1481 11692,188 14357,-236 16989,330 18196,589 19267,1090 20209,1836 20994,2458 21792,3420 22262,4312 22593,4939 22896,5768 22926,6129 22941,6300 22934,6336 22872,6427 22716,6654 22654,6672 21342,6859 20246,7015 19839,7056 19702,7025 19526,6985 19396,6819 19214,6405 18926,5746 18712,5421 18287,4995 17748,4456 17063,4101 16095,3857 15108,3722 14322,3680 13354,3874 12166,4184 11400,4644 10848,5379 10525,5810 10228,6489 10102,7084 9988,7627 9972,8977 10072,9718 10171,10459 10307,10990 10720,12263 L 10993,13105 14304,13107 C 16125,13107 17754,13119 17925,13134 18195,13156 18250,13170 18357,13245 18618,13429 18673,13683 18673,14700 18673,15716 18618,15972 18358,16154 18257,16225 18191,16244 17956,16266 17801,16281 16349,16294 14728,16294 L 11782,16295 11800,16407 C 11917,17139 11977,19123 11910,20036 11828,21156 11482,22444 10878,23877 10769,24137 10687,24357 10696,24366 10705,24375 10964,24365 11272,24344 11638,24319 12126,24312 12681,24323 14064,24350 14804,24490 16736,25090 18092,25511 19039,25676 19946,25649 20355,25637 20444,25625 20617,25560 21010,25413 21462,25102 22012,24599 22184,24442 22383,24285 22454,24250 22663,24149 22757,24179 23257,24509 24225,25148 25158,25840 25239,25979 25404,26259 25213,26605 24534,27258 23532,28221 22414,28879 21248,29191 20979,29263 20892,29271 20219,29285 19079,29309 18184,29233 17307,29037 16953,28958 16043,28701 15156,28428 14169,28125 13680,28031 12820,27980 11518,27902 9980,28130 8502,28618 8284,28690 7830,28857 7494,28989 7158,29121 6803,29243 6706,29261 6473,29303 5993,29299 5825,29252 L 5825,29252 Z"/>
       </g>
      </g>
     </g>
    </g>
   </g>
  </g>
 </g>
</svg>