<?xml version="1.0" encoding="UTF-8"?>
<!DOCTYPE svg PUBLIC "-//W3C//DTD SVG 1.1//EN" "http://www.w3.org/Graphics/SVG/1.1/DTD/svg11.dtd">
<svg version="1.2" width="293.75mm" height="293.75mm" viewBox="0 0 29375 29375" preserveAspectRatio="xMidYMid" fill-rule="evenodd" stroke-width="28.222" stroke-linejoin="round" xmlns="http://www.w3.org/2000/svg" xmlns:ooo="http://xml.openoffice.org/svg/export" xmlns:xlink="http://www.w3.org/1999/xlink" xmlns:presentation="http://sun.com/xmlns/staroffice/presentation" xmlns:smil="http://www.w3.org/2001/SMIL20/" xmlns:anim="urn:oasis:names:tc:opendocument:xmlns:animation:1.0" xml:space="preserve">
 <defs class="ClipPathGroup">
  <clipPath id="presentation_clip_path" clipPathUnits="userSpaceOnUse">
   <rect x="0" y="0" width="29375" height="29375"/>
  </clipPath>
  <clipPath id="presentation_clip_path_shrink" clipPathUnits="userSpaceOnUse">
   <rect x="29" y="29" width="29317" height="29317"/>
  </clipPath>
 </defs>
 <defs class="TextShapeIndex">
  <g ooo:slide="id1" ooo:id-list="id3"/>
 </defs>
 <defs class="EmbeddedBulletChars">
  <g id="bullet-char-template-57356" transform="scale(0.00048828125,-0.00048828125)">
   <path d="M 580,1141 L 1163,571 580,0 -4,571 580,1141 Z"/>
  </g>
  <g id="bullet-char-template-57354" transform="scale(0.00048828125,-0.00048828125)">
   <path d="M 8,1128 L 1137,1128 1137,0 8,0 8,1128 Z"/>
  </g>
  <g id="bullet-char-template-10146" transform="scale(0.00048828125,-0.00048828125)">
   <path d="M 174,0 L 602,739 174,1481 1456,739 174,0 Z M 1358,739 L 309,1346 659,739 1358,739 Z"/>
  </g>
  <g id="bullet-char-template-10132" transform="scale(0.00048828125,-0.00048828125)">
   <path d="M 2015,739 L 1276,0 717,0 1260,543 174,543 174,936 1260,936 717,1481 1274,1481 2015,739 Z"/>
  </g>
  <g id="bullet-char-template-10007" transform="scale(0.00048828125,-0.00048828125)">
   <path d="M 0,-2 C -7,14 -16,27 -25,37 L 356,567 C 262,823 215,952 215,954 215,979 228,992 255,992 264,992 276,990 289,987 310,991 331,999 354,1012 L 381,999 492,748 772,1049 836,1024 860,1049 C 881,1039 901,1025 922,1006 886,937 835,863 770,784 769,783 710,716 594,584 L 774,223 C 774,196 753,168 711,139 L 727,119 C 717,90 699,76 672,76 641,76 570,178 457,381 L 164,-76 C 142,-110 111,-127 72,-127 30,-127 9,-110 8,-76 1,-67 -2,-52 -2,-32 -2,-23 -1,-13 0,-2 Z"/>
  </g>
  <g id="bullet-char-template-10004" transform="scale(0.00048828125,-0.00048828125)">
   <path d="M 285,-33 C 182,-33 111,30 74,156 52,228 41,333 41,471 41,549 55,616 82,672 116,743 169,778 240,778 293,778 328,747 346,684 L 369,508 C 377,444 397,411 428,410 L 1163,1116 C 1174,1127 1196,1133 1229,1133 1271,1133 1292,1118 1292,1087 L 1292,965 C 1292,929 1282,901 1262,881 L 442,47 C 390,-6 338,-33 285,-33 Z"/>
  </g>
  <g id="bullet-char-template-9679" transform="scale(0.00048828125,-0.00048828125)">
   <path d="M 813,0 C 632,0 489,54 383,161 276,268 223,411 223,592 223,773 276,916 383,1023 489,1130 632,1184 813,1184 992,1184 1136,1130 1245,1023 1353,916 1407,772 1407,592 1407,412 1353,268 1245,161 1136,54 992,0 813,0 Z"/>
  </g>
  <g id="bullet-char-template-8226" transform="scale(0.00048828125,-0.00048828125)">
   <path d="M 346,457 C 273,457 209,483 155,535 101,586 74,649 74,723 74,796 101,859 155,911 209,963 273,989 346,989 419,989 480,963 531,910 582,859 608,796 608,723 608,648 583,586 532,535 482,483 420,457 346,457 Z"/>
  </g>
  <g id="bullet-char-template-8211" transform="scale(0.00048828125,-0.00048828125)">
   <path d="M -4,459 L 1135,459 1135,606 -4,606 -4,459 Z"/>
  </g>
  <g id="bullet-char-template-61548" transform="scale(0.00048828125,-0.00048828125)">
   <path d="M 173,740 C 173,903 231,1043 346,1159 462,1274 601,1332 765,1332 928,1332 1067,1274 1183,1159 1299,1043 1357,903 1357,740 1357,577 1299,437 1183,322 1067,206 928,148 765,148 601,148 462,206 346,322 231,437 173,577 173,740 Z"/>
  </g>
 </defs>
 <defs class="TextEmbeddedBitmaps"/>
 <g>
  <g id="id2" class="Master_Slide">
   <g id="bg-id2" class="Background"/>
   <g id="bo-id2" class="BackgroundObjects"/>
  </g>
 </g>
 <g class="SlideGroup">
  <g>
   <g id="container-id1">
    <g id="id1" class="Slide" clip-path="url(#presentation_clip_path)">
     <g class="Page">
      <g class="Graphic">
       <g id="id3">
        <rect class="BoundingBox" stroke="none" fill="none" x="-13" y="-13" width="29401" height="29401"/>
        <path fill="rgb(0,0,0)" stroke="none" d="M 27048,5312 C 26402,8138 25576,9953 23761,9953 21945,9953 21039,7963 20473,5312 19941,2816 21865,1460 23680,1460 25496,1460 27617,2825 27048,5312 L 27048,5312 Z"/>
        <path fill="rgb(0,0,0)" stroke="none" d="M 23610,11180 C 21918,11164 20295,11830 18548,13200 18412,13286 18330,13520 18284,13851 18238,14182 18229,14612 18245,15093 L 18245,15100 18251,15102 C 19885,15639 20987,16179 21676,16952 L 21692,16942 21676,16952 C 7250,25218 14454,21090 21676,16952 21676,16952 21676,16952 21676,16952 21676,16953 21677,16954 21678,16955 22367,17730 22641,18741 22618,20223 L 22618,20233 28779,20178 28780,20170 C 29238,16974 29317,15245 29280,14313 29262,13848 29216,13582 29173,13432 29152,13357 29131,13310 29116,13283 29109,13269 29103,13260 29098,13254 29093,13248 29090,13245 29090,13245 L 29090,13245 29089,13244 C 27063,11893 25302,11196 23610,11180 L 23610,11180 Z"/>
        <path fill="rgb(0,0,0)" stroke="none" d="M 8897,5492 C 8250,8318 7425,10132 5609,10132 3794,10132 2887,8143 2322,5492 1789,2995 3713,1640 5528,1640 7344,1640 9466,3005 8897,5492 L 8897,5492 Z"/>
        <path fill="rgb(0,0,0)" stroke="none" d="M 5673,11109 C 4026,11057 2379,11770 396,13380 396,13380 396,13381 396,13381 288,13449 215,13611 166,13840 117,14070 93,14368 87,14711 76,15397 140,16262 230,17110 409,18807 692,20438 692,20438 L 694,20447 702,20446 C 1079,20405 2272,20393 3369,20391 4466,20390 5468,20399 5468,20399 L 5479,20399 5477,20388 C 5226,18854 5886,17666 6985,16745 8084,15825 9621,15174 11122,14720 L 11129,14718 11129,14711 C 11118,14161 11071,13840 11027,13657 11005,13565 10983,13508 10967,13473 10951,13439 10939,13426 10939,13426 L 10939,13425 10938,13425 C 8963,11978 7320,11161 5673,11109 L 5673,11109 Z"/>
        <path fill="rgb(0,0,0)" stroke="none" d="M 14352,13983 C 11931,13983 10723,11330 9968,7795 9258,4466 11824,2658 14245,2658 16666,2658 19495,4478 18736,7795 17875,11563 16774,13983 14352,13983 Z"/>
        <path fill="rgb(0,0,0)" stroke="none" d="M 14463,15610 C 11738,15587 9089,16808 7748,18958 L 7747,18958 7747,18959 C 6874,20665 6870,22851 7084,24612 7298,26372 7729,27706 7729,27706 L 7732,27715 7742,27715 21025,27740 21026,27729 C 21638,23466 21477,21053 21162,19704 21005,19029 20809,18621 20653,18381 20574,18261 20505,18182 20456,18134 20408,18088 20380,18071 20378,18069 18748,16398 16583,15628 14463,15610 L 14463,15610 Z"/>
       </g>
      </g>
     </g>
    </g>
   </g>
  </g>
 </g>
</svg>