<?xml version="1.0" encoding="UTF-8"?>
<!DOCTYPE svg PUBLIC "-//W3C//DTD SVG 1.1//EN" "http://www.w3.org/Graphics/SVG/1.1/DTD/svg11.dtd">
<svg version="1.2" width="293.75mm" height="293.75mm" viewBox="0 0 29375 29375" preserveAspectRatio="xMidYMid" fill-rule="evenodd" stroke-width="28.222" stroke-linejoin="round" xmlns="http://www.w3.org/2000/svg" xmlns:ooo="http://xml.openoffice.org/svg/export" xmlns:xlink="http://www.w3.org/1999/xlink" xmlns:presentation="http://sun.com/xmlns/staroffice/presentation" xmlns:smil="http://www.w3.org/2001/SMIL20/" xmlns:anim="urn:oasis:names:tc:opendocument:xmlns:animation:1.0" xml:space="preserve">
 <defs class="ClipPathGroup">
  <clipPath id="presentation_clip_path" clipPathUnits="userSpaceOnUse">
   <rect x="0" y="0" width="29375" height="29375"/>
  </clipPath>
  <clipPath id="presentation_clip_path_shrink" clipPathUnits="userSpaceOnUse">
   <rect x="29" y="29" width="29317" height="29317"/>
  </clipPath>
 </defs>
 <defs class="TextShapeIndex">
  <g ooo:slide="id1" ooo:id-list="id3"/>
 </defs>
 <defs class="EmbeddedBulletChars">
  <g id="bullet-char-template-57356" transform="scale(0.00048828125,-0.00048828125)">
   <path d="M 580,1141 L 1163,571 580,0 -4,571 580,1141 Z"/>
  </g>
  <g id="bullet-char-template-57354" transform="scale(0.00048828125,-0.00048828125)">
   <path d="M 8,1128 L 1137,1128 1137,0 8,0 8,1128 Z"/>
  </g>
  <g id="bullet-char-template-10146" transform="scale(0.00048828125,-0.00048828125)">
   <path d="M 174,0 L 602,739 174,1481 1456,739 174,0 Z M 1358,739 L 309,1346 659,739 1358,739 Z"/>
  </g>
  <g id="bullet-char-template-10132" transform="scale(0.00048828125,-0.00048828125)">
   <path d="M 2015,739 L 1276,0 717,0 1260,543 174,543 174,936 1260,936 717,1481 1274,1481 2015,739 Z"/>
  </g>
  <g id="bullet-char-template-10007" transform="scale(0.00048828125,-0.00048828125)">
   <path d="M 0,-2 C -7,14 -16,27 -25,37 L 356,567 C 262,823 215,952 215,954 215,979 228,992 255,992 264,992 276,990 289,987 310,991 331,999 354,1012 L 381,999 492,748 772,1049 836,1024 860,1049 C 881,1039 901,1025 922,1006 886,937 835,863 770,784 769,783 710,716 594,584 L 774,223 C 774,196 753,168 711,139 L 727,119 C 717,90 699,76 672,76 641,76 570,178 457,381 L 164,-76 C 142,-110 111,-127 72,-127 30,-127 9,-110 8,-76 1,-67 -2,-52 -2,-32 -2,-23 -1,-13 0,-2 Z"/>
  </g>
  <g id="bullet-char-template-10004" transform="scale(0.00048828125,-0.00048828125)">
   <path d="M 285,-33 C 182,-33 111,30 74,156 52,228 41,333 41,471 41,549 55,616 82,672 116,743 169,778 240,778 293,778 328,747 346,684 L 369,508 C 377,444 397,411 428,410 L 1163,1116 C 1174,1127 1196,1133 1229,1133 1271,1133 1292,1118 1292,1087 L 1292,965 C 1292,929 1282,901 1262,881 L 442,47 C 390,-6 338,-33 285,-33 Z"/>
  </g>
  <g id="bullet-char-template-9679" transform="scale(0.00048828125,-0.00048828125)">
   <path d="M 813,0 C 632,0 489,54 383,161 276,268 223,411 223,592 223,773 276,916 383,1023 489,1130 632,1184 813,1184 992,1184 1136,1130 1245,1023 1353,916 1407,772 1407,592 1407,412 1353,268 1245,161 1136,54 992,0 813,0 Z"/>
  </g>
  <g id="bullet-char-template-8226" transform="scale(0.00048828125,-0.00048828125)">
   <path d="M 346,457 C 273,457 209,483 155,535 101,586 74,649 74,723 74,796 101,859 155,911 209,963 273,989 346,989 419,989 480,963 531,910 582,859 608,796 608,723 608,648 583,586 532,535 482,483 420,457 346,457 Z"/>
  </g>
  <g id="bullet-char-template-8211" transform="scale(0.00048828125,-0.00048828125)">
   <path d="M -4,459 L 1135,459 1135,606 -4,606 -4,459 Z"/>
  </g>
  <g id="bullet-char-template-61548" transform="scale(0.00048828125,-0.00048828125)">
   <path d="M 173,740 C 173,903 231,1043 346,1159 462,1274 601,1332 765,1332 928,1332 1067,1274 1183,1159 1299,1043 1357,903 1357,740 1357,577 1299,437 1183,322 1067,206 928,148 765,148 601,148 462,206 346,322 231,437 173,577 173,740 Z"/>
  </g>
 </defs>
 <defs class="TextEmbeddedBitmaps"/>
 <g>
  <g id="id2" class="Master_Slide">
   <g id="bg-id2" class="Background"/>
   <g id="bo-id2" class="BackgroundObjects"/>
  </g>
 </g>
 <g class="SlideGroup">
  <g>
   <g id="container-id1">
    <g id="id1" class="Slide" clip-path="url(#presentation_clip_path)">
     <g class="Page">
      <g class="Graphic">
       <g id="id3">
        <rect class="BoundingBox" stroke="none" fill="none" x="-13" y="-13" width="29401" height="29401"/>
        <defs>
         <clipPath id="clip_path_1" clipPathUnits="userSpaceOnUse">
          <path d="M -13,-13 L 29387,-13 29387,29387 -13,29387 -13,-13 Z"/>
         </clipPath>
        </defs>
        <g clip-path="url(#clip_path_1)">
         <path fill="rgb(0,0,0)" stroke="none" d="M 14731,1820 C 14378,1803 14045,1985 13868,2291 L 6984,14214 101,26136 C -264,26767 192,27556 920,27556 L 14687,27556 28454,27556 C 29182,27556 29637,26767 29273,26136 L 22390,14214 15506,2291 C 15345,2012 15053,1835 14731,1820 Z M 14665,8018 C 14673,8018 14679,8018 14687,8018 14731,8018 14768,8019 14812,8023 14864,8027 14908,8033 14959,8043 15010,8052 15052,8063 15102,8077 15152,8092 15194,8106 15242,8126 15290,8145 15330,8164 15376,8188 15393,8197 15408,8205 15426,8216 15453,8231 15476,8246 15503,8263 15546,8292 15581,8318 15622,8351 15662,8384 15694,8413 15731,8450 15768,8487 15797,8519 15830,8559 15863,8600 15889,8635 15918,8678 15936,8705 15950,8728 15966,8756 15976,8773 15984,8788 15993,8805 16018,8851 16036,8891 16056,8939 16075,8987 16090,9029 16105,9078 16119,9128 16129,9171 16139,9222 16149,9273 16155,9317 16159,9368 16163,9413 16165,9451 16165,9495 16165,9502 16165,9509 16164,9516 L 16164,17383 C 16165,17391 16165,17398 16165,17405 16165,17435 16164,17460 16162,17490 16159,17542 16155,17585 16146,17637 16138,17688 16129,17731 16116,17781 16103,17832 16090,17873 16072,17922 16053,17971 16036,18011 16013,18058 15998,18089 15984,18115 15966,18145 15958,18160 15950,18172 15941,18187 15914,18231 15889,18267 15857,18308 15825,18349 15797,18383 15761,18420 15726,18458 15694,18489 15655,18523 15615,18557 15581,18584 15538,18614 15500,18641 15467,18662 15426,18686 15422,18688 15418,18690 15413,18693 15368,18718 15329,18738 15281,18759 15234,18780 15193,18795 15143,18811 15094,18827 15051,18839 15001,18850 14950,18861 14907,18868 14855,18874 14803,18880 14760,18883 14708,18883 14700,18883 14694,18884 14687,18884 14642,18884 14604,18882 14560,18878 14508,18874 14465,18868 14414,18858 14363,18848 14320,18838 14270,18824 14220,18809 14179,18794 14131,18775 14083,18755 14043,18737 13997,18712 13980,18703 13965,18695 13948,18686 13920,18669 13897,18655 13870,18637 13827,18608 13791,18582 13751,18549 13711,18516 13678,18487 13642,18450 13605,18413 13575,18381 13542,18341 13510,18300 13484,18265 13455,18222 13437,18195 13423,18172 13407,18145 13397,18127 13389,18112 13380,18095 13355,18049 13337,18009 13317,17961 13298,17912 13284,17871 13269,17821 13254,17771 13244,17728 13235,17677 13225,17626 13219,17583 13215,17531 13211,17487 13209,17450 13209,17406 13209,17398 13209,17391 13210,17383 L 13210,9516 C 13209,9509 13209,9502 13209,9495 13209,9466 13210,9442 13212,9413 13215,9361 13219,9317 13227,9266 13235,9215 13244,9172 13258,9121 13271,9071 13284,9029 13302,8980 13320,8932 13337,8891 13360,8845 13376,8813 13390,8787 13407,8757 13416,8742 13423,8730 13432,8716 13459,8671 13484,8635 13516,8594 13548,8553 13576,8520 13612,8482 13647,8444 13679,8414 13718,8379 13758,8345 13792,8318 13835,8288 13874,8261 13907,8239 13949,8215 13952,8213 13956,8211 13959,8209 14004,8184 14044,8164 14091,8143 14139,8122 14180,8106 14229,8090 14279,8074 14321,8063 14372,8052 14423,8041 14466,8033 14518,8027 14569,8021 14613,8019 14665,8018 Z M 14851,21026 C 14908,21031 14956,21039 15013,21050 15070,21062 15117,21074 15172,21091 15227,21108 15273,21125 15326,21147 15379,21169 15423,21191 15474,21218 15486,21225 15495,21230 15507,21237 15545,21259 15577,21279 15614,21304 15661,21337 15700,21366 15744,21403 15788,21440 15824,21474 15864,21515 15904,21556 15937,21593 15972,21638 16008,21684 16037,21723 16068,21772 16082,21795 16094,21814 16108,21838 16123,21864 16136,21887 16149,21914 16176,21965 16195,22010 16216,22064 16237,22118 16253,22164 16268,22219 16284,22275 16294,22323 16304,22379 16314,22436 16320,22485 16324,22542 16327,22583 16328,22618 16328,22658 16328,22716 16325,22765 16320,22822 16314,22880 16307,22928 16295,22984 16284,23041 16272,23088 16255,23143 16238,23198 16221,23244 16198,23297 16176,23350 16155,23394 16127,23445 16120,23457 16115,23467 16108,23479 16086,23517 16066,23549 16041,23585 16009,23633 15979,23671 15942,23715 15905,23760 15872,23795 15830,23835 15789,23876 15752,23908 15707,23944 15662,23980 15622,24008 15574,24039 15551,24054 15531,24066 15508,24079 15481,24095 15459,24107 15431,24121 15380,24147 15335,24167 15282,24188 15228,24209 15182,24224 15126,24239 15070,24255 15023,24266 14966,24275 14909,24285 14861,24291 14803,24295 14762,24298 14728,24299 14687,24299 14629,24299 14581,24297 14523,24291 14466,24285 14418,24278 14361,24267 14304,24255 14257,24243 14202,24226 14147,24209 14101,24192 14048,24170 13995,24147 13951,24126 13900,24098 13888,24092 13878,24086 13866,24079 13828,24057 13797,24038 13760,24013 13713,23980 13674,23951 13630,23913 13586,23876 13550,23843 13510,23802 13470,23760 13438,23724 13402,23678 13366,23633 13337,23593 13306,23545 13291,23522 13279,23502 13266,23479 13251,23452 13238,23430 13225,23403 13198,23351 13179,23307 13158,23253 13137,23199 13121,23153 13106,23097 13090,23042 13080,22994 13070,22937 13060,22880 13054,22832 13050,22774 13047,22734 13046,22699 13046,22658 13046,22601 13049,22552 13054,22495 13060,22437 13067,22389 13079,22332 13090,22276 13102,22229 13119,22173 13136,22118 13153,22073 13176,22019 13198,21966 13219,21922 13247,21872 13253,21860 13259,21850 13266,21838 13288,21800 13308,21768 13333,21732 13365,21684 13395,21645 13432,21601 13469,21557 13502,21521 13544,21481 13585,21441 13622,21409 13667,21373 13712,21337 13752,21309 13800,21278 13823,21263 13843,21251 13866,21237 13893,21222 13915,21210 13943,21196 13994,21170 14039,21150 14092,21129 14146,21108 14192,21093 14248,21077 14304,21062 14351,21051 14408,21041 14465,21032 14513,21026 14571,21022 14612,21019 14646,21017 14687,21017 14745,21017 14793,21020 14851,21026 Z"/>
        </g>
       </g>
      </g>
     </g>
    </g>
   </g>
  </g>
 </g>
</svg>