<?xml version="1.0" encoding="UTF-8"?>
<!DOCTYPE svg PUBLIC "-//W3C//DTD SVG 1.1//EN" "http://www.w3.org/Graphics/SVG/1.1/DTD/svg11.dtd">
<svg version="1.2" width="293.75mm" height="293.75mm" viewBox="0 0 29375 29375" preserveAspectRatio="xMidYMid" fill-rule="evenodd" stroke-width="28.222" stroke-linejoin="round" xmlns="http://www.w3.org/2000/svg" xmlns:ooo="http://xml.openoffice.org/svg/export" xmlns:xlink="http://www.w3.org/1999/xlink" xmlns:presentation="http://sun.com/xmlns/staroffice/presentation" xmlns:smil="http://www.w3.org/2001/SMIL20/" xmlns:anim="urn:oasis:names:tc:opendocument:xmlns:animation:1.0" xml:space="preserve">
 <defs class="ClipPathGroup">
  <clipPath id="presentation_clip_path" clipPathUnits="userSpaceOnUse">
   <rect x="0" y="0" width="29375" height="29375"/>
  </clipPath>
  <clipPath id="presentation_clip_path_shrink" clipPathUnits="userSpaceOnUse">
   <rect x="29" y="29" width="29317" height="29317"/>
  </clipPath>
 </defs>
 <defs class="TextShapeIndex">
  <g ooo:slide="id1" ooo:id-list="id3"/>
 </defs>
 <defs class="EmbeddedBulletChars">
  <g id="bullet-char-template-57356" transform="scale(0.00048828125,-0.00048828125)">
   <path d="M 580,1141 L 1163,571 580,0 -4,571 580,1141 Z"/>
  </g>
  <g id="bullet-char-template-57354" transform="scale(0.00048828125,-0.00048828125)">
   <path d="M 8,1128 L 1137,1128 1137,0 8,0 8,1128 Z"/>
  </g>
  <g id="bullet-char-template-10146" transform="scale(0.00048828125,-0.00048828125)">
   <path d="M 174,0 L 602,739 174,1481 1456,739 174,0 Z M 1358,739 L 309,1346 659,739 1358,739 Z"/>
  </g>
  <g id="bullet-char-template-10132" transform="scale(0.00048828125,-0.00048828125)">
   <path d="M 2015,739 L 1276,0 717,0 1260,543 174,543 174,936 1260,936 717,1481 1274,1481 2015,739 Z"/>
  </g>
  <g id="bullet-char-template-10007" transform="scale(0.00048828125,-0.00048828125)">
   <path d="M 0,-2 C -7,14 -16,27 -25,37 L 356,567 C 262,823 215,952 215,954 215,979 228,992 255,992 264,992 276,990 289,987 310,991 331,999 354,1012 L 381,999 492,748 772,1049 836,1024 860,1049 C 881,1039 901,1025 922,1006 886,937 835,863 770,784 769,783 710,716 594,584 L 774,223 C 774,196 753,168 711,139 L 727,119 C 717,90 699,76 672,76 641,76 570,178 457,381 L 164,-76 C 142,-110 111,-127 72,-127 30,-127 9,-110 8,-76 1,-67 -2,-52 -2,-32 -2,-23 -1,-13 0,-2 Z"/>
  </g>
  <g id="bullet-char-template-10004" transform="scale(0.00048828125,-0.00048828125)">
   <path d="M 285,-33 C 182,-33 111,30 74,156 52,228 41,333 41,471 41,549 55,616 82,672 116,743 169,778 240,778 293,778 328,747 346,684 L 369,508 C 377,444 397,411 428,410 L 1163,1116 C 1174,1127 1196,1133 1229,1133 1271,1133 1292,1118 1292,1087 L 1292,965 C 1292,929 1282,901 1262,881 L 442,47 C 390,-6 338,-33 285,-33 Z"/>
  </g>
  <g id="bullet-char-template-9679" transform="scale(0.00048828125,-0.00048828125)">
   <path d="M 813,0 C 632,0 489,54 383,161 276,268 223,411 223,592 223,773 276,916 383,1023 489,1130 632,1184 813,1184 992,1184 1136,1130 1245,1023 1353,916 1407,772 1407,592 1407,412 1353,268 1245,161 1136,54 992,0 813,0 Z"/>
  </g>
  <g id="bullet-char-template-8226" transform="scale(0.00048828125,-0.00048828125)">
   <path d="M 346,457 C 273,457 209,483 155,535 101,586 74,649 74,723 74,796 101,859 155,911 209,963 273,989 346,989 419,989 480,963 531,910 582,859 608,796 608,723 608,648 583,586 532,535 482,483 420,457 346,457 Z"/>
  </g>
  <g id="bullet-char-template-8211" transform="scale(0.00048828125,-0.00048828125)">
   <path d="M -4,459 L 1135,459 1135,606 -4,606 -4,459 Z"/>
  </g>
  <g id="bullet-char-template-61548" transform="scale(0.00048828125,-0.00048828125)">
   <path d="M 173,740 C 173,903 231,1043 346,1159 462,1274 601,1332 765,1332 928,1332 1067,1274 1183,1159 1299,1043 1357,903 1357,740 1357,577 1299,437 1183,322 1067,206 928,148 765,148 601,148 462,206 346,322 231,437 173,577 173,740 Z"/>
  </g>
 </defs>
 <defs class="TextEmbeddedBitmaps"/>
 <g>
  <g id="id2" class="Master_Slide">
   <g id="bg-id2" class="Background"/>
   <g id="bo-id2" class="BackgroundObjects"/>
  </g>
 </g>
 <g class="SlideGroup">
  <g>
   <g id="container-id1">
    <g id="id1" class="Slide" clip-path="url(#presentation_clip_path)">
     <g class="Page">
      <g class="Graphic">
       <g id="id3">
        <rect class="BoundingBox" stroke="none" fill="none" x="-13" y="-13" width="29401" height="29401"/>
        <path fill="rgb(0,0,0)" stroke="none" d="M 14687,72 L 14687,72 C 11996,72 9710,685 7379,2030 5049,3375 3375,5049 2030,7379 685,9710 72,11996 72,14687 L 72,14687 72,14687 C 72,17378 685,19665 2030,21995 3375,24325 5049,25999 7379,27344 9710,28689 11996,29302 14687,29302 L 14687,29302 C 17378,29302 19665,28689 21995,27344 24325,25999 25999,24325 27344,21995 28689,19665 29302,17378 29302,14687 L 29302,14687 C 29302,11996 28689,9710 27344,7379 25999,5049 24325,3375 21995,2030 19665,685 17378,72 14687,72 L 14687,72 14687,72 Z M 14687,3935 C 14745,3935 14794,3937 14852,3942 14921,3948 14978,3956 15046,3968 15113,3981 15170,3994 15235,4014 15301,4033 15356,4052 15420,4078 15483,4104 15536,4128 15597,4160 15620,4172 15640,4183 15663,4196 15699,4217 15729,4236 15764,4259 15822,4297 15868,4332 15921,4375 15975,4418 16018,4457 16066,4506 16115,4554 16154,4597 16197,4650 16241,4704 16275,4750 16313,4807 16337,4843 16356,4874 16377,4911 16390,4933 16400,4952 16413,4975 16445,5036 16469,5088 16495,5152 16521,5216 16540,5270 16559,5336 16579,5402 16592,5458 16605,5526 16618,5593 16625,5651 16631,5719 16636,5778 16638,5827 16638,5886 16638,5896 16638,5904 16638,5914 L 16638,16305 C 16638,16315 16638,16324 16638,16335 16638,16374 16638,16407 16635,16445 16631,16514 16625,16572 16615,16639 16604,16707 16592,16764 16575,16830 16557,16897 16540,16952 16516,17016 16492,17081 16469,17134 16438,17196 16418,17237 16400,17271 16377,17311 16366,17330 16356,17347 16344,17366 16307,17424 16274,17472 16232,17526 16191,17581 16153,17625 16106,17675 16059,17724 16017,17765 15965,17810 15913,17854 15867,17890 15811,17930 15761,17966 15716,17994 15663,18025 15657,18028 15652,18031 15646,18034 15587,18068 15535,18094 15472,18121 15409,18149 15355,18170 15290,18191 15224,18212 15168,18227 15101,18242 15034,18256 14977,18266 14909,18273 14841,18281 14783,18285 14714,18286 14705,18286 14697,18286 14687,18286 14628,18286 14578,18284 14519,18279 14451,18273 14393,18265 14326,18252 14259,18240 14202,18226 14136,18207 14071,18187 14016,18168 13952,18143 13889,18117 13836,18092 13775,18060 13753,18048 13734,18038 13711,18025 13674,18003 13643,17984 13608,17960 13551,17923 13504,17888 13451,17845 13398,17801 13355,17762 13306,17714 13258,17665 13219,17622 13175,17569 13132,17516 13098,17469 13060,17412 13037,17377 13018,17347 12997,17310 12983,17287 12973,17267 12960,17244 12928,17183 12904,17131 12878,17067 12852,17004 12833,16949 12814,16883 12795,16817 12781,16761 12769,16693 12756,16626 12748,16568 12742,16500 12738,16442 12735,16393 12735,16335 12735,16324 12736,16315 12736,16305 L 12736,5914 C 12736,5904 12735,5896 12735,5886 12735,5848 12736,5816 12739,5778 12742,5709 12748,5651 12759,5584 12770,5516 12782,5459 12799,5393 12816,5326 12834,5271 12858,5207 12882,5142 12905,5089 12935,5027 12955,4986 12974,4951 12997,4911 13008,4892 13018,4876 13029,4857 13065,4799 13098,4751 13140,4697 13182,4642 13220,4598 13267,4548 13314,4498 13356,4458 13408,4413 13459,4368 13505,4332 13561,4293 13612,4256 13657,4228 13711,4197 13716,4194 13721,4191 13726,4188 13786,4154 13837,4128 13900,4101 13963,4073 14017,4052 14082,4031 14148,4010 14204,3995 14271,3980 14338,3965 14395,3956 14463,3948 14531,3940 14589,3936 14658,3935 14668,3935 14677,3935 14687,3935 Z M 14687,21105 C 14687,21105 14687,21105 14687,21105 14763,21105 14828,21108 14903,21115 14979,21123 15043,21133 15118,21148 15192,21163 15255,21179 15327,21201 15400,21224 15461,21246 15531,21276 15601,21305 15659,21333 15726,21370 15742,21378 15755,21386 15770,21395 15821,21424 15863,21450 15911,21483 15974,21526 16025,21565 16083,21614 16141,21663 16189,21707 16242,21762 16295,21816 16337,21865 16385,21925 16432,21984 16469,22037 16511,22101 16530,22131 16546,22157 16564,22188 16584,22223 16600,22253 16618,22289 16653,22357 16679,22415 16707,22486 16735,22557 16755,22619 16775,22692 16796,22765 16810,22828 16823,22903 16836,22978 16843,23042 16849,23118 16853,23172 16854,23218 16854,23272 16854,23272 16854,23272 16854,23272 16854,23272 16854,23272 16854,23272 16854,23348 16851,23412 16843,23488 16836,23564 16826,23628 16811,23702 16796,23777 16780,23839 16757,23912 16735,23985 16713,24046 16683,24116 16653,24186 16625,24244 16589,24311 16580,24327 16573,24340 16564,24356 16535,24406 16509,24447 16476,24495 16433,24558 16394,24610 16345,24668 16295,24726 16252,24773 16197,24826 16142,24879 16094,24922 16034,24969 15975,25017 15922,25054 15858,25095 15828,25115 15802,25131 15770,25149 15736,25169 15706,25185 15670,25203 15602,25238 15543,25264 15472,25292 15401,25319 15340,25340 15267,25360 15193,25380 15130,25394 15055,25407 14980,25420 14916,25428 14840,25434 14786,25437 14741,25439 14687,25439 14687,25439 14687,25439 14687,25439 14611,25439 14546,25436 14471,25428 14395,25421 14331,25411 14256,25396 14182,25381 14119,25365 14047,25342 13974,25320 13913,25298 13843,25268 13773,25238 13715,25210 13648,25174 13632,25165 13619,25158 13603,25148 13553,25119 13511,25093 13463,25060 13400,25017 13349,24978 13291,24929 13233,24880 13185,24836 13132,24782 13079,24727 13037,24679 12989,24619 12942,24559 12905,24507 12863,24443 12844,24412 12828,24387 12810,24355 12790,24321 12774,24291 12756,24255 12721,24187 12695,24128 12667,24057 12639,23986 12619,23925 12599,23851 12578,23778 12564,23715 12551,23640 12538,23565 12531,23501 12525,23425 12521,23371 12520,23326 12520,23272 12520,23196 12523,23131 12531,23055 12538,22980 12548,22916 12563,22841 12578,22766 12594,22704 12617,22631 12639,22558 12661,22498 12691,22428 12721,22358 12749,22300 12785,22233 12794,22217 12801,22204 12810,22188 12839,22138 12865,22096 12898,22048 12941,21985 12980,21934 13029,21876 13078,21817 13122,21770 13177,21717 13232,21664 13280,21621 13340,21574 13400,21527 13452,21489 13516,21448 13546,21429 13572,21413 13603,21395 13638,21375 13668,21359 13704,21340 13772,21306 13831,21279 13902,21252 13973,21224 14034,21204 14107,21184 14181,21163 14244,21149 14319,21136 14394,21123 14458,21115 14534,21110 14587,21106 14633,21105 14687,21105 14687,21105 14687,21105 14687,21105 Z"/>
       </g>
      </g>
     </g>
    </g>
   </g>
  </g>
 </g>
</svg>