<?xml version="1.0" encoding="UTF-8"?>
<!DOCTYPE svg PUBLIC "-//W3C//DTD SVG 1.1//EN" "http://www.w3.org/Graphics/SVG/1.1/DTD/svg11.dtd">
<svg version="1.2" width="293.75mm" height="293.75mm" viewBox="0 0 29375 29375" preserveAspectRatio="xMidYMid" fill-rule="evenodd" stroke-width="28.222" stroke-linejoin="round" xmlns="http://www.w3.org/2000/svg" xmlns:ooo="http://xml.openoffice.org/svg/export" xmlns:xlink="http://www.w3.org/1999/xlink" xmlns:presentation="http://sun.com/xmlns/staroffice/presentation" xmlns:smil="http://www.w3.org/2001/SMIL20/" xmlns:anim="urn:oasis:names:tc:opendocument:xmlns:animation:1.0" xml:space="preserve">
 <defs class="ClipPathGroup">
  <clipPath id="presentation_clip_path" clipPathUnits="userSpaceOnUse">
   <rect x="0" y="0" width="29375" height="29375"/>
  </clipPath>
  <clipPath id="presentation_clip_path_shrink" clipPathUnits="userSpaceOnUse">
   <rect x="29" y="29" width="29317" height="29317"/>
  </clipPath>
 </defs>
 <defs class="TextShapeIndex">
  <g ooo:slide="id1" ooo:id-list="id3"/>
 </defs>
 <defs class="EmbeddedBulletChars">
  <g id="bullet-char-template-57356" transform="scale(0.00048828125,-0.00048828125)">
   <path d="M 580,1141 L 1163,571 580,0 -4,571 580,1141 Z"/>
  </g>
  <g id="bullet-char-template-57354" transform="scale(0.00048828125,-0.00048828125)">
   <path d="M 8,1128 L 1137,1128 1137,0 8,0 8,1128 Z"/>
  </g>
  <g id="bullet-char-template-10146" transform="scale(0.00048828125,-0.00048828125)">
   <path d="M 174,0 L 602,739 174,1481 1456,739 174,0 Z M 1358,739 L 309,1346 659,739 1358,739 Z"/>
  </g>
  <g id="bullet-char-template-10132" transform="scale(0.00048828125,-0.00048828125)">
   <path d="M 2015,739 L 1276,0 717,0 1260,543 174,543 174,936 1260,936 717,1481 1274,1481 2015,739 Z"/>
  </g>
  <g id="bullet-char-template-10007" transform="scale(0.00048828125,-0.00048828125)">
   <path d="M 0,-2 C -7,14 -16,27 -25,37 L 356,567 C 262,823 215,952 215,954 215,979 228,992 255,992 264,992 276,990 289,987 310,991 331,999 354,1012 L 381,999 492,748 772,1049 836,1024 860,1049 C 881,1039 901,1025 922,1006 886,937 835,863 770,784 769,783 710,716 594,584 L 774,223 C 774,196 753,168 711,139 L 727,119 C 717,90 699,76 672,76 641,76 570,178 457,381 L 164,-76 C 142,-110 111,-127 72,-127 30,-127 9,-110 8,-76 1,-67 -2,-52 -2,-32 -2,-23 -1,-13 0,-2 Z"/>
  </g>
  <g id="bullet-char-template-10004" transform="scale(0.00048828125,-0.00048828125)">
   <path d="M 285,-33 C 182,-33 111,30 74,156 52,228 41,333 41,471 41,549 55,616 82,672 116,743 169,778 240,778 293,778 328,747 346,684 L 369,508 C 377,444 397,411 428,410 L 1163,1116 C 1174,1127 1196,1133 1229,1133 1271,1133 1292,1118 1292,1087 L 1292,965 C 1292,929 1282,901 1262,881 L 442,47 C 390,-6 338,-33 285,-33 Z"/>
  </g>
  <g id="bullet-char-template-9679" transform="scale(0.00048828125,-0.00048828125)">
   <path d="M 813,0 C 632,0 489,54 383,161 276,268 223,411 223,592 223,773 276,916 383,1023 489,1130 632,1184 813,1184 992,1184 1136,1130 1245,1023 1353,916 1407,772 1407,592 1407,412 1353,268 1245,161 1136,54 992,0 813,0 Z"/>
  </g>
  <g id="bullet-char-template-8226" transform="scale(0.00048828125,-0.00048828125)">
   <path d="M 346,457 C 273,457 209,483 155,535 101,586 74,649 74,723 74,796 101,859 155,911 209,963 273,989 346,989 419,989 480,963 531,910 582,859 608,796 608,723 608,648 583,586 532,535 482,483 420,457 346,457 Z"/>
  </g>
  <g id="bullet-char-template-8211" transform="scale(0.00048828125,-0.00048828125)">
   <path d="M -4,459 L 1135,459 1135,606 -4,606 -4,459 Z"/>
  </g>
  <g id="bullet-char-template-61548" transform="scale(0.00048828125,-0.00048828125)">
   <path d="M 173,740 C 173,903 231,1043 346,1159 462,1274 601,1332 765,1332 928,1332 1067,1274 1183,1159 1299,1043 1357,903 1357,740 1357,577 1299,437 1183,322 1067,206 928,148 765,148 601,148 462,206 346,322 231,437 173,577 173,740 Z"/>
  </g>
 </defs>
 <defs class="TextEmbeddedBitmaps"/>
 <g>
  <g id="id2" class="Master_Slide">
   <g id="bg-id2" class="Background"/>
   <g id="bo-id2" class="BackgroundObjects"/>
  </g>
 </g>
 <g class="SlideGroup">
  <g>
   <g id="container-id1">
    <g id="id1" class="Slide" clip-path="url(#presentation_clip_path)">
     <g class="Page">
      <g class="Graphic">
       <g id="id3">
        <rect class="BoundingBox" stroke="none" fill="none" x="-13" y="-13" width="29401" height="29401"/>
        <path fill="rgb(0,0,0)" stroke="none" d="M 7379,2030 C 5049,3375 3375,5049 2030,7379 685,9710 72,11996 72,14687 L 72,14687 C 72,17378 685,19665 2030,21995 3375,24325 5049,25999 7379,27344 9710,28689 11996,29302 14687,29302 L 14687,29302 C 17378,29302 19665,28689 21995,27344 24325,25999 25999,24325 27344,21995 28689,19665 29302,17378 29302,14687 L 29302,14687 C 29302,11996 28689,9710 27344,7379 25999,5049 24325,3375 21995,2030 19665,685 17378,72 14687,72 L 14687,72 C 11996,72 9710,685 7379,2030 Z M 14687,2919 C 15101,2919 15450,2937 15862,2978 16273,3019 16619,3072 17025,3154 17430,3236 17769,3323 18165,3445 18560,3567 18888,3687 19270,3848 19651,4009 19966,4162 20329,4360 20414,4407 20486,4447 20571,4496 20845,4654 21071,4796 21332,4975 21673,5208 21951,5420 22268,5687 22584,5953 22840,6192 23129,6488 23417,6785 23648,7048 23905,7372 24162,7696 24366,7981 24589,8329 24695,8493 24780,8634 24878,8803 24987,8993 25075,9155 25174,9349 25362,9718 25505,10037 25655,10423 25805,10809 25915,11141 26026,11539 26136,11938 26213,12279 26283,12687 26354,13095 26396,13442 26425,13855 26446,14147 26455,14394 26455,14687 26455,14687 26455,14687 26455,14687 26455,14687 26455,14687 26455,14687 26455,15101 26437,15450 26396,15862 26355,16273 26302,16619 26220,17025 26138,17430 26051,17769 25929,18165 25807,18560 25687,18888 25526,19270 25365,19651 25212,19966 25014,20329 24967,20414 24927,20486 24878,20571 24720,20845 24578,21071 24399,21332 24166,21673 23954,21951 23687,22268 23421,22584 23182,22840 22886,23129 22589,23417 22326,23648 22002,23905 21678,24162 21393,24366 21045,24589 20881,24695 20740,24780 20571,24878 20382,24987 20219,25075 20025,25174 19656,25362 19337,25505 18951,25655 18565,25805 18233,25915 17835,26026 17436,26136 17095,26213 16687,26283 16279,26354 15932,26396 15519,26425 15227,26446 14980,26455 14687,26455 14687,26455 14687,26455 14687,26455 14687,26455 14687,26455 14687,26455 14273,26455 13924,26437 13512,26396 13101,26355 12755,26302 12349,26220 11944,26138 11605,26051 11209,25929 10814,25807 10486,25687 10104,25526 9723,25365 9408,25212 9045,25014 8960,24967 8888,24927 8803,24878 8529,24720 8303,24578 8043,24399 7701,24166 7423,23954 7106,23687 6790,23421 6534,23182 6245,22886 5957,22589 5726,22326 5469,22002 5212,21678 5008,21393 4785,21045 4679,20881 4593,20740 4496,20570 4387,20381 4299,20219 4200,20025 4012,19656 3869,19337 3719,18951 3569,18565 3459,18233 3348,17835 3238,17436 3161,17095 3091,16687 3020,16279 2978,15932 2949,15519 2928,15227 2919,14980 2919,14687 2919,14687 2919,14687 2919,14687 2919,14687 2919,14687 2919,14687 2919,14273 2937,13924 2978,13512 3019,13101 3072,12755 3154,12349 3236,11944 3323,11605 3445,11209 3567,10814 3687,10486 3848,10104 4009,9723 4162,9408 4360,9045 4407,8960 4447,8888 4496,8803 4654,8529 4796,8303 4975,8043 5208,7701 5420,7423 5687,7106 5953,6790 6192,6534 6488,6245 6785,5957 7048,5726 7372,5469 7696,5212 7981,5008 8329,4785 8494,4679 8635,4593 8804,4496 8993,4386 9155,4299 9349,4200 9718,4012 10037,3869 10423,3719 10809,3569 11141,3459 11539,3348 11938,3238 12279,3161 12687,3091 13095,3020 13442,2978 13855,2949 14147,2928 14394,2919 14687,2919 14687,2919 14687,2919 14687,2919 14687,2919 14687,2919 14687,2919 Z"/>
        <path fill="rgb(0,0,0)" stroke="none" d="M 16526,21971 C 16526,22309 16449,22597 16279,22890 16110,23183 15900,23394 15606,23563 15313,23733 15026,23810 14687,23810 L 14687,23810 C 14348,23810 14061,23733 13768,23563 13474,23394 13264,23183 13095,22890 12925,22597 12848,22309 12848,21971 L 12848,21971 12848,21971 C 12848,21632 12925,21345 13095,21051 13264,20758 13474,20548 13768,20378 14061,20209 14348,20132 14687,20132 L 14687,20132 C 15026,20132 15313,20209 15606,20378 15900,20548 16110,20758 16279,21051 16449,21345 16526,21632 16526,21971 L 16526,21971 16526,21971 Z"/>
        <path fill="rgb(0,0,0)" stroke="none" d="M 14662,5565 C 14366,5569 14116,5638 13859,5786 13595,5939 13405,6128 13253,6392 13101,6656 13031,6915 13031,7220 13031,7228 13031,7235 13031,7243 L 13031,16060 C 13031,16069 13031,16076 13031,16085 13031,16390 13101,16649 13253,16913 13405,17177 13595,17367 13859,17519 14123,17671 14382,17741 14687,17741 14992,17741 15251,17671 15515,17519 15779,17367 15969,17177 16121,16913 16273,16649 16343,16390 16343,16085 16343,16076 16343,16069 16343,16060 L 16343,7243 C 16343,7235 16343,7228 16343,7220 16343,6915 16273,6656 16121,6392 15969,6128 15779,5939 15515,5786 15251,5634 14992,5564 14687,5564 14678,5564 14671,5564 14662,5565 Z"/>
       </g>
      </g>
     </g>
    </g>
   </g>
  </g>
 </g>
</svg>