<?xml version="1.0" encoding="utf-8"?>
<!-- Created by sK1 2.0rc4 (https://sk1project.net/) -->
<svg xmlns="http://www.w3.org/2000/svg" height="832.677165354pt" viewBox="0 0 832.677165354 832.677165354" width="832.677165354pt" version="1.1" xmlns:xlink="http://www.w3.org/1999/xlink" id="2ef1358a-b1ff-11ea-bb2a-a0f3c11e789f">

<g>
	<path style="fill-rule:evenodd;fill:#2d2c2b;" d="M 221.8002,829.0256 C 228.7978,826.0515 233.7305,817.3974 233.7305,808.0946 L 233.7305,799.5193 241.6677,799.5202 C 248.8514,799.521 250.3519,800.4336 257.4737,809.1325 267.7649,821.7027 279.0186,827.4147 293.493,827.4147 327.5889,827.4147 350.2993,788.7124 334.8706,756.9005 322.7687,731.9483 295.8525,722.7589 273.0559,735.7966 262.9547,741.5737 253.6091,752.5438 250.1489,762.6854 248.5661,767.3246 247.2763,768.0877 241.018,768.0877 L 233.7305,768.0877 233.7305,752.2209 C 233.7305,737.2103 233.4281,736.0359 228.1277,730.4605 L 222.525,724.5671 222.525,679.5353 C 222.525,644.5817 223.0527,634.5036 224.8828,634.5036 226.1796,634.5036 239.8363,647.7803 255.2309,664.0074 275.5928,685.4703 285.0028,694.0336 289.7578,695.428 293.8556,696.6297 259.1997,696.5917 414.683,696.5985 687.1175,696.6103 670.3544,697.3604 676.4865,684.887 678.7412,680.3007 677.5143,690.5394 677.5143,659.3317 L 677.5143,620.1195 671.7682,615.0336 666.0222,609.9478 601.0521,609.9478 C 538.631,609.9478 535.8933,610.1041 531.2716,613.9281 528.6259,616.1171 525.9346,619.6532 525.2911,621.786 524.138,625.6077 521.7604,625.6636 360.5662,625.6636 L 326.6365,626.4208 270.1482,543.7476 235.3991,544.006 200.6501,544.2644 179.0214,533.155 C 160.6665,523.7271 156.394,522.2427 150.7947,523.3475 143.17,524.8522 133.3073,532.8809 130.8991,539.5437 129.5309,543.3291 127.8899,544.138 121.5783,544.138 115.6019,544.138 112.7181,545.4002 108.459,549.8803 L 103.0,555.6226 103.0,586.3206 C 103.0,629.1932 106.0304,634.5037 130.4954,634.5037 L 144.0867,634.5037 144.0867,680.5364 C 144.0867,724.641 143.9322,726.6207 140.4003,727.7999 132.5236,730.4295 129.146,738.1782 129.146,753.6192 L 129.146,768.0878 121.9023,768.0878 C 115.5929,768.0878 114.3552,767.3173 112.3063,762.1144 104.6305,742.6218 87.3796,730.0027 68.4874,730.0606 55.4774,730.1004 45.5006,734.6998 36.4431,744.8331 26.6509,755.7884 23.7257,763.6267 23.7326,778.8924 23.7401,795.0601 27.9227,805.1394 38.7896,815.1758 48.3744,824.028 56.0965,827.0219 69.3439,827.0219 84.0909,827.0219 95.3334,821.432 105.458,809.0652 112.5223,800.4365 114.0328,799.5212 121.2088,799.5203 L 129.146,799.5194 129.146,807.2849 C 129.146,811.5559 130.1501,817.3683 131.3772,820.2013 135.5719,829.8853 140.5889,830.9622 180.8786,830.8265 201.2162,830.7579 219.6309,829.9476 221.8002,829.0257 L 221.8002,829.0256 Z M 218.0055,518.8244 C 225.6026,513.9514 230.6922,502.5282 229.4849,493.06 227.7716,479.6235 223.9364,476.2508 190.1438,458.464 162.297,443.8067 157.4493,441.8551 151.6525,442.9677 132.734,446.5987 123.2109,467.7629 132.9994,484.4226 136.0706,489.6499 142.8698,494.1821 166.5017,506.7548 198.9741,524.0308 206.9681,525.9042 218.0055,518.8244 L 218.0055,518.8244 Z M 214.2732,442.0466 C 219.3726,439.8767 227.8245,429.2066 229.2818,423.0993 230.8816,416.3944 228.8749,407.3529 224.2806,400.566 219.8101,393.9622 163.7171,363.4065 156.0644,363.4065 149.2947,363.4065 140.0836,368.0346 134.7488,374.1162 130.8766,378.5306 130.0798,381.4012 130.0798,390.9384 130.0798,401.0328 130.7645,403.1932 135.6826,408.6182 138.7964,412.0529 153.5709,421.2734 168.941,429.3741 196.8364,444.0763 204.4813,446.2134 214.2732,442.0466 L 214.2732,442.0466 Z M 217.113,360.9118 C 229.6993,352.0674 233.2554,334.4774 224.9143,322.3228 220.0041,315.1675 163.8883,285.0291 155.263,284.9147 135.0899,284.6473 122.3167,308.7585 133.3481,326.2822 136.6215,331.4821 144.1539,336.5197 167.4314,349.0771 200.455,366.8921 206.5398,368.3416 217.113,360.9118 L 217.113,360.9118 Z M 214.2793,283.9998 C 231.5036,276.1113 234.73,251.4197 220.2153,238.5727 217.0277,235.7514 202.808,227.3243 188.616,219.8459 160.8956,205.2388 152.8467,203.4146 142.0438,209.2909 129.5612,216.0808 125.2989,234.9329 133.3591,247.7033 136.6647,252.9406 144.1144,257.8691 167.9465,270.5852 184.6592,279.5026 200.6141,286.7576 203.4195,286.7153 206.2237,286.673 211.1107,285.451 214.2793,283.9998 Z M 212.2533,205.2102 C 220.9717,202.0158 227.6382,194.1496 229.2594,185.1436 230.8531,176.2904 229.0129,170.121 222.4237,162.2269 L 216.7736,155.458 244.8435,154.8241 268.7377,132.8393 296.3252,103.8633 323.9128,74.8873 357.0675,74.1301 519.8475,74.1301 525.4502,80.0235 531.053,85.917 595.7509,85.917 C 672.684,86.0296 679.4901,90.7938 679.278,55.793 679.3046,30.941 678.5584,15.3301 677.1931,12.1782 672.1841,0.6142 686.0913,1.1913 411.0397,1.1341 L 288.824,1.839 257.7296,35.2874 C 240.6276,53.684 225.7103,68.7358 224.58,68.7358 223.3033,68.7358 222.525,64.0654 222.525,56.4038 222.525,33.7047 215.7655,29.4463 179.7348,29.4463 156.8691,29.4463 155.2071,29.7117 150.307,34.1453 145.6345,38.3729 145.0414,40.3441 144.3959,53.7901 L 143.6784,68.7358 129.783,68.7358 C 115.2799,68.7358 106.2721,71.8745 104.1601,77.6639 101.999,83.5876 102.8883,139.0141 105.2311,144.4228 107.909,150.6051 115.6502,155.1725 123.4506,155.1725 127.6271,155.1725 129.1479,156.0894 129.1531,158.6103 129.1568,160.5011 130.8156,164.9044 132.8391,168.3953 135.7494,173.4161 142.6749,177.9737 165.9817,190.2062 182.1865,198.7112 197.5461,206.1823 200.1141,206.8086 202.682,207.4348 208.1446,206.7155 212.2533,205.2102 L 212.2533,205.2102 Z" />
	<g>
		<path style="fill-rule:evenodd;fill:#2d2c2b;" d="M 647.3611,246.7643 L 565.4768,246.7643 C 555.7863,246.7643 547.9734,240.747 547.9734,233.2844 L 547.9734,149.8833 524.6708,149.8833 524.6708,249.7582 C 524.6708,260.6276 536.042,269.3733 550.1537,269.3733 L 647.3611,269.3733 647.3611,246.7643 Z" />
		<path style="fill-rule:evenodd;fill:#2d2c2b;" d="M 346.6635,130.5869 C 334.2627,130.5869 322.2254,139.9373 322.2254,153.2107 L 322.2254,542.6815 C 322.2254,555.9549 334.2627,565.3052 346.6635,565.3052 L 636.9836,565.3052 C 649.3843,565.3052 661.4217,555.9549 661.4217,542.6815 L 661.4217,228.6773 574.4498,130.5869 567.7119,130.5869 346.6635,130.5869 Z M 351.5541,159.0215 L 560.974,159.0215 632.0929,239.2222 632.0929,536.8707 351.5541,536.8707 351.5541,159.0215 Z" />
	</g>
</g>
</svg>