<?xml version="1.0" encoding="UTF-8"?>
<!DOCTYPE svg PUBLIC "-//W3C//DTD SVG 1.1//EN" "http://www.w3.org/Graphics/SVG/1.1/DTD/svg11.dtd">
<svg version="1.2" width="293.75mm" height="293.75mm" viewBox="0 0 29375 29375" preserveAspectRatio="xMidYMid" fill-rule="evenodd" stroke-width="28.222" stroke-linejoin="round" xmlns="http://www.w3.org/2000/svg" xmlns:ooo="http://xml.openoffice.org/svg/export" xmlns:xlink="http://www.w3.org/1999/xlink" xmlns:presentation="http://sun.com/xmlns/staroffice/presentation" xmlns:smil="http://www.w3.org/2001/SMIL20/" xmlns:anim="urn:oasis:names:tc:opendocument:xmlns:animation:1.0" xml:space="preserve">
 <defs class="ClipPathGroup">
  <clipPath id="presentation_clip_path" clipPathUnits="userSpaceOnUse">
   <rect x="0" y="0" width="29375" height="29375"/>
  </clipPath>
  <clipPath id="presentation_clip_path_shrink" clipPathUnits="userSpaceOnUse">
   <rect x="29" y="29" width="29317" height="29317"/>
  </clipPath>
 </defs>
 <defs class="TextShapeIndex">
  <g ooo:slide="id1" ooo:id-list="id3"/>
 </defs>
 <defs class="EmbeddedBulletChars">
  <g id="bullet-char-template-57356" transform="scale(0.00048828125,-0.00048828125)">
   <path d="M 580,1141 L 1163,571 580,0 -4,571 580,1141 Z"/>
  </g>
  <g id="bullet-char-template-57354" transform="scale(0.00048828125,-0.00048828125)">
   <path d="M 8,1128 L 1137,1128 1137,0 8,0 8,1128 Z"/>
  </g>
  <g id="bullet-char-template-10146" transform="scale(0.00048828125,-0.00048828125)">
   <path d="M 174,0 L 602,739 174,1481 1456,739 174,0 Z M 1358,739 L 309,1346 659,739 1358,739 Z"/>
  </g>
  <g id="bullet-char-template-10132" transform="scale(0.00048828125,-0.00048828125)">
   <path d="M 2015,739 L 1276,0 717,0 1260,543 174,543 174,936 1260,936 717,1481 1274,1481 2015,739 Z"/>
  </g>
  <g id="bullet-char-template-10007" transform="scale(0.00048828125,-0.00048828125)">
   <path d="M 0,-2 C -7,14 -16,27 -25,37 L 356,567 C 262,823 215,952 215,954 215,979 228,992 255,992 264,992 276,990 289,987 310,991 331,999 354,1012 L 381,999 492,748 772,1049 836,1024 860,1049 C 881,1039 901,1025 922,1006 886,937 835,863 770,784 769,783 710,716 594,584 L 774,223 C 774,196 753,168 711,139 L 727,119 C 717,90 699,76 672,76 641,76 570,178 457,381 L 164,-76 C 142,-110 111,-127 72,-127 30,-127 9,-110 8,-76 1,-67 -2,-52 -2,-32 -2,-23 -1,-13 0,-2 Z"/>
  </g>
  <g id="bullet-char-template-10004" transform="scale(0.00048828125,-0.00048828125)">
   <path d="M 285,-33 C 182,-33 111,30 74,156 52,228 41,333 41,471 41,549 55,616 82,672 116,743 169,778 240,778 293,778 328,747 346,684 L 369,508 C 377,444 397,411 428,410 L 1163,1116 C 1174,1127 1196,1133 1229,1133 1271,1133 1292,1118 1292,1087 L 1292,965 C 1292,929 1282,901 1262,881 L 442,47 C 390,-6 338,-33 285,-33 Z"/>
  </g>
  <g id="bullet-char-template-9679" transform="scale(0.00048828125,-0.00048828125)">
   <path d="M 813,0 C 632,0 489,54 383,161 276,268 223,411 223,592 223,773 276,916 383,1023 489,1130 632,1184 813,1184 992,1184 1136,1130 1245,1023 1353,916 1407,772 1407,592 1407,412 1353,268 1245,161 1136,54 992,0 813,0 Z"/>
  </g>
  <g id="bullet-char-template-8226" transform="scale(0.00048828125,-0.00048828125)">
   <path d="M 346,457 C 273,457 209,483 155,535 101,586 74,649 74,723 74,796 101,859 155,911 209,963 273,989 346,989 419,989 480,963 531,910 582,859 608,796 608,723 608,648 583,586 532,535 482,483 420,457 346,457 Z"/>
  </g>
  <g id="bullet-char-template-8211" transform="scale(0.00048828125,-0.00048828125)">
   <path d="M -4,459 L 1135,459 1135,606 -4,606 -4,459 Z"/>
  </g>
  <g id="bullet-char-template-61548" transform="scale(0.00048828125,-0.00048828125)">
   <path d="M 173,740 C 173,903 231,1043 346,1159 462,1274 601,1332 765,1332 928,1332 1067,1274 1183,1159 1299,1043 1357,903 1357,740 1357,577 1299,437 1183,322 1067,206 928,148 765,148 601,148 462,206 346,322 231,437 173,577 173,740 Z"/>
  </g>
 </defs>
 <defs class="TextEmbeddedBitmaps"/>
 <g>
  <g id="id2" class="Master_Slide">
   <g id="bg-id2" class="Background"/>
   <g id="bo-id2" class="BackgroundObjects"/>
  </g>
 </g>
 <g class="SlideGroup">
  <g>
   <g id="container-id1">
    <g id="id1" class="Slide" clip-path="url(#presentation_clip_path)">
     <g class="Page">
      <g class="Graphic">
       <g id="id3">
        <rect class="BoundingBox" stroke="none" fill="none" x="-13" y="-13" width="29401" height="29401"/>
        <defs>
         <clipPath id="clip_path_1" clipPathUnits="userSpaceOnUse">
          <path d="M -13,-13 L 29387,-13 29387,29387 -13,29387 -13,-13 Z"/>
         </clipPath>
        </defs>
        <g clip-path="url(#clip_path_1)">
         <path fill="rgb(0,0,0)" stroke="none" d="M 5100,-51 C 4281,-51 3486,583 3486,1483 L 3486,27891 C 3486,28791 4281,29425 5100,29425 L 24274,29425 C 25093,29425 25888,28791 25888,27891 L 25888,6600 20144,-51 19699,-51 5100,-51 Z M 5423,1877 L 19254,1877 23951,7315 23951,27497 5423,27497 5423,1877 Z"/>
         <path fill="rgb(0,0,0)" stroke="none" d="M 25808,6958 L 20400,6958 C 19760,6958 19244,6550 19244,6044 L 19244,389 17705,389 17705,7161 C 17705,7898 18456,8491 19388,8491 L 25808,8491 25808,6958 Z"/>
         <path fill="rgb(0,0,0)" stroke="none" d="M 8341,18216 C 7643,17950 7170,17671 6923,17380 6676,17086 6552,16691 6552,16197 6552,15561 6755,15062 7162,14699 7569,14336 8128,14154 8839,14154 9161,14154 9484,14192 9806,14267 10128,14339 10448,14447 10764,14591 L 10764,15943 C 10466,15733 10164,15574 9858,15464 9551,15355 9247,15300 8947,15300 8612,15300 8355,15367 8177,15502 7998,15636 7909,15829 7909,16079 7909,16273 7973,16435 8101,16563 8233,16688 8505,16827 8919,16981 L 9515,17206 C 10078,17413 10493,17687 10759,18028 11025,18369 11158,18800 11158,19319 11158,20027 10949,20556 10529,20906 10113,21254 9482,21427 8637,21427 8289,21427 7940,21385 7590,21301 7242,21219 6906,21097 6580,20934 L 6580,19502 C 6950,19765 7306,19961 7651,20089 7998,20218 8341,20282 8679,20282 9020,20282 9285,20205 9473,20052 9660,19895 9754,19678 9754,19399 9754,19189 9692,19006 9566,18850 9441,18690 9260,18565 9022,18474 L 8341,18216 Z"/>
         <path fill="rgb(0,0,0)" stroke="none" d="M 14624,20136 L 15859,14281 17253,14281 15586,21291 13666,21291 11999,14281 13393,14281 14624,20136 Z"/>
         <path fill="rgb(0,0,0)" stroke="none" d="M 21611,18685 L 20662,18685 20662,17521 22822,17521 22822,20733 C 22556,20961 22262,21135 21939,21254 21620,21370 21277,21427 20911,21427 20003,21427 19302,21113 18807,20484 18313,19851 18065,18954 18065,17793 18065,16613 18314,15711 18812,15088 19313,14466 20034,14154 20977,14154 21258,14154 21535,14195 21808,14276 22080,14354 22335,14469 22573,14619 L 22573,16154 C 22379,15904 22155,15716 21902,15591 21651,15463 21376,15398 21075,15398 20549,15398 20157,15597 19897,15995 19637,16389 19507,16989 19507,17793 19507,18573 19632,19166 19883,19573 20133,19980 20498,20183 20977,20183 21121,20183 21246,20171 21352,20146 21459,20117 21545,20077 21611,20023 L 21611,18685 Z"/>
        </g>
       </g>
      </g>
     </g>
    </g>
   </g>
  </g>
 </g>
</svg>