<?xml version="1.0" encoding="UTF-8"?>
<!DOCTYPE svg PUBLIC "-//W3C//DTD SVG 1.1//EN" "http://www.w3.org/Graphics/SVG/1.1/DTD/svg11.dtd">
<svg version="1.2" width="293.75mm" height="293.75mm" viewBox="0 0 29375 29375" preserveAspectRatio="xMidYMid" fill-rule="evenodd" stroke-width="28.222" stroke-linejoin="round" xmlns="http://www.w3.org/2000/svg" xmlns:ooo="http://xml.openoffice.org/svg/export" xmlns:xlink="http://www.w3.org/1999/xlink" xmlns:presentation="http://sun.com/xmlns/staroffice/presentation" xmlns:smil="http://www.w3.org/2001/SMIL20/" xmlns:anim="urn:oasis:names:tc:opendocument:xmlns:animation:1.0" xml:space="preserve">
 <defs class="ClipPathGroup">
  <clipPath id="presentation_clip_path" clipPathUnits="userSpaceOnUse">
   <rect x="0" y="0" width="29375" height="29375"/>
  </clipPath>
  <clipPath id="presentation_clip_path_shrink" clipPathUnits="userSpaceOnUse">
   <rect x="29" y="29" width="29317" height="29317"/>
  </clipPath>
 </defs>
 <defs class="TextShapeIndex">
  <g ooo:slide="id1" ooo:id-list="id3"/>
 </defs>
 <defs class="EmbeddedBulletChars">
  <g id="bullet-char-template-57356" transform="scale(0.00048828125,-0.00048828125)">
   <path d="M 580,1141 L 1163,571 580,0 -4,571 580,1141 Z"/>
  </g>
  <g id="bullet-char-template-57354" transform="scale(0.00048828125,-0.00048828125)">
   <path d="M 8,1128 L 1137,1128 1137,0 8,0 8,1128 Z"/>
  </g>
  <g id="bullet-char-template-10146" transform="scale(0.00048828125,-0.00048828125)">
   <path d="M 174,0 L 602,739 174,1481 1456,739 174,0 Z M 1358,739 L 309,1346 659,739 1358,739 Z"/>
  </g>
  <g id="bullet-char-template-10132" transform="scale(0.00048828125,-0.00048828125)">
   <path d="M 2015,739 L 1276,0 717,0 1260,543 174,543 174,936 1260,936 717,1481 1274,1481 2015,739 Z"/>
  </g>
  <g id="bullet-char-template-10007" transform="scale(0.00048828125,-0.00048828125)">
   <path d="M 0,-2 C -7,14 -16,27 -25,37 L 356,567 C 262,823 215,952 215,954 215,979 228,992 255,992 264,992 276,990 289,987 310,991 331,999 354,1012 L 381,999 492,748 772,1049 836,1024 860,1049 C 881,1039 901,1025 922,1006 886,937 835,863 770,784 769,783 710,716 594,584 L 774,223 C 774,196 753,168 711,139 L 727,119 C 717,90 699,76 672,76 641,76 570,178 457,381 L 164,-76 C 142,-110 111,-127 72,-127 30,-127 9,-110 8,-76 1,-67 -2,-52 -2,-32 -2,-23 -1,-13 0,-2 Z"/>
  </g>
  <g id="bullet-char-template-10004" transform="scale(0.00048828125,-0.00048828125)">
   <path d="M 285,-33 C 182,-33 111,30 74,156 52,228 41,333 41,471 41,549 55,616 82,672 116,743 169,778 240,778 293,778 328,747 346,684 L 369,508 C 377,444 397,411 428,410 L 1163,1116 C 1174,1127 1196,1133 1229,1133 1271,1133 1292,1118 1292,1087 L 1292,965 C 1292,929 1282,901 1262,881 L 442,47 C 390,-6 338,-33 285,-33 Z"/>
  </g>
  <g id="bullet-char-template-9679" transform="scale(0.00048828125,-0.00048828125)">
   <path d="M 813,0 C 632,0 489,54 383,161 276,268 223,411 223,592 223,773 276,916 383,1023 489,1130 632,1184 813,1184 992,1184 1136,1130 1245,1023 1353,916 1407,772 1407,592 1407,412 1353,268 1245,161 1136,54 992,0 813,0 Z"/>
  </g>
  <g id="bullet-char-template-8226" transform="scale(0.00048828125,-0.00048828125)">
   <path d="M 346,457 C 273,457 209,483 155,535 101,586 74,649 74,723 74,796 101,859 155,911 209,963 273,989 346,989 419,989 480,963 531,910 582,859 608,796 608,723 608,648 583,586 532,535 482,483 420,457 346,457 Z"/>
  </g>
  <g id="bullet-char-template-8211" transform="scale(0.00048828125,-0.00048828125)">
   <path d="M -4,459 L 1135,459 1135,606 -4,606 -4,459 Z"/>
  </g>
  <g id="bullet-char-template-61548" transform="scale(0.00048828125,-0.00048828125)">
   <path d="M 173,740 C 173,903 231,1043 346,1159 462,1274 601,1332 765,1332 928,1332 1067,1274 1183,1159 1299,1043 1357,903 1357,740 1357,577 1299,437 1183,322 1067,206 928,148 765,148 601,148 462,206 346,322 231,437 173,577 173,740 Z"/>
  </g>
 </defs>
 <defs class="TextEmbeddedBitmaps"/>
 <g>
  <g id="id2" class="Master_Slide">
   <g id="bg-id2" class="Background"/>
   <g id="bo-id2" class="BackgroundObjects"/>
  </g>
 </g>
 <g class="SlideGroup">
  <g>
   <g id="container-id1">
    <g id="id1" class="Slide" clip-path="url(#presentation_clip_path)">
     <g class="Page">
      <g class="Graphic">
       <g id="id3">
        <rect class="BoundingBox" stroke="none" fill="none" x="-13" y="-13" width="29401" height="29401"/>
        <defs>
         <clipPath id="clip_path_1" clipPathUnits="userSpaceOnUse">
          <path d="M -13,-13 L 29387,-13 29387,29387 -13,29387 -13,-13 Z"/>
         </clipPath>
        </defs>
        <g clip-path="url(#clip_path_1)">
         <path fill="rgb(0,0,0)" stroke="none" d="M 14395,16015 C 14299,16024 14205,16039 14112,16057 14019,16076 13928,16100 13839,16127 13750,16155 13662,16187 13577,16223 13492,16258 13409,16298 13329,16342 13248,16386 13170,16433 13094,16484 13018,16535 12945,16589 12875,16647 12805,16705 12738,16766 12673,16831 12609,16895 12548,16962 12490,17032 12432,17102 12378,17175 12327,17251 12276,17327 12228,17405 12185,17486 12141,17566 12101,17649 12065,17734 12030,17819 11998,17907 11970,17996 11943,18085 11919,18176 11900,18269 11882,18362 11867,18456 11857,18552 11848,18648 11843,18746 11843,18844 11843,18943 11848,19040 11857,19136 11867,19232 11882,19326 11900,19419 11919,19512 11943,19603 11970,19692 11998,19781 12030,19869 12065,19954 12101,20039 12141,20122 12185,20203 12228,20283 12276,20361 12327,20437 12378,20513 12432,20586 12490,20656 12548,20726 12609,20793 12673,20858 12738,20922 12805,20983 12875,21041 12945,21099 13018,21153 13094,21204 13170,21255 13248,21303 13329,21346 13409,21390 13492,21430 13577,21466 13662,21501 13750,21533 13839,21561 13928,21589 14019,21612 14112,21631 14205,21650 14299,21664 14395,21674 14491,21683 14588,21688 14687,21688 14786,21688 14883,21683 14979,21674 15075,21664 15169,21650 15262,21631 15355,21612 15446,21589 15535,21561 15624,21533 15712,21501 15797,21466 15882,21430 15965,21390 16046,21346 16126,21303 16204,21255 16280,21204 16356,21153 16429,21099 16499,21041 16569,20983 16636,20922 16700,20858 16765,20793 16826,20726 16884,20656 16942,20586 16996,20513 17047,20437 17098,20361 17146,20283 17189,20203 17233,20122 17273,20039 17309,19954 17344,19869 17376,19781 17404,19692 17431,19603 17455,19512 17474,19419 17492,19326 17507,19232 17517,19136 17526,19040 17531,18943 17531,18844 17531,18746 17526,18648 17517,18552 17507,18456 17492,18362 17474,18269 17455,18176 17431,18085 17404,17996 17376,17907 17344,17819 17309,17734 17273,17649 17233,17566 17189,17486 17146,17405 17098,17327 17047,17251 16996,17175 16942,17102 16884,17032 16826,16962 16765,16895 16700,16831 16636,16766 16569,16705 16499,16647 16429,16589 16356,16535 16280,16484 16204,16433 16126,16386 16046,16342 15965,16298 15882,16258 15797,16223 15712,16187 15624,16155 15535,16127 15446,16100 15355,16076 15262,16057 15169,16039 15075,16024 14979,16015 14883,16005 14786,16000 14687,16000 14588,16000 14491,16005 14395,16015 Z"/>
         <path fill="rgb(0,0,0)" stroke="none" d="M 11225,12653 C 11084,12653 10970,12758 10970,12887 L 10180,14829 8041,14829 C 7772,14829 7553,15029 7553,15277 L 7553,23423 C 7553,23670 7772,23871 8041,23871 L 21333,23871 C 21602,23871 21821,23670 21821,23423 L 21821,15277 C 21821,15029 21602,14829 21333,14829 L 19048,14829 18146,12887 C 18146,12758 18031,12653 17890,12653 L 11225,12653 Z M 14888,14931 C 14955,14935 15021,14940 15087,14946 15152,14953 15217,14961 15282,14971 15347,14981 15411,14993 15475,15006 15538,15019 15602,15034 15664,15050 15727,15066 15788,15084 15850,15103 15911,15122 15972,15143 16032,15165 16092,15187 16151,15210 16209,15235 16268,15260 16326,15286 16383,15314 16440,15341 16496,15370 16552,15400 16607,15430 16662,15462 16716,15495 16770,15528 16823,15562 16875,15597 16927,15632 16978,15669 17028,15706 17079,15744 17128,15783 17177,15823 17225,15863 17272,15904 17319,15946 17365,15988 17411,16032 17455,16076 17499,16120 17543,16166 17585,16212 17627,16259 17668,16306 17708,16355 17748,16403 17787,16452 17825,16503 17862,16553 17899,16604 17934,16656 17969,16708 18003,16761 18036,16815 18069,16869 18100,16924 18131,16979 18161,17035 18190,17091 18217,17148 18245,17205 18271,17263 18296,17322 18321,17380 18344,17440 18366,17500 18388,17559 18409,17620 18428,17681 18447,17743 18465,17805 18481,17867 18497,17930 18512,17993 18525,18056 18538,18120 18550,18184 18560,18249 18569,18314 18578,18379 18585,18445 18591,18510 18596,18576 18600,18643 18603,18710 18605,18777 18605,18844 18605,18911 18603,18979 18600,19045 18596,19112 18591,19178 18585,19244 18578,19309 18569,19375 18560,19439 18550,19504 18538,19568 18525,19632 18512,19695 18497,19759 18481,19821 18465,19884 18447,19946 18428,20007 18409,20068 18388,20129 18366,20189 18344,20249 18321,20308 18296,20366 18271,20425 18245,20483 18217,20540 18190,20597 18161,20653 18131,20709 18100,20764 18069,20819 18036,20873 18003,20927 17969,20980 17934,21032 17899,21084 17862,21135 17825,21185 17787,21236 17748,21285 17708,21334 17668,21382 17627,21429 17585,21476 17543,21522 17499,21568 17455,21612 17411,21656 17365,21700 17319,21742 17272,21784 17225,21825 17177,21865 17128,21905 17079,21944 17028,21982 16978,22019 16927,22056 16875,22091 16823,22126 16770,22160 16716,22193 16662,22226 16607,22258 16552,22288 16496,22318 16440,22347 16383,22374 16326,22402 16268,22428 16209,22453 16151,22478 16092,22501 16032,22523 15972,22546 15911,22566 15850,22585 15788,22604 15727,22622 15664,22638 15602,22654 15538,22669 15475,22682 15411,22695 15347,22707 15282,22717 15217,22727 15152,22735 15087,22742 15021,22748 14955,22753 14888,22757 14821,22760 14754,22762 14687,22762 14620,22762 14553,22760 14486,22757 14419,22753 14353,22748 14287,22742 14222,22735 14157,22727 14092,22717 14027,22707 13963,22695 13899,22682 13836,22669 13773,22654 13710,22638 13647,22622 13586,22604 13524,22585 13463,22566 13402,22546 13342,22523 13283,22501 13223,22478 13165,22453 13106,22428 13048,22402 12991,22374 12934,22347 12878,22318 12822,22288 12767,22258 12712,22226 12658,22193 12604,22160 12551,22126 12499,22091 12447,22056 12396,22019 12346,21982 12295,21944 12246,21905 12198,21865 12149,21825 12102,21784 12055,21742 12009,21700 11963,21656 11919,21612 11875,21568 11831,21522 11789,21476 11747,21429 11706,21382 11666,21334 11626,21285 11587,21236 11549,21185 11512,21135 11475,21084 11440,21032 11405,20980 11371,20927 11338,20873 11305,20819 11274,20764 11243,20709 11213,20653 11184,20597 11157,20540 11129,20483 11103,20425 11078,20366 11053,20308 11030,20249 11008,20189 10986,20129 10965,20068 10946,20007 10927,19946 10909,19884 10893,19821 10877,19759 10862,19695 10849,19632 10836,19568 10824,19504 10814,19439 10805,19375 10796,19309 10789,19244 10783,19178 10778,19112 10774,19045 10771,18979 10769,18911 10769,18844 10769,18777 10771,18710 10774,18643 10778,18576 10783,18510 10789,18445 10796,18379 10805,18314 10814,18249 10824,18184 10836,18120 10849,18056 10862,17993 10877,17930 10893,17867 10909,17805 10927,17743 10946,17681 10965,17620 10986,17559 11008,17500 11030,17440 11053,17380 11078,17322 11103,17263 11129,17205 11157,17148 11184,17091 11213,17035 11243,16979 11274,16924 11305,16869 11338,16815 11371,16761 11405,16708 11440,16656 11475,16604 11512,16553 11549,16503 11587,16452 11626,16403 11666,16355 11706,16306 11747,16259 11789,16212 11831,16166 11875,16120 11919,16076 11963,16032 12009,15988 12055,15946 12102,15904 12149,15863 12198,15823 12246,15783 12295,15744 12346,15706 12396,15669 12447,15632 12499,15597 12551,15562 12604,15528 12658,15495 12712,15462 12767,15430 12822,15400 12878,15370 12934,15341 12991,15314 13048,15286 13106,15260 13165,15235 13223,15210 13283,15187 13342,15165 13402,15143 13463,15122 13524,15103 13586,15084 13647,15066 13710,15050 13773,15034 13836,15019 13899,15006 13963,14993 14027,14981 14092,14971 14157,14961 14222,14953 14287,14946 14353,14940 14419,14935 14486,14931 14553,14928 14620,14926 14687,14926 14754,14926 14821,14928 14888,14931 Z M 20592,15670 C 20604,15670 20614,15671 20626,15671 20644,15673 20658,15674 20675,15677 20692,15680 20706,15683 20723,15688 20739,15693 20753,15697 20769,15703 20785,15710 20798,15716 20814,15723 20822,15728 20829,15731 20836,15736 20843,15740 20849,15743 20856,15748 20871,15757 20882,15765 20896,15776 20909,15787 20920,15796 20933,15808 20945,15820 20955,15831 20966,15844 20977,15857 20986,15869 20995,15883 21003,15894 21009,15903 21015,15915 21017,15918 21019,15921 21021,15925 21029,15940 21036,15953 21042,15969 21049,15985 21054,15998 21059,16015 21064,16031 21068,16045 21071,16062 21075,16079 21077,16093 21078,16110 21080,16127 21081,16142 21081,16159 21081,16159 21081,16159 21081,16159 L 21081,16812 C 21081,16812 21081,16812 21081,16813 21081,16825 21081,16835 21080,16847 21078,16864 21077,16878 21074,16895 21071,16912 21068,16926 21063,16943 21059,16959 21054,16973 21048,16989 21041,17005 21036,17019 21028,17034 21024,17042 21020,17049 21015,17057 21011,17064 21008,17069 21003,17076 20994,17091 20986,17103 20975,17116 20964,17130 20955,17140 20943,17153 20931,17165 20920,17175 20907,17186 20894,17197 20882,17206 20868,17216 20857,17223 20848,17229 20836,17236 20833,17238 20830,17239 20826,17241 20811,17250 20798,17256 20782,17263 20767,17269 20753,17274 20737,17279 20720,17284 20706,17288 20689,17291 20672,17295 20658,17297 20641,17299 20624,17300 20609,17301 20592,17301 L 19589,17301 C 19577,17301 19567,17301 19554,17300 19537,17299 19523,17297 19506,17294 19489,17291 19475,17288 19458,17283 19442,17279 19428,17274 19412,17268 19396,17262 19383,17256 19367,17248 19359,17244 19352,17240 19345,17236 19338,17232 19332,17228 19325,17224 19310,17214 19299,17206 19285,17195 19272,17185 19261,17175 19248,17163 19236,17151 19226,17140 19215,17127 19204,17114 19195,17103 19185,17088 19178,17077 19172,17068 19166,17057 19164,17053 19162,17050 19160,17047 19152,17032 19145,17018 19139,17003 19132,16987 19127,16973 19122,16957 19117,16940 19113,16926 19110,16909 19106,16893 19104,16878 19102,16861 19101,16844 19100,16829 19100,16812 L 19100,16159 C 19100,16147 19100,16137 19101,16125 19102,16108 19104,16093 19107,16076 19110,16059 19113,16045 19118,16028 19122,16012 19127,15998 19133,15982 19139,15966 19145,15953 19153,15937 19157,15929 19161,15923 19166,15915 19170,15908 19173,15902 19178,15895 19187,15881 19195,15869 19206,15855 19217,15842 19226,15831 19238,15819 19250,15806 19261,15796 19274,15785 19287,15774 19299,15765 19313,15756 19324,15748 19333,15742 19344,15736 19348,15734 19351,15732 19355,15730 19370,15722 19383,15716 19399,15709 19414,15702 19428,15697 19444,15692 19461,15687 19475,15683 19492,15680 19509,15677 19523,15674 19540,15673 19557,15671 19572,15670 19589,15670 L 20592,15670 Z"/>
         <path fill="rgb(0,0,0)" stroke="none" d="M 5100,-51 C 4281,-51 3486,583 3486,1483 L 3486,27891 C 3486,28791 4281,29425 5100,29425 L 24274,29425 C 25093,29425 25888,28791 25888,27891 L 25888,6600 20144,-51 19699,-51 5100,-51 Z M 5423,1877 L 19254,1877 23951,7315 23951,27497 5423,27497 5423,1877 Z"/>
         <path fill="rgb(0,0,0)" stroke="none" d="M 25808,6958 L 20400,6958 C 19760,6958 19244,6550 19244,6044 L 19244,389 17705,389 17705,7161 C 17705,7898 18456,8491 19388,8491 L 25808,8491 25808,6958 Z"/>
        </g>
       </g>
      </g>
     </g>
    </g>
   </g>
  </g>
 </g>
</svg>