<?xml version="1.0" encoding="UTF-8"?>
<!DOCTYPE svg PUBLIC "-//W3C//DTD SVG 1.1//EN" "http://www.w3.org/Graphics/SVG/1.1/DTD/svg11.dtd">
<svg version="1.2" width="293.75mm" height="293.75mm" viewBox="0 0 29375 29375" preserveAspectRatio="xMidYMid" fill-rule="evenodd" stroke-width="28.222" stroke-linejoin="round" xmlns="http://www.w3.org/2000/svg" xmlns:ooo="http://xml.openoffice.org/svg/export" xmlns:xlink="http://www.w3.org/1999/xlink" xmlns:presentation="http://sun.com/xmlns/staroffice/presentation" xmlns:smil="http://www.w3.org/2001/SMIL20/" xmlns:anim="urn:oasis:names:tc:opendocument:xmlns:animation:1.0" xml:space="preserve">
 <defs class="ClipPathGroup">
  <clipPath id="presentation_clip_path" clipPathUnits="userSpaceOnUse">
   <rect x="0" y="0" width="29375" height="29375"/>
  </clipPath>
  <clipPath id="presentation_clip_path_shrink" clipPathUnits="userSpaceOnUse">
   <rect x="29" y="29" width="29317" height="29317"/>
  </clipPath>
 </defs>
 <defs class="TextShapeIndex">
  <g ooo:slide="id1" ooo:id-list="id3"/>
 </defs>
 <defs class="EmbeddedBulletChars">
  <g id="bullet-char-template-57356" transform="scale(0.00048828125,-0.00048828125)">
   <path d="M 580,1141 L 1163,571 580,0 -4,571 580,1141 Z"/>
  </g>
  <g id="bullet-char-template-57354" transform="scale(0.00048828125,-0.00048828125)">
   <path d="M 8,1128 L 1137,1128 1137,0 8,0 8,1128 Z"/>
  </g>
  <g id="bullet-char-template-10146" transform="scale(0.00048828125,-0.00048828125)">
   <path d="M 174,0 L 602,739 174,1481 1456,739 174,0 Z M 1358,739 L 309,1346 659,739 1358,739 Z"/>
  </g>
  <g id="bullet-char-template-10132" transform="scale(0.00048828125,-0.00048828125)">
   <path d="M 2015,739 L 1276,0 717,0 1260,543 174,543 174,936 1260,936 717,1481 1274,1481 2015,739 Z"/>
  </g>
  <g id="bullet-char-template-10007" transform="scale(0.00048828125,-0.00048828125)">
   <path d="M 0,-2 C -7,14 -16,27 -25,37 L 356,567 C 262,823 215,952 215,954 215,979 228,992 255,992 264,992 276,990 289,987 310,991 331,999 354,1012 L 381,999 492,748 772,1049 836,1024 860,1049 C 881,1039 901,1025 922,1006 886,937 835,863 770,784 769,783 710,716 594,584 L 774,223 C 774,196 753,168 711,139 L 727,119 C 717,90 699,76 672,76 641,76 570,178 457,381 L 164,-76 C 142,-110 111,-127 72,-127 30,-127 9,-110 8,-76 1,-67 -2,-52 -2,-32 -2,-23 -1,-13 0,-2 Z"/>
  </g>
  <g id="bullet-char-template-10004" transform="scale(0.00048828125,-0.00048828125)">
   <path d="M 285,-33 C 182,-33 111,30 74,156 52,228 41,333 41,471 41,549 55,616 82,672 116,743 169,778 240,778 293,778 328,747 346,684 L 369,508 C 377,444 397,411 428,410 L 1163,1116 C 1174,1127 1196,1133 1229,1133 1271,1133 1292,1118 1292,1087 L 1292,965 C 1292,929 1282,901 1262,881 L 442,47 C 390,-6 338,-33 285,-33 Z"/>
  </g>
  <g id="bullet-char-template-9679" transform="scale(0.00048828125,-0.00048828125)">
   <path d="M 813,0 C 632,0 489,54 383,161 276,268 223,411 223,592 223,773 276,916 383,1023 489,1130 632,1184 813,1184 992,1184 1136,1130 1245,1023 1353,916 1407,772 1407,592 1407,412 1353,268 1245,161 1136,54 992,0 813,0 Z"/>
  </g>
  <g id="bullet-char-template-8226" transform="scale(0.00048828125,-0.00048828125)">
   <path d="M 346,457 C 273,457 209,483 155,535 101,586 74,649 74,723 74,796 101,859 155,911 209,963 273,989 346,989 419,989 480,963 531,910 582,859 608,796 608,723 608,648 583,586 532,535 482,483 420,457 346,457 Z"/>
  </g>
  <g id="bullet-char-template-8211" transform="scale(0.00048828125,-0.00048828125)">
   <path d="M -4,459 L 1135,459 1135,606 -4,606 -4,459 Z"/>
  </g>
  <g id="bullet-char-template-61548" transform="scale(0.00048828125,-0.00048828125)">
   <path d="M 173,740 C 173,903 231,1043 346,1159 462,1274 601,1332 765,1332 928,1332 1067,1274 1183,1159 1299,1043 1357,903 1357,740 1357,577 1299,437 1183,322 1067,206 928,148 765,148 601,148 462,206 346,322 231,437 173,577 173,740 Z"/>
  </g>
 </defs>
 <defs class="TextEmbeddedBitmaps"/>
 <g>
  <g id="id2" class="Master_Slide">
   <g id="bg-id2" class="Background"/>
   <g id="bo-id2" class="BackgroundObjects"/>
  </g>
 </g>
 <g class="SlideGroup">
  <g>
   <g id="container-id1">
    <g id="id1" class="Slide" clip-path="url(#presentation_clip_path)">
     <g class="Page">
      <g class="Graphic">
       <g id="id3">
        <rect class="BoundingBox" stroke="none" fill="none" x="-13" y="-13" width="29401" height="29401"/>
        <path fill="rgb(0,0,0)" stroke="none" d="M 2875,7540 C 2062,7540 1402,8242 1402,9107 L 3905,27717 C 3905,28583 4565,29284 5378,29284 L 23996,29284 C 24810,29284 25469,28583 25469,27717 L 27972,9107 C 27972,8242 27312,7540 26499,7540 L 2875,7540 Z M 4349,10674 L 25025,10674 22523,26150 6851,26150 4349,10674 Z"/>
        <path fill="rgb(0,0,0)" stroke="none" d="M 14687,113 C 13997,113 13375,163 12854,263 12594,313 12364,368 12103,487 11972,547 11829,618 11654,783 11479,948 11238,1285 11238,1729 11238,2173 11479,2510 11654,2675 11807,2820 11936,2892 12053,2948 L 1695,2948 C 1689,2947 1684,2947 1679,2947 1407,2947 1177,3010 942,3146 707,3283 538,3453 402,3689 266,3926 205,4158 205,4431 205,4704 266,4936 402,5173 538,5409 707,5579 942,5716 1177,5852 1407,5914 1679,5914 1684,5914 1689,5914 1695,5914 L 27679,5914 C 27685,5914 27690,5914 27695,5914 27967,5914 28197,5852 28432,5716 28667,5579 28836,5409 28972,5173 29108,4936 29169,4704 29169,4431 29169,4158 29108,3926 28972,3689 28836,3453 28667,3283 28432,3146 28197,3010 27967,2947 27695,2947 27690,2947 27685,2947 27679,2948 L 17321,2948 C 17438,2892 17567,2820 17720,2675 17895,2510 18136,2173 18136,1729 18136,1285 17895,948 17720,783 17545,618 17402,547 17271,487 17010,368 16780,313 16520,263 15999,163 15377,113 14687,113 Z"/>
        <path fill="rgb(0,0,0)" stroke="none" d="M 8822,12640 C 8801,12639 8783,12638 8762,12638 8532,12638 8337,12691 8139,12806 7940,12922 7797,13065 7683,13265 7568,13465 7516,13661 7516,13892 7516,13959 7520,14015 7530,14081 L 8808,23438 C 8829,23614 8877,23761 8966,23915 9081,24115 9223,24258 9422,24374 9620,24489 9815,24542 10045,24542 10274,24542 10469,24489 10668,24374 10866,24258 11009,24115 11124,23915 11238,23715 11291,23519 11291,23288 11291,23220 11286,23163 11276,23097 L 9998,13739 C 9977,13564 9929,13419 9841,13265 9726,13065 9583,12922 9385,12806 9204,12702 9030,12650 8822,12640 Z"/>
        <path fill="rgb(0,0,0)" stroke="none" d="M 14098,12763 C 13899,12879 13757,13022 13642,13222 13527,13422 13475,13618 13475,13849 13475,13859 13475,13867 13475,13877 L 13552,23321 C 13552,23322 13552,23323 13552,23325 13552,23556 13604,23752 13719,23952 13834,24152 13976,24295 14175,24411 14374,24526 14568,24579 14798,24579 15027,24579 15222,24526 15421,24411 15619,24295 15762,24152 15877,23952 15991,23752 16044,23556 16044,23325 16044,23316 16044,23309 16043,23300 L 15967,13856 C 15967,13854 15967,13852 15967,13849 15967,13618 15915,13422 15800,13222 15685,13022 15543,12879 15344,12763 15145,12648 14950,12595 14721,12595 14711,12595 14702,12595 14692,12596 14473,12601 14288,12653 14098,12763 Z"/>
        <path fill="rgb(0,0,0)" stroke="none" d="M 20660,12626 C 20430,12626 20235,12679 20037,12794 19838,12910 19695,13053 19581,13253 19488,13414 19439,13568 19420,13753 L 18337,23135 C 18329,23193 18326,23242 18326,23300 18326,23531 18378,23727 18493,23927 18608,24127 18750,24271 18949,24386 19147,24502 19342,24554 19572,24554 19801,24554 19996,24502 20195,24386 20393,24271 20536,24127 20651,23927 20744,23765 20793,23610 20811,23424 L 21895,14042 C 21902,13986 21905,13937 21905,13880 21905,13649 21853,13453 21738,13253 21624,13053 21481,12910 21283,12794 21084,12679 20889,12626 20660,12626 20660,12626 20660,12626 20660,12626 Z"/>
       </g>
      </g>
     </g>
    </g>
   </g>
  </g>
 </g>
</svg>