<?xml version="1.0" encoding="UTF-8"?>
<!DOCTYPE svg PUBLIC "-//W3C//DTD SVG 1.1//EN" "http://www.w3.org/Graphics/SVG/1.1/DTD/svg11.dtd">
<svg version="1.2" width="367.19mm" height="367.19mm" viewBox="0 0 36719 36719" preserveAspectRatio="xMidYMid" fill-rule="evenodd" stroke-width="28.222" stroke-linejoin="round" xmlns="http://www.w3.org/2000/svg" xmlns:ooo="http://xml.openoffice.org/svg/export" xmlns:xlink="http://www.w3.org/1999/xlink" xmlns:presentation="http://sun.com/xmlns/staroffice/presentation" xmlns:smil="http://www.w3.org/2001/SMIL20/" xmlns:anim="urn:oasis:names:tc:opendocument:xmlns:animation:1.0" xml:space="preserve">
 <defs class="ClipPathGroup">
  <clipPath id="presentation_clip_path" clipPathUnits="userSpaceOnUse">
   <rect x="0" y="0" width="36719" height="36719"/>
  </clipPath>
  <clipPath id="presentation_clip_path_shrink" clipPathUnits="userSpaceOnUse">
   <rect x="36" y="36" width="36646" height="36646"/>
  </clipPath>
 </defs>
 <defs class="TextShapeIndex">
  <g ooo:slide="id1" ooo:id-list="id3"/>
 </defs>
 <defs class="EmbeddedBulletChars">
  <g id="bullet-char-template-57356" transform="scale(0.00048828125,-0.00048828125)">
   <path d="M 580,1141 L 1163,571 580,0 -4,571 580,1141 Z"/>
  </g>
  <g id="bullet-char-template-57354" transform="scale(0.00048828125,-0.00048828125)">
   <path d="M 8,1128 L 1137,1128 1137,0 8,0 8,1128 Z"/>
  </g>
  <g id="bullet-char-template-10146" transform="scale(0.00048828125,-0.00048828125)">
   <path d="M 174,0 L 602,739 174,1481 1456,739 174,0 Z M 1358,739 L 309,1346 659,739 1358,739 Z"/>
  </g>
  <g id="bullet-char-template-10132" transform="scale(0.00048828125,-0.00048828125)">
   <path d="M 2015,739 L 1276,0 717,0 1260,543 174,543 174,936 1260,936 717,1481 1274,1481 2015,739 Z"/>
  </g>
  <g id="bullet-char-template-10007" transform="scale(0.00048828125,-0.00048828125)">
   <path d="M 0,-2 C -7,14 -16,27 -25,37 L 356,567 C 262,823 215,952 215,954 215,979 228,992 255,992 264,992 276,990 289,987 310,991 331,999 354,1012 L 381,999 492,748 772,1049 836,1024 860,1049 C 881,1039 901,1025 922,1006 886,937 835,863 770,784 769,783 710,716 594,584 L 774,223 C 774,196 753,168 711,139 L 727,119 C 717,90 699,76 672,76 641,76 570,178 457,381 L 164,-76 C 142,-110 111,-127 72,-127 30,-127 9,-110 8,-76 1,-67 -2,-52 -2,-32 -2,-23 -1,-13 0,-2 Z"/>
  </g>
  <g id="bullet-char-template-10004" transform="scale(0.00048828125,-0.00048828125)">
   <path d="M 285,-33 C 182,-33 111,30 74,156 52,228 41,333 41,471 41,549 55,616 82,672 116,743 169,778 240,778 293,778 328,747 346,684 L 369,508 C 377,444 397,411 428,410 L 1163,1116 C 1174,1127 1196,1133 1229,1133 1271,1133 1292,1118 1292,1087 L 1292,965 C 1292,929 1282,901 1262,881 L 442,47 C 390,-6 338,-33 285,-33 Z"/>
  </g>
  <g id="bullet-char-template-9679" transform="scale(0.00048828125,-0.00048828125)">
   <path d="M 813,0 C 632,0 489,54 383,161 276,268 223,411 223,592 223,773 276,916 383,1023 489,1130 632,1184 813,1184 992,1184 1136,1130 1245,1023 1353,916 1407,772 1407,592 1407,412 1353,268 1245,161 1136,54 992,0 813,0 Z"/>
  </g>
  <g id="bullet-char-template-8226" transform="scale(0.00048828125,-0.00048828125)">
   <path d="M 346,457 C 273,457 209,483 155,535 101,586 74,649 74,723 74,796 101,859 155,911 209,963 273,989 346,989 419,989 480,963 531,910 582,859 608,796 608,723 608,648 583,586 532,535 482,483 420,457 346,457 Z"/>
  </g>
  <g id="bullet-char-template-8211" transform="scale(0.00048828125,-0.00048828125)">
   <path d="M -4,459 L 1135,459 1135,606 -4,606 -4,459 Z"/>
  </g>
  <g id="bullet-char-template-61548" transform="scale(0.00048828125,-0.00048828125)">
   <path d="M 173,740 C 173,903 231,1043 346,1159 462,1274 601,1332 765,1332 928,1332 1067,1274 1183,1159 1299,1043 1357,903 1357,740 1357,577 1299,437 1183,322 1067,206 928,148 765,148 601,148 462,206 346,322 231,437 173,577 173,740 Z"/>
  </g>
 </defs>
 <defs class="TextEmbeddedBitmaps"/>
 <g>
  <g id="id2" class="Master_Slide">
   <g id="bg-id2" class="Background"/>
   <g id="bo-id2" class="BackgroundObjects"/>
  </g>
 </g>
 <g class="SlideGroup">
  <g>
   <g id="container-id1">
    <g id="id1" class="Slide" clip-path="url(#presentation_clip_path)">
     <g class="Page">
      <g class="Graphic">
       <g id="id3">
        <rect class="BoundingBox" stroke="none" fill="none" x="-365" y="-865" width="37450" height="37450"/>
        <defs>
         <clipPath id="clip_path_1" clipPathUnits="userSpaceOnUse">
          <path d="M -365,-865 L 37084,-865 37084,36584 -365,36584 -365,-865 Z"/>
         </clipPath>
        </defs>
        <g clip-path="url(#clip_path_1)">
         <path fill="rgb(0,0,0)" stroke="none" d="M 15974,6874 C 15213,7105 14667,7393 14227,7793 13788,8194 13588,8587 13588,9049 13590,9106 13595,9154 13604,9211 L 5460,9211 C 4457,9211 3494,9625 2784,10361 2075,11097 1676,12096 1676,13137 L 1676,29046 C 1676,30088 2075,31086 2784,31822 3494,32559 4457,32972 5460,32972 L 6642,32972 6522,33547 5936,36584 8213,34581 9983,32972 25375,32972 26926,34493 29129,36584 28653,33526 28558,32972 31259,32972 C 32262,32972 33225,32559 33935,31822 34644,31086 35043,30088 35043,29046 L 35043,13137 C 35043,12096 34644,11097 33935,10361 33225,9625 32262,9211 31259,9211 L 23120,9211 C 23127,9154 23130,9106 23131,9049 23131,8587 22931,8194 22492,7793 22052,7393 21506,7105 20745,6874 19984,6643 19238,6537 18359,6537 18359,6537 18359,6537 18359,6537 17481,6538 16735,6643 15974,6874 Z M 7167,11710 L 25010,11710 C 25787,11710 26532,12030 27081,12600 27630,13170 27939,13942 27939,14748 L 27939,27435 C 27939,28241 27630,29013 27081,29583 26532,30153 25787,30473 25010,30473 L 7167,30473 C 6391,30473 5646,30153 5097,29583 4548,29013 4239,28241 4239,27435 L 4239,14748 C 4239,13942 4548,13170 5097,12600 5646,12030 6391,11710 7167,11710 Z M 31605,15181 C 31998,15181 32333,15274 32673,15478 33014,15682 33259,15936 33455,16289 33652,16643 33742,16990 33742,17398 33742,17398 33742,17398 33742,17398 33742,17806 33652,18152 33455,18506 33259,18859 33014,19113 32673,19317 32333,19521 31998,19614 31605,19614 31605,19614 31605,19614 31605,19614 31212,19614 30878,19521 30537,19317 30196,19113 29952,18859 29755,18506 29558,18152 29469,17806 29469,17398 29469,17398 29469,17398 29469,17398 29469,16990 29558,16643 29755,16289 29952,15936 30196,15682 30537,15478 30878,15274 31212,15181 31605,15181 31605,15181 31605,15181 31605,15181 Z M 31534,22569 C 31534,22569 31534,22569 31534,22569 31927,22569 32262,22662 32602,22866 32943,23070 33187,23324 33384,23677 33581,24031 33670,24378 33670,24786 33670,24786 33670,24786 33670,24786 33670,25194 33581,25540 33384,25894 33187,26247 32943,26501 32602,26705 32262,26909 31927,27002 31534,27002 31534,27002 31534,27002 31534,27002 31141,27002 30806,26909 30466,26705 30125,26501 29880,26247 29684,25894 29487,25540 29398,25194 29398,24786 29398,24786 29398,24786 29398,24786 29398,24378 29487,24031 29684,23677 29880,23324 30125,23070 30466,22866 30806,22662 31141,22569 31534,22569 Z"/>
         <path fill="rgb(0,0,0)" stroke="none" d="M 23817,1495 L 17913,8241 18749,8663 24652,1916 23817,1495 Z"/>
         <path fill="rgb(0,0,0)" stroke="none" d="M 25811,1421 C 25811,1662 25756,1867 25636,2076 25515,2285 25365,2435 25157,2555 24948,2676 24743,2730 24502,2730 24261,2730 24056,2676 23848,2555 23639,2435 23489,2285 23368,2076 23248,1867 23193,1662 23193,1421 23193,1180 23248,975 23368,767 23489,558 23639,408 23848,288 24056,167 24261,112 24502,112 24743,112 24948,167 25157,288 25365,408 25515,558 25636,767 25756,975 25811,1180 25811,1421 L 25811,1421 Z"/>
         <path fill="rgb(0,0,0)" stroke="none" d="M 11167,2203 L 17913,8106 18335,7271 11588,1367 11167,2203 Z"/>
         <path fill="rgb(0,0,0)" stroke="none" d="M 11093,208 C 11334,208 11539,263 11748,384 11956,504 12106,654 12227,863 12347,1071 12402,1276 12402,1517 12402,1758 12347,1963 12227,2172 12106,2381 11956,2531 11748,2651 11539,2772 11334,2826 11093,2826 10852,2826 10647,2772 10439,2651 10230,2531 10080,2381 9959,2172 9839,1963 9784,1758 9784,1517 9784,1276 9839,1071 9959,863 10080,654 10230,504 10439,384 10647,263 10852,208 11093,208 L 11093,208 Z"/>
        </g>
       </g>
      </g>
     </g>
    </g>
   </g>
  </g>
 </g>
</svg>