<?xml version="1.0" encoding="utf-8"?>
<!-- Created by sK1 2.0rc4 (https://sk1project.net/) -->
<svg xmlns="http://www.w3.org/2000/svg" height="832.677165354pt" viewBox="0 0 832.677165354 832.677165354" width="832.677165354pt" version="1.1" xmlns:xlink="http://www.w3.org/1999/xlink" id="54bec710-b406-11ea-be2e-a0f3c11e789f">

<g>
	<g>
		<path style="fill-rule:evenodd;fill:#2d2c2b;" d="M 659.2315,416.3377 C 659.2315,234.6035 511.8566,87.2285 330.1223,87.2285 148.3881,87.2285 1.0132,234.6035 1.0132,416.3377 1.0132,598.072 148.3881,745.4469 330.1223,745.4469 511.8566,745.4469 659.2315,598.072 659.2315,416.3377 Z M 227.6556,349.5269 L 74.7807,216.8128 196.0586,122.0202 281.6239,304.0169 C 296.4951,297.5845 312.8947,294.0198 330.1253,294.0198 397.6682,294.0198 452.4433,348.7948 452.4433,416.3377 452.4433,437.7182 446.9548,457.8193 437.3101,475.3086 L 605.6386,592.7272 495.0534,699.8012 388.3539,523.9282 C 371.0392,533.321 351.204,538.6557 330.1253,538.6557 262.5824,538.6557 207.8074,483.8807 207.8074,416.3377 207.8074,391.6857 215.1042,368.7346 227.6552,349.5266 L 227.6556,349.5269 Z M 408.7096,510.0681 C 418.5088,503.9376 419.2008,503.2909 421.6282,497.5042 417.6363,501.9998 413.3171,506.2014 408.7085,510.0694 L 408.7096,510.0681 Z" />
		<path style="fill-rule:evenodd;fill:#2d2c2b;" d="M 402.0043,416.3378 C 402.0043,376.6443 369.8169,344.4569 330.1233,344.4569 290.4298,344.4569 258.2424,376.6443 258.2424,416.3378 258.2424,456.0314 290.4298,488.2188 330.1233,488.2188 369.8169,488.2188 402.0043,456.0314 402.0043,416.3378 Z M 368.1898,416.3378 C 368.1898,437.3562 351.1418,454.4043 330.1233,454.4043 309.105,454.4043 292.0569,437.3562 292.0569,416.3378 292.0569,395.3194 309.105,378.2714 330.1233,378.2714 351.1418,378.2714 368.1898,395.3194 368.1898,416.3378 Z" />
		<path style="fill-rule:evenodd;fill:#2d2c2b;" d="M 463.7128,416.3388 C 463.7128,342.5708 403.8913,282.7494 330.1233,282.7494 256.3554,282.7494 196.5339,342.5708 196.5339,416.3388 196.5339,490.1068 256.3554,549.9282 330.1233,549.9282 403.8913,549.9282 463.7128,490.1068 463.7128,416.3388 Z M 441.1698,416.3388 C 441.1698,477.6567 391.4411,527.3852 330.1233,527.3852 268.8055,527.3852 219.0768,477.6567 219.0768,416.3388 219.0768,355.021 268.8055,305.2924 330.1233,305.2924 391.4411,305.2924 441.1698,355.021 441.1698,416.3388 Z" />
		<path style="fill-rule:evenodd;fill:#2d2c2b;" d="M 660.2467,416.3387 C 660.2467,234.0468 512.4159,86.2161 330.124,86.2161 147.832,86.2161 0.0012,234.0468 0.0012,416.3387 0.0012,598.6307 147.832,746.4615 330.124,746.4615 512.4159,746.4615 660.2467,598.6307 660.2467,416.3387 Z M 637.7037,416.3387 C 637.7037,586.1805 499.9658,723.9186 330.124,723.9186 160.2822,723.9186 22.5442,586.1805 22.5442,416.3387 22.5442,246.4969 160.2822,108.759 330.124,108.759 499.9658,108.759 637.7037,246.4969 637.7037,416.3387 Z" />
	</g>
	<path style="fill-rule:evenodd;fill:#2d2c2b;" d="M 48.7556,673.7933 L 48.7556,158.8871 806.9597,158.8871 806.9597,673.7933 48.7556,673.7933 Z M 20.4091,687.9666 C 20.4084,691.592 21.7922,695.2204 24.5603,697.9886 27.3285,700.7567 30.9569,702.1405 34.5823,702.1398 L 821.133,702.1398 C 824.7584,702.1405 828.3868,700.7567 831.155,697.9886 833.9231,695.2204 835.3069,691.592 835.3062,687.9666 L 835.3062,144.7139 C 835.3069,141.0884 833.9231,137.4601 831.155,134.6919 828.3868,131.9237 824.7584,130.54 821.133,130.5406 L 34.5823,130.5406 C 30.9569,130.54 27.3285,131.9237 24.5603,134.6919 21.7922,137.4601 20.4084,141.0884 20.4091,144.7139 L 20.4091,687.9666 Z" />
	<g>
		<path style="fill-rule:evenodd;fill:#2d2c2b;" d="M 712.9701,223.8671 C 712.9701,205.0034 697.6723,189.7055 678.8085,189.7055 659.9448,189.7055 644.6469,205.0034 644.6469,223.8671 644.6469,242.7309 659.9448,258.0287 678.8085,258.0287 697.6723,258.0287 712.9701,242.7309 712.9701,223.8671 Z" />
		<path style="fill-rule:evenodd;fill:#2d2c2b;" d="M 689.5865,214.9061 C 685.0976,208.4934 676.2602,206.9339 669.8475,211.4227 663.4348,215.9116 661.8753,224.7491 666.3641,231.1617 L 722.1268,310.8227 722.1268,586.3186 C 722.1268,594.1463 728.4724,600.4918 736.3,600.4918 744.1277,600.4918 750.4733,594.1463 750.4733,586.3186 L 750.4733,301.8872 689.5865,214.9061 Z" />
		<path style="fill-rule:evenodd;fill:#2d2c2b;" d="M 699.6388,642.9722 L 699.6388,531.322 772.9613,531.322 772.9613,642.9722 699.6388,642.9722 Z" />
	</g>
</g>
</svg>