<?xml version="1.0" encoding="utf-8"?>
<!-- Created by sK1 2.0rc4 (https://sk1project.net/) -->
<svg xmlns="http://www.w3.org/2000/svg" height="832.677165354pt" viewBox="0 0 832.677165354 832.677165354" width="832.677165354pt" version="1.1" xmlns:xlink="http://www.w3.org/1999/xlink" id="a7d269f4-b409-11ea-be2e-a0f3c11e789f">

<g>
	<g>
		<path style="fill:#2d2c2b;" d="M 266.6745,3.1734 C 261.1352,3.1734 257.4586,3.7846 252.8575,7.2437 248.2563,10.7028 242.7047,16.9606 233.1281,28.3044 168.6735,104.6539 122.8466,197.8338 102.5381,293.8482 96.6952,321.472 91.9632,355.1961 91.7284,370.9965 91.6625,375.4282 91.6395,377.761 91.9689,379.5654 92.2982,381.3697 92.9878,382.5981 94.25,384.7204 97.4885,390.1657 102.5536,393.9846 108.8181,395.7117 112.6099,396.7571 115.3697,397.0798 119.828,395.87 124.2862,394.6602 130.4658,391.9462 141.3108,386.9425 167.6466,374.7919 181.2374,369.7235 207.3918,362.2816 266.6159,345.4305 335.3095,342.2967 398.1274,353.5948 417.4566,357.0713 434.0337,361.4885 472.2016,373.3303 492.4847,379.6233 526.6111,390.1877 548.0371,396.8026 571.4549,404.0323 583.9686,407.9377 591.7073,410.7546 599.446,413.5715 602.3899,415.2803 606.7922,418.1737 612.3875,421.8512 616.5194,425.6091 619.0729,429.2472 621.6264,432.8853 622.6054,436.3808 621.9655,439.6162 621.3811,442.5702 618.6534,445.6539 614.4409,448.286 610.2283,450.9181 604.555,453.098 598.1937,454.3441 596.4892,454.678 590.9079,455.0775 583.4735,455.4459 576.0392,455.8143 566.7045,456.1676 557.3028,456.4437 547.901,456.7196 538.431,456.9187 530.7347,456.9946 523.0384,457.0705 517.0878,457.0156 514.8228,456.7898 502.9304,455.6039 488.1044,450.0086 474.9824,441.7282 464.2482,434.9546 459.607,433.2203 450.9888,432.7542 445.0644,432.4339 442.4258,432.6879 437.7691,434.0329 429.4105,436.4472 424.6975,439.6471 413.8283,450.2676 L 404.2973,459.5814 398.3741,459.5814 C 393.4952,459.5814 389.8276,460.2805 387.3301,461.7632 384.8325,463.2459 383.553,465.5635 383.553,468.5491 383.553,471.574 384.5073,473.9432 386.4037,475.5229 388.3,477.1025 391.0811,477.8782 394.6793,477.8862 399.1684,477.8982 401.4165,477.9547 403.9977,479.3278 406.579,480.7011 409.5496,483.4536 415.2885,488.8883 426.7102,499.7045 430.8666,502.3216 440.2147,504.5955 446.7558,506.1865 455.4691,505.7083 461.8388,503.4099 464.3797,502.493 470.5488,499.1793 475.7148,495.9846 486.4384,489.3532 496.9436,484.8109 506.6651,482.6005 510.909,481.6355 514.7127,481.1527 526.2594,481.1108 537.8062,481.0691 557.0632,481.475 592.1294,482.3026 606.6449,482.6451 620.496,482.8963 631.1147,483.0288 636.4241,483.0952 640.9229,483.1324 644.2987,483.1342 647.6744,483.1358 649.8977,483.1102 650.751,483.0348 659.8765,482.2242 665.3027,479.8962 671.2081,474.2548 676.9506,468.7691 678.4208,465.401 678.4208,457.7098 678.4208,455.8378 678.4985,454.6313 678.6676,453.9622 678.7523,453.6277 678.8595,453.4441 678.9439,453.3586 679.0279,453.273 679.0886,453.2468 679.248,453.2468 679.33,453.2468 679.8333,453.4793 680.4274,454.032 681.0215,454.585 681.7502,455.409 682.5626,456.4264 684.1874,458.4614 686.1438,461.279 688.104,464.3731 692.0245,470.5613 695.9678,477.875 697.3588,482.1674 701.0662,493.6072 702.2237,516.1848 699.7703,529.5277 696.0072,549.993 684.2739,570.7953 667.2543,587.1499 653.6343,600.2378 639.455,608.8492 617.5896,617.2902 L 617.5656,617.2962 617.5475,617.3082 C 561.5066,622.1241 587.1672,689.2847 665.0894,638.791 693.7012,620.5767 715.8935,595.5917 728.5076,567.3626 752.6025,513.4403 742.6808,459.745 691.1873,410.9214 629.0594,358.5144 548.3184,327.7837 482.0725,290.74 405.8428,246.9016 346.1674,179.9778 314.0348,102.3026 304.2264,78.5922 299.2249,62.537 292.6451,33.6426 290.4977,24.2127 289.4147,19.4701 288.387,16.5342 287.3593,13.5983 286.3492,12.468 284.4936,10.4636 279.9271,5.5312 274.1511,3.1734 266.6745,3.1734 Z M 266.5224,57.8348 C 266.6471,57.8295 266.7934,57.8265 266.9403,57.8265 271.9684,57.8265 276.173,61.3589 277.2076,66.0769 297.8069,156.2199 335.2136,207.8258 393.0251,255.2337 395.4477,257.1765 396.9862,260.1362 396.9862,263.4544 396.9862,269.2586 392.2792,273.9656 386.4751,273.9656 383.884,273.9656 381.5116,273.0275 379.679,271.4726 319.4411,222.0757 278.1812,164.694 256.7276,70.8263 256.5377,70.0787 256.4287,69.2209 256.4287,68.3377 256.4287,62.6803 260.9006,58.0653 266.5017,57.8355 L 266.5224,57.8348 Z" />
		<path style="fill:#2d2c2b;" d="M 132.4703,622.125 L 132.4703,767.4071 561.5065,767.4071 561.5065,622.125 132.4703,622.125 Z" />
		<path style="fill:#2d2c2b;" d="M 123.3874,560.7115 C 123.3414,560.7112 123.287,560.711 123.2326,560.711 110.6293,560.711 100.4084,570.9318 100.4084,583.5351 100.4084,596.1384 110.6293,606.3593 123.2326,606.3593 123.287,606.3593 123.3414,606.3591 123.3957,606.3587 L 571.7195,606.3588 C 571.7655,606.3591 571.8199,606.3593 571.8743,606.3593 584.4776,606.3593 594.6985,596.1384 594.6985,583.5351 594.6985,570.9318 584.4776,560.711 571.8743,560.711 571.8199,560.711 571.7655,560.7112 571.7111,560.7115 L 123.3874,560.7115 Z" />
		<path style="fill:#2d2c2b;" d="M 123.3874,783.857 C 123.2693,783.8548 123.13,783.8535 122.9904,783.8535 110.3871,783.8535 100.1663,794.0744 100.1663,806.6777 100.1663,819.281 110.3871,829.5018 122.9904,829.5018 123.13,829.5018 123.2693,829.5006 123.4082,829.4981 L 571.7195,829.4984 C 571.8376,829.5006 571.9769,829.5018 572.1165,829.5018 584.7198,829.5018 594.9406,819.281 594.9406,806.6777 594.9406,794.0744 584.7198,783.8535 572.1165,783.8535 571.9769,783.8535 571.8376,783.8548 571.6987,783.8573 L 123.3874,783.857 Z" />
		<path style="fill:#2d2c2b;" d="M 142.6833,526.0846 C 142.6517,526.0841 142.6144,526.0838 142.5771,526.0838 138.4313,526.0838 135.0691,529.4459 135.0691,533.5918 135.0691,537.7376 138.4313,541.0997 142.5771,541.0997 142.6144,541.0997 142.6517,541.0994 142.6889,541.0989 L 560.3707,541.099 C 560.4023,541.0994 560.4395,541.0997 560.4769,541.0997 564.6227,541.0997 567.9848,537.7376 567.9848,533.5918 567.9848,529.4459 564.6227,526.0838 560.4769,526.0838 560.4395,526.0838 560.4023,526.0841 560.3651,526.0846 L 142.6833,526.0846 Z" />
		<path style="fill:#2d2c2b;" d="M 346.8731,485.1176 C 342.778,485.1836 339.4825,488.52 339.4825,492.6246 339.4825,492.6618 339.4827,492.6989 339.4833,492.7359 L 339.4832,580.1305 C 339.4827,580.1621 339.4825,580.1993 339.4825,580.2367 339.4825,584.3825 342.8446,587.7446 346.9904,587.7446 351.1362,587.7446 354.4983,584.3825 354.4983,580.2367 354.4983,580.1993 354.4981,580.1621 354.4975,580.1249 L 354.4976,492.7303 C 354.4981,492.6989 354.4983,492.6618 354.4983,492.6246 354.4983,488.4788 351.1362,485.1166 346.9904,485.1166 346.9492,485.1166 346.908,485.117 346.8669,485.1176 Z" />
		<path style="fill:#2d2c2b;" d="M 443.3523,476.2673 C 439.2547,476.3301 435.9558,479.6677 435.9558,483.7744 435.9558,483.8115 435.9561,483.8486 435.9566,483.8856 L 435.9565,512.2549 C 435.9561,512.2865 435.9558,512.3237 435.9558,512.3611 435.9558,516.5069 439.3179,519.869 443.4637,519.869 447.6096,519.869 450.9717,516.5069 450.9717,512.3611 450.9717,512.3237 450.9714,512.2865 450.9709,512.2493 L 450.9709,483.88 C 450.9714,483.8486 450.9717,483.8115 450.9717,483.7744 450.9717,479.6286 447.6095,476.2664 443.4637,476.2664 443.4245,476.2664 443.3854,476.2667 443.3464,476.2673 Z" />
	</g>
</g>
</svg>