<?xml version="1.0" encoding="UTF-8" standalone="no"?>
<!-- Created with Inkscape (http://www.inkscape.org/) -->

<svg
   xmlns:dc="http://purl.org/dc/elements/1.1/"
   xmlns:cc="http://creativecommons.org/ns#"
   xmlns:rdf="http://www.w3.org/1999/02/22-rdf-syntax-ns#"
   xmlns:svg="http://www.w3.org/2000/svg"
   xmlns="http://www.w3.org/2000/svg"
   xmlns:sodipodi="http://sodipodi.sourceforge.net/DTD/sodipodi-0.dtd"
   xmlns:inkscape="http://www.inkscape.org/namespaces/inkscape"
   width="210mm"
   height="297mm"
   viewBox="0 0 210 297"
   version="1.1"
   id="svg879"
   sodipodi:docname="donwload.svg"
   inkscape:version="0.92.3 (2405546, 2018-03-11)">
  <defs
     id="defs873" />
  <sodipodi:namedview
     id="base"
     pagecolor="#ffffff"
     bordercolor="#666666"
     borderopacity="1.0"
     inkscape:pageopacity="0.0"
     inkscape:pageshadow="2"
     inkscape:zoom="0.35"
     inkscape:cx="4.5444319"
     inkscape:cy="731.2687"
     inkscape:document-units="mm"
     inkscape:current-layer="layer1"
     showgrid="false"
     inkscape:window-width="1341"
     inkscape:window-height="845"
     inkscape:window-x="558"
     inkscape:window-y="75"
     inkscape:window-maximized="0" />
  <metadata
     id="metadata876">
    <rdf:RDF>
      <cc:Work
         rdf:about="">
        <dc:format>image/svg+xml</dc:format>
        <dc:type
           rdf:resource="http://purl.org/dc/dcmitype/StillImage" />
        <dc:title></dc:title>
      </cc:Work>
    </rdf:RDF>
  </metadata>
  <g
     inkscape:label="Layer 1"
     inkscape:groupmode="layer"
     id="layer1">
    <path
       style="opacity:1;fill:#000000;fill-opacity:1;stroke:none;stroke-width:10.68464088;stroke-linecap:round;stroke-linejoin:round;stroke-miterlimit:4;stroke-dasharray:none;stroke-dashoffset:108.28346252;stroke-opacity:1"
       d="M 325.42969 299.66211 C 320.78944 299.66211 317.05273 303.64165 317.05273 308.58398 L 317.05273 560.52734 L 183.53906 560.52734 L 179.74023 564.32617 C 175.81122 568.25518 176.21524 574.9867 180.64648 579.41797 L 392.00195 790.77148 C 396.43322 795.20272 403.16279 795.6087 407.0918 791.67969 L 620.25977 578.51172 C 624.18877 574.58271 623.78475 567.85115 619.35352 563.41992 L 616.45898 560.52734 L 482.94727 560.52734 L 482.94727 308.58398 C 482.94727 303.64165 479.21055 299.66211 474.57031 299.66211 L 325.42969 299.66211 z M 68.183594 676.80469 C 58.900881 676.80469 51.427734 679.49897 51.427734 682.8457 L 51.427734 893.62109 C 51.427734 896.96783 58.900881 899.66211 68.183594 899.66211 L 731.81641 899.66211 C 741.09911 899.66211 748.57227 896.96783 748.57227 893.62109 L 748.57227 682.8457 C 748.57227 679.49897 741.09911 676.80469 731.81641 676.80469 L 556.29297 676.80469 L 408.28906 824.80859 C 407.71506 825.3826 407.09046 825.87851 406.42578 826.29492 C 405.7611 826.71134 405.05629 827.04837 404.32422 827.30859 C 402.86007 827.82905 401.2854 828.03922 399.69141 827.94336 C 398.09741 827.8475 396.4848 827.44507 394.94727 826.74414 C 393.40974 826.04321 391.94711 825.0428 390.65234 823.74805 L 243.70898 676.80469 L 68.183594 676.80469 z M 572.85742 793.94727 A 31.428572 31.428572 0 0 1 575.99414 794.10547 A 31.428572 31.428572 0 0 1 579.10156 794.57422 A 31.428572 31.428572 0 0 1 582.14453 795.35156 A 31.428572 31.428572 0 0 1 585.0957 796.42969 A 31.428572 31.428572 0 0 1 587.92383 797.79492 A 31.428572 31.428572 0 0 1 590.60352 799.4375 A 31.428572 31.428572 0 0 1 593.10352 801.33984 A 31.428572 31.428572 0 0 1 595.40234 803.48047 A 31.428572 31.428572 0 0 1 597.47656 805.83984 A 31.428572 31.428572 0 0 1 599.30273 808.39648 A 31.428572 31.428572 0 0 1 600.86719 811.12109 A 31.428572 31.428572 0 0 1 602.15039 813.98828 A 31.428572 31.428572 0 0 1 603.14062 816.96875 A 31.428572 31.428572 0 0 1 603.82812 820.03516 A 31.428572 31.428572 0 0 1 604.20703 823.1543 A 31.428572 31.428572 0 0 1 604.28516 825.37695 A 31.428572 31.428572 0 0 1 604.12891 828.51367 A 31.428572 31.428572 0 0 1 603.6582 831.62109 A 31.428572 31.428572 0 0 1 602.88086 834.66406 A 31.428572 31.428572 0 0 1 601.80469 837.61523 A 31.428572 31.428572 0 0 1 600.4375 840.44531 A 31.428572 31.428572 0 0 1 598.79688 843.12305 A 31.428572 31.428572 0 0 1 596.89453 845.62305 A 31.428572 31.428572 0 0 1 594.75391 847.92188 A 31.428572 31.428572 0 0 1 592.39258 849.99609 A 31.428572 31.428572 0 0 1 589.83789 851.82227 A 31.428572 31.428572 0 0 1 587.11328 853.38672 A 31.428572 31.428572 0 0 1 584.24609 854.66992 A 31.428572 31.428572 0 0 1 581.26367 855.66016 A 31.428572 31.428572 0 0 1 578.19922 856.34766 A 31.428572 31.428572 0 0 1 575.08008 856.72656 A 31.428572 31.428572 0 0 1 572.85742 856.80469 A 31.428572 31.428572 0 0 1 569.71875 856.64844 A 31.428572 31.428572 0 0 1 566.61328 856.17969 A 31.428572 31.428572 0 0 1 563.56836 855.40234 A 31.428572 31.428572 0 0 1 560.61719 854.32422 A 31.428572 31.428572 0 0 1 557.78906 852.95703 A 31.428572 31.428572 0 0 1 555.11133 851.31641 A 31.428572 31.428572 0 0 1 552.60938 849.41406 A 31.428572 31.428572 0 0 1 550.31055 847.27344 A 31.428572 31.428572 0 0 1 548.23828 844.91406 A 31.428572 31.428572 0 0 1 546.41016 842.35742 A 31.428572 31.428572 0 0 1 544.84766 839.63281 A 31.428572 31.428572 0 0 1 543.56445 836.76562 A 31.428572 31.428572 0 0 1 542.57422 833.7832 A 31.428572 31.428572 0 0 1 541.88477 830.71875 A 31.428572 31.428572 0 0 1 541.50781 827.59961 A 31.428572 31.428572 0 0 1 541.42773 825.37695 A 31.428572 31.428572 0 0 1 541.58594 822.23828 A 31.428572 31.428572 0 0 1 542.05469 819.13281 A 31.428572 31.428572 0 0 1 542.83203 816.08984 A 31.428572 31.428572 0 0 1 543.91016 813.13867 A 31.428572 31.428572 0 0 1 545.27539 810.30859 A 31.428572 31.428572 0 0 1 546.91797 807.63086 A 31.428572 31.428572 0 0 1 548.81836 805.13086 A 31.428572 31.428572 0 0 1 550.96094 802.83203 A 31.428572 31.428572 0 0 1 553.32031 800.75781 A 31.428572 31.428572 0 0 1 555.87695 798.92969 A 31.428572 31.428572 0 0 1 558.60156 797.36719 A 31.428572 31.428572 0 0 1 561.46875 796.08398 A 31.428572 31.428572 0 0 1 564.44922 795.09375 A 31.428572 31.428572 0 0 1 567.51562 794.40625 A 31.428572 31.428572 0 0 1 570.63281 794.02734 A 31.428572 31.428572 0 0 1 572.85742 793.94727 z M 673.14062 793.94727 A 31.428572 31.428572 0 0 1 676.27734 794.10547 A 31.428572 31.428572 0 0 1 679.38281 794.57422 A 31.428572 31.428572 0 0 1 682.42773 795.35156 A 31.428572 31.428572 0 0 1 685.37891 796.42969 A 31.428572 31.428572 0 0 1 688.20703 797.79492 A 31.428572 31.428572 0 0 1 690.88672 799.4375 A 31.428572 31.428572 0 0 1 693.38672 801.33984 A 31.428572 31.428572 0 0 1 695.68555 803.48047 A 31.428572 31.428572 0 0 1 697.75781 805.83984 A 31.428572 31.428572 0 0 1 699.58594 808.39648 A 31.428572 31.428572 0 0 1 701.14844 811.12109 A 31.428572 31.428572 0 0 1 702.43164 813.98828 A 31.428572 31.428572 0 0 1 703.42383 816.96875 A 31.428572 31.428572 0 0 1 704.11133 820.03516 A 31.428572 31.428572 0 0 1 704.49023 823.1543 A 31.428572 31.428572 0 0 1 704.56836 825.37695 A 31.428572 31.428572 0 0 1 704.41211 828.51367 A 31.428572 31.428572 0 0 1 703.94141 831.62109 A 31.428572 31.428572 0 0 1 703.16406 834.66406 A 31.428572 31.428572 0 0 1 702.08789 837.61523 A 31.428572 31.428572 0 0 1 700.7207 840.44531 A 31.428572 31.428572 0 0 1 699.07812 843.12305 A 31.428572 31.428572 0 0 1 697.17773 845.62305 A 31.428572 31.428572 0 0 1 695.03711 847.92188 A 31.428572 31.428572 0 0 1 692.67578 849.99609 A 31.428572 31.428572 0 0 1 690.12109 851.82227 A 31.428572 31.428572 0 0 1 687.39648 853.38672 A 31.428572 31.428572 0 0 1 684.52734 854.66992 A 31.428572 31.428572 0 0 1 681.54688 855.66016 A 31.428572 31.428572 0 0 1 678.48242 856.34766 A 31.428572 31.428572 0 0 1 675.36328 856.72656 A 31.428572 31.428572 0 0 1 673.14062 856.80469 A 31.428572 31.428572 0 0 1 670.00195 856.64844 A 31.428572 31.428572 0 0 1 666.89648 856.17969 A 31.428572 31.428572 0 0 1 663.85156 855.40234 A 31.428572 31.428572 0 0 1 660.90039 854.32422 A 31.428572 31.428572 0 0 1 658.07227 852.95703 A 31.428572 31.428572 0 0 1 655.39453 851.31641 A 31.428572 31.428572 0 0 1 652.89258 849.41406 A 31.428572 31.428572 0 0 1 650.59375 847.27344 A 31.428572 31.428572 0 0 1 648.52148 844.91406 A 31.428572 31.428572 0 0 1 646.69336 842.35742 A 31.428572 31.428572 0 0 1 645.13086 839.63281 A 31.428572 31.428572 0 0 1 643.84766 836.76562 A 31.428572 31.428572 0 0 1 642.85742 833.7832 A 31.428572 31.428572 0 0 1 642.16797 830.71875 A 31.428572 31.428572 0 0 1 641.79102 827.59961 A 31.428572 31.428572 0 0 1 641.71094 825.37695 A 31.428572 31.428572 0 0 1 641.86914 822.23828 A 31.428572 31.428572 0 0 1 642.33789 819.13281 A 31.428572 31.428572 0 0 1 643.11523 816.08984 A 31.428572 31.428572 0 0 1 644.19141 813.13867 A 31.428572 31.428572 0 0 1 645.55859 810.30859 A 31.428572 31.428572 0 0 1 647.20117 807.63086 A 31.428572 31.428572 0 0 1 649.10156 805.13086 A 31.428572 31.428572 0 0 1 651.24414 802.83203 A 31.428572 31.428572 0 0 1 653.60352 800.75781 A 31.428572 31.428572 0 0 1 656.1582 798.92969 A 31.428572 31.428572 0 0 1 658.88477 797.36719 A 31.428572 31.428572 0 0 1 661.75195 796.08398 A 31.428572 31.428572 0 0 1 664.73242 795.09375 A 31.428572 31.428572 0 0 1 667.79883 794.40625 A 31.428572 31.428572 0 0 1 670.91602 794.02734 A 31.428572 31.428572 0 0 1 673.14062 793.94727 z "
       transform="scale(0.26458333)"
       id="path2197" />
  </g>
</svg>
