<?xml version="1.0" encoding="UTF-8" standalone="no"?>
<!-- Created with Inkscape (http://www.inkscape.org/) -->

<svg
   xmlns:dc="http://purl.org/dc/elements/1.1/"
   xmlns:cc="http://creativecommons.org/ns#"
   xmlns:rdf="http://www.w3.org/1999/02/22-rdf-syntax-ns#"
   xmlns:svg="http://www.w3.org/2000/svg"
   xmlns="http://www.w3.org/2000/svg"
   xmlns:sodipodi="http://sodipodi.sourceforge.net/DTD/sodipodi-0.dtd"
   xmlns:inkscape="http://www.inkscape.org/namespaces/inkscape"
   width="210mm"
   height="297mm"
   viewBox="0 0 210 297"
   version="1.1"
   id="svg879"
   inkscape:version="0.92.3 (2405546, 2018-03-11)"
   sodipodi:docname="edit-white.svg">
  <defs
     id="defs873" />
  <sodipodi:namedview
     id="base"
     pagecolor="#ffffff"
     bordercolor="#666666"
     borderopacity="1.0"
     inkscape:pageopacity="0.0"
     inkscape:pageshadow="2"
     inkscape:zoom="0.35"
     inkscape:cx="4.5444319"
     inkscape:cy="731.2687"
     inkscape:document-units="mm"
     inkscape:current-layer="layer1"
     showgrid="false"
     inkscape:window-width="1814"
     inkscape:window-height="845"
     inkscape:window-x="85"
     inkscape:window-y="75"
     inkscape:window-maximized="0" />
  <metadata
     id="metadata876">
    <rdf:RDF>
      <cc:Work
         rdf:about="">
        <dc:format>image/svg+xml</dc:format>
        <dc:type
           rdf:resource="http://purl.org/dc/dcmitype/StillImage" />
        <dc:title></dc:title>
      </cc:Work>
    </rdf:RDF>
  </metadata>
  <g
     inkscape:label="Layer 1"
     inkscape:groupmode="layer"
     id="layer1">
    <path
       style="opacity:1;fill:#000000;fill-opacity:1;stroke:none;stroke-width:18.89763832;stroke-linecap:round;stroke-linejoin:round;stroke-miterlimit:4;stroke-dasharray:none;stroke-dashoffset:108.28346252;stroke-opacity:1"
       d="M 68.183594 202.51953 C 58.900881 202.51953 51.427734 210.9487 51.427734 221.41797 L 51.427734 880.76562 C 51.427734 891.23492 58.900881 899.66211 68.183594 899.66211 L 731.81641 899.66211 C 741.09911 899.66211 748.57227 891.23492 748.57227 880.76562 L 748.57227 221.41797 C 748.57227 210.9487 741.09911 202.51953 731.81641 202.51953 L 68.183594 202.51953 z M 593.44141 283.14844 C 595.31686 283.38498 600.25404 287.36214 605.40625 292.90234 L 675.74414 368.53906 C 681.63234 374.87074 685.50516 380.7734 684.42773 381.77539 L 622.6543 439.22266 C 621.5769 440.22465 615.97027 435.93325 610.08203 429.60156 L 539.74414 353.9668 C 533.85594 347.63513 529.98312 341.73246 531.06055 340.73047 L 592.83398 283.2832 C 592.96867 283.15795 593.17348 283.11465 593.44141 283.14844 z M 513.6875 361.74023 C 517.88415 361.74012 522.26211 363.58102 525.57422 367.14258 L 595.91211 442.7793 C 601.80035 449.11099 602.02032 458.41192 596.40625 463.63281 L 274.53711 762.95898 C 271.00891 766.23999 266.04321 767.10178 261.37695 765.7207 L 194.7793 790.04688 L 115.39258 819.04492 L 150.06836 741.96875 L 179.19922 677.21875 C 178.22655 672.51902 179.4578 667.70632 182.94336 664.46484 L 504.8125 365.13867 C 507.26866 362.85454 510.42344 361.74032 513.6875 361.74023 z "
       transform="scale(0.26458333)"
       id="rect1424" />
  </g>
</svg>
