<?xml version="1.0" encoding="UTF-8" standalone="no"?>
<svg
   xmlns:ooo="http://xml.openoffice.org/svg/export"
   xmlns:dc="http://purl.org/dc/elements/1.1/"
   xmlns:cc="http://creativecommons.org/ns#"
   xmlns:rdf="http://www.w3.org/1999/02/22-rdf-syntax-ns#"
   xmlns:svg="http://www.w3.org/2000/svg"
   xmlns="http://www.w3.org/2000/svg"
   xmlns:sodipodi="http://sodipodi.sourceforge.net/DTD/sodipodi-0.dtd"
   xmlns:inkscape="http://www.inkscape.org/namespaces/inkscape"
   version="1.2"
   width="328.13mm"
   height="464.06mm"
   viewBox="0 0 32813 46406"
   preserveAspectRatio="xMidYMid"
   fill-rule="evenodd"
   stroke-width="28.222"
   stroke-linejoin="round"
   xml:space="preserve"
   id="svg4987"
   sodipodi:docname="eletric.svg"
   inkscape:version="0.92.3 (2405546, 2018-03-11)"><metadata
   id="metadata4991"><rdf:RDF><cc:Work
       rdf:about=""><dc:format>image/svg+xml</dc:format><dc:type
         rdf:resource="http://purl.org/dc/dcmitype/StillImage" /><dc:title></dc:title></cc:Work></rdf:RDF></metadata><sodipodi:namedview
   pagecolor="#ffffff"
   bordercolor="#666666"
   borderopacity="1"
   objecttolerance="10"
   gridtolerance="10"
   guidetolerance="10"
   inkscape:pageopacity="0"
   inkscape:pageshadow="2"
   inkscape:window-width="1592"
   inkscape:window-height="996"
   id="namedview4989"
   showgrid="false"
   inkscape:zoom="0.2605334"
   inkscape:cx="378.81359"
   inkscape:cy="1241.9264"
   inkscape:window-x="328"
   inkscape:window-y="27"
   inkscape:window-maximized="0"
   inkscape:current-layer="svg4987" />
 <defs
   class="ClipPathGroup"
   id="defs4901">
  <clipPath
   id="presentation_clip_path"
   clipPathUnits="userSpaceOnUse">
   <rect
   x="0"
   y="0"
   width="32813"
   height="46406"
   id="rect4895" />
  </clipPath>
  <clipPath
   id="presentation_clip_path_shrink"
   clipPathUnits="userSpaceOnUse">
   <rect
   x="32"
   y="46"
   width="32748"
   height="46314"
   id="rect4898" />
  </clipPath>
 <clipPath
   clipPathUnits="userSpaceOnUse"
   id="presentation_clip_path-7">
   <rect
   id="rect5852"
   height="37125"
   width="26250"
   y="0"
   x="0" />
  </clipPath><clipPath
   clipPathUnits="userSpaceOnUse"
   id="presentation_clip_path_shrink-4">
   <rect
   id="rect5855"
   height="37051"
   width="26198"
   y="37"
   x="26" />
  </clipPath><g
   id="g5860"
   ooo:id-list="id3 id4 id5 id6 id7 id8"
   ooo:slide="id1" /><g
   transform="scale(0.00048828125,-0.00048828125)"
   id="bullet-char-template-57356-8">
   <path
   id="path5864"
   d="M 580,1141 L 1163,571 580,0 -4,571 580,1141 Z" />
  </g><g
   transform="scale(0.00048828125,-0.00048828125)"
   id="bullet-char-template-57354-5">
   <path
   id="path5867"
   d="M 8,1128 L 1137,1128 1137,0 8,0 8,1128 Z" />
  </g><g
   transform="scale(0.00048828125,-0.00048828125)"
   id="bullet-char-template-10146-8">
   <path
   id="path5870"
   d="M 174,0 L 602,739 174,1481 1456,739 174,0 Z M 1358,739 L 309,1346 659,739 1358,739 Z" />
  </g><g
   transform="scale(0.00048828125,-0.00048828125)"
   id="bullet-char-template-10132-2">
   <path
   id="path5873"
   d="M 2015,739 L 1276,0 717,0 1260,543 174,543 174,936 1260,936 717,1481 1274,1481 2015,739 Z" />
  </g><g
   transform="scale(0.00048828125,-0.00048828125)"
   id="bullet-char-template-10007-6">
   <path
   id="path5876"
   d="M 0,-2 C -7,14 -16,27 -25,37 L 356,567 C 262,823 215,952 215,954 215,979 228,992 255,992 264,992 276,990 289,987 310,991 331,999 354,1012 L 381,999 492,748 772,1049 836,1024 860,1049 C 881,1039 901,1025 922,1006 886,937 835,863 770,784 769,783 710,716 594,584 L 774,223 C 774,196 753,168 711,139 L 727,119 C 717,90 699,76 672,76 641,76 570,178 457,381 L 164,-76 C 142,-110 111,-127 72,-127 30,-127 9,-110 8,-76 1,-67 -2,-52 -2,-32 -2,-23 -1,-13 0,-2 Z" />
  </g><g
   transform="scale(0.00048828125,-0.00048828125)"
   id="bullet-char-template-10004-0">
   <path
   id="path5879"
   d="M 285,-33 C 182,-33 111,30 74,156 52,228 41,333 41,471 41,549 55,616 82,672 116,743 169,778 240,778 293,778 328,747 346,684 L 369,508 C 377,444 397,411 428,410 L 1163,1116 C 1174,1127 1196,1133 1229,1133 1271,1133 1292,1118 1292,1087 L 1292,965 C 1292,929 1282,901 1262,881 L 442,47 C 390,-6 338,-33 285,-33 Z" />
  </g><g
   transform="scale(0.00048828125,-0.00048828125)"
   id="bullet-char-template-9679-6">
   <path
   id="path5882"
   d="M 813,0 C 632,0 489,54 383,161 276,268 223,411 223,592 223,773 276,916 383,1023 489,1130 632,1184 813,1184 992,1184 1136,1130 1245,1023 1353,916 1407,772 1407,592 1407,412 1353,268 1245,161 1136,54 992,0 813,0 Z" />
  </g><g
   transform="scale(0.00048828125,-0.00048828125)"
   id="bullet-char-template-8226-6">
   <path
   id="path5885"
   d="M 346,457 C 273,457 209,483 155,535 101,586 74,649 74,723 74,796 101,859 155,911 209,963 273,989 346,989 419,989 480,963 531,910 582,859 608,796 608,723 608,648 583,586 532,535 482,483 420,457 346,457 Z" />
  </g><g
   transform="scale(0.00048828125,-0.00048828125)"
   id="bullet-char-template-8211-4">
   <path
   id="path5888"
   d="M -4,459 L 1135,459 1135,606 -4,606 -4,459 Z" />
  </g><g
   transform="scale(0.00048828125,-0.00048828125)"
   id="bullet-char-template-61548-6">
   <path
   id="path5891"
   d="M 173,740 C 173,903 231,1043 346,1159 462,1274 601,1332 765,1332 928,1332 1067,1274 1183,1159 1299,1043 1357,903 1357,740 1357,577 1299,437 1183,322 1067,206 928,148 765,148 601,148 462,206 346,322 231,437 173,577 173,740 Z" />
  </g></defs>
 <defs
   class="TextShapeIndex"
   id="defs4905">
  <g
   ooo:slide="id1"
   ooo:id-list="id3 id4 id5 id6 id7"
   id="g4903" />
 </defs>
 <defs
   class="EmbeddedBulletChars"
   id="defs4937">
  <g
   id="bullet-char-template-57356"
   transform="scale(0.00048828125,-0.00048828125)">
   <path
   d="M 580,1141 L 1163,571 580,0 -4,571 580,1141 Z"
   id="path4907" />
  </g>
  <g
   id="bullet-char-template-57354"
   transform="scale(0.00048828125,-0.00048828125)">
   <path
   d="M 8,1128 L 1137,1128 1137,0 8,0 8,1128 Z"
   id="path4910" />
  </g>
  <g
   id="bullet-char-template-10146"
   transform="scale(0.00048828125,-0.00048828125)">
   <path
   d="M 174,0 L 602,739 174,1481 1456,739 174,0 Z M 1358,739 L 309,1346 659,739 1358,739 Z"
   id="path4913" />
  </g>
  <g
   id="bullet-char-template-10132"
   transform="scale(0.00048828125,-0.00048828125)">
   <path
   d="M 2015,739 L 1276,0 717,0 1260,543 174,543 174,936 1260,936 717,1481 1274,1481 2015,739 Z"
   id="path4916" />
  </g>
  <g
   id="bullet-char-template-10007"
   transform="scale(0.00048828125,-0.00048828125)">
   <path
   d="M 0,-2 C -7,14 -16,27 -25,37 L 356,567 C 262,823 215,952 215,954 215,979 228,992 255,992 264,992 276,990 289,987 310,991 331,999 354,1012 L 381,999 492,748 772,1049 836,1024 860,1049 C 881,1039 901,1025 922,1006 886,937 835,863 770,784 769,783 710,716 594,584 L 774,223 C 774,196 753,168 711,139 L 727,119 C 717,90 699,76 672,76 641,76 570,178 457,381 L 164,-76 C 142,-110 111,-127 72,-127 30,-127 9,-110 8,-76 1,-67 -2,-52 -2,-32 -2,-23 -1,-13 0,-2 Z"
   id="path4919" />
  </g>
  <g
   id="bullet-char-template-10004"
   transform="scale(0.00048828125,-0.00048828125)">
   <path
   d="M 285,-33 C 182,-33 111,30 74,156 52,228 41,333 41,471 41,549 55,616 82,672 116,743 169,778 240,778 293,778 328,747 346,684 L 369,508 C 377,444 397,411 428,410 L 1163,1116 C 1174,1127 1196,1133 1229,1133 1271,1133 1292,1118 1292,1087 L 1292,965 C 1292,929 1282,901 1262,881 L 442,47 C 390,-6 338,-33 285,-33 Z"
   id="path4922" />
  </g>
  <g
   id="bullet-char-template-9679"
   transform="scale(0.00048828125,-0.00048828125)">
   <path
   d="M 813,0 C 632,0 489,54 383,161 276,268 223,411 223,592 223,773 276,916 383,1023 489,1130 632,1184 813,1184 992,1184 1136,1130 1245,1023 1353,916 1407,772 1407,592 1407,412 1353,268 1245,161 1136,54 992,0 813,0 Z"
   id="path4925" />
  </g>
  <g
   id="bullet-char-template-8226"
   transform="scale(0.00048828125,-0.00048828125)">
   <path
   d="M 346,457 C 273,457 209,483 155,535 101,586 74,649 74,723 74,796 101,859 155,911 209,963 273,989 346,989 419,989 480,963 531,910 582,859 608,796 608,723 608,648 583,586 532,535 482,483 420,457 346,457 Z"
   id="path4928" />
  </g>
  <g
   id="bullet-char-template-8211"
   transform="scale(0.00048828125,-0.00048828125)">
   <path
   d="M -4,459 L 1135,459 1135,606 -4,606 -4,459 Z"
   id="path4931" />
  </g>
  <g
   id="bullet-char-template-61548"
   transform="scale(0.00048828125,-0.00048828125)">
   <path
   d="M 173,740 C 173,903 231,1043 346,1159 462,1274 601,1332 765,1332 928,1332 1067,1274 1183,1159 1299,1043 1357,903 1357,740 1357,577 1299,437 1183,322 1067,206 928,148 765,148 601,148 462,206 346,322 231,437 173,577 173,740 Z"
   id="path4934" />
  </g>
 </defs>
 <defs
   class="TextEmbeddedBitmaps"
   id="defs4939" />
 <g
   id="g4944">
  <g
   id="id2"
   class="Master_Slide">
   <g
   id="bg-id2"
   class="Background" />
   <g
   id="bo-id2"
   class="BackgroundObjects" />
  </g>
 </g>
 
<g
   transform="matrix(0.76840242,0,0,0.76840242,-1376.7246,-10103.427)"
   id="g5733" /><g
   transform="matrix(3.7531591,2.1553987,-3.5133566,2.3025144,208085.29,-116678.26)"
   id="g6017"
   style="fill-rule:evenodd;stroke-width:28.22200012;stroke-linejoin:round"><g
     id="g5901">
  <g
   id="id2-2"
   class="Master_Slide">
   <g
   id="bg-id2-8"
   class="Background" />
   <g
   id="bo-id2-9"
   class="BackgroundObjects" />
  </g>
 </g><path
     style="fill:#000000;fill-rule:evenodd;stroke:none;stroke-width:23.12810326;stroke-linejoin:round"
     inkscape:connector-curvature="0"
     d="m 196.21207,52711.261 2300.52303,6655.07 713.6099,-1110.198 3037.772,5301.507 -2913.5323,-7674.261 -730.9888,1262.186 z"
     id="path5940-3" /></g></svg>