<?xml version="1.0" encoding="UTF-8" standalone="no"?>
<!-- Created with Inkscape (http://www.inkscape.org/) -->

<svg
   xmlns:dc="http://purl.org/dc/elements/1.1/"
   xmlns:cc="http://creativecommons.org/ns#"
   xmlns:rdf="http://www.w3.org/1999/02/22-rdf-syntax-ns#"
   xmlns:svg="http://www.w3.org/2000/svg"
   xmlns="http://www.w3.org/2000/svg"
   xmlns:sodipodi="http://sodipodi.sourceforge.net/DTD/sodipodi-0.dtd"
   xmlns:inkscape="http://www.inkscape.org/namespaces/inkscape"
   width="210mm"
   height="297mm"
   viewBox="0 0 210 297"
   version="1.1"
   id="svg8"
   sodipodi:docname="exclamation-black.svg"
   inkscape:version="0.92.3 (2405546, 2018-03-11)">
  <defs
     id="defs2" />
  <sodipodi:namedview
     id="base"
     pagecolor="#ffffff"
     bordercolor="#666666"
     borderopacity="1.0"
     inkscape:pageopacity="0.0"
     inkscape:pageshadow="2"
     inkscape:zoom="0.35"
     inkscape:cx="-482.07355"
     inkscape:cy="548.57143"
     inkscape:document-units="mm"
     inkscape:current-layer="layer1"
     showgrid="false"
     inkscape:window-width="1920"
     inkscape:window-height="1016"
     inkscape:window-x="0"
     inkscape:window-y="27"
     inkscape:window-maximized="1" />
  <metadata
     id="metadata5">
    <rdf:RDF>
      <cc:Work
         rdf:about="">
        <dc:format>image/svg+xml</dc:format>
        <dc:type
           rdf:resource="http://purl.org/dc/dcmitype/StillImage" />
        <dc:title />
      </cc:Work>
    </rdf:RDF>
  </metadata>
  <g
     inkscape:label="Layer 1"
     inkscape:groupmode="layer"
     id="layer1">
    <path
       style="opacity:1;fill:#000000;fill-opacity:1;stroke:none;stroke-width:16.58242416;stroke-linejoin:round;stroke-miterlimit:4;stroke-dasharray:none;stroke-dashoffset:108.28346252;stroke-opacity:1"
       d="m 106.98004,55.083165 a 8.292041,8.292041 0 0 0 -7.5706,4.136698 L 57.0482,132.59265 14.68491,205.96388 a 8.292041,8.292041 0 0 0 7.18146,12.43748 h 84.72299 84.72249 a 8.292041,8.292041 0 0 0 7.18146,-12.43748 L 156.13209,132.59265 113.76878,59.219863 a 8.292041,8.292041 0 0 0 -6.78874,-4.136698 z m -9.9627,56.980495 h 19.14406 l -3.43029,59.75553 h -12.33879 z m 9.62732,64.29272 c 1.29103,0 2.50851,0.25823 3.65196,0.77463 1.14351,0.47953 2.13903,1.14374 2.98744,1.99213 0.84836,0.84839 1.5126,1.84393 1.99213,2.98741 0.51638,1.14347 0.77462,2.36096 0.77462,3.65198 0,1.32791 -0.25824,2.5822 -0.77462,3.76256 -0.47953,1.14348 -1.14377,2.13902 -1.99213,2.98741 -0.84841,0.84838 -1.84393,1.51261 -2.98744,1.99213 -1.14345,0.51641 -2.36093,0.77463 -3.65196,0.77463 -1.32792,0 -2.56379,-0.25822 -3.70726,-0.77463 -1.14348,-0.47952 -2.15744,-1.14375 -3.04271,-1.99213 -0.84839,-0.84839 -1.53101,-1.84393 -2.04743,-2.98741 -0.47953,-1.18036 -0.71932,-2.43465 -0.71932,-3.76256 0,-1.29102 0.23979,-2.50851 0.71932,-3.65198 0.51642,-1.14348 1.19904,-2.13902 2.04743,-2.98741 0.88527,-0.84839 1.89923,-1.5126 3.04271,-1.99213 1.14347,-0.5164 2.37934,-0.77463 3.70726,-0.77463 z"
       id="path815-5"
       inkscape:connector-curvature="0" />
  </g>
</svg>
