<?xml version="1.0" encoding="UTF-8" standalone="no"?>
<!-- Created with Inkscape (http://www.inkscape.org/) -->

<svg
   xmlns:dc="http://purl.org/dc/elements/1.1/"
   xmlns:cc="http://creativecommons.org/ns#"
   xmlns:rdf="http://www.w3.org/1999/02/22-rdf-syntax-ns#"
   xmlns:svg="http://www.w3.org/2000/svg"
   xmlns="http://www.w3.org/2000/svg"
   xmlns:sodipodi="http://sodipodi.sourceforge.net/DTD/sodipodi-0.dtd"
   xmlns:inkscape="http://www.inkscape.org/namespaces/inkscape"
   width="210mm"
   height="297mm"
   viewBox="0 0 210 297"
   version="1.1"
   id="svg8"
   sodipodi:docname="exclamation-circle-black.svg"
   inkscape:version="0.92.3 (2405546, 2018-03-11)">
  <defs
     id="defs2" />
  <sodipodi:namedview
     id="base"
     pagecolor="#ffffff"
     bordercolor="#666666"
     borderopacity="1.0"
     inkscape:pageopacity="0.0"
     inkscape:pageshadow="2"
     inkscape:zoom="0.35"
     inkscape:cx="-754.28571"
     inkscape:cy="548.57143"
     inkscape:document-units="mm"
     inkscape:current-layer="g934"
     showgrid="false"
     inkscape:window-width="1920"
     inkscape:window-height="1016"
     inkscape:window-x="0"
     inkscape:window-y="27"
     inkscape:window-maximized="1" />
  <metadata
     id="metadata5">
    <rdf:RDF>
      <cc:Work
         rdf:about="">
        <dc:format>image/svg+xml</dc:format>
        <dc:type
           rdf:resource="http://purl.org/dc/dcmitype/StillImage" />
        <dc:title></dc:title>
      </cc:Work>
    </rdf:RDF>
  </metadata>
  <g
     inkscape:label="Layer 1"
     inkscape:groupmode="layer"
     id="layer1">
    <g
       id="g934"
       transform="translate(3.7797652,9.0714333)">
      <path
         style="opacity:1;fill:#000000;fill-opacity:1;stroke:none;stroke-width:79.23778534;stroke-linejoin:round;stroke-miterlimit:4;stroke-dasharray:none;stroke-dashoffset:108.28346252;stroke-opacity:1"
         d="M 405.71484 219.66211 A 354.2857 354.2857 0 0 0 51.427734 573.94727 A 354.2857 354.2857 0 0 0 405.71484 928.23438 A 354.2857 354.2857 0 0 0 760 573.94727 A 354.2857 354.2857 0 0 0 405.71484 219.66211 z M 351.09961 336.54688 L 460.33008 336.54688 L 440.75586 677.49609 L 370.35742 677.49609 L 351.09961 336.54688 z M 406.0293 703.38281 C 413.39546 703.38281 420.34092 704.85627 426.86523 707.80273 C 433.38955 710.53874 439.07344 714.3254 443.91406 719.16602 C 448.75468 724.00664 452.54134 729.69053 455.27734 736.21484 C 458.22381 742.73916 459.69727 749.68462 459.69727 757.05078 C 459.69727 764.6274 458.22381 771.7828 455.27734 778.51758 C 452.54134 785.04189 448.75468 790.72383 443.91406 795.56445 C 439.07344 800.40507 433.38955 804.19369 426.86523 806.92969 C 420.34092 809.87615 413.39546 811.34961 406.0293 811.34961 C 398.45267 811.34961 391.40322 809.87615 384.87891 806.92969 C 378.35459 804.19369 372.56671 800.40507 367.51562 795.56445 C 362.67501 790.72383 358.78045 785.04189 355.83398 778.51758 C 353.09798 771.7828 351.73047 764.6274 351.73047 757.05078 C 351.73047 749.68462 353.09798 742.73916 355.83398 736.21484 C 358.78045 729.69053 362.67501 724.00664 367.51562 719.16602 C 372.56671 714.3254 378.35459 710.53874 384.87891 707.80273 C 391.40322 704.85627 398.45267 703.38281 406.0293 703.38281 z "
         transform="matrix(0.26458333,0,0,0.26458333,-3.7797652,-9.0714333)"
         id="path1084" />
    </g>
  </g>
</svg>
