<?xml version="1.0" encoding="UTF-8" standalone="no"?>
<!-- Created with Inkscape (http://www.inkscape.org/) -->

<svg
   xmlns:dc="http://purl.org/dc/elements/1.1/"
   xmlns:cc="http://creativecommons.org/ns#"
   xmlns:rdf="http://www.w3.org/1999/02/22-rdf-syntax-ns#"
   xmlns:svg="http://www.w3.org/2000/svg"
   xmlns="http://www.w3.org/2000/svg"
   xmlns:sodipodi="http://sodipodi.sourceforge.net/DTD/sodipodi-0.dtd"
   xmlns:inkscape="http://www.inkscape.org/namespaces/inkscape"
   width="210mm"
   height="297mm"
   viewBox="0 0 210 297"
   version="1.1"
   id="svg8"
   inkscape:version="0.92.3 (2405546, 2018-03-11)"
   sodipodi:docname="exclamation-white.svg">
  <defs
     id="defs2" />
  <sodipodi:namedview
     id="base"
     pagecolor="#ffffff"
     bordercolor="#666666"
     borderopacity="1.0"
     inkscape:pageopacity="0.0"
     inkscape:pageshadow="2"
     inkscape:zoom="0.35"
     inkscape:cx="197.40157"
     inkscape:cy="548.57143"
     inkscape:document-units="mm"
     inkscape:current-layer="layer1"
     showgrid="false"
     inkscape:window-width="1679"
     inkscape:window-height="841"
     inkscape:window-x="95"
     inkscape:window-y="122"
     inkscape:window-maximized="0" />
  <metadata
     id="metadata5">
    <rdf:RDF>
      <cc:Work
         rdf:about="">
        <dc:format>image/svg+xml</dc:format>
        <dc:type
           rdf:resource="http://purl.org/dc/dcmitype/StillImage" />
        <dc:title></dc:title>
      </cc:Work>
    </rdf:RDF>
  </metadata>
  <g
     inkscape:label="Layer 1"
     inkscape:groupmode="layer"
     id="layer1">
    <path
       style="color:#000000;font-style:normal;font-variant:normal;font-weight:normal;font-stretch:normal;font-size:medium;line-height:normal;font-family:sans-serif;font-variant-ligatures:normal;font-variant-position:normal;font-variant-caps:normal;font-variant-numeric:normal;font-variant-alternates:normal;font-feature-settings:normal;text-indent:0;text-align:start;text-decoration:none;text-decoration-line:none;text-decoration-style:solid;text-decoration-color:#000000;letter-spacing:normal;word-spacing:normal;text-transform:none;writing-mode:lr-tb;direction:ltr;text-orientation:mixed;dominant-baseline:auto;baseline-shift:baseline;text-anchor:start;white-space:normal;shape-padding:0;clip-rule:nonzero;display:inline;overflow:visible;visibility:visible;opacity:1;isolation:auto;mix-blend-mode:normal;color-interpolation:sRGB;color-interpolation-filters:linearRGB;solid-color:#000000;solid-opacity:1;vector-effect:none;fill:#000000;fill-opacity:1;fill-rule:nonzero;stroke:none;stroke-width:16.58242416;stroke-linecap:butt;stroke-linejoin:round;stroke-miterlimit:4;stroke-dasharray:none;stroke-dashoffset:108.28346252;stroke-opacity:1;color-rendering:auto;image-rendering:auto;shape-rendering:auto;text-rendering:auto;enable-background:accumulate"
       d="m 104.71094,51.792969 a 8.2920412,8.2920412 0 0 0 -7.570315,4.136719 L 54.779297,129.30078 12.417969,202.67383 a 8.2920412,8.2920412 0 0 0 7.179687,12.4375 h 84.724614 84.72265 a 8.2920412,8.2920412 0 0 0 7.17969,-12.4375 L 153.86328,129.30078 111.50195,55.929688 a 8.2920412,8.2920412 0 0 0 -6.79101,-4.136719 z m -0.39063,24.865234 35.18164,60.935547 35.1836,60.93555 H 104.32227 33.958984 l 35.181641,-60.93555 z"
       id="path815"
       inkscape:connector-curvature="0" />
    <g
       aria-label="!"
       style="font-style:normal;font-weight:normal;font-size:113.31490326px;line-height:1.25;font-family:sans-serif;letter-spacing:0px;word-spacing:0px;fill:#000000;fill-opacity:1;stroke:none;stroke-width:2.83287263"
       id="text828">
      <path
         d="M 110.46302,168.52888 H 98.124528 l -3.375102,-59.7559 h 19.144024 z m 3.31977,13.94305 q 0,1.99186 -0.77461,3.76241 -0.71929,1.71521 -1.99187,2.98779 -1.27258,1.27258 -2.98779,1.99186 -1.71522,0.77462 -3.65175,0.77462 -1.99187,0 -3.70708,-0.77462 -1.715219,-0.71928 -3.043128,-1.99186 -1.272579,-1.27258 -2.047193,-2.98779 -0.719284,-1.77055 -0.719284,-3.76241 0,-1.93654 0.719284,-3.65175 0.774614,-1.71522 2.047193,-2.9878 1.327909,-1.27258 3.043128,-1.99186 1.71521,-0.77462 3.70708,-0.77462 1.93653,0 3.65175,0.77462 1.71521,0.71928 2.98779,1.99186 1.27258,1.27258 1.99187,2.9878 0.77461,1.71521 0.77461,3.65175 z"
         style="font-style:normal;font-variant:normal;font-weight:normal;font-stretch:normal;font-family:Righteous;-inkscape-font-specification:Righteous;stroke-width:2.83287263;fill:#000000"
         id="path17866" />
    </g>
  </g>
</svg>
