<?xml version="1.0" encoding="UTF-8" standalone="no"?>
<!-- Created with Inkscape (http://www.inkscape.org/) -->

<svg
   xmlns:dc="http://purl.org/dc/elements/1.1/"
   xmlns:cc="http://creativecommons.org/ns#"
   xmlns:rdf="http://www.w3.org/1999/02/22-rdf-syntax-ns#"
   xmlns:svg="http://www.w3.org/2000/svg"
   xmlns="http://www.w3.org/2000/svg"
   xmlns:sodipodi="http://sodipodi.sourceforge.net/DTD/sodipodi-0.dtd"
   xmlns:inkscape="http://www.inkscape.org/namespaces/inkscape"
   width="210mm"
   height="297mm"
   viewBox="0 0 210 297"
   version="1.1"
   id="svg8"
   sodipodi:docname="exclamation-circle-white.svg"
   inkscape:version="0.92.3 (2405546, 2018-03-11)">
  <defs
     id="defs2" />
  <sodipodi:namedview
     id="base"
     pagecolor="#ffffff"
     bordercolor="#666666"
     borderopacity="1.0"
     inkscape:pageopacity="0.0"
     inkscape:pageshadow="2"
     inkscape:zoom="0.35"
     inkscape:cx="148.83015"
     inkscape:cy="548.57143"
     inkscape:document-units="mm"
     inkscape:current-layer="g934"
     showgrid="false"
     inkscape:window-width="1713"
     inkscape:window-height="854"
     inkscape:window-x="50"
     inkscape:window-y="77"
     inkscape:window-maximized="0" />
  <metadata
     id="metadata5">
    <rdf:RDF>
      <cc:Work
         rdf:about="">
        <dc:format>image/svg+xml</dc:format>
        <dc:type
           rdf:resource="http://purl.org/dc/dcmitype/StillImage" />
        <dc:title></dc:title>
      </cc:Work>
    </rdf:RDF>
  </metadata>
  <g
     inkscape:label="Layer 1"
     inkscape:groupmode="layer"
     id="layer1">
    <g
       id="g934"
       transform="translate(3.7797652,9.0714333)">
      <path
         style="color:#000000;font-style:normal;font-variant:normal;font-weight:normal;font-stretch:normal;font-size:medium;line-height:normal;font-family:sans-serif;font-variant-ligatures:normal;font-variant-position:normal;font-variant-caps:normal;font-variant-numeric:normal;font-variant-alternates:normal;font-feature-settings:normal;text-indent:0;text-align:start;text-decoration:none;text-decoration-line:none;text-decoration-style:solid;text-decoration-color:#000000;letter-spacing:normal;word-spacing:normal;text-transform:none;writing-mode:lr-tb;direction:ltr;text-orientation:mixed;dominant-baseline:auto;baseline-shift:baseline;text-anchor:start;white-space:normal;shape-padding:0;clip-rule:nonzero;display:inline;overflow:visible;visibility:visible;opacity:1;isolation:auto;mix-blend-mode:normal;color-interpolation:sRGB;color-interpolation-filters:linearRGB;solid-color:#000000;solid-opacity:1;vector-effect:none;fill:#000000;fill-opacity:1;fill-rule:nonzero;stroke:none;stroke-width:20.05259514;stroke-linecap:butt;stroke-linejoin:round;stroke-miterlimit:4;stroke-dasharray:none;stroke-dashoffset:108.28346252;stroke-opacity:1;color-rendering:auto;image-rendering:auto;shape-rendering:auto;text-rendering:auto;enable-background:accumulate"
         d="m 101.44922,43.101562 c -54.93568,2e-6 -99.6855506,44.747915 -99.6855481,99.683598 4.3e-6,54.93567 44.7498721,99.68554 99.6855481,99.68554 54.93568,0 99.68359,-44.74987 99.68359,-99.68554 0,-54.935685 -44.74791,-99.683599 -99.68359,-99.683598 z m 0,20.052735 c 44.09845,-2e-6 79.63281,35.532405 79.63281,79.630863 0,44.09845 -35.53436,79.63281 -79.63281,79.63281 -44.098449,0 -79.63281,-35.53437 -79.632814,-79.63281 -2e-6,-44.098456 35.534361,-79.630862 79.632814,-79.630863 z"
         id="path1084"
         inkscape:connector-curvature="0" />
      <g
         aria-label="!"
         style="font-style:normal;font-weight:normal;font-size:171.06329346px;line-height:1.25;font-family:sans-serif;letter-spacing:0px;word-spacing:0px;fill:#000000;fill-opacity:1;stroke:none;stroke-width:4.27658272"
         id="text828">
        <path
           d="M 110.72032,170.18256 H 92.093801 L 86.998654,79.973398 H 115.899 Z m 5.01162,21.0488 q 0,3.00697 -1.16938,5.67984 -1.08585,2.58933 -3.00697,4.51045 -1.92112,1.92112 -4.51046,3.00698 -2.58933,1.16937 -5.51278,1.16937 -3.00697,0 -5.596307,-1.16937 -2.589337,-1.08586 -4.593985,-3.00698 -1.921121,-1.92112 -3.090499,-4.51045 -1.085851,-2.67287 -1.085851,-5.67984 0,-2.92344 1.085851,-5.51278 1.169378,-2.58934 3.090499,-4.51046 2.004648,-1.92112 4.593985,-3.00697 2.589337,-1.16938 5.596307,-1.16938 2.92345,0 5.51278,1.16938 2.58934,1.08585 4.51046,3.00697 1.92112,1.92112 3.00697,4.51046 1.16938,2.58934 1.16938,5.51278 z"
           style="font-style:normal;font-variant:normal;font-weight:normal;font-stretch:normal;font-family:Righteous;-inkscape-font-specification:Righteous;fill:#000000;stroke-width:4.27658272"
           id="path16586" />
      </g>
    </g>
  </g>
</svg>
