<?xml version="1.0" encoding="UTF-8" standalone="no"?>
<!-- Created with Inkscape (http://www.inkscape.org/) -->

<svg
   xmlns:dc="http://purl.org/dc/elements/1.1/"
   xmlns:cc="http://creativecommons.org/ns#"
   xmlns:rdf="http://www.w3.org/1999/02/22-rdf-syntax-ns#"
   xmlns:svg="http://www.w3.org/2000/svg"
   xmlns="http://www.w3.org/2000/svg"
   xmlns:sodipodi="http://sodipodi.sourceforge.net/DTD/sodipodi-0.dtd"
   xmlns:inkscape="http://www.inkscape.org/namespaces/inkscape"
   width="210mm"
   height="297mm"
   viewBox="0 0 210 297"
   version="1.1"
   id="svg8"
   inkscape:version="0.92.3 (2405546, 2018-03-11)"
   sodipodi:docname="exclamation-simple.svg">
  <defs
     id="defs2" />
  <sodipodi:namedview
     id="base"
     pagecolor="#ffffff"
     bordercolor="#666666"
     borderopacity="1.0"
     inkscape:pageopacity="0.0"
     inkscape:pageshadow="2"
     inkscape:zoom="0.35"
     inkscape:cx="-754.28571"
     inkscape:cy="548.57143"
     inkscape:document-units="mm"
     inkscape:current-layer="layer1"
     showgrid="false"
     inkscape:window-width="1920"
     inkscape:window-height="1016"
     inkscape:window-x="0"
     inkscape:window-y="27"
     inkscape:window-maximized="1" />
  <metadata
     id="metadata5">
    <rdf:RDF>
      <cc:Work
         rdf:about="">
        <dc:format>image/svg+xml</dc:format>
        <dc:type
           rdf:resource="http://purl.org/dc/dcmitype/StillImage" />
        <dc:title></dc:title>
      </cc:Work>
    </rdf:RDF>
  </metadata>
  <g
     inkscape:label="Layer 1"
     inkscape:groupmode="layer"
     id="layer1">
    <g
       aria-label="!"
       style="font-style:normal;font-weight:normal;font-size:113.31490326px;line-height:1.25;font-family:sans-serif;letter-spacing:0px;word-spacing:0px;fill:#000000;fill-opacity:1;stroke:none;stroke-width:2.83287263"
       id="text828">
      <path
         d="M 110.46302,168.52888 H 98.124528 l -3.375102,-59.7559 h 19.144024 z m 3.31977,13.94305 q 0,1.99186 -0.77461,3.76241 -0.71929,1.71521 -1.99187,2.98779 -1.27258,1.27258 -2.98779,1.99186 -1.71522,0.77462 -3.65175,0.77462 -1.99187,0 -3.70708,-0.77462 -1.715219,-0.71928 -3.043128,-1.99186 -1.272579,-1.27258 -2.047193,-2.98779 -0.719284,-1.77055 -0.719284,-3.76241 0,-1.93654 0.719284,-3.65175 0.774614,-1.71522 2.047193,-2.9878 1.327909,-1.27258 3.043128,-1.99186 1.71521,-0.77462 3.70708,-0.77462 1.93653,0 3.65175,0.77462 1.71521,0.71928 2.98779,1.99186 1.27258,1.27258 1.99187,2.9878 0.77461,1.71521 0.77461,3.65175 z"
         style="font-style:normal;font-variant:normal;font-weight:normal;font-stretch:normal;font-family:Righteous;-inkscape-font-specification:Righteous;stroke-width:2.83287263"
         id="path17226" />
    </g>
  </g>
</svg>
