<?xml version="1.0" encoding="UTF-8" standalone="no"?>
<!-- Created with Inkscape (http://www.inkscape.org/) -->

<svg
   xmlns:ooo="http://xml.openoffice.org/svg/export"
   xmlns:dc="http://purl.org/dc/elements/1.1/"
   xmlns:cc="http://creativecommons.org/ns#"
   xmlns:rdf="http://www.w3.org/1999/02/22-rdf-syntax-ns#"
   xmlns:svg="http://www.w3.org/2000/svg"
   xmlns="http://www.w3.org/2000/svg"
   xmlns:sodipodi="http://sodipodi.sourceforge.net/DTD/sodipodi-0.dtd"
   xmlns:inkscape="http://www.inkscape.org/namespaces/inkscape"
   width="210mm"
   height="297mm"
   viewBox="0 0 210 297"
   version="1.1"
   id="svg8"
   sodipodi:docname="folder-close.svg"
   inkscape:version="0.92.3 (2405546, 2018-03-11)">
  <defs
     id="defs2">
    <clipPath
       clipPathUnits="userSpaceOnUse"
       id="presentation_clip_path">
      <rect
         id="rect2145"
         height="46406"
         width="32813"
         y="0"
         x="0" />
    </clipPath>
    <clipPath
       clipPathUnits="userSpaceOnUse"
       id="presentation_clip_path_shrink">
      <rect
         id="rect2148"
         height="46314"
         width="32748"
         y="46"
         x="32" />
    </clipPath>
    <g
       id="g2153"
       ooo:id-list="id3 id4 id5 id6 id7 id8 id9 id10 id11 id12 id13 id14 id15 id16 id17 id18 id19 id20 id21 id22 id23"
       ooo:slide="id1" />
    <g
       transform="scale(0.00048828125,-0.00048828125)"
       id="bullet-char-template-57356">
      <path
         id="path2157"
         d="M 580,1141 L 1163,571 580,0 -4,571 580,1141 Z" />
    </g>
    <g
       transform="scale(0.00048828125,-0.00048828125)"
       id="bullet-char-template-57354">
      <path
         id="path2160"
         d="M 8,1128 L 1137,1128 1137,0 8,0 8,1128 Z" />
    </g>
    <g
       transform="scale(0.00048828125,-0.00048828125)"
       id="bullet-char-template-10146">
      <path
         id="path2163"
         d="M 174,0 L 602,739 174,1481 1456,739 174,0 Z M 1358,739 L 309,1346 659,739 1358,739 Z" />
    </g>
    <g
       transform="scale(0.00048828125,-0.00048828125)"
       id="bullet-char-template-10132">
      <path
         id="path2166"
         d="M 2015,739 L 1276,0 717,0 1260,543 174,543 174,936 1260,936 717,1481 1274,1481 2015,739 Z" />
    </g>
    <g
       transform="scale(0.00048828125,-0.00048828125)"
       id="bullet-char-template-10007">
      <path
         id="path2169"
         d="M 0,-2 C -7,14 -16,27 -25,37 L 356,567 C 262,823 215,952 215,954 215,979 228,992 255,992 264,992 276,990 289,987 310,991 331,999 354,1012 L 381,999 492,748 772,1049 836,1024 860,1049 C 881,1039 901,1025 922,1006 886,937 835,863 770,784 769,783 710,716 594,584 L 774,223 C 774,196 753,168 711,139 L 727,119 C 717,90 699,76 672,76 641,76 570,178 457,381 L 164,-76 C 142,-110 111,-127 72,-127 30,-127 9,-110 8,-76 1,-67 -2,-52 -2,-32 -2,-23 -1,-13 0,-2 Z" />
    </g>
    <g
       transform="scale(0.00048828125,-0.00048828125)"
       id="bullet-char-template-10004">
      <path
         id="path2172"
         d="M 285,-33 C 182,-33 111,30 74,156 52,228 41,333 41,471 41,549 55,616 82,672 116,743 169,778 240,778 293,778 328,747 346,684 L 369,508 C 377,444 397,411 428,410 L 1163,1116 C 1174,1127 1196,1133 1229,1133 1271,1133 1292,1118 1292,1087 L 1292,965 C 1292,929 1282,901 1262,881 L 442,47 C 390,-6 338,-33 285,-33 Z" />
    </g>
    <g
       transform="scale(0.00048828125,-0.00048828125)"
       id="bullet-char-template-9679">
      <path
         id="path2175"
         d="M 813,0 C 632,0 489,54 383,161 276,268 223,411 223,592 223,773 276,916 383,1023 489,1130 632,1184 813,1184 992,1184 1136,1130 1245,1023 1353,916 1407,772 1407,592 1407,412 1353,268 1245,161 1136,54 992,0 813,0 Z" />
    </g>
    <g
       transform="scale(0.00048828125,-0.00048828125)"
       id="bullet-char-template-8226">
      <path
         id="path2178"
         d="M 346,457 C 273,457 209,483 155,535 101,586 74,649 74,723 74,796 101,859 155,911 209,963 273,989 346,989 419,989 480,963 531,910 582,859 608,796 608,723 608,648 583,586 532,535 482,483 420,457 346,457 Z" />
    </g>
    <g
       transform="scale(0.00048828125,-0.00048828125)"
       id="bullet-char-template-8211">
      <path
         id="path2181"
         d="M -4,459 L 1135,459 1135,606 -4,606 -4,459 Z" />
    </g>
    <g
       transform="scale(0.00048828125,-0.00048828125)"
       id="bullet-char-template-61548">
      <path
         id="path2184"
         d="M 173,740 C 173,903 231,1043 346,1159 462,1274 601,1332 765,1332 928,1332 1067,1274 1183,1159 1299,1043 1357,903 1357,740 1357,577 1299,437 1183,322 1067,206 928,148 765,148 601,148 462,206 346,322 231,437 173,577 173,740 Z" />
    </g>
  </defs>
  <sodipodi:namedview
     id="base"
     pagecolor="#ffffff"
     bordercolor="#666666"
     borderopacity="1.0"
     inkscape:pageopacity="0.0"
     inkscape:pageshadow="2"
     inkscape:zoom="0.47942709"
     inkscape:cx="39.09733"
     inkscape:cy="718.16715"
     inkscape:document-units="mm"
     inkscape:current-layer="g2329"
     showgrid="false"
     inkscape:window-width="1650"
     inkscape:window-height="987"
     inkscape:window-x="251"
     inkscape:window-y="30"
     inkscape:window-maximized="0" />
  <metadata
     id="metadata5">
    <rdf:RDF>
      <cc:Work
         rdf:about="">
        <dc:format>image/svg+xml</dc:format>
        <dc:type
           rdf:resource="http://purl.org/dc/dcmitype/StillImage" />
        <dc:title></dc:title>
      </cc:Work>
    </rdf:RDF>
  </metadata>
  <g
     inkscape:label="Layer 1"
     inkscape:groupmode="layer"
     id="layer1">
    <g
       id="g934"
       transform="translate(3.7797652,9.0714333)">
      <g
         transform="matrix(0.54554916,0,0,0.54554916,81.340894,318.67191)"
         id="g3133">
        <text
           transform="scale(1.0161275,0.98412846)"
           id="text919-6-4-0"
           y="-282.93283"
           x="29.631561"
           style="font-style:normal;font-weight:normal;font-size:122.86963654px;line-height:1.25;font-family:sans-serif;letter-spacing:0px;word-spacing:0px;fill:#5f8dd3;fill-opacity:1;stroke:none;stroke-width:3.07174087"
           xml:space="preserve"><tspan
             style="font-style:normal;font-variant:normal;font-weight:normal;font-stretch:normal;font-family:Dyuthi;-inkscape-font-specification:Dyuthi;fill:#5f8dd3;fill-opacity:1;stroke-width:3.07174087"
             y="-174.222"
             x="29.631561"
             id="tspan917-1-2-9"
             sodipodi:role="line" /></text>
        <g
           id="g2090"
           transform="translate(435.64564,-12.434379)">
          <g
             style="fill-rule:evenodd;stroke-width:28.22200012;stroke-linejoin:round"
             id="g2454"
             transform="matrix(0.0123256,0,0,0.0123256,-598.85227,-609.42959)">
            <g
               id="g2194">
              <g
                 class="Master_Slide"
                 id="id2">
                <g
                   class="Background"
                   id="bg-id2" />
                <g
                   class="BackgroundObjects"
                   id="bo-id2" />
              </g>
            </g>
            <g
               id="g2329"
               class="Page">
              <path
                 style="color:#000000;font-style:normal;font-variant:normal;font-weight:normal;font-stretch:normal;font-size:medium;line-height:normal;font-family:sans-serif;font-variant-ligatures:normal;font-variant-position:normal;font-variant-caps:normal;font-variant-numeric:normal;font-variant-alternates:normal;font-feature-settings:normal;text-indent:0;text-align:start;text-decoration:none;text-decoration-line:none;text-decoration-style:solid;text-decoration-color:#000000;letter-spacing:normal;word-spacing:normal;text-transform:none;writing-mode:lr-tb;direction:ltr;text-orientation:mixed;dominant-baseline:auto;baseline-shift:baseline;text-anchor:start;white-space:normal;shape-padding:0;clip-rule:nonzero;display:inline;overflow:visible;visibility:visible;opacity:1;isolation:auto;mix-blend-mode:normal;color-interpolation:sRGB;color-interpolation-filters:linearRGB;solid-color:#000000;solid-opacity:1;vector-effect:none;fill:#000000;fill-opacity:1;fill-rule:nonzero;stroke:none;stroke-width:33.23009109;stroke-linecap:butt;stroke-linejoin:round;stroke-miterlimit:4;stroke-dasharray:none;stroke-dashoffset:0;stroke-opacity:1;color-rendering:auto;image-rendering:auto;shape-rendering:auto;text-rendering:auto;enable-background:accumulate"
                 d="M 47.435547 373.26953 A 16.616708 16.616708 0 0 0 30.820312 389.88281 L 30.820312 798.04492 A 16.616708 16.616708 0 0 0 47.435547 814.66016 L 758.29102 814.66016 A 16.616708 16.616708 0 0 0 774.90625 798.04492 L 774.90625 452.86328 A 16.616708 16.616708 0 0 0 758.29102 436.24805 L 372.80469 436.24805 L 345.48633 382.36914 A 16.616708 16.616708 0 0 0 330.66602 373.26953 L 47.435547 373.26953 z "
                 transform="matrix(39.347806,0,0,39.347806,582.45868,1712.3207)"
                 id="path2910" />
            </g>
          </g>
        </g>
      </g>
    </g>
  </g>
</svg>
