<?xml version="1.0" encoding="UTF-8" standalone="no"?>
<!-- Created with Inkscape (http://www.inkscape.org/) -->

<svg
   xmlns:dc="http://purl.org/dc/elements/1.1/"
   xmlns:cc="http://creativecommons.org/ns#"
   xmlns:rdf="http://www.w3.org/1999/02/22-rdf-syntax-ns#"
   xmlns:svg="http://www.w3.org/2000/svg"
   xmlns="http://www.w3.org/2000/svg"
   xmlns:sodipodi="http://sodipodi.sourceforge.net/DTD/sodipodi-0.dtd"
   xmlns:inkscape="http://www.inkscape.org/namespaces/inkscape"
   width="210mm"
   height="297mm"
   viewBox="0 0 210 297"
   version="1.1"
   id="svg8"
   sodipodi:docname="interrogation-circle-black.svg"
   inkscape:version="0.92.3 (2405546, 2018-03-11)">
  <defs
     id="defs2" />
  <sodipodi:namedview
     id="base"
     pagecolor="#ffffff"
     bordercolor="#666666"
     borderopacity="1.0"
     inkscape:pageopacity="0.0"
     inkscape:pageshadow="2"
     inkscape:zoom="0.35"
     inkscape:cx="-754.28571"
     inkscape:cy="548.57143"
     inkscape:document-units="mm"
     inkscape:current-layer="g934"
     showgrid="false"
     inkscape:window-width="1920"
     inkscape:window-height="1016"
     inkscape:window-x="0"
     inkscape:window-y="27"
     inkscape:window-maximized="1" />
  <metadata
     id="metadata5">
    <rdf:RDF>
      <cc:Work
         rdf:about="">
        <dc:format>image/svg+xml</dc:format>
        <dc:type
           rdf:resource="http://purl.org/dc/dcmitype/StillImage" />
        <dc:title></dc:title>
      </cc:Work>
    </rdf:RDF>
  </metadata>
  <g
     inkscape:label="Layer 1"
     inkscape:groupmode="layer"
     id="layer1">
    <g
       id="g934"
       transform="translate(3.7797652,9.0714333)">
      <path
         style="opacity:1;fill:#000000;fill-opacity:1;stroke:none;stroke-width:79.23778534;stroke-linejoin:round;stroke-miterlimit:4;stroke-dasharray:none;stroke-dashoffset:108.28346252;stroke-opacity:1"
         d="M 405.71484 219.66211 A 354.2857 354.2857 0 0 0 51.427734 573.94727 A 354.2857 354.2857 0 0 0 405.71484 928.23438 A 354.2857 354.2857 0 0 0 760 573.94727 A 354.2857 354.2857 0 0 0 405.71484 219.66211 z M 377 355.61523 C 425.40833 355.61523 461.49372 367.38759 485.25781 390.93164 C 509.0219 414.25565 520.9043 445.83135 520.9043 485.6582 C 520.9043 514.04309 513.09339 538.79629 497.4707 559.91992 C 482.06805 581.04356 465.01376 594.90668 446.31055 601.50781 L 440.37109 604.80859 L 435.08984 609.75977 L 430.79883 617.68164 L 429.14844 629.5625 L 429.14844 682.70117 L 364.45703 682.70117 L 364.45703 604.80859 C 364.45703 577.74394 371.16753 560.91168 384.58984 554.31055 C 387.89041 552.55024 391.9619 550.7896 396.80273 549.0293 C 410.22504 544.18846 421.88736 536.4876 431.78906 525.92578 C 441.69077 515.14393 446.64062 503.59165 446.64062 491.26953 C 446.64062 470.1459 438.93976 454.19201 423.53711 443.41016 C 408.13446 432.6283 388.22108 427.23828 363.79688 427.23828 C 339.59271 427.23828 315.16963 431.63794 290.52539 440.43945 L 290.52539 372.11914 C 321.77077 361.11725 350.59546 355.61523 377 355.61523 z M 361.48633 720.32812 L 429.80859 720.32812 L 429.80859 792.28125 L 361.48633 792.28125 L 361.48633 720.32812 z "
         transform="matrix(0.26458333,0,0,0.26458333,-3.7797652,-9.0714333)"
         id="path1084" />
    </g>
  </g>
</svg>
