<?xml version="1.0" encoding="UTF-8" standalone="no"?>
<!-- Created with Inkscape (http://www.inkscape.org/) -->

<svg
   xmlns:dc="http://purl.org/dc/elements/1.1/"
   xmlns:cc="http://creativecommons.org/ns#"
   xmlns:rdf="http://www.w3.org/1999/02/22-rdf-syntax-ns#"
   xmlns:svg="http://www.w3.org/2000/svg"
   xmlns="http://www.w3.org/2000/svg"
   xmlns:sodipodi="http://sodipodi.sourceforge.net/DTD/sodipodi-0.dtd"
   xmlns:inkscape="http://www.inkscape.org/namespaces/inkscape"
   width="210mm"
   height="297mm"
   viewBox="0 0 210 297"
   version="1.1"
   id="svg8"
   sodipodi:docname="interrogation-black.svg"
   inkscape:version="0.92.3 (2405546, 2018-03-11)">
  <defs
     id="defs2" />
  <sodipodi:namedview
     id="base"
     pagecolor="#ffffff"
     bordercolor="#666666"
     borderopacity="1.0"
     inkscape:pageopacity="0.0"
     inkscape:pageshadow="2"
     inkscape:zoom="0.35"
     inkscape:cx="165.68101"
     inkscape:cy="548.57143"
     inkscape:document-units="mm"
     inkscape:current-layer="g934"
     showgrid="false"
     inkscape:window-width="1640"
     inkscape:window-height="753"
     inkscape:window-x="95"
     inkscape:window-y="122"
     inkscape:window-maximized="0" />
  <metadata
     id="metadata5">
    <rdf:RDF>
      <cc:Work
         rdf:about="">
        <dc:format>image/svg+xml</dc:format>
        <dc:type
           rdf:resource="http://purl.org/dc/dcmitype/StillImage" />
        <dc:title></dc:title>
      </cc:Work>
    </rdf:RDF>
  </metadata>
  <g
     inkscape:label="Layer 1"
     inkscape:groupmode="layer"
     id="layer1">
    <g
       id="g934"
       transform="translate(3.7797652,9.0714333)">
      <path
         style="opacity:1;fill:#000000;fill-opacity:1;stroke:none;stroke-width:62.67372894;stroke-linejoin:round;stroke-miterlimit:4;stroke-dasharray:none;stroke-dashoffset:108.28346252;stroke-opacity:1"
         d="M 401.47266 225.33594 A 31.339998 31.339998 0 0 0 372.86133 240.96484 L 212.75586 518.2793 L 52.648438 795.58789 A 31.339998 31.339998 0 0 0 79.785156 842.5957 L 400.00391 842.5957 L 720.2168 842.5957 A 31.339998 31.339998 0 0 0 747.35156 795.58789 L 587.24609 518.2793 L 427.14062 240.96484 A 31.339998 31.339998 0 0 0 401.47266 225.33594 z M 389.68164 467.45703 C 420.3525 467.45703 443.21487 474.91484 458.27148 489.83203 C 473.3281 504.6098 480.85742 524.61586 480.85742 549.84961 C 480.85742 567.83389 475.90808 583.5187 466.00977 596.90234 C 456.25087 610.28599 445.44581 619.06761 433.5957 623.25 L 429.83203 625.3418 L 426.48633 628.47852 L 423.76758 633.49805 L 422.72266 641.02539 L 422.72266 674.69336 L 381.73438 674.69336 L 381.73438 625.3418 C 381.73438 608.194 385.98603 597.53004 394.49023 593.34766 C 396.58141 592.23232 399.16143 591.1153 402.22852 590 C 410.73268 586.93291 418.12093 582.05512 424.39453 575.36328 C 430.66809 568.53205 433.80469 561.21144 433.80469 553.4043 C 433.80469 540.02065 428.92491 529.91326 419.16602 523.08203 C 409.40709 516.2508 396.79126 512.83594 381.31641 512.83594 C 365.98098 512.83594 350.50489 515.62463 334.89062 521.20117 L 334.89062 477.91211 C 354.68727 470.94149 372.95208 467.45703 389.68164 467.45703 z M 379.85156 698.5332 L 423.14062 698.5332 L 423.14062 744.12109 L 379.85156 744.12109 L 379.85156 698.5332 z "
         transform="matrix(0.26458333,0,0,0.26458333,-3.7797652,-9.0714333)"
         id="path815-9" />
    </g>
  </g>
</svg>
