<?xml version="1.0" encoding="UTF-8" standalone="no"?>
<!-- Created with Inkscape (http://www.inkscape.org/) -->

<svg
   xmlns:dc="http://purl.org/dc/elements/1.1/"
   xmlns:cc="http://creativecommons.org/ns#"
   xmlns:rdf="http://www.w3.org/1999/02/22-rdf-syntax-ns#"
   xmlns:svg="http://www.w3.org/2000/svg"
   xmlns="http://www.w3.org/2000/svg"
   xmlns:sodipodi="http://sodipodi.sourceforge.net/DTD/sodipodi-0.dtd"
   xmlns:inkscape="http://www.inkscape.org/namespaces/inkscape"
   width="210mm"
   height="297mm"
   viewBox="0 0 210 297"
   version="1.1"
   id="svg8"
   sodipodi:docname="interrogation-simple.svg"
   inkscape:version="0.92.3 (2405546, 2018-03-11)">
  <defs
     id="defs2" />
  <sodipodi:namedview
     id="base"
     pagecolor="#ffffff"
     bordercolor="#666666"
     borderopacity="1.0"
     inkscape:pageopacity="0.0"
     inkscape:pageshadow="2"
     inkscape:zoom="0.35"
     inkscape:cx="-754.28571"
     inkscape:cy="548.57143"
     inkscape:document-units="mm"
     inkscape:current-layer="g934"
     showgrid="false"
     inkscape:window-width="1920"
     inkscape:window-height="1016"
     inkscape:window-x="0"
     inkscape:window-y="27"
     inkscape:window-maximized="1" />
  <metadata
     id="metadata5">
    <rdf:RDF>
      <cc:Work
         rdf:about="">
        <dc:format>image/svg+xml</dc:format>
        <dc:type
           rdf:resource="http://purl.org/dc/dcmitype/StillImage" />
        <dc:title></dc:title>
      </cc:Work>
    </rdf:RDF>
  </metadata>
  <g
     inkscape:label="Layer 1"
     inkscape:groupmode="layer"
     id="layer1">
    <g
       id="g934"
       transform="translate(3.7797652,9.0714333)">
      <g
         aria-label="?"
         style="font-style:normal;font-weight:normal;font-size:113.31490326px;line-height:1.25;font-family:sans-serif;letter-spacing:0px;word-spacing:0px;fill:#000000;fill-opacity:1;stroke:none;stroke-width:2.83287263"
         id="text828">
        <path
           d="m 87.094973,118.62163 q 7.856795,-2.76647 14.496337,-2.76647 12.1725,0 18.14809,5.92026 5.97559,5.86493 5.97559,15.87958 0,7.13751 -3.92839,12.44914 -3.87307,5.31164 -8.57608,6.97153 l -0.99593,0.55329 -0.88528,0.82994 -0.71928,1.32791 -0.27665,1.99187 v 8.90805 H 99.488791 v -13.05777 q 0,-6.80553 3.375099,-8.46542 0.82995,-0.44263 2.0472,-0.88527 3.3751,-1.21725 5.86493,-3.87307 2.48983,-2.71115 2.48983,-5.8096 0,-5.31164 -3.87307,-8.02278 -3.87307,-2.71115 -10.014649,-2.71115 -6.086249,0 -12.283158,2.21318 z m 23.349067,70.43451 H 98.990825 V 176.9943 h 11.453215 z"
           style="font-style:normal;font-variant:normal;font-weight:normal;font-stretch:normal;font-family:Keraleeyam;-inkscape-font-specification:Keraleeyam;stroke-width:2.83287263"
           id="path22209" />
      </g>
    </g>
  </g>
</svg>
