<?xml version="1.0" encoding="UTF-8" standalone="no"?>
<svg
   xmlns:ooo="http://xml.openoffice.org/svg/export"
   xmlns:dc="http://purl.org/dc/elements/1.1/"
   xmlns:cc="http://creativecommons.org/ns#"
   xmlns:rdf="http://www.w3.org/1999/02/22-rdf-syntax-ns#"
   xmlns:svg="http://www.w3.org/2000/svg"
   xmlns="http://www.w3.org/2000/svg"
   xmlns:sodipodi="http://sodipodi.sourceforge.net/DTD/sodipodi-0.dtd"
   xmlns:inkscape="http://www.inkscape.org/namespaces/inkscape"
   version="1.2"
   width="328.13mm"
   height="464.06mm"
   viewBox="0 0 32813 46406"
   preserveAspectRatio="xMidYMid"
   fill-rule="evenodd"
   stroke-width="28.222"
   stroke-linejoin="round"
   xml:space="preserve"
   id="svg4987"
   sodipodi:docname="lamp.svg"
   inkscape:version="0.92.3 (2405546, 2018-03-11)"><metadata
   id="metadata4991"><rdf:RDF><cc:Work
       rdf:about=""><dc:format>image/svg+xml</dc:format><dc:type
         rdf:resource="http://purl.org/dc/dcmitype/StillImage" /><dc:title></dc:title></cc:Work></rdf:RDF></metadata><sodipodi:namedview
   pagecolor="#ffffff"
   bordercolor="#666666"
   borderopacity="1"
   objecttolerance="10"
   gridtolerance="10"
   guidetolerance="10"
   inkscape:pageopacity="0"
   inkscape:pageshadow="2"
   inkscape:window-width="1920"
   inkscape:window-height="1016"
   id="namedview4989"
   showgrid="false"
   inkscape:zoom="0.2605334"
   inkscape:cx="1161.8226"
   inkscape:cy="1241.9264"
   inkscape:window-x="0"
   inkscape:window-y="27"
   inkscape:window-maximized="1"
   inkscape:current-layer="svg4987" />
 <defs
   class="ClipPathGroup"
   id="defs4901">
  <clipPath
   id="presentation_clip_path"
   clipPathUnits="userSpaceOnUse">
   <rect
   x="0"
   y="0"
   width="32813"
   height="46406"
   id="rect4895" />
  </clipPath>
  <clipPath
   id="presentation_clip_path_shrink"
   clipPathUnits="userSpaceOnUse">
   <rect
   x="32"
   y="46"
   width="32748"
   height="46314"
   id="rect4898" />
  </clipPath>
 <clipPath
   clipPathUnits="userSpaceOnUse"
   id="presentation_clip_path-7">
   <rect
   id="rect5852"
   height="37125"
   width="26250"
   y="0"
   x="0" />
  </clipPath><clipPath
   clipPathUnits="userSpaceOnUse"
   id="presentation_clip_path_shrink-4">
   <rect
   id="rect5855"
   height="37051"
   width="26198"
   y="37"
   x="26" />
  </clipPath><g
   id="g5860"
   ooo:id-list="id3 id4 id5 id6 id7 id8"
   ooo:slide="id1" /><g
   transform="scale(0.00048828125,-0.00048828125)"
   id="bullet-char-template-57356-8">
   <path
   id="path5864"
   d="M 580,1141 L 1163,571 580,0 -4,571 580,1141 Z" />
  </g><g
   transform="scale(0.00048828125,-0.00048828125)"
   id="bullet-char-template-57354-5">
   <path
   id="path5867"
   d="M 8,1128 L 1137,1128 1137,0 8,0 8,1128 Z" />
  </g><g
   transform="scale(0.00048828125,-0.00048828125)"
   id="bullet-char-template-10146-8">
   <path
   id="path5870"
   d="M 174,0 L 602,739 174,1481 1456,739 174,0 Z M 1358,739 L 309,1346 659,739 1358,739 Z" />
  </g><g
   transform="scale(0.00048828125,-0.00048828125)"
   id="bullet-char-template-10132-2">
   <path
   id="path5873"
   d="M 2015,739 L 1276,0 717,0 1260,543 174,543 174,936 1260,936 717,1481 1274,1481 2015,739 Z" />
  </g><g
   transform="scale(0.00048828125,-0.00048828125)"
   id="bullet-char-template-10007-6">
   <path
   id="path5876"
   d="M 0,-2 C -7,14 -16,27 -25,37 L 356,567 C 262,823 215,952 215,954 215,979 228,992 255,992 264,992 276,990 289,987 310,991 331,999 354,1012 L 381,999 492,748 772,1049 836,1024 860,1049 C 881,1039 901,1025 922,1006 886,937 835,863 770,784 769,783 710,716 594,584 L 774,223 C 774,196 753,168 711,139 L 727,119 C 717,90 699,76 672,76 641,76 570,178 457,381 L 164,-76 C 142,-110 111,-127 72,-127 30,-127 9,-110 8,-76 1,-67 -2,-52 -2,-32 -2,-23 -1,-13 0,-2 Z" />
  </g><g
   transform="scale(0.00048828125,-0.00048828125)"
   id="bullet-char-template-10004-0">
   <path
   id="path5879"
   d="M 285,-33 C 182,-33 111,30 74,156 52,228 41,333 41,471 41,549 55,616 82,672 116,743 169,778 240,778 293,778 328,747 346,684 L 369,508 C 377,444 397,411 428,410 L 1163,1116 C 1174,1127 1196,1133 1229,1133 1271,1133 1292,1118 1292,1087 L 1292,965 C 1292,929 1282,901 1262,881 L 442,47 C 390,-6 338,-33 285,-33 Z" />
  </g><g
   transform="scale(0.00048828125,-0.00048828125)"
   id="bullet-char-template-9679-6">
   <path
   id="path5882"
   d="M 813,0 C 632,0 489,54 383,161 276,268 223,411 223,592 223,773 276,916 383,1023 489,1130 632,1184 813,1184 992,1184 1136,1130 1245,1023 1353,916 1407,772 1407,592 1407,412 1353,268 1245,161 1136,54 992,0 813,0 Z" />
  </g><g
   transform="scale(0.00048828125,-0.00048828125)"
   id="bullet-char-template-8226-6">
   <path
   id="path5885"
   d="M 346,457 C 273,457 209,483 155,535 101,586 74,649 74,723 74,796 101,859 155,911 209,963 273,989 346,989 419,989 480,963 531,910 582,859 608,796 608,723 608,648 583,586 532,535 482,483 420,457 346,457 Z" />
  </g><g
   transform="scale(0.00048828125,-0.00048828125)"
   id="bullet-char-template-8211-4">
   <path
   id="path5888"
   d="M -4,459 L 1135,459 1135,606 -4,606 -4,459 Z" />
  </g><g
   transform="scale(0.00048828125,-0.00048828125)"
   id="bullet-char-template-61548-6">
   <path
   id="path5891"
   d="M 173,740 C 173,903 231,1043 346,1159 462,1274 601,1332 765,1332 928,1332 1067,1274 1183,1159 1299,1043 1357,903 1357,740 1357,577 1299,437 1183,322 1067,206 928,148 765,148 601,148 462,206 346,322 231,437 173,577 173,740 Z" />
  </g></defs>
 <defs
   class="TextShapeIndex"
   id="defs4905">
  <g
   ooo:slide="id1"
   ooo:id-list="id3 id4 id5 id6 id7"
   id="g4903" />
 </defs>
 <defs
   class="EmbeddedBulletChars"
   id="defs4937">
  <g
   id="bullet-char-template-57356"
   transform="scale(0.00048828125,-0.00048828125)">
   <path
   d="M 580,1141 L 1163,571 580,0 -4,571 580,1141 Z"
   id="path4907" />
  </g>
  <g
   id="bullet-char-template-57354"
   transform="scale(0.00048828125,-0.00048828125)">
   <path
   d="M 8,1128 L 1137,1128 1137,0 8,0 8,1128 Z"
   id="path4910" />
  </g>
  <g
   id="bullet-char-template-10146"
   transform="scale(0.00048828125,-0.00048828125)">
   <path
   d="M 174,0 L 602,739 174,1481 1456,739 174,0 Z M 1358,739 L 309,1346 659,739 1358,739 Z"
   id="path4913" />
  </g>
  <g
   id="bullet-char-template-10132"
   transform="scale(0.00048828125,-0.00048828125)">
   <path
   d="M 2015,739 L 1276,0 717,0 1260,543 174,543 174,936 1260,936 717,1481 1274,1481 2015,739 Z"
   id="path4916" />
  </g>
  <g
   id="bullet-char-template-10007"
   transform="scale(0.00048828125,-0.00048828125)">
   <path
   d="M 0,-2 C -7,14 -16,27 -25,37 L 356,567 C 262,823 215,952 215,954 215,979 228,992 255,992 264,992 276,990 289,987 310,991 331,999 354,1012 L 381,999 492,748 772,1049 836,1024 860,1049 C 881,1039 901,1025 922,1006 886,937 835,863 770,784 769,783 710,716 594,584 L 774,223 C 774,196 753,168 711,139 L 727,119 C 717,90 699,76 672,76 641,76 570,178 457,381 L 164,-76 C 142,-110 111,-127 72,-127 30,-127 9,-110 8,-76 1,-67 -2,-52 -2,-32 -2,-23 -1,-13 0,-2 Z"
   id="path4919" />
  </g>
  <g
   id="bullet-char-template-10004"
   transform="scale(0.00048828125,-0.00048828125)">
   <path
   d="M 285,-33 C 182,-33 111,30 74,156 52,228 41,333 41,471 41,549 55,616 82,672 116,743 169,778 240,778 293,778 328,747 346,684 L 369,508 C 377,444 397,411 428,410 L 1163,1116 C 1174,1127 1196,1133 1229,1133 1271,1133 1292,1118 1292,1087 L 1292,965 C 1292,929 1282,901 1262,881 L 442,47 C 390,-6 338,-33 285,-33 Z"
   id="path4922" />
  </g>
  <g
   id="bullet-char-template-9679"
   transform="scale(0.00048828125,-0.00048828125)">
   <path
   d="M 813,0 C 632,0 489,54 383,161 276,268 223,411 223,592 223,773 276,916 383,1023 489,1130 632,1184 813,1184 992,1184 1136,1130 1245,1023 1353,916 1407,772 1407,592 1407,412 1353,268 1245,161 1136,54 992,0 813,0 Z"
   id="path4925" />
  </g>
  <g
   id="bullet-char-template-8226"
   transform="scale(0.00048828125,-0.00048828125)">
   <path
   d="M 346,457 C 273,457 209,483 155,535 101,586 74,649 74,723 74,796 101,859 155,911 209,963 273,989 346,989 419,989 480,963 531,910 582,859 608,796 608,723 608,648 583,586 532,535 482,483 420,457 346,457 Z"
   id="path4928" />
  </g>
  <g
   id="bullet-char-template-8211"
   transform="scale(0.00048828125,-0.00048828125)">
   <path
   d="M -4,459 L 1135,459 1135,606 -4,606 -4,459 Z"
   id="path4931" />
  </g>
  <g
   id="bullet-char-template-61548"
   transform="scale(0.00048828125,-0.00048828125)">
   <path
   d="M 173,740 C 173,903 231,1043 346,1159 462,1274 601,1332 765,1332 928,1332 1067,1274 1183,1159 1299,1043 1357,903 1357,740 1357,577 1299,437 1183,322 1067,206 928,148 765,148 601,148 462,206 346,322 231,437 173,577 173,740 Z"
   id="path4934" />
  </g>
 </defs>
 <defs
   class="TextEmbeddedBitmaps"
   id="defs4939" />
 <g
   id="g4944">
  <g
   id="id2"
   class="Master_Slide">
   <g
   id="bg-id2"
   class="Background" />
   <g
   id="bo-id2"
   class="BackgroundObjects" />
  </g>
 </g>
 
<g
   transform="matrix(0.76840242,0,0,0.76840242,-1376.7246,-10103.427)"
   id="g5733" /><path
   style="fill:#000000;stroke:none;stroke-width:1.0307225"
   inkscape:connector-curvature="0"
   id="path4953-9"
   d="m 21468.436,32947.034 c 20.879,-2.035 21.922,-8.142 44.889,-7.124 131.532,-2.035 245.319,-27.478 347.622,-71.239 99.171,-40.708 191.035,-101.77 264.109,-175.045 74.118,-73.274 138.84,-160.797 192.08,-249.336 51.152,-91.594 96.04,-188.275 134.664,-285.974 67.855,-192.346 104.391,-388.762 126.314,-533.276 4.175,-54.956 1.042,-51.902 5.219,-89.557 491.682,-10473.162 4133.886,-8765.459 4199.653,-13578.167 -14.615,-4417.84 -3664.127,-8095.8109 -8414.964,-8804.1309 114.83,35.619 233.836,62.08 342.403,102.788 234.879,82.433 467.671,179.115 693.156,286.991 222.353,105.841 442.618,224.912 655.576,356.196 212.958,131.2829 419.652,273.7609 620.083,421.3279 200.431,153.673 392.51,316.505 577.283,484.426 184.772,173.009 364.324,352.124 536.57,543.452 169.113,193.363 329.876,389.779 484.374,597.39 154.499,207.611 299.602,423.364 435.311,647.258 132.577,221.859 262.022,451.859 376.852,690.002 117.962,236.106 223.397,482.39 319.436,731.726 97.084,249.337 177.465,506.816 252.627,770.4 73.074,260.532 138.84,526.152 189.991,799.913 48.02,271.726 89.777,548.541 113.787,830.444 27.141,278.85 41.756,563.807 42.8,850.798 -3.132,283.939 -17.746,545.488 -39.669,784.648 -21.922,240.177 -53.239,460 -91.864,664.558 -42.8,207.611 -92.908,394.868 -146.147,572.965 -53.24,178.098 -117.962,345.001 -181.641,505.798 -135.708,320.576 -296.47,614.691 -463.496,913.895 -169.114,302.258 -351.798,610.621 -537.614,961.728 -91.864,174.027 -183.728,360.266 -276.636,557.7 -92.908,203.54 -182.684,415.222 -273.505,650.311 -89.776,235.089 -178.509,484.426 -260.977,764.294 -86.645,275.796 -167.026,575 -245.319,900.665 -75.162,327.699 -149.28,682.877 -217.134,1066.551 -68.898,389.779 -129.445,805.001 -185.816,1261.949 -55.327,456.948 -103.347,945.444 -143.016,1477.702 -37.581,530.222 -69.942,1106.241 -94.996,1719.914 -1.045,34.602 2.088,32.567 -6.263,84.469 -12.527,135.355 -42.8,320.577 -96.04,504.78 -22.966,88.54 -56.371,181.151 -97.084,269.691 -41.756,82.434 -88.732,165.885 -144.059,233.054 -56.371,68.186 -123.182,124.159 -198.343,165.885 -76.206,40.708 -162.85,64.115 -264.11,67.168 -17.746,0 -17.746,5.089 -33.405,8.142 l -3565.998,-32.567 -27.142,2.035 -24.01,-1.019 -3565.999,-26.46 c -14.614,-3.053 -14.614,-9.159 -32.361,-9.159 -98.127,0 -186.86,-26.46 -263.065,-69.204 -78.293,-39.69 -141.972,-99.735 -202.519,-167.92 -54.283,-68.186 -105.435,-151.638 -144.06,-239.16 -42.8,-85.487 -72.03,-176.063 -102.303,-267.656 -53.239,-187.257 -83.513,-367.39 -97.083,-506.815 -7.308,-49.867 -4.176,-46.814 -9.396,-81.416 -26.098,-618.762 -59.503,-1192.745 -104.391,-1723.985 -44.888,-530.222 -96.04,-1025.843 -153.455,-1480.755 -57.415,-453.895 -122.137,-873.188 -193.123,-1263.985 -70.986,-384.691 -146.148,-743.939 -225.485,-1071.639 -79.337,-326.682 -161.806,-627.922 -251.582,-905.754 -86.645,-275.797 -176.421,-530.222 -265.154,-765.311 -93.952,-235.089 -187.904,-451.859 -279.768,-655.4 -94.995,-199.469 -187.904,-384.691 -279.768,-564.824 -188.947,-351.106 -372.676,-660.488 -544.921,-964.78 -172.245,-303.275 -331.964,-601.462 -467.672,-921.02 -66.81,-164.867 -129.445,-331.77 -186.86,-510.886 -57.415,-178.097 -107.523,-368.407 -146.148,-575 -43.844,-207.611 -76.205,-426.417 -101.259,-667.612 -25.054,-241.195 -40.712,-496.638 -43.844,-781.594 -3.132,-290.045 11.483,-573.984 35.493,-854.869 22.966,-279.868 58.459,-554.647 108.567,-826.373 50.107,-270.709 109.61,-538.364 182.684,-797.878 70.986,-261.549 158.674,-516.992 249.495,-764.293 93.952,-249.337 200.43,-492.568 314.217,-726.639 111.698,-238.142 238.011,-466.107 372.676,-685.93 134.664,-224.912 277.68,-435.576 430.091,-642.17 152.411,-201.505 313.173,-399.956 479.155,-586.196 170.157,-189.292 347.622,-370.443 534.482,-535.31 183.728,-168.939 375.808,-328.718 574.151,-476.284 198.343,-148.585 405.037,-286.9919 616.951,-414.2049 211.914,-127.212 430.091,-243.23 653.488,-346.018 99.172,-46.814 204.607,-81.416 306.91,-125.177 -4099.437,1060.4459 -7080.846,4420.8949 -7065.187,8432.6719 97.083,4814.743 3730.936,3158.943 4289.428,13643.299 8.352,37.655 5.22,34.602 12.527,89.558 18.791,145.531 57.416,340.93 129.445,535.311 35.493,96.681 79.338,196.416 133.621,288.009 53.239,91.593 119.006,177.08 194.167,249.337 75.162,77.345 162.851,138.407 265.154,184.204 103.347,40.708 218.177,70.221 348.666,74.292 27.142,-2.035 24.01,7.124 44.888,4.07 l 4732.047,37.655 30.273,1.019 32.361,-2.035 z" /><path
   style="fill:#000000;stroke:none;stroke-width:1.0307225"
   inkscape:connector-curvature="0"
   id="path4960-2"
   d="m 16498.378,33661.46 -2391.599,-1.019 c -1231.815,-8.141 -2229.793,395.886 -2232.925,896.595 -3.132,500.709 995.891,908.807 2227.705,910.842 l 4784.242,15.266 c 1231.815,2.034 2231.882,-403.01 2231.882,-903.719 0,-500.709 -995.891,-908.807 -2227.706,-910.842 z" /><path
   style="fill:#000000;stroke:none;stroke-width:1.0307225"
   inkscape:connector-curvature="0"
   id="path4967-4"
   d="m 16473.324,36186.376 -2391.599,-1.005 c -1231.814,-8.141 -2228.749,395.885 -2231.881,896.593 -3.132,500.709 995.891,908.807 2226.661,910.844 l 4784.243,15.264 c 1231.814,1.032 2231.881,-403.008 2231.881,-903.719 0,-500.708 -995.891,-908.806 -2227.706,-910.841 z" /><path
   style="fill:#000000;stroke:none;stroke-width:1.0307225"
   inkscape:connector-curvature="0"
   id="path4974-4"
   d="m 16449.314,38582.046 h -883.148 c -1228.683,-4.072 -2226.661,399.955 -2229.793,900.666 -3.132,500.708 995.891,908.806 2227.705,910.841 l 1764.209,3.053 c 1231.814,1.032 2227.705,-401.992 2228.749,-900.665 2.088,-498.674 -992.759,-905.754 -2226.661,-910.842 z" /><path
   style="fill:#000000;fill-rule:evenodd;stroke:none;stroke-width:35.63314438;stroke-linejoin:round"
   inkscape:connector-curvature="0"
   d="m 19442.78,12693.737 -5052.841,9600.161 1999.684,-368.442 -2754.787,9001.747 5551.855,-11363.305 -2188.781,509.127 z"
   id="path5940-3-5" /></svg>