<?xml version="1.0" encoding="UTF-8" standalone="no"?>
<svg
   xmlns:ooo="http://xml.openoffice.org/svg/export"
   xmlns:dc="http://purl.org/dc/elements/1.1/"
   xmlns:cc="http://creativecommons.org/ns#"
   xmlns:rdf="http://www.w3.org/1999/02/22-rdf-syntax-ns#"
   xmlns:svg="http://www.w3.org/2000/svg"
   xmlns="http://www.w3.org/2000/svg"
   xmlns:sodipodi="http://sodipodi.sourceforge.net/DTD/sodipodi-0.dtd"
   xmlns:inkscape="http://www.inkscape.org/namespaces/inkscape"
   version="1.2"
   width="262.5mm"
   height="371.25mm"
   viewBox="0 0 26250 37125"
   preserveAspectRatio="xMidYMid"
   fill-rule="evenodd"
   stroke-width="28.222"
   stroke-linejoin="round"
   xml:space="preserve"
   id="svg1607"
   sodipodi:docname="power-ico.svg"
   inkscape:version="0.92.3 (2405546, 2018-03-11)"><metadata
   id="metadata1611"><rdf:RDF><cc:Work
       rdf:about=""><dc:format>image/svg+xml</dc:format><dc:type
         rdf:resource="http://purl.org/dc/dcmitype/StillImage" /><dc:title></dc:title></cc:Work></rdf:RDF></metadata><sodipodi:namedview
   pagecolor="#ffffff"
   bordercolor="#666666"
   borderopacity="1"
   objecttolerance="10"
   gridtolerance="10"
   guidetolerance="10"
   inkscape:pageopacity="0"
   inkscape:pageshadow="2"
   inkscape:window-width="1352"
   inkscape:window-height="862"
   id="namedview1609"
   showgrid="false"
   inkscape:zoom="0.16819304"
   inkscape:cx="496.06299"
   inkscape:cy="701.5748"
   inkscape:window-x="0"
   inkscape:window-y="27"
   inkscape:window-maximized="0"
   inkscape:current-layer="svg1607" />
 <defs
   class="ClipPathGroup"
   id="defs1512">
  <clipPath
   id="presentation_clip_path"
   clipPathUnits="userSpaceOnUse">
   <rect
   x="0"
   y="0"
   width="26250"
   height="37125"
   id="rect1506" />
  </clipPath>
  <clipPath
   id="presentation_clip_path_shrink"
   clipPathUnits="userSpaceOnUse">
   <rect
   x="26"
   y="37"
   width="26198"
   height="37051"
   id="rect1509" />
  </clipPath>
 </defs>
 <defs
   class="TextShapeIndex"
   id="defs1516">
  <g
   ooo:slide="id1"
   ooo:id-list="id3 id4 id5 id6 id7 id8"
   id="g1514" />
 </defs>
 <defs
   class="EmbeddedBulletChars"
   id="defs1548">
  <g
   id="bullet-char-template-57356"
   transform="scale(0.00048828125,-0.00048828125)">
   <path
   d="M 580,1141 L 1163,571 580,0 -4,571 580,1141 Z"
   id="path1518" />
  </g>
  <g
   id="bullet-char-template-57354"
   transform="scale(0.00048828125,-0.00048828125)">
   <path
   d="M 8,1128 L 1137,1128 1137,0 8,0 8,1128 Z"
   id="path1521" />
  </g>
  <g
   id="bullet-char-template-10146"
   transform="scale(0.00048828125,-0.00048828125)">
   <path
   d="M 174,0 L 602,739 174,1481 1456,739 174,0 Z M 1358,739 L 309,1346 659,739 1358,739 Z"
   id="path1524" />
  </g>
  <g
   id="bullet-char-template-10132"
   transform="scale(0.00048828125,-0.00048828125)">
   <path
   d="M 2015,739 L 1276,0 717,0 1260,543 174,543 174,936 1260,936 717,1481 1274,1481 2015,739 Z"
   id="path1527" />
  </g>
  <g
   id="bullet-char-template-10007"
   transform="scale(0.00048828125,-0.00048828125)">
   <path
   d="M 0,-2 C -7,14 -16,27 -25,37 L 356,567 C 262,823 215,952 215,954 215,979 228,992 255,992 264,992 276,990 289,987 310,991 331,999 354,1012 L 381,999 492,748 772,1049 836,1024 860,1049 C 881,1039 901,1025 922,1006 886,937 835,863 770,784 769,783 710,716 594,584 L 774,223 C 774,196 753,168 711,139 L 727,119 C 717,90 699,76 672,76 641,76 570,178 457,381 L 164,-76 C 142,-110 111,-127 72,-127 30,-127 9,-110 8,-76 1,-67 -2,-52 -2,-32 -2,-23 -1,-13 0,-2 Z"
   id="path1530" />
  </g>
  <g
   id="bullet-char-template-10004"
   transform="scale(0.00048828125,-0.00048828125)">
   <path
   d="M 285,-33 C 182,-33 111,30 74,156 52,228 41,333 41,471 41,549 55,616 82,672 116,743 169,778 240,778 293,778 328,747 346,684 L 369,508 C 377,444 397,411 428,410 L 1163,1116 C 1174,1127 1196,1133 1229,1133 1271,1133 1292,1118 1292,1087 L 1292,965 C 1292,929 1282,901 1262,881 L 442,47 C 390,-6 338,-33 285,-33 Z"
   id="path1533" />
  </g>
  <g
   id="bullet-char-template-9679"
   transform="scale(0.00048828125,-0.00048828125)">
   <path
   d="M 813,0 C 632,0 489,54 383,161 276,268 223,411 223,592 223,773 276,916 383,1023 489,1130 632,1184 813,1184 992,1184 1136,1130 1245,1023 1353,916 1407,772 1407,592 1407,412 1353,268 1245,161 1136,54 992,0 813,0 Z"
   id="path1536" />
  </g>
  <g
   id="bullet-char-template-8226"
   transform="scale(0.00048828125,-0.00048828125)">
   <path
   d="M 346,457 C 273,457 209,483 155,535 101,586 74,649 74,723 74,796 101,859 155,911 209,963 273,989 346,989 419,989 480,963 531,910 582,859 608,796 608,723 608,648 583,586 532,535 482,483 420,457 346,457 Z"
   id="path1539" />
  </g>
  <g
   id="bullet-char-template-8211"
   transform="scale(0.00048828125,-0.00048828125)">
   <path
   d="M -4,459 L 1135,459 1135,606 -4,606 -4,459 Z"
   id="path1542" />
  </g>
  <g
   id="bullet-char-template-61548"
   transform="scale(0.00048828125,-0.00048828125)">
   <path
   d="M 173,740 C 173,903 231,1043 346,1159 462,1274 601,1332 765,1332 928,1332 1067,1274 1183,1159 1299,1043 1357,903 1357,740 1357,577 1299,437 1183,322 1067,206 928,148 765,148 601,148 462,206 346,322 231,437 173,577 173,740 Z"
   id="path1545" />
  </g>
 </defs>
 <defs
   class="TextEmbeddedBitmaps"
   id="defs1550" />
 <g
   id="g1555">
  <g
   id="id2"
   class="Master_Slide">
   <g
   id="bg-id2"
   class="Background" />
   <g
   id="bo-id2"
   class="BackgroundObjects" />
  </g>
 </g>
 
<path
   inkscape:connector-curvature="0"
   style="fill:#000000;stroke:none;stroke-width:1.00000012"
   d="m 14481.483,7282.4263 -926,1842.001 c -455,-9 -908,11 -1360,64 l -1083,-1773.001 c -919,176 -1815.0001,460 -2667.0001,846 l 119,2059.0007 c -399,217 -781,461 -1145.001,730 l -1817,-988 c -712,608 -1349,1301 -1897,2060 l 1136,1728 c -238,386.001 -450,786.001 -633,1201.001 l -2061,51 c -160,441 -295,890 -402,1345 -100,457 -173,921 -217,1387 l 1842,925 c -9,455 11,910 64,1362 l -1773,1081 c 176,921.001 460,1817.001 846,2669.001 l 2057,-119 c 219,397 463,779 732,1143 l -990,1819 c 610,710 1301,1347 2062.001,1895 l 1728,-1134 c 386,236 786,449 1201,631 l 51,2063 c 441,160 890.0001,295 1345.0001,402 457,98 921,171 1386,215 l 926,-1842 c 215,5 430,2.001 645,-7 v -2682 c -2,0 -4,0 -6,0 -242,13 -482,13 -723,0 -242,-11 -482,-36 -719,-71 -169,-25 -336,-58 -504,-94 -235,-53 -468,-119 -695,-193 -230,-77 -455,-164 -674,-263 -220,-98 -435.0001,-207 -644.0001,-327 -209,-120 -413,-250 -608,-390 -197,-140 -386,-291 -566,-449 -182,-161 -355,-328 -519,-505 -166,-176 -320,-360 -466,-551 -146,-193 -282,-392 -408,-597.001 -127.001,-205.999 -242,-417 -347.001,-633.999 -104,-218 -199,-440.001 -283,-666.001 -81.999,-225.999 -153,-457 -213,-690 -60,-235 -107,-469 -143,-708 -37,-238 -60,-479 -73,-719 -10.999,-242 -10.999,-482 0,-723 13,-242 36,-480 73,-719 25,-169 56,-336 94.001,-504 53,-235 116.999,-468 192.999,-695 75,-230 162,-453 261,-674 100,-220 209.001,-435 327.001,-644 119.999,-209 250.999,-413 392,-608 140,-197 288.999,-386.001 449,-566.001 159,-182 326,-354.999 503,-519 176,-166 360,-320 553,-466 191,-146 389,-282 595,-408 206,-127 419,-242 635.0001,-347 217,-104 439,-199 665,-281 227,-84 457,-155 692,-215 233,-60 469,-107 708,-143 238,-37 477,-60 719,-73 240,-11 482,-11 722,0 241,13 481,36 719,73 168,25 337,56 503,94 235,53 468,117 697,193 228.001,75 453.001,164 674,262 220,99 435.001,208 644,328 209.001,118 411.001,249 608.001,390 195,140 384,289 566,449 180,159 353,326 519,503.001 164,175.999 318,360 466,553 145,190.999 280,391 408,595 125,205.999 242,419 345,635 106,217 199,439 283,665 82,227 153,457 213,692 60,233 107,469 143,708 37,238 60,478 73,719 0,5 0,12 0,20 h 2682 c -10,-248 -28,-497 -57,-743 l 1773,-1083 c -175,-919 -459,-1815 -846,-2667.001 l -2057,119 c -219,-399 -463,-781 -732,-1145 l 990,-1817 c -610,-712 -1301,-1349 -2062,-1896.9997 l -1728,1135.9997 c -384,-238 -786,-450 -1201,-632.9997 l -51,-2061.001 c -439.001,-160 -888.001,-295 -1345.001,-402 -457,-100 -920,-173 -1386,-217 z"
   id="path1559-0" /><path
   inkscape:connector-curvature="0"
   style="fill:#000000;stroke:none;stroke-width:1.00000012"
   d="m 20908.484,22556.429 c 8,-7 4,-9 13,-20 49,-51 82,-106 102,-162 20,-56 27,-115 27,-171.001 -1,-57.999 -12,-114.999 -31,-170.999 -16,-57 -40,-109.001 -65,-160 -53,-102 -117,-191 -169,-253.001 -19,-24 -19,-22 -33,-39 -4052,-4175 -2010,-4962 -3930.001,-6819 -1791,-1674.001 -4633,-1638.001 -6679,-34 55,-33 109,-67 168,-97 121,-61 245,-116.001 371,-163 127,-48.001 257,-90.001 388,-122.001 132,-34.999 265,-64 400,-84 137,-22 273,-37 411,-43.999 139,-9.001 279,-9.001 419,-3.001 138,5.001 280,16.001 421,34 140,18.001 282,44 422,75.001 140,32.999 280,68.999 419,114 140,43.999 278,94.999 415,153 136,59 271,121.999 404,190.999 134,71.001 266,150.001 393,232.001 129,83 257,174 379,271 123,95 244,198 360,308 115,109 215.001,213 302.001,313 89,100 165.999,196 235,291 66.999,93 125.999,184 176.999,273 52.001,89 96.001,178 136.001,266 79.999,174 140,349 199,529 60,182 115.999,372 189,577 36,102 76,210 124,323 45,113 98,229 160,355 61.999,123 131,254 211,393 80,138 171,284 275,440 104,155 220,319 351,492 131,173 277,357 441,551 163,195 344,401 544,619 200,219 419,448 661,692.001 12,15 12,13 31,34.999 49,58 113,138 167,229 27,45 53,93 73,140 20,49.001 35,98.001 42,148 5,49 5,96.001 -7,142 -13,45.001 -35,89 -71,127 -8,7.001 -4,9.001 -10,16.001 l -1336,1395 -9,9 -9,9 -1334,1396 c -6,6 -7,4 -15.001,11 -37.999,38 -79.999,62 -125,76 -45.999,15 -93,19 -142,15 -51,-4 -99.999,-16 -150.999,-33 -50.001,-16 -101.001,-38 -148.001,-63 -93,-48 -177.999,-106 -239.999,-153 -22.001,-17 -20.001,-17 -37.001,-29 -258,-224 -504,-428 -735,-614 -231,-184 -450,-351 -655,-502 -206,-150 -399,-284 -581,-404 -184,-121 -355,-226 -517,-319 -162,-95 -315,-175 -460,-248 -144,-71 -281,-132.001 -408,-185.001 -129,-53 -251,-98.999 -368,-138.999 -116,-40 -227,-74 -333,-103 -211,-62 -406,-108 -592,-155 -187,-47 -366,-98 -546,-166.001 -91,-34 -184,-73.999 -276,-119.999 -93,-45 -188,-98 -286,-160.001 -100,-61.999 -200,-133 -308,-214.999 -105,-82.001 -216.0001,-175.001 -333.0001,-280.001 -116,-109 -228,-221.999 -331,-339 -104,-116 -202,-236 -293,-358 -91,-124 -177,-248 -255,-377 -80,-128 -151,-257 -217,-388 -65,-133 -125,-266 -178,-400 -53,-135 -98,-272 -139,-408 -40,-137 -72,-275 -100,-413 -25,-139 -45,-275 -58,-414 -13,-138 -20,-276 -20,-413 0,-136 7,-273 22,-408 13,-134 34,-267 62,-400 27,-131 62,-262 102,-390 18,-56 43,-111 65,-167 -1092,2019 -841,4471.001 785,5991.001 1984.0001,1793 2663.0001,-268 7106.0011,3500 19,13 17,13 39.999,31 68.001,47 161,106 266.001,151 53,24 108,44 165.999,57 56.001,14 115.001,21 173.001,20 58,-2 116,-13 173,-37 53.999,-22 108.999,-58 158,-109 9,-9 11,-5 20,-15 l 1769,-1849 11,-13 13,-12 z"
   id="path1566-2" /><path
   inkscape:connector-curvature="0"
   style="fill:#000000;stroke:none;stroke-width:1.00000012"
   d="m 19554.484,24979.429 -891,942 c -458,484 -686,1012 -507,1179 176,168 691,-89 1150,-573 l 1778,-1883 c 459,-484 687,-1012 508,-1179 -176,-168 -691,89 -1148,573 z"
   id="path1573-2" /><path
   inkscape:connector-curvature="0"
   style="fill:#000000;stroke:none;stroke-width:1.00000012"
   d="m 20760.484,26133.429 -890,942 c -458,484 -686,1012 -508,1179 177,168 692,-89 1151,-573 l 1778,-1882 c 459,-485 687,-1013 508,-1180 -176,-167 -692,89 -1148,573 z"
   id="path1580-8" /><path
   inkscape:connector-curvature="0"
   style="fill:#000000;stroke:none;stroke-width:1.00000012"
   d="m 21920.484,27244.429 -330,348 c -458,484 -686,1012 -507,1179 176,168 691,-89 1150,-573 l 657,-696 c 457,-484 685,-1012 508,-1179 -177,-168 -692,89 -1150,573 z"
   id="path1587-4" /><path
   inkscape:connector-curvature="0"
   style="fill:#000000;stroke:none;stroke-width:1.00000012"
   d="m 10289.483,16094.428 2763,5683 1016,-1846 3823.001,3541.001 -3537.001,-6340.001 -1047,2033 z"
   id="path1594-3" /></svg>