<?xml version="1.0" encoding="UTF-8" standalone="no"?>
<!-- Created with Inkscape (http://www.inkscape.org/) -->

<svg
   xmlns:dc="http://purl.org/dc/elements/1.1/"
   xmlns:cc="http://creativecommons.org/ns#"
   xmlns:rdf="http://www.w3.org/1999/02/22-rdf-syntax-ns#"
   xmlns:svg="http://www.w3.org/2000/svg"
   xmlns="http://www.w3.org/2000/svg"
   xmlns:sodipodi="http://sodipodi.sourceforge.net/DTD/sodipodi-0.dtd"
   xmlns:inkscape="http://www.inkscape.org/namespaces/inkscape"
   width="210mm"
   height="297mm"
   viewBox="0 0 210 297"
   version="1.1"
   id="svg8"
   inkscape:version="0.92.3 (2405546, 2018-03-11)"
   sodipodi:docname="save-front.svg">
  <defs
     id="defs2" />
  <sodipodi:namedview
     id="base"
     pagecolor="#ffffff"
     bordercolor="#666666"
     borderopacity="1.0"
     inkscape:pageopacity="0.0"
     inkscape:pageshadow="2"
     inkscape:zoom="0.35"
     inkscape:cx="616.07156"
     inkscape:cy="552.94364"
     inkscape:document-units="mm"
     inkscape:current-layer="layer1"
     showgrid="false"
     inkscape:window-width="1156"
     inkscape:window-height="849"
     inkscape:window-x="596"
     inkscape:window-y="71"
     inkscape:window-maximized="0" />
  <metadata
     id="metadata5">
    <rdf:RDF>
      <cc:Work
         rdf:about="">
        <dc:format>image/svg+xml</dc:format>
        <dc:type
           rdf:resource="http://purl.org/dc/dcmitype/StillImage" />
        <dc:title />
      </cc:Work>
    </rdf:RDF>
  </metadata>
  <g
     inkscape:label="Layer 1"
     inkscape:groupmode="layer"
     id="layer1">
    <path
       style="opacity:1;fill:#000000;fill-opacity:1;stroke:none;stroke-width:12.1563282;stroke-linecap:round;stroke-linejoin:round;stroke-miterlimit:4;stroke-dasharray:none;stroke-dashoffset:108.28346252;stroke-opacity:1"
       d="m 120.56451,200.16914 c -0.081,0 -0.15989,0.0238 -0.23614,0.0694 -0.0762,0.0456 -0.14974,0.11284 -0.21973,0.19941 -0.07,0.0865 -0.13652,0.19237 -0.1987,0.31544 -0.0622,0.12305 -0.12009,0.26328 -0.17293,0.4183 -0.0528,0.15502 -0.1006,0.32513 -0.14254,0.50759 -0.042,0.18245 -0.0781,0.37746 -0.10756,0.58281 -0.0296,0.20536 -0.0524,0.42073 -0.068,0.64446 -0.0156,0.22373 -0.0236,0.45583 -0.0236,0.6934 v 32.91657 c 0,0.23757 0.008,0.46967 0.0236,0.69339 0.0156,0.22373 0.0385,0.43911 0.068,0.64446 0.0296,0.20536 0.0656,0.40037 0.10756,0.58282 0.042,0.18246 0.0897,0.35257 0.14254,0.5076 0.0528,0.15502 0.11075,0.29524 0.17293,0.4183 0.0622,0.12306 0.12872,0.22886 0.1987,0.31542 0.07,0.0866 0.14348,0.15386 0.21973,0.19941 0.0762,0.0456 0.15518,0.0693 0.23614,0.0693 h 25.11742 c 0.081,0 0.1599,-0.0238 0.23614,-0.0693 0.0763,-0.0456 0.14975,-0.11284 0.21973,-0.19941 0.07,-0.0865 0.13653,-0.19236 0.19871,-0.31542 0.0622,-0.12306 0.12009,-0.26328 0.17292,-0.4183 0.0528,-0.15503 0.10061,-0.32514 0.14255,-0.5076 0.042,-0.18245 0.0781,-0.37746 0.10756,-0.58282 0.0296,-0.20535 0.0524,-0.42073 0.068,-0.64446 0.0155,-0.22372 0.0236,-0.45582 0.0236,-0.69339 V 203.5999 c 0,-0.23757 -0.008,-0.46967 -0.0236,-0.6934 -0.0156,-0.22373 -0.0386,-0.4391 -0.068,-0.64446 -0.0296,-0.20535 -0.0656,-0.40036 -0.10756,-0.58281 -0.042,-0.18246 -0.0897,-0.35257 -0.14255,-0.50759 -0.0528,-0.15502 -0.11074,-0.29525 -0.17292,-0.4183 -0.0622,-0.12307 -0.12872,-0.22887 -0.19871,-0.31544 -0.07,-0.0866 -0.14347,-0.15386 -0.21973,-0.19941 -0.0762,-0.0456 -0.15517,-0.0694 -0.23614,-0.0694 z"
       id="path833"
       inkscape:connector-curvature="0" />
    <path
       style="opacity:1;fill:#000000;fill-opacity:1;stroke:none;stroke-width:92.36521149;stroke-linecap:round;stroke-linejoin:round;stroke-miterlimit:4;stroke-dasharray:none;stroke-dashoffset:108.28346252;stroke-opacity:1"
       d="M 82.947266,251.0918 C 70.234583,251.0918 60,260.27943 60,271.69336 v 647.36719 c 0,11.41394 10.234583,20.60156 22.947266,20.60156 H 660.91211 L 740,856.42969 V 271.69336 c 0,-11.41393 -10.2346,-20.60156 -22.94727,-20.60156 z m 85.193354,83.42773 h 463.71876 c 1.25309,0 2.47617,0.11737 3.65624,0.33985 1.18008,0.22247 2.31723,0.54983 3.4004,0.97265 1.08316,0.42282 2.11185,0.93997 3.07421,1.54102 0.96237,0.60105 1.85811,1.28581 2.67579,2.04297 0.81767,0.75715 1.55793,1.58738 2.20703,2.47851 0.64909,0.89113 1.20744,1.84467 1.66406,2.84766 0.45662,1.00299 0.81052,2.05571 1.05078,3.14843 0.24026,1.09273 0.36719,2.22443 0.36719,3.38477 v 294.20313 c 0,1.16033 -0.12693,2.29203 -0.36719,3.38476 -0.24026,1.09273 -0.59416,2.14545 -1.05078,3.14844 -0.45662,1.00299 -1.01497,1.95652 -1.66406,2.84766 -0.6491,0.89113 -1.38936,1.72136 -2.20703,2.47851 -0.81768,0.75715 -1.71342,1.43997 -2.67579,2.04102 -0.96236,0.60105 -1.99105,1.12014 -3.07421,1.54297 -1.08317,0.42282 -2.22032,0.75018 -3.4004,0.97265 -1.18007,0.22247 -2.40315,0.33985 -3.65624,0.33985 H 168.14062 c -1.25309,0 -2.47617,-0.11738 -3.65624,-0.33985 -1.18008,-0.22247 -2.31723,-0.54983 -3.4004,-0.97265 -1.08316,-0.42283 -2.11185,-0.94192 -3.07421,-1.54297 -0.96237,-0.60105 -1.85811,-1.28387 -2.67579,-2.04102 -0.81767,-0.75715 -1.55793,-1.58738 -2.20703,-2.47851 -0.64909,-0.89114 -1.20744,-1.84467 -1.66406,-2.84766 -0.45662,-1.00299 -0.81052,-2.05571 -1.05078,-3.14844 -0.24026,-1.09273 -0.36719,-2.22443 -0.36719,-3.38476 V 351.27539 c 0,-1.16034 0.12693,-2.29204 0.36719,-3.38477 0.24026,-1.09272 0.59416,-2.14544 1.05078,-3.14843 0.45662,-1.00299 1.01497,-1.95653 1.66406,-2.84766 0.6491,-0.89113 1.38936,-1.72136 2.20703,-2.47851 0.81768,-0.75716 1.71342,-1.44192 2.67579,-2.04297 0.96236,-0.60105 1.99105,-1.1182 3.07421,-1.54102 1.08317,-0.42282 2.22032,-0.75018 3.4004,-0.97265 1.18007,-0.22248 2.40315,-0.33985 3.65624,-0.33985 z m 72,406.99024 h 319.71876 c 1.0306,0 2.03527,0.10809 3.00585,0.31445 0.97055,0.20674 1.90604,0.51168 2.79688,0.9043 0.89087,0.39261 1.73775,0.87351 2.5293,1.43164 0.79147,0.55816 1.52864,1.19341 2.20117,1.89648 0.67249,0.70311 1.28059,1.47525 1.81445,2.30274 0.53386,0.82748 0.99361,1.71122 1.36914,2.64257 0.37569,0.93139 0.66764,1.90914 0.86524,2.92383 0.19767,1.01469 0.30078,2.06703 0.30078,3.14453 v 149.29102 c 0,1.07747 -0.10311,2.12984 -0.30078,3.14453 -0.19767,1.01469 -0.48967,1.99244 -0.86524,2.92383 -0.37568,0.93135 -0.83528,1.81509 -1.36914,2.64258 -0.53386,0.82749 -1.14196,1.59966 -1.81445,2.30273 -0.67253,0.70311 -1.4097,1.33836 -2.20117,1.89648 -0.79155,0.55813 -1.63843,1.03903 -2.5293,1.43164 -0.89084,0.39266 -1.82633,0.69771 -2.79688,0.9043 -0.97058,0.20674 -1.97525,0.31446 -3.00585,0.31446 H 240.14062 c -1.0306,0 -2.03529,-0.10772 -3.00585,-0.31446 -0.97056,-0.20674 -1.90602,-0.51164 -2.79688,-0.9043 -0.89086,-0.39261 -1.73779,-0.87351 -2.5293,-1.43164 -0.7915,-0.55812 -1.52866,-1.19337 -2.20117,-1.89648 -0.6725,-0.70307 -1.2806,-1.47524 -1.81445,-2.30273 -0.53385,-0.82749 -0.99359,-1.71123 -1.36914,-2.64258 -0.37554,-0.93139 -0.66763,-1.90914 -0.86524,-2.92383 -0.19759,-1.01469 -0.30078,-2.06706 -0.30078,-3.14453 V 757.07031 c 0,-1.0775 0.10319,-2.12984 0.30078,-3.14453 0.1976,-1.01469 0.48969,-1.99244 0.86524,-2.92383 0.37553,-0.93135 0.83529,-1.81509 1.36914,-2.64257 0.53385,-0.82749 1.14195,-1.59963 1.81445,-2.30274 0.67251,-0.70307 1.40967,-1.33832 2.20117,-1.89648 0.79151,-0.55813 1.63844,-1.03903 2.5293,-1.43164 0.89086,-0.39262 1.82632,-0.69771 2.79688,-0.9043 0.97056,-0.20674 1.97525,-0.31445 3.00585,-0.31445 z"
       id="rect815"
       transform="scale(0.26458333)"
       inkscape:connector-curvature="0"
       sodipodi:nodetypes="ssssccssssscccscscsssscccccsscccccsssscscscccssscccccccssscsccccssscccsccsscccccccs" />
    <path
       style="opacity:1;fill:#000000;fill-opacity:1;stroke:none;stroke-width:11.59663391;stroke-linecap:round;stroke-linejoin:round;stroke-miterlimit:4;stroke-dasharray:none;stroke-dashoffset:108.28346252;stroke-opacity:1"
       d="m 59.395307,126.9106 h 92.876053 c 1.94555,0 3.51182,0.94646 3.51182,2.12211 v 3.39094 c 0,1.17565 -1.56627,2.12211 -3.51182,2.12211 H 59.395307 c -1.94555,0 -3.511824,-0.94646 -3.511824,-2.12211 v -3.39094 c 0,-1.17565 1.566274,-2.12211 3.511824,-2.12211 z"
       id="rect851"
       inkscape:connector-curvature="0" />
    <path
       style="opacity:1;fill:#000000;fill-opacity:1;stroke:none;stroke-width:11.59663391;stroke-linecap:round;stroke-linejoin:round;stroke-miterlimit:4;stroke-dasharray:none;stroke-dashoffset:108.28346252;stroke-opacity:1"
       d="m 59.395307,146.4895 h 92.876053 c 1.94555,0 3.51182,0.94647 3.51182,2.12211 v 3.39095 c 0,1.17564 -1.56627,2.1221 -3.51182,2.1221 H 59.395307 c -1.94555,0 -3.511824,-0.94646 -3.511824,-2.1221 v -3.39095 c 0,-1.17564 1.566274,-2.12211 3.511824,-2.12211 z"
       id="rect851-3"
       inkscape:connector-curvature="0" />
    <path
       style="opacity:1;fill:#000000;fill-opacity:1;stroke:none;stroke-width:11.59663391;stroke-linecap:round;stroke-linejoin:round;stroke-miterlimit:4;stroke-dasharray:none;stroke-dashoffset:108.28346252;stroke-opacity:1"
       d="m 59.395307,107.3315 h 92.876053 c 1.94555,0 3.51182,0.94646 3.51182,2.12211 v 3.39094 c 0,1.17565 -1.56627,2.12211 -3.51182,2.12211 H 59.395307 c -1.94555,0 -3.511824,-0.94646 -3.511824,-2.12211 v -3.39094 c 0,-1.17565 1.566274,-2.12211 3.511824,-2.12211 z"
       id="rect851-8"
       inkscape:connector-curvature="0" />
  </g>
</svg>
