<?xml version="1.0" encoding="UTF-8" standalone="no"?>
<!-- Created with Inkscape (http://www.inkscape.org/) -->

<svg
   xmlns:dc="http://purl.org/dc/elements/1.1/"
   xmlns:cc="http://creativecommons.org/ns#"
   xmlns:rdf="http://www.w3.org/1999/02/22-rdf-syntax-ns#"
   xmlns:svg="http://www.w3.org/2000/svg"
   xmlns="http://www.w3.org/2000/svg"
   xmlns:sodipodi="http://sodipodi.sourceforge.net/DTD/sodipodi-0.dtd"
   xmlns:inkscape="http://www.inkscape.org/namespaces/inkscape"
   width="210mm"
   height="297mm"
   viewBox="0 0 210 297"
   version="1.1"
   id="svg8"
   sodipodi:docname="save-back.svg"
   inkscape:version="0.92.3 (2405546, 2018-03-11)">
  <defs
     id="defs2" />
  <sodipodi:namedview
     id="base"
     pagecolor="#ffffff"
     bordercolor="#666666"
     borderopacity="1.0"
     inkscape:pageopacity="0.0"
     inkscape:pageshadow="2"
     inkscape:zoom="0.35"
     inkscape:cx="466.35063"
     inkscape:cy="552.94364"
     inkscape:document-units="mm"
     inkscape:current-layer="layer1"
     showgrid="false"
     inkscape:window-width="1156"
     inkscape:window-height="849"
     inkscape:window-x="762"
     inkscape:window-y="37"
     inkscape:window-maximized="0" />
  <metadata
     id="metadata5">
    <rdf:RDF>
      <cc:Work
         rdf:about="">
        <dc:format>image/svg+xml</dc:format>
        <dc:type
           rdf:resource="http://purl.org/dc/dcmitype/StillImage" />
        <dc:title></dc:title>
      </cc:Work>
    </rdf:RDF>
  </metadata>
  <g
     inkscape:label="Layer 1"
     inkscape:groupmode="layer"
     id="layer1">
    <path
       style="opacity:1;fill:#000000;fill-opacity:1;stroke:none;stroke-width:12.1563282;stroke-linecap:round;stroke-linejoin:round;stroke-miterlimit:4;stroke-dasharray:none;stroke-dashoffset:108.28346252;stroke-opacity:1"
       d="m 120.56451,200.16914 c -0.081,0 -0.15989,0.0238 -0.23614,0.0694 -0.0762,0.0456 -0.14974,0.11284 -0.21973,0.19941 -0.07,0.0865 -0.13652,0.19237 -0.1987,0.31544 -0.0622,0.12305 -0.12009,0.26328 -0.17293,0.4183 -0.0528,0.15502 -0.1006,0.32513 -0.14254,0.50759 -0.042,0.18245 -0.0781,0.37746 -0.10756,0.58281 -0.0296,0.20536 -0.0524,0.42073 -0.068,0.64446 -0.0156,0.22373 -0.0236,0.45583 -0.0236,0.6934 v 32.91657 c 0,0.23757 0.008,0.46967 0.0236,0.69339 0.0156,0.22373 0.0385,0.43911 0.068,0.64446 0.0296,0.20536 0.0656,0.40037 0.10756,0.58282 0.042,0.18246 0.0897,0.35257 0.14254,0.5076 0.0528,0.15502 0.11075,0.29524 0.17293,0.4183 0.0622,0.12306 0.12872,0.22886 0.1987,0.31542 0.07,0.0866 0.14348,0.15386 0.21973,0.19941 0.0762,0.0456 0.15518,0.0693 0.23614,0.0693 h 25.11742 c 0.081,0 0.1599,-0.0238 0.23614,-0.0693 0.0763,-0.0456 0.14975,-0.11284 0.21973,-0.19941 0.07,-0.0865 0.13653,-0.19236 0.19871,-0.31542 0.0622,-0.12306 0.12009,-0.26328 0.17292,-0.4183 0.0528,-0.15503 0.10061,-0.32514 0.14255,-0.5076 0.042,-0.18245 0.0781,-0.37746 0.10756,-0.58282 0.0296,-0.20535 0.0524,-0.42073 0.068,-0.64446 0.0155,-0.22372 0.0236,-0.45582 0.0236,-0.69339 V 203.5999 c 0,-0.23757 -0.008,-0.46967 -0.0236,-0.6934 -0.0156,-0.22373 -0.0386,-0.4391 -0.068,-0.64446 -0.0296,-0.20535 -0.0656,-0.40036 -0.10756,-0.58281 -0.042,-0.18246 -0.0897,-0.35257 -0.14255,-0.50759 -0.0528,-0.15502 -0.11074,-0.29525 -0.17292,-0.4183 -0.0622,-0.12307 -0.12872,-0.22887 -0.19871,-0.31544 -0.07,-0.0866 -0.14347,-0.15386 -0.21973,-0.19941 -0.0762,-0.0456 -0.15517,-0.0694 -0.23614,-0.0694 z"
       id="path833"
       inkscape:connector-curvature="0" />
    <path
       style="opacity:1;fill:#000000;fill-opacity:1;stroke:none;stroke-width:92.36521149;stroke-linecap:round;stroke-linejoin:round;stroke-miterlimit:4;stroke-dasharray:none;stroke-dashoffset:108.28346252;stroke-opacity:1"
       d="M 82.947266 251.0918 C 70.234583 251.0918 60 260.27943 60 271.69336 L 60 919.06055 C 60 930.47449 70.234583 939.66211 82.947266 939.66211 L 660.91211 939.66211 L 740 856.42969 L 740 271.69336 C 740 260.27943 729.7654 251.0918 717.05273 251.0918 L 82.947266 251.0918 z M 400 501.0918 A 94.285706 94.285706 0 0 1 409.41211 501.5625 A 94.285706 94.285706 0 0 1 418.73242 502.9707 A 94.285706 94.285706 0 0 1 427.86328 505.30273 A 94.285706 94.285706 0 0 1 436.7168 508.5332 A 94.285706 94.285706 0 0 1 445.20312 512.63281 A 94.285706 94.285706 0 0 1 453.23828 517.55859 A 94.285706 94.285706 0 0 1 460.74023 523.26367 A 94.285706 94.285706 0 0 1 467.63672 529.6875 A 94.285706 94.285706 0 0 1 473.85742 536.76758 A 94.285706 94.285706 0 0 1 479.33789 544.43359 A 94.285706 94.285706 0 0 1 484.02734 552.60938 A 94.285706 94.285706 0 0 1 487.87891 561.21094 A 94.285706 94.285706 0 0 1 490.84961 570.15625 A 94.285706 94.285706 0 0 1 492.91406 579.35156 A 94.285706 94.285706 0 0 1 494.04883 588.70703 A 94.285706 94.285706 0 0 1 494.28516 595.37695 A 94.285706 94.285706 0 0 1 493.81445 604.78906 A 94.285706 94.285706 0 0 1 492.40625 614.10742 A 94.285706 94.285706 0 0 1 490.07422 623.24023 A 94.285706 94.285706 0 0 1 486.84375 632.09375 A 94.285706 94.285706 0 0 1 482.74414 640.58008 A 94.285706 94.285706 0 0 1 477.81641 648.61523 A 94.285706 94.285706 0 0 1 472.11328 656.11719 A 94.285706 94.285706 0 0 1 465.68945 663.01367 A 94.285706 94.285706 0 0 1 458.60938 669.23242 A 94.285706 94.285706 0 0 1 450.94336 674.71484 A 94.285706 94.285706 0 0 1 442.76758 679.4043 A 94.285706 94.285706 0 0 1 434.16602 683.25391 A 94.285706 94.285706 0 0 1 425.2207 686.22656 A 94.285706 94.285706 0 0 1 416.02539 688.29102 A 94.285706 94.285706 0 0 1 406.66992 689.42578 A 94.285706 94.285706 0 0 1 400 689.66211 A 94.285706 94.285706 0 0 1 390.58789 689.19141 A 94.285706 94.285706 0 0 1 381.26758 687.7832 A 94.285706 94.285706 0 0 1 372.13672 685.45117 A 94.285706 94.285706 0 0 1 363.2832 682.21875 A 94.285706 94.285706 0 0 1 354.79688 678.12109 A 94.285706 94.285706 0 0 1 346.76172 673.19336 A 94.285706 94.285706 0 0 1 339.25977 667.49023 A 94.285706 94.285706 0 0 1 332.36328 661.06641 A 94.285706 94.285706 0 0 1 326.14258 653.98633 A 94.285706 94.285706 0 0 1 320.66211 646.32031 A 94.285706 94.285706 0 0 1 315.97266 638.14453 A 94.285706 94.285706 0 0 1 312.12109 629.54102 A 94.285706 94.285706 0 0 1 309.15039 620.59766 A 94.285706 94.285706 0 0 1 307.08594 611.40234 A 94.285706 94.285706 0 0 1 305.95117 602.04688 A 94.285706 94.285706 0 0 1 305.71484 595.37695 A 94.285706 94.285706 0 0 1 306.18555 585.96289 A 94.285706 94.285706 0 0 1 307.59375 576.64453 A 94.285706 94.285706 0 0 1 309.92578 567.51367 A 94.285706 94.285706 0 0 1 313.15625 558.66016 A 94.285706 94.285706 0 0 1 317.25586 550.17383 A 94.285706 94.285706 0 0 1 322.18359 542.13867 A 94.285706 94.285706 0 0 1 327.88672 534.63672 A 94.285706 94.285706 0 0 1 334.31055 527.74023 A 94.285706 94.285706 0 0 1 341.39062 521.51953 A 94.285706 94.285706 0 0 1 349.05664 516.03711 A 94.285706 94.285706 0 0 1 357.23242 511.34766 A 94.285706 94.285706 0 0 1 365.83398 507.49805 A 94.285706 94.285706 0 0 1 374.7793 504.52734 A 94.285706 94.285706 0 0 1 383.97461 502.46289 A 94.285706 94.285706 0 0 1 393.33008 501.32812 A 94.285706 94.285706 0 0 1 400 501.0918 z M 240.14062 741.50977 L 559.85938 741.50977 C 560.88998 741.50977 561.89465 741.61786 562.86523 741.82422 C 563.83578 742.03096 564.77127 742.3359 565.66211 742.72852 C 566.55298 743.12113 567.39986 743.60203 568.19141 744.16016 C 568.98288 744.71832 569.72005 745.35357 570.39258 746.05664 C 571.06507 746.75975 571.67317 747.53189 572.20703 748.35938 C 572.74089 749.18686 573.20064 750.0706 573.57617 751.00195 C 573.95186 751.93334 574.24381 752.91109 574.44141 753.92578 C 574.63908 754.94047 574.74219 755.99281 574.74219 757.07031 L 574.74219 906.36133 C 574.74219 907.4388 574.63908 908.49117 574.44141 909.50586 C 574.24374 910.52055 573.95174 911.4983 573.57617 912.42969 C 573.20049 913.36104 572.74089 914.24478 572.20703 915.07227 C 571.67317 915.89976 571.06507 916.67193 570.39258 917.375 C 569.72005 918.07811 568.98288 918.71336 568.19141 919.27148 C 567.39986 919.82961 566.55298 920.31051 565.66211 920.70312 C 564.77127 921.09578 563.83578 921.40083 562.86523 921.60742 C 561.89465 921.81416 560.88998 921.92188 559.85938 921.92188 L 240.14062 921.92188 C 239.11002 921.92188 238.10533 921.81416 237.13477 921.60742 C 236.16421 921.40068 235.22875 921.09578 234.33789 920.70312 C 233.44703 920.31051 232.6001 919.82961 231.80859 919.27148 C 231.01709 918.71336 230.27993 918.07811 229.60742 917.375 C 228.93492 916.67193 228.32682 915.89976 227.79297 915.07227 C 227.25912 914.24478 226.79938 913.36104 226.42383 912.42969 C 226.04829 911.4983 225.7562 910.52055 225.55859 909.50586 C 225.361 908.49117 225.25781 907.4388 225.25781 906.36133 L 225.25781 757.07031 C 225.25781 755.99281 225.361 754.94047 225.55859 753.92578 C 225.75619 752.91109 226.04828 751.93334 226.42383 751.00195 C 226.79936 750.0706 227.25912 749.18686 227.79297 748.35938 C 228.32682 747.53189 228.93492 746.75975 229.60742 746.05664 C 230.27993 745.35357 231.01709 744.71832 231.80859 744.16016 C 232.6001 743.60203 233.44703 743.12113 234.33789 742.72852 C 235.22875 742.3359 236.16421 742.03081 237.13477 741.82422 C 238.10533 741.61748 239.11002 741.50977 240.14062 741.50977 z "
       id="rect815"
       transform="scale(0.26458333)" />
    <path
       transform="rotate(30)"
       style="opacity:1;fill:#000000;fill-opacity:1;stroke:none;stroke-width:3.68420982;stroke-linecap:round;stroke-linejoin:round;stroke-miterlimit:4;stroke-dasharray:none;stroke-dashoffset:108.28346252;stroke-opacity:1"
       inkscape:transform-center-x="-0.47052499"
       inkscape:transform-center-y="-0.81498623"
       d="m 175.88448,83.733566 a 5.2916646,5.2916646 0 0 1 -5.29166,5.291665 5.2916646,5.2916646 0 0 1 -5.29167,-5.291665 5.2916646,5.2916646 0 0 1 5.29167,-5.291664 5.2916646,5.2916646 0 0 1 5.29166,5.291664 z"
       id="path944-6" />
    <path
       style="opacity:1;fill:#000000;fill-opacity:1;stroke:none;stroke-width:4.06761312;stroke-linecap:round;stroke-linejoin:round;stroke-miterlimit:4;stroke-dasharray:none;stroke-dashoffset:108.28346252;stroke-opacity:1"
       d="m 109.10188,138.28224 c -0.039,-0.0225 -0.0793,-0.04 -0.12045,-0.0534 -0.0411,-0.0134 -0.0834,-0.0218 -0.12572,-0.026 -0.0423,-0.004 -0.085,-0.004 -0.12731,5e-5 -0.0423,0.004 -0.0842,0.0127 -0.12525,0.0251 -0.041,0.0125 -0.0812,0.029 -0.11976,0.0492 -0.0386,0.0202 -0.0755,0.0442 -0.11053,0.072 -0.0349,0.0276 -0.0677,0.059 -0.0977,0.0938 -0.0303,0.0346 -0.0666,0.0689 -0.0813,0.11464 l -2.08528,6.46702 c -0.0147,0.0457 -0.0439,0.084 -0.0586,0.12775 -0.0148,0.0436 -0.0259,0.0874 -0.0324,0.13148 -0.007,0.0441 -0.009,0.0882 -0.007,0.13175 0.002,0.0435 0.008,0.0866 0.0173,0.12832 0.01,0.0418 0.0234,0.0823 0.0408,0.12104 0.0174,0.0388 0.0387,0.0757 0.0636,0.11028 0.0249,0.0346 0.0534,0.0666 0.0854,0.0958 0.0316,0.0298 0.0676,0.0552 0.10645,0.0776 l 9.83146,5.6762 c 0.039,0.0225 0.0793,0.04 0.12045,0.0534 0.0411,0.0134 0.0834,0.0218 0.12572,0.0261 0.0423,0.004 0.085,0.004 0.12732,-4e-5 0.0423,-0.004 0.0842,-0.0127 0.12525,-0.0251 0.041,-0.0125 0.0812,-0.029 0.11975,-0.0492 0.0386,-0.0202 0.0755,-0.0443 0.11054,-0.072 0.0349,-0.0276 0.0676,-0.059 0.0977,-0.0938 0.0303,-0.0346 0.0506,-0.0777 0.0813,-0.11465 l 4.32122,-5.17611 c 0.0306,-0.037 0.0439,-0.084 0.0586,-0.12774 0.0148,-0.0436 0.0258,-0.0874 0.0324,-0.13149 0.007,-0.0441 0.009,-0.0882 0.007,-0.13174 -0.002,-0.0435 -0.008,-0.0866 -0.0173,-0.12821 -0.01,-0.0418 -0.0234,-0.0823 -0.0408,-0.12105 -0.0174,-0.0388 -0.0387,-0.0757 -0.0636,-0.11028 -0.0249,-0.0346 -0.0534,-0.0666 -0.0854,-0.0958 -0.0316,-0.0298 -0.0676,-0.0552 -0.10646,-0.0776 z"
       id="path833-4"
       inkscape:connector-curvature="0"
       sodipodi:nodetypes="sccccccssscccccccsscccccccsscccccccss"
       inkscape:transform-center-y="-13.673199"
       inkscape:transform-center-x="-8.3463145" />
  </g>
</svg>
