<?xml version="1.0" encoding="UTF-8" standalone="no"?>
<svg
   xmlns:ooo="http://xml.openoffice.org/svg/export"
   xmlns:dc="http://purl.org/dc/elements/1.1/"
   xmlns:cc="http://creativecommons.org/ns#"
   xmlns:rdf="http://www.w3.org/1999/02/22-rdf-syntax-ns#"
   xmlns:svg="http://www.w3.org/2000/svg"
   xmlns="http://www.w3.org/2000/svg"
   xmlns:sodipodi="http://sodipodi.sourceforge.net/DTD/sodipodi-0.dtd"
   xmlns:inkscape="http://www.inkscape.org/namespaces/inkscape"
   version="1.2"
   width="262.5mm"
   height="371.25mm"
   viewBox="0 0 26250 37125"
   preserveAspectRatio="xMidYMid"
   fill-rule="evenodd"
   stroke-width="28.222"
   stroke-linejoin="round"
   xml:space="preserve"
   id="svg2127"
   sodipodi:docname="settings-square-black.svg"
   inkscape:version="0.92.3 (2405546, 2018-03-11)"><metadata
   id="metadata2131"><rdf:RDF><cc:Work
       rdf:about=""><dc:format>image/svg+xml</dc:format><dc:type
         rdf:resource="http://purl.org/dc/dcmitype/StillImage" /><dc:title /></cc:Work></rdf:RDF></metadata><sodipodi:namedview
   pagecolor="#ffffff"
   bordercolor="#666666"
   borderopacity="1"
   objecttolerance="10"
   gridtolerance="10"
   guidetolerance="10"
   inkscape:pageopacity="0"
   inkscape:pageshadow="2"
   inkscape:window-width="1555"
   inkscape:window-height="849"
   id="namedview2129"
   showgrid="false"
   inkscape:zoom="0.16819304"
   inkscape:cx="-716.82905"
   inkscape:cy="701.57479"
   inkscape:window-x="0"
   inkscape:window-y="27"
   inkscape:window-maximized="0"
   inkscape:current-layer="g2123" />
 <defs
   class="ClipPathGroup"
   id="defs2009">
  <clipPath
   id="presentation_clip_path"
   clipPathUnits="userSpaceOnUse">
   <rect
   x="0"
   y="0"
   width="26250"
   height="37125"
   id="rect2003" />
  </clipPath>
  <clipPath
   id="presentation_clip_path_shrink"
   clipPathUnits="userSpaceOnUse">
   <rect
   x="26"
   y="37"
   width="26198"
   height="37051"
   id="rect2006" />
  </clipPath>
 
      
     
    
   
        
       </defs>
 <defs
   class="TextShapeIndex"
   id="defs2013">
  <g
   ooo:slide="id1"
   ooo:id-list="id3 id4 id5 id6 id7 id8 id9"
   id="g2011" />
 </defs>
 <defs
   class="EmbeddedBulletChars"
   id="defs2045">
  <g
   id="bullet-char-template-57356"
   transform="scale(0.00048828125,-0.00048828125)">
   <path
   d="M 580,1141 L 1163,571 580,0 -4,571 580,1141 Z"
   id="path2015" />
  </g>
  <g
   id="bullet-char-template-57354"
   transform="scale(0.00048828125,-0.00048828125)">
   <path
   d="M 8,1128 L 1137,1128 1137,0 8,0 8,1128 Z"
   id="path2018" />
  </g>
  <g
   id="bullet-char-template-10146"
   transform="scale(0.00048828125,-0.00048828125)">
   <path
   d="M 174,0 L 602,739 174,1481 1456,739 174,0 Z M 1358,739 L 309,1346 659,739 1358,739 Z"
   id="path2021" />
  </g>
  <g
   id="bullet-char-template-10132"
   transform="scale(0.00048828125,-0.00048828125)">
   <path
   d="M 2015,739 L 1276,0 717,0 1260,543 174,543 174,936 1260,936 717,1481 1274,1481 2015,739 Z"
   id="path2024" />
  </g>
  <g
   id="bullet-char-template-10007"
   transform="scale(0.00048828125,-0.00048828125)">
   <path
   d="M 0,-2 C -7,14 -16,27 -25,37 L 356,567 C 262,823 215,952 215,954 215,979 228,992 255,992 264,992 276,990 289,987 310,991 331,999 354,1012 L 381,999 492,748 772,1049 836,1024 860,1049 C 881,1039 901,1025 922,1006 886,937 835,863 770,784 769,783 710,716 594,584 L 774,223 C 774,196 753,168 711,139 L 727,119 C 717,90 699,76 672,76 641,76 570,178 457,381 L 164,-76 C 142,-110 111,-127 72,-127 30,-127 9,-110 8,-76 1,-67 -2,-52 -2,-32 -2,-23 -1,-13 0,-2 Z"
   id="path2027" />
  </g>
  <g
   id="bullet-char-template-10004"
   transform="scale(0.00048828125,-0.00048828125)">
   <path
   d="M 285,-33 C 182,-33 111,30 74,156 52,228 41,333 41,471 41,549 55,616 82,672 116,743 169,778 240,778 293,778 328,747 346,684 L 369,508 C 377,444 397,411 428,410 L 1163,1116 C 1174,1127 1196,1133 1229,1133 1271,1133 1292,1118 1292,1087 L 1292,965 C 1292,929 1282,901 1262,881 L 442,47 C 390,-6 338,-33 285,-33 Z"
   id="path2030" />
  </g>
  <g
   id="bullet-char-template-9679"
   transform="scale(0.00048828125,-0.00048828125)">
   <path
   d="M 813,0 C 632,0 489,54 383,161 276,268 223,411 223,592 223,773 276,916 383,1023 489,1130 632,1184 813,1184 992,1184 1136,1130 1245,1023 1353,916 1407,772 1407,592 1407,412 1353,268 1245,161 1136,54 992,0 813,0 Z"
   id="path2033" />
  </g>
  <g
   id="bullet-char-template-8226"
   transform="scale(0.00048828125,-0.00048828125)">
   <path
   d="M 346,457 C 273,457 209,483 155,535 101,586 74,649 74,723 74,796 101,859 155,911 209,963 273,989 346,989 419,989 480,963 531,910 582,859 608,796 608,723 608,648 583,586 532,535 482,483 420,457 346,457 Z"
   id="path2036" />
  </g>
  <g
   id="bullet-char-template-8211"
   transform="scale(0.00048828125,-0.00048828125)">
   <path
   d="M -4,459 L 1135,459 1135,606 -4,606 -4,459 Z"
   id="path2039" />
  </g>
  <g
   id="bullet-char-template-61548"
   transform="scale(0.00048828125,-0.00048828125)">
   <path
   d="M 173,740 C 173,903 231,1043 346,1159 462,1274 601,1332 765,1332 928,1332 1067,1274 1183,1159 1299,1043 1357,903 1357,740 1357,577 1299,437 1183,322 1067,206 928,148 765,148 601,148 462,206 346,322 231,437 173,577 173,740 Z"
   id="path2042" />
  </g>
 </defs>
 <defs
   class="TextEmbeddedBitmaps"
   id="defs2047" />
 <g
   id="g2052">
  <g
   id="id2"
   class="Master_Slide">
   <g
   id="bg-id2"
   class="Background" />
   <g
   id="bo-id2"
   class="BackgroundObjects" />
  </g>
 </g>
 <g
   class="SlideGroup"
   id="g2125">
  <g
   id="g2123">
   
  <path
   style="color:#000000;font-style:normal;font-variant:normal;font-weight:normal;font-stretch:normal;font-size:medium;line-height:normal;font-family:sans-serif;font-variant-ligatures:normal;font-variant-position:normal;font-variant-caps:normal;font-variant-numeric:normal;font-variant-alternates:normal;font-feature-settings:normal;text-indent:0;text-align:start;text-decoration:none;text-decoration-line:none;text-decoration-style:solid;text-decoration-color:#000000;letter-spacing:normal;word-spacing:normal;text-transform:none;writing-mode:lr-tb;direction:ltr;text-orientation:mixed;dominant-baseline:auto;baseline-shift:baseline;text-anchor:start;white-space:normal;shape-padding:0;clip-rule:nonzero;display:inline;overflow:visible;visibility:visible;opacity:1;isolation:auto;mix-blend-mode:normal;color-interpolation:sRGB;color-interpolation-filters:linearRGB;solid-color:#000000;solid-opacity:1;vector-effect:none;fill:#000000;fill-opacity:1;fill-rule:nonzero;stroke:none;stroke-width:61.83464432;stroke-linecap:round;stroke-linejoin:round;stroke-miterlimit:4;stroke-dasharray:none;stroke-dashoffset:108.28346252;stroke-opacity:1;color-rendering:auto;image-rendering:auto;shape-rendering:auto;text-rendering:auto;enable-background:accumulate"
   d="M 119.85352 301.35352 C 96.576679 301.35352 73.476562 319.66863 73.476562 345.97656 L 73.476562 1096.7363 C 73.476562 1123.0443 96.576675 1141.3594 119.85352 1141.3594 L 867.10938 1141.3594 C 890.3862 1141.3594 913.48438 1123.0443 913.48438 1096.7363 L 913.48438 345.97656 C 913.48438 319.66863 890.3862 301.35352 867.10938 301.35352 L 119.85352 301.35352 z M 258.58984 427.90234 L 261.85547 427.90234 C 286.14842 427.90231 310.25586 450.29462 310.25586 482.45508 L 310.25586 667.03516 L 364.91016 667.03516 C 377.78327 667.03516 386.74609 687.99459 386.74609 709.11523 L 386.74609 711.95312 C 386.74617 733.07377 377.78327 754.0332 364.91016 754.0332 L 310.25586 754.0332 L 310.25586 978.0957 C 310.25586 1010.2562 286.1485 1032.6484 261.85547 1032.6484 L 258.58984 1032.6484 C 234.29682 1032.6484 210.18945 1010.2562 210.18945 978.0957 L 210.18945 754.0332 L 166.51562 754.0332 C 153.64244 754.0332 144.67969 733.07384 144.67969 711.95312 L 144.67969 709.11523 C 144.67969 687.99455 153.64244 667.03516 166.51562 667.03516 L 210.18945 667.03516 L 210.18945 482.45508 C 210.18945 450.29462 234.29689 427.90234 258.58984 427.90234 z M 489.47461 427.90234 L 492.73828 427.90234 C 517.03123 427.90231 541.13867 450.29462 541.13867 482.45508 L 541.13867 889.49414 L 592.78711 889.49414 C 605.66022 889.49414 614.62305 910.45354 614.62305 931.57422 L 614.62305 934.41211 C 614.62312 955.53275 605.66022 976.49219 592.78711 976.49219 L 541.13867 976.49219 L 541.13867 978.0957 C 541.13867 1010.2561 517.03127 1032.6484 492.73828 1032.6484 L 489.47461 1032.6484 C 465.18158 1032.6484 441.07422 1010.2561 441.07422 978.0957 L 441.07422 976.49219 L 394.39258 976.49219 C 381.51939 976.49219 372.55664 955.53283 372.55664 934.41211 L 372.55664 931.57422 C 372.55664 910.4535 381.51939 889.49414 394.39258 889.49414 L 441.07422 889.49414 L 441.07422 482.45508 C 441.07422 450.29462 465.18166 427.90234 489.47461 427.90234 z M 720.35938 427.90234 L 723.62305 427.90234 C 747.916 427.90231 772.02344 450.29462 772.02344 482.45508 L 772.02344 519.1875 L 823.58203 519.1875 C 836.45514 519.1875 845.41797 540.14694 845.41797 561.26758 L 845.41797 564.10547 C 845.41801 585.22611 836.45514 606.18555 823.58203 606.18555 L 772.02344 606.18555 L 772.02344 978.0957 C 772.02344 1010.2562 747.91607 1032.6484 723.62305 1032.6484 L 720.35938 1032.6484 C 696.06639 1032.6484 671.95898 1010.2562 671.95898 978.0957 L 671.95898 606.18555 L 625.1875 606.18555 C 612.31435 606.18555 603.35156 585.22615 603.35156 564.10547 L 603.35156 561.26758 C 603.35156 540.14686 612.31435 519.1875 625.1875 519.1875 L 671.95898 519.1875 L 671.95898 482.45508 C 671.95898 450.29462 696.06642 427.90234 720.35938 427.90234 z "
   transform="scale(26.458333)"
   id="rect8103" /></g>
 </g>
</svg>