<?xml version="1.0" encoding="UTF-8" standalone="no"?>
<svg
   xmlns:ooo="http://xml.openoffice.org/svg/export"
   xmlns:dc="http://purl.org/dc/elements/1.1/"
   xmlns:cc="http://creativecommons.org/ns#"
   xmlns:rdf="http://www.w3.org/1999/02/22-rdf-syntax-ns#"
   xmlns:svg="http://www.w3.org/2000/svg"
   xmlns="http://www.w3.org/2000/svg"
   xmlns:sodipodi="http://sodipodi.sourceforge.net/DTD/sodipodi-0.dtd"
   xmlns:inkscape="http://www.inkscape.org/namespaces/inkscape"
   version="1.2"
   width="262.5mm"
   height="371.25mm"
   viewBox="0 0 26250 37125"
   preserveAspectRatio="xMidYMid"
   fill-rule="evenodd"
   stroke-width="28.222"
   stroke-linejoin="round"
   xml:space="preserve"
   id="svg2127"
   sodipodi:docname="settings-horizontal-black.svg"
   inkscape:version="0.92.3 (2405546, 2018-03-11)"><metadata
   id="metadata2131"><rdf:RDF><cc:Work
       rdf:about=""><dc:format>image/svg+xml</dc:format><dc:type
         rdf:resource="http://purl.org/dc/dcmitype/StillImage" /><dc:title /></cc:Work></rdf:RDF></metadata><sodipodi:namedview
   pagecolor="#ffffff"
   bordercolor="#666666"
   borderopacity="1"
   objecttolerance="10"
   gridtolerance="10"
   guidetolerance="10"
   inkscape:pageopacity="0"
   inkscape:pageshadow="2"
   inkscape:window-width="1920"
   inkscape:window-height="1016"
   id="namedview2129"
   showgrid="false"
   inkscape:zoom="0.16819304"
   inkscape:cx="496.06299"
   inkscape:cy="701.5748"
   inkscape:window-x="0"
   inkscape:window-y="27"
   inkscape:window-maximized="1"
   inkscape:current-layer="g2123" />
 <defs
   class="ClipPathGroup"
   id="defs2009">
  <clipPath
   id="presentation_clip_path"
   clipPathUnits="userSpaceOnUse">
   <rect
   x="0"
   y="0"
   width="26250"
   height="37125"
   id="rect2003" />
  </clipPath>
  <clipPath
   id="presentation_clip_path_shrink"
   clipPathUnits="userSpaceOnUse">
   <rect
   x="26"
   y="37"
   width="26198"
   height="37051"
   id="rect2006" />
  </clipPath>
 
      
     
    
   
        
       </defs>
 <defs
   class="TextShapeIndex"
   id="defs2013">
  <g
   ooo:slide="id1"
   ooo:id-list="id3 id4 id5 id6 id7 id8 id9"
   id="g2011" />
 </defs>
 <defs
   class="EmbeddedBulletChars"
   id="defs2045">
  <g
   id="bullet-char-template-57356"
   transform="scale(0.00048828125,-0.00048828125)">
   <path
   d="M 580,1141 L 1163,571 580,0 -4,571 580,1141 Z"
   id="path2015" />
  </g>
  <g
   id="bullet-char-template-57354"
   transform="scale(0.00048828125,-0.00048828125)">
   <path
   d="M 8,1128 L 1137,1128 1137,0 8,0 8,1128 Z"
   id="path2018" />
  </g>
  <g
   id="bullet-char-template-10146"
   transform="scale(0.00048828125,-0.00048828125)">
   <path
   d="M 174,0 L 602,739 174,1481 1456,739 174,0 Z M 1358,739 L 309,1346 659,739 1358,739 Z"
   id="path2021" />
  </g>
  <g
   id="bullet-char-template-10132"
   transform="scale(0.00048828125,-0.00048828125)">
   <path
   d="M 2015,739 L 1276,0 717,0 1260,543 174,543 174,936 1260,936 717,1481 1274,1481 2015,739 Z"
   id="path2024" />
  </g>
  <g
   id="bullet-char-template-10007"
   transform="scale(0.00048828125,-0.00048828125)">
   <path
   d="M 0,-2 C -7,14 -16,27 -25,37 L 356,567 C 262,823 215,952 215,954 215,979 228,992 255,992 264,992 276,990 289,987 310,991 331,999 354,1012 L 381,999 492,748 772,1049 836,1024 860,1049 C 881,1039 901,1025 922,1006 886,937 835,863 770,784 769,783 710,716 594,584 L 774,223 C 774,196 753,168 711,139 L 727,119 C 717,90 699,76 672,76 641,76 570,178 457,381 L 164,-76 C 142,-110 111,-127 72,-127 30,-127 9,-110 8,-76 1,-67 -2,-52 -2,-32 -2,-23 -1,-13 0,-2 Z"
   id="path2027" />
  </g>
  <g
   id="bullet-char-template-10004"
   transform="scale(0.00048828125,-0.00048828125)">
   <path
   d="M 285,-33 C 182,-33 111,30 74,156 52,228 41,333 41,471 41,549 55,616 82,672 116,743 169,778 240,778 293,778 328,747 346,684 L 369,508 C 377,444 397,411 428,410 L 1163,1116 C 1174,1127 1196,1133 1229,1133 1271,1133 1292,1118 1292,1087 L 1292,965 C 1292,929 1282,901 1262,881 L 442,47 C 390,-6 338,-33 285,-33 Z"
   id="path2030" />
  </g>
  <g
   id="bullet-char-template-9679"
   transform="scale(0.00048828125,-0.00048828125)">
   <path
   d="M 813,0 C 632,0 489,54 383,161 276,268 223,411 223,592 223,773 276,916 383,1023 489,1130 632,1184 813,1184 992,1184 1136,1130 1245,1023 1353,916 1407,772 1407,592 1407,412 1353,268 1245,161 1136,54 992,0 813,0 Z"
   id="path2033" />
  </g>
  <g
   id="bullet-char-template-8226"
   transform="scale(0.00048828125,-0.00048828125)">
   <path
   d="M 346,457 C 273,457 209,483 155,535 101,586 74,649 74,723 74,796 101,859 155,911 209,963 273,989 346,989 419,989 480,963 531,910 582,859 608,796 608,723 608,648 583,586 532,535 482,483 420,457 346,457 Z"
   id="path2036" />
  </g>
  <g
   id="bullet-char-template-8211"
   transform="scale(0.00048828125,-0.00048828125)">
   <path
   d="M -4,459 L 1135,459 1135,606 -4,606 -4,459 Z"
   id="path2039" />
  </g>
  <g
   id="bullet-char-template-61548"
   transform="scale(0.00048828125,-0.00048828125)">
   <path
   d="M 173,740 C 173,903 231,1043 346,1159 462,1274 601,1332 765,1332 928,1332 1067,1274 1183,1159 1299,1043 1357,903 1357,740 1357,577 1299,437 1183,322 1067,206 928,148 765,148 601,148 462,206 346,322 231,437 173,577 173,740 Z"
   id="path2042" />
  </g>
 </defs>
 <defs
   class="TextEmbeddedBitmaps"
   id="defs2047" />
 <g
   id="g2052">
  <g
   id="id2"
   class="Master_Slide">
   <g
   id="bg-id2"
   class="Background" />
   <g
   id="bo-id2"
   class="BackgroundObjects" />
  </g>
 </g>
 <g
   class="SlideGroup"
   id="g2125">
  <g
   id="g2123">
   
  <path
   style="color:#000000;font-style:normal;font-variant:normal;font-weight:normal;font-stretch:normal;font-size:medium;line-height:normal;font-family:sans-serif;font-variant-ligatures:normal;font-variant-position:normal;font-variant-caps:normal;font-variant-numeric:normal;font-variant-alternates:normal;font-feature-settings:normal;text-indent:0;text-align:start;text-decoration:none;text-decoration-line:none;text-decoration-style:solid;text-decoration-color:#000000;letter-spacing:normal;word-spacing:normal;text-transform:none;writing-mode:lr-tb;direction:ltr;text-orientation:mixed;dominant-baseline:auto;baseline-shift:baseline;text-anchor:start;white-space:normal;shape-padding:0;clip-rule:nonzero;display:inline;overflow:visible;visibility:visible;opacity:1;isolation:auto;mix-blend-mode:normal;color-interpolation:sRGB;color-interpolation-filters:linearRGB;solid-color:#000000;solid-opacity:1;vector-effect:none;fill:#000000;fill-opacity:1;fill-rule:nonzero;stroke:none;stroke-width:61.83464432;stroke-linecap:round;stroke-linejoin:round;stroke-miterlimit:4;stroke-dasharray:none;stroke-dashoffset:108.28346252;stroke-opacity:1;color-rendering:auto;image-rendering:auto;shape-rendering:auto;text-rendering:auto;enable-background:accumulate"
   d="M 118.10156 301.35352 C 91.793654 301.35352 73.476562 324.45168 73.476562 347.72852 L 73.476562 1094.9844 C 73.476562 1118.2612 91.793654 1141.3594 118.10156 1141.3594 L 868.85938 1141.3594 C 895.16731 1141.3594 913.48438 1118.2612 913.48438 1094.9844 L 913.48438 347.72852 C 913.48438 324.45168 895.16731 301.35352 868.85938 301.35352 L 118.10156 301.35352 z M 502.88477 372.55664 L 505.72266 372.55664 C 526.84334 372.55664 547.80273 381.51939 547.80273 394.39258 L 547.80273 438.06641 L 732.38281 438.06641 C 764.54327 438.06641 786.93555 462.17385 786.93555 486.4668 L 786.93555 489.73242 C 786.93558 514.02537 764.54327 538.13281 732.38281 538.13281 L 547.80273 538.13281 L 547.80273 592.78711 C 547.80273 605.66022 526.8433 614.62305 505.72266 614.62305 L 502.88477 614.62305 C 481.76412 614.62312 460.80469 605.66022 460.80469 592.78711 L 460.80469 538.13281 L 236.74219 538.13281 C 204.5817 538.13281 182.18945 514.02545 182.18945 489.73242 L 182.18945 486.4668 C 182.18945 462.17377 204.5817 438.06641 236.74219 438.06641 L 460.80469 438.06641 L 460.80469 394.39258 C 460.80469 381.51939 481.76405 372.55664 502.88477 372.55664 z M 280.42578 600.43359 L 283.26367 600.43359 C 304.38439 600.43359 325.34375 609.39635 325.34375 622.26953 L 325.34375 668.95117 L 732.38281 668.95117 C 764.54327 668.95117 786.93555 693.05861 786.93555 717.35156 L 786.93555 720.61523 C 786.93558 744.90819 764.54327 769.01562 732.38281 769.01562 L 325.34375 769.01562 L 325.34375 820.66406 C 325.34375 833.53717 304.38435 842.5 283.26367 842.5 L 280.42578 842.5 C 259.30514 842.50008 238.3457 833.53717 238.3457 820.66406 L 238.3457 769.01562 L 236.74219 769.01562 C 204.58177 769.01562 182.18945 744.90822 182.18945 720.61523 L 182.18945 717.35156 C 182.18945 693.05854 204.58177 668.95117 236.74219 668.95117 L 238.3457 668.95117 L 238.3457 622.26953 C 238.3457 609.39635 259.30507 600.43359 280.42578 600.43359 z M 650.73242 831.22852 L 653.57031 831.22852 C 674.69103 831.22852 695.65039 840.19131 695.65039 853.06445 L 695.65039 899.83594 L 732.38281 899.83594 C 764.54327 899.83594 786.93555 923.94338 786.93555 948.23633 L 786.93555 951.5 C 786.93558 975.79295 764.54327 999.90039 732.38281 999.90039 L 695.65039 999.90039 L 695.65039 1051.459 C 695.65039 1064.3321 674.69096 1073.2949 653.57031 1073.2949 L 650.73242 1073.2949 C 629.61178 1073.295 608.65234 1064.3321 608.65234 1051.459 L 608.65234 999.90039 L 236.74219 999.90039 C 204.5817 999.90039 182.18945 975.79303 182.18945 951.5 L 182.18945 948.23633 C 182.18945 923.94334 204.5817 899.83594 236.74219 899.83594 L 608.65234 899.83594 L 608.65234 853.06445 C 608.65234 840.19131 629.61174 831.22852 650.73242 831.22852 z "
   transform="scale(26.458333)"
   id="rect8103" /></g>
 </g>
</svg>