<?xml version="1.0" encoding="UTF-8" standalone="no"?>
<!-- Created with Inkscape (http://www.inkscape.org/) -->

<svg
   xmlns:dc="http://purl.org/dc/elements/1.1/"
   xmlns:cc="http://creativecommons.org/ns#"
   xmlns:rdf="http://www.w3.org/1999/02/22-rdf-syntax-ns#"
   xmlns:svg="http://www.w3.org/2000/svg"
   xmlns="http://www.w3.org/2000/svg"
   xmlns:sodipodi="http://sodipodi.sourceforge.net/DTD/sodipodi-0.dtd"
   xmlns:inkscape="http://www.inkscape.org/namespaces/inkscape"
   width="210mm"
   height="297mm"
   viewBox="0 0 210 297"
   version="1.1"
   id="svg879"
   sodipodi:docname="upload.svg"
   inkscape:version="0.92.3 (2405546, 2018-03-11)">
  <defs
     id="defs873" />
  <sodipodi:namedview
     id="base"
     pagecolor="#ffffff"
     bordercolor="#666666"
     borderopacity="1.0"
     inkscape:pageopacity="0.0"
     inkscape:pageshadow="2"
     inkscape:zoom="0.35"
     inkscape:cx="4.5444319"
     inkscape:cy="731.2687"
     inkscape:document-units="mm"
     inkscape:current-layer="layer1"
     showgrid="false"
     inkscape:window-width="1341"
     inkscape:window-height="845"
     inkscape:window-x="558"
     inkscape:window-y="75"
     inkscape:window-maximized="0" />
  <metadata
     id="metadata876">
    <rdf:RDF>
      <cc:Work
         rdf:about="">
        <dc:format>image/svg+xml</dc:format>
        <dc:type
           rdf:resource="http://purl.org/dc/dcmitype/StillImage" />
        <dc:title></dc:title>
      </cc:Work>
    </rdf:RDF>
  </metadata>
  <g
     inkscape:label="Layer 1"
     inkscape:groupmode="layer"
     id="layer1">
    <path
       style="opacity:1;fill:#000000;fill-opacity:1;stroke:none;stroke-width:10.68464088;stroke-linecap:round;stroke-linejoin:round;stroke-miterlimit:4;stroke-dasharray:none;stroke-dashoffset:108.28346252;stroke-opacity:1"
       d="M 399.24609 284.69922 C 396.88183 284.78482 394.62716 285.67558 392.9082 287.39453 L 179.74023 500.5625 C 175.81123 504.49151 176.21522 511.22107 180.64648 515.65234 L 183.54102 518.54688 L 317.05273 518.54688 L 317.05273 770.49023 C 317.05273 775.43257 320.78945 779.41016 325.42969 779.41016 L 474.57031 779.41016 C 479.21055 779.41016 482.94727 775.43257 482.94727 770.49023 L 482.94727 518.54688 L 616.46094 518.54688 L 620.25977 514.74609 C 624.18877 510.81712 623.78475 504.08748 619.35352 499.65625 L 407.99805 288.30078 C 405.50546 285.80821 402.28586 284.58916 399.24609 284.69922 z M 68.183594 662.51953 C 58.900885 662.51953 51.427734 665.21381 51.427734 668.56055 L 51.427734 879.33594 C 51.427734 882.68267 58.900885 885.37695 68.183594 885.37695 L 731.81641 885.37695 C 741.09911 885.37695 748.57227 882.68267 748.57227 879.33594 L 748.57227 668.56055 C 748.57227 665.21381 741.09911 662.51953 731.81641 662.51953 L 507.54492 662.51953 L 507.54492 788.41602 C 507.54492 790.01802 507.24144 791.54102 506.69336 792.92578 C 506.14528 794.31055 505.35255 795.55621 504.37109 796.60156 C 503.38964 797.64692 502.22005 798.49241 500.91992 799.07617 C 499.6198 799.65994 498.18963 799.98242 496.68555 799.98242 L 303.31445 799.98242 C 301.81036 799.98242 300.38021 799.65994 299.08008 799.07617 C 297.77995 798.49241 296.61037 797.64692 295.62891 796.60156 C 294.64744 795.55621 293.85473 794.31055 293.30664 792.92578 C 292.75855 791.54102 292.45508 790.01802 292.45508 788.41602 L 292.45508 662.51953 L 68.183594 662.51953 z M 572.85742 779.66211 A 31.428573 31.428573 0 0 1 575.99414 779.82031 A 31.428573 31.428573 0 0 1 579.10156 780.28906 A 31.428573 31.428573 0 0 1 582.14453 781.06641 A 31.428573 31.428573 0 0 1 585.0957 782.14258 A 31.428573 31.428573 0 0 1 587.92383 783.50977 A 31.428573 31.428573 0 0 1 590.60352 785.15234 A 31.428573 31.428573 0 0 1 593.10352 787.05273 A 31.428573 31.428573 0 0 1 595.40234 789.19531 A 31.428573 31.428573 0 0 1 597.47656 791.55469 A 31.428573 31.428573 0 0 1 599.30273 794.10938 A 31.428573 31.428573 0 0 1 600.86719 796.83594 A 31.428573 31.428573 0 0 1 602.15039 799.70312 A 31.428573 31.428573 0 0 1 603.14062 802.68359 A 31.428573 31.428573 0 0 1 603.82812 805.75 A 31.428573 31.428573 0 0 1 604.20703 808.86719 A 31.428573 31.428573 0 0 1 604.28516 811.0918 A 31.428573 31.428573 0 0 1 604.12891 814.22852 A 31.428573 31.428573 0 0 1 603.6582 817.33594 A 31.428573 31.428573 0 0 1 602.88086 820.37891 A 31.428573 31.428573 0 0 1 601.80469 823.33008 A 31.428573 31.428573 0 0 1 600.4375 826.1582 A 31.428573 31.428573 0 0 1 598.79688 828.83789 A 31.428573 31.428573 0 0 1 596.89453 831.33789 A 31.428573 31.428573 0 0 1 594.75391 833.63672 A 31.428573 31.428573 0 0 1 592.39258 835.70898 A 31.428573 31.428573 0 0 1 589.83789 837.53711 A 31.428573 31.428573 0 0 1 587.11328 839.09961 A 31.428573 31.428573 0 0 1 584.24609 840.38281 A 31.428573 31.428573 0 0 1 581.26367 841.375 A 31.428573 31.428573 0 0 1 578.19922 842.0625 A 31.428573 31.428573 0 0 1 575.08008 842.44141 A 31.428573 31.428573 0 0 1 572.85742 842.51953 A 31.428573 31.428573 0 0 1 569.71875 842.36328 A 31.428573 31.428573 0 0 1 566.61328 841.89258 A 31.428573 31.428573 0 0 1 563.56836 841.11523 A 31.428573 31.428573 0 0 1 560.61719 840.03906 A 31.428573 31.428573 0 0 1 557.78906 838.67188 A 31.428573 31.428573 0 0 1 555.11133 837.0293 A 31.428573 31.428573 0 0 1 552.60938 835.12891 A 31.428573 31.428573 0 0 1 550.31055 832.98828 A 31.428573 31.428573 0 0 1 548.23828 830.62695 A 31.428573 31.428573 0 0 1 546.41016 828.07227 A 31.428573 31.428573 0 0 1 544.84766 825.34766 A 31.428573 31.428573 0 0 1 543.56445 822.48047 A 31.428573 31.428573 0 0 1 542.57422 819.49805 A 31.428573 31.428573 0 0 1 541.88477 816.43359 A 31.428573 31.428573 0 0 1 541.50781 813.31445 A 31.428573 31.428573 0 0 1 541.42773 811.0918 A 31.428573 31.428573 0 0 1 541.58594 807.95312 A 31.428573 31.428573 0 0 1 542.05469 804.84766 A 31.428573 31.428573 0 0 1 542.83203 801.80273 A 31.428573 31.428573 0 0 1 543.91016 798.85156 A 31.428573 31.428573 0 0 1 545.27539 796.02344 A 31.428573 31.428573 0 0 1 546.91797 793.3457 A 31.428573 31.428573 0 0 1 548.81836 790.84375 A 31.428573 31.428573 0 0 1 550.96094 788.54492 A 31.428573 31.428573 0 0 1 553.32031 786.47266 A 31.428573 31.428573 0 0 1 555.87695 784.64453 A 31.428573 31.428573 0 0 1 558.60156 783.08203 A 31.428573 31.428573 0 0 1 561.46875 781.79883 A 31.428573 31.428573 0 0 1 564.44922 780.80859 A 31.428573 31.428573 0 0 1 567.51562 780.11914 A 31.428573 31.428573 0 0 1 570.63281 779.74219 A 31.428573 31.428573 0 0 1 572.85742 779.66211 z M 673.14062 779.66211 A 31.428573 31.428573 0 0 1 676.27734 779.82031 A 31.428573 31.428573 0 0 1 679.38281 780.28906 A 31.428573 31.428573 0 0 1 682.42773 781.06641 A 31.428573 31.428573 0 0 1 685.37891 782.14258 A 31.428573 31.428573 0 0 1 688.20703 783.50977 A 31.428573 31.428573 0 0 1 690.88672 785.15234 A 31.428573 31.428573 0 0 1 693.38672 787.05273 A 31.428573 31.428573 0 0 1 695.68555 789.19531 A 31.428573 31.428573 0 0 1 697.75781 791.55469 A 31.428573 31.428573 0 0 1 699.58594 794.10938 A 31.428573 31.428573 0 0 1 701.14844 796.83594 A 31.428573 31.428573 0 0 1 702.43164 799.70312 A 31.428573 31.428573 0 0 1 703.42383 802.68359 A 31.428573 31.428573 0 0 1 704.11133 805.75 A 31.428573 31.428573 0 0 1 704.49023 808.86719 A 31.428573 31.428573 0 0 1 704.56836 811.0918 A 31.428573 31.428573 0 0 1 704.41211 814.22852 A 31.428573 31.428573 0 0 1 703.94141 817.33594 A 31.428573 31.428573 0 0 1 703.16406 820.37891 A 31.428573 31.428573 0 0 1 702.08789 823.33008 A 31.428573 31.428573 0 0 1 700.7207 826.1582 A 31.428573 31.428573 0 0 1 699.07812 828.83789 A 31.428573 31.428573 0 0 1 697.17773 831.33789 A 31.428573 31.428573 0 0 1 695.03711 833.63672 A 31.428573 31.428573 0 0 1 692.67578 835.70898 A 31.428573 31.428573 0 0 1 690.12109 837.53711 A 31.428573 31.428573 0 0 1 687.39648 839.09961 A 31.428573 31.428573 0 0 1 684.52734 840.38281 A 31.428573 31.428573 0 0 1 681.54688 841.375 A 31.428573 31.428573 0 0 1 678.48242 842.0625 A 31.428573 31.428573 0 0 1 675.36328 842.44141 A 31.428573 31.428573 0 0 1 673.14062 842.51953 A 31.428573 31.428573 0 0 1 670.00195 842.36328 A 31.428573 31.428573 0 0 1 666.89648 841.89258 A 31.428573 31.428573 0 0 1 663.85156 841.11523 A 31.428573 31.428573 0 0 1 660.90039 840.03906 A 31.428573 31.428573 0 0 1 658.07227 838.67188 A 31.428573 31.428573 0 0 1 655.39453 837.0293 A 31.428573 31.428573 0 0 1 652.89258 835.12891 A 31.428573 31.428573 0 0 1 650.59375 832.98828 A 31.428573 31.428573 0 0 1 648.52148 830.62695 A 31.428573 31.428573 0 0 1 646.69336 828.07227 A 31.428573 31.428573 0 0 1 645.13086 825.34766 A 31.428573 31.428573 0 0 1 643.84766 822.47852 A 31.428573 31.428573 0 0 1 642.85742 819.49805 A 31.428573 31.428573 0 0 1 642.16797 816.43359 A 31.428573 31.428573 0 0 1 641.79102 813.31445 A 31.428573 31.428573 0 0 1 641.71094 811.0918 A 31.428573 31.428573 0 0 1 641.86914 807.95312 A 31.428573 31.428573 0 0 1 642.33789 804.84766 A 31.428573 31.428573 0 0 1 643.11523 801.80273 A 31.428573 31.428573 0 0 1 644.19141 798.85156 A 31.428573 31.428573 0 0 1 645.55859 796.02344 A 31.428573 31.428573 0 0 1 647.20117 793.3457 A 31.428573 31.428573 0 0 1 649.10156 790.84375 A 31.428573 31.428573 0 0 1 651.24414 788.54492 A 31.428573 31.428573 0 0 1 653.60352 786.47266 A 31.428573 31.428573 0 0 1 656.1582 784.64453 A 31.428573 31.428573 0 0 1 658.88477 783.08203 A 31.428573 31.428573 0 0 1 661.75195 781.79883 A 31.428573 31.428573 0 0 1 664.73242 780.80859 A 31.428573 31.428573 0 0 1 667.79883 780.11914 A 31.428573 31.428573 0 0 1 670.91602 779.74219 A 31.428573 31.428573 0 0 1 673.14062 779.66211 z "
       transform="scale(0.26458333)"
       id="path2293" />
  </g>
</svg>
