<?xml version="1.0" encoding="UTF-8" standalone="no"?>
<!-- Created with Inkscape (http://www.inkscape.org/) -->

<svg
   xmlns:dc="http://purl.org/dc/elements/1.1/"
   xmlns:cc="http://creativecommons.org/ns#"
   xmlns:rdf="http://www.w3.org/1999/02/22-rdf-syntax-ns#"
   xmlns:svg="http://www.w3.org/2000/svg"
   xmlns="http://www.w3.org/2000/svg"
   xmlns:sodipodi="http://sodipodi.sourceforge.net/DTD/sodipodi-0.dtd"
   xmlns:inkscape="http://www.inkscape.org/namespaces/inkscape"
   width="210mm"
   height="297mm"
   viewBox="0 0 210 297"
   version="1.1"
   id="svg8"
   inkscape:version="0.92.3 (2405546, 2018-03-11)"
   sodipodi:docname="user.svg">
  <defs
     id="defs2" />
  <sodipodi:namedview
     id="base"
     pagecolor="#ffffff"
     bordercolor="#666666"
     borderopacity="1.0"
     inkscape:pageopacity="0.0"
     inkscape:pageshadow="2"
     inkscape:zoom="0.35"
     inkscape:cx="356.1154"
     inkscape:cy="548.57143"
     inkscape:document-units="mm"
     inkscape:current-layer="layer1"
     showgrid="false"
     inkscape:window-width="1343"
     inkscape:window-height="844"
     inkscape:window-x="577"
     inkscape:window-y="177"
     inkscape:window-maximized="0" />
  <metadata
     id="metadata5">
    <rdf:RDF>
      <cc:Work
         rdf:about="">
        <dc:format>image/svg+xml</dc:format>
        <dc:type
           rdf:resource="http://purl.org/dc/dcmitype/StillImage" />
        <dc:title></dc:title>
      </cc:Work>
    </rdf:RDF>
  </metadata>
  <g
     inkscape:label="Layer 1"
     inkscape:groupmode="layer"
     id="layer1">
    <path
       style="opacity:1;fill:#000000;fill-opacity:1;stroke:none;stroke-width:28.24074173;stroke-linecap:round;stroke-linejoin:round;stroke-miterlimit:4;stroke-dasharray:none;stroke-dashoffset:108.28346252;stroke-opacity:1"
       d="M 161.96265,90.121487 A 57.641371,57.641371 0 0 1 104.32128,147.7629 57.641371,57.641371 0 0 1 46.679908,90.121487 a 57.641371,57.641371 0 0 1 57.641372,-57.64137 57.641371,57.641371 0 0 1 57.64137,57.64137 z"
       id="path815"
       inkscape:connector-curvature="0" />
    <path
       style="opacity:1;fill:#000000;fill-opacity:1;stroke:none;stroke-width:29.07463455;stroke-linecap:round;stroke-linejoin:round;stroke-miterlimit:4;stroke-dasharray:none;stroke-dashoffset:108.28346252;stroke-opacity:1"
       d="m 148.87063,155.54994 a 53.524129,23.865517 0 0 1 -0.37377,0.27188 53.524129,23.865517 0 0 1 -3.23783,1.89868 53.524129,23.865517 0 0 1 -3.64705,1.74613 53.524129,23.865517 0 0 1 -4.01913,1.57444 53.524129,23.865517 0 0 1 -4.35238,1.387 53.524129,23.865517 0 0 1 -4.64058,1.18716 53.524129,23.865517 0 0 1 -4.88375,0.97439 53.524129,23.865517 0 0 1 -5.07684,0.7526 53.524129,23.865517 0 0 1 -5.22037,0.52237 53.524129,23.865517 0 0 1 -5.31156,0.28765 53.524129,23.865517 0 0 1 -3.78609,0.0597 53.524129,23.865517 0 0 1 -5.343086,-0.11933 53.524129,23.865517 0 0 1 -5.290172,-0.35632 53.524129,23.865517 0 0 1 -5.183781,-0.59049 53.524129,23.865517 0 0 1 -5.026171,-0.8179 53.524129,23.865517 0 0 1 -4.817332,-1.03743 53.524129,23.865517 0 0 1 -4.56121,-1.24739 53.524129,23.865517 0 0 1 -4.259495,-1.44329 53.524129,23.865517 0 0 1 -3.914434,-1.62623 53.524129,23.865517 0 0 1 -3.531096,-1.79228 53.524129,23.865517 0 0 1 -2.571347,-1.60315 92.226195,38.184827 0 0 0 -47.728066,33.39765 92.226195,38.184827 0 0 0 0.04447,0.36702 h 0.06417 c -0.07067,0.40448 -0.108641,0.82366 -0.108641,1.25302 v 24.13676 c 0,3.45201 2.397169,6.23078 5.374608,6.23078 H 191.17286 c 2.97744,0 5.37461,-2.77877 5.37461,-6.23078 v -24.13676 c 0,-0.42936 -0.0374,-0.84854 -0.10808,-1.25302 h 0.0766 a 92.226195,38.184827 0 0 0 0.0315,-0.36702 92.226195,38.184827 0 0 0 -47.67684,-33.4258 z"
       id="path842"
       inkscape:connector-curvature="0" />
  </g>
</svg>
